<?xml version="1.0" encoding="utf-8"?>
<!-- Generator: Adobe Illustrator 17.1.0, SVG Export Plug-In . SVG Version: 6.00 Build 0)  -->
<!DOCTYPE svg PUBLIC "-//W3C//DTD SVG 1.1//EN" "http://www.w3.org/Graphics/SVG/1.1/DTD/svg11.dtd">
<svg version="1.1" id="Layer_1" xmlns="http://www.w3.org/2000/svg" xmlns:xlink="http://www.w3.org/1999/xlink" x="0px" y="0px"
	 viewBox="0 0 64 64" style="enable-background:new 0 0 64 64;" xml:space="preserve">
<style type="text/css">
	.st0{fill:#FF614A;}
</style>
<path class="st0" d="M62,18h-8.2l9.6-9.6c0.8-0.8,0.8-2,0-2.8l-5-5c-0.7-0.8-2.1-0.8-2.8,0L38.2,18H2c-1.1,0-2,0.9-2,2v42
	c0,1.1,0.9,2,2,2h60c1.1,0,2-0.9,2-2V20C64,18.9,63.1,18,62,18z M37.7,24.1l2.2,2.2L39,27.2l-3,0.9l0.9-3L37.7,24.1z M31.6,32.4
	C32,32.8,32.5,33,33,33c0.2,0,0.4,0,0.5-0.1l7-2c0.3-0.1,0.6-0.3,0.9-0.5l3.4-3.4H55v28H18V27h14.1l-1,3.5
	C30.9,31.1,31.1,31.9,31.6,32.4z M41.3,24.9l-2.2-2.2L53.7,8.1l2.2,2.2l-8.3,8.3c0,0,0,0,0,0L41.3,24.9z M57,4.8L59.2,7l-1.9,1.9
	l-2.2-2.2L57,4.8z M60,60H4V22h30.2l-0.6,0.6c-0.2,0.2-0.4,0.5-0.5,0.9L32.6,25H17c-0.6,0-1,0.4-1,1v30c0,0.6,0.4,1,1,1h39
	c0.6,0,1-0.4,1-1V26c0-0.6-0.4-1-1-1h-9.2l3-3H60V60z M10,37c-2.2,0-4,1.8-4,4c0,2.2,1.8,4,4,4s4-1.8,4-4C14,38.8,12.2,37,10,37z
	 M10,43c-1.1,0-2-0.9-2-2s0.9-2,2-2s2,0.9,2,2S11.1,43,10,43z M25,30c0,0.6-0.4,1-1,1h-2v2c0,0.6-0.4,1-1,1s-1-0.4-1-1v-3
	c0-0.6,0.4-1,1-1h3C24.6,29,25,29.4,25,30z M48,30c0-0.6,0.4-1,1-1h3c0.6,0,1,0.4,1,1v3c0,0.6-0.4,1-1,1s-1-0.4-1-1v-2h-2
	C48.4,31,48,30.5,48,30z M25,52c0,0.6-0.4,1-1,1h-3c-0.6,0-1-0.4-1-1v-3c0-0.6,0.4-1,1-1s1,0.4,1,1v2h2C24.6,51,25,51.4,25,52z
	 M48,52c0-0.6,0.4-1,1-1h2v-2c0-0.6,0.4-1,1-1s1,0.4,1,1v3c0,0.6-0.4,1-1,1h-3C48.4,53,48,52.5,48,52z M11.9,53c0,0.6-0.4,1-1,1h-2
	c-0.6,0-1-0.4-1-1c0-0.6,0.4-1,1-1h2C11.5,52,11.9,52.4,11.9,53z M11.9,49c0,0.6-0.4,1-1,1h-2c-0.6,0-1-0.4-1-1c0-0.6,0.4-1,1-1h2
	C11.5,48,11.9,48.4,11.9,49z M7.9,33c0-0.6,0.4-1,1-1h2c0.6,0,1,0.4,1,1s-0.4,1-1,1h-2C8.4,34,7.9,33.5,7.9,33z M7.9,29
	c0-0.6,0.4-1,1-1h2c0.6,0,1,0.4,1,1c0,0.6-0.4,1-1,1h-2C8.4,30,7.9,29.5,7.9,29z"/>
</svg>
