<?xml version="1.0" encoding="utf-8"?>
<!-- Generator: Adobe Illustrator 17.1.0, SVG Export Plug-In . SVG Version: 6.00 Build 0)  -->
<!DOCTYPE svg PUBLIC "-//W3C//DTD SVG 1.1//EN" "http://www.w3.org/Graphics/SVG/1.1/DTD/svg11.dtd">
<svg version="1.1" id="Layer_1" xmlns="http://www.w3.org/2000/svg" xmlns:xlink="http://www.w3.org/1999/xlink" x="0px" y="0px"
	 viewBox="0 0 64 64" style="enable-background:new 0 0 64 64;" xml:space="preserve">
<style type="text/css">
	.st0{fill:#FF614A;}
</style>
<path class="st0" d="M64,32c0,8.5-3.3,16.6-9.4,22.6c-6,6-14.1,9.4-22.6,9.4c-7,0-13.7-2.3-19.2-6.4v3.6c0,1.1-0.9,2-2,2s-2-0.9-2-2
	v-8c0-0.1,0-0.3,0-0.4c0-0.1,0-0.1,0.1-0.2c0-0.1,0-0.1,0.1-0.2C9,52.4,9,52.3,9,52.3c0,0,0-0.1,0.1-0.1c0.1-0.2,0.3-0.4,0.6-0.6
	c0,0,0.1-0.1,0.1-0.1c0.1,0,0.1-0.1,0.2-0.1c0.1,0,0.1,0,0.2-0.1c0.1,0,0.1,0,0.2-0.1c0.1,0,0.3,0,0.4,0h8c1.1,0,2,0.9,2,2
	s-0.9,2-2,2h-2.5c4.6,3.1,10,4.8,15.7,4.8c7.5,0,14.5-2.9,19.8-8.2S60,39.5,60,32c0-1.1,0.9-2,2-2S64,30.9,64,32z M32,4
	c5.7,0,11.1,1.7,15.7,4.8h-2.5c-1.1,0-2,0.9-2,2s0.9,2,2,2h8c0.1,0,0.3,0,0.4,0c0.1,0,0.1,0,0.2-0.1c0.1,0,0.1,0,0.2-0.1
	c0.1,0,0.1-0.1,0.2-0.1c0,0,0.1,0,0.1-0.1c0.2-0.1,0.4-0.3,0.6-0.6c0,0,0.1-0.1,0.1-0.1c0-0.1,0.1-0.1,0.1-0.2c0-0.1,0-0.1,0.1-0.2
	c0-0.1,0-0.1,0.1-0.2c0-0.1,0-0.3,0-0.4v-8c0-1.1-0.9-2-2-2s-2,0.9-2,2v3.6C45.7,2.3,39,0,32,0C23.5,0,15.4,3.3,9.4,9.4
	C3.3,15.4,0,23.5,0,32c0,1.1,0.9,2,2,2s2-0.9,2-2c0-7.5,2.9-14.5,8.2-19.8S24.5,4,32,4z M34.2,57.9C34.2,57.9,34.2,57.9,34.2,57.9
	c7-0.6,13.3-3.9,17.7-9.2c0.4-0.4,0.3-1.1-0.1-1.4c-0.4-0.4-1.1-0.3-1.4,0.1c-4.1,4.9-9.9,7.9-16.3,8.5c-0.6,0-1,0.5-0.9,1.1
	C33.2,57.5,33.7,57.9,34.2,57.9z M30.8,7c0-0.5-0.5-1-1.1-0.9c-6.9,0.6-13.2,3.9-17.7,9.2c-0.4,0.4-0.3,1.1,0.1,1.4
	c0.2,0.2,0.4,0.2,0.6,0.2c0.3,0,0.6-0.1,0.8-0.4c4.1-4.9,9.9-7.9,16.3-8.5C30.5,8,30.9,7.6,30.8,7z M22,32c0,1.1,0.9,2,2,2
	s2-0.9,2-2s-0.9-2-2-2S22,30.9,22,32z M32,34c1.1,0,2-0.9,2-2s-0.9-2-2-2s-2,0.9-2,2S30.9,34,32,34z M42,32c0-1.1-0.9-2-2-2
	c-1.1,0-2,0.9-2,2s0.9,2,2,2C41.1,34,42,33.1,42,32z"/>
</svg>
