<?xml version="1.0" encoding="utf-8"?>
<!-- Generator: Adobe Illustrator 17.1.0, SVG Export Plug-In . SVG Version: 6.00 Build 0)  -->
<!DOCTYPE svg PUBLIC "-//W3C//DTD SVG 1.1//EN" "http://www.w3.org/Graphics/SVG/1.1/DTD/svg11.dtd">
<svg version="1.1" id="Layer_1" xmlns="http://www.w3.org/2000/svg" xmlns:xlink="http://www.w3.org/1999/xlink" x="0px" y="0px"
	 viewBox="0 0 64 64" style="enable-background:new 0 0 64 64;" xml:space="preserve">
<style type="text/css">
	.st0{fill:#FF614A;}
</style>
<path class="st0" d="M59.3,24.8c0,0,0.1-0.1,0.1-0.1l-0.3-0.3L50,1.3c-0.2-0.6-0.8-1.1-1.4-1.2c-0.6-0.2-1.3,0-1.8,0.5
	c-3.3,3-7.1,4.4-12.2,4.4c-2.7,0-5.5-0.4-8.4-0.8c-2.9-0.4-6-0.8-9-0.8c-5,0-9.1,1.2-12.7,3.7L3.5,4.4c-2.4-1.2-4,0.7-3.3,2.4
	L1.8,11c0,0,0,0,0,0l13.5,34.3c0,0,0,0,0,0l6.9,17.4c0.3,0.8,1.1,1.3,1.8,1.3c0.9,0,1.8-0.6,2.2-1.9l-6.7-17
	c3.1-2.4,6.5-3.5,11.1-3.5c2.7,0,5.5,0.4,8.4,0.8c2.9,0.4,6,0.8,9,0.8c6.6,0,11.6-2,15.9-6.4L59.3,24.8z M10.2,21.5
	c6.1-4.9,13.1-4,20.4-3c7,0.9,14.3,1.9,20.8-2.7l3.7,9.5c-5.7,3.5-12,2.6-18.6,1.8c-7.7-1-15.6-2.1-22.6,4L10.2,21.5z M17.2,7.4
	c2.7,0,5.5,0.4,8.4,0.8c2.9,0.4,6,0.8,9,0.8c5,0,9.1-1.2,12.7-3.7l3.4,8.7c-6,4.4-12.7,3.5-19.8,2.6c-7.2-1-14.7-1.9-21.4,3.1
	l-3.4-8.7C9.1,8.5,12.6,7.4,17.2,7.4z M48.1,39.2c-2.7,0-5.5-0.4-8.4-0.8c-2.9-0.4-6-0.8-9-0.8c-5,0-9.1,1.2-12.7,3.7l-3.4-8.6
	l0.3,0.3c6.4-5.9,13.7-4.9,21.4-3.9C43,30,49.7,30.9,56,27.2l3.3,8.4C56.2,38.1,52.7,39.2,48.1,39.2z"/>
</svg>
