<?xml version="1.0" encoding="utf-8"?>
<!-- Generator: Adobe Illustrator 17.1.0, SVG Export Plug-In . SVG Version: 6.00 Build 0)  -->
<!DOCTYPE svg PUBLIC "-//W3C//DTD SVG 1.1//EN" "http://www.w3.org/Graphics/SVG/1.1/DTD/svg11.dtd">
<svg version="1.1" id="Layer_1" xmlns="http://www.w3.org/2000/svg" xmlns:xlink="http://www.w3.org/1999/xlink" x="0px" y="0px"
	 viewBox="0 0 64 64" style="enable-background:new 0 0 64 64;" xml:space="preserve">
<style type="text/css">
	.st0{fill:#FF614A;}
</style>
<path class="st0" d="M11,12c0-0.6,0.4-1,1-1h28c0.6,0,1,0.4,1,1s-0.4,1-1,1H12C11.4,13,11,12.6,11,12z M41,18c0-0.6-0.4-1-1-1H12
	c-0.6,0-1,0.4-1,1s0.4,1,1,1h28C40.6,19,41,18.6,41,18z M64,26v30H52v6c0,0.8-0.4,1.5-1.1,1.8C50.6,63.9,50.3,64,50,64
	c-0.4,0-0.9-0.1-1.3-0.4L39.3,56H22V36h-1.2l-9.4,9.4C11,45.8,10.5,46,10,46c-0.3,0-0.5,0-0.8-0.2C8.5,45.5,8,44.8,8,44v-8H0V0h52
	v26c0,0,0,0,0,0H64z M22,32v-6h26c0,0,0,0,0,0V4H4v28h8v7.2l7.2-7.2H22z M60,30H26v4c0,0,0,0,0,0s0,0,0,0v18h14.7l7.3,5.8V52h12V30z
	 M35,43c1.1,0,2-0.9,2-2s-0.9-2-2-2s-2,0.9-2,2S33.9,43,35,43z M43,43c1.1,0,2-0.9,2-2s-0.9-2-2-2s-2,0.9-2,2S41.9,43,43,43z M51,43
	c1.1,0,2-0.9,2-2s-0.9-2-2-2c-1.1,0-2,0.9-2,2S49.9,43,51,43z"/>
</svg>
