<svg xmlns="http://www.w3.org/2000/svg" width="906" height="898" viewBox="0 0 906 898"><defs><linearGradient id="uo9ba" x1="547.25" x2="248.44" y1="827.79" y2="-344.71" gradientUnits="userSpaceOnUse"><stop offset="0" stop-color="#042135"/><stop offset="1" stop-color="#398ab7"/></linearGradient></defs><g><g opacity=".36" transform="rotate(-44 453 449)"><path fill="url(#uo9ba)" d="M423-7.68a60 60 0 0 1 60 0l350.496 202.36a60 60 0 0 1 30 51.961v404.718a60 60 0 0 1-30 51.961L483 905.68a60 60 0 0 1-60 0L72.504 703.32a60 60 0 0 1-30-51.961V246.641a60 60 0 0 1 30-51.962z"/></g></g></svg>