<svg xmlns="http://www.w3.org/2000/svg" width="822" height="930" viewBox="0 0 822 930"><defs><linearGradient id="sqeva" x1="425.88" x2="425.88" y1="-74.2" y2="721.3" gradientUnits="userSpaceOnUse"><stop offset="0" stop-color="#042135"/><stop offset=".06" stop-color="#042135"/><stop offset="1" stop-color="#398ab7"/></linearGradient></defs><g><g clip-path="url(#clip-49767E33-A5BB-4DCE-9C20-A7429F78199C)" opacity=".36" transform="rotate(-360 411 465)"><path fill="url(#sqeva)" d="M381 8.32a60 60 0 0 1 60 0l350.496 202.36a60 60 0 0 1 30 51.961v404.718a60 60 0 0 1-30 51.961L441 921.68a60 60 0 0 1-60 0L30.504 719.32a60 60 0 0 1-30-51.961V262.641a60 60 0 0 1 30-51.962z"/></g></g></svg>