<svg xmlns="http://www.w3.org/2000/svg" width="808" height="898" viewBox="0 0 808 898"><defs><linearGradient id="vd8ia" x1="855.81" x2="8.54" y1="619.16" y2="383.38" gradientUnits="userSpaceOnUse"><stop offset="0" stop-color="#398ab7"/><stop offset="1" stop-color="#042135"/><stop offset="1" stop-color="#042135"/></linearGradient></defs><g><g clip-path="url(#clip-49767E33-A5BB-4DCE-9C20-A7429F78199C)" opacity=".36" transform="rotate(-44 355.5 449.5)"><path fill="url(#vd8ia)" d="M325.3-7.68a60 60 0 0 1 60 0l350.496 202.36a60 60 0 0 1 30 51.961v404.718a60 60 0 0 1-30 51.961L385.3 905.68a60 60 0 0 1-60 0L-25.196 703.32a60 60 0 0 1-30-51.961V246.641a60 60 0 0 1 30-51.962z"/></g></g></svg>