<svg xmlns="http://www.w3.org/2000/svg" width="81" height="86" viewBox="0 0 81 86"><defs><linearGradient id="1lyia" x1="19.29" x2="49.99" y1="73.94" y2="2.51" gradientUnits="userSpaceOnUse"><stop offset="0" stop-color="#398ab7"/><stop offset="1" stop-color="#042135"/></linearGradient></defs><g><g transform="rotate(-355 40.5 43)"><path fill="url(#1lyia)" d="M34 1.963a13 13 0 0 1 13 0l25.538 14.744a13 13 0 0 1 6.5 11.259v29.488a13 13 0 0 1-6.5 11.259L47 83.457a13 13 0 0 1-13 0L8.462 68.713a13 13 0 0 1-6.5-11.259V27.966a13 13 0 0 1 6.5-11.259z"/></g></g></svg>