<svg xmlns="http://www.w3.org/2000/svg" width="789" height="789" viewBox="0 0 789 789"><defs><linearGradient id="ajz7a" x1="153.24" x2="792.52" y1="893.84" y2="-1.23" gradientUnits="userSpaceOnUse"><stop offset="0" stop-opacity="0" stop-color="#f5f7f8"/><stop offset="1" stop-opacity="1" stop-color="#cadbec"/></linearGradient></defs><g><g transform="rotate(-345 394.5 394.5)"><path fill="url(#ajz7a)" d="M364.27-3.11a60 60 0 0 1 60 0l299.4 172.86a60 60 0 0 1 30 51.961v345.718a60 60 0 0 1-30 51.962l-299.4 172.858a60 60 0 0 1-60 0L64.87 619.39a60 60 0 0 1-30-51.961V221.711a60 60 0 0 1 30-51.962z"/></g></g></svg>