<svg xmlns="http://www.w3.org/2000/svg" width="86" height="86" viewBox="0 0 86 86"><defs><linearGradient id="osvwa" x1="15.87" x2="87.5" y1="99.06" y2="-1.23" gradientUnits="userSpaceOnUse"><stop offset="0" stop-color="#f5f7f8"/><stop offset="1" stop-color="#bcd5ec"/></linearGradient></defs><g><g opacity=".7" transform="rotate(-165 43 43)"><path fill="url(#osvwa)" d="M32.88 2.393a20 20 0 0 1 20 0l20.27 11.703a20 20 0 0 1 10 17.321v23.406a20 20 0 0 1-10 17.32L52.88 83.846a20 20 0 0 1-20 0L12.61 72.143a20 20 0 0 1-10-17.32V31.417a20 20 0 0 1 10-17.32z"/></g></g></svg>