<svg height="850" viewBox="0 0 901 850" width="901" xmlns="http://www.w3.org/2000/svg" xmlns:xlink="http://www.w3.org/1999/xlink"><linearGradient id="a" x1="26.167896%" x2="60.66246%" y1="85.08961%" y2="4.827154%"><stop offset="0" stop-color="#303e52"/><stop offset="1" stop-color="#398ab7"/></linearGradient><path d="m465.978754 3799.32051 350.496042 202.35898c18.564064 10.71797 30 30.52559 30 51.96153v404.71796c0 21.43594-11.435936 41.24356-30 51.96153l-350.496042 202.35898c-18.564064 10.71797-41.435935 10.71797-60 0l-350.496041-202.35898c-18.5640646-10.71797-30-30.52559-30-51.96153v-404.71796c0-21.43594 11.4359354-41.24356 30-51.96153l350.496041-202.35898c18.564065-10.71797 41.435936-10.71797 60 0z" fill="none" stroke="url(#a)" transform="matrix(.82903757 .5591929 -.5591929 .82903757 2454.460983 -3347.180134)"/></svg>