<svg xmlns="http://www.w3.org/2000/svg" width="782" height="794" viewBox="0 0 782 794"><defs><linearGradient id="rhgma" x1="149.97" x2="789.25" y1="896.27" y2="1.2" gradientUnits="userSpaceOnUse"><stop offset="0" stop-color="#f6f5f8"/><stop offset="1" stop-color="#cddce9"/></linearGradient></defs><g><g transform="rotate(-287 391 397)"><path fill="url(#rhgma)" d="M361-.68a60 60 0 0 1 60 0l299.4 172.86a60 60 0 0 1 30 51.961v345.718a60 60 0 0 1-30 51.961L421 794.68a60 60 0 0 1-60 0L61.6 621.82a60 60 0 0 1-30-51.961V224.141a60 60 0 0 1 30-51.962z"/></g></g></svg>