<svg xmlns="http://www.w3.org/2000/svg" width="81" height="85" viewBox="0 0 81 85"><defs><linearGradient id="pt39a" x1="19.29" x2="49.99" y1="73.65" y2="2.22" gradientUnits="userSpaceOnUse"><stop offset="0" stop-color="#398ab7"/><stop offset="1" stop-color="#293545"/></linearGradient></defs><g><g transform="rotate(-355 40.5 42.5)"><path fill="url(#pt39a)" d="M34 1.673a13 13 0 0 1 13 0l25.538 14.744a13 13 0 0 1 6.5 11.259v29.488a13 13 0 0 1-6.5 11.259L47 83.167a13 13 0 0 1-13 0L8.462 68.423a13 13 0 0 1-6.5-11.259V27.676a13 13 0 0 1 6.5-11.259z"/></g></g></svg>