<svg xmlns="http://www.w3.org/2000/svg" width="85" height="83" viewBox="0 0 85 83"><defs><linearGradient id="5gxta" x1="-2" x2="51.99" y1="171.87" y2="1.3" gradientUnits="userSpaceOnUse"><stop offset="0" stop-color="#398ab7"/><stop offset="1" stop-color="#293545"/></linearGradient></defs><g><g transform="rotate(-196 42.5 41.5)"><path fill="url(#5gxta)" d="M36 .753a13 13 0 0 1 13 0l25.538 14.744a13 13 0 0 1 6.5 11.259v29.488a13 13 0 0 1-6.5 11.259L49 82.247a13 13 0 0 1-13 0L10.462 67.503a13 13 0 0 1-6.5-11.259V26.756a13 13 0 0 1 6.5-11.259z"/></g></g></svg>