<svg xmlns="http://www.w3.org/2000/svg" width="902" height="902" viewBox="0 0 902 902"><defs><linearGradient id="rhdta" x1="424.89" x2="874.04" y1="871.64" y2="-76.83" gradientUnits="userSpaceOnUse"><stop offset="0" stop-color="#293545"/><stop offset="1" stop-color="#398ab7"/></linearGradient></defs><g><g opacity=".36" transform="rotate(-225 451 451.5)"><path fill="url(#rhdta)" d="M421-5.35a60 60 0 0 1 60 0l350.496 202.36a60 60 0 0 1 30 51.961v404.718a60 60 0 0 1-30 51.962L481 908.008a60 60 0 0 1-60 0L70.504 705.65a60 60 0 0 1-30-51.961V248.971a60 60 0 0 1 30-51.962z"/></g></g></svg>