<svg xmlns="http://www.w3.org/2000/svg" width="84" height="83" viewBox="0 0 84 83"><defs><linearGradient id="j57ra" x1="-2.46" x2="51.53" y1="171.87" y2="1.3" gradientUnits="userSpaceOnUse"><stop offset="0" stop-color="#398ab7"/><stop offset="1" stop-color="#293545"/></linearGradient></defs><g><g transform="rotate(-196 42 41.5)"><path fill="url(#j57ra)" d="M35.54.753a13 13 0 0 1 13 0l25.538 14.744a13 13 0 0 1 6.5 11.259v29.488a13 13 0 0 1-6.5 11.259L48.54 82.247a13 13 0 0 1-13 0L10.002 67.503a13 13 0 0 1-6.5-11.259V26.756a13 13 0 0 1 6.5-11.259z"/></g></g></svg>