<svg xmlns="http://www.w3.org/2000/svg" width="85" height="87" viewBox="0 0 85 87"><defs><linearGradient id="kk5ua" x1="15.49" x2="68.1" y1="99.44" y2="18.51" gradientUnits="userSpaceOnUse"><stop offset="0" stop-color="#f5f7f8"/><stop offset="1" stop-color="#c5daec"/></linearGradient></defs><g><g transform="rotate(-287 42.5 43.5)"><path fill="url(#kk5ua)" d="M32.5 2.773a20 20 0 0 1 20 0l20.27 11.703a20 20 0 0 1 10 17.321v23.406a20 20 0 0 1-10 17.32L52.5 84.227a20 20 0 0 1-20 0L12.23 72.523a20 20 0 0 1-10-17.32V31.797a20 20 0 0 1 10-17.32z"/></g></g></svg>