<?xml version="1.0" encoding="utf-8"?>
<!-- Generator: Adobe Illustrator 17.1.0, SVG Export Plug-In . SVG Version: 6.00 Build 0)  -->
<!DOCTYPE svg PUBLIC "-//W3C//DTD SVG 1.1//EN" "http://www.w3.org/Graphics/SVG/1.1/DTD/svg11.dtd">
<svg version="1.1" id="Layer_1" xmlns="http://www.w3.org/2000/svg" xmlns:xlink="http://www.w3.org/1999/xlink" x="0px" y="0px"
	 viewBox="0 0 96 96" style="enable-background:new 0 0 96 96;" xml:space="preserve">
<style type="text/css">
	.st0{fill:#FF614A;}
</style>
<path class="st0" d="M61.2,30l4.8,9H30l4.8-9H61.2 M63.6,26H32.4l-9,17h49.2L63.6,26L63.6,26z M48,4c0.1,0,0.2,0.1,0.2,0.1l4.9,9.9
	H42.9l4.9-9.9C47.8,4.1,47.9,4,48,4 M48,0c-1.5,0-3,0.8-3.8,2.3L36.4,18h23.2L51.8,2.3C51,0.8,49.5,0,48,0L48,0z M74.2,55L80,66H16
	l5.8-11H74.2 M76.6,51H19.4l-10,19h77.2L76.6,51L76.6,51z M87.9,82l3.9,9.4l0.1,0.1l0.1,0.1c0,0,0.1,0.1,0,0.2
	C91.9,92,91.8,92,91.8,92H4.2c-0.1,0-0.1,0-0.2-0.1c-0.1-0.1,0-0.2,0-0.2l0.1-0.1l0.1-0.1L8.1,82H87.9 M90.6,78H5.4L0.5,89.9
	C-1,92.7,1.1,96,4.2,96h87.5c3.1,0,5.2-3.3,3.8-6.1L90.6,78L90.6,78z"/>
</svg>
