<?xml version="1.0" encoding="utf-8"?>
<!-- Generator: Adobe Illustrator 17.1.0, SVG Export Plug-In . SVG Version: 6.00 Build 0)  -->
<!DOCTYPE svg PUBLIC "-//W3C//DTD SVG 1.1//EN" "http://www.w3.org/Graphics/SVG/1.1/DTD/svg11.dtd">
<svg version="1.1" id="Layer_1" xmlns="http://www.w3.org/2000/svg" xmlns:xlink="http://www.w3.org/1999/xlink" x="0px" y="0px"
	 viewBox="0 0 96 96" style="enable-background:new 0 0 96 96;" xml:space="preserve">
<style type="text/css">
	.st0{fill:#FF614A;}
</style>
<path class="st0" d="M82.2,21.4L62.6,1.8C61.5,0.6,59.9,0,58.3,0H18c-3.3,0-6,2.7-6,6v84c0,3.3,2.7,6,6,6h34c1.1,0,2-0.9,2-2
	s-0.9-2-2-2H18c-1.1,0-2-0.9-2-2V6c0-1.1,0.9-2,2-2h40v20v0v0c0,1.1,0.9,2,2,2h20v38c0,1.1,0.9,2,2,2s2-0.9,2-2V25.7
	C84,24.1,83.4,22.5,82.2,21.4z M77.2,22H62V6.8L77.2,22z M82.6,74.6l-5.2-5.2C77,69,76.5,68.8,76,68.8s-1,0.2-1.4,0.6L70,74
	l-4.6-4.6C65,69,64.5,68.8,64,68.8s-1,0.2-1.4,0.6l-5.2,5.2c-0.8,0.8-0.8,2,0,2.8L62,82l-4.6,4.6c-0.8,0.8-0.8,2,0,2.8l5.2,5.2
	c0.4,0.4,0.9,0.6,1.4,0.6s1-0.2,1.4-0.6L70,90l4.6,4.6c0.4,0.4,0.9,0.6,1.4,0.6s1-0.2,1.4-0.6l5.2-5.2c0.8-0.8,0.8-2,0-2.8L78,82
	l4.6-4.6C83.4,76.6,83.4,75.4,82.6,74.6z M75.2,79.2L72.3,82l2.8,2.8l3.2,3.2L76,90.3l-3.2-3.2L70,84.3l-2.8,2.8L64,90.3L61.7,88
	l3.2-3.2l2.8-2.8l-2.8-2.8L61.7,76l2.3-2.3l3.2,3.2l2.8,2.8l2.8-2.8l3.2-3.2l2.3,2.3L75.2,79.2z M55,68c0,0.6-0.4,1-1,1H27v3
	c0,0.6-0.4,1-1,1s-1-0.4-1-1v-3h-3c-0.6,0-1-0.4-1-1s0.4-1,1-1h3V24c0-0.6,0.4-1,1-1s1,0.4,1,1v43h27C54.6,67,55,67.4,55,68z
	 M69,41.8L55.4,55.4C55,55.8,54.5,56,54,56s-1-0.2-1.4-0.6L46,48.8L35.4,59.4C35,59.8,34.5,60,34,60s-1-0.2-1.4-0.6
	c-0.8-0.8-0.8-2,0-2.8l12-12c0.8-0.8,2-0.8,2.8,0l6.6,6.6L66.2,39H65c-1.1,0-2-0.9-2-2s0.9-2,2-2h6c1.1,0,2,0.9,2,2v6
	c0,1.1-0.9,2-2,2s-2-0.9-2-2V41.8z"/>
</svg>
