<?xml version="1.0" encoding="utf-8"?>
<!-- Generator: Adobe Illustrator 17.1.0, SVG Export Plug-In . SVG Version: 6.00 Build 0)  -->
<!DOCTYPE svg PUBLIC "-//W3C//DTD SVG 1.1//EN" "http://www.w3.org/Graphics/SVG/1.1/DTD/svg11.dtd">
<svg version="1.1" id="Layer_1" xmlns="http://www.w3.org/2000/svg" xmlns:xlink="http://www.w3.org/1999/xlink" x="0px" y="0px"
	 viewBox="0 0 96 96" style="enable-background:new 0 0 96 96;" xml:space="preserve">
<style type="text/css">
	.st0{fill:#FF614A;}
</style>
<path class="st0" d="M96,48c0,12.8-5,24.9-14.1,33.9c-0.4,0.4-0.9,0.6-1.4,0.6s-1-0.2-1.4-0.6L72,74.9c-0.8-0.8-0.8-2,0-2.8
	c0.8-0.8,2-0.8,2.8,0l5.6,5.6c7-7.6,11-17.3,11.5-27.7h-8c-1.1,0-2-0.9-2-2c0-1.1,0.9-2,2-2h8c-0.5-10.3-4.5-20-11.5-27.7L74.9,24
	c-0.4,0.4-0.9,0.6-1.4,0.6s-1-0.2-1.4-0.6c-0.8-0.8-0.8-2,0-2.8l5.6-5.6C69.8,8.3,60,4.5,50,4.1V12c0,1.1-0.9,2-2,2s-2-0.9-2-2V4.1
	C36,4.5,26.2,8.3,18.3,15.5l5.6,5.6c0.8,0.8,0.8,2,0,2.8c-0.4,0.4-0.9,0.6-1.4,0.6s-1-0.2-1.4-0.6l-5.6-5.6C8.5,26,4.5,35.7,4,46h8
	c1.1,0,2,0.9,2,2c0,1.1-0.9,2-2,2H4c0.5,10.3,4.5,20,11.5,27.7l5.6-5.6c0.8-0.8,2-0.8,2.8,0c0.8,0.8,0.8,2,0,2.8l-7.1,7.1
	c-0.4,0.4-0.9,0.6-1.4,0.6s-1-0.2-1.4-0.6C5,72.9,0,60.8,0,48s5-24.9,14.1-33.9c9.3-9.3,21.5-14,33.6-14c0.1,0,0.2,0,0.3,0
	s0.2,0,0.3,0c12.2,0.1,24.4,4.7,33.6,14C91,23.1,96,35.2,96,48z M72.3,89.3L72.3,89.3c-0.1,0.1-0.2,0.1-0.3,0.2c0,0,0,0-0.1,0
	c0,0,0,0-0.1,0C64.5,93.9,56.3,96,48,96c-8.3,0-16.6-2.1-24-6.4l0,0c-1-0.6-1.3-1.8-0.7-2.7l5-8.7c0.3-0.5,0.7-0.8,1.2-0.9
	c0.5-0.1,1.1-0.1,1.5,0.2c5.1,3,11,4.5,17,4.5s11.9-1.6,17-4.5c0.5-0.3,1-0.3,1.5-0.2c0.5,0.1,1,0.5,1.2,0.9l5,8.7
	C73.2,87.7,73,88.7,72.3,89.3z M68.2,87.1l-3-5.2C59.9,84.6,54,86,48,86s-11.9-1.4-17.2-4.1l-3,5.2C40.4,93.6,55.6,93.6,68.2,87.1z
	 M65.7,21.3L54.6,40.5C56.7,42.4,58,45,58,48c0,5.5-4.5,10-10,10s-10-4.5-10-10s4.5-10,10-10c1.1,0,2.2,0.2,3.2,0.5l11.1-19.2
	c0.6-1,1.8-1.3,2.7-0.7C66,19.1,66.3,20.3,65.7,21.3z M54,48c0-3.3-2.7-6-6-6s-6,2.7-6,6c0,3.3,2.7,6,6,6S54,51.3,54,48z"/>
</svg>
