<?xml version="1.0" encoding="utf-8"?>
<!-- Generator: Adobe Illustrator 17.1.0, SVG Export Plug-In . SVG Version: 6.00 Build 0)  -->
<!DOCTYPE svg PUBLIC "-//W3C//DTD SVG 1.1//EN" "http://www.w3.org/Graphics/SVG/1.1/DTD/svg11.dtd">
<svg version="1.1" id="Layer_1" xmlns="http://www.w3.org/2000/svg" xmlns:xlink="http://www.w3.org/1999/xlink" x="0px" y="0px"
	 viewBox="0 0 96 96" style="enable-background:new 0 0 96 96;" xml:space="preserve">
<style type="text/css">
	.st0{fill:#FF614A;}
</style>
<path class="st0" d="M80.5,22.3l2.5-2.5l2.6,2.6C86,22.8,86.5,23,87,23s1-0.2,1.4-0.6c0.8-0.8,0.8-2,0-2.8l-8-8
	c-0.8-0.8-2-0.8-2.8,0c-0.8,0.8-0.8,2,0,2.8l2.6,2.6l-2.5,2.5c-5.7-5.2-12.5-8.7-19.6-10.3C58.7,8.2,59,7.1,59,6c0-3.3-2.7-6-6-6H43
	c-3.3,0-6,2.7-6,6c0,1.1,0.3,2.2,0.9,3.1c-7.7,1.8-15,5.7-21,11.7c-17.2,17.2-17.2,45,0,62.2C25.5,91.7,36.7,96,48,96
	s22.5-4.3,31.1-12.9C95.8,66.4,96.3,39.6,80.5,22.3z M43,8c-1.1,0-2-0.9-2-2c0-1.1,0.9-2,2-2H53c1.1,0,2,0.9,2,2c0,1.1-0.9,2-2,2
	h-4.9c-0.1,0-0.1,0-0.2,0c-0.1,0-0.1,0-0.2,0H43z M76.3,80.3C68.7,87.8,58.7,92,48,92s-20.7-4.2-28.3-11.7C12.2,72.7,8,62.7,8,52
	s4.2-20.7,11.7-28.3C27.2,16.2,37.2,12,47.8,12h0.4c10.6,0,20.6,4.2,28.1,11.7C83.8,31.3,88,41.3,88,52S83.8,72.7,76.3,80.3z
	 M78.3,69.5c-0.4,0.6-1,1-1.7,1c-0.3,0-0.7-0.1-1-0.3L73,68.7c-1-0.6-1.3-1.8-0.7-2.7c0.6-1,1.8-1.3,2.7-0.7l2.6,1.5
	C78.5,67.3,78.9,68.5,78.3,69.5z M23.8,38c-0.4,0.6-1,1-1.7,1c-0.3,0-0.7-0.1-1-0.3l-2.6-1.5c-1-0.6-1.3-1.8-0.7-2.7
	c0.6-1,1.8-1.3,2.7-0.7l2.6,1.5C24,35.8,24.3,37,23.8,38z M66.2,79.6c0.6,1,0.2,2.2-0.7,2.7c-0.3,0.2-0.7,0.3-1,0.3
	c-0.7,0-1.4-0.4-1.7-1L61.3,79c-0.6-1-0.2-2.2,0.7-2.7c1-0.6,2.2-0.2,2.7,0.7L66.2,79.6z M34.7,25c0.6,1,0.2,2.2-0.7,2.7
	c-0.3,0.2-0.7,0.3-1,0.3c-0.7,0-1.4-0.4-1.7-1l-1.5-2.6c-0.6-1-0.2-2.2,0.7-2.7c1-0.6,2.2-0.2,2.7,0.7L34.7,25z M50,82v3
	c0,1.1-0.9,2-2,2s-2-0.9-2-2v-3c0-1.1,0.9-2,2-2S50,80.9,50,82z M46,22v-3c0-1.1,0.9-2,2-2s2,0.9,2,2v3c0,1.1-0.9,2-2,2
	S46,23.1,46,22z M34.7,79l-1.5,2.6c-0.4,0.6-1,1-1.7,1c-0.3,0-0.7-0.1-1-0.3c-1-0.6-1.3-1.8-0.7-2.7l1.5-2.6c0.6-1,1.8-1.3,2.7-0.7
	C35,76.8,35.3,78,34.7,79z M61.3,25l1.5-2.6c0.6-1,1.8-1.3,2.7-0.7c1,0.6,1.3,1.8,0.7,2.7L64.7,27c-0.4,0.6-1,1-1.7,1
	c-0.3,0-0.7-0.1-1-0.3C61,27.2,60.7,26,61.3,25z M23.8,66c0.6,1,0.2,2.2-0.7,2.7l-2.6,1.5c-0.3,0.2-0.7,0.3-1,0.3
	c-0.7,0-1.4-0.4-1.7-1c-0.6-1-0.2-2.2,0.7-2.7l2.6-1.5C22,64.7,23.2,65,23.8,66z M72.3,38c-0.6-1-0.2-2.2,0.7-2.7l2.6-1.5
	c1-0.6,2.2-0.2,2.7,0.7c0.6,1,0.2,2.2-0.7,2.7L75,38.7c-0.3,0.2-0.7,0.3-1,0.3C73.3,39,72.6,38.6,72.3,38z M18,54h-3
	c-1.1,0-2-0.9-2-2s0.9-2,2-2h3c1.1,0,2,0.9,2,2S19.1,54,18,54z M83,52c0,1.1-0.9,2-2,2h-3c-1.1,0-2-0.9-2-2s0.9-2,2-2h3
	C82.1,50,83,50.9,83,52z M69.3,29.3L52.9,45.7C51.5,44.6,49.8,44,48,44c-2.1,0-4.1,0.8-5.7,2.3C40.8,47.9,40,49.9,40,52
	s0.8,4.1,2.3,5.7c1.5,1.5,3.5,2.3,5.7,2.3c2.1,0,4.1-0.8,5.7-2.3c1.5-1.5,2.3-3.5,2.3-5.7c0-1.8-0.6-3.5-1.7-4.9l16.4-16.4
	c0.4-0.4,0.4-1,0-1.4S69.7,28.9,69.3,29.3z M50.8,54.8c-1.5,1.5-4.1,1.5-5.7,0C44.4,54.1,44,53.1,44,52s0.4-2.1,1.2-2.8
	c0.8-0.8,1.8-1.2,2.8-1.2c1.1,0,2.1,0.4,2.8,1.2c0.8,0.8,1.2,1.8,1.2,2.8S51.6,54.1,50.8,54.8z"/>
</svg>
