<?xml version="1.0" encoding="utf-8"?>
<!-- Generator: Adobe Illustrator 17.1.0, SVG Export Plug-In . SVG Version: 6.00 Build 0)  -->
<!DOCTYPE svg PUBLIC "-//W3C//DTD SVG 1.1//EN" "http://www.w3.org/Graphics/SVG/1.1/DTD/svg11.dtd">
<svg version="1.1" id="Layer_1" xmlns="http://www.w3.org/2000/svg" xmlns:xlink="http://www.w3.org/1999/xlink" x="0px" y="0px"
	 viewBox="0 0 96 96" style="enable-background:new 0 0 96 96;" xml:space="preserve">
<style type="text/css">
	.st0{fill:#FF614A;}
</style>
<path class="st0" d="M86,10H10C4.5,10,0,14.5,0,20v56c0,5.5,4.5,10,10,10h76c5.5,0,10-4.5,10-10V20C96,14.5,91.5,10,86,10z M10,14
	h76c3.3,0,6,2.7,6,6v8H4v-8C4,16.7,6.7,14,10,14z M86,82H10c-3.3,0-6-2.7-6-6V32h88v44C92,79.3,89.3,82,86,82z M48,40
	c-15.3,0-25.3,15.3-25.7,15.9L21.6,57l0.7,1.1C22.7,58.7,32.7,74,48,74s25.3-15.3,25.7-15.9l0.7-1.1l-0.7-1.1
	C73.3,55.3,63.3,40,48,40z M48,70c-10.9,0-19.1-9.7-21.6-13c2.5-3.3,10.6-13,21.6-13c10.9,0,19.1,9.7,21.6,13
	C67.1,60.3,58.9,70,48,70z M48,46c-6.1,0-11,4.9-11,11s4.9,11,11,11s11-4.9,11-11S54.1,46,48,46z M48,66c-5,0-9-4-9-9s4-9,9-9
	s9,4,9,9S53,66,48,66z M48,51c-3.3,0-6,2.7-6,6s2.7,6,6,6s6-2.7,6-6S51.3,51,48,51z M48,61c-2.2,0-4-1.8-4-4s1.8-4,4-4s4,1.8,4,4
	S50.2,61,48,61z M10,21c0-1.1,0.9-2,2-2h8c1.1,0,2,0.9,2,2s-0.9,2-2,2h-8C10.9,23,10,22.1,10,21z M58,21c0-1.1,0.9-2,2-2h4
	c1.1,0,2,0.9,2,2s-0.9,2-2,2h-4C58.9,23,58,22.1,58,21z M68,21c0-1.1,0.9-2,2-2h4c1.1,0,2,0.9,2,2s-0.9,2-2,2h-4
	C68.9,23,68,22.1,68,21z M78,21c0-1.1,0.9-2,2-2h4c1.1,0,2,0.9,2,2s-0.9,2-2,2h-4C78.9,23,78,22.1,78,21z"/>
</svg>
