<?xml version="1.0" encoding="utf-8"?>
<!-- Generator: Adobe Illustrator 17.1.0, SVG Export Plug-In . SVG Version: 6.00 Build 0)  -->
<!DOCTYPE svg PUBLIC "-//W3C//DTD SVG 1.1//EN" "http://www.w3.org/Graphics/SVG/1.1/DTD/svg11.dtd">
<svg version="1.1" id="Layer_1" xmlns="http://www.w3.org/2000/svg" xmlns:xlink="http://www.w3.org/1999/xlink" x="0px" y="0px"
	 viewBox="0 0 96 96" style="enable-background:new 0 0 96 96;" xml:space="preserve">
<style type="text/css">
	.st0{fill:#FF614A;}
</style>
<path class="st0" d="M48,0C21.5,0,0,21.5,0,48s21.5,48,48,48c26.5,0,48-21.5,48-48S74.5,0,48,0z M89.5,33.5l-7.6,2.5
	C77.1,22.3,64.2,12.4,49,12V4C67.7,4.4,83.6,16.6,89.5,33.5z M48,80c-17.6,0-32-14.4-32-32s14.4-32,32-32c17.6,0,32,14.4,32,32
	S65.6,80,48,80z M47,4v8c-15.2,0.4-28.1,10.3-32.9,23.9l-7.6-2.5C12.4,16.6,28.3,4.4,47,4z M4,48c0-4.4,0.7-8.6,1.9-12.6l7.6,2.5
	C12.5,41.1,12,44.5,12,48c0,11.6,5.5,21.9,14,28.5L21.3,83C10.8,74.9,4,62.3,4,48z M23,84.2l4.7-6.5c5.8,4,12.8,6.3,20.3,6.3
	s14.6-2.3,20.3-6.3l4.7,6.5C65.9,89.1,57.3,92,48,92S30.1,89.1,23,84.2z M74.7,83L70,76.5c8.5-6.6,14-16.9,14-28.5
	c0-3.5-0.5-6.9-1.5-10.2l7.6-2.5c1.2,4,1.9,8.2,1.9,12.6C92,62.3,85.2,74.9,74.7,83z M59.9,30.1c-5.7,0-10,2.6-10,6s4.3,6,10,6
	s10-2.6,10-6S65.6,30.1,59.9,30.1z M59.9,38.1c-3.9,0-6-1.5-6-2s2.1-2,6-2s6,1.5,6,2S63.7,38.1,59.9,38.1z M69.1,43
	c0.6,0.9,0.3,2.2-0.6,2.8c-2.4,1.5-5.5,2.3-8.6,2.3s-6.2-0.8-8.6-2.3c-0.9-0.6-1.2-1.8-0.6-2.8c0.6-0.9,1.8-1.2,2.8-0.6
	c3.5,2.2,9.4,2.2,12.8,0C67.2,41.8,68.5,42.1,69.1,43z M69.1,49c0.6,0.9,0.3,2.2-0.6,2.8c-2.4,1.5-5.5,2.3-8.6,2.3s-6.2-0.8-8.6-2.3
	c-0.9-0.6-1.2-1.8-0.6-2.8c0.6-0.9,1.8-1.2,2.8-0.6c3.5,2.2,9.4,2.2,12.8,0C67.2,47.8,68.5,48.1,69.1,49z M69.1,55
	c0.6,0.9,0.3,2.2-0.6,2.8c-2.4,1.5-5.5,2.3-8.6,2.3s-6.2-0.8-8.6-2.3c-0.9-0.6-1.2-1.8-0.6-2.8c0.6-0.9,1.8-1.2,2.8-0.6
	c3.5,2.2,9.4,2.2,12.8,0C67.2,53.8,68.5,54.1,69.1,55z M69.1,61c0.6,0.9,0.3,2.2-0.6,2.8c-2.4,1.5-5.5,2.3-8.6,2.3s-6.2-0.8-8.6-2.3
	c-0.9-0.6-1.2-1.8-0.6-2.8c0.6-0.9,1.8-1.2,2.8-0.6c3.5,2.2,9.4,2.2,12.8,0C67.2,59.8,68.5,60.1,69.1,61z M35.9,42.1
	c-5.7,0-10,2.6-10,6s4.3,6,10,6s10-2.6,10-6S41.6,42.1,35.9,42.1z M35.9,50.1c-3.9,0-6-1.5-6-2s2.1-2,6-2s6,1.5,6,2
	S39.7,50.1,35.9,50.1z M45.1,55c0.6,0.9,0.3,2.2-0.6,2.8c-2.4,1.5-5.5,2.3-8.6,2.3s-6.2-0.8-8.6-2.3c-0.9-0.6-1.2-1.8-0.6-2.8
	s1.8-1.2,2.8-0.6c3.5,2.2,9.4,2.2,12.8,0C43.2,53.8,44.5,54.1,45.1,55z M45.1,61c0.6,0.9,0.3,2.2-0.6,2.8c-2.4,1.5-5.5,2.3-8.6,2.3
	s-6.2-0.8-8.6-2.3c-0.9-0.6-1.2-1.8-0.6-2.8s1.8-1.2,2.8-0.6c3.5,2.2,9.4,2.2,12.8,0C43.2,59.8,44.5,60.1,45.1,61z"/>
</svg>
