<?xml version="1.0" encoding="utf-8"?>
<!-- Generator: Adobe Illustrator 17.1.0, SVG Export Plug-In . SVG Version: 6.00 Build 0)  -->
<!DOCTYPE svg PUBLIC "-//W3C//DTD SVG 1.1//EN" "http://www.w3.org/Graphics/SVG/1.1/DTD/svg11.dtd">
<svg version="1.1" id="Layer_1" xmlns="http://www.w3.org/2000/svg" xmlns:xlink="http://www.w3.org/1999/xlink" x="0px" y="0px"
	 viewBox="0 0 96 96" style="enable-background:new 0 0 96 96;" xml:space="preserve">
<style type="text/css">
	.st0{fill:#FF614A;}
</style>
<path class="st0" d="M88,57C88,57,88,57,88,57l0-43c0-5.5-4.5-10-10-10h-5V2c0-1.1-0.9-2-2-2s-2,0.9-2,2v2H55V2c0-1.1-0.9-2-2-2
	s-2,0.9-2,2v2H37V2c0-1.1-0.9-2-2-2s-2,0.9-2,2v2H19V2c0-1.1-0.9-2-2-2s-2,0.9-2,2v2h-5C4.5,4,0,8.5,0,14v57c0,5.5,4.5,10,10,10
	h43.1c2.9,8.7,11.2,15,20.9,15c12.1,0,22-9.9,22-22C96,67.2,92.9,61.1,88,57z M10,8h5v2c0,1.1,0.9,2,2,2s2-0.9,2-2V8h14v2
	c0,1.1,0.9,2,2,2s2-0.9,2-2V8h14v2c0,1.1,0.9,2,2,2s2-0.9,2-2V8h14v2c0,1.1,0.9,2,2,2s2-0.9,2-2V8h5c3.3,0,6,2.7,6,6v4H4v-4
	C4,10.7,6.7,8,10,8z M10,77c-3.3,0-6-2.7-6-6V22h80v32.4c-1.9-1-3.9-1.7-6.1-2.1C78,52.2,78,52,78,51.8v-6c0-1.1-0.9-2-2-2H66
	c-1.1,0-2,0.9-2,2v8c0,0.2,0,0.4,0.1,0.6c-2.2,1.1-4.2,2.6-6,4.4c-0.1,0-0.1,0-0.2,0H48c-1.1,0-2,0.9-2,2v8c0,1.1,0.9,2,2,2h4.2
	C52.1,71.8,52,72.9,52,74c0,1,0.1,2,0.2,3H10z M74,52C74,52,74,52,74,52c-2.1,0-4.1,0.3-6,0.8v-5.1h6v4C74,51.8,74,51.9,74,52z
	 M53.2,66.8H50v-4h5.1C54.4,64,53.7,65.3,53.2,66.8z M74,92c-9.9,0-18-8.1-18-18s8.1-18,18-18s18,8.1,18,18S83.9,92,74,92z M22,27.8
	H12c-1.1,0-2,0.9-2,2v8c0,1.1,0.9,2,2,2h10c1.1,0,2-0.9,2-2v-8C24,28.6,23.1,27.8,22,27.8z M20,35.8h-6v-4h6V35.8z M40,27.8H30
	c-1.1,0-2,0.9-2,2v8c0,1.1,0.9,2,2,2h10c1.1,0,2-0.9,2-2v-8C42,28.6,41.1,27.8,40,27.8z M38,35.8h-6v-4h6V35.8z M48,39.8h10
	c1.1,0,2-0.9,2-2v-8c0-1.1-0.9-2-2-2H48c-1.1,0-2,0.9-2,2v8C46,38.9,46.9,39.8,48,39.8z M50,31.8h6v4h-6V31.8z M66,39.8h10
	c1.1,0,2-0.9,2-2v-8c0-1.1-0.9-2-2-2H66c-1.1,0-2,0.9-2,2v8C64,38.9,64.9,39.8,66,39.8z M68,31.8h6v4h-6V31.8z M22,43.8H12
	c-1.1,0-2,0.9-2,2v8c0,1.1,0.9,2,2,2h10c1.1,0,2-0.9,2-2v-8C24,44.6,23.1,43.8,22,43.8z M20,51.8h-6v-4h6V51.8z M40,43.8H30
	c-1.1,0-2,0.9-2,2v8c0,1.1,0.9,2,2,2h10c1.1,0,2-0.9,2-2v-8C42,44.6,41.1,43.8,40,43.8z M38,51.8h-6v-4h6V51.8z M48,55.8h10
	c1.1,0,2-0.9,2-2v-8c0-1.1-0.9-2-2-2H48c-1.1,0-2,0.9-2,2v8C46,54.9,46.9,55.8,48,55.8z M50,47.8h6v4h-6V47.8z M22,58.8H12
	c-1.1,0-2,0.9-2,2v8c0,1.1,0.9,2,2,2h10c1.1,0,2-0.9,2-2v-8C24,59.6,23.1,58.8,22,58.8z M20,66.8h-6v-4h6V66.8z M40,58.8H30
	c-1.1,0-2,0.9-2,2v8c0,1.1,0.9,2,2,2h10c1.1,0,2-0.9,2-2v-8C42,59.6,41.1,58.8,40,58.8z M38,66.8h-6v-4h6V66.8z M86,74
	c0,1.1-0.9,2-2,2H74c-1.1,0-2-0.9-2-2V64c0-1.1,0.9-2,2-2s2,0.9,2,2v8h8C85.1,72,86,72.9,86,74z"/>
</svg>
