<?xml version="1.0" encoding="utf-8"?>
<!-- Generator: Adobe Illustrator 17.1.0, SVG Export Plug-In . SVG Version: 6.00 Build 0)  -->
<!DOCTYPE svg PUBLIC "-//W3C//DTD SVG 1.1//EN" "http://www.w3.org/Graphics/SVG/1.1/DTD/svg11.dtd">
<svg version="1.1" id="Layer_1" xmlns="http://www.w3.org/2000/svg" xmlns:xlink="http://www.w3.org/1999/xlink" x="0px" y="0px"
	 viewBox="0 0 96 96" style="enable-background:new 0 0 96 96;" xml:space="preserve">
<style type="text/css">
	.st0{fill:#FF614A;}
</style>
<path class="st0" d="M94,0H38c-1.1,0-2,0.9-2,2v36c0,1.1,0.9,2,2,2h19.5l15.6,7.8c0.3,0.1,0.6,0.2,0.9,0.2c0.4,0,0.7-0.1,1.1-0.3
	c0.6-0.4,0.9-1,0.9-1.7v-6h18c1.1,0,2-0.9,2-2V2C96,0.9,95.1,0,94,0z M92,36H74c-1.1,0-2,0.9-2,2v4.8l-13.1-6.6
	C58.6,36.1,58.3,36,58,36H40V4h52V36z M58,48H2c-1.1,0-2,0.9-2,2v36c0,1.1,0.9,2,2,2h18v6c0,0.7,0.4,1.3,0.9,1.7
	c0.3,0.2,0.7,0.3,1.1,0.3c0.3,0,0.6-0.1,0.9-0.2L38.5,88H58c1.1,0,2-0.9,2-2V50C60,48.9,59.1,48,58,48z M56,84H38
	c-0.3,0-0.6,0.1-0.9,0.2L24,90.8V86c0-1.1-0.9-2-2-2H4V52h52V84z M10,62c0-1.1,0.9-2,2-2h36c1.1,0,2,0.9,2,2s-0.9,2-2,2H12
	C10.9,64,10,63.1,10,62z M10,72c0-1.1,0.9-2,2-2h36c1.1,0,2,0.9,2,2s-0.9,2-2,2H12C10.9,74,10,73.1,10,72z M61.8,14.1l-2.3-2.8
	c1.3-1.2,3.4-2.3,6-2.3c3.6,0,7,2.2,7,6c0,5.3-5.6,5.9-5.6,9.3v1.2H63v-1.5c0-4.6,5.2-5.3,5.2-8.7c0-1.5-1.3-2.7-3.1-2.7
	C63.9,12.7,62.7,13.3,61.8,14.1z M63,28.4h3.9v3.8H63V28.4z"/>
</svg>
