<?xml version="1.0" encoding="utf-8"?>
<!-- Generator: Adobe Illustrator 17.1.0, SVG Export Plug-In . SVG Version: 6.00 Build 0)  -->
<!DOCTYPE svg PUBLIC "-//W3C//DTD SVG 1.1//EN" "http://www.w3.org/Graphics/SVG/1.1/DTD/svg11.dtd">
<svg version="1.1" id="Layer_1" xmlns="http://www.w3.org/2000/svg" xmlns:xlink="http://www.w3.org/1999/xlink" x="0px" y="0px"
	 viewBox="0 0 96 96" style="enable-background:new 0 0 96 96;" xml:space="preserve">
<style type="text/css">
	.st0{fill:#FF614C;}
</style>
<path class="st0" d="M86,10H10C4.5,10,0,14.5,0,20v56c0,5.5,4.5,10,10,10h76c5.5,0,10-4.5,10-10V20C96,14.5,91.5,10,86,10z M10,14
	h76c3.3,0,6,2.7,6,6v8H4v-8C4,16.7,6.7,14,10,14z M86,82H10c-3.3,0-6-2.7-6-6V32h88v44C92,79.3,89.3,82,86,82z M10,21
	c0-1.1,0.9-2,2-2h8c1.1,0,2,0.9,2,2s-0.9,2-2,2h-8C10.9,23,10,22.1,10,21z M58,21c0-1.1,0.9-2,2-2h4c1.1,0,2,0.9,2,2s-0.9,2-2,2h-4
	C58.9,23,58,22.1,58,21z M68,21c0-1.1,0.9-2,2-2h4c1.1,0,2,0.9,2,2s-0.9,2-2,2h-4C68.9,23,68,22.1,68,21z M78,21c0-1.1,0.9-2,2-2h4
	c1.1,0,2,0.9,2,2s-0.9,2-2,2h-4C78.9,23,78,22.1,78,21z M48,50c-3.9,0-7,3.1-7,7s3.1,7,7,7s7-3.1,7-7S51.9,50,48,50z M48,60
	c-1.7,0-3-1.3-3-3s1.3-3,3-3s3,1.3,3,3S49.7,60,48,60z M69.3,51.6c-1-3.9-3.1-7.5-6-10.4l-1.1-1.1l-3.4,2c-1-0.8-2.2-1.4-3.3-1.9v-4
	L54,35.8c-3.9-1.1-8.1-1.1-12,0l-1.5,0.4v4c-1.2,0.5-2.3,1.2-3.3,1.9l-3.4-2l-1.1,1.1c-2.9,2.9-5,6.4-6,10.4l-0.4,1.5l3.4,2
	c-0.1,0.7-0.1,1.3-0.1,1.9c0,0.6,0,1.3,0.1,1.9l-3.4,2l0.4,1.5c1,3.9,3.1,7.5,6,10.4l1.1,1.1l3.4-2c1,0.8,2.2,1.4,3.3,1.9v4l1.5,0.4
	c2,0.6,4,0.8,6,0.8s4-0.3,6-0.8l1.5-0.4v-4c1.2-0.5,2.3-1.2,3.3-1.9l3.4,2l1.1-1.1c2.9-2.9,5-6.4,6-10.4l0.4-1.5l-3.4-2
	c0.1-0.7,0.1-1.3,0.1-1.9c0-0.6,0-1.3-0.1-1.9l3.4-2L69.3,51.6z M62.1,54.4c0.2,0.9,0.3,1.8,0.3,2.6s-0.1,1.7-0.3,2.6L61.9,61
	l3.2,1.8c-0.8,2.2-1.9,4.2-3.5,6L58.4,67l-1.1,0.9c-1.3,1.1-2.9,2-4.5,2.6L51.5,71v3.7c-2.3,0.4-4.6,0.4-6.9,0V71l-1.3-0.5
	c-1.7-0.6-3.2-1.5-4.5-2.6L37.6,67l-3.2,1.8c-1.5-1.8-2.7-3.8-3.5-6l3.2-1.8l-0.3-1.4c-0.2-0.9-0.3-1.8-0.3-2.6s0.1-1.7,0.3-2.6
	l0.3-1.4L31,51.2c0.8-2.2,1.9-4.2,3.5-6l3.2,1.8l1.1-0.9c1.3-1.1,2.9-2,4.5-2.6l1.3-0.5v-3.7c2.3-0.4,4.6-0.4,6.9,0V43l1.3,0.5
	c1.7,0.6,3.2,1.5,4.5,2.6l1.1,0.9l3.2-1.8c1.5,1.8,2.7,3.8,3.5,6L61.9,53L62.1,54.4z"/>
</svg>
