<?xml version="1.0" encoding="utf-8"?>
<!-- Generator: Adobe Illustrator 17.1.0, SVG Export Plug-In . SVG Version: 6.00 Build 0)  -->
<!DOCTYPE svg PUBLIC "-//W3C//DTD SVG 1.1//EN" "http://www.w3.org/Graphics/SVG/1.1/DTD/svg11.dtd">
<svg version="1.1" id="Layer_1" xmlns="http://www.w3.org/2000/svg" xmlns:xlink="http://www.w3.org/1999/xlink" x="0px" y="0px"
	 viewBox="0 0 96 96" style="enable-background:new 0 0 96 96;" xml:space="preserve">
<style type="text/css">
	.st0{fill:#FF614A;}
</style>
<path class="st0" d="M86,10H10C4.5,10,0,14.5,0,20v56c0,5.5,4.5,10,10,10h76c5.5,0,10-4.5,10-10V20C96,14.5,91.5,10,86,10z M10,14
	h76c3.3,0,6,2.7,6,6v8H4v-8C4,16.7,6.7,14,10,14z M86,82H10c-3.3,0-6-2.7-6-6V32h88v44C92,79.3,89.3,82,86,82z M10,21
	c0-1.1,0.9-2,2-2h8c1.1,0,2,0.9,2,2s-0.9,2-2,2h-8C10.9,23,10,22.1,10,21z M58,21c0-1.1,0.9-2,2-2h4c1.1,0,2,0.9,2,2s-0.9,2-2,2h-4
	C58.9,23,58,22.1,58,21z M68,21c0-1.1,0.9-2,2-2h4c1.1,0,2,0.9,2,2s-0.9,2-2,2h-4C68.9,23,68,22.1,68,21z M78,21c0-1.1,0.9-2,2-2h4
	c1.1,0,2,0.9,2,2s-0.9,2-2,2h-4C78.9,23,78,22.1,78,21z M79,41H36.6c-0.8-2.3-3-4-5.6-4s-4.8,1.7-5.6,4H15c-1.1,0-2,0.9-2,2
	s0.9,2,2,2h10.4c0.8,2.3,3,4,5.6,4s4.8-1.7,5.6-4H79c1.1,0,2-0.9,2-2S80.1,41,79,41z M31,45c-1.1,0-2-0.9-2-2s0.9-2,2-2s2,0.9,2,2
	S32.1,45,31,45z M79,55H68.6c-0.8-2.3-3-4-5.6-4s-4.8,1.7-5.6,4H15c-1.1,0-2,0.9-2,2s0.9,2,2,2h42.4c0.8,2.3,3,4,5.6,4
	s4.8-1.7,5.6-4H79c1.1,0,2-0.9,2-2S80.1,55,79,55z M63,59c-1.1,0-2-0.9-2-2s0.9-2,2-2s2,0.9,2,2S64.1,59,63,59z M79,69H48.6
	c-0.8-2.3-3-4-5.6-4s-4.8,1.7-5.6,4H15c-1.1,0-2,0.9-2,2s0.9,2,2,2h22.4c0.8,2.3,3,4,5.6,4s4.8-1.7,5.6-4H79c1.1,0,2-0.9,2-2
	S80.1,69,79,69z M43,73c-1.1,0-2-0.9-2-2s0.9-2,2-2s2,0.9,2,2S44.1,73,43,73z"/>
</svg>
