<?xml version="1.0" encoding="utf-8"?>
<!-- Generator: Adobe Illustrator 17.1.0, SVG Export Plug-In . SVG Version: 6.00 Build 0)  -->
<!DOCTYPE svg PUBLIC "-//W3C//DTD SVG 1.1//EN" "http://www.w3.org/Graphics/SVG/1.1/DTD/svg11.dtd">
<svg version="1.1" id="Layer_1" xmlns="http://www.w3.org/2000/svg" xmlns:xlink="http://www.w3.org/1999/xlink" x="0px" y="0px"
	 viewBox="0 0 96 96" style="enable-background:new 0 0 96 96;" xml:space="preserve">
<style type="text/css">
	.st0{fill:#FF614A;}
</style>
<path class="st0" d="M86,8H10C4.5,8,0,12.5,0,18v60c0,5.5,4.5,10,10,10h76c5.5,0,10-4.5,10-10V18C96,12.5,91.5,8,86,8z M10,12h76
	c3.3,0,6,2.7,6,6v8H4v-8C4,14.7,6.7,12,10,12z M86,84H10c-3.3,0-6-2.7-6-6V30h88v48C92,81.3,89.3,84,86,84z M10,19c0-1.1,0.9-2,2-2
	h8c1.1,0,2,0.9,2,2s-0.9,2-2,2h-8C10.9,21,10,20.1,10,19z M58,19c0-1.1,0.9-2,2-2h4c1.1,0,2,0.9,2,2s-0.9,2-2,2h-4
	C58.9,21,58,20.1,58,19z M68,19c0-1.1,0.9-2,2-2h4c1.1,0,2,0.9,2,2s-0.9,2-2,2h-4C68.9,21,68,20.1,68,19z M78,19c0-1.1,0.9-2,2-2h4
	c1.1,0,2,0.9,2,2s-0.9,2-2,2h-4C78.9,21,78,20.1,78,19z M12,73h12V51H12V73z M16,55h4v14h-4V55z M32,73h12V41H32V73z M36,45h4v24h-4
	V45z M72,73h12V37H72V73z M76,41h4v28h-4V41z M67.8,72.9c1.4-2,2.2-4.4,2.2-6.9c0-3.2-1.2-6.2-3.5-8.5c-0.8-0.8-1.6-1.4-2.5-1.9V45
	H52v10.6c-0.9,0.5-1.7,1.1-2.5,1.9C47.2,59.8,46,62.8,46,66s1.2,6.2,3.5,8.5S54.8,78,58,78c2.5,0,4.9-0.8,6.9-2.2l5.6,5.6
	C71,81.8,71.5,82,72,82s1-0.2,1.4-0.6c0.8-0.8,0.8-2,0-2.8L67.8,72.9z M56,49h4v5.2c-0.7-0.1-1.3-0.2-2-0.2s-1.3,0.1-2,0.2V49z
	 M52.3,71.7c-3.1-3.1-3.1-8.2,0-11.3c0.5-0.5,1.2-1,1.8-1.4c0.5,0,0.9-0.2,1.2-0.5c0.8-0.3,1.7-0.4,2.6-0.4s1.8,0.2,2.6,0.4
	c0.3,0.3,0.7,0.5,1.2,0.5c0.7,0.4,1.3,0.8,1.8,1.4c3.1,3.1,3.1,8.2,0,11.3C62.1,73.2,60.1,74,58,74S53.9,73.2,52.3,71.7z"/>
</svg>
