<?xml version="1.0" encoding="utf-8"?>
<!-- Generator: Adobe Illustrator 17.1.0, SVG Export Plug-In . SVG Version: 6.00 Build 0)  -->
<!DOCTYPE svg PUBLIC "-//W3C//DTD SVG 1.1//EN" "http://www.w3.org/Graphics/SVG/1.1/DTD/svg11.dtd">
<svg version="1.1" id="Layer_1" xmlns="http://www.w3.org/2000/svg" xmlns:xlink="http://www.w3.org/1999/xlink" x="0px" y="0px"
	 viewBox="0 0 96 96" style="enable-background:new 0 0 96 96;" xml:space="preserve">
<style type="text/css">
	.st0{fill:#FF614A;}
</style>
<path class="st0" d="M89,38H73v46h-6V52H51v32h-6V46H29v38h-6V60H7v24H0v12h96V84h-7V38z M77,42h8v42h-8V42z M55,56h8v28h-8V56z
	 M33,50h8v34h-8V50z M11,64h8v20h-8V64z M92,88v4H4v-4h3h16h6h16h6h16h6h16H92z M9,48c0.4,0,0.7-0.1,1.1-0.3l27.3-17.5l22.2,6l8-6.8
	c3,2.8,7.1,4.6,11.5,4.6c9.4,0,17-7.6,17-17S88.4,0,79,0S62,7.6,62,17c0,3.5,1.1,6.7,2.8,9.4l-6.3,5.4l-21.8-6L7.9,44.3
	c-0.9,0.6-1.2,1.8-0.6,2.8C7.7,47.7,8.3,48,9,48z M79,4c7.2,0,13,5.8,13,13s-5.8,13-13,13s-13-5.8-13-13S71.8,4,79,4z M74.5,25h2.9
	v-3.6H83v-1.9h-5.6V18h2.6c3,0,5.2-1.6,5.2-4.4c0-2.8-1.8-4.6-5-4.6h-5.7v6.7H73V18h1.5v1.5H73v1.9h1.5V25z M77.4,11.3h2.3
	c1.7,0,2.6,0.9,2.6,2.2c0,1.3-0.9,2.3-2.6,2.3h-2.2V11.3z"/>
</svg>
