<?xml version="1.0" encoding="utf-8"?>
<!-- Generator: Adobe Illustrator 18.0.0, SVG Export Plug-In . SVG Version: 6.00 Build 0)  -->
<!DOCTYPE svg PUBLIC "-//W3C//DTD SVG 1.1//EN" "http://www.w3.org/Graphics/SVG/1.1/DTD/svg11.dtd">
<svg version="1.1" id="Layer_1" xmlns="http://www.w3.org/2000/svg" xmlns:xlink="http://www.w3.org/1999/xlink" x="0px" y="0px"
	 viewBox="0 0 1072.9 355.7" style="enable-background:new 0 0 1072.9 355.7;" xml:space="preserve">
<style type="text/css">
	.st0{fill:#FF614A;}
	
		.st1{fill-rule:evenodd;clip-rule:evenodd;fill:none;stroke:#DFDFDF;stroke-width:4;stroke-linecap:round;stroke-linejoin:round;stroke-miterlimit:10;stroke-dasharray:16,8;}
	
		.st2{fill-rule:evenodd;clip-rule:evenodd;fill:none;stroke:#DFDFDF;stroke-width:4;stroke-linecap:round;stroke-linejoin:round;stroke-miterlimit:10;}
	.st3{fill:none;stroke:#DFDFDF;stroke-width:4;stroke-linecap:round;stroke-linejoin:round;}
	.st4{fill:none;stroke:#DFDFDF;stroke-width:4;stroke-linecap:round;stroke-linejoin:round;stroke-dasharray:15.5916,7.7958;}
	.st5{fill:#231F20;}
	.st6{fill:#DFDFDF;}
</style>
<g>
	
		<image style="overflow:visible;" width="1198" height="548" id="k5AXH5_1_" xlink:href="A12AAC7B75BE4A1A.png"  transform="matrix(1 0 0 1 -27.0519 -1260.8597)">
	</image>
</g>
<g>
	<path class="st0" d="M436.3-512.8h-112c-4.4,0-8,3.6-8,8v84c0,4.4,3.6,8,8,8h45.6l-3.2,16h-10.4c-4.4,0-8,3.6-8,8v4h64v-4
		c0-4.4-3.6-8-8-8h-10.4l-3.2-16h45.6c4.4,0,8-3.6,8-8v-84C444.3-509.2,440.7-512.8,436.3-512.8z M324.3-508.8h112c2.2,0,4,1.8,4,4
		v70h-120v-70C320.3-507,322.1-508.8,324.3-508.8z M404.3-392.8c2.2,0,4,1.8,4,4h-56c0-2.2,1.8-4,4-4h9.6h28.9H404.3z M389.8-396.8
		h-19.1l3.2-16h12.7L389.8-396.8z M436.3-416.8h-46.4h-19.3h-46.4c-2.2,0-4-1.8-4-4v-10h120v10C440.3-418.6,438.5-416.8,436.3-416.8
		z M332.3-466.4h38c2.2,0,4-1.8,4-4v-14c0-2.2-1.8-4-4-4h-38c-2.2,0-4,1.8-4,4v14C328.3-468.2,330.1-466.4,332.3-466.4z
		 M332.3-484.4h38v14h-38V-484.4z M328.3-498.8c0-1.1,0.9-2,2-2h6c1.1,0,2,0.9,2,2s-0.9,2-2,2h-6
		C329.2-496.8,328.3-497.7,328.3-498.8z M344.3-498.8c0-1.1,0.9-2,2-2h6c1.1,0,2,0.9,2,2s-0.9,2-2,2h-6
		C345.2-496.8,344.3-497.7,344.3-498.8z M360.3-498.8c0-1.1,0.9-2,2-2h6c1.1,0,2,0.9,2,2s-0.9,2-2,2h-6
		C361.2-496.8,360.3-497.7,360.3-498.8z M429.9-497.4c-0.4-0.4-0.6-0.9-0.6-1.4c0-0.5,0.2-1,0.6-1.4c0.8-0.8,2.1-0.8,2.8,0
		c0.4,0.4,0.6,0.9,0.6,1.4c0,0.5-0.2,1-0.6,1.4c-0.4,0.4-0.9,0.6-1.4,0.6C430.8-496.8,430.2-497,429.9-497.4z M343.3-454.8v10
		c0,1.1-0.9,2-2,2s-2-0.9-2-2v-10c0-1.1,0.9-2,2-2S343.3-455.9,343.3-454.8z M328.3-444.8v-6c0-1.1,0.9-2,2-2s2,0.9,2,2v6
		c0,1.1-0.9,2-2,2S328.3-443.7,328.3-444.8z M354.3-452.8v8c0,1.1-0.9,2-2,2s-2-0.9-2-2v-8c0-1.1,0.9-2,2-2S354.3-453.9,354.3-452.8
		z M364.3-458.8v14c0,1.1-0.9,2-2,2s-2-0.9-2-2v-14c0-1.1,0.9-2,2-2S364.3-459.9,364.3-458.8z M374.3-454.8v10c0,1.1-0.9,2-2,2
		s-2-0.9-2-2v-10c0-1.1,0.9-2,2-2S374.3-455.9,374.3-454.8z M387.3-482.4c0-1.1,0.9-2,2-2h38c1.1,0,2,0.9,2,2s-0.9,2-2,2h-38
		C388.2-480.4,387.3-481.3,387.3-482.4z M387.3-472.4c0-1.1,0.9-2,2-2h28c1.1,0,2,0.9,2,2s-0.9,2-2,2h-28
		C388.2-470.4,387.3-471.3,387.3-472.4z M387.3-458.4c0-1.1,0.9-2,2-2h34c1.1,0,2,0.9,2,2s-0.9,2-2,2h-34
		C388.2-456.4,387.3-457.3,387.3-458.4z M387.3-448.4c0-1.1,0.9-2,2-2h22c1.1,0,2,0.9,2,2s-0.9,2-2,2h-22
		C388.2-446.4,387.3-447.3,387.3-448.4z"/>
</g>
<g>
	<path class="st0" d="M754.6-422.8h-18v-8c0-3.3-2.7-6-6-6h-34v-9.3c0,0,0.1,0,0.1-0.1l24.5-15.3c2.5-1.6,2.5-5.2,0-6.8l-24.5-15.3
		c0,0-0.1,0-0.1-0.1v-11.3h18c2.2,0,4-1.8,4-4v-20c0-2.2-1.8-4-4-4h-40c-2.2,0-4,1.8-4,4v20c0,2.2,1.8,4,4,4h18v11.3
		c0,0-0.1,0-0.1,0.1L668-468.2c-2.5,1.6-2.5,5.2,0,6.8l24.5,15.3c0,0,0.1,0,0.1,0.1v9.3h-34c-3.3,0-6,2.7-6,6v8h-18
		c-2.2,0-4,1.8-4,4v20c0,2.2,1.8,4,4,4h40c2.2,0,4-1.8,4-4v-20c0-2.2-1.8-4-4-4h-18v-8c0-1.1,0.9-2,2-2h72c1.1,0,2,0.9,2,2v8h-18
		c-2.2,0-4,1.8-4,4v20c0,2.2,1.8,4,4,4h40c2.2,0,4-1.8,4-4v-20C758.6-421,756.8-422.8,754.6-422.8z M674.6-498.8v-20h40v20H674.6z
		 M670.2-464.8l24.5-15.3l0,0l24.5,15.3l-24.5,15.3L670.2-464.8z M674.6-418.8v20h-40v-20H674.6z M754.6-398.8h-40v-20h40V-398.8z"
		/>
</g>
<g>
	<path class="st0" d="M1064.9-512.8h-112c-4.4,0-8,3.6-8,8v112c0,4.4,3.6,8,8,8h112c4.4,0,8-3.6,8-8v-112
		C1072.9-509.2,1069.4-512.8,1064.9-512.8z M948.9-488.8h120v64h-120V-488.8z M952.9-508.8h112c2.2,0,4,1.8,4,4v12h-120v-12
		C948.9-507,950.7-508.8,952.9-508.8z M1064.9-388.8h-112c-2.2,0-4-1.8-4-4v-28h120v28C1068.9-390.6,1067.2-388.8,1064.9-388.8z
		 M956.9-500.8c0-1.1,0.9-2,2-2h6.2c1.1,0,2,0.9,2,2s-0.9,2-2,2h-6.2C957.8-498.8,956.9-499.7,956.9-500.8z M972.9-500.8
		c0-1.1,0.9-2,2-2h6.2c1.1,0,2,0.9,2,2s-0.9,2-2,2h-6.2C973.8-498.8,972.9-499.7,972.9-500.8z M988.9-500.8c0-1.1,0.9-2,2-2h6.2
		c1.1,0,2,0.9,2,2s-0.9,2-2,2h-6.2C989.8-498.8,988.9-499.7,988.9-500.8z M974.9-414.8h-12c-2.2,0-4,1.8-4,4v12c0,2.2,1.8,4,4,4h12
		c2.2,0,4-1.8,4-4v-12C978.9-413,977.2-414.8,974.9-414.8z M974.9-398.8h-12v-12h12V-398.8z M1030.9-409.8c0,1.1-0.9,2-2,2h-40
		c-1.1,0-2-0.9-2-2s0.9-2,2-2h40C1030.1-411.8,1030.9-410.9,1030.9-409.8z M1020.9-399.8c0,1.1-0.9,2-2,2h-30c-1.1,0-2-0.9-2-2
		s0.9-2,2-2h30C1020.1-401.8,1020.9-400.9,1020.9-399.8z M1058-479.8c-1.9-1.9-4.4-2.9-7.1-2.9s-5.2,1-7.1,2.9
		c-3.4,3.4-3.8,8.7-1.3,12.6l-14.1,14.1c-1.6-1.1-3.5-1.7-5.5-1.7c-2,0-3.9,0.6-5.5,1.7l-12.1-12.1c2.6-3.9,2.1-9.2-1.3-12.6
		c-1.9-1.9-4.4-2.9-7.1-2.9s-5.2,1-7.1,2.9c-3.4,3.4-3.8,8.7-1.3,12.6l-16.1,16.1c-1.6-1.1-3.5-1.7-5.5-1.7c-2.7,0-5.2,1-7.1,2.9
		c-3.9,3.9-3.9,10.2,0,14.1c1.9,1.9,4.4,2.9,7.1,2.9s5.2-1,7.1-2.9c3.4-3.4,3.8-8.7,1.3-12.6l16.1-16.1c1.6,1.1,3.5,1.7,5.5,1.7
		c2,0,3.9-0.6,5.5-1.7l12.1,12.1c-2.6,3.9-2.1,9.2,1.3,12.6c1.9,1.9,4.4,2.9,7.1,2.9s5.2-1,7.1-2.9c3.4-3.4,3.8-8.7,1.3-12.6
		l14.1-14.1c1.6,1.1,3.5,1.7,5.5,1.7c2.7,0,5.2-1,7.1-2.9C1061.9-469.6,1061.9-475.9,1058-479.8z M971.2-436.5
		c-1.1,1.1-2.6,1.8-4.2,1.8s-3.1-0.6-4.2-1.8c-2.3-2.3-2.3-6.1,0-8.5c1.1-1.1,2.6-1.8,4.2-1.8s3.1,0.6,4.2,1.8
		C973.5-442.7,973.5-438.9,971.2-436.5z M992.7-466.5c-2.3-2.3-2.3-6.1,0-8.5c1.1-1.1,2.6-1.8,4.2-1.8s3.1,0.6,4.2,1.8
		c2.3,2.3,2.3,6.1,0,8.5c-1.1,1.1-2.6,1.8-4.2,1.8S993.8-465.4,992.7-466.5z M1027.2-440.5c-1.1,1.1-2.6,1.8-4.2,1.8
		s-3.1-0.6-4.2-1.8c-2.3-2.3-2.3-6.1,0-8.5c1.1-1.1,2.6-1.8,4.2-1.8s3.1,0.6,4.2,1.8C1029.5-446.7,1029.5-442.9,1027.2-440.5z
		 M1055.2-468.5c-1.1,1.1-2.6,1.8-4.2,1.8s-3.1-0.6-4.2-1.8c-2.3-2.3-2.3-6.1,0-8.5c1.1-1.1,2.6-1.8,4.2-1.8s3.1,0.6,4.2,1.8
		C1057.5-474.7,1057.5-470.9,1055.2-468.5z"/>
</g>
<g>
	<path class="st0" d="M125.8-440.8c-2,27.7-24.2,49.9-51.9,51.9v-51.9H125.8 M129.9-444.8L129.9-444.8L129.9-444.8z M129.9-444.8
		h-60v60C103.1-384.8,129.9-411.6,129.9-444.8L129.9-444.8z M61.9-508.8c13.6,0,26.5,4.8,36.7,13.7l-39.5,39.5l-1.2,1.2v1.7v55.9
		c-29-2.1-52-26.3-52-55.9C5.9-483.6,31.1-508.8,61.9-508.8 M61.9-512.8c-33.1,0-60,26.9-60,60c0,33.1,26.9,60,60,60v-60l42.4-42.4
		C93.5-506.1,78.5-512.8,61.9-512.8L61.9-512.8z M112.3-487.4c8,9.2,12.7,20.5,13.5,32.7H79.6L112.3-487.4 M112.4-493.2l-42.4,42.4
		h60C129.9-467.3,123.2-482.3,112.4-493.2L112.4-493.2z"/>
</g>
<path class="st1" d="M153-556.7c107.7-43.2,224.4-68.9,346.6-73.3"/>
<path class="st1" d="M576-631c122.5,4.9,240.6,31.2,348.5,75.2"/>
<path class="st2" d="M913.8-567.8l10,13h-15"/>
<g>
	<g>
		<g>
			<path class="st3" d="M650.1-284.3c-2.7-0.2-5.3-0.4-8-0.6"/>
			<path class="st4" d="M634.4-285.5c-55.2-5.1-105.1-17.8-154.9-37.1"/>
			<path class="st3" d="M475.9-324.1c-2.5-1-4.9-2-7.4-3"/>
		</g>
	</g>
</g>
<path class="st1" d="M920.5-326.5c-58,23.3-120.6,37.8-186,41.8"/>
<line class="st2" x1="804" y1="-455.8" x2="904" y2="-455.8"/>
<polyline class="st2" points="899.9,-463.8 907.9,-455.8 900,-447.8 "/>
<text transform="matrix(1 0 0 1 665.0399 -280.2687)" class="st5" style="font-family:'ProximaNova-Extrabld'; font-size:16;">данные</text>
<text transform="matrix(1 0 0 1 506.9481 -626.2687)" class="st5" style="font-family:'ProximaNova-Extrabld'; font-size:16;">данные</text>
<text transform="matrix(1 0 0 1 177.5338 -470.7687)" class="st5" style="font-family:'ProximaNova-Extrabld'; font-size:16;"> посетители</text>
<text transform="matrix(1 0 0 1 822.3724 -470.7687)" class="st5" style="font-family:'ProximaNova-Extrabld'; font-size:16;">данные</text>
<text transform="matrix(1 0 0 1 515.7401 -470.7687)" class="st5" style="font-family:'ProximaNova-Extrabld'; font-size:16;">лиды</text>
<path class="st2" d="M907.3-328.7l16.4,0.1l-9.2,11.8"/>
<line class="st2" x1="485" y1="-455.8" x2="585" y2="-455.8"/>
<polyline class="st2" points="580.9,-463.8 588.9,-455.8 581,-447.8 "/>
<line class="st2" x1="178" y1="-455.8" x2="278" y2="-455.8"/>
<polyline class="st2" points="273.9,-463.8 281.9,-455.8 274,-447.8 "/>
<g>
	<path class="st0" d="M436.3,121.2h-112c-4.4,0-8,3.6-8,8v84c0,4.4,3.6,8,8,8h45.6l-3.2,16h-10.4c-4.4,0-8,3.6-8,8v4h64v-4
		c0-4.4-3.6-8-8-8h-10.4l-3.2-16h45.6c4.4,0,8-3.6,8-8v-84C444.3,124.8,440.7,121.2,436.3,121.2z M324.3,125.2h112c2.2,0,4,1.8,4,4
		v70h-120v-70C320.3,127,322.1,125.2,324.3,125.2z M404.3,241.2c2.2,0,4,1.8,4,4h-56c0-2.2,1.8-4,4-4h9.6h28.9H404.3z M389.8,237.2
		h-19.1l3.2-16h12.7L389.8,237.2z M436.3,217.2h-46.4h-19.3h-46.4c-2.2,0-4-1.8-4-4v-10h120v10C440.3,215.4,438.5,217.2,436.3,217.2
		z M332.3,167.6h38c2.2,0,4-1.8,4-4v-14c0-2.2-1.8-4-4-4h-38c-2.2,0-4,1.8-4,4v14C328.3,165.8,330.1,167.6,332.3,167.6z
		 M332.3,149.6h38v14h-38V149.6z M328.3,135.2c0-1.1,0.9-2,2-2h6c1.1,0,2,0.9,2,2s-0.9,2-2,2h-6
		C329.2,137.2,328.3,136.3,328.3,135.2z M344.3,135.2c0-1.1,0.9-2,2-2h6c1.1,0,2,0.9,2,2s-0.9,2-2,2h-6
		C345.2,137.2,344.3,136.3,344.3,135.2z M360.3,135.2c0-1.1,0.9-2,2-2h6c1.1,0,2,0.9,2,2s-0.9,2-2,2h-6
		C361.2,137.2,360.3,136.3,360.3,135.2z M429.9,136.6c-0.4-0.4-0.6-0.9-0.6-1.4c0-0.5,0.2-1,0.6-1.4c0.8-0.8,2.1-0.8,2.8,0
		c0.4,0.4,0.6,0.9,0.6,1.4c0,0.5-0.2,1-0.6,1.4c-0.4,0.4-0.9,0.6-1.4,0.6C430.8,137.2,430.2,137,429.9,136.6z M343.3,179.2v10
		c0,1.1-0.9,2-2,2s-2-0.9-2-2v-10c0-1.1,0.9-2,2-2S343.3,178.1,343.3,179.2z M328.3,189.2v-6c0-1.1,0.9-2,2-2s2,0.9,2,2v6
		c0,1.1-0.9,2-2,2S328.3,190.3,328.3,189.2z M354.3,181.2v8c0,1.1-0.9,2-2,2s-2-0.9-2-2v-8c0-1.1,0.9-2,2-2S354.3,180.1,354.3,181.2
		z M364.3,175.2v14c0,1.1-0.9,2-2,2s-2-0.9-2-2v-14c0-1.1,0.9-2,2-2S364.3,174.1,364.3,175.2z M374.3,179.2v10c0,1.1-0.9,2-2,2
		s-2-0.9-2-2v-10c0-1.1,0.9-2,2-2S374.3,178.1,374.3,179.2z M387.3,151.6c0-1.1,0.9-2,2-2h38c1.1,0,2,0.9,2,2s-0.9,2-2,2h-38
		C388.2,153.6,387.3,152.7,387.3,151.6z M387.3,161.6c0-1.1,0.9-2,2-2h28c1.1,0,2,0.9,2,2s-0.9,2-2,2h-28
		C388.2,163.6,387.3,162.7,387.3,161.6z M387.3,175.6c0-1.1,0.9-2,2-2h34c1.1,0,2,0.9,2,2s-0.9,2-2,2h-34
		C388.2,177.6,387.3,176.7,387.3,175.6z M387.3,185.6c0-1.1,0.9-2,2-2h22c1.1,0,2,0.9,2,2s-0.9,2-2,2h-22
		C388.2,187.6,387.3,186.7,387.3,185.6z"/>
</g>
<g>
	<path class="st0" d="M754.6,211.2h-18v-8c0-3.3-2.7-6-6-6h-34V188c0,0,0.1,0,0.1-0.1l24.5-15.3c2.5-1.6,2.5-5.2,0-6.8l-24.5-15.3
		c0,0-0.1,0-0.1-0.1v-11.3h18c2.2,0,4-1.8,4-4v-20c0-2.2-1.8-4-4-4h-40c-2.2,0-4,1.8-4,4v20c0,2.2,1.8,4,4,4h18v11.3
		c0,0-0.1,0-0.1,0.1L668,165.8c-2.5,1.6-2.5,5.2,0,6.8l24.5,15.3c0,0,0.1,0,0.1,0.1v9.3h-34c-3.3,0-6,2.7-6,6v8h-18
		c-2.2,0-4,1.8-4,4v20c0,2.2,1.8,4,4,4h40c2.2,0,4-1.8,4-4v-20c0-2.2-1.8-4-4-4h-18v-8c0-1.1,0.9-2,2-2h72c1.1,0,2,0.9,2,2v8h-18
		c-2.2,0-4,1.8-4,4v20c0,2.2,1.8,4,4,4h40c2.2,0,4-1.8,4-4v-20C758.6,213,756.8,211.2,754.6,211.2z M674.6,135.2v-20h40v20H674.6z
		 M670.2,169.2l24.5-15.3l0,0l24.5,15.3l-24.5,15.3L670.2,169.2z M674.6,215.2v20h-40v-20H674.6z M754.6,235.2h-40v-20h40V235.2z"/>
</g>
<g>
	<path class="st0" d="M1064.9,121.2h-112c-4.4,0-8,3.6-8,8v112c0,4.4,3.6,8,8,8h112c4.4,0,8-3.6,8-8v-112
		C1072.9,124.8,1069.4,121.2,1064.9,121.2z M948.9,145.2h120v64h-120V145.2z M952.9,125.2h112c2.2,0,4,1.8,4,4v12h-120v-12
		C948.9,127,950.7,125.2,952.9,125.2z M1064.9,245.2h-112c-2.2,0-4-1.8-4-4v-28h120v28C1068.9,243.4,1067.2,245.2,1064.9,245.2z
		 M956.9,133.2c0-1.1,0.9-2,2-2h6.2c1.1,0,2,0.9,2,2s-0.9,2-2,2h-6.2C957.8,135.2,956.9,134.3,956.9,133.2z M972.9,133.2
		c0-1.1,0.9-2,2-2h6.2c1.1,0,2,0.9,2,2s-0.9,2-2,2h-6.2C973.8,135.2,972.9,134.3,972.9,133.2z M988.9,133.2c0-1.1,0.9-2,2-2h6.2
		c1.1,0,2,0.9,2,2s-0.9,2-2,2h-6.2C989.8,135.2,988.9,134.3,988.9,133.2z M974.9,219.2h-12c-2.2,0-4,1.8-4,4v12c0,2.2,1.8,4,4,4h12
		c2.2,0,4-1.8,4-4v-12C978.9,221,977.2,219.2,974.9,219.2z M974.9,235.2h-12v-12h12V235.2z M1030.9,224.2c0,1.1-0.9,2-2,2h-40
		c-1.1,0-2-0.9-2-2s0.9-2,2-2h40C1030.1,222.2,1030.9,223.1,1030.9,224.2z M1020.9,234.2c0,1.1-0.9,2-2,2h-30c-1.1,0-2-0.9-2-2
		s0.9-2,2-2h30C1020.1,232.2,1020.9,233.1,1020.9,234.2z M1058,154.2c-1.9-1.9-4.4-2.9-7.1-2.9s-5.2,1-7.1,2.9
		c-3.4,3.4-3.8,8.7-1.3,12.6l-14.1,14.1c-1.6-1.1-3.5-1.7-5.5-1.7c-2,0-3.9,0.6-5.5,1.7l-12.1-12.1c2.6-3.9,2.1-9.2-1.3-12.6
		c-1.9-1.9-4.4-2.9-7.1-2.9s-5.2,1-7.1,2.9c-3.4,3.4-3.8,8.7-1.3,12.6l-16.1,16.1c-1.6-1.1-3.5-1.7-5.5-1.7c-2.7,0-5.2,1-7.1,2.9
		c-3.9,3.9-3.9,10.2,0,14.1c1.9,1.9,4.4,2.9,7.1,2.9s5.2-1,7.1-2.9c3.4-3.4,3.8-8.7,1.3-12.6l16.1-16.1c1.6,1.1,3.5,1.7,5.5,1.7
		c2,0,3.9-0.6,5.5-1.7l12.1,12.1c-2.6,3.9-2.1,9.2,1.3,12.6c1.9,1.9,4.4,2.9,7.1,2.9s5.2-1,7.1-2.9c3.4-3.4,3.8-8.7,1.3-12.6
		l14.1-14.1c1.6,1.1,3.5,1.7,5.5,1.7c2.7,0,5.2-1,7.1-2.9C1061.9,164.4,1061.9,158.1,1058,154.2z M971.2,197.5
		c-1.1,1.1-2.6,1.8-4.2,1.8s-3.1-0.6-4.2-1.8c-2.3-2.3-2.3-6.1,0-8.5c1.1-1.1,2.6-1.8,4.2-1.8s3.1,0.6,4.2,1.8
		C973.5,191.3,973.5,195.1,971.2,197.5z M992.7,167.5c-2.3-2.3-2.3-6.1,0-8.5c1.1-1.1,2.6-1.8,4.2-1.8s3.1,0.6,4.2,1.8
		c2.3,2.3,2.3,6.1,0,8.5c-1.1,1.1-2.6,1.8-4.2,1.8S993.8,168.6,992.7,167.5z M1027.2,193.5c-1.1,1.1-2.6,1.8-4.2,1.8
		s-3.1-0.6-4.2-1.8c-2.3-2.3-2.3-6.1,0-8.5c1.1-1.1,2.6-1.8,4.2-1.8s3.1,0.6,4.2,1.8C1029.5,187.3,1029.5,191.1,1027.2,193.5z
		 M1055.2,165.5c-1.1,1.1-2.6,1.8-4.2,1.8s-3.1-0.6-4.2-1.8c-2.3-2.3-2.3-6.1,0-8.5c1.1-1.1,2.6-1.8,4.2-1.8s3.1,0.6,4.2,1.8
		C1057.5,159.3,1057.5,163.1,1055.2,165.5z"/>
</g>
<g>
	<path class="st0" d="M125.8,193.2c-2,27.7-24.2,49.9-51.9,51.9v-51.9H125.8 M129.9,189.2L129.9,189.2L129.9,189.2z M129.9,189.2
		h-60v60C103.1,249.2,129.9,222.4,129.9,189.2L129.9,189.2z M61.9,125.2c13.6,0,26.5,4.8,36.7,13.7l-39.5,39.5l-1.2,1.2v1.7v55.9
		c-29-2.1-52-26.3-52-55.9C5.9,150.4,31.1,125.2,61.9,125.2 M61.9,121.2c-33.1,0-60,26.9-60,60c0,33.1,26.9,60,60,60v-60l42.4-42.4
		C93.5,127.9,78.5,121.2,61.9,121.2L61.9,121.2z M112.3,146.6c8,9.2,12.7,20.5,13.5,32.7H79.6L112.3,146.6 M112.4,140.8l-42.4,42.4
		h60C129.9,166.7,123.2,151.7,112.4,140.8L112.4,140.8z"/>
</g>
<path class="st6" d="M153,79.3c-0.8,0-1.5-0.5-1.9-1.3c-0.4-1,0.1-2.2,1.1-2.6c4.9-2,10-3.9,14.9-5.9c1-0.4,2.2,0.1,2.6,1.2
	c0.4,1-0.1,2.2-1.2,2.6c-4.9,1.9-9.9,3.9-14.9,5.8C153.5,79.2,153.2,79.3,153,79.3z M175.4,70.6c-0.8,0-1.6-0.5-1.9-1.3
	c-0.4-1,0.1-2.2,1.2-2.6c5-1.9,10.1-3.7,15.1-5.5c1-0.4,2.2,0.2,2.6,1.2c0.4,1-0.2,2.2-1.2,2.6c-5,1.8-10,3.6-15,5.5
	C175.8,70.6,175.6,70.6,175.4,70.6z M197.9,62.5c-0.8,0-1.6-0.5-1.9-1.3c-0.4-1,0.2-2.2,1.2-2.5c5-1.7,10.1-3.5,15.2-5.1
	c1-0.3,2.2,0.2,2.5,1.3c0.3,1-0.2,2.2-1.3,2.5c-5.1,1.7-10.1,3.4-15.1,5.1C198.4,62.4,198.1,62.5,197.9,62.5z M220.7,54.8
	c-0.8,0-1.6-0.5-1.9-1.4c-0.3-1.1,0.2-2.2,1.3-2.5c5.1-1.6,10.2-3.2,15.3-4.8c1.1-0.3,2.2,0.3,2.5,1.3c0.3,1.1-0.3,2.2-1.3,2.5
	c-5.1,1.5-10.2,3.2-15.2,4.8C221.1,54.8,220.9,54.8,220.7,54.8z M243.6,47.8c-0.9,0-1.7-0.6-1.9-1.4c-0.3-1.1,0.3-2.2,1.3-2.5
	c5.1-1.5,10.3-3,15.4-4.4c1.1-0.3,2.2,0.3,2.5,1.4c0.3,1.1-0.3,2.2-1.4,2.5c-5.1,1.4-10.2,2.9-15.3,4.4
	C244,47.7,243.8,47.8,243.6,47.8z M266.7,41.2c-0.9,0-1.7-0.6-1.9-1.5c-0.3-1.1,0.3-2.2,1.4-2.5c5.1-1.4,10.4-2.8,15.5-4.1
	c1.1-0.3,2.2,0.4,2.4,1.4c0.3,1.1-0.4,2.2-1.4,2.4c-5.1,1.3-10.3,2.7-15.4,4.1C267,41.2,266.8,41.2,266.7,41.2z M289.9,35.2
	c-0.9,0-1.7-0.6-1.9-1.5c-0.3-1.1,0.4-2.2,1.5-2.4c5.2-1.3,10.4-2.5,15.6-3.7c1.1-0.2,2.1,0.4,2.4,1.5c0.2,1.1-0.4,2.2-1.5,2.4
	c-5.2,1.2-10.4,2.4-15.5,3.7C290.2,35.2,290,35.2,289.9,35.2z M313.2,29.7c-0.9,0-1.7-0.6-2-1.6c-0.2-1.1,0.4-2.1,1.5-2.4
	c5.2-1.2,10.5-2.3,15.7-3.3c1.1-0.2,2.1,0.5,2.4,1.6c0.2,1.1-0.5,2.1-1.6,2.4c-5.2,1.1-10.4,2.2-15.6,3.3
	C313.5,29.7,313.4,29.7,313.2,29.7z M336.7,24.8c-0.9,0-1.8-0.7-2-1.6c-0.2-1.1,0.5-2.1,1.6-2.3c5.2-1,10.5-2,15.7-3
	c1.1-0.2,2.1,0.5,2.3,1.6c0.2,1.1-0.5,2.1-1.6,2.3c-5.2,0.9-10.5,1.9-15.7,3C337,24.8,336.8,24.8,336.7,24.8z M360.3,20.5
	c-1,0-1.8-0.7-2-1.7c-0.2-1.1,0.5-2.1,1.6-2.3c5.2-0.9,10.5-1.8,15.8-2.6c1.1-0.2,2.1,0.6,2.3,1.7c0.2,1.1-0.6,2.1-1.7,2.3
	c-5.2,0.8-10.5,1.7-15.7,2.6C360.5,20.5,360.4,20.5,360.3,20.5z M384,16.6c-1,0-1.8-0.7-2-1.7c-0.2-1.1,0.6-2.1,1.7-2.3
	c5.2-0.8,10.6-1.5,15.9-2.2c1.1-0.1,2.1,0.6,2.2,1.7s-0.6,2.1-1.7,2.2c-5.3,0.7-10.6,1.5-15.8,2.2C384.2,16.6,384.1,16.6,384,16.6z
	 M407.7,13.4c-1,0-1.9-0.7-2-1.8c-0.1-1.1,0.6-2.1,1.7-2.2c5.3-0.7,10.6-1.3,15.9-1.9c1.1-0.1,2.1,0.7,2.2,1.8
	c0.1,1.1-0.7,2.1-1.8,2.2c-5.3,0.6-10.6,1.2-15.8,1.9C407.9,13.4,407.8,13.4,407.7,13.4z M431.6,10.7c-1,0-1.9-0.8-2-1.8
	c-0.1-1.1,0.7-2.1,1.8-2.2c5.3-0.5,10.7-1.1,15.9-1.5c1.1-0.1,2.1,0.7,2.2,1.8c0.1,1.1-0.7,2.1-1.8,2.2c-5.2,0.5-10.6,1-15.9,1.5
	C431.7,10.7,431.6,10.7,431.6,10.7z M455.4,8.5c-1,0-1.9-0.8-2-1.8c-0.1-1.1,0.7-2.1,1.8-2.2c5.3-0.4,10.6-0.8,16-1.1
	c1.1-0.1,2.1,0.8,2.1,1.9c0.1,1.1-0.8,2.1-1.9,2.1c-5.3,0.3-10.7,0.7-15.9,1.1C455.5,8.5,455.5,8.5,455.4,8.5z M479.4,6.9
	c-1.1,0-1.9-0.8-2-1.9c-0.1-1.1,0.8-2,1.9-2.1c5.3-0.3,10.7-0.6,16-0.8c1.1,0,2,0.8,2.1,1.9c0,1.1-0.8,2-1.9,2.1
	c-5.3,0.2-10.7,0.5-15.9,0.8C479.4,6.9,479.4,6.9,479.4,6.9z"/>
<path class="st6" d="M918.8,77.9c-0.2,0-0.5,0-0.7-0.1c-4.9-2-9.9-3.9-14.9-5.8c-1-0.4-1.5-1.5-1.2-2.6c0.4-1,1.5-1.6,2.6-1.2
	c5,1.9,10,3.9,14.9,5.8c1,0.4,1.5,1.6,1.1,2.6C920.4,77.5,919.6,77.9,918.8,77.9z M896.4,69.3c-0.2,0-0.5,0-0.7-0.1
	c-4.9-1.8-10-3.7-15-5.5c-1-0.4-1.6-1.5-1.2-2.6c0.4-1,1.5-1.6,2.6-1.2c5,1.8,10.1,3.6,15.1,5.5c1,0.4,1.6,1.5,1.2,2.6
	C898,68.8,897.3,69.3,896.4,69.3z M873.8,61.1c-0.2,0-0.4,0-0.7-0.1c-5-1.7-10.1-3.5-15.1-5.1c-1-0.3-1.6-1.5-1.3-2.5
	c0.3-1,1.5-1.6,2.5-1.3c5.1,1.7,10.2,3.4,15.2,5.1c1,0.4,1.6,1.5,1.2,2.5C875.4,60.6,874.7,61.1,873.8,61.1z M851.1,53.6
	c-0.2,0-0.4,0-0.6-0.1c-5.1-1.6-10.2-3.2-15.3-4.8c-1.1-0.3-1.7-1.4-1.3-2.5c0.3-1.1,1.4-1.7,2.5-1.3c5.1,1.5,10.2,3.1,15.3,4.8
	c1.1,0.3,1.6,1.5,1.3,2.5C852.7,53,851.9,53.6,851.1,53.6z M828.1,46.5c-0.2,0-0.4,0-0.6-0.1c-5.1-1.5-10.2-3-15.4-4.4
	c-1.1-0.3-1.7-1.4-1.4-2.5s1.4-1.7,2.5-1.4c5.1,1.4,10.3,2.9,15.4,4.4c1.1,0.3,1.7,1.4,1.4,2.5C829.8,45.9,829,46.5,828.1,46.5z
	 M805,40c-0.2,0-0.3,0-0.5-0.1c-5.1-1.4-10.3-2.7-15.5-4c-1.1-0.3-1.7-1.4-1.4-2.4c0.3-1.1,1.4-1.7,2.4-1.4
	c5.2,1.3,10.4,2.7,15.5,4.1c1.1,0.3,1.7,1.4,1.4,2.5C806.7,39.4,805.9,40,805,40z M781.7,34c-0.2,0-0.3,0-0.5-0.1
	c-5.1-1.3-10.4-2.5-15.5-3.7c-1.1-0.2-1.8-1.3-1.5-2.4c0.2-1.1,1.3-1.7,2.4-1.5c5.2,1.2,10.4,2.4,15.6,3.7c1.1,0.3,1.7,1.3,1.5,2.4
	C783.5,33.4,782.6,34,781.7,34z M758.3,28.6c-0.1,0-0.3,0-0.4,0c-5.1-1.1-10.4-2.2-15.6-3.3c-1.1-0.2-1.8-1.3-1.6-2.4
	c0.2-1.1,1.3-1.8,2.4-1.6c5.2,1.1,10.5,2.2,15.7,3.3c1.1,0.2,1.8,1.3,1.5,2.4C760.1,27.9,759.3,28.6,758.3,28.6z M734.8,23.7
	c-0.1,0-0.3,0-0.4,0c-5.2-1-10.5-2-15.7-3c-1.1-0.2-1.8-1.2-1.6-2.3c0.2-1.1,1.2-1.8,2.3-1.6c5.2,0.9,10.5,1.9,15.8,3
	c1.1,0.2,1.8,1.3,1.6,2.3C736.6,23,735.8,23.7,734.8,23.7z M711.2,19.3c-0.1,0-0.2,0-0.3,0c-5.2-0.9-10.5-1.8-15.8-2.6
	c-1.1-0.2-1.8-1.2-1.7-2.3c0.2-1.1,1.2-1.8,2.3-1.7c5.3,0.8,10.6,1.7,15.8,2.6c1.1,0.2,1.8,1.2,1.6,2.3
	C713,18.6,712.2,19.3,711.2,19.3z M687.5,15.5c-0.1,0-0.2,0-0.3,0c-5.2-0.8-10.6-1.5-15.8-2.2c-1.1-0.1-1.9-1.2-1.7-2.2
	c0.1-1.1,1.2-1.9,2.2-1.7c5.3,0.7,10.6,1.5,15.9,2.2c1.1,0.2,1.8,1.2,1.7,2.3C689.3,14.8,688.5,15.5,687.5,15.5z M663.7,12.3
	c-0.1,0-0.2,0-0.3,0c-5.2-0.7-10.6-1.3-15.9-1.9c-1.1-0.1-1.9-1.1-1.8-2.2s1.1-1.9,2.2-1.8c5.3,0.6,10.7,1.2,15.9,1.9
	c1.1,0.1,1.9,1.1,1.7,2.2C665.6,11.5,664.7,12.3,663.7,12.3z M639.8,9.6c-0.1,0-0.1,0-0.2,0c-5.3-0.5-10.6-1-15.9-1.5
	c-1.1-0.1-1.9-1.1-1.8-2.2c0.1-1.1,1.1-1.9,2.2-1.8c5.3,0.5,10.7,1,16,1.5c1.1,0.1,1.9,1.1,1.8,2.2C641.7,8.8,640.9,9.6,639.8,9.6z
	 M615.9,7.4c-0.1,0-0.1,0-0.2,0c-5.3-0.4-10.6-0.8-15.9-1.1c-1.1-0.1-1.9-1-1.9-2.1c0.1-1.1,1-1.9,2.1-1.9c5.3,0.3,10.7,0.7,16,1.1
	c1.1,0.1,1.9,1,1.8,2.2C617.8,6.6,617,7.4,615.9,7.4z M592,5.8c0,0-0.1,0-0.1,0c-5.3-0.3-10.7-0.6-16-0.8c-1.1,0-2-1-1.9-2.1
	c0-1.1,1-2,2.1-1.9c5.3,0.2,10.7,0.5,16,0.8c1.1,0.1,1.9,1,1.9,2.1C593.9,5,593,5.8,592,5.8z"/>
<path class="st6" d="M923.8,81.2h-15c-1.1,0-2-0.9-2-2s0.9-2,2-2h10.9l-7.5-9.8c-0.7-0.9-0.5-2.1,0.4-2.8c0.9-0.7,2.1-0.5,2.8,0.4
	l10,13c0.5,0.6,0.5,1.4,0.2,2.1C925.3,80.8,924.6,81.2,923.8,81.2z"/>
<g>
	<path class="st6" d="M650.2,351.7c0,0-0.1,0-0.1,0c-2.7-0.2-5.4-0.4-8-0.6c-1.1-0.1-1.9-1-1.8-2.2c0.1-1.1,1-1.9,2.2-1.8
		c2.6,0.2,5.3,0.4,8,0.6c1.1,0.1,1.9,1,1.9,2.1C652.1,350.9,651.2,351.7,650.2,351.7z"/>
	<path class="st6" d="M634.4,350.5c-0.1,0-0.1,0-0.2,0c-5.2-0.5-10.4-1-15.6-1.6c-1.1-0.1-1.9-1.1-1.7-2.2c0.1-1.1,1.1-1.9,2.2-1.7
		c5.1,0.6,10.3,1.2,15.5,1.6c1.1,0.1,1.9,1.1,1.8,2.2C636.3,349.7,635.4,350.5,634.4,350.5z M611.1,347.9c-0.1,0-0.2,0-0.3,0
		c-5.2-0.7-10.4-1.5-15.5-2.3c-1.1-0.2-1.8-1.2-1.7-2.3c0.2-1.1,1.2-1.8,2.3-1.7c5.1,0.8,10.2,1.6,15.4,2.3c1.1,0.1,1.9,1.2,1.7,2.2
		C613,347.2,612.1,347.9,611.1,347.9z M588,344.3c-0.1,0-0.2,0-0.4,0c-5.1-0.9-10.3-1.9-15.4-3c-1.1-0.2-1.8-1.3-1.6-2.4
		c0.2-1.1,1.3-1.8,2.4-1.6c5.1,1.1,10.2,2,15.3,2.9c1.1,0.2,1.8,1.2,1.6,2.3C589.8,343.6,589,344.3,588,344.3z M565.1,339.7
		c-0.1,0-0.3,0-0.4,0c-5-1.1-10.2-2.3-15.2-3.6c-1.1-0.3-1.7-1.4-1.4-2.4c0.3-1.1,1.4-1.7,2.4-1.4c5,1.3,10.1,2.5,15.1,3.6
		c1.1,0.2,1.8,1.3,1.5,2.4C566.8,339,566,339.7,565.1,339.7z M542.4,334.1c-0.2,0-0.3,0-0.5-0.1c-5-1.3-10-2.8-15.1-4.3
		c-1.1-0.3-1.7-1.4-1.3-2.5c0.3-1.1,1.4-1.7,2.5-1.3c5,1.5,10,2.9,14.9,4.2c1.1,0.3,1.7,1.4,1.4,2.5
		C544.1,333.5,543.3,334.1,542.4,334.1z M519.9,327.6c-0.2,0-0.4,0-0.6-0.1c-4.9-1.5-9.9-3.2-14.9-4.9c-1-0.4-1.6-1.5-1.2-2.5
		c0.4-1,1.5-1.6,2.5-1.2c4.9,1.7,9.9,3.3,14.8,4.8c1.1,0.3,1.6,1.5,1.3,2.5C521.6,327,520.8,327.6,519.9,327.6z M497.8,320.2
		c-0.2,0-0.4,0-0.7-0.1c-4.8-1.7-9.8-3.5-14.7-5.4c-1-0.4-1.5-1.5-1.2-2.6c0.4-1,1.6-1.5,2.6-1.2c4.9,1.9,9.8,3.7,14.6,5.4
		c1,0.4,1.6,1.5,1.2,2.6C499.4,319.6,498.6,320.2,497.8,320.2z"/>
	<path class="st6" d="M475.9,311.9c-0.2,0-0.5,0-0.7-0.1c-2.5-1-5-2-7.4-3c-1-0.4-1.5-1.6-1.1-2.6c0.4-1,1.6-1.5,2.6-1.1
		c2.5,1,4.9,2,7.4,3c1,0.4,1.5,1.6,1.1,2.6C477.4,311.5,476.7,311.9,475.9,311.9z"/>
</g>
<path class="st6" d="M742,350.7c-1,0-1.9-0.8-2-1.9c-0.1-1.1,0.7-2.1,1.8-2.1c5.3-0.4,10.6-0.8,15.9-1.4c1.1-0.1,2.1,0.7,2.2,1.8
	c0.1,1.1-0.7,2.1-1.8,2.2c-5.3,0.5-10.7,1-16,1.4C742.1,350.7,742,350.7,742,350.7z M765.8,348.5c-1,0-1.9-0.8-2-1.8
	c-0.1-1.1,0.7-2.1,1.8-2.2c5.3-0.6,10.6-1.3,15.8-2c1.1-0.2,2.1,0.6,2.3,1.7c0.2,1.1-0.6,2.1-1.7,2.3c-5.3,0.7-10.6,1.4-15.9,2
	C766,348.5,765.9,348.5,765.8,348.5z M789.6,345.3c-1,0-1.8-0.7-2-1.7c-0.2-1.1,0.6-2.1,1.7-2.3c5.2-0.8,10.5-1.7,15.7-2.6
	c1.1-0.2,2.1,0.5,2.3,1.6c0.2,1.1-0.5,2.1-1.6,2.3c-5.3,1-10.6,1.8-15.8,2.7C789.8,345.3,789.7,345.3,789.6,345.3z M813.3,341.2
	c-0.9,0-1.8-0.7-2-1.6c-0.2-1.1,0.5-2.1,1.6-2.3c5.2-1,10.4-2.1,15.6-3.3c1.1-0.2,2.1,0.4,2.4,1.5c0.2,1.1-0.4,2.1-1.5,2.4
	c-5.2,1.2-10.5,2.3-15.7,3.3C813.5,341.2,813.4,341.2,813.3,341.2z M836.7,336.1c-0.9,0-1.7-0.6-1.9-1.5c-0.3-1.1,0.4-2.2,1.5-2.4
	c5.2-1.2,10.4-2.5,15.5-3.9c1.1-0.3,2.2,0.4,2.4,1.4c0.3,1.1-0.3,2.2-1.4,2.4c-5.1,1.4-10.4,2.7-15.6,3.9
	C837,336.1,836.9,336.1,836.7,336.1z M859.9,330.1c-0.9,0-1.7-0.6-1.9-1.5c-0.3-1.1,0.3-2.2,1.4-2.5c5.1-1.4,10.2-3,15.3-4.5
	c1-0.3,2.2,0.3,2.5,1.3c0.3,1.1-0.3,2.2-1.3,2.5c-5.1,1.6-10.3,3.1-15.4,4.6C860.3,330.1,860.1,330.1,859.9,330.1z M882.9,323.1
	c-0.8,0-1.6-0.5-1.9-1.4c-0.3-1,0.2-2.2,1.3-2.5c5-1.6,10.1-3.4,15.1-5.1c1-0.4,2.2,0.2,2.6,1.2c0.4,1-0.2,2.2-1.2,2.6
	c-5,1.8-10.1,3.5-15.2,5.2C883.3,323.1,883.1,323.1,882.9,323.1z M905.5,315.2c-0.8,0-1.6-0.5-1.9-1.3c-0.4-1,0.1-2.2,1.2-2.6
	c5-1.8,10-3.8,14.9-5.7c1-0.4,2.2,0.1,2.6,1.1c0.4,1-0.1,2.2-1.1,2.6c-4.9,2-10,3.9-15,5.8C906,315.2,905.8,315.2,905.5,315.2z"/>
<path class="st6" d="M904,180.2H804c-1.1,0-2-0.9-2-2s0.9-2,2-2h100c1.1,0,2,0.9,2,2S905.1,180.2,904,180.2z"/>
<path class="st6" d="M900,188.2c-0.5,0-1-0.2-1.4-0.6c-0.8-0.8-0.8-2,0-2.8l6.6-6.6l-6.6-6.6c-0.8-0.8-0.8-2,0-2.8s2-0.8,2.8,0l8,8
	c0.8,0.8,0.8,2,0,2.8l-8,8C901,188,900.5,188.2,900,188.2z"/>
<g>
	<path class="st5" d="M665.3,351.7c0.6,0,1-0.3,1.2-2l0.5-3.7h6.6v5.6h0.8v4.1H672v-2h-4.2v2h-2.5V351.7z M668.9,349.8
		c-0.1,0.8-0.4,1.4-0.8,1.8h3v-3.4h-2L668.9,349.8z"/>
	<path class="st5" d="M680.2,353.7V353c-0.5,0.6-1.4,1-2.4,1c-1.2,0-2.7-0.8-2.7-2.5c0-1.9,1.5-2.5,2.7-2.5c1,0,1.9,0.3,2.4,0.9
		v-0.9c0-0.7-0.6-1.1-1.6-1.1c-0.8,0-1.6,0.3-2.2,0.8l-0.9-1.6c1-0.8,2.3-1.2,3.5-1.2c1.9,0,3.6,0.7,3.6,3.1v4.8H680.2z
		 M680.2,351.7v-0.7c-0.3-0.4-0.8-0.5-1.4-0.5c-0.7,0-1.2,0.3-1.2,0.9c0,0.6,0.6,0.9,1.2,0.9C679.3,352.3,679.9,352.1,680.2,351.7z"
		/>
	<path class="st5" d="M684.4,353.7V346h2.5v2.7h2.8V346h2.5v7.7h-2.5v-2.9h-2.8v2.9H684.4z"/>
	<path class="st5" d="M693.9,353.7V346h2.5v2.7h2.8V346h2.5v7.7h-2.5v-2.9h-2.8v2.9H693.9z"/>
	<path class="st5" d="M705.9,346v2.5h2.5c1.9,0,2.8,1.2,2.8,2.6c0,1.4-1,2.6-2.8,2.6h-5V346H705.9z M705.9,350.5v1.3h2.1
		c0.5,0,0.8-0.3,0.8-0.6s-0.3-0.6-0.8-0.6H705.9z M712.1,353.7V346h2.5v7.7H712.1z"/>
	<path class="st5" d="M715.8,349.9c0-2.2,1.7-4,4.1-4c2.3,0,4,1.7,4,4.3v0.5h-5.5c0.1,0.7,0.8,1.4,1.9,1.4c0.5,0,1.5-0.2,1.9-0.7
		l1,1.5c-0.8,0.7-2,1-3.2,1C717.6,353.9,715.8,352.4,715.8,349.9z M719.9,347.7c-1.1,0-1.5,0.8-1.6,1.3h3.2
		C721.5,348.5,721.1,347.7,719.9,347.7z"/>
</g>
<g>
	<path class="st5" d="M507.2,5.7c0.6,0,1-0.3,1.2-2l0.5-3.7h6.6v5.6h0.8v4.1h-2.5v-2h-4.2v2h-2.5V5.7z M510.9,3.8
		c-0.1,0.8-0.4,1.4-0.8,1.8h3V2.1h-2L510.9,3.8z"/>
	<path class="st5" d="M522.1,7.7V7c-0.5,0.6-1.4,1-2.4,1c-1.2,0-2.7-0.8-2.7-2.5c0-1.9,1.5-2.5,2.7-2.5c1,0,1.9,0.3,2.4,0.9V2.9
		c0-0.7-0.6-1.1-1.6-1.1c-0.8,0-1.6,0.3-2.2,0.8L517.4,1c1-0.8,2.3-1.2,3.5-1.2c1.9,0,3.6,0.7,3.6,3.1v4.8H522.1z M522.1,5.7V5.1
		c-0.3-0.4-0.8-0.5-1.4-0.5c-0.7,0-1.2,0.3-1.2,0.9c0,0.6,0.6,0.9,1.2,0.9C521.3,6.3,521.8,6.1,522.1,5.7z"/>
	<path class="st5" d="M526.3,7.7V0h2.5v2.7h2.8V0h2.5v7.7h-2.5V4.8h-2.8v2.9H526.3z"/>
	<path class="st5" d="M535.8,7.7V0h2.5v2.7h2.8V0h2.5v7.7h-2.5V4.8h-2.8v2.9H535.8z"/>
	<path class="st5" d="M547.8,0v2.5h2.5c1.9,0,2.8,1.2,2.8,2.6c0,1.4-1,2.6-2.8,2.6h-5V0H547.8z M547.8,4.5v1.3h2.1
		c0.5,0,0.8-0.3,0.8-0.6s-0.3-0.6-0.8-0.6H547.8z M554,7.7V0h2.5v7.7H554z"/>
	<path class="st5" d="M557.7,3.9c0-2.2,1.7-4,4.1-4c2.3,0,4,1.7,4,4.3v0.5h-5.5c0.1,0.7,0.8,1.4,1.9,1.4c0.5,0,1.5-0.2,1.9-0.7
		l1,1.5c-0.8,0.7-2,1-3.2,1C559.6,7.9,557.7,6.4,557.7,3.9z M561.8,1.7c-1.1,0-1.5,0.8-1.6,1.3h3.2C563.4,2.5,563,1.7,561.8,1.7z"/>
</g>
<g>
	<path class="st5" d="M187.8,163.2v-5.6H185v5.6h-2.5v-7.7h7.7v7.7H187.8z"/>
	<path class="st5" d="M191.5,159.4c0-2.2,1.6-4,4.2-4c2.7,0,4.2,1.9,4.2,4c0,2.2-1.6,4.1-4.2,4.1
		C193.1,163.4,191.5,161.5,191.5,159.4z M197.4,159.4c0-1-0.6-1.9-1.7-1.9c-1.1,0-1.7,0.8-1.7,1.9c0,1,0.6,1.9,1.7,1.9
		C196.8,161.2,197.4,160.4,197.4,159.4z"/>
	<path class="st5" d="M200.7,159.4c0-2.4,1.8-4,4.2-4c1.7,0,2.7,0.7,3.2,1.4l-1.6,1.5c-0.3-0.4-0.8-0.7-1.5-0.7
		c-1,0-1.8,0.7-1.8,1.9c0,1.2,0.8,1.9,1.8,1.9c0.7,0,1.2-0.3,1.5-0.8l1.6,1.5c-0.5,0.7-1.5,1.4-3.2,1.4
		C202.5,163.4,200.7,161.8,200.7,159.4z"/>
	<path class="st5" d="M208.7,159.4c0-2.2,1.7-4,4.1-4c2.3,0,4,1.7,4,4.3v0.5h-5.5c0.1,0.7,0.8,1.4,1.9,1.4c0.5,0,1.5-0.2,1.9-0.7
		l1,1.5c-0.8,0.7-2,1-3.2,1C210.6,163.4,208.7,161.9,208.7,159.4z M212.8,157.2c-1.1,0-1.5,0.8-1.6,1.3h3.2
		C214.4,158,214,157.2,212.8,157.2z"/>
	<path class="st5" d="M219.5,163.2v-5.6h-2.1v-2.1h6.7v2.1h-2.1v5.6H219.5z"/>
	<path class="st5" d="M225.2,163.2v-7.7h2.5v4l2.8-4h2.5v7.7h-2.5V159l-2.9,4.3H225.2z"/>
	<path class="st5" d="M236.1,163.2v-5.6H234v-2.1h6.7v2.1h-2.1v5.6H236.1z"/>
	<path class="st5" d="M241.3,159.4c0-2.2,1.7-4,4.1-4c2.3,0,4,1.7,4,4.3v0.5h-5.5c0.1,0.7,0.8,1.4,1.9,1.4c0.5,0,1.5-0.2,1.9-0.7
		l1,1.5c-0.8,0.7-2,1-3.2,1C243.2,163.4,241.3,161.9,241.3,159.4z M245.5,157.2c-1.1,0-1.5,0.8-1.6,1.3h3.2
		C247,158,246.6,157.2,245.5,157.2z"/>
	<path class="st5" d="M250,161.4c0.6,0,1-0.5,1.2-2.2l0.5-3.7h6.6v7.7h-2.5v-5.6h-2l-0.2,1.9c-0.3,2.5-1.3,3.9-3.6,3.9V161.4z"/>
	<path class="st5" d="M260.1,163.2v-7.7h2.5v4l2.8-4h2.5v7.7h-2.5V159l-2.9,4.3H260.1z"/>
</g>
<g>
	<path class="st5" d="M822.7,161.2c0.6,0,1-0.3,1.2-2l0.5-3.7h6.6v5.6h0.8v4.1h-2.5v-2h-4.2v2h-2.5V161.2z M826.3,159.3
		c-0.1,0.8-0.4,1.4-0.8,1.8h3v-3.4h-2L826.3,159.3z"/>
	<path class="st5" d="M837.5,163.2v-0.8c-0.5,0.6-1.4,1-2.4,1c-1.2,0-2.7-0.8-2.7-2.5c0-1.9,1.5-2.5,2.7-2.5c1,0,1.9,0.3,2.4,0.9
		v-0.9c0-0.7-0.6-1.1-1.6-1.1c-0.8,0-1.6,0.3-2.2,0.8l-0.9-1.6c1-0.8,2.3-1.2,3.5-1.2c1.9,0,3.6,0.7,3.6,3.1v4.8H837.5z
		 M837.5,161.2v-0.7c-0.3-0.4-0.8-0.5-1.4-0.5c-0.7,0-1.2,0.3-1.2,0.9c0,0.6,0.6,0.9,1.2,0.9C836.7,161.8,837.3,161.6,837.5,161.2z"
		/>
	<path class="st5" d="M841.8,163.2v-7.7h2.5v2.7h2.8v-2.7h2.5v7.7H847v-2.9h-2.8v2.9H841.8z"/>
	<path class="st5" d="M851.3,163.2v-7.7h2.5v2.7h2.8v-2.7h2.5v7.7h-2.5v-2.9h-2.8v2.9H851.3z"/>
	<path class="st5" d="M863.2,155.5v2.5h2.5c1.9,0,2.8,1.2,2.8,2.6c0,1.4-1,2.6-2.8,2.6h-5v-7.7H863.2z M863.2,160v1.3h2.1
		c0.5,0,0.8-0.3,0.8-0.6s-0.3-0.6-0.8-0.6H863.2z M869.4,163.2v-7.7h2.5v7.7H869.4z"/>
	<path class="st5" d="M873.1,159.4c0-2.2,1.7-4,4.1-4c2.3,0,4,1.7,4,4.3v0.5h-5.5c0.1,0.7,0.8,1.4,1.9,1.4c0.5,0,1.5-0.2,1.9-0.7
		l1,1.5c-0.8,0.7-2,1-3.2,1C875,163.4,873.1,161.9,873.1,159.4z M877.3,157.2c-1.1,0-1.5,0.8-1.6,1.3h3.2
		C878.8,158,878.4,157.2,877.3,157.2z"/>
</g>
<g>
	<path class="st5" d="M516,161.4c0.6,0,1-0.5,1.2-2.2l0.5-3.7h6.6v7.7h-2.5v-5.6h-2l-0.2,1.9c-0.3,2.5-1.3,3.9-3.6,3.9V161.4z"/>
	<path class="st5" d="M526.1,163.2v-7.7h2.5v4l2.8-4h2.5v7.7h-2.5V159l-2.9,4.3H526.1z"/>
	<path class="st5" d="M535,161.2c0.6,0,1-0.3,1.2-2l0.5-3.7h6.6v5.6h0.8v4.1h-2.5v-2h-4.2v2H535V161.2z M538.6,159.3
		c-0.1,0.8-0.4,1.4-0.8,1.8h3v-3.4h-2L538.6,159.3z"/>
	<path class="st5" d="M547.8,155.5v2.5h2.5c1.9,0,2.8,1.2,2.8,2.6c0,1.4-1,2.6-2.8,2.6h-5v-7.7H547.8z M547.8,160v1.3h2.1
		c0.5,0,0.8-0.3,0.8-0.6s-0.3-0.6-0.8-0.6H547.8z M554,163.2v-7.7h2.5v7.7H554z"/>
</g>
<path class="st6" d="M914.5,319.3c-0.4,0-0.9-0.1-1.2-0.4c-0.9-0.7-1-1.9-0.3-2.8l6.7-8.6l-12.3-0.1c-1.1,0-2-0.9-2-2
	c0-1.1,0.9-2,2-2c0,0,0,0,0,0l16.4,0.1c0.8,0,1.5,0.4,1.8,1.1s0.2,1.5-0.2,2.1l-9.2,11.8C915.7,319,915.1,319.3,914.5,319.3z"/>
<path class="st6" d="M585,180.2H485c-1.1,0-2-0.9-2-2s0.9-2,2-2h100c1.1,0,2,0.9,2,2S586.1,180.2,585,180.2z"/>
<path class="st6" d="M581,188.2c-0.5,0-1-0.2-1.4-0.6c-0.8-0.8-0.8-2,0-2.8l6.6-6.6l-6.6-6.6c-0.8-0.8-0.8-2,0-2.8s2-0.8,2.8,0l8,8
	c0.8,0.8,0.8,2,0,2.8l-8,8C582,188,581.5,188.2,581,188.2z"/>
<path class="st6" d="M278,180.2H178c-1.1,0-2-0.9-2-2s0.9-2,2-2h100c1.1,0,2,0.9,2,2S279.1,180.2,278,180.2z"/>
<path class="st6" d="M274,188.2c-0.5,0-1-0.2-1.4-0.6c-0.8-0.8-0.8-2,0-2.8l6.6-6.6l-6.6-6.6c-0.8-0.8-0.8-2,0-2.8
	c0.8-0.8,2-0.8,2.8,0l8,8c0.8,0.8,0.8,2,0,2.8l-8,8C275,188,274.5,188.2,274,188.2z"/>
</svg>
