<?xml version="1.0" encoding="utf-8"?>
<!-- Generator: Adobe Illustrator 17.1.0, SVG Export Plug-In . SVG Version: 6.00 Build 0)  -->
<!DOCTYPE svg PUBLIC "-//W3C//DTD SVG 1.1//EN" "http://www.w3.org/Graphics/SVG/1.1/DTD/svg11.dtd">
<svg version="1.1" id="Layer_1" xmlns="http://www.w3.org/2000/svg" xmlns:xlink="http://www.w3.org/1999/xlink" x="0px" y="0px"
	 viewBox="0 0 128 128" style="enable-background:new 0 0 128 128;" xml:space="preserve">
<style type="text/css">
	.st0{fill:#FF614A;}
</style>
<path class="st0" d="M102,96c-1.1,0-2,0.9-2,2v4H4V58c0-2.2,1.8-4,4-4h38c1.1,0,2-0.9,2-2s-0.9-2-2-2H8c-4.4,0-8,3.6-8,8v52
	c0,4.4,3.6,8,8,8h31.6l-1.2,6H30c-1.1,0-2,0.9-2,2s0.9,2,2,2h7.6h28.9H74c1.1,0,2-0.9,2-2s-0.9-2-2-2h-8.4l-1.2-6H96
	c4.4,0,8-3.6,8-8V98C104,96.9,103.1,96,102,96z M61.6,124H42.4l1.2-6h16.7L61.6,124z M96,114H63.6H40.4H8c-2.2,0-4-1.8-4-4v-4h96v4
	C100,112.2,98.2,114,96,114z M122,0H58c-3.3,0-6,2.7-6,6v47c0,1.1,0.9,2,2,2s2-0.9,2-2V36h68v50c0,1.1-0.9,2-2,2h-18H58
	c-1.1,0-2-0.9-2-2V73c0-1.1-0.9-2-2-2s-2,0.9-2,2v13c0,3.3,2.7,6,6,6h46h18c3.3,0,6-2.7,6-6V6C128,2.7,125.3,0,122,0z M58,4h64
	c1.1,0,2,0.9,2,2v10H56V6C56,4.9,56.9,4,58,4z M56,32V20h68v12H56z M35,79.2L68.2,46H65c-1.1,0-2-0.9-2-2s0.9-2,2-2h8
	c1.1,0,2,0.9,2,2v8c0,1.1-0.9,2-2,2s-2-0.9-2-2v-3.2L37.8,82H41c1.1,0,2,0.9,2,2s-0.9,2-2,2h-8c-1.1,0-2-0.9-2-2v-8c0-1.1,0.9-2,2-2
	s2,0.9,2,2V79.2z M116,26c0,1.1-0.9,2-2,2H66c-1.1,0-2-0.9-2-2s0.9-2,2-2h48C115.1,24,116,24.9,116,26z M60,10c0-1.1,0.9-2,2-2h8
	c1.1,0,2,0.9,2,2s-0.9,2-2,2h-8C60.9,12,60,11.1,60,10z M112,10c0-1.1,0.9-2,2-2h4c1.1,0,2,0.9,2,2s-0.9,2-2,2h-4
	C112.9,12,112,11.1,112,10z M102,10c0-1.1,0.9-2,2-2h4c1.1,0,2,0.9,2,2s-0.9,2-2,2h-4C102.9,12,102,11.1,102,10z M92,10
	c0-1.1,0.9-2,2-2h4c1.1,0,2,0.9,2,2s-0.9,2-2,2h-4C92.9,12,92,11.1,92,10z M118,42H82v12h36V42z M114,50H86v-4h28V50z M82,62
	c0-1.1,0.9-2,2-2h32c1.1,0,2,0.9,2,2s-0.9,2-2,2H84C82.9,64,82,63.1,82,62z M82,70c0-1.1,0.9-2,2-2h32c1.1,0,2,0.9,2,2s-0.9,2-2,2
	H84C82.9,72,82,71.1,82,70z M82,78c0-1.1,0.9-2,2-2h22c1.1,0,2,0.9,2,2s-0.9,2-2,2H84C82.9,80,82,79.1,82,78z M69,64
	c-4.4,0-8,3.6-8,8s3.6,8,8,8s8-3.6,8-8S73.4,64,69,64z M69,76c-2.2,0-4-1.8-4-4s1.8-4,4-4s4,1.8,4,4S71.2,76,69,76z"/>
</svg>
