<svg xmlns="http://www.w3.org/2000/svg" width="50" height="50" viewBox="0 0 50 50"><g><g><path d="M24.948 0c-1.875 0-3.698.208-5.417.625L19.583 25c0 2.969 2.448 5.417 5.417 5.417s5.417-2.448 5.417-5.417c0-2.865-2.24-5.208-5.052-5.417v-4.375c5.208.209 9.427 4.48 9.427 9.74 0 5.364-4.375 9.792-9.74 9.792s-9.792-4.375-9.792-9.792l-.052-22.969c-.625.26-1.198.573-1.823.886l.052 22.187c0 6.406 5.209 11.563 11.615 11.563 6.406 0 11.563-5.209 11.563-11.615 0-6.25-5-11.406-11.25-11.562V9.115c8.593.156 15.572 7.24 15.572 15.885 0 8.802-7.135 15.938-15.937 15.938S9.062 33.801 9.062 25V5.73C3.49 10.311 0 17.291 0 25.051 0 38.854 11.25 50 25.052 50S50 38.75 50 24.948 38.802 0 24.948 0z"/></g></g></svg>