<svg xmlns="http://www.w3.org/2000/svg" width="50" height="55" viewBox="0 0 50 55"><g><g><g><path d="M40.892 48.366H9.114a1.275 1.275 0 0 1-1.271-1.28V40.69c0-.706.569-1.28 1.27-1.28H40.89c.702 0 1.272.572 1.272 1.28v6.396c0 .706-.567 1.28-1.27 1.28zm7.94-15.028l-6.354-5.116a2.519 2.519 0 0 0-1.587-.56h-3.54l.452 2.829a3.848 3.848 0 0 1-1.58 3.753 3.783 3.783 0 0 1-2.184.692c-.641 0-1.283-.162-1.864-.489l-7.171-4.045-7.171 4.043a3.787 3.787 0 0 1-4.047-.203 3.845 3.845 0 0 1-1.58-3.754l.452-2.828H9.117c-.578 0-1.138.198-1.589.56l-6.355 5.116a2.566 2.566 0 0 0-.953 1.997V52.44A2.551 2.551 0 0 0 2.762 55h44.482a2.552 2.552 0 0 0 2.543-2.56V35.333a2.564 2.564 0 0 0-.954-1.995z"/></g><g><path d="M21.928 13.145l.707-.152c2.122-.464 1.529-2.658 3.155-2.658.61 0 1.108.266 1.108 1.307v10.944c0 1.002-.383 1.694-1.452 1.694-1.07 0-1.453-.692-1.453-1.694v-7.32h-2.466c-.631 0-.976-.23-.976-1.021-.001-.713.382-.908 1.377-1.1zm-5.597 7.594l-1.624 10.155c-.078.484.127.969.527 1.25s.923.308 1.348.068l8.413-4.742 8.413 4.742a1.261 1.261 0 0 0 1.349-.066c.4-.28.606-.764.527-1.249l-1.625-10.156 6.869-7.182c.329-.344.44-.843.288-1.295a1.275 1.275 0 0 0-1.01-.856L30.38 9.935 26.15.742A1.273 1.273 0 0 0 24.996 0c-.494 0-.945.29-1.153.742l-4.23 9.193-9.427 1.47a1.275 1.275 0 0 0-1.01.855c-.15.452-.04.952.289 1.296z"/></g></g></g></svg>