<svg width="104" height="36" viewBox="0 0 104 36" fill="none" xmlns="http://www.w3.org/2000/svg">
<g filter="url(#filter0_d)">
<path d="M11.68 33.48C8.18667 33.48 5.69333 32.5867 4.2 30.8C2.70667 28.9867 1.96 26.32 1.96 22.8V10.76C1.96 7.24 2.70667 4.6 4.2 2.84C5.69333 1.05333 8.18667 0.159998 11.68 0.159998C15.2 0.159998 17.7067 1.05333 19.2 2.84C20.72 4.62667 21.48 7.26666 21.48 10.76V22.8C21.48 26.32 20.72 28.9867 19.2 30.8C17.7067 32.5867 15.2 33.48 11.68 33.48ZM11.68 28.4C12.6933 28.4 13.36 28.0667 13.68 27.4C14 26.7067 14.16 25.7733 14.16 24.6V9C14.16 7.8 14 6.86667 13.68 6.2C13.36 5.53333 12.6933 5.2 11.68 5.2C10.72 5.2 10.08 5.54666 9.76 6.24C9.44 6.90666 9.28 7.82666 9.28 9V24.6C9.28 25.7733 9.42667 26.7067 9.72 27.4C10.0133 28.0667 10.6667 28.4 11.68 28.4ZM29.5575 33.4C28.1708 33.4 27.1042 32.9067 26.3575 31.92C25.6108 30.9067 25.2375 29.6 25.2375 28V9.88H31.7575V27.24C31.7575 27.8267 31.8642 28.2667 32.0775 28.56C32.2908 28.8533 32.6375 29 33.1175 29C33.5442 29 34.1842 28.76 35.0375 28.28V9.88H41.5175V33H35.0375V30.88C33.2242 32.56 31.3975 33.4 29.5575 33.4ZM45.7138 9.88H52.2338V13.72C53.0338 12.3067 53.8071 11.2667 54.5538 10.6C55.3004 9.93333 56.1804 9.6 57.1938 9.6C57.5671 9.6 57.9004 9.64 58.1938 9.72V16.2C57.3938 15.88 56.6871 15.72 56.0738 15.72C54.6604 15.72 53.3804 16.4667 52.2338 17.96V33H45.7138V9.88ZM72.4263 33.4C70.7729 33.4 69.1196 32.68 67.4663 31.24V33H60.9463V0.599998H67.4663V11.56C68.2396 10.8667 69.0663 10.3467 69.9463 10C70.8263 9.65333 71.6796 9.48 72.5063 9.48C74.1863 9.48 75.4263 10.1067 76.2263 11.36C77.0529 12.6133 77.4663 14.2533 77.4663 16.28V26.24C77.4663 28.4533 77.0263 30.2 76.1463 31.48C75.2663 32.76 74.0263 33.4 72.4263 33.4ZM69.2663 29.2C69.8529 29.2 70.2796 28.96 70.5463 28.48C70.8129 28 70.9463 27.3733 70.9463 26.6V15.8C70.9463 15.08 70.8129 14.5067 70.5463 14.08C70.3063 13.6267 69.9063 13.4 69.3463 13.4C68.7329 13.4 68.1063 13.6533 67.4663 14.16V28.56C68.0529 28.9867 68.6529 29.2 69.2663 29.2ZM81.1806 1.44H87.7406V5.96H81.1806V1.44ZM81.2206 9.88H87.7406V33H81.2206V9.88ZM98.9266 33.24C97.2199 33.24 95.8999 33 94.9666 32.52C94.0332 32.0133 93.3799 31.2933 93.0066 30.36C92.6332 29.4267 92.4466 28.2133 92.4466 26.72V14.16H90.2066V9.88H92.4466V2.84H99.0466V9.88H102.327V14.16H99.0466V26.08C99.0466 26.72 99.2199 27.2 99.5666 27.52C99.9399 27.8133 100.447 27.96 101.087 27.96C101.62 27.96 102.207 27.9067 102.847 27.8V32.92C101.567 33.1333 100.26 33.24 98.9266 33.24Z" fill="black"/>
</g>
<defs>
<filter id="filter0_d" x="0.960007" y="0.160004" width="102.887" height="35.32" filterUnits="userSpaceOnUse" color-interpolation-filters="sRGB">
<feFlood flood-opacity="0" result="BackgroundImageFix"/>
<feColorMatrix in="SourceAlpha" type="matrix" values="0 0 0 0 0 0 0 0 0 0 0 0 0 0 0 0 0 0 127 0"/>
<feOffset dy="1"/>
<feGaussianBlur stdDeviation="0.5"/>
<feColorMatrix type="matrix" values="0 0 0 0 0 0 0 0 0 0 0 0 0 0 0 0 0 0 0.08 0"/>
<feBlend mode="normal" in2="BackgroundImageFix" result="effect1_dropShadow"/>
<feBlend mode="normal" in="SourceGraphic" in2="effect1_dropShadow" result="shape"/>
</filter>
</defs>
</svg>
