<svg xmlns="http://www.w3.org/2000/svg" width="57" height="57" viewBox="0 0 57 57"><g><g><g><path fill="#ff6147" d="M50.618 24.875l-2.077 1.314-3.392-2.04-3.391-2.038.192-2.453a7.502 7.502 0 0 1 4.287-6.19L53.72 9.95l.15 3.255a1.16 1.16 0 0 0-.352.015l-2.832.701a7.114 7.114 0 0 0-5.263 5.372 1.167 1.167 0 0 0 1.142 1.424c.546-.001 1.02-.38 1.14-.914a4.791 4.791 0 0 1 3.54-3.613l2.732-.676.123 2.686a7.478 7.478 0 0 1-1.07 4.213 7.549 7.549 0 0 1-2.413 2.462zM31.873 52.96a3.505 3.505 0 1 1-6.001-3.62l8.82-14.624h.02v-.031l3.223-5.343 3 1.812 3.007 1.806zM11.529 24.637l2.923-1.928 8.6 13.029v12.737L8.6 26.566zM5.3 13.053l1.429 2.164-1.955 1.285-1.756-2.65zm7.263 8.106l-.343.226-4.3 2.834-.396-3.31a1.166 1.166 0 0 0-.185-.503l-1.284-1.95 1.95-1.285 1.284 1.95c.1.151.234.277.39.368zM28.87 3.089l5.638 7.518-4.025 8.052h-.446V14.94a3.503 3.503 0 1 0-2.335 0v3.718h-.446l-4.025-8.052zm0 9.73a1.167 1.167 0 1 1 0-2.334 1.167 1.167 0 0 1 0 2.335zm-1.488 8.175h2.996l1.561 4.681H25.82zm-2.015 24.66V28.002h7.015v6.033zM46.95 27.96l-1.81 3-6.007-3.62 1.811-3zm8.456-20.81a1.158 1.158 0 0 0-1.101-.056l-9.054 4.265a9.836 9.836 0 0 0-5.614 8.118l-.233 2.893-4.691 7.791v-3.327c0-.01-.006-.02-.006-.031a1.157 1.157 0 0 0-.055-.338l-2.183-6.548 4.457-8.91c.196-.396.15-.87-.117-1.223L29.803.441a1.21 1.21 0 0 0-1.868 0l-7.007 9.342a1.169 1.169 0 0 0-.111 1.223l4.457 8.91-2.183 6.548c-.035.11-.054.223-.055.338v4.692L15.76 20.451c-.009-.012-.023-.02-.031-.031a1.182 1.182 0 0 0-.251-.255c-.022-.016-.042-.035-.066-.05-.023-.015-.027-.023-.041-.032l-4.282-2.475-1.777-2.698-2.57-3.9a1.168 1.168 0 0 0-1.36-.46L.836 12.146a1.168 1.168 0 0 0-.584 1.743l3.213 4.877 1.772 2.696.583 4.912a.426.426 0 0 0 .012.047c.005.025.011.05.019.073.026.124.073.243.137.35.009.013.009.028.017.04.008.01 17.366 26.32 17.45 26.392A5.782 5.782 0 0 0 28.862 57c.477 0 .952-.058 1.414-.173a5.802 5.802 0 0 0 3.596-2.653l15.532-25.766 2.452-1.552a9.907 9.907 0 0 0 3.16-3.232 9.807 9.807 0 0 0 1.401-5.523l-.455-9.999a1.168 1.168 0 0 0-.555-.953z"/></g></g></g></svg>