<svg xmlns="http://www.w3.org/2000/svg" width="40" height="40" viewBox="0 0 40 40"><g><g><path fill="#ff6147" d="M35.636 7.273a2.912 2.912 0 0 1-2.909-2.91 2.912 2.912 0 0 1 2.91-2.908 2.912 2.912 0 0 1 2.908 2.909 2.912 2.912 0 0 1-2.909 2.909zm-1.454 22.545a1.456 1.456 0 0 1-2.91 0 1.456 1.456 0 0 1 2.91 0zm-13.096-7.273a4.366 4.366 0 0 1-4.359-4.363 4.366 4.366 0 0 1 4.359-4.364 4.366 4.366 0 0 1 4.359 4.364 4.366 4.366 0 0 1-4.36 4.363zM24 35.636a2.912 2.912 0 0 1-2.91 2.91 2.912 2.912 0 0 1-2.908-2.91 2.912 2.912 0 0 1 2.909-2.909A2.912 2.912 0 0 1 24 35.637zM4.364 37.091a2.912 2.912 0 0 1-2.91-2.91 2.912 2.912 0 0 1 2.91-2.908 2.912 2.912 0 0 1 2.909 2.909 2.912 2.912 0 0 1-2.91 2.909zM8 6.545a1.456 1.456 0 0 1 2.91 0 1.456 1.456 0 0 1-2.91 0zM35.636 0a4.368 4.368 0 0 0-4.363 4.364c0 .752.191 1.46.528 2.08l-7.149 7.148a5.776 5.776 0 0 0-7.123 0L11.95 8.013a2.87 2.87 0 0 0 .413-1.469 2.912 2.912 0 0 0-2.91-2.909 2.912 2.912 0 0 0-2.909 2.91 2.912 2.912 0 0 0 2.91 2.909 2.87 2.87 0 0 0 1.468-.413L16.5 14.62a5.784 5.784 0 0 0 0 7.123l-9.21 9.211a4.343 4.343 0 0 0-2.926-1.136A4.368 4.368 0 0 0 0 34.182a4.368 4.368 0 0 0 4.364 4.363 4.368 4.368 0 0 0 4.363-4.363c0-.753-.191-1.461-.528-2.08l9.33-9.33a5.784 5.784 0 0 0 2.835 1.177v7.39a4.367 4.367 0 0 0-3.636 4.297A4.368 4.368 0 0 0 21.092 40a4.368 4.368 0 0 0 4.363-4.364 4.368 4.368 0 0 0-3.636-4.298V23.95a5.784 5.784 0 0 0 2.835-1.177l5.577 5.577c-.256.434-.413.931-.413 1.47a2.912 2.912 0 0 0 2.91 2.908 2.912 2.912 0 0 0 2.908-2.909 2.912 2.912 0 0 0-2.909-2.909 2.87 2.87 0 0 0-1.468.412l-5.578-5.577a5.784 5.784 0 0 0 0-7.124l7.03-7.029a4.34 4.34 0 0 0 2.925 1.136A4.368 4.368 0 0 0 40 4.364 4.368 4.368 0 0 0 35.636 0z"/></g></g></svg>