<svg xmlns="http://www.w3.org/2000/svg" width="418" height="308" viewBox="0 0 418 308"><g><g><path fill="none" stroke="#5c65b7" stroke-dasharray="3 10" stroke-miterlimit="50" stroke-width="2" d="M4.839 11c-7.527 23.282 42.18 106.57 127.113 102.685 84.932-3.887 180.434-57.738 230.611-7.678 50.178 50.06-.042 79.643-41.163 114.325-41.122 34.682-12.25 91.014 88.825 81.628"/></g><g><path fill="none" stroke="#5c65b7" stroke-miterlimit="50" stroke-width="2" d="M6.091 11.002a4.811 4.811 0 1 0 0-9.622 4.811 4.811 0 0 0 0 9.622z"/></g><g><path fill="none" stroke="#5c65b7" stroke-miterlimit="50" stroke-width="2" d="M411.811 306.492a4.811 4.811 0 1 0 0-9.622 4.811 4.811 0 0 0 0 9.622z"/></g></g></svg>