<svg xmlns="http://www.w3.org/2000/svg" width="60" height="60" viewBox="0 0 60 60"><g><g><g><path fill="#ff6147" d="M41 46a1 1 0 0 0 1-1v-1h1a1 1 0 0 0 0-2h-1v-1a1 1 0 0 0-2 0v1h-1a1 1 0 0 0 0 2h1v1a1 1 0 0 0 1 1z"/></g><g><path fill="#ff6147" d="M55 7a1 1 0 0 0 2 0 1 1 0 0 0 0-2 1 1 0 0 0-2 0 1 1 0 0 0 0 2z"/></g><g><path fill="#ff6147" d="M30 12c-7.72 0-14 6.28-14 14a1 1 0 0 0 2 0c0-6.617 5.383-12 12-12s12 5.383 12 12a1 1 0 0 0 2 0c0-7.72-6.28-14-14-14z"/></g><g><path fill="#ff6147" d="M39 3a1 1 0 0 0 2 0 1 1 0 0 0 0-2 1 1 0 0 0-2 0 1 1 0 0 0 0 2z"/></g><g><path fill="#ff6147" d="M9 27a1 1 0 0 0 1-1c0-11.028 8.972-20 20-20s20 8.972 20 20a1 1 0 0 0 2 0C52 13.869 42.13 4 30 4S8 13.869 8 26a1 1 0 0 0 1 1z"/></g><g><path fill="#ff6147" d="M19.804 37.02a.998.998 0 0 0-.784.784l-.02.097-.02-.097a.998.998 0 0 0-.784-.784l-.097-.02.097-.02a.998.998 0 0 0 .784-.784l.02-.097.02.097a.998.998 0 0 0 .784.784l.097.02zm1.046-1.87l-.87-4.346a.998.998 0 0 0-1.96 0l-.87 4.346-4.346.87a.998.998 0 0 0 0 1.96l4.346.87.87 4.346a.998.998 0 0 0 1.96 0l.87-4.346 4.346-.87a.998.998 0 0 0 0-1.96z"/></g><g><path fill="#ff6147" d="M59 14.995a1 1 0 0 0-1 1v39c0 1.654-1.346 3-3 3H31v-2.3c1.458-.51 5.255-1.7 9-1.7 8.71 0 14.625 1.93 14.685 1.95a1.002 1.002 0 0 0 1.315-.95v-44c0-.4-.238-.761-.606-.918-.089-.038-2.216-.934-6.369-1.28a.992.992 0 0 0-1.079.914 1 1 0 0 0 .913 1.08c2.576.214 4.297.652 5.141.915v41.96c-2.266-.594-7.298-1.67-14-1.67-4.357 0-8.637 1.43-9.961 1.916-1.177-.52-4.735-1.916-9.039-1.916-6.888 0-12.563 1.136-15 1.713v-41.94a59.286 59.286 0 0 1 5.087-1 1 1 0 1 0-.303-1.977c-3.665.563-5.963 1.214-6.059 1.242a1 1 0 0 0-.725.961v44a1.001 1.001 0 0 0 1.274.962c.069-.02 6.984-1.961 15.726-1.961 3.656 0 6.78 1.138 8 1.649v2.35H5c-1.654 0-3-1.345-3-3v-39a1 1 0 0 0-2 0v39c0 2.757 2.243 5 5 5h50c2.757 0 5-2.243 5-5v-39a1 1 0 0 0-1-1z"/></g><g><path fill="#ff6147" d="M9 4h1v1a1 1 0 0 0 2 0V4h1a1 1 0 0 0 0-2h-1V1a1 1 0 0 0-2 0v1H9a1 1 0 0 0 0 2z"/></g><g><path fill="#ff6147" d="M29 17v34a1 1 0 0 0 2 0V17a1 1 0 0 0-2 0z"/></g><g><path fill="#ff6147" d="M47 27a1 1 0 0 0 1-1c0-9.925-8.075-18-18-18s-18 8.075-18 18a1 1 0 0 0 2 0c0-8.822 7.178-16 16-16s16 7.178 16 16a1 1 0 0 0 1 1z"/></g></g></g></svg>