<svg xmlns="http://www.w3.org/2000/svg" width="40" height="40" viewBox="0 0 40 40"><g><g><g><path fill="#ff6147" d="M39.219 19.219h-1.283a17.823 17.823 0 0 0-5.242-11.93 17.823 17.823 0 0 0-11.913-5.24V.78a.781.781 0 1 0-1.562 0V2.05a17.901 17.901 0 0 0-8.623 2.64.781.781 0 1 0 .82 1.33 16.34 16.34 0 0 1 7.803-2.406v2.856a.781.781 0 0 0 1.562 0V3.613c8.423.397 15.202 7.181 15.591 15.606h-2.84a.781.781 0 1 0 0 1.562h2.839c-.405 8.41-7.178 15.178-15.59 15.575V33.53a.781.781 0 0 0-1.562 0v2.825c-8.412-.397-15.185-7.165-15.59-15.575h2.84a.781.781 0 0 0 0-1.562H3.627A16.274 16.274 0 0 1 6.56 10.6a.781.781 0 0 0-1.28-.896 17.828 17.828 0 0 0-3.217 9.514H.78a.781.781 0 1 0 0 1.562h1.284a17.825 17.825 0 0 0 5.24 11.898 17.823 17.823 0 0 0 11.914 5.24v1.3a.781.781 0 1 0 1.562 0v-1.3a17.823 17.823 0 0 0 11.914-5.24 17.825 17.825 0 0 0 5.24-11.898h1.284a.781.781 0 1 0 0-1.562z"/></g><g><path fill="#ff6147" d="M19.028 14.068c0-1.05.418-2.027 1.178-2.753a3.778 3.778 0 0 1 2.81-1.048c1.637.075 3.024 1.218 3.472 2.74a3.82 3.82 0 0 1-.803 3.583 4.232 4.232 0 0 1-1.031.822.79.79 0 0 0-.187 1.202l3.566 3.928c.3.331.526.713.673 1.135a3.262 3.262 0 0 1-.428 2.994 3.26 3.26 0 0 1-2.688 1.387H14.497a6.004 6.004 0 0 1-5.944-5.212c1.958-.001 6.918-.002 9.916 0h.002c.867 0 1.681-.338 2.293-.95.613-.613.95-1.43.95-2.3v-.048c0-.963-.451-1.887-1.209-2.472a3.775 3.775 0 0 1-1.477-3.008zm11.884 2.51a.538.538 0 0 1-.537.408h-3.03c.513-.793.812-1.72.851-2.697a32.04 32.04 0 0 0 2.468 1.661.54.54 0 0 1 .248.629zm-12.44 4.705h-.002c-3.78-.002-10.68 0-10.75 0-.43 0-.78.35-.78.782 0 4.166 3.39 7.556 7.557 7.556H25.59a4.806 4.806 0 0 0 3.962-2.044 4.805 4.805 0 0 0 .63-4.413 4.832 4.832 0 0 0-.993-1.672l-2.671-2.943h3.866c.962 0 1.782-.622 2.042-1.548a2.102 2.102 0 0 0-.94-2.385c-1.465-.893-2.722-1.8-3.74-2.7-.806-1.812-2.591-3.115-4.66-3.21a5.326 5.326 0 0 0-3.96 1.48 5.322 5.322 0 0 0-1.66 3.883c0 1.673.76 3.22 2.084 4.244.377.291.602.753.602 1.235v.048a1.678 1.678 0 0 1-1.68 1.687z"/></g><g><path fill="#ff6147" d="M22.688 13.278c.268.654 1.234.617 1.46-.047.23-.674-.53-1.287-1.14-.922a.788.788 0 0 0-.32.969z"/></g><g><path fill="#ff6147" d="M7.488 7.799a.788.788 0 0 0 1.02.421.787.787 0 0 0 .423-1.02.788.788 0 0 0-1.02-.422.788.788 0 0 0-.423 1.02z"/></g></g></g></svg>