<svg xmlns="http://www.w3.org/2000/svg" width="40" height="40" viewBox="0 0 40 40"><g><g><g><path fill="#ff6147" d="M12.77 17.776h2.103l.054.003.052-.003h9.426c.035.002.07.002.105 0h2.105v19.922H12.77zM1.537 28.197h9.693v9.501H1.538zm18.154-13.514l2.146 1.561h-4.292zm-3.16-3.525a.764.764 0 0 0-.28-.86l-4.306-3.101c-.019-.014-.027-.02-.016-.052.01-.032.02-.032.043-.032h5.315c.334 0 .63-.214.732-.53l1.628-5.019c.007-.022.01-.032.044-.032.034 0 .037.01.044.032l1.629 5.019c.102.316.398.53.732.53h5.314c.023 0 .033 0 .044.032.01.032.002.038-.017.051L23.132 10.3a.765.765 0 0 0-.28.859l1.65 5.022c.007.022.01.032-.017.051-.027.02-.036.014-.054 0l-4.285-3.115a.77.77 0 0 0-.908 0l-4.284 3.115c-.02.014-.028.02-.055 0-.027-.019-.024-.03-.016-.051zm11.622 15.507V17.01a.768.768 0 0 0-.77-.766h-1.34a1.613 1.613 0 0 0-.08-.54l-1.476-4.491 3.852-2.775a1.552 1.552 0 0 0 .579-1.765 1.56 1.56 0 0 0-1.508-1.092h-4.755L21.2 1.093A1.56 1.56 0 0 0 19.692 0c-.7 0-1.292.429-1.508 1.093l-1.456 4.488h-4.755c-.7 0-1.292.428-1.507 1.092a1.552 1.552 0 0 0 .579 1.765l3.851 2.775-1.476 4.49c-.059.18-.084.363-.08.541H12a.768.768 0 0 0-.77.766v9.655H.77a.768.768 0 0 0-.77.766v11.034c0 .423.344.766.77.766h37.845c.425 0 .77-.343.77-.766v-2.452a.768.768 0 0 0-.77-.767.768.768 0 0 0-.77.767v1.685h-9.691v-9.5h9.692v1.685c0 .423.344.766.77.766.424 0 .768-.343.768-.766V27.43a.768.768 0 0 0-.769-.766z"/></g><g><path fill="#ff6147" d="M34.46 2.637c.424 0 .768-.343.768-.766V.766A.768.768 0 0 0 34.46 0a.768.768 0 0 0-.769.766v1.105c0 .423.344.766.77.766z"/></g><g><path fill="#ff6147" d="M34.46 7.667c.424 0 .768-.343.768-.766V5.796a.768.768 0 0 0-.769-.766.768.768 0 0 0-.769.766v1.105c0 .423.344.766.77.766z"/></g><g><path fill="#ff6147" d="M36.43 4.592h1.108c.425 0 .77-.343.77-.766a.768.768 0 0 0-.77-.766h-1.109a.768.768 0 0 0-.769.766c0 .423.344.766.77.766z"/></g><g><path fill="#ff6147" d="M31.39 4.592h1.108c.425 0 .77-.343.77-.766a.768.768 0 0 0-.77-.766h-1.109a.768.768 0 0 0-.769.766c0 .423.344.766.77.766z"/></g><g><path fill="#ff6147" d="M4.92 12.237c.424 0 .768-.343.768-.766v-1.105A.768.768 0 0 0 4.92 9.6a.768.768 0 0 0-.769.766v1.105c0 .423.344.766.77.766z"/></g><g><path fill="#ff6147" d="M4.92 17.267c.424 0 .768-.343.768-.766v-1.105a.768.768 0 0 0-.769-.766.768.768 0 0 0-.769.766v1.105c0 .423.344.766.77.766z"/></g><g><path fill="#ff6147" d="M6.89 14.202h1.108c.425 0 .77-.343.77-.766a.768.768 0 0 0-.77-.766H6.889a.768.768 0 0 0-.769.766c0 .423.344.766.77.766z"/></g><g><path fill="#ff6147" d="M1.85 14.202h1.108c.425 0 .77-.343.77-.766a.768.768 0 0 0-.77-.766H1.849a.768.768 0 0 0-.769.766c0 .423.344.766.77.766z"/></g><g><path fill="#ff6147" d="M38.62 32.18a.77.77 0 0 0-.77.766.77.77 0 0 0 .77.766.77.77 0 0 0 .77-.766.77.77 0 0 0-.77-.766z"/></g></g></g></svg>