<svg xmlns="http://www.w3.org/2000/svg" width="80" height="52" viewBox="0 0 80 52"><g><g><g><path fill="#ff6147" d="M63.044 33.03l4.818-5.021-1.297 4.4a3.01 3.01 0 0 0 .156 2.07l-.297.317a1.082 1.082 0 0 0-.095.115 2.035 2.035 0 0 0-.281 1.849l2.007 8.95h-.564l-4.545-11.078a1.097 1.097 0 0 0-.08-.16 1.18 1.18 0 0 1 .178-1.442zm-1.957-20.159H61.066l-2.333.017a2.396 2.396 0 0 1-1.72-.694 2.404 2.404 0 0 1-.46-.624l17.67-1.158a2.657 2.657 0 0 1 1.952.679c.533.478.846 1.133.884 1.848l.081 9.748-5.683-.077-.328-7.48.913-.007a1.165 1.165 0 0 0-.009-2.329h-.008zM73.65 3.104a1.11 1.11 0 0 1 .564-.644 1.113 1.113 0 0 1 .852-.057l1.005.34c.583.199.897.836.699 1.42l-.86 2.544a1.112 1.112 0 0 1-1.416.7l-1.005-.34a1.12 1.12 0 0 1-.7-1.42zm-.66 30.067a2.908 2.908 0 0 0-.13 1.963l3.031 10.575h-.554L69.191 34.09a.165.165 0 0 0-.01-.017l-.117-.223a1.187 1.187 0 0 0-.127-.192.668.668 0 0 1-.129-.599l2.403-8.123 5.345.073zm-3.47 14.867a1.164 1.164 0 0 0 1.137-1.42l-1.865-8.297 4.806 9.096c.2.382.597.62 1.03.62h2.799a1.165 1.165 0 0 0 1.119-1.484l-3.454-12.06a.586.586 0 0 1 .026-.391l4.264-9.768.006-.015.017-.046.021-.06.005-.014.004-.018.007-.025c.004-.017.01-.034.013-.052l.006-.033.007-.042c0-.012.003-.024.004-.037l.005-.053.001-.044.001-.012v-.006l.001-.02-.09-10.96-.002-.044a4.967 4.967 0 0 0-1.656-3.495 5.157 5.157 0 0 0-.583-.452c.438-.391.772-.888.966-1.46l.86-2.54A3.449 3.449 0 0 0 76.819.539l-1.005-.34a3.425 3.425 0 0 0-2.63.172 3.425 3.425 0 0 0-1.739 1.984l-.86 2.54a3.447 3.447 0 0 0 .676 3.379L55.05 9.335a1.165 1.165 0 0 0-1.09 1.171 4.72 4.72 0 0 0 1.422 3.35 4.71 4.71 0 0 0 3.37 1.36l1.162-.008v2.46a.86.86 0 0 1-.859.858H44.577a.86.86 0 0 1-.859-.858V3.188a.86.86 0 0 1 .859-.859h14.478a.86.86 0 0 1 .859.86v2.3a1.164 1.164 0 0 0 2.329 0v-2.3A3.192 3.192 0 0 0 59.055 0H44.577a3.191 3.191 0 0 0-3.187 3.189v14.479a3.19 3.19 0 0 0 3.187 3.187h14.478a3.19 3.19 0 0 0 3.188-3.187v-2.476l6.557-.046.357 8.167-7.78 8.093a3.5 3.5 0 0 0-.553 4.186l4.82 11.724c.179.437.604.722 1.076.722z"/></g><g><path fill="#ff6147" d="M78.313 49.64h-4.638a1.164 1.164 0 1 0 0 2.328h4.638a1.164 1.164 0 1 0 0-2.328z"/></g><g><path fill="#ff6147" d="M69.933 49.64h-4.639a1.164 1.164 0 1 0 0 2.328h4.639a1.164 1.164 0 1 0 0-2.328z"/></g><g><path fill="#ff6147" d="M19.967 34.635l-4.552 11.077h-.565l2.01-8.948a2.027 2.027 0 0 0-.282-1.85 1.083 1.083 0 0 0-.095-.116l-4.746-5.042 1.316-3.814 6.816 7.09.011.012c.377.382.446.97.167 1.43-.03.052-.057.105-.08.16zM5.84 14.768a3.79 3.79 0 0 1 .947-2.476l.53-.602c.262-.296.596-.487.954-.57.067.01.135.019.202.026l.955.09c.08.036.157.078.232.126l6.99 4.48.015.009c.174.107.36.193.552.257l.051.02c.353.11.729.15 1.1.11l7.412-.79a3.161 3.161 0 0 1-2.478 1.807l-5.85.72a.362.362 0 0 1-.223-.043l-3.975-2.211a1.058 1.058 0 0 0-.045-.025l-2.697-1.5a1.164 1.164 0 1 0-1.131 2.036l2.112 1.174-.07 5.207-5.649.077zM7.686 7.61l.252-2.67c.028-.297.17-.565.4-.756a1.109 1.109 0 0 1 .816-.25l1.056.099a1.119 1.119 0 0 1 1.007 1.217l-.252 2.669a1.109 1.109 0 0 1-1.057 1.009 4.12 4.12 0 0 0-1.524-.177 1.117 1.117 0 0 1-.698-1.141zm11.877-1.544h13.955c.434 0 .787.353.787.787V20.82a.787.787 0 0 1-.787.786H19.563a.787.787 0 0 1-.786-.786v-.662l4.806-.592a5.49 5.49 0 0 0 4.812-5.443 1.164 1.164 0 0 0-1.287-1.158l-8.33.888V6.854c0-.434.352-.787.785-.787zm-5.82 17.234l.062-4.61 2.293 1.276c.114.063.23.116.35.162v.69a3.119 3.119 0 0 0 3.115 3.116h13.965a3.119 3.119 0 0 0 3.115-3.115V6.854a3.12 3.12 0 0 0-3.115-3.116H19.563a3.12 3.12 0 0 0-3.115 3.116v6.092l-4.178-2.678a3.421 3.421 0 0 0 1.014-2.13l.251-2.669a3.448 3.448 0 0 0-3.105-3.753l-1.057-.1a3.425 3.425 0 0 0-2.52.775 3.423 3.423 0 0 0-1.234 2.33l-.252 2.67a3.43 3.43 0 0 0 .638 2.338 4.18 4.18 0 0 0-.434.42l-.53.602a6.125 6.125 0 0 0-1.53 3.997l-.074 9.043-.656 5.08a1.164 1.164 0 0 0 2.31.297l.534-4.147 5.307-.071-1.621 4.697-.015.045-5.526 16.02h-.812l1.489-11.548a1.164 1.164 0 1 0-2.31-.299L.48 46.727a1.165 1.165 0 0 0 1.156 1.313H4.6c.497 0 .939-.314 1.1-.784l5.18-15.014 3.72 3.953-2.34 10.426a1.165 1.165 0 0 0 1.136 1.42h2.8c.471 0 .897-.286 1.076-.722l4.818-11.724a3.497 3.497 0 0 0-.547-4.18z"/></g><g><path fill="#ff6147" d="M5.803 49.64H1.164a1.164 1.164 0 1 0 0 2.328h4.639a1.164 1.164 0 1 0 0-2.328z"/></g><g><path fill="#ff6147" d="M17.603 49.64h-4.639a1.164 1.164 0 1 0 0 2.328h4.639a1.164 1.164 0 1 0 0-2.328z"/></g><g><path fill="#ff6147" d="M57.199 49.639h-2.615c.199-.462.308-.97.308-1.504V29.043a3.837 3.837 0 0 0-3.832-3.833H40.23a1.164 1.164 0 0 0 0 2.329h10.83c.83 0 1.504.675 1.504 1.504v19.092c0 .83-.675 1.504-1.504 1.504H31.97c-.83 0-1.504-.675-1.504-1.504V29.043c0-.83.675-1.504 1.504-1.504h2.563a1.165 1.165 0 1 0 0-2.329H31.97a3.837 3.837 0 0 0-3.832 3.833v19.092c0 .533.11 1.042.308 1.504h-3.062a1.164 1.164 0 1 0 0 2.328H57.2a1.164 1.164 0 1 0 0-2.328z"/></g></g></g></svg>