<svg xmlns="http://www.w3.org/2000/svg" width="60" height="51" viewBox="0 0 60 51"><g><g><g><path fill="#ff6147" d="M53.945 27.004a.963.963 0 0 0-.964.963v8.67a2.89 2.89 0 0 1-2.89 2.89h-5.78a.963.963 0 0 0-.963.964v8.67H16.3v-8.67a.963.963 0 0 0-.963-.964h-5.78a2.89 2.89 0 0 1-2.89-2.89v-8.67a.963.963 0 0 0-.963-.963H1.928l6.454-8.068a.964.964 0 0 0 .21-.602A16.38 16.38 0 0 1 26.82 2.06c.925.103 1.84.286 2.734.549a.952.952 0 0 0 .54 0 16.383 16.383 0 0 1 20.96 15.726c0 .219.075.431.212.602l6.456 8.068zm5.28-1.204l-6.247-7.809A18.33 18.33 0 0 0 46.89 4.697 18.145 18.145 0 0 0 32.618.144c-.944.104-1.878.284-2.794.537A18.31 18.31 0 0 0 6.666 17.992L.423 25.8a1.926 1.926 0 0 0 1.505 3.13H4.74v7.707a4.822 4.822 0 0 0 4.816 4.817h4.817v8.67c0 .532.431.963.963.963h28.975a.963.963 0 0 0 .964-.963v-8.67h4.816a4.822 4.822 0 0 0 4.817-4.817v-7.706h2.814a1.927 1.927 0 0 0 1.505-3.131z"/></g><g><path fill="#ff6147" d="M29.785 37.593c-8.51 0-15.408-6.899-15.408-15.408 0-8.51 6.898-15.408 15.408-15.408s15.408 6.898 15.408 15.408c-.01 8.505-6.903 15.398-15.408 15.408zM29.79 4.85c-9.577 0-17.34 7.763-17.34 17.34 0 9.576 7.763 17.34 17.34 17.34 9.576 0 17.34-7.764 17.34-17.34-.012-9.572-7.769-17.33-17.34-17.34z"/></g><g><path fill="#ff6147" d="M39.42 17.935l-1.645 1.644a.963.963 0 0 0-.282.681v.963h1.927v-.564l.813-.813 1.113 1.666v4.126l-.963.963v-1.525h-1.927v5.027l-2.594.65-1.259-1.26v-.564h-1.927v.964c0 .255.102.5.283.68l1.505 1.506-.556 1.667h-1.796l-1.362-1.362V11.989l1.362-1.362h1.796l.556 1.667-1.505 1.505a.963.963 0 0 0-.283.681v.964h1.927v-.565l1.362-1.362h2.093l1.362 1.362zm-11.968 15.81h-1.795l-.555-1.666 1.504-1.505a.964.964 0 0 0 .282-.681v-.964h-1.924v.565l-1.258 1.259-2.592-.65v-5.027h-1.925v1.528l-.962-.963v-4.129l1.111-1.67.813.814v.567h1.925v-.963c0-.255-.101-.5-.282-.681l-1.643-1.644v-3.056l1.361-1.362h2.09l1.362 1.362v.565h1.924v-.964c0-.255-.101-.5-.282-.68l-1.504-1.506.555-1.667h1.795l1.361 1.362v20.395zm8.809-22.155l-.744-2.231a.962.962 0 0 0-.914-.659h-2.89c-.255 0-.5.102-.68.282l-1.246 1.246-1.246-1.246a.963.963 0 0 0-.681-.282h-2.89a.963.963 0 0 0-.915.659l-.743 2.231h-2.195c-.256 0-.5.102-.681.282L18.509 13.8a.963.963 0 0 0-.282.68v3.565l-1.765 2.647a.964.964 0 0 0-.162.532v4.817c0 .255.102.5.282.68l2.608 2.609v1.527c0 .442.3.827.729.935l3.34.835.796 2.388c.132.394.5.659.915.659h2.89c.255 0 .5-.102.681-.282l1.246-1.246 1.245 1.246c.18.18.426.282.681.282h2.89a.963.963 0 0 0 .914-.659l.796-2.388 3.34-.835a.963.963 0 0 0 .73-.935V29.33l2.608-2.608a.963.963 0 0 0 .282-.681v-4.817a.973.973 0 0 0-.162-.535l-1.765-2.644V14.48c0-.255-.101-.5-.282-.681l-1.926-1.927a.963.963 0 0 0-.682-.282z"/></g><g><path fill="#ff6147" d="M36.251 21.506l-1.644-1.645V17.37H32.68v2.89c0 .255.102.5.282.681l1.927 1.927z"/></g><g><path fill="#ff6147" d="M35.282 24.4l-1.362 1.362.681.681v1.528h1.927v-1.927c0-.255-.102-.5-.282-.68z"/></g><g><path fill="#ff6147" d="M24.964 19.861l-1.644 1.645 1.362 1.362 1.927-1.927a.963.963 0 0 0 .282-.681v-2.89h-1.927z"/></g><g><path fill="#ff6147" d="M23.322 25.363a.963.963 0 0 0-.282.681v1.927h1.927v-1.528l.68-.68-1.361-1.363z"/></g></g></g></svg>