<svg xmlns="http://www.w3.org/2000/svg" width="70" height="44" viewBox="0 0 70 44"><g><g><g><path fill="#ff6147" d="M7.505 15.593a1.363 1.363 0 0 0 1.912-.253l.036-.047a1.363 1.363 0 1 0-2.166-1.658l-.036.047a1.363 1.363 0 0 0 .254 1.911z"/></g><g><path fill="#ff6147" d="M60.32 33.62h-.036a1.364 1.364 0 1 0 0 2.728h.037a1.364 1.364 0 1 0 0-2.728z"/></g><g><path fill="#ff6147" d="M51.733 20.867a25.651 25.651 0 0 0-1.07-1.524l.722-.722a3.522 3.522 0 0 0 1.036-2.508c0-.949-.368-1.839-1.036-2.507a3.521 3.521 0 0 0-2.507-1.036c-.949 0-1.84.368-2.508 1.036l-.722.721a25.648 25.648 0 0 0-1.524-1.069l4.318-7.477a32.392 32.392 0 0 1 12.231 9.924zM30.006 40.44a5.462 5.462 0 0 1-5.456-5.455 5.462 5.462 0 0 1 5.878-5.438l-2.93 2.93a3.55 3.55 0 0 0 0 5.015 3.535 3.535 0 0 0 2.508 1.037c.908 0 1.816-.346 2.507-1.037l2.93-2.93a5.462 5.462 0 0 1-5.438 5.878zm19.45-23.75L30.584 35.565a.829.829 0 0 1-1.157 0 .829.829 0 0 1 0-1.157l18.872-18.872a.812.812 0 0 1 .579-.237.812.812 0 0 1 .816.815c0 .22-.085.426-.238.579zM16.385 8.673a32.041 32.041 0 0 1 12.257-5.258v5.7a25.706 25.706 0 0 0-10.391 2.793zm29.514-3.945l-4.137 7.158A25.986 25.986 0 0 0 31.37 9.103v-6.11a32.445 32.445 0 0 1 3.547-.195c3.855 0 7.554.682 10.983 1.93zM4.127 33.622h-1.37A32.194 32.194 0 0 1 5.322 22.31l1.595.92a25.724 25.724 0 0 0-2.79 10.392zm55.478-23.325C53.01 3.702 44.242.07 34.915.07a35 35 0 0 0-5.19.388 34.819 34.819 0 0 0-18.271 8.67 1.364 1.364 0 0 0 1.833 2.019c.302-.274.609-.54.919-.8l1.683 2.916a26.137 26.137 0 0 0-7.605 7.606l-1.778-1.026c.25-.469.511-.932.785-1.388a1.363 1.363 0 1 0-2.339-1.404 34.629 34.629 0 0 0-1.477 2.736l-.021.045A34.913 34.913 0 0 0 0 34.986c0 .753.61 1.363 1.364 1.363h4.092c.753 0 1.363-.61 1.363-1.363 0-12.785 10.402-23.187 23.187-23.187 4.93 0 9.738 1.581 13.694 4.477L32.714 27.263a8.116 8.116 0 0 0-2.708-.46c-4.513 0-8.184 3.67-8.184 8.183 0 4.512 3.671 8.183 8.184 8.183 4.512 0 8.183-3.67 8.183-8.183 0-.936-.156-1.843-.46-2.708L48.715 21.29a23.218 23.218 0 0 1 4.477 13.695 1.364 1.364 0 1 0 2.727 0c0-4.108-.982-8.139-2.823-11.757l9.124-5.268a31.98 31.98 0 0 1 4.855 15.66h-2.84a1.364 1.364 0 1 0 0 2.728h4.232c.754 0 1.364-.61 1.364-1.363 0-9.327-3.632-18.095-10.226-24.69z"/></g></g></g></svg>