<?xml version="1.0" encoding="UTF-8"?>
<svg width="66px" height="66px" viewBox="0 0 66 66" version="1.1" xmlns="http://www.w3.org/2000/svg" xmlns:xlink="http://www.w3.org/1999/xlink">
    <!-- Generator: Sketch 51.3 (57544) - http://www.bohemiancoding.com/sketch -->
    <title>approach4</title>
    <desc>Created with Sketch.</desc>
    <defs></defs>
    <g id="Page-1" stroke="none" stroke-width="1" fill="none" fill-rule="evenodd">
        <g id="электронная_коммерция" transform="translate(-423.000000, -2453.000000)" fill="#FF614C" fill-rule="nonzero">
            <g id="approach4" transform="translate(423.000000, 2453.000000)">
                <path d="M61.8508395,61.875 L61.8508395,28.875 L49.4806716,28.875 L49.4806716,61.875 L45.3572823,61.875 L45.3572823,35.0625 L32.9871144,35.0625 L32.9871144,61.875 L28.8637251,61.875 L28.8637251,33 L16.4935572,33 L16.4935572,61.875 L12.3701679,61.875 L12.3701679,43.3125 L0,43.3125 L0,61.875 L0,66 L12.3701679,66 L16.4935572,66 L28.8637251,66 L32.9871144,66 L45.3572823,66 L49.4806716,66 L61.8508395,66 L65.9742288,66 L65.9742288,61.875 L61.8508395,61.875 Z M4.1233893,61.875 L4.1233893,47.4375 L8.2467786,47.4375 L8.2467786,61.875 L4.1233893,61.875 Z M20.6169465,61.875 L20.6169465,37.125 L24.7403358,37.125 L24.7403358,61.875 L20.6169465,61.875 Z M37.1105037,61.875 L37.1105037,39.1875 L41.233893,39.1875 L41.233893,61.875 L37.1105037,61.875 Z M53.6040609,61.875 L53.6040609,33 L57.7274502,33 L57.7274502,61.875 L53.6040609,61.875 Z M53.6040609,24.75 C56.7996876,24.75 59.8922296,23.5125 62.3662632,21.140625 C67.2112456,16.29375 67.2112456,8.45625 62.3662632,3.609375 C59.8922296,1.2375 56.7996876,0 53.6040609,0 C50.4084342,0 47.3158922,1.2375 44.8418586,3.609375 C39.9968762,8.45625 39.9968762,16.29375 44.8418586,21.140625 C47.3158922,23.5125 50.4084342,24.75 53.6040609,24.75 Z M47.7282312,6.496875 C49.3775869,4.95 51.4392815,4.125 53.6040609,4.125 C55.7688403,4.125 57.8305349,4.95 59.4798907,6.496875 C62.6755174,9.69375 62.6755174,14.953125 59.4798907,18.15 C57.8305349,19.8 55.7688403,20.625 53.6040609,20.625 C51.4392815,20.625 49.3775869,19.8 47.7282312,18.253125 C44.5326045,14.953125 44.5326045,9.796875 47.7282312,6.496875 Z M50.3053495,18.5625 L52.5732136,18.5625 L52.5732136,15.778125 L56.9027724,15.778125 L56.9027724,14.23125 L52.5732136,14.23125 L52.5732136,13.096875 L54.6349082,13.096875 C56.9027724,13.096875 58.6552128,11.859375 58.6552128,9.69375 C58.6552128,7.528125 57.3151113,6.084375 54.737993,6.084375 L50.3053495,6.084375 L50.3053495,11.34375 L49.1714174,11.34375 L49.1714174,13.096875 L50.3053495,13.096875 L50.3053495,14.23125 L49.1714174,14.23125 L49.1714174,15.778125 L50.3053495,15.778125 L50.3053495,18.5625 Z M52.5732136,7.940625 L54.325654,7.940625 C55.6657556,7.940625 56.284264,8.6625 56.284264,9.590625 C56.284264,10.51875 55.6657556,11.34375 54.2225693,11.34375 L52.5732136,11.34375 L52.5732136,7.940625 Z M6.80359235,27.6375 L5.56657556,25.9875 L22.0601328,13.6125 C22.4724717,13.303125 22.9878954,13.303125 23.2971496,13.6125 L37.1105037,25.471875 L41.6462319,21.8625 L42.8832487,23.5125 L37.7290121,27.6375 C37.5228426,27.740625 37.3166732,27.84375 37.1105037,27.84375 C36.9043342,27.84375 36.59508,27.740625 36.3889106,27.6375 L22.6786412,15.778125 L6.80359235,27.6375 Z" id="Shape"></path>
            </g>
        </g>
    </g>
</svg>