<?xml version="1.0" encoding="UTF-8"?>
<svg width="67px" height="67px" viewBox="0 0 67 67" version="1.1" xmlns="http://www.w3.org/2000/svg" xmlns:xlink="http://www.w3.org/1999/xlink">
    <!-- Generator: Sketch 51.3 (57544) - http://www.bohemiancoding.com/sketch -->
    <title>advantage1 copy 3</title>
    <desc>Created with Sketch.</desc>
    <defs></defs>
    <g id="Page-1" stroke="none" stroke-width="1" fill="none" fill-rule="evenodd">
        <g id="электронная_коммерция" transform="translate(-819.000000, -2453.000000)" fill="#FF614A" fill-rule="nonzero">
            <g id="advantage1-copy-3" transform="translate(819.000000, 2453.000000)">
                <path d="M33.5,0 C15.0052083,0 0,15.0052083 0,33.5 C0,51.9947917 15.0052083,67 33.5,67 C51.9947917,67 67,51.9947917 67,33.5 C67,15.0052083 51.9947917,0 33.5,0 Z M62.4635417,23.3802083 L57.159375,25.125 C53.809375,15.5635417 44.80625,8.65416667 34.1979167,8.375 L34.1979167,2.79166667 C47.2489583,3.07083333 58.3458333,11.5854167 62.4635417,23.3802083 Z M33.5,55.8333333 C21.2166667,55.8333333 11.1666667,45.7833333 11.1666667,33.5 C11.1666667,21.2166667 21.2166667,11.1666667 33.5,11.1666667 C45.7833333,11.1666667 55.8333333,21.2166667 55.8333333,33.5 C55.8333333,45.7833333 45.7833333,55.8333333 33.5,55.8333333 Z M32.8020833,2.79166667 L32.8020833,8.375 C22.19375,8.65416667 13.190625,15.5635417 9.840625,25.0552083 L4.53645833,23.3104167 C8.65416667,11.5854167 19.7510417,3.07083333 32.8020833,2.79166667 Z M2.79166667,33.5 C2.79166667,30.4291667 3.28020833,27.4979167 4.11770833,24.70625 L9.421875,26.4510417 C8.72395833,28.684375 8.375,31.0572917 8.375,33.5 C8.375,41.5958333 12.2135417,48.784375 18.1458333,53.390625 L14.865625,57.9270833 C7.5375,52.2739583 2.79166667,43.4802083 2.79166667,33.5 Z M16.0520833,58.7645833 L19.3322917,54.228125 C23.3802083,57.0197917 28.265625,58.625 33.5,58.625 C38.734375,58.625 43.6895833,57.0197917 47.6677083,54.228125 L50.9479167,58.7645833 C45.9927083,62.184375 39.990625,64.2083333 33.5,64.2083333 C27.009375,64.2083333 21.0072917,62.184375 16.0520833,58.7645833 Z M52.134375,57.9270833 L48.8541667,53.390625 C54.7864583,48.784375 58.625,41.5958333 58.625,33.5 C58.625,31.0572917 58.2760417,28.684375 57.578125,26.38125 L62.8822917,24.6364583 C63.7197917,27.428125 64.2083333,30.359375 64.2083333,33.4302083 C64.2083333,43.4802083 59.4625,52.2739583 52.134375,57.9270833 Z M41.8052083,21.0072917 C37.8270833,21.0072917 34.8260417,22.821875 34.8260417,25.1947917 C34.8260417,27.5677083 37.8270833,29.3822917 41.8052083,29.3822917 C45.7833333,29.3822917 48.784375,27.5677083 48.784375,25.1947917 C48.784375,22.821875 45.7833333,21.0072917 41.8052083,21.0072917 Z M41.8052083,26.590625 C39.0833333,26.590625 37.6177083,25.54375 37.6177083,25.1947917 C37.6177083,24.8458333 39.0833333,23.7989583 41.8052083,23.7989583 C44.5270833,23.7989583 45.9927083,24.8458333 45.9927083,25.1947917 C45.9927083,25.54375 44.4572917,26.590625 41.8052083,26.590625 Z M48.2260417,30.0104167 C48.6447917,30.6385417 48.4354167,31.5458333 47.8072917,31.9645833 C46.1322917,33.0114583 43.96875,33.5697917 41.8052083,33.5697917 C39.6416667,33.5697917 37.478125,33.0114583 35.803125,31.9645833 C35.175,31.5458333 34.965625,30.7083333 35.384375,30.0104167 C35.803125,29.3822917 36.640625,29.1729167 37.3385417,29.5916667 C39.78125,31.1270833 43.8989583,31.1270833 46.271875,29.5916667 C46.9,29.1729167 47.8072917,29.3822917 48.2260417,30.0104167 Z M48.2260417,34.1979167 C48.6447917,34.8260417 48.4354167,35.7333333 47.8072917,36.1520833 C46.1322917,37.1989583 43.96875,37.7572917 41.8052083,37.7572917 C39.6416667,37.7572917 37.478125,37.1989583 35.803125,36.1520833 C35.175,35.7333333 34.965625,34.8958333 35.384375,34.1979167 C35.803125,33.5697917 36.640625,33.3604167 37.3385417,33.7791667 C39.78125,35.3145833 43.8989583,35.3145833 46.271875,33.7791667 C46.9,33.3604167 47.8072917,33.5697917 48.2260417,34.1979167 Z M48.2260417,38.3854167 C48.6447917,39.0135417 48.4354167,39.9208333 47.8072917,40.3395833 C46.1322917,41.3864583 43.96875,41.9447917 41.8052083,41.9447917 C39.6416667,41.9447917 37.478125,41.3864583 35.803125,40.3395833 C35.175,39.9208333 34.965625,39.0833333 35.384375,38.3854167 C35.803125,37.7572917 36.640625,37.5479167 37.3385417,37.9666667 C39.78125,39.5020833 43.8989583,39.5020833 46.271875,37.9666667 C46.9,37.5479167 47.8072917,37.7572917 48.2260417,38.3854167 Z M48.2260417,42.5729167 C48.6447917,43.2010417 48.4354167,44.1083333 47.8072917,44.5270833 C46.1322917,45.5739583 43.96875,46.1322917 41.8052083,46.1322917 C39.6416667,46.1322917 37.478125,45.5739583 35.803125,44.5270833 C35.175,44.1083333 34.965625,43.2708333 35.384375,42.5729167 C35.803125,41.9447917 36.640625,41.7354167 37.3385417,42.1541667 C39.78125,43.6895833 43.8989583,43.6895833 46.271875,42.1541667 C46.9,41.7354167 47.8072917,41.9447917 48.2260417,42.5729167 Z M25.0552083,29.3822917 C21.0770833,29.3822917 18.0760417,31.196875 18.0760417,33.5697917 C18.0760417,35.9427083 21.0770833,37.7572917 25.0552083,37.7572917 C29.0333333,37.7572917 32.034375,35.9427083 32.034375,33.5697917 C32.034375,31.196875 29.0333333,29.3822917 25.0552083,29.3822917 Z M25.0552083,34.965625 C22.3333333,34.965625 20.8677083,33.91875 20.8677083,33.5697917 C20.8677083,33.2208333 22.3333333,32.1739583 25.0552083,32.1739583 C27.7770833,32.1739583 29.2427083,33.2208333 29.2427083,33.5697917 C29.2427083,33.91875 27.7072917,34.965625 25.0552083,34.965625 Z M31.4760417,38.3854167 C31.8947917,39.0135417 31.6854167,39.9208333 31.0572917,40.3395833 C29.3822917,41.3864583 27.21875,41.9447917 25.0552083,41.9447917 C22.8916667,41.9447917 20.728125,41.3864583 19.053125,40.3395833 C18.425,39.9208333 18.215625,39.0833333 18.634375,38.3854167 C19.053125,37.6875 19.890625,37.5479167 20.5885417,37.9666667 C23.03125,39.5020833 27.1489583,39.5020833 29.521875,37.9666667 C30.15,37.5479167 31.0572917,37.7572917 31.4760417,38.3854167 Z M31.4760417,42.5729167 C31.8947917,43.2010417 31.6854167,44.1083333 31.0572917,44.5270833 C29.3822917,45.5739583 27.21875,46.1322917 25.0552083,46.1322917 C22.8916667,46.1322917 20.728125,45.5739583 19.053125,44.5270833 C18.425,44.1083333 18.215625,43.2708333 18.634375,42.5729167 C19.053125,41.875 19.890625,41.7354167 20.5885417,42.1541667 C23.03125,43.6895833 27.1489583,43.6895833 29.521875,42.1541667 C30.15,41.7354167 31.0572917,41.9447917 31.4760417,42.5729167 Z" id="Shape"></path>
            </g>
        </g>
    </g>
</svg>