<?xml version="1.0" encoding="UTF-8"?>
<svg width="64px" height="64px" viewBox="0 0 64 64" version="1.1" xmlns="http://www.w3.org/2000/svg" xmlns:xlink="http://www.w3.org/1999/xlink">
    <!-- Generator: Sketch 51.3 (57544) - http://www.bohemiancoding.com/sketch -->
    <title>assessment1</title>
    <desc>Created with Sketch.</desc>
    <defs></defs>
    <g id="Page-1" stroke="none" stroke-width="1" fill="none" fill-rule="evenodd">
        <g id="электронная_коммерция" transform="translate(-1219.000000, -2453.000000)" fill="#FF614A" fill-rule="nonzero">
            <g id="assessment1" transform="translate(1219.000000, 2453.000000)">
                <path d="M54,0 L37,0 L10,0 C4.5,0 0,4.5 0,10 L0,54 C0,59.5 4.5,64 10,64 L37,64 L54,64 C59.5,64 64,59.5 64,54 L64,10 C64,4.5 59.5,0 54,0 Z M10,4 L37,4 L54,4 C57.3,4 60,6.7 60,10 L60,16 L4,16 L4,10 C4,6.7 6.7,4 10,4 Z M54,60 L37,60 L10,60 C6.7,60 4,57.3 4,54 L4,20 L60,20 L60,54 C60,57.3 57.3,60 54,60 Z M8,10 C8,8.9 8.9,8 10,8 L14,8 C15.1,8 16,8.9 16,10 C16,11.1 15.1,12 14,12 L10,12 C8.9,12 8,11.1 8,10 Z M52.6,11.4 C52.2,11 52,10.5 52,10 C52,9.5 52.2,9 52.6,8.6 C53.3,7.9 54.7,7.9 55.4,8.6 C55.8,9 56,9.5 56,10 C56,10.5 55.8,11 55.4,11.4 C55,11.8 54.5,12 54,12 C53.5,12 53,11.8 52.6,11.4 Z M46.6,11.4 C46.2,11 46,10.5 46,10 C46,9.5 46.2,9 46.6,8.6 C47.4,7.8 48.7,7.8 49.4,8.6 C49.8,9 50,9.5 50,10 C50,10.5 49.8,11 49.4,11.4 C49,11.8 48.5,12 48,12 C47.5,12 47,11.8 46.6,11.4 Z M40.6,11.4 C40.2,11 40,10.5 40,10 C40,9.5 40.2,9 40.6,8.6 C41.4,7.8 42.7,7.8 43.4,8.6 C43.8,9 44,9.5 44,10 C44,10.5 43.8,11 43.4,11.4 C43,11.8 42.5,12 42,12 C41.5,12 41,11.8 40.6,11.4 Z M23,28 C23,28.6 22.6,29 22,29 L10,29 C9.4,29 9,28.6 9,28 C9,27.4 9.4,27 10,27 L22,27 C22.6,27 23,27.4 23,28 Z M23,36 C23,36.6 22.6,37 22,37 L10,37 C9.4,37 9,36.6 9,36 C9,35.4 9.4,35 10,35 L22,35 C22.6,35 23,35.4 23,36 Z M23,44 C23,44.6 22.6,45 22,45 L10,45 C9.4,45 9,44.6 9,44 C9,43.4 9.4,43 10,43 L22,43 C22.6,43 23,43.4 23,44 Z M23,52 C23,52.6 22.6,53 22,53 L10,53 C9.4,53 9,52.6 9,52 C9,51.4 9.4,51 10,51 L22,51 C22.6,51 23,51.4 23,52 Z M39.2,49 L41,53 L30,53 C28.9,53 28,52.1 28,51 L28,29 C28,27.9 28.9,27 30,27 L54,27 C55.1,27 56,27.9 56,29 L56,43.9 L52,42.1 L52,31 L32,31 L32,49 L39.2,49 Z M56,47.2 L40.4,40.1 C40,39.9 39.6,40 39.3,40.3 C39,40.6 38.9,41 39.1,41.4 L46.2,57 C46.4,57.4 46.7,57.6 47.1,57.6 C47.1,57.6 47.1,57.6 47.1,57.6 C47.5,57.6 47.8,57.4 48,57 L50.7,51.6 L56,49 C56.3,48.8 56.6,48.5 56.6,48.1 C56.5,47.7 56.3,47.3 56,47.2 Z M49.5,50 C49.3,50.1 49.1,50.3 49.1,50.4 L47.2,54.2 L42,43 L53.2,48.1 L49.5,50 Z" id="Shape"></path>
            </g>
        </g>
    </g>
</svg>