<?xml version="1.0" encoding="UTF-8"?>
<svg width="79px" height="66px" viewBox="0 0 79 66" version="1.1" xmlns="http://www.w3.org/2000/svg" xmlns:xlink="http://www.w3.org/1999/xlink">
    <!-- Generator: Sketch 51.3 (57544) - http://www.bohemiancoding.com/sketch -->
    <title>implantation_stage6</title>
    <desc>Created with Sketch.</desc>
    <defs></defs>
    <g id="Page-1" stroke="none" stroke-width="1" fill="none" fill-rule="evenodd">
        <g id="электронная_коммерция" transform="translate(-819.000000, -2723.000000)" fill="#FF614A" fill-rule="nonzero">
            <g id="implantation_stage6" transform="translate(819.000000, 2723.000000)">
                <path d="M70.7708333,0 L8.22916667,0 C3.703125,0 0,3.7125 0,8.25 L0,57.75 C0,62.2875 3.703125,66 8.22916667,66 L70.7708333,66 C75.296875,66 79,62.2875 79,57.75 L79,8.25 C79,3.7125 75.296875,0 70.7708333,0 Z M8.22916667,3.3 L70.7708333,3.3 C73.4864583,3.3 75.7083333,5.5275 75.7083333,8.25 L75.7083333,14.85 L3.29166667,14.85 L3.29166667,8.25 C3.29166667,5.5275 5.51354167,3.3 8.22916667,3.3 Z M70.7708333,62.7 L8.22916667,62.7 C5.51354167,62.7 3.29166667,60.4725 3.29166667,57.75 L3.29166667,18.15 L75.7083333,18.15 L75.7083333,57.75 C75.7083333,60.4725 73.4864583,62.7 70.7708333,62.7 Z M8.22916667,9.075 C8.22916667,8.1675 8.96979167,7.425 9.875,7.425 L16.4583333,7.425 C17.3635417,7.425 18.1041667,8.1675 18.1041667,9.075 C18.1041667,9.9825 17.3635417,10.725 16.4583333,10.725 L9.875,10.725 C8.96979167,10.725 8.22916667,9.9825 8.22916667,9.075 Z M47.7291667,9.075 C47.7291667,8.1675 48.4697917,7.425 49.375,7.425 L52.6666667,7.425 C53.571875,7.425 54.3125,8.1675 54.3125,9.075 C54.3125,9.9825 53.571875,10.725 52.6666667,10.725 L49.375,10.725 C48.4697917,10.725 47.7291667,9.9825 47.7291667,9.075 Z M55.9583333,9.075 C55.9583333,8.1675 56.6989583,7.425 57.6041667,7.425 L60.8958333,7.425 C61.8010417,7.425 62.5416667,8.1675 62.5416667,9.075 C62.5416667,9.9825 61.8010417,10.725 60.8958333,10.725 L57.6041667,10.725 C56.6989583,10.725 55.9583333,9.9825 55.9583333,9.075 Z M64.1875,9.075 C64.1875,8.1675 64.928125,7.425 65.8333333,7.425 L69.125,7.425 C70.0302083,7.425 70.7708333,8.1675 70.7708333,9.075 C70.7708333,9.9825 70.0302083,10.725 69.125,10.725 L65.8333333,10.725 C64.928125,10.725 64.1875,9.9825 64.1875,9.075 Z M9.875,53.625 L19.75,53.625 L19.75,35.475 L9.875,35.475 L9.875,53.625 Z M13.1666667,38.775 L16.4583333,38.775 L16.4583333,50.325 L13.1666667,50.325 L13.1666667,38.775 Z M26.3333333,53.625 L36.2083333,53.625 L36.2083333,27.225 L26.3333333,27.225 L26.3333333,53.625 Z M29.625,30.525 L32.9166667,30.525 L32.9166667,50.325 L29.625,50.325 L29.625,30.525 Z M59.25,53.625 L69.125,53.625 L69.125,23.925 L59.25,23.925 L59.25,53.625 Z M62.5416667,27.225 L65.8333333,27.225 L65.8333333,50.325 L62.5416667,50.325 L62.5416667,27.225 Z M55.79375,53.5425 C56.9458333,51.8925 57.6041667,49.9125 57.6041667,47.85 C57.6041667,45.21 56.6166667,42.735 54.7239583,40.8375 C54.065625,40.1775 53.4072917,39.6825 52.6666667,39.27 L52.6666667,30.525 L42.7916667,30.525 L42.7916667,39.27 C42.0510417,39.6825 41.3927083,40.1775 40.734375,40.8375 C38.8416667,42.735 37.8541667,45.21 37.8541667,47.85 C37.8541667,50.49 38.8416667,52.965 40.734375,54.8625 C42.6270833,56.76 45.0958333,57.75 47.7291667,57.75 C49.7864583,57.75 51.7614583,57.09 53.4072917,55.935 L58.015625,60.555 C58.4270833,60.885 58.8385417,61.05 59.25,61.05 C59.6614583,61.05 60.0729167,60.885 60.4020833,60.555 C61.0604167,59.895 61.0604167,58.905 60.4020833,58.245 L55.79375,53.5425 Z M46.0833333,33.825 L49.375,33.825 L49.375,38.115 C48.7989583,38.0325 48.3052083,37.95 47.7291667,37.95 C47.153125,37.95 46.659375,38.0325 46.0833333,38.115 L46.0833333,33.825 Z M43.0385417,52.5525 C40.4875,49.995 40.4875,45.7875 43.0385417,43.23 C43.45,42.8175 44.0260417,42.405 44.5197917,42.075 C44.93125,42.075 45.2604167,41.91 45.5072917,41.6625 C46.165625,41.415 46.90625,41.3325 47.646875,41.3325 C48.3875,41.3325 49.128125,41.4975 49.7864583,41.6625 C50.0333333,41.91 50.3625,42.075 50.7739583,42.075 C51.35,42.405 51.84375,42.735 52.2552083,43.23 C54.80625,45.7875 54.80625,49.995 52.2552083,52.5525 C51.103125,53.79 49.4572917,54.45 47.7291667,54.45 C46.0010417,54.45 44.3552083,53.79 43.0385417,52.5525 Z" id="Shape"></path>
            </g>
        </g>
    </g>
</svg>