<?xml version="1.0" encoding="UTF-8"?>
<svg width="79px" height="66px" viewBox="0 0 79 66" version="1.1" xmlns="http://www.w3.org/2000/svg" xmlns:xlink="http://www.w3.org/1999/xlink">
    <!-- Generator: Sketch 51.3 (57544) - http://www.bohemiancoding.com/sketch -->
    <title>process4</title>
    <desc>Created with Sketch.</desc>
    <defs></defs>
    <g id="Page-1" stroke="none" stroke-width="1" fill="none" fill-rule="evenodd">
        <g id="электронная_коммерция" transform="translate(-1219.000000, -2723.000000)" fill="#FF614A" fill-rule="nonzero">
            <g id="process4" transform="translate(1219.000000, 2723.000000)">
                <path d="M74.0625,11.55 L54.3125,11.55 L54.3125,4.95 C54.3125,2.2275 52.090625,0 49.375,0 L29.625,0 C26.909375,0 24.6875,2.2275 24.6875,4.95 L24.6875,11.55 L4.9375,11.55 C2.221875,11.55 0,13.7775 0,16.5 L0,61.05 C0,63.7725 2.221875,66 4.9375,66 L74.0625,66 C76.778125,66 79,63.7725 79,61.05 L79,16.5 C79,13.7775 76.778125,11.55 74.0625,11.55 Z M27.9791667,4.95 C27.9791667,4.0425 28.7197917,3.3 29.625,3.3 L49.375,3.3 C50.2802083,3.3 51.0208333,4.0425 51.0208333,4.95 L51.0208333,11.55 L48.5520833,11.55 L48.5520833,6.6 C48.5520833,6.105 48.2229167,5.775 47.7291667,5.775 L31.2708333,5.775 C30.7770833,5.775 30.4479167,6.105 30.4479167,6.6 L30.4479167,11.55 L27.9791667,11.55 L27.9791667,4.95 Z M46.90625,11.55 L32.09375,11.55 L32.09375,7.425 L46.90625,7.425 L46.90625,11.55 Z M4.9375,14.85 L26.3333333,14.85 L52.6666667,14.85 L74.0625,14.85 C74.9677083,14.85 75.7083333,15.5925 75.7083333,16.5 L75.7083333,35.3925 L64.7635417,41.9925 C61.965625,43.725 58.75625,44.55 55.4645833,44.55 L23.5354167,44.55 C20.24375,44.55 17.034375,43.6425 14.2364583,41.9925 L3.29166667,35.3925 L3.29166667,16.5 C3.29166667,15.5925 4.03229167,14.85 4.9375,14.85 Z M36.2083333,51.15 L42.7916667,51.15 L42.7916667,53.625 C42.7916667,54.5325 42.0510417,55.275 41.1458333,55.275 L37.8541667,55.275 C36.9489583,55.275 36.2083333,54.5325 36.2083333,53.625 L36.2083333,51.15 Z M42.7916667,49.5 L36.2083333,49.5 L36.2083333,47.85 L42.7916667,47.85 L42.7916667,49.5 Z M74.0625,62.7 L4.9375,62.7 C4.03229167,62.7 3.29166667,61.9575 3.29166667,61.05 L3.29166667,39.1875 L12.590625,44.7975 C15.8822917,46.7775 19.75,47.85 23.6177083,47.85 L34.5625,47.85 L34.5625,53.625 C34.5625,55.44 36.04375,56.925 37.8541667,56.925 L41.1458333,56.925 C42.95625,56.925 44.4375,55.44 44.4375,53.625 L44.4375,47.85 L55.4645833,47.85 C59.3322917,47.85 63.1177083,46.7775 66.4916667,44.7975 L75.7083333,39.1875 L75.7083333,61.05 C75.7083333,61.9575 74.9677083,62.7 74.0625,62.7 Z M30.11875,29.205 C29.4604167,28.545 29.4604167,27.555 30.11875,26.895 C30.7770833,26.235 31.7645833,26.235 32.4229167,26.895 L37.8541667,32.34 L48.2229167,21.945 C48.88125,21.285 49.86875,21.285 50.5270833,21.945 C51.1854167,22.605 51.1854167,23.595 50.5270833,24.255 L39.00625,35.805 C38.6770833,36.135 38.265625,36.3 37.8541667,36.3 C37.4427083,36.3 37.03125,36.135 36.7020833,35.805 L30.11875,29.205 Z" id="Shape"></path>
            </g>
        </g>
    </g>
</svg>