<?xml version="1.0" encoding="UTF-8"?>
<svg width="32px" height="32px" viewBox="0 0 32 32" version="1.1" xmlns="http://www.w3.org/2000/svg" xmlns:xlink="http://www.w3.org/1999/xlink">
    <!-- Generator: Sketch 53.2 (72643) - https://sketchapp.com -->
    <title>settings-5</title>
    <desc>Created with Sketch.</desc>
    <g id="Page-1" stroke="none" stroke-width="1" fill="none" fill-rule="evenodd">
        <g id="Artboard-Copy" transform="translate(-1194.000000, -588.000000)" fill="#FF6148" fill-rule="nonzero" stroke="#FF6148" stroke-width="0.5">
            <g id="settings-5" transform="translate(1195.000000, 589.000000)">
                <path d="M16.9819022,29.9527174 L12.9708696,29.9527174 C12.5878804,29.9527174 12.2441848,29.7205435 12.1015761,29.3640217 L11.3191304,27.4078804 C10.4315761,27.1482609 9.57782609,26.7936413 8.77065217,26.3530435 L6.83461957,27.1830435 C6.48358696,27.3292935 6.075,27.2543478 5.80445652,26.98375 L2.96804348,24.1482609 C2.6975,23.8777174 2.6188587,23.47 2.76967391,23.1171739 L3.59875,21.1811413 C3.15722826,20.37125 2.80347826,19.5175 2.54391304,18.6345109 L0.587771739,17.8502174 C0.233097826,17.707663 0,17.3639674 0,16.9818478 L0,12.9708152 C0,12.58875 0.233097826,12.2450543 0.587771739,12.1024457 L2.54391304,11.3181522 C2.80353261,10.435163 3.15728261,9.58141304 3.59875,8.77152174 L2.76967391,6.83548913 C2.6188587,6.48266304 2.69744565,6.07494565 2.96804348,5.80440217 L5.80445652,2.96891304 C6.075,2.69836957 6.4836413,2.62336957 6.83461957,2.76961957 L8.77065217,3.59961957 C9.57777174,3.15902174 10.4315217,2.80434783 11.3191304,2.54478261 L12.1015761,0.588641304 C12.2441848,0.232173913 12.5878804,5.68434189e-14 12.9708696,5.68434189e-14 L16.9819022,5.68434189e-14 C17.3648913,5.68434189e-14 17.708587,0.232173913 17.8511957,0.588695652 L18.6336413,2.54483696 C19.5211957,2.80445652 20.3749457,3.15907609 21.1821196,3.59967391 L23.1181522,2.76967391 C23.4700543,2.62342391 23.8777717,2.69836957 24.1483152,2.96896739 L26.9847283,5.80445652 C27.2552717,6.075 27.333913,6.48271739 27.1830978,6.83554348 L26.3540217,8.77157609 C26.7955435,9.58146739 27.1492935,10.4352174 27.4088587,11.3182065 L29.365,12.1025 C29.7196739,12.2451087 29.9527717,12.5888043 29.9527717,12.9708696 L29.9527717,16.9819022 C29.9527717,17.3639674 29.7196739,17.707663 29.365,17.8502717 L27.4088587,18.6345652 C27.1492391,19.5175543 26.7954891,20.3713043 26.3540217,21.1811957 L27.1830978,23.1172283 C27.333913,23.4700543 27.2553261,23.8777717 26.9847283,24.1483152 L24.1483152,26.9838043 C23.8777717,27.2543478 23.4700543,27.3293478 23.1181522,27.1830978 L21.1821196,26.3530978 C20.375,26.7936957 19.52125,27.1483696 18.6336413,27.4079348 L17.8511957,29.3640761 C17.708587,29.7205435 17.3648913,29.9527174 16.9819022,29.9527174 L16.9819022,29.9527174 Z M13.6043478,28.0807065 L16.3484239,28.0807065 L17.0678261,26.2817935 C17.1793478,26.003913 17.416087,25.7954891 17.7067935,25.7223913 C18.7442935,25.4572826 19.7323913,25.0477717 20.6428261,24.504837 C20.9015217,24.35125 21.2159783,24.3329891 21.491087,24.4481522 L23.272663,25.212337 L25.2132609,23.272663 L24.45,21.4920109 C24.3320652,21.2159783 24.3530978,20.9015217 24.5057609,20.64375 C25.0505435,19.7278261 25.4600543,18.7406522 25.7214674,17.7077174 C25.7954891,17.4170652 26.0029891,17.1811957 26.2808696,17.0696739 L28.0807065,16.3494022 L28.0807065,13.6034783 L26.2808696,12.8831522 C26.0029891,12.7716304 25.7954891,12.5358152 25.7214674,12.2451087 C25.4600543,11.2121739 25.0505435,10.225 24.5057609,9.30907609 C24.3530978,9.05130435 24.3320652,8.73684783 24.45,8.46081522 L25.2132609,6.68016304 L23.272663,4.74048913 L21.491087,5.50467391 C21.2159239,5.61983696 20.9015217,5.60157609 20.6428261,5.44798913 C19.7323913,4.905 18.7442935,4.49548913 17.7067935,4.23043478 C17.416087,4.15728261 17.1793478,3.94891304 17.0678261,3.67103261 L16.3484239,1.87211957 L13.6043478,1.87211957 L12.8849457,3.67103261 C12.7734239,3.94891304 12.5366848,4.15733696 12.2459783,4.23043478 C11.2084783,4.49554348 10.2203804,4.90505435 9.30994565,5.44798913 C9.05217391,5.60157609 8.735,5.61983696 8.46168478,5.50467391 L6.6801087,4.74048913 L4.73951087,6.68016304 L5.50277174,8.46081522 C5.62070652,8.73684783 5.59967391,9.05130435 5.44701087,9.30907609 C4.90222826,10.225 4.49271739,11.2121739 4.23130435,12.2451087 C4.15728261,12.5357609 3.94978261,12.7716304 3.67190217,12.8831522 L1.87206522,13.6034783 L1.87206522,16.3494022 L3.67190217,17.0696739 C3.94978261,17.1811957 4.15728261,17.4170109 4.23130435,17.7077174 C4.49271739,18.7406522 4.90222826,19.7278261 5.44701087,20.64375 C5.59967391,20.9015217 5.62070652,21.2159783 5.50277174,21.4920109 L4.73951087,23.272663 L6.6801087,25.212337 L8.46168478,24.4481522 C8.735,24.3329891 9.05217391,24.35125 9.30994565,24.504837 C10.2203804,25.0478261 11.2084783,25.457337 12.2459783,25.7223913 C12.5366304,25.7955435 12.7734239,26.003913 12.8849457,26.2817935 C12.8849457,26.2817935 13.6043478,28.0807065 13.6043478,28.0807065 Z M29.0321767,17.005179 L29.0661161,17.005179 L29.0321767,17.005179 Z" id="Shape"></path>
                <path d="M14.9763587,22.4645652 C10.8474457,22.4645652 7.48815217,19.1061957 7.48815217,14.9763587 C7.48815217,10.8465217 10.8473913,7.48815217 14.9763587,7.48815217 C19.1053261,7.48815217 22.4645652,10.8465217 22.4645652,14.9763587 C22.4645652,19.1061957 19.1053261,22.4645652 14.9763587,22.4645652 L14.9763587,22.4645652 Z M14.9763587,9.36021739 C11.8794565,9.36021739 9.36021739,11.8794565 9.36021739,14.9763587 C9.36021739,18.0732609 11.8794022,20.5925 14.9763587,20.5925 C18.0733152,20.5925 20.5925,18.0732609 20.5925,14.9763587 C20.5925,11.8794565 18.0733152,9.36021739 14.9763587,9.36021739 Z" id="Shape"></path>
            </g>
        </g>
    </g>
</svg>