<?xml version="1.0" encoding="UTF-8"?>
<svg width="82px" height="82px" viewBox="0 0 82 82" version="1.1" xmlns="http://www.w3.org/2000/svg" xmlns:xlink="http://www.w3.org/1999/xlink">
    <!-- Generator: Sketch 53.2 (72643) - https://sketchapp.com -->
    <title>analytics</title>
    <desc>Created with Sketch.</desc>
    <g id="Page-1" stroke="none" stroke-width="1" fill="none" fill-rule="evenodd">
        <g id="Artboard" transform="translate(-455.000000, -3760.000000)" fill="#FF614C" fill-rule="nonzero">
            <g id="analytics" transform="translate(455.000000, 3760.000000)">
                <path d="M80.1350994,78.4302027 L1.70505653,78.4302027 C0.763894737,78.4302027 0,79.1939376 0,80.1350994 C0,81.0762612 0.763894737,81.8401559 1.70505653,81.8401559 L80.1352593,81.8401559 C81.0764211,81.8401559 81.8403158,81.0762612 81.8403158,80.1350994 C81.8401559,79.1939376 81.0762612,78.4302027 80.1350994,78.4302027 Z" id="Path"></path>
                <path d="M15.3450292,57.9701637 L5.11500975,57.9701637 C4.17384795,57.9701637 3.40995322,58.7340585 3.40995322,59.6752203 L3.40995322,80.1352593 C3.40995322,81.0762612 4.17384795,81.8401559 5.11500975,81.8401559 L15.3450292,81.8401559 C16.286191,81.8401559 17.0500858,81.0762612 17.0500858,80.1350994 L17.0500858,59.6750604 C17.0500858,58.7338986 16.286191,57.9701637 15.3450292,57.9701637 Z M13.6399727,78.4302027 L6.82006628,78.4302027 L6.82006628,61.380117 L13.6401326,61.380117 L13.6401326,78.4302027 L13.6399727,78.4302027 Z" id="Shape"></path>
                <path d="M35.8050682,40.920078 L25.5750487,40.920078 C24.6338869,40.920078 23.8699922,41.6839727 23.8699922,42.6251345 L23.8699922,80.1352593 C23.8699922,81.0764211 24.6338869,81.8403158 25.5750487,81.8403158 L35.8050682,81.8403158 C36.74623,81.8403158 37.5101248,81.0764211 37.5101248,80.1352593 L37.5101248,42.6251345 C37.5101248,41.6839727 36.74623,40.920078 35.8050682,40.920078 Z M34.1000117,78.4302027 L27.2799454,78.4302027 L27.2799454,44.3300312 L34.1000117,44.3300312 L34.1000117,78.4302027 Z" id="Shape"></path>
                <path d="M56.2651072,47.7401442 L46.0350877,47.7401442 C45.0939259,47.7401442 44.3300312,48.504039 44.3300312,49.4452008 L44.3300312,80.1352593 C44.3300312,81.0764211 45.0939259,81.8403158 46.0350877,81.8403158 L56.2651072,81.8403158 C57.206269,81.8403158 57.9701637,81.0764211 57.9701637,80.1352593 L57.9701637,49.4452008 C57.9701637,48.5038791 57.206269,47.7401442 56.2651072,47.7401442 Z M54.5600507,78.4302027 L47.7399844,78.4302027 L47.7399844,51.1500975 L54.5600507,51.1500975 L54.5600507,78.4302027 L54.5600507,78.4302027 Z" id="Shape"></path>
                <path d="M76.7251462,27.2801053 L66.4951267,27.2801053 C65.5539649,27.2801053 64.7900702,28.044 64.7900702,28.9851618 L64.7900702,80.1352593 C64.7900702,81.0764211 65.5539649,81.8403158 66.4951267,81.8403158 L76.7251462,81.8403158 C77.666308,81.8403158 78.4302027,81.0764211 78.4302027,80.1352593 L78.4302027,28.9851618 C78.4302027,28.0438402 77.666308,27.2801053 76.7251462,27.2801053 Z M75.0200897,78.4302027 L68.2000234,78.4302027 L68.2000234,30.6900585 L75.0200897,30.6900585 L75.0200897,78.4302027 L75.0200897,78.4302027 Z" id="Shape"></path>
                <path d="M10.2300195,30.6900585 C6.46872904,30.6900585 3.40995322,33.7488343 3.40995322,37.5101248 C3.40995322,41.2714152 6.46872904,44.330191 10.2300195,44.330191 C13.9913099,44.330191 17.0500858,41.2714152 17.0500858,37.5101248 C17.0500858,33.7488343 13.9913099,30.6900585 10.2300195,30.6900585 Z M10.2300195,40.920078 C8.34769591,40.920078 6.82006628,39.3889318 6.82006628,37.5101248 C6.82006628,35.6311579 8.34769591,34.1001715 10.2300195,34.1001715 C12.1123431,34.1001715 13.6399727,35.6313177 13.6399727,37.5101248 C13.6399727,39.3889318 12.1123431,40.920078 10.2300195,40.920078 Z" id="Shape"></path>
                <path d="M30.6900585,13.6399727 C26.928768,13.6399727 23.8699922,16.6987485 23.8699922,20.460039 C23.8699922,24.2213294 26.928768,27.2801053 30.6900585,27.2801053 C34.4513489,27.2801053 37.5101248,24.2213294 37.5101248,20.460039 C37.5101248,16.6987485 34.4513489,13.6399727 30.6900585,13.6399727 Z M30.6900585,23.8699922 C28.8077349,23.8699922 27.2801053,22.338846 27.2801053,20.460039 C27.2801053,18.5810721 28.8077349,17.0500858 30.6900585,17.0500858 C32.5723821,17.0500858 34.1000117,18.581232 34.1000117,20.460039 C34.1000117,22.3390058 32.5723821,23.8699922 30.6900585,23.8699922 Z" id="Shape"></path>
                <path d="M51.1500975,20.460039 C47.388807,20.460039 44.3300312,23.5188148 44.3300312,27.2801053 C44.3300312,31.0413957 47.388807,34.1001715 51.1500975,34.1001715 C54.9113879,34.1001715 57.9701637,31.0413957 57.9701637,27.2801053 C57.9701637,23.5188148 54.9113879,20.460039 51.1500975,20.460039 Z M51.1500975,30.6900585 C49.2677739,30.6900585 47.7401442,29.1589123 47.7401442,27.2801053 C47.7401442,25.4011384 49.2677739,23.870152 51.1500975,23.870152 C53.0324211,23.870152 54.5600507,25.4012982 54.5600507,27.2801053 C54.5600507,29.1589123 53.0324211,30.6900585 51.1500975,30.6900585 Z" id="Shape"></path>
                <path d="M71.6101365,0 C67.848846,0 64.7900702,3.05877583 64.7900702,6.82006628 C64.7900702,10.5813567 67.848846,13.6401326 71.6101365,13.6401326 C75.3714269,13.6401326 78.4302027,10.5813567 78.4302027,6.82006628 C78.4302027,3.05877583 75.3714269,0 71.6101365,0 Z M71.6101365,10.2300195 C69.7278129,10.2300195 68.2001832,8.69887329 68.2001832,6.82006628 C68.2001832,4.94109942 69.7278129,3.41011306 71.6101365,3.41011306 C73.49246,3.41011306 75.0200897,4.94125926 75.0200897,6.82006628 C75.0200897,8.69887329 73.49246,10.2300195 71.6101365,10.2300195 Z" id="Shape"></path>
                <path d="M69.2027251,9.22747758 C68.5377739,8.56252632 67.4567485,8.56252632 66.7917973,9.22747758 L53.5610253,22.4582495 C52.8960741,23.1232008 52.8960741,24.2042261 53.5610253,24.8691774 C53.8952593,25.1998947 54.3316335,25.3670916 54.7681676,25.3670916 C55.2011852,25.3670916 55.6377193,25.2034113 55.9719532,24.8691774 L69.2027251,11.6384055 C69.8676764,10.9734542 69.8676764,9.89242885 69.2027251,9.22747758 Z" id="Path"></path>
                <path d="M47.0273996,23.3449045 L36.0744055,20.2213918 C35.1570604,19.9554113 34.2261287,20.4873723 33.9703782,21.3944873 C33.711271,22.3016023 34.2363587,23.2427641 35.1399571,23.5018713 L46.0929513,26.625384 C46.2497583,26.6696608 46.4067251,26.6901209 46.5601754,26.6901209 C47.3036101,26.6901209 47.9855049,26.2024366 48.2003353,25.4522885 C48.4596023,24.5486901 47.9345146,23.6040117 47.0273996,23.3449045 Z" id="Path"></path>
                <path d="M28.0302534,22.5845263 C27.4437856,21.8479649 26.3729903,21.7285614 25.6364288,22.3116725 L12.7806511,32.562152 C12.0440897,33.1521365 11.9213294,34.2227719 12.5113138,34.9593333 C12.8489045,35.3821209 13.3468187,35.6004678 13.8445731,35.6004678 C14.2162105,35.6004678 14.5913645,35.4777076 14.9051384,35.2321871 L27.7609162,24.9817076 C28.4974776,24.3917232 28.6202378,23.3210877 28.0302534,22.5845263 Z" id="Path"></path>
            </g>
        </g>
    </g>
</svg>