<?xml version="1.0" encoding="UTF-8"?>
<svg width="87px" height="86px" viewBox="0 0 87 86" version="1.1" xmlns="http://www.w3.org/2000/svg" xmlns:xlink="http://www.w3.org/1999/xlink">
    <!-- Generator: Sketch 53.2 (72643) - https://sketchapp.com -->
    <title>cont_banner4</title>
    <desc>Created with Sketch.</desc>
    <g id="Page-1" stroke="none" stroke-width="1" fill="none" fill-rule="evenodd">
        <g id="Artboard" transform="translate(-1368.000000, -3603.000000)" fill="#FF614C" fill-rule="nonzero">
            <g id="cont_banner4" transform="translate(1368.000000, 3603.000000)">
                <path d="M60.8103093,21.6791667 C60.9896907,21.9479167 61.2587629,22.1270833 61.6175258,22.1270833 C61.7969072,22.1270833 61.8865979,22.1270833 62.0659794,22.0375 C62.514433,21.76875 62.6041237,21.23125 62.4247423,20.7833333 C60.0927835,16.7520833 56.7742268,13.16875 52.9175258,10.5708333 C52.4690722,10.3020833 51.9309278,10.3916667 51.6618557,10.8395833 C51.3927835,11.2875 51.4824742,11.825 51.9309278,12.09375 C55.6082474,14.5125 58.657732,17.8270833 60.8103093,21.6791667 Z" id="Path"></path>
                <path d="M83.5020619,70.68125 L66.7298969,54.01875 C69.9587629,48.64375 71.7525773,42.4625 71.7525773,35.8333333 C71.7525773,16.0354167 55.6979381,0 35.8762887,0 C16.0546392,0 0,16.0354167 0,35.8333333 C0,55.63125 16.0546392,71.6666667 35.8762887,71.6666667 C42.5134021,71.6666667 48.7020619,69.875 54.0835052,66.65 L70.7659794,83.3125 C72.5597938,85.1041667 74.8020619,86 77.1340206,86 C79.4659794,86 81.7082474,85.1041667 83.5020619,83.4020833 C87,79.9083333 87,74.175 83.5020619,70.68125 Z M3.58762887,35.8333333 C3.58762887,18.00625 18.0278351,3.58333333 35.8762887,3.58333333 C53.7247423,3.58333333 68.1649485,18.00625 68.1649485,35.8333333 C68.1649485,53.6604167 53.7247423,68.0833333 35.8762887,68.0833333 C18.0278351,68.0833333 3.58762887,53.6604167 3.58762887,35.8333333 Z M80.9010309,80.8041667 C78.8381443,82.8645833 75.4298969,82.8645833 73.2773196,80.8041667 L57.1329897,64.5895833 C60.0030928,62.4395833 62.6041237,59.8416667 64.756701,56.975 L80.9907216,73.1 C83.0536082,75.3395833 83.0536082,78.74375 80.9010309,80.8041667 Z" id="Shape"></path>
                <path d="M35.8762887,12.5416667 C23.0505155,12.5416667 12.556701,23.0229167 12.556701,35.8333333 C12.556701,48.64375 23.0505155,59.125 35.8762887,59.125 C48.7020619,59.125 59.1958763,48.64375 59.1958763,35.8333333 C59.1958763,23.0229167 48.7020619,12.5416667 35.8762887,12.5416667 Z M55.6082474,35.475 L36.7731959,35.475 L36.7731959,16.125 C47.0876289,16.5729167 55.428866,25.0833333 55.6082474,35.475 Z M16.1443299,35.8333333 C16.1443299,25.2625 24.485567,16.6625 34.9793814,16.125 L34.9793814,36.3708333 C34.9793814,36.4604167 34.9793814,36.6395833 35.0690722,36.7291667 C35.1587629,36.81875 35.1587629,36.9083333 35.2484536,36.9979167 L48.8814433,50.6145833 C45.3835052,53.6604167 40.8092784,55.5416667 35.8762887,55.5416667 C25.0237113,55.5416667 16.1443299,46.6729167 16.1443299,35.8333333 Z M50.1371134,49.45 L38.028866,37.2666667 L55.5185567,37.2666667 C55.1597938,42.0145833 53.1865979,46.225 50.1371134,49.45 Z" id="Shape"></path>
                <path d="M77.1340206,73.4583333 C75.1608247,73.4583333 73.5463918,75.0708333 73.5463918,77.0416667 C73.5463918,79.0125 75.1608247,80.625 77.1340206,80.625 C79.1072165,80.625 80.7216495,79.0125 80.7216495,77.0416667 C80.7216495,75.0708333 79.1072165,73.4583333 77.1340206,73.4583333 Z M77.1340206,78.8333333 C76.1474227,78.8333333 75.3402062,78.0270833 75.3402062,77.0416667 C75.3402062,76.05625 76.1474227,75.25 77.1340206,75.25 C78.1206186,75.25 78.9278351,76.05625 78.9278351,77.0416667 C78.9278351,78.0270833 78.1206186,78.8333333 77.1340206,78.8333333 Z" id="Shape"></path>
            </g>
        </g>
    </g>
</svg>