<?xml version="1.0" encoding="utf-8"?>
<!-- Generator: Adobe Illustrator 17.1.0, SVG Export Plug-In . SVG Version: 6.00 Build 0)  -->
<!DOCTYPE svg PUBLIC "-//W3C//DTD SVG 1.1//EN" "http://www.w3.org/Graphics/SVG/1.1/DTD/svg11.dtd">
<svg version="1.1" id="Layer_1" xmlns="http://www.w3.org/2000/svg" xmlns:xlink="http://www.w3.org/1999/xlink" x="0px" y="0px"
	 viewBox="0 0 48 48" style="enable-background:new 0 0 48 48;" xml:space="preserve">
<style type="text/css">
	.st0{fill:#FF6148;}
</style>
<path class="st0" d="M30.8,31l-0.7-3.7C33.6,24.2,36,18.5,36,13c0-8.3-5.4-13-12-13c-6.6,0-12,4.7-12,13c0,5.5,2.4,11.2,5.9,14.4
	L17.2,31c-1.8,0.1-3.5,0.3-5.1,0.7l-0.7-1.3c2.7-2.1,3.5-5.9,1.7-9C11.8,19.3,9.5,18,7,18c-1.2,0-2.4,0.3-3.5,0.9
	c-3.3,1.9-4.5,6.2-2.6,9.6C2.2,30.7,4.5,32,7,32c0.9,0,1.8-0.2,2.6-0.5l0.5,0.8C4.1,34.5,0,38.9,0,44v4h48v-4
	C48,37,40.4,31.3,30.8,31z M2.7,27.5c-1.4-2.4-0.6-5.5,1.8-6.8C5.3,20.2,6.1,20,7,20c1.8,0,3.4,1,4.3,2.5c1.4,2.4,0.6,5.5-1.8,6.8
	C8.7,29.8,7.9,30,7,30C5.2,30,3.6,29,2.7,27.5z M24,2c6,0,9.9,4.2,10,10.7c-1.2-0.7-2-2.6-2.7-4.6c-0.1-0.3-0.3-0.5-0.6-0.6
	c-0.3-0.1-0.6-0.1-0.9,0.1C28.5,8.5,26.3,9,24,9c-2.3,0-4.5-0.5-5.8-1.4c-0.3-0.2-0.6-0.2-0.9-0.1c-0.3,0.1-0.5,0.3-0.6,0.6
	c-0.6,1.9-1.4,3.9-2.7,4.6C14.1,6.2,18,2,24,2z M14.1,14.9c2.3-0.6,3.4-3.1,4.1-5c1.6,0.7,3.6,1.1,5.8,1.1c2.2,0,4.2-0.4,5.8-1.1
	c0.7,1.9,1.8,4.4,4.1,5C33.2,21.7,28.6,28,24,28C19.4,28,14.8,21.7,14.1,14.9z M24,30c1.5,0,3-0.5,4.3-1.3L29,32
	c-0.1,0.7-2.4,2.1-5,2.9c-2.6-0.8-4.9-2.2-5-2.9l0.7-3.3C21,29.5,22.5,30,24,30z M2,44c0-4.4,3.7-8.1,9.1-9.9l2,3.5
	c0.2,0.3,0.5,0.5,0.9,0.5c0.2,0,0.3,0,0.5-0.1c0.5-0.3,0.6-0.9,0.4-1.4l-1.8-3.1c1.3-0.3,2.7-0.5,4.2-0.5c0.9,1.9,4,3.1,5.8,3.7V46
	H2V44z M46,46H25v-9.3c1.7-0.6,4.9-1.9,5.8-3.7C39.2,33.3,46,38.1,46,44V46z M21,16.5c0-0.8-0.7-1.5-1.5-1.5S18,15.7,18,16.5
	s0.7,1.5,1.5,1.5S21,17.3,21,16.5z M19,16.5c0-0.3,0.2-0.5,0.5-0.5s0.5,0.2,0.5,0.5S19.8,17,19.5,17S19,16.8,19,16.5z M28.5,18
	c0.8,0,1.5-0.7,1.5-1.5S29.3,15,28.5,15S27,15.7,27,16.5S27.7,18,28.5,18z M28.5,16c0.3,0,0.5,0.2,0.5,0.5S28.8,17,28.5,17
	S28,16.8,28,16.5S28.2,16,28.5,16z M22.5,22.5c0-0.3,0.2-0.5,0.5-0.5h2c0.3,0,0.5,0.2,0.5,0.5S25.3,23,25,23h-2
	C22.7,23,22.5,22.8,22.5,22.5z M22.5,25.5c0-0.3,0.2-0.5,0.5-0.5h2c0.3,0,0.5,0.2,0.5,0.5S25.3,26,25,26h-2
	C22.7,26,22.5,25.8,22.5,25.5z"/>
</svg>
