<?xml version="1.0" encoding="utf-8"?>
<!-- Generator: Adobe Illustrator 17.1.0, SVG Export Plug-In . SVG Version: 6.00 Build 0)  -->
<!DOCTYPE svg PUBLIC "-//W3C//DTD SVG 1.1//EN" "http://www.w3.org/Graphics/SVG/1.1/DTD/svg11.dtd">
<svg version="1.1" id="Layer_1" xmlns="http://www.w3.org/2000/svg" xmlns:xlink="http://www.w3.org/1999/xlink" x="0px" y="0px"
	 viewBox="0 0 48 48" style="enable-background:new 0 0 48 48;" xml:space="preserve">
<style type="text/css">
	.st0{fill:#FF6148;}
</style>
<path class="st0" d="M19.5,15c-0.8,0-1.5,0.7-1.5,1.5s0.7,1.5,1.5,1.5s1.5-0.7,1.5-1.5S20.3,15,19.5,15z M19.5,17
	c-0.3,0-0.5-0.2-0.5-0.5s0.2-0.5,0.5-0.5s0.5,0.2,0.5,0.5S19.8,17,19.5,17z M28.5,15c-0.8,0-1.5,0.7-1.5,1.5s0.7,1.5,1.5,1.5
	s1.5-0.7,1.5-1.5S29.3,15,28.5,15z M28.5,17c-0.3,0-0.5-0.2-0.5-0.5s0.2-0.5,0.5-0.5s0.5,0.2,0.5,0.5S28.8,17,28.5,17z M25.5,22.5
	c0,0.3-0.2,0.5-0.5,0.5h-2c-0.3,0-0.5-0.2-0.5-0.5S22.7,22,23,22h2C25.3,22,25.5,22.2,25.5,22.5z M25.5,25.5c0,0.3-0.2,0.5-0.5,0.5
	h-2c-0.3,0-0.5-0.2-0.5-0.5S22.7,25,23,25h2C25.3,25,25.5,25.2,25.5,25.5z M47,17c0.6,0,1-0.4,1-1v-4c0-0.1,0-0.3-0.1-0.4
	c-0.1-0.2-0.3-0.4-0.5-0.5C47.3,11,47.1,11,47,11h-4c-0.6,0-1,0.4-1,1s0.4,1,1,1h1.6L37,20.6l-1.8-1.8c0.5-1.9,0.8-3.8,0.8-5.8
	c0-8.3-5.4-13-12-13c-6.6,0-12,4.7-12,13c0,3.8,1.1,7.6,2.9,10.7L12,26.6l-3.3-3.3c-0.4-0.4-1-0.4-1.4,0l-7,7c-0.4,0.4-0.4,1,0,1.4
	C0.5,31.9,0.7,32,1,32s0.5-0.1,0.7-0.3L8,25.4l3.3,3.3c0.2,0.2,0.5,0.3,0.7,0.3s0.5-0.1,0.7-0.3l3.4-3.4c0.6,0.8,1.2,1.4,1.8,2
	L17.2,31C7.6,31.3,0,37,0,44v4h48v-4c0-7-7.6-12.7-17.2-13l-0.7-3.7c1.8-1.6,3.3-3.9,4.4-6.5l1.8,1.8c0.2,0.2,0.5,0.3,0.7,0.3
	s0.5-0.1,0.7-0.3l8.3-8.3V16C46,16.6,46.4,17,47,17z M24,2c6,0,9.9,4.2,10,10.7c-1.2-0.7-2-2.6-2.7-4.6c-0.1-0.3-0.3-0.5-0.6-0.6
	s-0.6-0.1-0.9,0.1C28.5,8.5,26.3,9,24,9c-2.3,0-4.5-0.5-5.8-1.4c-0.3-0.2-0.6-0.2-0.9-0.1c-0.3,0.1-0.5,0.3-0.6,0.6
	c-0.6,1.9-1.4,3.9-2.7,4.6C14.1,6.2,18,2,24,2z M46,44v2H2v-2c0-5.9,6.8-10.7,15.2-11c1,2.2,5.1,3.5,6.5,3.9L24,37l0.3-0.1
	c1.4-0.4,5.4-1.8,6.5-3.9C39.2,33.3,46,38.1,46,44z M29,32c-0.1,0.7-2.4,2.1-5,2.9c-2.6-0.8-4.9-2.2-5-2.9l0.7-3.3
	C21,29.5,22.5,30,24,30s3-0.5,4.3-1.3L29,32z M24,28c-4.6,0-9.2-6.3-9.9-13.1c2.3-0.6,3.4-3.1,4.1-5c1.6,0.7,3.6,1.1,5.8,1.1
	c2.2,0,4.2-0.4,5.8-1.1c0.7,1.9,1.8,4.4,4.1,5c-0.1,1.2-0.4,2.5-0.7,3.6c-0.1,0.1-0.1,0.3-0.1,0.4C31.3,24,27.7,28,24,28z"/>
</svg>
