<?xml version="1.0" encoding="utf-8"?>
<!-- Generator: Adobe Illustrator 17.1.0, SVG Export Plug-In . SVG Version: 6.00 Build 0)  -->
<!DOCTYPE svg PUBLIC "-//W3C//DTD SVG 1.1//EN" "http://www.w3.org/Graphics/SVG/1.1/DTD/svg11.dtd">
<svg version="1.1" id="Layer_1" xmlns="http://www.w3.org/2000/svg" xmlns:xlink="http://www.w3.org/1999/xlink" x="0px" y="0px"
	 viewBox="0 0 48 48" style="enable-background:new 0 0 48 48;" xml:space="preserve">
<style type="text/css">
	.st0{fill:#FF6148;}
</style>
<path class="st0" d="M30.8,31l-0.7-3.7C33.6,24.2,36,18.5,36,13c0-8.3-5.4-13-12-13c-6.6,0-12,4.7-12,13c0,5.5,2.4,11.2,5.9,14.4
	L17.2,31C7.6,31.3,0,37,0,44v4h48v-4C48,37,40.4,31.3,30.8,31z M15.7,14c1.3-1.1,2-2.8,2.5-4.1c1.6,0.7,3.6,1.1,5.8,1.1
	c2.2,0,4.2-0.4,5.8-1.1c0.5,1.4,1.2,3.1,2.5,4.1H15.7z M24,2c6,0,9.9,4.2,10,10.7c-1.2-0.7-2-2.6-2.7-4.6c-0.1-0.3-0.3-0.5-0.6-0.6
	c-0.3-0.1-0.6-0.1-0.9,0.1C28.5,8.5,26.3,9,24,9c-2.3,0-4.5-0.5-5.8-1.4c-0.3-0.2-0.6-0.2-0.9-0.1c-0.3,0.1-0.5,0.3-0.6,0.6
	c-0.6,1.9-1.4,3.9-2.7,4.6C14.1,6.2,18,2,24,2z M14.5,17.1C15.3,18.8,17,20,19,20c2.4,0,4.4-1.7,4.9-4h0.2c0.5,2.3,2.5,4,4.9,4
	c2,0,3.7-1.2,4.5-2.9C32.2,23,28.1,28,24,28S15.8,23,14.5,17.1z M24,30c1.5,0,3-0.5,4.3-1.3L29,32c-0.1,0.7-2.4,2.1-5,2.9
	c-2.6-0.8-4.9-2.2-5-2.9l0.7-3.3C21,29.5,22.5,30,24,30z M24.8,36.8L24,41.4l-0.8-4.6c0.2,0.1,0.4,0.1,0.6,0.2L24,37l0.3-0.1
	C24.4,36.9,24.6,36.9,24.8,36.8z M2,44c0-5.9,6.8-10.7,15.2-11c0.6,1.3,2.2,2.2,3.8,2.9c0,0.1,0,0.1,0,0.2l1.8,9.8H2V44z M46,46
	H25.2l1.8-9.8c0-0.1,0-0.1,0-0.2c1.5-0.7,3.2-1.7,3.8-2.9C39.2,33.3,46,38.1,46,44V46z M22.5,22.5c0-0.3,0.2-0.5,0.5-0.5h2
	c0.3,0,0.5,0.2,0.5,0.5S25.3,23,25,23h-2C22.7,23,22.5,22.8,22.5,22.5z M22.5,25.5c0-0.3,0.2-0.5,0.5-0.5h2c0.3,0,0.5,0.2,0.5,0.5
	S25.3,26,25,26h-2C22.7,26,22.5,25.8,22.5,25.5z"/>
</svg>
