<?xml version="1.0" encoding="utf-8"?>
<!-- Generator: Adobe Illustrator 17.1.0, SVG Export Plug-In . SVG Version: 6.00 Build 0)  -->
<!DOCTYPE svg PUBLIC "-//W3C//DTD SVG 1.1//EN" "http://www.w3.org/Graphics/SVG/1.1/DTD/svg11.dtd">
<svg version="1.1" id="Layer_1" xmlns="http://www.w3.org/2000/svg" xmlns:xlink="http://www.w3.org/1999/xlink" x="0px" y="0px"
	 viewBox="0 0 48 48" style="enable-background:new 0 0 48 48;" xml:space="preserve">
<style type="text/css">
	.st0{fill:#FF6148;}
</style>
<path class="st0" d="M48,44c0-7-7.6-12.7-17.2-13l-0.7-3.7C33.6,24.2,36,18.5,36,13c0-8.3-5.4-13-12-13c-6.6,0-12,4.7-12,13
	c0,5.5,2.4,11.2,5.9,14.4L17.2,31C7.6,31.3,0,37,0,44v3h20.6c0.3,0.6,1,1,1.7,1h3.3c0.7,0,1.4-0.4,1.7-1H48V44z M24,2
	c6,0,9.9,4.2,10,10.7c-1.2-0.7-2-2.6-2.7-4.6c-0.1-0.3-0.3-0.5-0.6-0.6c-0.3-0.1-0.6-0.1-0.9,0.1C28.5,8.5,26.3,9,24,9
	c-2.3,0-4.5-0.5-5.8-1.4c-0.3-0.2-0.6-0.2-0.9-0.1c-0.3,0.1-0.5,0.3-0.6,0.6c-0.6,1.9-1.4,3.9-2.7,4.6C14.1,6.2,18,2,24,2z
	 M14.1,14.9c2.3-0.6,3.4-3.1,4.1-5c1.6,0.7,3.6,1.1,5.8,1.1c2.2,0,4.2-0.4,5.8-1.1c0.7,1.9,1.8,4.4,4.1,5C33.2,21.7,28.6,28,24,28
	C19.4,28,14.8,21.7,14.1,14.9z M24,30c1.5,0,3-0.5,4.3-1.3L29,32c-0.1,0.7-2.4,2.1-5,2.9c-2.6-0.8-4.9-2.2-5-2.9l0.7-3.3
	C21,29.5,22.5,30,24,30z M2,44c0-5.9,6.8-10.7,15.2-11c0.7,1.5,3,2.6,4.7,3.3L20.5,45H2V44z M46,45H27.5l-1.4-8.7
	c1.7-0.7,4-1.8,4.7-3.3C39.2,33.3,46,38.1,46,44V45z M21,16.5c0-0.8-0.7-1.5-1.5-1.5S18,15.7,18,16.5s0.7,1.5,1.5,1.5
	S21,17.3,21,16.5z M19,16.5c0-0.3,0.2-0.5,0.5-0.5s0.5,0.2,0.5,0.5S19.8,17,19.5,17S19,16.8,19,16.5z M28.5,18
	c0.8,0,1.5-0.7,1.5-1.5S29.3,15,28.5,15S27,15.7,27,16.5S27.7,18,28.5,18z M28.5,16c0.3,0,0.5,0.2,0.5,0.5S28.8,17,28.5,17
	S28,16.8,28,16.5S28.2,16,28.5,16z M22.5,22.5c0-0.3,0.2-0.5,0.5-0.5h2c0.3,0,0.5,0.2,0.5,0.5S25.3,23,25,23h-2
	C22.7,23,22.5,22.8,22.5,22.5z M22.5,25.5c0-0.3,0.2-0.5,0.5-0.5h2c0.3,0,0.5,0.2,0.5,0.5S25.3,26,25,26h-2
	C22.7,26,22.5,25.8,22.5,25.5z"/>
</svg>
