<?xml version="1.0" encoding="UTF-8"?>
<svg width="22px" height="31px" viewBox="0 0 22 31" version="1.1" xmlns="http://www.w3.org/2000/svg" xmlns:xlink="http://www.w3.org/1999/xlink">
    <!-- Generator: Sketch 53.2 (72643) - https://sketchapp.com -->
    <title>cursor-2</title>
    <desc>Created with Sketch.</desc>
    <g id="Page-1" stroke="none" stroke-width="1" fill="none" fill-rule="evenodd">
        <g id="Artboard-Copy" transform="translate(-1203.000000, -643.000000)" fill="#FF6148" fill-rule="nonzero" stroke="#FF6148" stroke-width="0.7">
            <g id="cursor-2" transform="translate(1204.000000, 642.000000)">
                <path d="M19.1486042,16.803612 L2.61147193,2.26814943 C1.96625826,1.70103302 0.983470534,1.76434335 0.416354117,2.40955703 C0.167015841,2.69323153 0.0294105011,3.05793723 0.0292170254,3.43561534 L0.0181833767,24.9740655 C0.0177433188,25.8330891 0.71376279,26.529822 1.57278638,26.5302621 C1.9616089,26.5304613 2.33640581,26.3850232 2.62332176,26.122607 L6.67801149,22.4141481 L10.5905977,30.9396316 L16.6949023,28.3799864 L12.7823161,19.8545029 L18.216063,19.5244126 C19.073506,19.4723245 19.7263751,18.7350038 19.674287,17.8775608 C19.6491539,17.4638345 19.4599273,17.0772522 19.1486042,16.803612 Z M14.1965115,27.4481131 L11.5653621,28.5514834 L7.32555747,19.3131813 L1.91475862,24.2619415 L1.92512644,4.12747173 L17.4303218,17.7559298 L9.9567069,18.2098713 L14.1965115,27.4481131 Z" id="Shape"></path>
            </g>
        </g>
    </g>
</svg>