<?xml version="1.0" encoding="UTF-8"?>
<svg width="42px" height="27px" viewBox="0 0 42 27" version="1.1" xmlns="http://www.w3.org/2000/svg" xmlns:xlink="http://www.w3.org/1999/xlink">
    <!-- Generator: Sketch 53.2 (72643) - https://sketchapp.com -->
    <title>zeppelin</title>
    <desc>Created with Sketch.</desc>
    <g id="Page-1" stroke="none" stroke-width="1" fill="none" fill-rule="evenodd">
        <g id="Artboard-Copy" transform="translate(-1197.000000, -696.000000)" fill="#FF6148" fill-rule="nonzero">
            <g id="zeppelin" transform="translate(1198.000000, 697.000000)">
                <path d="M27.5713366,0.21853229 C27.2337084,0.00123287671 26.8063777,-0.0360273973 26.4347299,0.119589041 L8.68919178,7.53939335 L3.80112524,7.53939335 C1.7217593,7.53939335 0.0300880626,9.18980431 0.0300880626,11.218454 L0.0300880626,13.7233464 C0.0300880626,15.7519961 1.7217593,17.402407 3.80112524,17.402407 L3.88136008,17.402407 L3.88136008,23.7429159 C3.88136008,24.3913699 4.42005675,24.9170841 5.08488258,24.9170841 L8.9361546,24.9170841 C9.60098043,24.9170841 10.1396771,24.3913699 10.1396771,23.7429159 L10.1396771,18.0089041 L26.4347299,24.8222114 C27.2162172,25.1490998 28.1122798,24.57 28.1122798,23.7429159 L28.1122798,1.19888454 C28.1122798,0.804050881 27.9089648,0.435675147 27.5713366,0.21853229 Z M7.73263209,22.568591 L6.28840509,22.568591 L6.28840509,17.4022505 L7.73263209,17.4022505 L7.73263209,22.568591 Z M7.73263209,15.0539139 L3.80112524,15.0539139 C3.04900391,15.0539139 2.43713307,14.4569667 2.43713307,13.7231898 L2.43713307,11.2182975 C2.43713307,10.4845205 3.04900391,9.88757339 3.80112524,9.88757339 L7.73263209,9.88757339 L7.73263209,15.0539139 Z M25.7052348,21.9620939 L10.1396771,15.4539139 L10.1396771,9.48757339 L25.7052348,2.97939335 L25.7052348,21.9620939 Z" id="Shape" stroke="#FF5139" stroke-width="0.3"></path>
                <path d="M35.9752935,12.4707436 C35.9752935,13.1191977 36.5139902,13.6449119 37.178816,13.6449119 L39.7463307,13.6449119 C40.4111566,13.6449119 40.9498532,13.1191977 40.9498532,12.4707436 C40.9498532,11.8222896 40.4111566,11.2965753 39.7463307,11.2965753 L37.178816,11.2965753 C36.5139902,11.2965753 35.9752935,11.8222896 35.9752935,12.4707436 Z" id="Path"></path>
                <path d="M35.8040724,8.63528376 C36.0081898,8.63528376 36.2153562,8.58455969 36.4047104,8.47778865 L38.6281781,7.22534247 C39.2037828,6.90111546 39.401,6.18299413 39.0686673,5.62142857 C38.7364951,5.05970646 38.0000998,4.86745597 37.4246556,5.19168297 L35.2011879,6.44412916 C34.6255832,6.76835616 34.4283659,7.4864775 34.7606986,8.04804305 C34.9834305,8.42471624 35.388135,8.63528376 35.8040724,8.63528376 Z" id="Path"></path>
                <path d="M35.2011879,18.4973581 L37.4246556,19.7498043 C37.9931996,20.0701174 38.7409883,19.873953 39.0686673,19.3200587 C39.401,18.7584932 39.2037828,18.0403718 38.6281781,17.7161448 L36.4047104,16.4636986 C35.8286243,16.1391585 35.0928708,16.3318787 34.7606986,16.8934442 C34.4282055,17.4550098 34.6255832,18.1731311 35.2011879,18.4973581 Z" id="Path"></path>
            </g>
        </g>
    </g>
</svg>