<?xml version="1.0" encoding="utf-8"?>
<!-- Generator: Adobe Illustrator 17.1.0, SVG Export Plug-In . SVG Version: 6.00 Build 0)  -->
<!DOCTYPE svg PUBLIC "-//W3C//DTD SVG 1.1//EN" "http://www.w3.org/Graphics/SVG/1.1/DTD/svg11.dtd">
<svg version="1.1" id="Layer_1" xmlns="http://www.w3.org/2000/svg" xmlns:xlink="http://www.w3.org/1999/xlink" x="0px" y="0px"
	 viewBox="0 0 96 96" style="enable-background:new 0 0 96 96;" xml:space="preserve">
<style type="text/css">
	.st0{fill:#FF614A;}
</style>
<path class="st0" d="M90,22H66v-8c0-3.3-2.7-6-6-6H36c-3.3,0-6,2.7-6,6v8H6c-3.3,0-6,2.7-6,6v54c0,3.3,2.7,6,6,6h84c3.3,0,6-2.7,6-6
	V28C96,24.7,93.3,22,90,22z M34,14c0-1.1,0.9-2,2-2h24c1.1,0,2,0.9,2,2v8h-3v-6c0-0.6-0.4-1-1-1H38c-0.6,0-1,0.4-1,1v6h-3V14z
	 M57,22H39v-5h18V22z M6,26h26h32h26c1.1,0,2,0.9,2,2v22.9l-13.3,8c-3.4,2.1-7.3,3.1-11.3,3.1H28.6c-4,0-7.9-1.1-11.3-3.1L4,50.9V28
	C4,26.9,4.9,26,6,26z M44,70h8v3c0,1.1-0.9,2-2,2h-4c-1.1,0-2-0.9-2-2V70z M52,68h-8v-2h8V68z M90,84H6c-1.1,0-2-0.9-2-2V55.5
	l11.3,6.8c4,2.4,8.7,3.7,13.4,3.7H42v7c0,2.2,1.8,4,4,4h4c2.2,0,4-1.8,4-4v-7h13.4c4.7,0,9.3-1.3,13.4-3.7L92,55.5V82
	C92,83.1,91.1,84,90,84z M36.6,43.4c-0.8-0.8-0.8-2,0-2.8s2-0.8,2.8,0l6.6,6.6l12.6-12.6c0.8-0.8,2-0.8,2.8,0s0.8,2,0,2.8l-14,14
	C47,51.8,46.5,52,46,52s-1-0.2-1.4-0.6L36.6,43.4z"/>
</svg>
