<?xml version="1.0" encoding="utf-8"?>
<!-- Generator: Adobe Illustrator 17.1.0, SVG Export Plug-In . SVG Version: 6.00 Build 0)  -->
<!DOCTYPE svg PUBLIC "-//W3C//DTD SVG 1.1//EN" "http://www.w3.org/Graphics/SVG/1.1/DTD/svg11.dtd">
<svg version="1.1" id="Layer_1" xmlns="http://www.w3.org/2000/svg" xmlns:xlink="http://www.w3.org/1999/xlink" x="0px" y="0px"
	 viewBox="0 0 96 96" style="enable-background:new 0 0 96 96;" xml:space="preserve">
<style type="text/css">
	.st0{fill:#FF614A;}
</style>
<path class="st0" d="M95.5,92.7L50,37.3V18.4c0,0,0,0,0,0v-16c0-1-0.7-1.8-1.6-2C46.8,0.2,45.3,0,43.7,0c-3.7,0-7,0.9-10.3,1.7
	c-3.1,0.8-6,1.6-9.2,1.6c-1.3,0-2.6-0.1-3.9-0.4c-0.6-0.1-1.2,0-1.7,0.4S18,4.3,18,4.9v16c0,1,0.7,1.8,1.6,2
	c1.6,0.3,3.1,0.5,4.7,0.5c0,0,0,0,0,0c3.7,0,7-0.9,10.3-1.7c3.1-0.8,6-1.6,9.2-1.6c0.8,0,1.5,0.1,2.3,0.1v17.1L0.5,92.7
	c-0.5,0.6-0.6,1.4-0.3,2.1S1.2,96,2,96h92c0.8,0,1.5-0.4,1.8-1.1S96,93.3,95.5,92.7z M48,41.2L68.4,66l-2.3-1
	c-1.7-0.7-3.7-0.7-5.4,0l-5,2.1c-1.2,0.5-2.6,0.5-3.8,0l-5-2.1c-1.7-0.7-3.7-0.7-5.4,0l-5,2.1c-1.2,0.5-2.6,0.5-3.8,0l-4.5-1.9
	L48,41.2z M24.3,7.3c3.7,0,7-0.9,10.3-1.7c3.1-0.8,6-1.6,9.2-1.6c0.8,0,1.5,0,2.3,0.1v5c-4.5-0.5-8.5,0.6-12.3,1.6
	c-3.8,1-7.5,2-11.7,1.5v-5C22.7,7.3,23.5,7.3,24.3,7.3z M43.7,16c-3.7,0-7.1,0.9-10.3,1.7c-3.1,0.8-6,1.6-9.2,1.6
	c-0.8,0-1.5,0-2.3-0.1v-5c0.8,0.1,1.5,0.1,2.3,0.1c3.6,0,6.8-0.9,10-1.7c3.8-1,7.5-2,11.7-1.5v5C45.3,16,44.5,16,43.7,16z M6.2,92
	l20.6-25.1l5,2.1c1.7,0.7,3.7,0.7,5.4,0l5-2.1c1.2-0.5,2.6-0.5,3.8,0l5,2.1c1.7,0.7,3.7,0.7,5.4,0l5-2.1c1.2-0.5,2.6-0.5,3.8,0
	l5.8,2.4L89.8,92H6.2z"/>
</svg>
