<?xml version="1.0" encoding="utf-8"?>
<!-- Generator: Adobe Illustrator 17.1.0, SVG Export Plug-In . SVG Version: 6.00 Build 0)  -->
<!DOCTYPE svg PUBLIC "-//W3C//DTD SVG 1.1//EN" "http://www.w3.org/Graphics/SVG/1.1/DTD/svg11.dtd">
<svg version="1.1" id="Layer_1" xmlns="http://www.w3.org/2000/svg" xmlns:xlink="http://www.w3.org/1999/xlink" x="0px" y="0px"
	 viewBox="0 0 96 96" style="enable-background:new 0 0 96 96;" xml:space="preserve">
<style type="text/css">
	.st0{fill:#FF614A;}
</style>
<path class="st0" d="M95.7,37.6c-0.4-0.6-1-0.9-1.7-0.9c-0.1,0-0.3,0-0.4,0c0,0,0,0,0,0c-6.3,0-9.2-4.8-12.7-10.3
	c-3.2-5.1-6.7-10.8-13.6-12l0.7-1.6c0.4-1,0-2.2-1.1-2.6c-1-0.4-2.2,0-2.6,1L48,49.3L31.7,11.2c-0.4-1-1.6-1.5-2.6-1
	c-1,0.4-1.5,1.6-1.1,2.6l0.7,1.6c-6.8,1.1-10.4,6.9-13.6,12c-3.5,5.6-6.5,10.5-13.1,10.3c-0.7,0-1.3,0.3-1.7,0.9
	c-0.4,0.6-0.5,1.3-0.2,1.9l14.5,33.9c0.3,0.7,1,1.2,1.8,1.2c0.2,0,0.3,0,0.5,0c0,0,0,0,0,0c8.5,0,12.5-6.5,16.1-12.2
	c3.3-5.3,6.2-9.9,11.8-10.3l1,2.3L33.5,83.2c-0.4,1,0,2.2,1.1,2.6c0.3,0.1,0.5,0.2,0.8,0.2c0.8,0,1.5-0.5,1.8-1.2L48,59.5l10.9,25.3
	c0.3,0.8,1.1,1.2,1.8,1.2c0.3,0,0.5-0.1,0.8-0.2c1-0.4,1.5-1.6,1.1-2.6L50.2,54.4l1-2.3c5.7,0.4,8.5,5,11.8,10.3
	c3.6,5.7,7.6,12.2,16.1,12.2c0.2,0,0.3,0,0.5,0c0.8,0,1.5-0.5,1.8-1.2l14.5-33.9C96.1,38.9,96,38.2,95.7,37.6z M82,35l-3.5,8.1
	c-1.1-1.4-2.1-3-3.1-4.7c-0.7-1.2-1.5-2.4-2.3-3.5l3.4-7.9c0.3,0.5,0.6,1,0.9,1.5C78.8,30.7,80.3,33,82,35z M82.6,60.3
	c-3-0.7-5.2-2.6-7.1-5.1l3.6-8.4c2,2.1,4.4,3.6,7.5,4.2L82.6,60.3z M57.1,38.2l4-9.3l0.1-0.2c4.4,0.3,7.2,3,9.7,6.4l-3.6,8.3
	C64.8,40.5,61.6,38.4,57.1,38.2z M72.2,37.1c0.5,0.8,1,1.6,1.5,2.4c1.2,2,2.5,3.9,3.9,5.7L74,53.4c-0.8-1.1-1.5-2.3-2.3-3.5
	c-1-1.6-2-3.2-3.1-4.6L72.2,37.1z M75.2,25l-3.4,8c-2.4-3.2-5.4-5.7-9.8-6.2l3.7-8.6C70,18.6,72.7,21.4,75.2,25z M28.7,43.5
	l-3.6-8.3c2.5-3.4,5.3-6.1,9.7-6.4l0.1,0.2l4,9.3C34.4,38.4,31.2,40.5,28.7,43.5z M9.4,51c3.1-0.5,5.5-2.1,7.5-4.2l3.6,8.4
	c-1.9,2.4-4.1,4.3-7.1,5.1L9.4,51z M18.4,45.2c1.4-1.8,2.7-3.7,3.9-5.7c0.5-0.8,1-1.6,1.5-2.4l3.5,8.1c-1.1,1.5-2.1,3.1-3.1,4.6
	c-0.8,1.2-1.5,2.4-2.3,3.5L18.4,45.2z M30.3,18.3l3.7,8.6c-4.4,0.6-7.3,3.1-9.8,6.2l-3.4-8C23.3,21.4,26,18.6,30.3,18.3z M18.5,28.5
	c0.3-0.5,0.6-1,0.9-1.5l3.4,7.9c-0.8,1.1-1.5,2.3-2.3,3.5c-1,1.6-2,3.2-3.1,4.7L14,35C15.7,33,17.2,30.7,18.5,28.5z M12.5,36.5
	l3.6,8.3c-2,2.2-4.3,3.9-7.5,4.3l-3.7-8.6C8.1,40,10.5,38.5,12.5,36.5z M17.8,70.6l-3.6-8.4c3-0.8,5.3-2.6,7.2-4.9l3.9,9.1
	C23.4,68.7,21.1,70.3,17.8,70.6z M26.8,64.7l-3.9-9.1c1.1-1.5,2.1-3.1,3-4.6c0.8-1.2,1.5-2.4,2.3-3.5l3.9,9.1
	c-0.9,1.3-1.7,2.5-2.5,3.8C28.7,61.8,27.8,63.3,26.8,64.7z M33.5,54.6l-3.9-9.1c2.5-3.2,5.5-5.5,10.1-5.4l3.5,8.1
	C38.9,49,35.9,51.6,33.5,54.6z M52.8,48.3l3.5-8.1c0.1,0,0.2,0,0.3,0c4.5,0,7.4,2.3,9.9,5.4l-3.9,9.1C60.1,51.6,57.1,49,52.8,48.3z
	 M63.9,56.5l3.9-9.1c0.8,1.1,1.5,2.3,2.3,3.5c1,1.6,2,3.1,3,4.6l-3.9,9.1c-1-1.3-1.9-2.8-2.9-4.4C65.6,59.1,64.8,57.8,63.9,56.5z
	 M78.2,70.6c-3.2-0.2-5.5-1.8-7.5-4.1l3.9-9.1c1.9,2.3,4.2,4.1,7.2,4.9L78.2,70.6z M87.4,49.1c-3.2-0.4-5.5-2-7.5-4.3l3.6-8.3
	c2,2,4.5,3.5,7.6,4L87.4,49.1z"/>
</svg>
