<?xml version="1.0" encoding="utf-8"?>
<!-- Generator: Adobe Illustrator 17.1.0, SVG Export Plug-In . SVG Version: 6.00 Build 0)  -->
<!DOCTYPE svg PUBLIC "-//W3C//DTD SVG 1.1//EN" "http://www.w3.org/Graphics/SVG/1.1/DTD/svg11.dtd">
<svg version="1.1" id="Layer_1" xmlns="http://www.w3.org/2000/svg" xmlns:xlink="http://www.w3.org/1999/xlink" x="0px" y="0px"
	 viewBox="0 0 96 96" style="enable-background:new 0 0 96 96;" xml:space="preserve">
<style type="text/css">
	.st0{fill:#FF614A;}
</style>
<path class="st0" d="M94,58H65V28c0-1.1-0.9-2-2-2H33c-1.1,0-2,0.9-2,2v22H2c-1.1,0-2,0.9-2,2v42c0,1.1,0.9,2,2,2h31h30h31
	c1.1,0,2-0.9,2-2V60C96,58.9,95.1,58,94,58z M4,61h27v24H4V61z M35,52V37h26v23v25H35V52z M65,69h27v16H65V69z M92,62v5H65v-5H92z
	 M61,30v5H35v-5H61z M31,54v5H4v-5H31z M4,87h27v5H4V87z M35,87h26v5H35V87z M65,92v-5h27v5H65z M45.4,8.9L43,6.3L49.3,0H53v20h-4.3
	V5.5L45.4,8.9z M12.3,29.6l-2.4-2.8c1.9-2.2,4.8-3.2,7.6-3.2c4.2,0,7.5,2.4,7.5,6.3c0,3.4-2.8,6.3-7.9,10h8v3.7H10.3v-3.3
	c8.1-6,10.4-8,10.4-10.4c0-1.7-1.6-2.6-3.2-2.6C15.3,27.3,13.6,28.2,12.3,29.6z M82,45.9c0-1.5-1.2-2.2-3.9-2.2
	c-0.8,0-2.1,0-2.4,0.1V40c0.3,0,1.7,0,2.4,0c2.1,0,3.6-0.6,3.6-2.1c0-1.5-1.6-2.3-3.6-2.3c-1.9,0-3.5,0.7-4.9,2l-2.1-2.6
	c1.6-1.8,4-3.1,7.4-3.1c4.5,0,7.3,2,7.3,5.3c0,2.4-2.1,4-4.2,4.4c2,0.2,4.5,1.7,4.5,4.6c0,3.3-3,5.7-7.6,5.7c-3.6,0-6.2-1.4-7.6-3.1
	l2.1-2.8c1.3,1.4,3.5,2.2,5.3,2.2C80.7,48.3,82,47.3,82,45.9z"/>
</svg>
