<?xml version="1.0" encoding="utf-8"?>
<!-- Generator: Adobe Illustrator 17.1.0, SVG Export Plug-In . SVG Version: 6.00 Build 0)  -->
<!DOCTYPE svg PUBLIC "-//W3C//DTD SVG 1.1//EN" "http://www.w3.org/Graphics/SVG/1.1/DTD/svg11.dtd">
<svg version="1.1" id="Layer_1" xmlns="http://www.w3.org/2000/svg" xmlns:xlink="http://www.w3.org/1999/xlink" x="0px" y="0px"
	 viewBox="0 0 96 96" style="enable-background:new 0 0 96 96;" xml:space="preserve">
<style type="text/css">
	.st0{fill:#FF614A;}
</style>
<path class="st0" d="M74,48c-0.3,0-0.6-0.1-0.9-0.2L57.5,40H38c-1.1,0-2-0.9-2-2V2c0-1.1,0.9-2,2-2h56c1.1,0,2,0.9,2,2v36
	c0,1.1-0.9,2-2,2H76v6c0,0.7-0.4,1.3-0.9,1.7C74.7,47.9,74.4,48,74,48z M40,36h18c0.3,0,0.6,0.1,0.9,0.2L72,42.8V38c0-1.1,0.9-2,2-2
	h18V4H40V36z M22,96c-0.4,0-0.7-0.1-1.1-0.3c-0.6-0.4-0.9-1-0.9-1.7v-6H2c-1.1,0-2-0.9-2-2V50c0-1.1,0.9-2,2-2h56c1.1,0,2,0.9,2,2
	v36c0,1.1-0.9,2-2,2H38.5l-15.6,7.8C22.6,95.9,22.3,96,22,96z M4,84h18c1.1,0,2,0.9,2,2v4.8l13.1-6.6c0.3-0.1,0.6-0.2,0.9-0.2h18V52
	H4V84z M49,62c0-0.6-0.4-1-1-1H12c-0.6,0-1,0.4-1,1s0.4,1,1,1h36C48.6,63,49,62.6,49,62z M49,72c0-0.6-0.4-1-1-1H12
	c-0.6,0-1,0.4-1,1s0.4,1,1,1h36C48.6,73,49,72.6,49,72z M63,24.1c0-4.6,5.2-5.3,5.2-8.7c0-1.5-1.3-2.7-3.1-2.7
	c-1.2,0-2.5,0.6-3.4,1.3l-2.3-2.8c1.3-1.2,3.4-2.3,6-2.3c3.6,0,7,2.2,7,6c0,5.3-5.6,5.9-5.6,9.3v1.2H63V24.1z M63,28.4h3.9v3.8H63
	V28.4z"/>
</svg>
