<?xml version="1.0" encoding="utf-8"?>
<!-- Generator: Adobe Illustrator 17.1.0, SVG Export Plug-In . SVG Version: 6.00 Build 0)  -->
<!DOCTYPE svg PUBLIC "-//W3C//DTD SVG 1.1//EN" "http://www.w3.org/Graphics/SVG/1.1/DTD/svg11.dtd">
<svg version="1.1" id="Layer_1" xmlns="http://www.w3.org/2000/svg" xmlns:xlink="http://www.w3.org/1999/xlink" x="0px" y="0px"
	 viewBox="0 0 96 96" style="enable-background:new 0 0 96 96;" xml:space="preserve">
<style type="text/css">
	.st0{fill:#FF614A;}
</style>
<path class="st0" d="M13,15c0-1.1,0.9-2,2-2h6c1.1,0,2,0.9,2,2s-0.9,2-2,2h-6C13.9,17,13,16.1,13,15z M66,17c0.5,0,1-0.2,1.4-0.6
	C67.8,16,68,15.5,68,15s-0.2-1-0.6-1.4c-0.7-0.8-2.1-0.8-2.8,0C64.2,14,64,14.5,64,15s0.2,1,0.6,1.4C65,16.8,65.5,17,66,17z M57,17
	c0.5,0,1-0.2,1.4-0.6C58.8,16,59,15.5,59,15s-0.2-1-0.6-1.4c-0.7-0.8-2.1-0.8-2.8,0C55.2,14,55,14.5,55,15s0.2,1,0.6,1.4
	C56,16.8,56.5,17,57,17z M48,17c0.5,0,1-0.2,1.4-0.6C49.8,16,50,15.5,50,15s-0.2-1-0.6-1.4c-0.7-0.8-2.1-0.8-2.8,0
	C46.2,14,46,14.5,46,15s0.2,1,0.6,1.4C47,16.8,47.5,17,48,17z M46,48c0,0.6-0.4,1-1,1H13.5c-0.6,0-1-0.4-1-1v-9c0-0.6,0.4-1,1-1H45
	c0.6,0,1,0.4,1,1V48z M44,40H14.5v7H44V40z M33,57.5H13.5c-0.6,0-1,0.4-1,1s0.4,1,1,1H33c0.6,0,1-0.4,1-1S33.6,57.5,33,57.5z
	 M33,66.5H13.5c-0.6,0-1,0.4-1,1s0.4,1,1,1H33c0.6,0,1-0.4,1-1S33.6,66.5,33,66.5z M33,75.5H13.5c-0.6,0-1,0.4-1,1s0.4,1,1,1H33
	c0.6,0,1-0.4,1-1S33.6,75.5,33,75.5z M91.6,54.1c-2.9,2.9-6.8,4.4-10.6,4.4V81c0,8.3-6.7,15-15,15H15C6.7,96,0,89.3,0,81V15
	C0,6.7,6.7,0,15,0h51c8.3,0,15,6.7,15,15v13.5c3.8,0,7.7,1.5,10.6,4.4C97.5,38.8,97.5,48.2,91.6,54.1z M4,15v10h73V15
	c0-6.1-4.9-11-11-11H15C8.9,4,4,8.9,4,15z M77,57.9c-1.8-0.5-3.5-1.3-5.1-2.5c0,0-0.1,0.1-0.1,0.1l-12,12l6.1,6.1
	c0.8,0.8,0.8,2,0,2.8C65.5,76.8,65,77,64.5,77s-1-0.2-1.4-0.6L57,70.3l-3.2,3.2l6.1,6.1c0.8,0.8,0.8,2,0,2.8
	C59.5,82.8,59,83,58.5,83s-1-0.2-1.4-0.6L51,76.3l-1.6,1.6c-0.4,0.4-0.9,0.6-1.4,0.6s-1-0.2-1.4-0.6c-0.8-0.8-0.8-2,0-2.8L69,52.7
	c0,0,0.1-0.1,0.1-0.1c-4.5-5.9-4.1-14.3,1.3-19.7c1.9-1.9,4.2-3.2,6.6-3.8V29H4v52c0,6.1,4.9,11,11,11h51c6.1,0,11-4.9,11-11V57.9z
	 M88.8,35.7c-2.1-2.1-4.8-3.2-7.8-3.2s-5.7,1.1-7.8,3.2c-4.3,4.3-4.3,11.3,0,15.6c2.1,2.1,4.8,3.2,7.8,3.2s5.7-1.1,7.8-3.2
	C93.1,47,93.1,40,88.8,35.7z"/>
</svg>
