<?xml version="1.0" encoding="utf-8"?>
<!-- Generator: Adobe Illustrator 17.1.0, SVG Export Plug-In . SVG Version: 6.00 Build 0)  -->
<!DOCTYPE svg PUBLIC "-//W3C//DTD SVG 1.1//EN" "http://www.w3.org/Graphics/SVG/1.1/DTD/svg11.dtd">
<svg version="1.1" id="Layer_1" xmlns="http://www.w3.org/2000/svg" xmlns:xlink="http://www.w3.org/1999/xlink" x="0px" y="0px"
	 viewBox="0 0 64 64" style="enable-background:new 0 0 64 64;" xml:space="preserve">
<style type="text/css">
	.st0{fill:#FF614A;}
</style>
<path class="st0" d="M40,39.5l2-2v16.3c-0.7,0.3-1.3,0.6-2,0.8V39.5z M24,39.5v15.1c0.7,0.2,1.3,0.4,2,0.6V39.5l-1-1L24,39.5z
	 M16,47.2v2.7c0.6,0.6,1.3,1.1,2,1.6v-6l-0.8,0.8C16.9,46.6,16.4,46.9,16,47.2z M32,43.9V56c0.7,0,1.3,0,2-0.1v-12
	C33.7,44,33.3,44,33,44S32.3,44,32,43.9z M48,37.9v12c0.7-0.6,1.4-1.3,2-2v-9.9C49.7,38,49.3,38,49,38C48.7,38,48.3,38,48,37.9z
	 M64,32c0,17.7-14.3,32-32,32S0,49.7,0,32S14.3,0,32,0S64,14.3,64,32z M60,32C60,16.6,47.4,4,32,4S4,16.6,4,32s12.6,28,28,28
	S60,47.4,60,32z M50.9,21.4c0-0.1,0-0.1-0.1-0.2c0-0.1-0.1-0.1-0.1-0.2c0-0.1-0.1-0.1-0.1-0.2c-0.1-0.2-0.3-0.4-0.6-0.6
	c-0.1,0-0.1-0.1-0.2-0.1c-0.1,0-0.1-0.1-0.2-0.1c-0.1,0-0.1,0-0.2-0.1c-0.1,0-0.1,0-0.2,0c-0.1,0-0.3,0-0.4,0h-9.8c-1.1,0-2,0.9-2,2
	s0.9,2,2,2h5L33,35.2l-6.6-6.6c-0.8-0.8-2-0.8-2.8,0l-12,12c-0.8,0.8-0.8,2,0,2.8C12,43.8,12.5,44,13,44s1-0.2,1.4-0.6L25,32.8
	l6.6,6.6c0.8,0.8,2,0.8,2.8,0L47,26.8V32c0,1.1,0.9,2,2,2s2-0.9,2-2V22c0-0.1,0-0.3,0-0.4C50.9,21.5,50.9,21.5,50.9,21.4z"/>
</svg>
