<?xml version="1.0" encoding="utf-8"?>
<!-- Generator: Adobe Illustrator 17.1.0, SVG Export Plug-In . SVG Version: 6.00 Build 0)  -->
<!DOCTYPE svg PUBLIC "-//W3C//DTD SVG 1.1//EN" "http://www.w3.org/Graphics/SVG/1.1/DTD/svg11.dtd">
<svg version="1.1" id="Layer_1" xmlns="http://www.w3.org/2000/svg" xmlns:xlink="http://www.w3.org/1999/xlink" x="0px" y="0px"
	 viewBox="0 0 64 64" style="enable-background:new 0 0 64 64;" xml:space="preserve">
<style type="text/css">
	.st0{fill:#FF614A;}
</style>
<path class="st0" d="M32,42c-4.4,0-8,3.6-8,8s3.6,8,8,8s8-3.6,8-8S36.4,42,32,42z M32,56c-3.3,0-6-2.7-6-6s2.7-6,6-6s6,2.7,6,6
	S35.3,56,32,56z M63.6,3.2c0.5-0.6,0.5-1.4,0.2-2.1C63.4,0.4,62.8,0,62,0H49c-0.6,0-1.2,0.3-1.6,0.8L32,21.6L16.6,0.8
	C16.2,0.3,15.6,0,15,0H2C1.2,0,0.6,0.4,0.2,1.1c-0.3,0.7-0.3,1.5,0.2,2.1L23,33.7v5.6c-3.1,2.6-5,6.4-5,10.7c0,7.7,6.3,14,14,14
	s14-6.3,14-14c0-4.3-1.9-8.1-5-10.7v-5.6L63.6,3.2z M50,4h8L38.5,30.3l-4-5.4L50,4z M14,4l20,27h-8L6,4H14z M42,50
	c0,5.5-4.5,10-10,10s-10-4.5-10-10s4.5-10,10-10S42,44.5,42,50z M32,36c-1.8,0-3.4,0.3-5,0.9V35h10v1.9C35.4,36.3,33.8,36,32,36z"/>
</svg>
