<?xml version="1.0" encoding="utf-8"?>
<!-- Generator: Adobe Illustrator 17.1.0, SVG Export Plug-In . SVG Version: 6.00 Build 0)  -->
<!DOCTYPE svg PUBLIC "-//W3C//DTD SVG 1.1//EN" "http://www.w3.org/Graphics/SVG/1.1/DTD/svg11.dtd">
<svg version="1.1" id="Layer_1" xmlns="http://www.w3.org/2000/svg" xmlns:xlink="http://www.w3.org/1999/xlink" x="0px" y="0px"
	 viewBox="0 0 64 64" style="enable-background:new 0 0 64 64;" xml:space="preserve">
<style type="text/css">
	.st0{fill:#FF614A;}
</style>
<path class="st0" d="M14,8c1.1,0,2,0.9,2,2s-0.9,2-2,2h-4c-1.1,0-2-0.9-2-2s0.9-2,2-2H14z M42.6,8.6C42.2,9,42,9.5,42,10
	c0,0.5,0.2,1,0.6,1.4C43,11.8,43.5,12,44,12c0.5,0,1-0.2,1.4-0.6C45.8,11,46,10.5,46,10c0-0.5-0.2-1-0.6-1.4
	C44.7,7.8,43.3,7.8,42.6,8.6z M36.6,8.6C36.2,9,36,9.5,36,10c0,0.5,0.2,1,0.6,1.4C37,11.8,37.5,12,38,12c0.5,0,1-0.2,1.4-0.6
	C39.8,11,40,10.5,40,10c0-0.5-0.2-1-0.6-1.4C38.7,7.8,37.3,7.8,36.6,8.6z M30.6,8.6C30.2,9,30,9.5,30,10c0,0.5,0.2,1,0.6,1.4
	C31,11.8,31.5,12,32,12c0.5,0,1-0.2,1.4-0.6C33.8,11,34,10.5,34,10c0-0.5-0.2-1-0.6-1.4C32.7,7.8,31.3,7.8,30.6,8.6z M30,33H9
	c-0.6,0-1-0.4-1-1v-6c0-0.6,0.4-1,1-1h21c0.6,0,1,0.4,1,1v6C31,32.6,30.6,33,30,33z M29,27H10v4h19V27z M22,38H9c-0.6,0-1,0.4-1,1
	s0.4,1,1,1h13c0.6,0,1-0.4,1-1S22.6,38,22,38z M22,44H9c-0.6,0-1,0.4-1,1s0.4,1,1,1h13c0.6,0,1-0.4,1-1S22.6,44,22,44z M22,50H9
	c-0.6,0-1,0.4-1,1s0.4,1,1,1h13c0.6,0,1-0.4,1-1S22.6,50,22,50z M50,54c0,3.3-2.7,6-6,6H10c-3.3,0-6-2.7-6-6V20h39.3
	c0.3-0.3,0.5-0.6,0.8-0.9c1.4-1.4,3-2.4,4.7-3.1H4v-6c0-3.3,2.7-6,6-6h34c3.3,0,6,2.7,6,6v5.6c1.3-0.4,2.6-0.6,4-0.6v-5
	c0-5.5-4.5-10-10-10H10C4.5,0,0,4.5,0,10v44c0,5.5,4.5,10,10,10h34c5.5,0,10-4.5,10-10V43c-1.4,0-2.7-0.2-4-0.6V54z M61.1,36.1
	c-2,2-4.5,2.9-7.1,2.9c-1.9,0-3.9-0.6-5.5-1.7c0,0.1-0.1,0.1-0.1,0.2L40.8,45l3.6,3.6c0.8,0.8,0.8,2,0,2.8C44,51.8,43.5,52,43,52
	s-1-0.2-1.4-0.6L38,47.8L36.8,49l3.6,3.6c0.8,0.8,0.8,2,0,2.8C40,55.8,39.5,56,39,56s-1-0.2-1.4-0.6L34,51.8l-0.6,0.6
	C33,52.8,32.5,53,32,53s-1-0.2-1.4-0.6c-0.8-0.8-0.8-2,0-2.8l14.9-14.9c0,0,0.1-0.1,0.2-0.1c-2.6-3.9-2.2-9.2,1.3-12.6
	c2-2,4.5-2.9,7.1-2.9c2.6,0,5.1,1,7.1,2.9C65,25.8,65,32.2,61.1,36.1z M58.2,24.8C57.1,23.6,55.6,23,54,23s-3.1,0.6-4.2,1.8
	c-2.3,2.3-2.3,6.1,0,8.5c1.1,1.1,2.6,1.8,4.2,1.8s3.1-0.6,4.2-1.8C60.6,30.9,60.6,27.1,58.2,24.8z"/>
</svg>
