<?xml version="1.0" encoding="utf-8"?>
<!-- Generator: Adobe Illustrator 17.1.0, SVG Export Plug-In . SVG Version: 6.00 Build 0)  -->
<!DOCTYPE svg PUBLIC "-//W3C//DTD SVG 1.1//EN" "http://www.w3.org/Graphics/SVG/1.1/DTD/svg11.dtd">
<svg version="1.1" id="Layer_1" xmlns="http://www.w3.org/2000/svg" xmlns:xlink="http://www.w3.org/1999/xlink" x="0px" y="0px"
	 viewBox="0 0 64 64" style="enable-background:new 0 0 64 64;" xml:space="preserve">
<style type="text/css">
	.st0{fill:#FF614A;}
</style>
<path class="st0" d="M63.2,42l-16-11.9c0.5-2,0.8-4,0.8-6.1C48,10.8,37.2,0,24,0S0,10.8,0,24s10.8,24,24,24c4.3,0,8.4-1.2,12.1-3.3
	l1.4,12.1c0.1,0.8,0.6,1.4,1.4,1.7c0.7,0.2,1.6,0,2.1-0.5l5.3-5.7L52.4,63c0.3,0.5,0.7,0.8,1.2,0.9c0.2,0,0.3,0.1,0.5,0.1
	c0.3,0,0.7-0.1,1-0.3l5.2-3c1-0.6,1.3-1.8,0.7-2.7l-6.2-10.7l7.6-1.7c0.8-0.2,1.4-0.8,1.5-1.5C64.1,43.3,63.8,42.5,63.2,42z M24,44
	C13,44,4,35,4,24S13,4,24,4s20,9,20,20c0,1.2-0.1,2.4-0.3,3.5l-6.7-5c-0.6-0.5-1.5-0.5-2.2-0.1s-1.1,1.2-1,2l1.8,15.9
	C32.2,42.7,28.2,44,24,44z M51.4,44c-0.6,0.1-1.1,0.6-1.4,1.2c-0.3,0.6-0.2,1.2,0.1,1.8l6.5,11.3l-1.7,1l-6.5-11.3
	c-0.3-0.5-0.9-0.9-1.5-1c-0.1,0-0.2,0-0.2,0c-0.6,0-1.1,0.2-1.5,0.6L41,52.1l-2.7-23.6l19.1,14.1L51.4,44z M26.2,13h-8.1v9.6H16v3.2
	h2.2v2.1H16v2.8h2.2v5.1h4.1v-5.1h7.9v-2.8h-7.9v-2H26c4.2,0,7.4-2.2,7.4-6.2C33.4,15.6,30.9,13,26.2,13z M25.5,22.6h-3.2v-6.3h3.2
	c2.4,0,3.6,1.3,3.6,3.1C29.2,21.2,28,22.6,25.5,22.6z"/>
</svg>
