<?xml version="1.0" encoding="utf-8"?>
<!-- Generator: Adobe Illustrator 17.1.0, SVG Export Plug-In . SVG Version: 6.00 Build 0)  -->
<!DOCTYPE svg PUBLIC "-//W3C//DTD SVG 1.1//EN" "http://www.w3.org/Graphics/SVG/1.1/DTD/svg11.dtd">
<svg version="1.1" id="Layer_1" xmlns="http://www.w3.org/2000/svg" xmlns:xlink="http://www.w3.org/1999/xlink" x="0px" y="0px"
	 viewBox="0 0 96 96" style="enable-background:new 0 0 96 96;" xml:space="preserve">
<style type="text/css">
	.st0{fill:#FF614A;}
</style>
<path class="st0" d="M86,0H10C4.5,0,0,4.5,0,10v76c0,5.5,4.5,10,10,10h76c5.5,0,10-4.5,10-10V10C96,4.5,91.5,0,86,0z M10,4h76
	c3.3,0,6,2.7,6,6v8H4v-8C4,6.7,6.7,4,10,4z M86,92H10c-3.3,0-6-2.7-6-6V22h88v64C92,89.3,89.3,92,86,92z M10,11c0-1.1,0.9-2,2-2h8
	c1.1,0,2,0.9,2,2s-0.9,2-2,2h-8C10.9,13,10,12.1,10,11z M58,11c0-1.1,0.9-2,2-2h4c1.1,0,2,0.9,2,2s-0.9,2-2,2h-4
	C58.9,13,58,12.1,58,11z M68,11c0-1.1,0.9-2,2-2h4c1.1,0,2,0.9,2,2s-0.9,2-2,2h-4C68.9,13,68,12.1,68,11z M78,11c0-1.1,0.9-2,2-2h4
	c1.1,0,2,0.9,2,2s-0.9,2-2,2h-4C78.9,13,78,12.1,78,11z M70.6,34.3c-1.9-1.9-4.4-2.9-7-2.9c-2.7,0-5.1,1-7,2.9l-5.8,5.8
	c-1.9,1.9-2.9,4.4-2.9,7c0,2,0.6,4,1.7,5.6l-5.9,5.9c-1.6-1.1-3.6-1.7-5.6-1.7c-2.7,0-5.1,1-7,2.9l-5.8,5.8c-1.9,1.9-2.9,4.4-2.9,7
	c0,2.6,1,5.1,2.9,7l0.1,0.1c1.9,1.9,4.4,2.9,7,2.9c2.6,0,5.1-1,7-2.9l5.8-5.8c3.4-3.4,3.8-8.6,1.3-12.5l5.9-5.9
	c1.6,1.1,3.5,1.6,5.5,1.6c2.7,0,5.1-1,7-2.9l5.8-5.8c1.9-1.9,2.9-4.4,2.9-7c0-2.7-1-5.1-2.9-7L70.6,34.3z M42.4,71.1l-5.8,5.8
	c-1.1,1.1-2.6,1.7-4.2,1.7c-1.6,0-3.1-0.6-4.2-1.7l-0.1-0.1c-1.1-1.1-1.7-2.6-1.7-4.2c0-1.6,0.6-3.1,1.7-4.2l5.8-5.8
	c1.1-1.1,2.6-1.7,4.2-1.7c0.9,0,1.9,0.2,2.7,0.6l-2.6,2.6c-0.8,0.8-0.8,2,0,2.8c0.4,0.4,0.9,0.6,1.4,0.6s1-0.2,1.4-0.6l2.6-2.6
	C44.6,66.6,44.2,69.3,42.4,71.1z M67.9,45.6l-5.8,5.8c-1.1,1.1-2.6,1.7-4.2,1.7c-0.9,0-1.7-0.2-2.5-0.6L58,50c0.8-0.8,0.8-2,0-2.8
	s-2-0.8-2.8,0l-2.6,2.6c-0.4-0.8-0.6-1.7-0.6-2.7c0-1.6,0.6-3.1,1.7-4.2l5.8-5.8c1.1-1.1,2.6-1.7,4.2-1.7c1.6,0,3.1,0.6,4.2,1.7
	l0.1,0.1c1.1,1.1,1.7,2.6,1.7,4.2C69.6,43,69,44.5,67.9,45.6z"/>
</svg>
