<?xml version="1.0" encoding="utf-8"?>
<!-- Generator: Adobe Illustrator 17.1.0, SVG Export Plug-In . SVG Version: 6.00 Build 0)  -->
<!DOCTYPE svg PUBLIC "-//W3C//DTD SVG 1.1//EN" "http://www.w3.org/Graphics/SVG/1.1/DTD/svg11.dtd">
<svg version="1.1" id="Layer_1" xmlns="http://www.w3.org/2000/svg" xmlns:xlink="http://www.w3.org/1999/xlink" x="0px" y="0px"
	 viewBox="0 0 96 96" style="enable-background:new 0 0 96 96;" xml:space="preserve">
<style type="text/css">
	.st0{fill:#FF614A;}
</style>
<path class="st0" d="M92,24H82l0.5-8.4c0-0.6-0.2-1.1-0.6-1.5c-0.4-0.4-1-0.6-1.5-0.6L70.7,14l-3.2-9.2c-0.2-0.5-0.6-1-1.1-1.2
	c-0.5-0.2-1.1-0.2-1.6,0L56,7.9l-6.5-7.3c-0.8-0.9-2.2-0.9-3,0L40,7.9l-8.8-4.2c-0.5-0.3-1.1-0.3-1.6,0c-0.5,0.2-0.9,0.7-1.1,1.2
	L25.3,14l-9.7-0.6c-0.6,0-1.1,0.2-1.5,0.6s-0.6,1-0.6,1.5L14,24H4c-2.2,0-4,1.8-4,4v40c0,2.2,1.8,4,4,4h10l-0.5,8.4
	c0,0.6,0.2,1.1,0.6,1.5c0.4,0.4,1,0.6,1.5,0.6l9.7-0.6l3.2,9.2c0.2,0.5,0.6,1,1.1,1.2c0.5,0.2,1.1,0.2,1.6,0L40,88l6.5,7.3
	c0.4,0.4,0.9,0.7,1.5,0.7s1.1-0.2,1.5-0.7L56,88l8.8,4.2c0.5,0.3,1.1,0.3,1.6,0c0.5-0.2,0.9-0.7,1.1-1.2l3.2-9.2l9.7,0.6
	c0.6,0,1.1-0.2,1.5-0.6c0.4-0.4,0.6-1,0.6-1.5L82,72h10c2.2,0,4-1.8,4-4V28C96,25.8,94.2,24,92,24z M17.6,17.6l9,0.5
	c0.9,0,1.7-0.5,2-1.3l3-8.5l8.1,3.9c0.8,0.4,1.8,0.2,2.4-0.5L48,5l6,6.7c0.6,0.7,1.6,0.9,2.4,0.5l8.1-3.9l3,8.5
	c0.3,0.8,1.1,1.4,2,1.3l9-0.5L78,24H18L17.6,17.6z M78.4,78.4l-9-0.5c-0.9-0.1-1.7,0.5-2,1.3l-3,8.5l-8.1-3.9
	c-0.8-0.4-1.8-0.2-2.4,0.5L48,91l-6-6.7c-0.6-0.7-1.6-0.9-2.4-0.5l-8.1,3.9l-3-8.5c-0.3-0.8-1.1-1.4-2-1.3l-9,0.5L18,72H78
	L78.4,78.4z M92,68H4V28h88V68z M64,54H32v8h32V54z M62,60H34v-4h28V60z M36.4,45.7c0,1.2-1,2.2-2.2,2.2c-1.2,0-2.2-1-2.2-2.2
	c0-1.2,1-2.2,2.2-2.2C35.4,43.5,36.4,44.5,36.4,45.7z M32.6,42.6L32,33.9h4.4l-0.5,8.7H32.6z M42,38c0-0.6,0.4-1,1-1h20
	c0.6,0,1,0.4,1,1s-0.4,1-1,1H43C42.4,39,42,38.5,42,38z M42,44c0-0.6,0.4-1,1-1h16c0.6,0,1,0.4,1,1s-0.4,1-1,1H43
	C42.4,45,42,44.5,42,44z M84,34c0-1.1,0.9-2,2-2c1.1,0,2,0.9,2,2s-0.9,2-2,2C84.9,36,84,35.1,84,34z"/>
</svg>
