<?xml version="1.0" encoding="utf-8"?>
<!-- Generator: Adobe Illustrator 17.1.0, SVG Export Plug-In . SVG Version: 6.00 Build 0)  -->
<!DOCTYPE svg PUBLIC "-//W3C//DTD SVG 1.1//EN" "http://www.w3.org/Graphics/SVG/1.1/DTD/svg11.dtd">
<svg version="1.1" id="Layer_1" xmlns="http://www.w3.org/2000/svg" xmlns:xlink="http://www.w3.org/1999/xlink" x="0px" y="0px"
	 viewBox="0 0 96 96" style="enable-background:new 0 0 96 96;" xml:space="preserve">
<style type="text/css">
	.st0{fill:#FF614A;}
</style>
<path class="st0" d="M86,38c-5.5,0-10,4.5-10,10c0,4.6,3.2,8.5,7.5,9.7C80.6,61,76.5,63,72,63c-3,0-5.9-0.9-8.4-2.6
	C66.4,57,68,52.7,68,48c0-1.9-0.3-3.7-0.8-5.4c3.1-1.5,5.7-3.8,7.5-6.9c2.7-4.7,3-10.5,0.8-15.4c0-0.1,0.1-0.1,0.1-0.2
	c1.3-2.3,1.7-5,1-7.6S74.3,7.8,72,6.4c-1.5-0.9-3.2-1.3-5-1.3c-3.6,0-6.9,1.9-8.7,5C55.6,14.9,57.2,21,62,23.8
	c1.5,0.9,3.2,1.3,5,1.3c2.7,0,5.3-1.1,7.1-3c1.5,4.1,1.1,8.7-1.1,12.6c-1.5,2.6-3.7,4.7-6.4,6c-2.3-5.9-7.4-10.4-13.7-12
	c0.3-3.4-0.5-6.9-2.2-9.9c-2.7-4.7-7.6-7.8-12.9-8.4c0-0.1-0.1-0.2-0.1-0.2c-1.8-3.1-5.1-5-8.7-5c-1.7,0-3.5,0.5-5,1.3
	c-2.3,1.3-4,3.5-4.7,6.1s-0.3,5.3,1,7.6c1.8,3.1,5.1,5,8.7,5c1.7,0,3.5-0.5,5-1.3c4-2.3,5.8-7,4.6-11.3c4.3,0.8,8.1,3.4,10.4,7.3
	c1.5,2.6,2.2,5.6,2,8.5C50,28.1,49,28,48,28c-5.6,0-10.7,2.3-14.3,6.1c-2.8-2-6.2-3.1-9.7-3.1c-5.5,0-10.6,2.7-13.7,7
	c-0.1,0-0.2,0-0.3,0C4.5,38,0,42.5,0,48s4.5,10,10,10s10-4.5,10-10c0-4.6-3.2-8.5-7.5-9.7C15.4,35,19.5,33,24,33
	c3,0,5.9,0.9,8.4,2.6C29.6,39,28,43.3,28,48c0,1.9,0.3,3.7,0.8,5.4c-3.1,1.5-5.7,3.8-7.5,6.9c-2.7,4.7-3,10.5-0.8,15.4
	c0,0.1-0.1,0.1-0.1,0.2c-1.3,2.3-1.7,5-1,7.6s2.3,4.7,4.7,6.1c1.5,0.9,3.2,1.3,5,1.3c3.6,0,6.9-1.9,8.7-5c2.8-4.8,1.1-10.9-3.7-13.7
	c-1.5-0.9-3.2-1.3-5-1.3c-2.7,0-5.3,1.1-7.1,3c-1.5-4.1-1.1-8.7,1.1-12.6c1.5-2.6,3.7-4.7,6.4-6c2.3,5.9,7.4,10.4,13.7,12
	c-0.3,3.4,0.5,6.9,2.2,9.9c2.7,4.7,7.6,7.8,12.9,8.4c0,0.1,0.1,0.2,0.1,0.2c1.8,3.1,5.1,5,8.7,5c1.7,0,3.5-0.5,5-1.3
	c2.3-1.3,4-3.5,4.7-6.1s0.3-5.3-1-7.6c-1.8-3.1-5.1-5-8.7-5c-1.7,0-3.5,0.5-5,1.3c-4,2.3-5.8,7-4.6,11.3c-4.3-0.8-8.1-3.4-10.4-7.3
	c-1.5-2.6-2.2-5.6-2-8.5c1,0.1,1.9,0.2,3,0.2c5.6,0,10.7-2.3,14.3-6.1c2.8,2,6.2,3.1,9.7,3.1c5.5,0,10.6-2.7,13.7-7
	c0.1,0,0.2,0,0.3,0c5.5,0,10-4.5,10-10S91.5,38,86,38z M67,21.1c-1,0-2.1-0.3-3-0.8c-2.9-1.7-3.9-5.3-2.2-8.2c1.1-1.9,3.1-3,5.2-3
	c1,0,2.1,0.3,3,0.8c1.4,0.8,2.4,2.1,2.8,3.6c0.4,1.5,0.2,3.2-0.6,4.6C71.1,19.9,69.1,21.1,67,21.1z M32,20.3c-0.9,0.5-1.9,0.8-3,0.8
	c-2.1,0-4.1-1.2-5.2-3c-0.8-1.4-1-3-0.6-4.6c0.4-1.5,1.4-2.8,2.8-3.6c0.9-0.5,1.9-0.8,3-0.8c2.1,0,4.1,1.2,5.2,3
	C35.9,15,34.9,18.6,32,20.3z M16,48c0,3.3-2.7,6-6,6s-6-2.7-6-6s2.7-6,6-6S16,44.7,16,48z M29,74.9c1,0,2.1,0.3,3,0.8
	c2.9,1.7,3.9,5.3,2.2,8.2c-1.1,1.9-3.1,3-5.2,3c-1,0-2.1-0.3-3-0.8c-1.4-0.8-2.4-2.1-2.8-3.6c-0.4-1.5-0.2-3.2,0.6-4.6
	C24.9,76.1,26.9,74.9,29,74.9z M64,75.7c0.9-0.5,1.9-0.8,3-0.8c2.1,0,4.1,1.2,5.2,3c0.8,1.4,1,3,0.6,4.6c-0.4,1.5-1.4,2.8-2.8,3.6
	c-0.9,0.5-1.9,0.8-3,0.8c-2.1,0-4.1-1.2-5.2-3C60.1,81,61.1,77.4,64,75.7z M48,64c-8.8,0-16-7.2-16-16s7.2-16,16-16s16,7.2,16,16
	S56.8,64,48,64z M86,54c-3.3,0-6-2.7-6-6s2.7-6,6-6s6,2.7,6,6S89.3,54,86,54z"/>
</svg>
