<?xml version="1.0" encoding="utf-8"?>
<!-- Generator: Adobe Illustrator 17.1.0, SVG Export Plug-In . SVG Version: 6.00 Build 0)  -->
<!DOCTYPE svg PUBLIC "-//W3C//DTD SVG 1.1//EN" "http://www.w3.org/Graphics/SVG/1.1/DTD/svg11.dtd">
<svg version="1.1" id="Layer_1" xmlns="http://www.w3.org/2000/svg" xmlns:xlink="http://www.w3.org/1999/xlink" x="0px" y="0px"
	 viewBox="0 0 96 96" style="enable-background:new 0 0 96 96;" xml:space="preserve">
<style type="text/css">
	.st0{fill:#FF614A;}
</style>
<path class="st0" d="M88,0H8C3.6,0,0,3.6,0,8v80c0,4.4,3.6,8,8,8h80c4.4,0,8-3.6,8-8V8C96,3.6,92.4,0,88,0z M92,88c0,2.2-1.8,4-4,4
	H8c-2.2,0-4-1.8-4-4V8c0-2.2,1.8-4,4-4h80c2.2,0,4,1.8,4,4V88z M21,60.1V50c0-0.6-0.4-1-1-1s-1,0.4-1,1v10.1c-3.9,0.5-7,3.9-7,7.9
	s3.1,7.4,7,7.9V86c0,0.6,0.4,1,1,1s1-0.4,1-1V75.9c3.9-0.5,7-3.9,7-7.9S24.9,60.6,21,60.1z M20,72c-2.2,0-4-1.8-4-4s1.8-4,4-4
	s4,1.8,4,4S22.2,72,20,72z M49,54.1V50c0-0.6-0.4-1-1-1s-1,0.4-1,1v4.1c-3.9,0.5-7,3.9-7,7.9s3.1,7.4,7,7.9V86c0,0.6,0.4,1,1,1
	s1-0.4,1-1V69.9c3.9-0.5,7-3.9,7-7.9S52.9,54.6,49,54.1z M48,66c-2.2,0-4-1.8-4-4s1.8-4,4-4s4,1.8,4,4S50.2,66,48,66z M77,64.1V50
	c0-0.6-0.4-1-1-1s-1,0.4-1,1v14.1c-3.9,0.5-7,3.9-7,7.9s3.1,7.4,7,7.9V86c0,0.6,0.4,1,1,1s1-0.4,1-1v-6.1c3.9-0.5,7-3.9,7-7.9
	S80.9,64.6,77,64.1z M76,76c-2.2,0-4-1.8-4-4s1.8-4,4-4s4,1.8,4,4S78.2,76,76,76z M10,42h76V10H10V42z M14,14h68v24H14V14z M31,24
	c0-3.9-3.1-7-7-7s-7,3.1-7,7s3.1,7,7,7c1.2,0,2.3-0.3,3.3-0.8l4.3,4.3l2.8-2.8l-4.3-4.3C30.7,26.3,31,25.2,31,24z M24,27
	c-1.7,0-3-1.3-3-3s1.3-3,3-3s3,1.3,3,3S25.7,27,24,27z M41,35h8V25h-8V35z M43,27h4v6h-4V27z M51,35h8V19h-8V35z M53,21h4v12h-4V21z
	 M61,35h8V21h-8V35z M63,23h4v10h-4V23z M71,35h8V17h-8V35z M73,19h4v14h-4V19z"/>
</svg>
