<?xml version="1.0" encoding="UTF-8"?>
<svg width="53px" height="106px" viewBox="0 0 53 106" version="1.1" xmlns="http://www.w3.org/2000/svg" xmlns:xlink="http://www.w3.org/1999/xlink">
    <!-- Generator: Sketch 51.3 (57544) - http://www.bohemiancoding.com/sketch -->
    <title>rocket-ship</title>
    <desc>Created with Sketch.</desc>
    <defs></defs>
    <g id="Page-1" stroke="none" stroke-width="1" fill="none" fill-rule="evenodd">
        <g id="Магазин-одежды-из-кожи" transform="translate(-613.000000, -1677.000000)" fill-rule="nonzero">
            <g id="rocket-ship" transform="translate(586.000000, 1676.000000)">
                <g transform="translate(53.740115, 53.740115) rotate(-45.000000) translate(-53.740115, -53.740115) translate(15.740115, 15.740115)" id="Shape">
                    <path d="M75.5148782,1.62369042 C75.4301775,0.93562792 74.8906626,0.393725775 74.2058319,0.308650365 C68.0343274,-0.458036334 61.6659238,0.210269321 55.7870579,2.24058795 C49.9075898,4.27110818 44.4759111,7.67835822 40.0797076,12.0940139 L30.0475002,22.1706117 L15.5663018,24.0465043 C15.2361299,24.0892437 14.9296421,24.2406456 14.6942065,24.4769214 L0.732050378,38.500857 C0.336847679,38.8978083 0.193137607,39.4822482 0.359126754,40.0185055 C0.524714478,40.5547629 0.972905248,40.9545366 1.52245578,41.0567481 L12.0793254,43.0207402 L14.153688,45.1042813 L9.73741328,47.5063513 C9.31953008,47.733555 9.03291272,48.1458281 8.96446984,48.618178 C8.89602688,49.090528 9.05358616,49.5675148 9.38957864,49.904994 L26.1366192,66.7261365 C26.4210286,67.0118044 26.8047907,67.1690528 27.2011977,67.1690528 C27.2730527,67.1690528 27.3457106,67.1638111 27.4179671,67.1533279 C27.8882362,67.0845822 28.298693,66.7966966 28.5248959,66.3769644 L30.9165848,61.9411486 L32.9909474,64.0246898 L34.9462874,74.6282712 C35.0482494,75.180455 35.4460613,75.6304273 35.9799563,75.7969494 C36.126677,75.8427126 36.2770106,75.8648887 36.4263406,75.8648887 C36.819737,75.8648887 37.2043018,75.7098579 37.4911198,75.4219724 L51.4532759,61.3980369 C51.6885109,61.1617611 51.8392459,60.8537155 51.8817969,60.5222843 L53.7496264,45.9768082 L63.7818339,35.9000089 C68.1780374,31.4843532 71.5702775,26.0288421 73.5918527,20.1233586 C75.6130265,14.21848 76.2779866,7.82109137 75.5148782,1.62369042 Z M12.3087397,39.988467 L4.88458904,38.607302 L16.4602748,26.9799932 L26.5625309,25.6714044 L12.3087397,39.988467 Z M26.8385104,63.1549852 L12.9453994,49.2006018 L16.3745706,47.335394 L28.6953007,59.7108423 L26.8385104,63.1549852 Z M48.9610302,59.6245573 L37.3851438,71.2516645 L36.0098624,63.7948652 L50.2638543,49.4778026 L48.9610302,59.6245573 Z M61.6524762,33.7622372 L34.3856978,61.149665 L14.9418855,41.6198183 L42.2086639,14.2321889 C46.1703251,10.2527966 51.0404106,7.16084974 56.3161358,5.26298263 C56.9975543,8.78937856 58.7142474,12.0607498 61.264499,14.6220842 C63.81455,17.1836202 67.0713093,18.9079092 70.5823711,19.5925446 C68.692664,24.8912105 65.6141373,29.782845 61.6524762,33.7622372 Z M71.4885876,16.6872798 C68.4371571,16.1645296 65.5986825,14.698894 63.3932547,12.4839093 C61.187827,10.2689246 59.7288486,7.41768877 59.2084014,4.35275638 C63.5720894,3.17157906 68.155959,2.76878126 72.6541244,3.18206228 C73.0657855,7.70013107 72.6645614,12.3042833 71.4885876,16.6872798 Z" fill="#FF614A"></path>
                    <path d="M40.7398506,22.2653639 C37.1792128,25.8419584 37.1792128,31.6611568 40.7398506,35.2377513 C42.5203702,37.0261493 44.8586696,37.9200459 47.1975711,37.9200459 C49.5356698,37.9200459 51.8749727,37.0257461 53.6550909,35.2377513 L53.6552916,35.2377513 C57.2159294,31.6613584 57.2159294,25.8419584 53.6550909,22.2653639 C50.0942523,18.6889711 44.3004885,18.6891727 40.7398506,22.2653639 Z M51.5263353,33.0993748 C49.1390621,35.4970095 45.2552773,35.4966063 42.868807,33.0993748 C40.4817345,30.7019417 40.4817345,26.800972 42.868807,24.4035389 C44.0620422,23.2048222 45.6298066,22.6056656 47.1973704,22.6056656 C48.7651349,22.6056656 50.3326986,23.2050238 51.5259338,24.4035389 C53.9130063,26.800972 53.9130063,30.7019417 51.5263353,33.0993748 Z" fill="#FF614A"></path>
                    <path d="M16.060255,60.3118134 C15.4721677,59.7213255 14.5191853,59.7213255 13.9312986,60.3118134 L1.0158577,73.2842007 C0.427971105,73.8746886 0.427971105,74.8320894 1.0158577,75.4223756 C1.30990135,75.7175187 1.69526914,75.8652919 2.08043622,75.8652919 C2.4656033,75.8652919 2.8509711,75.7177203 3.14501474,75.4223756 L16.060255,62.4499882 C16.6479409,61.859702 16.6479409,60.9023013 16.060255,60.3118134 Z" fill="#FF614A"></path>
                    <path d="M18.0469062,64.4458332 L12.2280533,70.2904333 C11.6401667,70.8809211 11.6401667,71.8383219 12.2280533,72.4286082 C12.522097,72.7237514 12.9074647,72.8715245 13.2926318,72.8715245 C13.6777989,72.8715245 14.0631667,72.723953 14.3572103,72.4286082 L20.1760633,66.5840081 C20.7639499,65.9935202 20.7639499,65.0361195 20.1760633,64.4458332 C19.587976,63.8553454 18.6349935,63.8553454 18.0469062,64.4458332 Z" fill="#FF614A"></path>
                    <path d="" fill="#000000"></path>
                    <path d="M11.6136956,56.0178035 C11.0256083,55.4273157 10.0726258,55.4273157 9.48473928,56.0178035 L3.60742644,62.1927042 C3.01953984,62.783192 3.01953984,63.7405928 3.60742644,64.330879 C3.90147009,64.6260222 4.28683788,64.7737954 4.67200496,64.7737954 C5.05717204,64.7737954 5.44253983,64.6262238 5.73658349,64.330879 L11.6138963,58.1559784 C12.2015822,57.5656922 12.2015822,56.6082914 11.6136956,56.0178035 Z" fill="#FF614A"></path>
                </g>
            </g>
        </g>
    </g>
</svg>