<?xml version="1.0" encoding="utf-8"?>
<!-- Generator: Adobe Illustrator 17.1.0, SVG Export Plug-In . SVG Version: 6.00 Build 0)  -->
<!DOCTYPE svg PUBLIC "-//W3C//DTD SVG 1.1//EN" "http://www.w3.org/Graphics/SVG/1.1/DTD/svg11.dtd">
<svg version="1.1" id="Layer_1" xmlns="http://www.w3.org/2000/svg" xmlns:xlink="http://www.w3.org/1999/xlink" x="0px" y="0px"
	 viewBox="0 0 64 64" style="enable-background:new 0 0 64 64;" xml:space="preserve">
<style type="text/css">
	.st0{fill:#FF614A;}
</style>
<path class="st0" d="M52,8h-8V6c0-1.1-0.9-2-2-2h-4.3c-0.8-2.3-3-4-5.7-4s-4.8,1.7-5.7,4H22c-1.1,0-2,0.9-2,2v2h-8c-3.3,0-6,2.7-6,6
	v44c0,3.3,2.7,6,6,6h40c3.3,0,6-2.7,6-6V14C58,10.7,55.3,8,52,8z M24,8h4c1.1,0,2-0.9,2-2c0-1.1,0.9-2,2-2s2,0.9,2,2
	c0,1.1,0.9,2,2,2h4v4H24V8z M54,58c0,1.1-0.9,2-2,2H12c-1.1,0-2-0.9-2-2V14c0-1.1,0.9-2,2-2h8v2c0,1.1,0.9,2,2,2h20c1.1,0,2-0.9,2-2
	v-2h8c1.1,0,2,0.9,2,2V58z M27.4,21.6c0.8,0.8,0.8,2,0,2.8l-6,6C21,30.8,20.5,31,20,31s-1-0.2-1.4-0.6l-3-3c-0.8-0.8-0.8-2,0-2.8
	c0.8-0.8,2-0.8,2.8,0l1.6,1.6l4.6-4.6C25.4,20.8,26.6,20.8,27.4,21.6z M49,26c0,0.6-0.4,1-1,1H33c-0.6,0-1-0.4-1-1s0.4-1,1-1h15
	C48.6,25,49,25.4,49,26z M27.4,33.6c0.8,0.8,0.8,2,0,2.8l-6,6C21,42.8,20.5,43,20,43s-1-0.2-1.4-0.6l-3-3c-0.8-0.8-0.8-2,0-2.8
	c0.8-0.8,2-0.8,2.8,0l1.6,1.6l4.6-4.6C25.4,32.8,26.6,32.8,27.4,33.6z M49,38c0,0.6-0.4,1-1,1H33c-0.6,0-1-0.4-1-1s0.4-1,1-1h15
	C48.6,37,49,37.4,49,38z M27.4,45.6c0.8,0.8,0.8,2,0,2.8l-6,6C21,54.8,20.5,55,20,55s-1-0.2-1.4-0.6l-3-3c-0.8-0.8-0.8-2,0-2.8
	c0.8-0.8,2-0.8,2.8,0l1.6,1.6l4.6-4.6C25.4,44.8,26.6,44.8,27.4,45.6z M49,50c0,0.6-0.4,1-1,1H33c-0.6,0-1-0.4-1-1s0.4-1,1-1h15
	C48.6,49,49,49.4,49,50z"/>
</svg>
