<?xml version="1.0" encoding="UTF-8"?>
<svg width="69px" height="69px" viewBox="0 0 69 69" version="1.1" xmlns="http://www.w3.org/2000/svg" xmlns:xlink="http://www.w3.org/1999/xlink">
    <!-- Generator: Sketch 51.3 (57544) - http://www.bohemiancoding.com/sketch -->
    <title>process7</title>
    <desc>Created with Sketch.</desc>
    <defs></defs>
    <g id="Page-1" stroke="none" stroke-width="1" fill="none" fill-rule="evenodd">
        <g id="Ikons" transform="translate(-413.000000, -587.000000)" fill="#FF614A" fill-rule="nonzero">
            <g id="process7" transform="translate(413.000000, 587.000000)">
                <path d="M68.640625,66.628125 L35.9375,26.809375 L35.9375,13.225 C35.9375,13.225 35.9375,13.225 35.9375,13.225 L35.9375,1.725 C35.9375,1.00625 35.434375,0.43125 34.7875,0.2875 C33.6375,0.14375 32.559375,0 31.409375,0 C28.75,0 26.378125,0.646875 24.00625,1.221875 C21.778125,1.796875 19.69375,2.371875 17.39375,2.371875 C16.459375,2.371875 15.525,2.3 14.590625,2.084375 C14.159375,2.0125 13.728125,2.084375 13.36875,2.371875 C13.009375,2.659375 12.9375,3.090625 12.9375,3.521875 L12.9375,15.021875 C12.9375,15.740625 13.440625,16.315625 14.0875,16.459375 C15.2375,16.675 16.315625,16.81875 17.465625,16.81875 C17.465625,16.81875 17.465625,16.81875 17.465625,16.81875 C20.125,16.81875 22.496875,16.171875 24.86875,15.596875 C27.096875,15.021875 29.18125,14.446875 31.48125,14.446875 C32.05625,14.446875 32.559375,14.51875 33.134375,14.51875 L33.134375,26.809375 L0.359375,66.628125 C3.46944695e-18,67.059375 -0.071875,67.634375 0.14375,68.1375 C0.359375,68.640625 0.8625,69 1.4375,69 L67.5625,69 C68.1375,69 68.640625,68.7125 68.85625,68.209375 C69.071875,67.70625 69,67.059375 68.640625,66.628125 Z M34.5,29.6125 L49.1625,47.4375 L47.509375,46.71875 C46.2875,46.215625 44.85,46.215625 43.628125,46.71875 L40.034375,48.228125 C39.171875,48.5875 38.165625,48.5875 37.303125,48.228125 L33.709375,46.71875 C32.4875,46.215625 31.05,46.215625 29.828125,46.71875 L26.234375,48.228125 C25.371875,48.5875 24.365625,48.5875 23.503125,48.228125 L20.26875,46.8625 L34.5,29.6125 Z M17.465625,5.246875 C20.125,5.246875 22.496875,4.6 24.86875,4.025 C27.096875,3.45 29.18125,2.875 31.48125,2.875 C32.05625,2.875 32.559375,2.875 33.134375,2.946875 L33.134375,6.540625 C29.9,6.18125 27.025,6.971875 24.29375,7.690625 C21.5625,8.409375 18.903125,9.128125 15.884375,8.76875 L15.884375,5.175 C16.315625,5.246875 16.890625,5.246875 17.465625,5.246875 Z M31.409375,11.5 C28.75,11.5 26.30625,12.146875 24.00625,12.721875 C21.778125,13.296875 19.69375,13.871875 17.39375,13.871875 C16.81875,13.871875 16.315625,13.871875 15.740625,13.8 L15.740625,10.20625 C16.315625,10.278125 16.81875,10.278125 17.39375,10.278125 C19.98125,10.278125 22.28125,9.63125 24.58125,9.05625 C27.3125,8.3375 29.971875,7.61875 32.990625,7.978125 L32.990625,11.571875 C32.559375,11.5 31.984375,11.5 31.409375,11.5 Z M4.45625,66.125 L19.2625,48.084375 L22.85625,49.59375 C24.078125,50.096875 25.515625,50.096875 26.7375,49.59375 L30.33125,48.084375 C31.19375,47.725 32.2,47.725 33.0625,48.084375 L36.65625,49.59375 C37.878125,50.096875 39.315625,50.096875 40.5375,49.59375 L44.13125,48.084375 C44.99375,47.725 46,47.725 46.8625,48.084375 L51.03125,49.809375 L64.54375,66.125 L4.45625,66.125 Z" id="Shape"></path>
            </g>
        </g>
    </g>
</svg>