<?xml version="1.0" encoding="utf-8"?>
<!-- Generator: Adobe Illustrator 17.1.0, SVG Export Plug-In . SVG Version: 6.00 Build 0)  -->
<!DOCTYPE svg PUBLIC "-//W3C//DTD SVG 1.1//EN" "http://www.w3.org/Graphics/SVG/1.1/DTD/svg11.dtd">
<svg version="1.1" id="Layer_1" xmlns="http://www.w3.org/2000/svg" xmlns:xlink="http://www.w3.org/1999/xlink" x="0px" y="0px"
	 viewBox="0 0 80 80" style="enable-background:new 0 0 80 80;" xml:space="preserve">
<style type="text/css">
	.st0{fill:#FF614A;}
</style>
<path class="st0" d="M70,0H53H10C4.5,0,0,4.5,0,10v46c0,5.5,4.5,10,10,10h24v4h-8c-0.7,0-1.3,0.3-1.7,0.9l-4,6
	c-0.4,0.6-0.4,1.4-0.1,2.1c0.3,0.7,1,1.1,1.8,1.1h36c0.7,0,1.4-0.4,1.8-1.1c0.3-0.7,0.3-1.4-0.1-2.1l-4-6c-0.4-0.6-1-0.9-1.7-0.9h-8
	v-4h24c5.5,0,10-4.5,10-10V10C80,4.5,75.5,0,70,0z M10,4h43h17c3.3,0,6,2.7,6,6v7H4v-7C4,6.7,6.7,4,10,4z M52.9,74l1.3,2H25.7l1.3-2
	H36h8H52.9z M42,72h-4v-6h4V72z M70,62H44h-7h-1H10c-3.3,0-6-2.7-6-6V19h72v37C76,59.3,73.3,62,70,62z M8,10c0-1.1,0.9-2,2-2h4
	c1.1,0,2,0.9,2,2s-0.9,2-2,2h-4C8.9,12,8,11.1,8,10z M68.6,11.4C68.2,11,68,10.5,68,10c0-0.5,0.2-1,0.6-1.4c0.7-0.7,2.1-0.8,2.8,0
	C71.8,9,72,9.5,72,10s-0.2,1-0.6,1.4C71,11.8,70.5,12,70,12C69.5,12,69,11.8,68.6,11.4z M62.6,11.4C62.2,11,62,10.5,62,10
	c0-0.5,0.2-1,0.6-1.4c0.7-0.8,2.1-0.8,2.8,0C65.8,9,66,9.5,66,10c0,0.5-0.2,1-0.6,1.4C65,11.8,64.5,12,64,12S63,11.8,62.6,11.4z
	 M56.6,11.4C56.2,11,56,10.5,56,10c0-0.5,0.2-1,0.6-1.4c0.7-0.8,2.1-0.8,2.8,0C59.8,9,60,9.5,60,10c0,0.5-0.2,1-0.6,1.4
	C59,11.8,58.5,12,58,12C57.5,12,57,11.8,56.6,11.4z M50.6,29c-4.8,0-8.9,3.4-9.8,8c-0.1,0-0.1,0-0.2,0H19.4c-1.1,0-2,0.9-2,2
	s0.9,2,2,2h0.8v5.1c0,1.1,0.9,2,2,2s2-0.9,2-2V41h1.7v5.1c0,1.1,0.9,2,2,2s2-0.9,2-2V41h10.6c0.1,0,0.1,0,0.2,0c0.9,4.6,5,8,9.8,8
	c5.5,0,10-4.5,10-10S56.1,29,50.6,29z M50.6,45c-3.3,0-6-2.7-6-6s2.7-6,6-6s6,2.7,6,6S53.9,45,50.6,45z"/>
</svg>
