<?xml version="1.0" encoding="UTF-8"?>
<svg width="69px" height="69px" viewBox="0 0 69 69" version="1.1" xmlns="http://www.w3.org/2000/svg" xmlns:xlink="http://www.w3.org/1999/xlink">
    <!-- Generator: Sketch 51.3 (57544) - http://www.bohemiancoding.com/sketch -->
    <title>fact2</title>
    <desc>Created with Sketch.</desc>
    <defs></defs>
    <g id="Page-1" stroke="none" stroke-width="1" fill="none" fill-rule="evenodd">
        <g id="Ikons" transform="translate(-992.000000, -452.000000)" fill="#FF614A" fill-rule="nonzero">
            <g id="fact2" transform="translate(992.000000, 452.000000)">
                <path d="M36.36875,45.7125 C35.79375,45.7125 35.21875,45.928125 34.715625,46.359375 C33.78125,47.29375 33.78125,48.73125 34.715625,49.59375 C35.146875,50.025 35.721875,50.240625 36.36875,50.240625 C37.015625,50.240625 37.51875,50.025 38.021875,49.59375 C38.95625,48.659375 38.95625,47.221875 38.021875,46.359375 C37.51875,45.928125 36.94375,45.7125 36.36875,45.7125 Z M37.015625,48.659375 C36.871875,48.803125 36.65625,48.946875 36.36875,48.946875 C36.08125,48.946875 35.9375,48.875 35.721875,48.659375 C35.578125,48.515625 35.434375,48.3 35.434375,48.0125 C35.434375,47.796875 35.50625,47.58125 35.721875,47.365625 C35.865625,47.221875 36.08125,47.078125 36.36875,47.078125 C36.65625,47.078125 36.8,47.15 37.015625,47.365625 C37.159375,47.509375 37.303125,47.725 37.303125,48.0125 C37.23125,48.228125 37.159375,48.44375 37.015625,48.659375 Z M66.196875,31.121875 C68.209375,29.109375 68.209375,25.73125 66.196875,23.71875 L66.125,23.646875 C65.478125,23 64.759375,22.56875 63.896875,22.353125 C65.334375,20.196875 65.046875,17.25 63.178125,15.309375 L63.10625,15.2375 C62.24375,14.375 61.2375,13.871875 60.0875,13.65625 C60.878125,11.64375 60.446875,9.271875 58.79375,7.690625 L58.21875,7.115625 C57.140625,6.0375 55.775,5.4625 54.265625,5.4625 C53.978125,5.4625 53.690625,5.4625 53.403125,5.534375 C53.33125,4.16875 52.828125,2.803125 51.75,1.725 L51.75,1.653125 C50.671875,0.575 49.30625,0 47.796875,0 C46.2875,0 44.85,0.575 43.84375,1.653125 L35.003125,10.421875 C32.91875,7.834375 30.115625,5.175 27.815625,3.88125 C25.803125,2.73125 23.71875,2.084375 21.921875,2.084375 C20.26875,2.084375 18.903125,2.5875 17.96875,3.59375 C15.8125,5.75 16.028125,8.984375 18.54375,11.571875 L18.975,12.003125 C22.065625,15.165625 24.365625,17.465625 22.496875,24.4375 C21.634375,24.4375 20.84375,24.725 20.26875,25.3 L13.65625,31.76875 C12.865625,32.559375 12.65,33.709375 12.9375,34.715625 L1.725,45.928125 C1.15,46.503125 1.15,47.365625 1.725,47.940625 L22.353125,68.56875 C22.640625,68.85625 23,69 23.359375,69 C23.71875,69 24.078125,68.85625 24.365625,68.56875 L35.578125,57.35625 C36.584375,57.64375 37.734375,57.35625 38.525,56.565625 L45.065625,50.025 C46.14375,48.946875 46.215625,47.29375 45.353125,46.14375 L54.625,41.184375 C56.853125,39.9625 58.865625,38.453125 60.6625,36.65625 L66.196875,31.121875 Z M23.359375,65.55 L4.74375,46.934375 L15.66875,36.009375 C15.884375,35.79375 16.028125,35.434375 16.1,35.146875 L35.146875,54.19375 C34.859375,54.19375 34.5,54.3375 34.284375,54.625 L23.359375,65.55 Z M42.98125,48.084375 L37.015625,54.05 L16.9625,33.996875 C16.675,33.709375 16.24375,33.709375 15.95625,33.996875 C15.884375,34.06875 15.884375,34.140625 15.8125,34.140625 C15.740625,34.06875 15.740625,33.996875 15.66875,33.996875 C15.596875,33.925 15.596875,33.925 15.66875,33.853125 L22.209375,27.3125 C22.209375,27.3125 22.28125,27.3125 22.28125,27.3125 C22.28125,27.3125 22.28125,27.3125 22.28125,27.384375 L41.83125,46.934375 C41.903125,47.00625 41.975,47.00625 42.046875,47.078125 L42.98125,48.0125 C42.98125,48.0125 42.98125,48.084375 42.98125,48.084375 Z M53.115625,38.66875 L42.190625,44.5625 C42.046875,44.634375 41.903125,44.70625 41.83125,44.85 L24.29375,27.384375 C24.4375,27.240625 24.58125,27.025 24.653125,26.809375 C27.815625,17.034375 24.29375,13.440625 20.915625,9.990625 L20.55625,9.559375 C19.909375,8.840625 18.471875,7.115625 19.98125,5.60625 C20.4125,5.175 21.059375,4.959375 21.921875,4.959375 C23.215625,4.959375 24.86875,5.4625 26.378125,6.396875 C28.60625,7.690625 31.840625,10.78125 33.6375,13.440625 C33.853125,13.8 34.284375,14.015625 34.715625,14.0875 C35.146875,14.159375 35.578125,13.94375 35.865625,13.65625 L45.85625,3.665625 C46.8625,2.659375 48.73125,2.659375 49.7375,3.665625 L49.809375,3.7375 C50.8875,4.815625 50.8875,6.46875 49.88125,7.546875 L49.809375,7.61875 C49.665625,7.7625 49.59375,7.834375 49.521875,7.978125 L47.078125,11.284375 C46.8625,11.5 46.8625,11.859375 47.078125,12.146875 C47.29375,12.50625 47.796875,12.50625 48.084375,12.290625 L51.390625,9.91875 C51.534375,9.846875 51.75,9.775 51.821875,9.63125 L52.396875,9.05625 C53.403125,8.05 55.271875,8.05 56.278125,9.05625 L56.853125,9.63125 C57.93125,10.709375 57.93125,12.434375 56.853125,13.5125 L56.278125,14.159375 C56.134375,14.23125 55.990625,14.375 55.91875,14.51875 L55.775,14.734375 L55.703125,14.80625 C55.63125,14.878125 55.559375,15.021875 55.4875,15.165625 L53.115625,18.4 C52.9,18.615625 52.9,18.975 53.115625,19.2625 C53.33125,19.621875 53.834375,19.621875 54.121875,19.40625 L57.06875,17.25 C57.284375,17.178125 57.428125,17.10625 57.571875,17.034375 C58.65,16.24375 60.23125,16.315625 61.165625,17.25 L61.2375,17.321875 C62.315625,18.4 62.315625,20.125 61.2375,21.203125 L59.65625,22.85625 C59.440625,22.928125 59.296875,23.071875 59.153125,23.2875 L56.35,27.096875 C56.134375,27.3125 56.134375,27.671875 56.35,27.959375 C56.565625,28.31875 57.06875,28.31875 57.35625,28.103125 L60.80625,25.5875 C60.95,25.515625 61.021875,25.515625 61.165625,25.44375 C62.1,24.796875 63.39375,24.86875 64.184375,25.73125 L64.25625,25.803125 C65.190625,26.7375 65.190625,28.246875 64.25625,29.109375 L58.65,34.715625 C56.925,36.296875 55.128125,37.590625 53.115625,38.66875 Z M1.86875,29.0375 C1.078125,28.89375 0.575,28.103125 0.71875,27.3125 C0.8625,26.521875 1.653125,26.01875 2.44375,26.234375 L4.528125,26.665625 C5.31875,26.809375 5.821875,27.6 5.60625,28.390625 C5.4625,29.0375 4.8875,29.540625 4.16875,29.540625 C4.096875,29.540625 3.953125,29.540625 3.88125,29.540625 L1.86875,29.0375 Z M68.28125,41.6875 C68.1375,42.334375 67.5625,42.8375 66.84375,42.8375 C66.771875,42.8375 66.628125,42.8375 66.55625,42.8375 L64.471875,42.40625 C63.68125,42.2625 63.178125,41.471875 63.39375,40.68125 C63.5375,39.890625 64.328125,39.3875 65.11875,39.603125 L67.203125,40.034375 C67.921875,40.10625 68.425,40.896875 68.28125,41.6875 Z M7.33125,13.225 C7.834375,12.578125 8.696875,12.50625 9.34375,13.009375 L11.06875,14.303125 C11.715625,14.80625 11.7875,15.66875 11.284375,16.315625 C10.996875,16.675 10.565625,16.890625 10.134375,16.890625 C9.846875,16.890625 9.4875,16.81875 9.271875,16.603125 L7.546875,15.309375 C6.971875,14.80625 6.828125,13.871875 7.33125,13.225 Z M61.66875,55.775 C61.38125,56.134375 60.95,56.35 60.51875,56.35 C60.23125,56.35 59.871875,56.278125 59.65625,56.0625 L58.003125,54.625 C57.35625,54.121875 57.284375,53.259375 57.7875,52.6125 C58.290625,51.965625 59.153125,51.89375 59.8,52.396875 L61.525,53.690625 C62.028125,54.19375 62.171875,55.128125 61.66875,55.775 Z M50.3125,63.609375 C50.671875,64.328125 50.384375,65.190625 49.665625,65.55 C49.45,65.621875 49.234375,65.69375 49.01875,65.69375 C48.515625,65.69375 47.940625,65.40625 47.725,64.903125 L46.790625,62.9625 C46.43125,62.24375 46.71875,61.38125 47.4375,61.021875 C48.15625,60.6625 49.01875,60.95 49.378125,61.66875 L50.3125,63.609375 Z M35.9375,65.40625 L35.9375,67.5625 C35.9375,68.353125 35.290625,69 34.5,69 C33.709375,69 33.0625,68.353125 33.0625,67.5625 L33.0625,65.40625 C33.0625,64.615625 33.709375,63.96875 34.5,63.96875 C35.290625,63.96875 35.9375,64.615625 35.9375,65.40625 Z" id="Shape"></path>
            </g>
        </g>
    </g>
</svg>