<?xml version="1.0" encoding="utf-8"?>
<!-- Generator: Adobe Illustrator 17.1.0, SVG Export Plug-In . SVG Version: 6.00 Build 0)  -->
<!DOCTYPE svg PUBLIC "-//W3C//DTD SVG 1.1//EN" "http://www.w3.org/Graphics/SVG/1.1/DTD/svg11.dtd">
<svg version="1.1" id="Layer_1" xmlns="http://www.w3.org/2000/svg" xmlns:xlink="http://www.w3.org/1999/xlink" x="0px" y="0px"
	 viewBox="0 0 96 96" style="enable-background:new 0 0 96 96;" xml:space="preserve">
<style type="text/css">
	.st0{fill:#FF614C;}
</style>
<g>
	<path class="st0" d="M27.3,62.3v8.9c0,1.2-0.2,2.1-0.7,3c-0.5,0.8-1.2,1.5-2.1,1.9c-0.9,0.4-2,0.7-3.2,0.7c-1.2,0-2.2-0.2-3.1-0.6
		c-0.9-0.4-1.5-1-2-1.9c-0.5-0.8-0.7-1.8-0.7-2.9v-9.1h1.9v8.9c0,1.3,0.3,2.3,1,3c0.7,0.7,1.6,1,2.9,1c1.3,0,2.3-0.3,3-1
		c0.7-0.7,1.1-1.7,1.1-3.1v-7.4C25.3,62.4,26.6,62.3,27.3,62.3z M9.1,71.4l3.4,5.3c-1.3,0-2.1,0.1-2.8-1.1l-2.3-3.7l-5.4,0v4.7H0
		V62.4h7c1.3,0,4.8,0.7,4.8,4.8c0,1.6-0.5,2.6-1.3,3.3c-0.4,0.4-0.8,0.7-1.3,0.9C9.2,71.4,9.1,71.4,9.1,71.4z M9,69.5
		c0,0,0.1-0.1,0.1-0.1c0-0.1,0.1-0.1,0.1-0.2c0,0,0,0,0,0c0-0.1,0.1-0.1,0.1-0.2c0.3-0.4,0.5-1,0.5-1.8c0-1.2-0.5-2-1.1-2.5l0,0
		c0,0-0.1-0.1-0.1-0.1C8.1,64.2,7.3,64,6.3,64H1.9v6.4c0.2,0,4.6,0,4.6,0c0.9,0,1.6-0.2,2.1-0.5c0,0,0,0,0,0c0,0,0.1-0.1,0.1-0.1
		C8.8,69.7,8.9,69.7,9,69.5C8.9,69.6,9,69.6,9,69.5z M76.5,71.4l3.4,5.3c-1.3,0-2.1,0.1-2.8-1.1l-2.3-3.7l-5.4,0v4.7h-1.9V62.4h7
		c1.3,0,4.8,0.7,4.8,4.8c0,1.6-0.5,2.6-1.3,3.3c-0.4,0.4-0.8,0.7-1.3,0.9C76.6,71.4,76.6,71.4,76.5,71.4z M76.4,69.5
		c0,0,0.1-0.1,0.1-0.1c0-0.1,0.1-0.1,0.1-0.2c0,0,0,0,0,0c0-0.1,0.1-0.1,0.1-0.2c0.3-0.4,0.5-1,0.5-1.8c0-1.2-0.5-2-1.1-2.5l0,0
		c0,0-0.1-0.1-0.1-0.1c-0.6-0.4-1.3-0.7-2.4-0.7h-4.3v6.4c0.2,0,4.6,0,4.6,0c0.9,0,1.6-0.2,2.1-0.5c0,0,0,0,0,0c0,0,0.1-0.1,0.1-0.1
		C76.3,69.7,76.3,69.7,76.4,69.5C76.4,69.6,76.4,69.6,76.4,69.5z M96,69.3c0,1.5-0.3,2.8-0.9,3.9c-0.6,1.1-1.4,1.9-2.4,2.5
		c-1.1,0.6-2.3,0.9-3.6,0.9h-5.3V62.3h4.7c2.4,0,4.3,0.6,5.6,1.8C95.3,65.3,96,67,96,69.3z M94.1,69.3c0-1.8-0.5-3.1-1.5-4
		c-1-0.9-2.4-1.4-4.2-1.4h-2.7V75h3.2c1,0,2-0.2,2.8-0.7c0.8-0.5,1.4-1.1,1.8-2C93.9,71.4,94.1,70.4,94.1,69.3z M49.1,62.3
		L49.1,62.3c-0.7,0-1.2,0.2-1.6,1c-0.1,0.3-2.4,8.9-2.5,9.3l-0.4,1.9l-0.1,0.4c-0.2-1-0.5-2.2-0.9-3.7l-2.5-8.9h-1.9
		c-1.7,5.9-2.6,9.3-2.8,10.1c-0.2,0.8-0.4,1.6-0.6,2.4c-0.3-1.2-0.5-2.3-0.8-3.5l-2.6-9.1h-2l4.2,14.3h2.3c1.7-6.2,2.6-9.6,2.8-10.1
		c0.1-0.5,0.3-1.2,0.4-2c0.3,1.5,0.5,2.5,0.7,3l2.5,9.1h2.3l4.2-14.3C49.6,62.3,49.3,62.3,49.1,62.3L49.1,62.3z M58.6,62.3l5.7,14.3
		h-2l-1.6-4.2l-0.2-0.4h-6.2l-0.2,0.4l-1.6,4.2h-2l5.8-14.3H58.6z M60,70.5l-1.7-4.3c-0.2-0.5-0.4-1-0.6-1.6l-0.3-0.8L57.3,64
		c-0.2,0.6-0.4,1.3-0.7,2.2l-1.7,4.3H60z M45.5,52.5c0,1.4,1.5,1.6,1.5,1.6l7.6-29.7l-0.4,0C54.2,24.4,45.5,51,45.5,52.5z
		 M35.9,39.8l-8.7-8.7l-2.4-2.4c-5.3,5.5-8.7,13-8.8,21.2h15.9C31.9,46,33.5,42.4,35.9,39.8z M46.5,35V19.3
		c-8.2,0.1-15.6,3.4-21,8.7l11.2,11.1C39.3,36.6,42.7,35.1,46.5,35z M53.2,24.1c0.1-0.4,0.5-0.7,0.9-0.7l0.4,0c0,0,0.1,0,0.1,0
		c0.3,0,0.6,0.1,0.8,0.4c0.2,0.2,0.3,0.6,0.2,0.9L52.7,36c1.8,0.7,3.4,1.7,4.7,3L68.6,28c-5.5-5.3-12.9-8.6-21-8.7V35
		c0.7,0,1.4,0.1,2.1,0.2C51.1,30.7,52.5,26.4,53.2,24.1z M58.1,39.8c2.5,2.7,4,6.2,4,10.1H78c-0.1-8.3-3.4-15.7-8.8-21.2l-2.4,2.4
		L58.1,39.8z"/>
</g>
</svg>
