<?xml version="1.0" encoding="utf-8"?>
<!-- Generator: Adobe Illustrator 17.1.0, SVG Export Plug-In . SVG Version: 6.00 Build 0)  -->
<!DOCTYPE svg PUBLIC "-//W3C//DTD SVG 1.1//EN" "http://www.w3.org/Graphics/SVG/1.1/DTD/svg11.dtd">
<svg version="1.1" id="Layer_1" xmlns="http://www.w3.org/2000/svg" xmlns:xlink="http://www.w3.org/1999/xlink" x="0px" y="0px"
	 viewBox="0 0 96 96" style="enable-background:new 0 0 96 96;" xml:space="preserve">
<style type="text/css">
	.st0{fill:#FF614A;}
</style>
<path class="st0" d="M93,73.4c0-0.4-0.1-1-0.2-1.7c-0.1-0.8-0.4-1.7-0.8-2.7c-0.5-1-1.3-2.3-2.7-3.1c-1.4-0.9-3.3-1.1-5-0.6
	c-1.7,0.5-3,1.5-4.1,2.7c-0.3,0.3-0.5,0.6-0.8,0.9c-0.2,0.3-0.5,0.7-0.7,1c-0.2,0.3-0.4,0.6-0.6,0.9c-0.2,0.3-0.4,0.6-0.5,0.8
	c-0.7,1.1-1.6,2-2.6,2.4c-0.9,0.4-2.1,0.3-3.3-0.1c-1.2-0.5-2.4-1.2-3.6-1.9c-1.2-0.8-2.6-1.6-4-1.9c-1.4-0.4-2.8-0.4-4.1-0.2
	c-1.2,0.2-2.3,0.6-3.2,1c-0.9,0.4-1.6,0.8-2.2,1.2h-1.3c0.1-0.2,0.3-0.5,0.4-0.7c0.4-0.7,1-1.5,1.7-2.3c0.7-0.8,1.6-1.7,2.6-2.4
	c1.1-0.7,2.4-1.1,3.7-0.9c0.7,0.1,1.3,0.4,2,0.7c0.3,0.2,0.6,0.4,0.9,0.6l0.5,0.4l0.3,0.2l0.4,0.2c1.9,1.1,4.4,1,6.3,0.1
	c1.9-1,3.4-2.6,4.4-4.4c1-1.9,1.5-4,1.4-6.1c-0.1-2.1-0.7-4.1-1.7-5.8c-0.5-0.8-1-1.5-1.4-2.2c-0.3-0.4-0.4-0.7-0.6-1
	c-0.2-0.3-0.4-0.6-0.5-1c-0.6-1.3-0.9-2.6-1.1-3.8c-0.1-1.2,0-2.2,0.3-3c0.3-0.8,0.7-1.3,1.1-1.5c0.3-0.3,0.6-0.3,0.7-0.3
	c0.1,0,0.2,0,0.2,0l0.4-4c0,0-0.4,0-1.1,0c-0.7,0.1-1.8,0.4-2.7,1.2c-0.9,0.8-1.7,1.9-2.2,3.3c-0.5,1.4-0.6,3-0.3,4.6
	c0.3,1.6,0.8,3.2,1.6,4.8c0.2,0.4,0.4,0.8,0.7,1.2c0.2,0.4,0.5,0.8,0.7,1.1c0.5,0.7,1,1.4,1.5,2.1c0.8,1.3,1.4,2.8,1.5,4.4
	c0.1,1.6-0.2,3.2-0.9,4.7c-0.7,1.5-1.8,2.8-3.2,3.5c-1.3,0.8-2.9,0.8-4.1,0.2c-0.1,0-0.1-0.1-0.2-0.1l-0.3-0.2l-0.5-0.3
	c-0.4-0.3-0.8-0.6-1.2-0.8c-0.8-0.4-1.8-0.8-2.7-0.8c-1.9-0.2-3.6,0.5-4.8,1.4c-1.2,0.9-2.1,1.9-2.9,2.9c-0.7,0.9-1.3,1.8-1.7,2.5
	c-0.3,0.6-0.6,1.1-0.8,1.4H51v-6h-5v-2h6l0-9h3v-8h3V25h-1.7H55h0v0v-1.2V22h-3v-3h-7v-3h-6v-3h-6V3h-2V0h-9v3h-2v25h-1v-3H8v11h3v6
	h3v5h3v5h3v6h3v6h5v2h-5v6h-8v11h4v2h-4v11h44V85h-4v-2h4V72.3c0.4-0.1,0.9-0.2,1.4-0.3c1-0.1,2.1,0,3.1,0.3
	c1.1,0.3,2.1,0.9,3.2,1.7c1.2,0.8,2.4,1.7,3.9,2.4c0.8,0.3,1.6,0.6,2.5,0.7c0.9,0.1,1.9,0,2.9-0.3c1.9-0.7,3.1-2,4.1-3.3
	c0.3-0.3,0.5-0.6,0.7-1c0.2-0.3,0.4-0.6,0.6-0.9c0.2-0.3,0.4-0.5,0.6-0.7c0.2-0.2,0.4-0.5,0.6-0.7c0.8-0.8,1.8-1.4,2.6-1.6
	c0.8-0.2,1.5,0,2,0.3c0.5,0.3,0.9,0.9,1.2,1.5c0.3,0.6,0.4,1.2,0.5,1.8c0.1,0.5,0.1,1,0.1,1.3c0,0.3,0,0.5,0,0.5h4
	C93,74,93,73.8,93,73.4z M30,3.9C30,3.9,30,4,30,3.9L30,3.9L30,3.9z M27,60v0.3l0,0V55h-3v0.5c0,0,0,0,0,0V49h-3v0.5c0,0,0,0,0,0V43
	h-3v0.5h0V38h-3v0.6h0V35h-3v0c0,0,0,0,0,0v-5.9c0,0,0,0,0.1-0.1H18v0c0,0,0,0,0,0l0,3h3v-1c0,0,0,0,0,0l0,6h3V4h5v25h3V17h4.1
	c0,0,0,0,0,0h0.7c0.1,0,0.1,0,0.2,0v3v9h3v-9l0,0h4c0,0,0,0,0,0h0v3h0v9h3v-9l0,0h4v0c0,0,0,0,0,0l0,3h3l0,0h0v19.2h0V43h-3v8.9l0,0
	V51h-3v9h-2H28H27z M42,64v4H32v-4H42z M30,70h2h10h2h3v4H27v-4H30z M55,92H19v-3h2h2h28h2h2V92z M23,81h28v6H23V81z M55,79h-2h-2
	H23h-2h-2v-3h6h2h20h2h6V79z"/>
</svg>
