<?xml version="1.0" encoding="utf-8"?>
<!-- Generator: Adobe Illustrator 17.1.0, SVG Export Plug-In . SVG Version: 6.00 Build 0)  -->
<!DOCTYPE svg PUBLIC "-//W3C//DTD SVG 1.1//EN" "http://www.w3.org/Graphics/SVG/1.1/DTD/svg11.dtd">
<svg version="1.1" id="Layer_1" xmlns="http://www.w3.org/2000/svg" xmlns:xlink="http://www.w3.org/1999/xlink" x="0px" y="0px"
	 viewBox="0 0 96 96" style="enable-background:new 0 0 96 96;" xml:space="preserve">
<style type="text/css">
	.st0{fill:#FF614A;}
</style>
<path class="st0" d="M62.1,18.1l-5.7,13.8L56.3,32h-5.8l-0.1-0.1l-2-6.5l-2.6,6.5L45.8,32H40l-0.1-0.1l-6-13.8L34,18h6l0.1,0.1
	l3.8,10.3H44l2.6-7.2l-1.3-3.1l0.1-0.1h6l0.1,0.1l2.9,10.3h0.1L58,18.1L58,18L62.1,18.1L62.1,18.1z M60,55.9c0,0,0,0.1,0,0.1v8
	c0,0.9-0.6,1.7-1.5,1.9c0.2,0.1,0.4,0.2,0.7,0.3c1.9,0.7,4.3,1.6,5.4,3.9c3.7,0.4,7.9,2.4,9.1,5.9H78c1.1,0,2,0.9,2,2v16
	c0,1.1-0.9,2-2,2H18c-1.1,0-2-0.9-2-2V78c0-1.1,0.9-2,2-2h4.3c1.2-3.5,5.5-5.6,9.1-5.9c1-2.2,3.5-3.1,5.4-3.9
	c0.2-0.1,0.5-0.2,0.7-0.3c-0.9-0.2-1.5-1-1.5-1.9v-8c0,0,0-0.1,0-0.1c-2.8-2-5.4-4.7-7.7-8C20.3,47,0,36.9,0,20C0,12,4.6,7,12,7
	c2,0,4,0.5,6,1.5V6c0-3.3,2.7-6,6-6h48c3.3,0,6,2.7,6,6v2.5c2-1,4-1.5,6-1.5c7.4,0,12,5,12,13c0,16.9-20.3,27-28.3,27.9
	C65.4,51.2,62.8,53.9,60,55.9z M84,11c-2,0-4.1,0.8-6.1,2.1c-0.4,11.4-3.1,21.9-7.4,30C78.3,40.6,92,32.3,92,20
	C92,15.9,90.6,11,84,11z M25.5,43.2c-4.3-8.1-7-18.6-7.4-30C16.1,11.8,14,11,12,11c-6.6,0-8,4.9-8,9C4,32.3,17.7,40.6,25.5,43.2z
	 M72,80H24h-4v12h56V80H72z M63.3,74l-0.2,0c0,0,0,0,0,0c0,0,0,0,0,0H33c0,0,0,0,0,0c0,0,0,0,0,0l-0.2,0C30,74,26,75.6,26,78h44
	C70,75.6,66,74,63.3,74z M57.8,69.9c-2.4-0.9-5.7-2.1-5.8-5.9c0,0,0,0,0-0.1h-8c0,0,0,0,0,0.1c-0.1,3.7-3.4,5-5.8,5.9
	c-2,0.8-3,1.2-3.2,2.1H61C60.8,71.2,59.8,70.7,57.8,69.9z M40,58v4h1h1h12h1h1v-4c-0.2,0-0.4,0-0.6-0.1C55.3,58,55.1,58,55,58H41
	c-0.1,0-0.3,0-0.4-0.1C40.4,58,40.2,58,40,58z M74,10V6c0-1.1-0.9-2-2-2H24c-1.1,0-2,0.9-2,2v4c0,20.4,7.8,38.5,18.9,44.2
	c0.7,0.3,1.1,1,1.1,1.8h12c0-0.7,0.4-1.4,1.1-1.8C66.2,48.5,74,30.4,74,10z M25,6c-0.6,0-1,0.4-1,1v3c0,0.6,0.4,1,1,1s1-0.4,1-1V7
	C26,6.4,25.6,6,25,6z M43.4,51l-0.7-0.4c-0.5-0.3-1.1-0.1-1.3,0.4c-0.3,0.5-0.1,1.1,0.4,1.3l0.7,0.4c0.1,0.1,0.3,0.1,0.5,0.1
	c0.4,0,0.7-0.2,0.9-0.5C44.1,51.9,43.9,51.3,43.4,51z M67.9,31.2c-0.5-0.2-1.1,0.1-1.3,0.6c-1.8,5.5-4.3,10.3-7.3,13.7
	c-0.4,0.4-0.3,1.1,0.1,1.4c0.2,0.2,0.4,0.2,0.6,0.2c0.3,0,0.6-0.1,0.8-0.4c3.1-3.7,5.7-8.6,7.6-14.4C68.7,31.9,68.5,31.4,67.9,31.2z
	 M71,9c-0.6,0-1,0.4-1,1c0,5.1-0.5,10.1-1.5,14.8c-0.1,0.5,0.2,1.1,0.8,1.2c0.1,0,0.1,0,0.2,0c0.5,0,0.9-0.3,1-0.8
	c1-4.9,1.5-10,1.5-15.2C72,9.4,71.6,9,71,9z M61,83v6c0,0.6-0.4,1-1,1H36c-0.6,0-1-0.4-1-1v-6c0-0.6,0.4-1,1-1h24
	C60.6,82,61,82.4,61,83z M59,84H37v4h22V84z"/>
</svg>
