<?xml version="1.0" encoding="utf-8"?>
<!-- Generator: Adobe Illustrator 17.1.0, SVG Export Plug-In . SVG Version: 6.00 Build 0)  -->
<!DOCTYPE svg PUBLIC "-//W3C//DTD SVG 1.1//EN" "http://www.w3.org/Graphics/SVG/1.1/DTD/svg11.dtd">
<svg version="1.1" id="Layer_1" xmlns="http://www.w3.org/2000/svg" xmlns:xlink="http://www.w3.org/1999/xlink" x="0px" y="0px"
	 viewBox="0 0 96 96" style="enable-background:new 0 0 96 96;" xml:space="preserve">
<style type="text/css">
	.st0{fill:#FF614A;}
</style>
<path class="st0" d="M50.6,63.6c-0.8,0-1.6,0.3-2.3,0.9c-1.3,1.3-1.3,3.3,0,4.5c0.6,0.6,1.4,0.9,2.3,0.9s1.6-0.3,2.3-0.9
	c1.3-1.3,1.3-3.3,0-4.5C52.2,63.9,51.4,63.6,50.6,63.6z M51.5,67.7c-0.2,0.2-0.5,0.4-0.9,0.4s-0.6-0.1-0.9-0.4
	c-0.2-0.2-0.4-0.5-0.4-0.9c0-0.3,0.1-0.6,0.4-0.9c0.2-0.2,0.5-0.4,0.9-0.4s0.6,0.1,0.9,0.4c0.2,0.2,0.4,0.5,0.4,0.9
	C51.8,67.1,51.7,67.4,51.5,67.7z M92.1,43.3c2.8-2.8,2.8-7.5,0-10.3L92,32.9c-0.9-0.9-1.9-1.5-3.1-1.8c2-3,1.6-7.1-1-9.8l-0.1-0.1
	c-1.2-1.2-2.6-1.9-4.2-2.2c1.1-2.8,0.5-6.1-1.8-8.3l-0.8-0.8c-1.5-1.5-3.4-2.3-5.5-2.3c-0.4,0-0.8,0-1.2,0.1
	c-0.1-1.9-0.8-3.8-2.3-5.3L72,2.3C70.5,0.8,68.6,0,66.5,0c-2.1,0-4.1,0.8-5.5,2.3L48.7,14.5c-2.9-3.6-6.8-7.3-10-9.1
	c-2.8-1.6-5.7-2.5-8.2-2.5c-2.3,0-4.2,0.7-5.5,2.1C22,8,22.3,12.5,25.8,16.1l0.6,0.6c4.3,4.4,7.5,7.6,4.9,17.3
	c-1.2,0-2.3,0.4-3.1,1.2L19,44.2c-1.1,1.1-1.4,2.7-1,4.1L2.4,63.9c-0.8,0.8-0.8,2,0,2.8l28.7,28.7c0.4,0.4,0.9,0.6,1.4,0.6
	s1-0.2,1.4-0.6l15.6-15.6c1.4,0.4,3,0,4.1-1.1l9.1-9.1c1.5-1.5,1.6-3.8,0.4-5.4l12.9-6.9c3.1-1.7,5.9-3.8,8.4-6.3L92.1,43.3z
	 M32.5,91.2L6.6,65.3l15.2-15.2c0.3-0.3,0.5-0.8,0.6-1.2l26.5,26.5c-0.4,0-0.9,0.2-1.2,0.6L32.5,91.2z M59.8,66.9l-8.3,8.3
	L23.6,47.3c-0.4-0.4-1-0.4-1.4,0c-0.1,0.1-0.1,0.2-0.2,0.2c-0.1-0.1-0.1-0.2-0.2-0.2c-0.1-0.1-0.1-0.1,0-0.2l9.1-9.1
	c0,0,0.1,0,0.1,0c0,0,0,0,0,0.1l27.2,27.2c0.1,0.1,0.2,0.1,0.3,0.2l1.3,1.3C59.8,66.8,59.8,66.9,59.8,66.9z M73.9,53.8L58.7,62
	c-0.2,0.1-0.4,0.2-0.5,0.4L33.8,38.1c0.2-0.2,0.4-0.5,0.5-0.8c4.4-13.6-0.5-18.6-5.2-23.4l-0.5-0.6c-0.9-1-2.9-3.4-0.8-5.5
	c0.6-0.6,1.5-0.9,2.7-0.9c1.8,0,4.1,0.7,6.2,2c3.1,1.8,7.6,6.1,10.1,9.8c0.3,0.5,0.9,0.8,1.5,0.9c0.6,0.1,1.2-0.2,1.6-0.6L63.8,5.1
	c1.4-1.4,4-1.4,5.4,0l0.1,0.1c1.5,1.5,1.5,3.8,0.1,5.3l-0.1,0.1c-0.2,0.2-0.3,0.3-0.4,0.5l-3.4,4.6c-0.3,0.3-0.3,0.8,0,1.2
	c0.3,0.5,1,0.5,1.4,0.2l4.6-3.3c0.2-0.1,0.5-0.2,0.6-0.4l0.8-0.8c1.4-1.4,4-1.4,5.4,0l0.8,0.8c1.5,1.5,1.5,3.9,0,5.4l-0.8,0.9
	c-0.2,0.1-0.4,0.3-0.5,0.5l-0.2,0.3l-0.1,0.1c-0.1,0.1-0.2,0.3-0.3,0.5l-3.3,4.5c-0.3,0.3-0.3,0.8,0,1.2c0.3,0.5,1,0.5,1.4,0.2
	l4.1-3c0.3-0.1,0.5-0.2,0.7-0.3c1.5-1.1,3.7-1,5,0.3l0.1,0.1c1.5,1.5,1.5,3.9,0,5.4l-2.2,2.3c-0.3,0.1-0.5,0.3-0.7,0.6l-3.9,5.3
	c-0.3,0.3-0.3,0.8,0,1.2c0.3,0.5,1,0.5,1.4,0.2l4.8-3.5c0.2-0.1,0.3-0.1,0.5-0.2c1.3-0.9,3.1-0.8,4.2,0.4l0.1,0.1
	c1.3,1.3,1.3,3.4,0,4.6l-7.8,7.8C79.2,50.5,76.7,52.3,73.9,53.8z M2.6,40.4C1.5,40.2,0.8,39.1,1,38c0.2-1.1,1.3-1.8,2.4-1.5l2.9,0.6
	c1.1,0.2,1.8,1.3,1.5,2.4c-0.2,0.9-1,1.6-2,1.6c-0.1,0-0.3,0-0.4,0L2.6,40.4z M95,58c-0.2,0.9-1,1.6-2,1.6c-0.1,0-0.3,0-0.4,0
	l-2.9-0.6c-1.1-0.2-1.8-1.3-1.5-2.4c0.2-1.1,1.3-1.8,2.4-1.5l2.9,0.6C94.5,55.8,95.2,56.9,95,58z M10.2,18.4c0.7-0.9,1.9-1,2.8-0.3
	l2.4,1.8c0.9,0.7,1,1.9,0.3,2.8c-0.4,0.5-1,0.8-1.6,0.8c-0.4,0-0.9-0.1-1.2-0.4l-2.4-1.8C9.7,20.6,9.5,19.3,10.2,18.4z M85.8,77.6
	c-0.4,0.5-1,0.8-1.6,0.8c-0.4,0-0.9-0.1-1.2-0.4L80.7,76c-0.9-0.7-1-1.9-0.3-2.8c0.7-0.9,1.9-1,2.8-0.3l2.4,1.8
	C86.3,75.4,86.5,76.7,85.8,77.6z M70,88.5c0.5,1,0.1,2.2-0.9,2.7c-0.3,0.1-0.6,0.2-0.9,0.2c-0.7,0-1.5-0.4-1.8-1.1l-1.3-2.7
	c-0.5-1-0.1-2.2,0.9-2.7s2.2-0.1,2.7,0.9L70,88.5z M50,91v3c0,1.1-0.9,2-2,2s-2-0.9-2-2v-3c0-1.1,0.9-2,2-2S50,89.9,50,91z"/>
</svg>
