<?xml version="1.0" encoding="utf-8"?>
<!-- Generator: Adobe Illustrator 18.0.0, SVG Export Plug-In . SVG Version: 6.00 Build 0)  -->
<!DOCTYPE svg PUBLIC "-//W3C//DTD SVG 1.1//EN" "http://www.w3.org/Graphics/SVG/1.1/DTD/svg11.dtd">
<svg version="1.1" id="Layer_1" xmlns="http://www.w3.org/2000/svg" xmlns:xlink="http://www.w3.org/1999/xlink" x="0px" y="0px"
	 viewBox="0 0 96 96" style="enable-background:new 0 0 96 96;" xml:space="preserve">
<style type="text/css">
	.st0{fill-rule:evenodd;clip-rule:evenodd;fill:#FF614C;}
</style>
<path class="st0" d="M47.9,0c-3.6,0-7.1,0.4-10.4,1.2L37.6,48c0,5.7,4.7,10.4,10.4,10.4c5.7,0,10.4-4.7,10.4-10.4
	c0-5.5-4.3-10-9.7-10.4l0-8.4c10,0.4,18.1,8.6,18.1,18.7c0,10.3-8.4,18.8-18.7,18.8c-10.3,0-18.8-8.4-18.8-18.8L29.2,3.8
	c-1.2,0.5-2.3,1.1-3.5,1.7l0.1,42.6c0,12.3,10,22.2,22.3,22.2c12.3,0,22.2-10,22.2-22.3c0-12-9.6-21.9-21.6-22.2l0-8.3
	C65.2,17.8,78.6,31.4,78.6,48c0,16.9-13.7,30.6-30.6,30.6c-16.9,0-30.6-13.7-30.6-30.6l0-37C6.7,19.8,0,33.2,0,48.1
	C0,74.6,21.6,96,48.1,96C74.6,96,96,74.4,96,47.9C96,21.4,74.5,0,47.9,0L47.9,0z"/>
</svg>
