<?xml version="1.0" encoding="utf-8"?>
<!-- Generator: Adobe Illustrator 17.1.0, SVG Export Plug-In . SVG Version: 6.00 Build 0)  -->
<!DOCTYPE svg PUBLIC "-//W3C//DTD SVG 1.1//EN" "http://www.w3.org/Graphics/SVG/1.1/DTD/svg11.dtd">
<svg version="1.1" id="Layer_1" xmlns="http://www.w3.org/2000/svg" xmlns:xlink="http://www.w3.org/1999/xlink" x="0px" y="0px"
	 viewBox="0 0 96 96" style="enable-background:new 0 0 96 96;" xml:space="preserve">
<style type="text/css">
	.st0{fill:#FF614A;}
</style>
<path class="st0" d="M11,11c0-0.6,0.4-1,1-1h4c0.6,0,1,0.4,1,1s-0.4,1-1,1h-4C11.4,12,11,11.6,11,11z M36,12h4c0.6,0,1-0.4,1-1
	s-0.4-1-1-1h-4c-0.6,0-1,0.4-1,1S35.4,12,36,12z M46,12h4c0.6,0,1-0.4,1-1s-0.4-1-1-1h-4c-0.6,0-1,0.4-1,1S45.4,12,46,12z M56,12h4
	c0.6,0,1-0.4,1-1s-0.4-1-1-1h-4c-0.6,0-1,0.4-1,1S55.4,12,56,12z M96,34v52c0,5.5-4.5,10-10,10H34c-4.9,0-9-3.5-9.8-8.2
	c-4.1-0.8-7.2-3.9-8-8c-4.1-0.8-7.2-3.9-8-8C3.5,71,0,66.9,0,62V10C0,4.5,4.5,0,10,0h52c4.9,0,9,3.5,9.8,8.2c4.1,0.8,7.2,3.9,8,8
	c4.1,0.8,7.2,3.9,8,8C92.5,25,96,29.1,96,34z M88,28.4V43h4v-9C92,31.4,90.3,29.2,88,28.4z M80,20.4V35h4v-9
	C84,23.4,82.3,21.2,80,20.4z M72,12.3V27h4v-9C76,15.4,74.3,13.2,72,12.3z M4,10v9h64v-9c0-3.3-2.7-6-6-6H10C6.7,4,4,6.7,4,10z
	 M10,68h52c3.3,0,6-2.7,6-6V21H4v41C4,65.3,6.7,68,10,68z M18,76h52c3.3,0,6-2.7,6-6V29h-4v33c0,5.5-4.5,10-10,10H12.4
	C13.2,74.3,15.4,76,18,76z M26,84h52c3.3,0,6-2.7,6-6V37h-4v33c0,5.5-4.5,10-10,10H20.4C21.2,82.3,23.4,84,26,84z M92,86V45h-4v33
	c0,5.5-4.5,10-10,10H28.4c0.8,2.3,3,4,5.7,4h52C89.3,92,92,89.3,92,86z M23.1,38.2l7.7-1.1l3.4-7c0.3-0.7,1-1.1,1.8-1.1
	c0.8,0,1.5,0.4,1.8,1.1l3.4,7l7.7,1.1c0.8,0.1,1.4,0.6,1.6,1.4c0.2,0.7,0,1.5-0.5,2.1L44.5,47l1.3,7.6c0.1,0.8-0.2,1.5-0.8,2
	c-0.3,0.3-0.8,0.4-1.2,0.4c-0.3,0-0.6-0.1-0.9-0.2L36,53.2l-6.9,3.6c-0.7,0.4-1.5,0.3-2.1-0.2c-0.6-0.4-0.9-1.2-0.8-2l1.3-7.6
	L22,41.6c-0.5-0.5-0.7-1.3-0.5-2.1C21.7,38.8,22.3,38.3,23.1,38.2z M27.7,41.6l3.4,3.3c0.5,0.5,0.7,1.1,0.6,1.8l-0.8,4.7l4.2-2.2
	c0.3-0.2,0.6-0.2,0.9-0.2s0.6,0.1,0.9,0.2l4.2,2.2l-0.8-4.7c-0.1-0.6,0.1-1.3,0.6-1.8l3.4-3.3l-4.7-0.7c-0.7-0.1-1.2-0.5-1.5-1.1
	L36,35.5l-2.1,4.3c-0.3,0.6-0.9,1-1.5,1.1L27.7,41.6z M45.3,32.8c0.3,0,0.6-0.1,0.8-0.4l5.7-7.9c0.3-0.4,0.2-1.1-0.2-1.4
	c-0.4-0.3-1.1-0.2-1.4,0.2l-5.7,7.9c-0.3,0.4-0.2,1.1,0.2,1.4C44.9,32.8,45.1,32.8,45.3,32.8z M54.4,39.5c0.1,0,0.2,0,0.3,0l5.8-1.9
	c0.5-0.2,0.8-0.7,0.6-1.3c-0.2-0.5-0.7-0.8-1.3-0.6l-5.8,1.9c-0.5,0.2-0.8,0.7-0.6,1.3C53.6,39.2,54,39.5,54.4,39.5z M60.6,51.4
	l-10.3-3.3c-0.5-0.2-1.1,0.1-1.3,0.6c-0.2,0.5,0.1,1.1,0.6,1.3l10.3,3.3c0.1,0,0.2,0,0.3,0c0.4,0,0.8-0.3,1-0.7
	C61.4,52.2,61.1,51.6,60.6,51.4z M48.8,60.4c-0.3-0.4-0.9-0.5-1.4-0.2c-0.4,0.3-0.5,1-0.2,1.4l3,4.1c0.2,0.3,0.5,0.4,0.8,0.4
	c0.2,0,0.4-0.1,0.6-0.2c0.4-0.3,0.5-1,0.2-1.4L48.8,60.4z M36,58.5c-0.6,0-1,0.4-1,1v2.6c0,0.6,0.4,1,1,1s1-0.4,1-1v-2.6
	C37,58.9,36.6,58.5,36,58.5z M23.2,60.4l-3,4.1c-0.3,0.4-0.2,1.1,0.2,1.4c0.2,0.1,0.4,0.2,0.6,0.2c0.3,0,0.6-0.1,0.8-0.4l3-4.1
	c0.3-0.4,0.2-1.1-0.2-1.4C24.1,59.9,23.5,60,23.2,60.4z M11.7,53.4c0.1,0,0.2,0,0.3,0L22.3,50c0.5-0.2,0.8-0.7,0.6-1.3
	c-0.2-0.5-0.7-0.8-1.3-0.6l-10.3,3.3c-0.5,0.2-0.8,0.7-0.6,1.3C10.9,53.1,11.3,53.4,11.7,53.4z M11.4,37.6l4.3,1.4
	c0.1,0,0.2,0,0.3,0c0.4,0,0.8-0.3,1-0.7c0.2-0.5-0.1-1.1-0.6-1.3l-4.3-1.4c-0.5-0.2-1.1,0.1-1.3,0.6C10.6,36.8,10.9,37.4,11.4,37.6z
	 M27.3,34.2c0.2,0.3,0.5,0.4,0.8,0.4c0.2,0,0.4-0.1,0.6-0.2c0.4-0.3,0.5-1,0.2-1.4l-7.1-9.7c-0.3-0.4-0.9-0.5-1.4-0.2
	c-0.4,0.3-0.5,1-0.2,1.4L27.3,34.2z M36,27.1c0.6,0,1-0.4,1-1V24c0-0.6-0.4-1-1-1s-1,0.4-1,1v2.1C35,26.7,35.4,27.1,36,27.1z
	 M82,10.3h4v4c0,1.1,0.9,2,2,2s2-0.9,2-2v-4h4c1.1,0,2-0.9,2-2s-0.9-2-2-2h-4v-4c0-1.1-0.9-2-2-2s-2,0.9-2,2v4h-4c-1.1,0-2,0.9-2,2
	S80.9,10.3,82,10.3z M14,86h-4v-4c0-1.1-0.9-2-2-2s-2,0.9-2,2v4H2c-1.1,0-2,0.9-2,2s0.9,2,2,2h4v4c0,1.1,0.9,2,2,2s2-0.9,2-2v-4h4
	c1.1,0,2-0.9,2-2S15.1,86,14,86z"/>
</svg>
