<?xml version="1.0" encoding="UTF-8"?>
<svg width="69px" height="69px" viewBox="0 0 69 69" version="1.1" xmlns="http://www.w3.org/2000/svg" xmlns:xlink="http://www.w3.org/1999/xlink">
    <!-- Generator: Sketch 51.3 (57544) - http://www.bohemiancoding.com/sketch -->
    <title>result1</title>
    <desc>Created with Sketch.</desc>
    <defs></defs>
    <g id="Page-1" stroke="none" stroke-width="1" fill="none" fill-rule="evenodd">
        <g id="Ikons" transform="translate(-998.000000, -587.000000)" fill="#FF6148" fill-rule="nonzero">
            <g id="result1" transform="translate(998.000000, 587.000000)">
                <path d="M55.34375,30.1875 C55.34375,30.61875 55.05625,30.90625 54.625,30.90625 C54.19375,30.90625 53.90625,30.61875 53.90625,30.1875 C53.90625,21.99375 49.7375,14.51875 42.8375,10.134375 C42.478125,9.91875 42.40625,9.4875 42.621875,9.128125 C42.8375,8.76875 43.26875,8.696875 43.628125,8.9125 C50.959375,13.584375 55.34375,21.490625 55.34375,30.1875 Z M30.1875,6.46875 C33.20625,6.46875 36.153125,7.04375 38.95625,8.121875 C39.028125,8.121875 39.1,8.19375 39.24375,8.19375 C39.53125,8.19375 39.81875,8.05 39.890625,7.7625 C40.034375,7.403125 39.890625,6.971875 39.459375,6.828125 C36.5125,5.60625 33.421875,5.03125 30.1875,5.03125 C29.75625,5.03125 29.46875,5.31875 29.46875,5.75 C29.46875,6.18125 29.75625,6.46875 30.1875,6.46875 Z M68.56875,68.56875 C68.28125,68.85625 67.921875,69 67.5625,69 C67.203125,69 66.84375,68.85625 66.55625,68.56875 L50.45625,52.540625 C45.1375,57.428125 38.021875,60.375 30.1875,60.375 C13.5125,60.375 0,46.8625 0,30.1875 C0,13.5125 13.5125,0 30.1875,0 C46.8625,0 60.375,13.5125 60.375,30.1875 C60.375,38.021875 57.428125,45.1375 52.540625,50.45625 L68.56875,66.484375 C69.14375,67.13125 69.14375,67.99375 68.56875,68.56875 Z M57.5,30.1875 C57.5,15.09375 45.28125,2.875 30.1875,2.875 C15.09375,2.875 2.875,15.09375 2.875,30.1875 C2.875,45.28125 15.09375,57.5 30.1875,57.5 C45.28125,57.5 57.5,45.28125 57.5,30.1875 Z M44.85,22.7125 C45.425,23.2875 45.425,24.15 44.85,24.725 L27.6,41.975 C27.3125,42.2625 26.953125,42.40625 26.59375,42.40625 C26.234375,42.40625 25.875,42.2625 25.5875,41.975 L15.525,31.9125 C14.95,31.3375 14.95,30.475 15.525,29.9 L19.8375,25.5875 C20.4125,25.0125 21.275,25.0125 21.85,25.5875 L26.59375,30.33125 L38.525,18.4 C39.1,17.825 39.9625,17.825 40.5375,18.4 L44.85,22.7125 Z M41.83125,23.71875 L39.53125,21.41875 L27.6,33.35 C27.025,33.925 26.1625,33.925 25.5875,33.35 L20.84375,28.60625 L18.54375,30.90625 L26.59375,38.95625 L41.83125,23.71875 Z" id="Shape"></path>
            </g>
        </g>
    </g>
</svg>