<?xml version="1.0" encoding="utf-8"?>
<!-- Generator: Adobe Illustrator 17.1.0, SVG Export Plug-In . SVG Version: 6.00 Build 0)  -->
<!DOCTYPE svg PUBLIC "-//W3C//DTD SVG 1.1//EN" "http://www.w3.org/Graphics/SVG/1.1/DTD/svg11.dtd">
<svg version="1.1" id="Layer_1" xmlns="http://www.w3.org/2000/svg" xmlns:xlink="http://www.w3.org/1999/xlink" x="0px" y="0px"
	 viewBox="0 0 64 64" style="enable-background:new 0 0 64 64;" xml:space="preserve">
<style type="text/css">
	.st0{fill:#FF614A;}
</style>
<path class="st0" d="M8,10c0-1.1,0.9-2,2-2h4c1.1,0,2,0.9,2,2s-0.9,2-2,2h-4C8.9,12,8,11.1,8,10z M44,12c0.5,0,1-0.2,1.4-0.6
	C45.8,11,46,10.5,46,10c0-0.5-0.2-1-0.6-1.4c-0.7-0.8-2.1-0.8-2.8,0C42.2,9,42,9.5,42,10c0,0.5,0.2,1,0.6,1.4C43,11.8,43.5,12,44,12
	z M38,12c0.5,0,1-0.2,1.4-0.6C39.8,11,40,10.5,40,10s-0.2-1-0.6-1.4c-0.7-0.8-2.1-0.8-2.8,0C36.2,9,36,9.5,36,10
	c0,0.5,0.2,1,0.6,1.4C37,11.8,37.5,12,38,12z M32,12c0.5,0,1-0.2,1.4-0.6C33.8,11,34,10.5,34,10s-0.2-1-0.6-1.4
	c-0.7-0.8-2.1-0.8-2.8,0C30.2,9,30,9.5,30,10c0,0.5,0.2,1,0.6,1.4C31,11.8,31.5,12,32,12z M64,59c0,1.3-0.5,2.6-1.5,3.5
	C61.6,63.5,60.3,64,59,64s-2.6-0.5-3.5-1.5l-3.1-3.1C50.6,62.2,47.5,64,44,64H10C4.5,64,0,59.5,0,54V10C0,4.5,4.5,0,10,0h34
	c5.5,0,10,4.5,10,10v36.9l8.5,8.5C63.5,56.4,64,57.7,64,59z M4,10v6h46v-6c0-3.3-2.7-6-6-6H10C6.7,4,4,6.7,4,10z M49.4,56.5
	L37.3,44.4c-1,0.4-2.2,0.6-3.3,0.6c-5.5,0-10-4.5-10-10v-0.2c0-0.8,0.3-1.6,0.9-2.1c1.2-1.2,3.1-1.2,4.2,0l2.4,2.4
	c0.7,0.7,1.9,0.7,2.5,0c0.7-0.7,0.7-1.9,0-2.6l-2.4-2.4c-0.6-0.6-0.9-1.3-0.9-2.1s0.3-1.5,0.9-2.1c0.6-0.6,1.3-0.9,2.1-0.9H34
	c5.5,0,10,4.5,10,10c0,0.6-0.1,1.2-0.2,1.8l6.2,6.2V20H4v34c0,3.3,2.7,6,6,6h34C46.4,60,48.5,58.6,49.4,56.5z M35.5,36.4
	c-0.8,0.8-1.7,1.2-2.7,1.2s-2-0.4-2.7-1.1l-2.2-2.2c0.1,0.2,0.1,0.5,0.1,0.7c0,3.3,2.7,6,6,6s6-2.7,6-6s-2.7-6-6-6
	c-0.3,0-0.5-0.1-0.7-0.1l2.2,2.2C37,32.5,37,35,35.5,36.4z M60,59c0-0.2,0-0.5-0.3-0.7L42.2,40.8c-0.4,0.5-0.8,1.1-1.3,1.5
	l17.4,17.4C58.5,60,58.8,60,59,60s0.5,0,0.7-0.3C60,59.5,60,59.2,60,59z M19,26v6c0,0.6-0.4,1-1,1H9c-0.6,0-1-0.4-1-1v-6
	c0-0.6,0.4-1,1-1h9C18.6,25,19,25.4,19,26z M17,27h-7v4h7V27z M18,38H9c-0.6,0-1,0.4-1,1s0.4,1,1,1h9c0.6,0,1-0.4,1-1S18.6,38,18,38
	z M18,44H9c-0.6,0-1,0.4-1,1s0.4,1,1,1h9c0.6,0,1-0.4,1-1S18.6,44,18,44z M18,50H9c-0.6,0-1,0.4-1,1s0.4,1,1,1h9c0.6,0,1-0.4,1-1
	S18.6,50,18,50z"/>
</svg>
