<?xml version="1.0" encoding="UTF-8"?>
<svg width="78px" height="68px" viewBox="0 0 78 68" version="1.1" xmlns="http://www.w3.org/2000/svg" xmlns:xlink="http://www.w3.org/1999/xlink">
    <!-- Generator: Sketch 51.3 (57544) - http://www.bohemiancoding.com/sketch -->
    <title>task8</title>
    <desc>Created with Sketch.</desc>
    <defs></defs>
    <g id="Page-1" stroke="none" stroke-width="1" fill="none" fill-rule="evenodd">
        <g id="Ikons" transform="translate(-408.000000, -452.000000)" fill="#FF614A" fill-rule="nonzero">
            <g id="task8" transform="translate(408.000000, 452.000000)">
                <path d="M69.1546392,26.0930233 C64.7319588,26.0930233 61.1134021,29.6511628 61.1134021,34 C61.1134021,37.6372093 63.6865979,40.7209302 67.1443299,41.6697674 C64.8123711,44.2790698 61.5154639,45.8604651 57.8969072,45.8604651 C55.4845361,45.8604651 53.1525773,45.1488372 51.142268,43.8046512 C53.3938144,41.1162791 54.6804124,37.7162791 54.6804124,34 C54.6804124,32.4976744 54.4391753,31.0744186 54.0371134,29.7302326 C56.5298969,28.544186 58.6206186,26.7255814 60.0680412,24.2744186 C62.2391753,20.5581395 62.4804124,15.972093 60.7113402,12.0976744 C60.7113402,12.0186047 60.7917526,12.0186047 60.7917526,11.9395349 C61.8371134,10.1209302 62.1587629,7.98604651 61.5958763,5.93023256 C61.0329897,3.8744186 59.7463918,2.21395349 57.8969072,1.10697674 C56.6907216,0.395348837 55.3237113,0.0790697674 53.8762887,0.0790697674 C50.9814433,0.0790697674 48.3278351,1.58139535 46.8804124,4.03255814 C44.7092784,7.82790698 45.9958763,12.6511628 49.8556701,14.8651163 C51.0618557,15.5767442 52.428866,15.8930233 53.8762887,15.8930233 C56.0474227,15.8930233 58.1381443,15.0232558 59.585567,13.5209302 C60.7917526,16.7627907 60.4701031,20.4 58.7010309,23.4837209 C57.4948454,25.5395349 55.7257732,27.2 53.5546392,28.227907 C51.7051546,23.5627907 47.6041237,20.0046512 42.5381443,18.7395349 C42.7793814,16.0511628 42.1360825,13.2837209 40.7690722,10.9116279 C38.5979381,7.19534884 34.657732,4.74418605 30.3958763,4.26976744 C30.3958763,4.19069767 30.3154639,4.11162791 30.3154639,4.11162791 C28.8680412,1.66046512 26.214433,0.158139535 23.3195876,0.158139535 C21.9525773,0.158139535 20.5051546,0.553488372 19.2989691,1.18604651 C17.4494845,2.21395349 16.0824742,3.95348837 15.5195876,6.00930233 C14.956701,8.06511628 15.2783505,10.2 16.3237113,12.0186047 C17.771134,14.4697674 20.4247423,15.972093 23.3195876,15.972093 C24.6865979,15.972093 26.1340206,15.5767442 27.3402062,14.944186 C30.556701,13.1255814 32.0041237,9.40930233 31.0391753,6.00930233 C34.4969072,6.64186047 37.5525773,8.69767442 39.4020619,11.7813953 C40.6082474,13.8372093 41.171134,16.2093023 41.0103093,18.5023256 C40.2061856,18.2651163 39.4020619,18.1860465 38.5979381,18.1860465 C34.0948454,18.1860465 29.9938144,20.0046512 27.0989691,23.0093023 C24.8474227,21.427907 22.1134021,20.5581395 19.2989691,20.5581395 C14.8762887,20.5581395 10.7752577,22.6930233 8.28247423,26.0930233 C8.20206186,26.0930233 8.12164948,26.0930233 8.04123711,26.0930233 C3.6185567,26.0930233 0,29.6511628 0,34 C0,38.3488372 3.6185567,41.9069767 8.04123711,41.9069767 C12.4639175,41.9069767 16.0824742,38.3488372 16.0824742,34 C16.0824742,30.3627907 13.5092784,27.2790698 10.0515464,26.3302326 C12.3835052,23.7209302 15.6804124,22.1395349 19.2989691,22.1395349 C21.7113402,22.1395349 24.043299,22.8511628 26.0536082,24.1953488 C23.8020619,26.8837209 22.5154639,30.2837209 22.5154639,34 C22.5154639,35.5023256 22.756701,36.9255814 23.1587629,38.2697674 C20.6659794,39.455814 18.5752577,41.2744186 17.1278351,43.7255814 C14.956701,47.4418605 14.7154639,52.027907 16.4845361,55.9023256 C16.4845361,55.9813953 16.4041237,55.9813953 16.4041237,56.0604651 C15.3587629,57.8790698 15.0371134,60.0139535 15.6,62.0697674 C16.1628866,64.1255814 17.4494845,65.7860465 19.3793814,66.8930233 C20.585567,67.6046512 21.9525773,67.9209302 23.4,67.9209302 C26.2948454,67.9209302 28.9484536,66.4186047 30.3958763,63.9674419 C32.6474227,60.172093 31.2804124,55.3488372 27.4206186,53.1348837 C26.214433,52.4232558 24.8474227,52.1069767 23.4,52.1069767 C21.228866,52.1069767 19.1381443,52.9767442 17.6907216,54.4790698 C16.4845361,51.2372093 16.8061856,47.6 18.5752577,44.5162791 C19.7814433,42.4604651 21.5505155,40.8 23.7216495,39.772093 C25.571134,44.4372093 29.6721649,47.9953488 34.7381443,49.2604651 C34.4969072,51.9488372 35.1402062,54.7162791 36.5072165,57.0883721 C38.6783505,60.8046512 42.6185567,63.255814 46.8804124,63.7302326 C46.8804124,63.8093023 46.9608247,63.8883721 46.9608247,63.8883721 C48.4082474,66.3395349 51.0618557,67.8418605 53.956701,67.8418605 C55.3237113,67.8418605 56.771134,67.4465116 57.9773196,66.8139535 C59.8268041,65.7860465 61.1938144,64.0465116 61.756701,61.9906977 C62.3195876,59.9348837 61.9979381,57.8 60.9525773,55.9813953 C59.5051546,53.5302326 56.8515464,52.027907 53.956701,52.027907 C52.5896907,52.027907 51.142268,52.4232558 49.9360825,53.055814 C46.7195876,54.8744186 45.2721649,58.5906977 46.2371134,61.9906977 C42.7793814,61.3581395 39.7237113,59.3023256 37.8742268,56.2186047 C36.6680412,54.1627907 36.1051546,51.7906977 36.2659794,49.4976744 C37.0701031,49.5767442 37.7938144,49.655814 38.6783505,49.655814 C43.1814433,49.655814 47.2824742,47.8372093 50.1773196,44.8325581 C52.428866,46.4139535 55.1628866,47.2837209 57.9773196,47.2837209 C62.4,47.2837209 66.5010309,45.1488372 68.9938144,41.7488372 C69.0742268,41.7488372 69.1546392,41.7488372 69.2350515,41.7488372 C73.657732,41.7488372 77.2762887,38.1906977 77.2762887,33.8418605 C77.2762887,29.4930233 73.5773196,26.0930233 69.1546392,26.0930233 Z M53.8762887,12.7302326 C53.0721649,12.7302326 52.1876289,12.4930233 51.4639175,12.0976744 C49.1319588,10.7534884 48.3278351,7.90697674 49.6948454,5.61395349 C50.5793814,4.11162791 52.1876289,3.24186047 53.8762887,3.24186047 C54.6804124,3.24186047 55.5649485,3.47906977 56.2886598,3.8744186 C57.414433,4.50697674 58.2185567,5.53488372 58.5402062,6.72093023 C58.8618557,7.90697674 58.7010309,9.25116279 58.057732,10.3581395 C57.1731959,11.7813953 55.5649485,12.7302326 53.8762887,12.7302326 Z M25.7319588,12.0976744 C25.0082474,12.4930233 24.2041237,12.7302326 23.3195876,12.7302326 C21.6309278,12.7302326 20.0226804,11.7813953 19.1381443,10.3581395 C18.4948454,9.25116279 18.3340206,7.98604651 18.6556701,6.72093023 C18.9773196,5.53488372 19.7814433,4.50697674 20.9072165,3.8744186 C21.6309278,3.47906977 22.4350515,3.24186047 23.3195876,3.24186047 C25.0082474,3.24186047 26.6164948,4.19069767 27.5010309,5.61395349 C28.8680412,7.90697674 28.0639175,10.7534884 25.7319588,12.0976744 Z M12.8659794,34 C12.8659794,36.6093023 10.6948454,38.744186 8.04123711,38.744186 C5.38762887,38.744186 3.21649485,36.6093023 3.21649485,34 C3.21649485,31.3906977 5.38762887,29.255814 8.04123711,29.255814 C10.6948454,29.255814 12.8659794,31.3906977 12.8659794,34 Z M23.3195876,55.2697674 C24.1237113,55.2697674 25.0082474,55.5069767 25.7319588,55.9023256 C28.0639175,57.2465116 28.8680412,60.0930233 27.5010309,62.3860465 C26.6164948,63.8883721 25.0082474,64.7581395 23.3195876,64.7581395 C22.5154639,64.7581395 21.6309278,64.5209302 20.9072165,64.1255814 C19.7814433,63.4930233 18.9773196,62.4651163 18.6556701,61.2790698 C18.3340206,60.0930233 18.4948454,58.7488372 19.1381443,57.6418605 C20.0226804,56.2186047 21.6309278,55.2697674 23.3195876,55.2697674 Z M51.4639175,55.9023256 C52.1876289,55.5069767 52.9917526,55.2697674 53.8762887,55.2697674 C55.5649485,55.2697674 57.1731959,56.2186047 58.057732,57.6418605 C58.7010309,58.7488372 58.8618557,60.0139535 58.5402062,61.2790698 C58.2185567,62.4651163 57.414433,63.4930233 56.2886598,64.1255814 C55.5649485,64.5209302 54.7608247,64.7581395 53.8762887,64.7581395 C52.1876289,64.7581395 50.5793814,63.8093023 49.6948454,62.3860465 C48.3278351,60.0930233 49.1319588,57.2465116 51.4639175,55.9023256 Z M38.5979381,46.6511628 C31.5216495,46.6511628 25.7319588,40.9581395 25.7319588,34 C25.7319588,27.0418605 31.5216495,21.3488372 38.5979381,21.3488372 C45.6742268,21.3488372 51.4639175,27.0418605 51.4639175,34 C51.4639175,40.9581395 45.6742268,46.6511628 38.5979381,46.6511628 Z M69.1546392,38.744186 C66.5010309,38.744186 64.3298969,36.6093023 64.3298969,34 C64.3298969,31.3906977 66.5010309,29.255814 69.1546392,29.255814 C71.8082474,29.255814 73.9793814,31.3906977 73.9793814,34 C73.9793814,36.6093023 71.8082474,38.744186 69.1546392,38.744186 Z" id="Shape"></path>
            </g>
        </g>
    </g>
</svg>