<?xml version="1.0" encoding="utf-8"?>
<!-- Generator: Adobe Illustrator 17.1.0, SVG Export Plug-In . SVG Version: 6.00 Build 0)  -->
<!DOCTYPE svg PUBLIC "-//W3C//DTD SVG 1.1//EN" "http://www.w3.org/Graphics/SVG/1.1/DTD/svg11.dtd">
<svg version="1.1" id="Layer_1" xmlns="http://www.w3.org/2000/svg" xmlns:xlink="http://www.w3.org/1999/xlink" x="0px" y="0px"
	 viewBox="0 0 64 64" style="enable-background:new 0 0 64 64;" xml:space="preserve">
<style type="text/css">
	.st0{fill:#FF614C;}
</style>
<path class="st0" d="M55.4,8.6C55.8,9,56,9.5,56,10c0,0.5-0.2,1-0.6,1.4C55,11.8,54.5,12,54,12c-0.5,0-1-0.2-1.4-0.6
	C52.2,11,52,10.5,52,10c0-0.5,0.2-1,0.6-1.4C53.3,7.8,54.7,7.8,55.4,8.6z M26,40c0-3.3,2.7-6,6-6s6,2.7,6,6s-2.7,6-6,6
	S26,43.3,26,40z M28,40c0,2.2,1.8,4,4,4s4-1.8,4-4s-1.8-4-4-4S28,37.8,28,40z M15.3,43.4l2.7-1.6c-0.1-0.6-0.1-1.3-0.1-1.9
	c0-0.6,0-1.2,0.1-1.9l-2.7-1.6l0.2-0.7c0.8-3,2.4-5.8,4.6-8l0.5-0.5l2.7,1.6c1-0.8,2.1-1.4,3.2-1.9v-3.1l0.7-0.2
	c3-0.9,6.2-0.9,9.3,0l0.7,0.2V27c1.2,0.5,2.2,1.1,3.2,1.9l2.7-1.6l0.5,0.5c2.3,2.2,3.9,5,4.6,8l0.2,0.7L46,38.1
	c0.1,0.6,0.1,1.3,0.1,1.9c0,0.6,0,1.2-0.1,1.9l2.7,1.6l-0.2,0.7c-0.8,3-2.4,5.8-4.6,8l-0.5,0.5l-2.7-1.6c-1,0.8-2.1,1.4-3.2,1.9v3.1
	l-0.7,0.2C35.1,56.8,33.6,57,32,57s-3.1-0.2-4.6-0.6l-0.7-0.2V53c-1.2-0.5-2.2-1.1-3.2-1.9l-2.7,1.6l-0.5-0.5c-2.3-2.2-3.9-5-4.6-8
	L15.3,43.4z M17.7,44.4c0.7,2.2,1.8,4.2,3.4,5.8l2.6-1.5l0.5,0.5c1.1,1,2.4,1.7,3.8,2.2l0.7,0.2v3c2.2,0.5,4.5,0.5,6.7,0v-3l0.7-0.2
	c1.4-0.5,2.7-1.2,3.8-2.2l0.5-0.5l2.6,1.5c1.6-1.7,2.7-3.7,3.4-5.8l-2.6-1.5l0.1-0.7c0.1-0.8,0.2-1.5,0.2-2.2s-0.1-1.4-0.2-2.2
	l-0.1-0.7l2.6-1.5c-0.7-2.2-1.8-4.2-3.4-5.8l-2.6,1.5l-0.5-0.5c-1.1-1-2.4-1.7-3.8-2.2l-0.7-0.2v-3c-2.2-0.5-4.5-0.5-6.7,0v3
	L28,28.6c-1.4,0.5-2.7,1.2-3.8,2.2l-0.5,0.5L21,29.8c-1.6,1.7-2.7,3.7-3.4,5.8l2.6,1.5l-0.1,0.7c-0.1,0.8-0.2,1.5-0.2,2.2
	s0.1,1.4,0.2,2.2l0.1,0.7L17.7,44.4z M64,10v44c0,5.5-4.5,10-10,10H37H10C4.5,64,0,59.5,0,54V10C0,4.5,4.5,0,10,0h27h17
	C59.5,0,64,4.5,64,10z M60,20H4v34c0,3.3,2.7,6,6,6h27h17c3.3,0,6-2.7,6-6V20z M60,10c0-3.3-2.7-6-6-6H37H10c-3.3,0-6,2.7-6,6v6h56
	V10z M46.6,8.6C46.2,9,46,9.5,46,10s0.2,1,0.6,1.4C47,11.8,47.5,12,48,12c0.5,0,1-0.2,1.4-0.6C49.8,11,50,10.5,50,10
	c0-0.5-0.2-1-0.6-1.4C48.7,7.8,47.3,7.8,46.6,8.6z M40.6,8.6C40.2,9,40,9.5,40,10c0,0.5,0.2,1,0.6,1.4C41,11.8,41.5,12,42,12
	c0.5,0,1-0.2,1.4-0.6C43.8,11,44,10.5,44,10c0-0.5-0.2-1-0.6-1.4C42.7,7.8,41.3,7.8,40.6,8.6z M14,8h-4c-1.1,0-2,0.9-2,2s0.9,2,2,2
	h4c1.1,0,2-0.9,2-2S15.1,8,14,8z"/>
</svg>
