<?xml version="1.0" encoding="utf-8"?>
<!-- Generator: Adobe Illustrator 17.1.0, SVG Export Plug-In . SVG Version: 6.00 Build 0)  -->
<!DOCTYPE svg PUBLIC "-//W3C//DTD SVG 1.1//EN" "http://www.w3.org/Graphics/SVG/1.1/DTD/svg11.dtd">
<svg version="1.1" id="Layer_1" xmlns="http://www.w3.org/2000/svg" xmlns:xlink="http://www.w3.org/1999/xlink" x="0px" y="0px"
	 viewBox="0 0 64 64" style="enable-background:new 0 0 64 64;" xml:space="preserve">
<style type="text/css">
	.st0{fill:#FF614A;}
</style>
<path class="st0" d="M44.9,50.5c-0.3-0.5-0.9-0.6-1.3-0.3l-0.8,0.5c-3.2,1.9-7,2.9-10.7,2.9c-3.8,0-7.5-1-10.7-2.9l-0.9-0.5
	c-0.2-0.1-0.5-0.2-0.8-0.1c-0.3,0.1-0.5,0.2-0.6,0.5l-4.3,7.4c-0.3,0.5-0.1,1.1,0.4,1.4l0.9,0.5c4.8,2.8,10.4,4.3,16,4.3
	c5.7,0,11.3-1.5,16.2-4.4l0.9-0.5c0.2-0.1,0.4-0.4,0.5-0.6c0.1-0.3,0-0.5-0.1-0.8L44.9,50.5z M32,62c-5.3,0-10.5-1.4-15-4l3.3-5.7
	c3.6,2.1,7.6,3.1,11.7,3.1c4.1,0,8.2-1.1,11.7-3.1l3.5,5.5C42.6,60.6,37.4,62,32,62z M54.6,54.6c-0.4,0.4-0.9,0.6-1.4,0.6
	c-0.5,0-1-0.2-1.4-0.6c-0.5-0.5-0.7-1.3-0.5-1.9l-3.4-3.4c-0.4-0.4-0.4-1,0-1.4c0.4-0.4,1-0.4,1.4,0l3.2,3.2
	C57.3,46,59.7,39.5,60,33h-4.5c-0.6,0-1-0.4-1-1c0-0.6,0.4-1,1-1H60c-0.2-6.5-2.7-13-7.5-18.1l-3.2,3.2c-0.2,0.2-0.5,0.3-0.7,0.3
	c-0.3,0-0.5-0.1-0.7-0.3c-0.4-0.4-0.4-1,0-1.4l3.2-3.2C46,6.7,39.5,4.3,33,4v4.5c0,0.6-0.4,1-1,1c-0.6,0-1-0.4-1-1V4
	c-6.5,0.2-13,2.7-18.1,7.5l3.2,3.2c0.4,0.4,0.4,1,0,1.4c-0.2,0.2-0.5,0.3-0.7,0.3s-0.5-0.1-0.7-0.3l-3.2-3.2C6.7,18,4.3,24.5,4,31
	h4.5c0.6,0,1,0.4,1,1c0,0.6-0.4,1-1,1H4c0.2,6.5,2.7,13,7.5,18.1l3.2-3.2c0.4-0.4,1-0.4,1.4,0c0.4,0.4,0.4,1,0,1.4l-3.4,3.4
	c0.2,0.7,0,1.4-0.5,1.9c-0.8,0.8-2,0.8-2.8,0C-3.1,42.1-3.1,21.8,9.4,9.4c12.5-12.5,32.8-12.5,45.3,0C67.1,21.8,67.1,42.1,54.6,54.6
	z M43.4,12.2c-1-0.6-2.2-0.2-2.7,0.7l-7.1,12.3C33.1,25.1,32.6,25,32,25c-3.9,0-7,3.1-7,7s3.1,7,7,7s7-3.1,7-7
	c0-1.9-0.7-3.5-1.9-4.8l7.1-12.3C44.7,14,44.4,12.7,43.4,12.2z M32,35c-1.7,0-3-1.3-3-3c0-1.7,1.3-3,3-3s3,1.3,3,3
	C35,33.6,33.7,35,32,35z"/>
</svg>
