<?xml version="1.0" encoding="utf-8"?>
<!-- Generator: Adobe Illustrator 17.1.0, SVG Export Plug-In . SVG Version: 6.00 Build 0)  -->
<!DOCTYPE svg PUBLIC "-//W3C//DTD SVG 1.1//EN" "http://www.w3.org/Graphics/SVG/1.1/DTD/svg11.dtd">
<svg version="1.1" id="Layer_1" xmlns="http://www.w3.org/2000/svg" xmlns:xlink="http://www.w3.org/1999/xlink" x="0px" y="0px"
	 viewBox="0 0 64 64" style="enable-background:new 0 0 64 64;" xml:space="preserve">
<style type="text/css">
	.st0{fill:#FF614A;}
</style>
<path class="st0" d="M54,0H37H10C4.5,0,0,4.5,0,10v44c0,5.5,4.5,10,10,10h27h17c5.5,0,10-4.5,10-10V10C64,4.5,59.5,0,54,0z M10,4h27
	h17c3.3,0,6,2.7,6,6v6H4v-6C4,6.7,6.7,4,10,4z M54,60H37H10c-3.3,0-6-2.7-6-6V20h56v34C60,57.3,57.3,60,54,60z M8,10
	c0-1.1,0.9-2,2-2h4c1.1,0,2,0.9,2,2s-0.9,2-2,2h-4C8.9,12,8,11.1,8,10z M52.6,11.4C52.2,11,52,10.5,52,10c0-0.5,0.2-1,0.6-1.4
	c0.7-0.7,2.1-0.7,2.8,0C55.8,9,56,9.5,56,10s-0.2,1-0.6,1.4C55,11.8,54.5,12,54,12C53.5,12,53,11.8,52.6,11.4z M46.6,11.4
	C46.2,11,46,10.5,46,10c0-0.5,0.2-1,0.6-1.4c0.8-0.8,2.1-0.8,2.8,0C49.8,9,50,9.5,50,10c0,0.5-0.2,1-0.6,1.4C49,11.8,48.5,12,48,12
	C47.5,12,47,11.8,46.6,11.4z M40.6,11.4C40.2,11,40,10.5,40,10c0-0.5,0.2-1,0.6-1.4c0.7-0.8,2.1-0.8,2.8,0C43.8,9,44,9.5,44,10
	c0,0.5-0.2,1-0.6,1.4C43,11.8,42.5,12,42,12C41.5,12,41,11.8,40.6,11.4z M15.3,43.7h5.1v3.1H9.5V44c6-4.3,7.1-5.3,7.1-6.7
	c0-1-0.9-1.5-1.9-1.5c-1.5,0-2.7,0.6-3.7,1.5l-2-2.4c1.5-1.6,3.7-2.3,5.6-2.3c3.3,0,5.6,1.8,5.6,4.6C20.3,39.5,18.8,41.3,15.3,43.7z
	 M31.9,32.9h-5l-5.2,8.5v2.8h6.6v2.5h3.6v-2.5h1.7v-3.1h-1.7V32.9z M28.3,41.1h-3.2l3.2-5.1V41.1z M41.9,28h1l-7.4,22h-1L41.9,28z
	 M44.1,32.9h10.9v2.5L50,46.8h-3.9l4.7-10.7h-6.7V32.9z"/>
</svg>
