<svg xmlns="http://www.w3.org/2000/svg" width="36" height="36" viewBox="0 0 36 36"><g><g><g><path fill="#fff" d="M18 28v-.995c4.966 0 9.005-4.04 9.005-9.005H28c0 5.514-4.486 10-10 10z"/><path fill="none" stroke="#fff" stroke-linecap="round" stroke-miterlimit="50" d="M18 28v-.995c4.966 0 9.005-4.04 9.005-9.005H28c0 5.514-4.486 10-10 10z"/></g><g><path fill="#fff" d="M8.995 18H8c0-5.514 4.486-10 10-10v.995c-4.966 0-9.005 4.04-9.005 9.005z"/><path fill="none" stroke="#fff" stroke-miterlimit="50" d="M8.995 18H8c0-5.514 4.486-10 10-10v.995c-4.966 0-9.005 4.04-9.005 9.005z"/></g><g><g><path fill="#fff" d="M30 5.976A16.877 16.877 0 0 0 17.989 1c-3.326 0-6.548.961-9.316 2.78l.55.838a15.92 15.92 0 0 1 8.766-2.616c4.27 0 8.285 1.663 11.304 4.682a15.882 15.882 0 0 1 4.682 11.304c0 4.27-1.662 8.285-4.682 11.304a15.882 15.882 0 0 1-11.304 4.682c-4.27 0-8.284-1.662-11.304-4.682a15.882 15.882 0 0 1-4.682-11.304c0-4.813 2.139-9.324 5.867-12.377l-.634-.775A16.937 16.937 0 0 0 1 17.988c0 4.538 1.767 8.804 4.976 12.013a16.877 16.877 0 0 0 12.012 4.975c4.538 0 8.804-1.767 12.013-4.975a16.877 16.877 0 0 0 4.975-12.013c0-4.538-1.767-8.804-4.975-12.012z"/><path fill="none" stroke="#fff" stroke-miterlimit="50" d="M30 5.976A16.877 16.877 0 0 0 17.989 1c-3.326 0-6.548.961-9.316 2.78l.55.838a15.92 15.92 0 0 1 8.766-2.616c4.27 0 8.285 1.663 11.304 4.682a15.882 15.882 0 0 1 4.682 11.304c0 4.27-1.662 8.285-4.682 11.304a15.882 15.882 0 0 1-11.304 4.682c-4.27 0-8.284-1.662-11.304-4.682a15.882 15.882 0 0 1-4.682-11.304c0-4.813 2.139-9.324 5.867-12.377l-.634-.775A16.937 16.937 0 0 0 1 17.988c0 4.538 1.767 8.804 4.976 12.013a16.877 16.877 0 0 0 12.012 4.975c4.538 0 8.804-1.767 12.013-4.975a16.877 16.877 0 0 0 4.975-12.013c0-4.538-1.767-8.804-4.975-12.012z"/></g><g><path fill="#fff" d="M30.027 25.708a14.153 14.153 0 0 0 2.29-7.719c0-3.828-1.49-7.426-4.196-10.132A14.235 14.235 0 0 0 17.99 3.66c-3.828 0-7.426 1.49-10.132 4.197A14.235 14.235 0 0 0 3.66 17.989c0 2.65.745 5.244 2.153 7.502a14.596 14.596 0 0 0 5.56 5.173l.11.058h2.251V29.72h-2.002a13.595 13.595 0 0 1-5.068-4.76 13.167 13.167 0 0 1-1.992-6.47H6.82v-1.002H4.672a13.258 13.258 0 0 1 2.816-7.696l1.105 1.105.709-.708-1.165-1.165a13.297 13.297 0 0 1 9.351-4.352V6.82h1.002V4.672a13.297 13.297 0 0 1 9.351 4.352l-1.165 1.165.709.708 1.105-1.105a13.259 13.259 0 0 1 2.816 7.696h-2.148v1.002h2.148a13.158 13.158 0 0 1-2.12 6.672z"/><path fill="none" stroke="#fff" stroke-miterlimit="50" d="M30.027 25.708a14.153 14.153 0 0 0 2.29-7.719c0-3.828-1.49-7.426-4.196-10.132A14.235 14.235 0 0 0 17.99 3.66c-3.828 0-7.426 1.49-10.132 4.197A14.235 14.235 0 0 0 3.66 17.989c0 2.65.745 5.244 2.153 7.502a14.596 14.596 0 0 0 5.56 5.173l.11.058v0h2.251v0-1.002 0h-2.002a13.595 13.595 0 0 1-5.068-4.76 13.167 13.167 0 0 1-1.992-6.47H6.82v0-1.002 0H4.672a13.258 13.258 0 0 1 2.816-7.696l1.105 1.105v0l.709-.708v0L8.137 9.024a13.297 13.297 0 0 1 9.351-4.352V6.82h1.002v0-2.148a13.297 13.297 0 0 1 9.351 4.352l-1.165 1.165v0l.709.708v0l1.105-1.105a13.259 13.259 0 0 1 2.816 7.696h-2.148v1.002h2.148a13.158 13.158 0 0 1-2.12 6.672z"/></g><g><path fill="#fff" d="M22.24 29.724v1.002h2.252l.11-.058a14.534 14.534 0 0 0 4.405-3.577l-.77-.641a13.535 13.535 0 0 1-3.995 3.274H22.24z"/><path fill="none" stroke="#fff" stroke-miterlimit="50" d="M22.24 29.724v1.002h2.252v0l.11-.058a14.534 14.534 0 0 0 4.405-3.577l-.77-.641a13.535 13.535 0 0 1-3.995 3.274H22.24v0z"/></g><g><path fill="#fff" d="M18.982 20l-.007.035a2.113 2.113 0 0 1-.594 1.13 2.166 2.166 0 0 1-3.05 0 2.157 2.157 0 0 1 0-3.045 2.118 2.118 0 0 1 1.131-.594l.036-.006 3.709-1.223zm-2.732-3.452a3.116 3.116 0 0 0-1.628.866 3.169 3.169 0 0 0 0 4.47 3.16 3.16 0 0 0 2.236.92c.81 0 1.618-.307 2.232-.922.45-.45.75-1.013.867-1.628l1.827-5.534z"/><path fill="none" stroke="#fff" stroke-miterlimit="50" d="M18.982 20l-.007.035a2.113 2.113 0 0 1-.594 1.13 2.166 2.166 0 0 1-3.05 0 2.157 2.157 0 0 1 0-3.045 2.118 2.118 0 0 1 1.131-.594l.036-.006 3.709-1.223zm-2.732-3.452a3.116 3.116 0 0 0-1.628.866 3.169 3.169 0 0 0 0 4.47 3.16 3.16 0 0 0 2.236.92c.81 0 1.618-.307 2.232-.922.45-.45.75-1.013.867-1.628l1.827-5.534z"/></g></g><g><path fill="#fff" d="M27 17a1 1 0 1 0 0-2 1 1 0 0 0 0 2z"/></g><g><path fill="#fff" d="M17 21a1 1 0 1 0 0-2 1 1 0 0 0 0 2z"/></g><g><path fill="#fff" d="M16 31a1 1 0 1 0 0-2 1 1 0 0 0 0 2z"/></g><g><path fill="#fff" d="M20 31a1 1 0 1 0 0-2 1 1 0 0 0 0 2z"/></g><g><path fill="#fff" d="M9 21a1 1 0 1 0 0-2 1 1 0 0 0 0 2z"/></g></g></g></svg>