<svg xmlns="http://www.w3.org/2000/svg" width="35" height="30" viewBox="0 0 35 30"><g><g><g><path fill="#fff" d="M33.542 19.486c0 .835-.66 1.514-1.472 1.514H2.93c-.811 0-1.472-.68-1.472-1.514v-.736h27.7a.74.74 0 0 0 .729-.75.74.74 0 0 0-.73-.75H1.459V3.014c0-.835.66-1.514 1.472-1.514h29.14c.807 0 1.463.672 1.471 1.5H5.959a.74.74 0 0 0-.729.75c0 .414.327.75.73.75h27.582zM13.408 25.5l.972-3h6.24l.973 3zm9.187 1.5a.74.74 0 0 1 .729.75v.75H11.667v-.75a.74.74 0 0 1 .728-.75zM32.07 0H2.93C1.315 0 0 1.352 0 3.014v16.472C0 21.148 1.315 22.5 2.93 22.5h9.913l-.996 3.072c-.941.25-1.639 1.132-1.639 2.178v.75H8.021a.74.74 0 0 0-.73.75c0 .414.327.75.73.75h18.958a.74.74 0 0 0 .73-.75.74.74 0 0 0-.73-.75h-2.187v-.75c0-1.046-.698-1.927-1.639-2.178l-.995-3.072h9.912c1.616 0 2.93-1.352 2.93-3.014V3.014C35 1.352 33.686 0 32.07 0z"/></g><g><path fill="#fff" d="M13.668 12.011a.734.734 0 0 0 .671.612l5.577.377v-.002a.731.731 0 0 0 .772-.645l.468-3.748.14-1.123.973.004A.734.734 0 0 0 23 6.75a.734.734 0 0 0-.725-.742L20.657 6a.732.732 0 0 0-.725.647L19.71 8.42l-.381 3.055-4.322-.292-.403-2.297h2.904a.737.737 0 0 0 .731-.742.737.737 0 0 0-.731-.743H13.73v.001a.741.741 0 0 0-.72.87z"/></g><g><path fill="#fff" d="M14.5 14a.501.501 0 0 0 0 1 .501.501 0 0 0 0-1z"/></g><g><path fill="#fff" d="M18.5 14a.501.501 0 0 0 0 1 .501.501 0 0 0 0-1z"/></g></g></g></svg>