<svg xmlns="http://www.w3.org/2000/svg" width="36" height="36" viewBox="0 0 36 36"><g><g><g><path fill="#fff" d="M27.281 34.594h-3.093V20.742h3.093zm-7.312 0h-3.094v-8.93h3.094zm-7.303-.01H9.563v-4.886h3.103zM21.654 2.4l4.35 4.35h-3.646a.704.704 0 0 1-.704-.704zm13.643 12.277h-4.5a.703.703 0 0 0-.703.703v3.55a.703.703 0 0 0 1.406 0v-2.847h3.094v18.51H31.5V24.205a.703.703 0 0 0-1.406 0v10.389h-1.407V20.039a.703.703 0 0 0-.703-.703h-4.5a.703.703 0 0 0-.703.703v14.555h-1.406V24.96a.703.703 0 0 0-.703-.703h-4.5a.703.703 0 0 0-.703.703v9.633h-1.406v-5.599a.703.703 0 0 0-.704-.703h-4.5a.703.703 0 0 0-.703.703v5.599H2.11a.704.704 0 0 1-.703-.703V2.109c0-.387.316-.703.703-.703h18.14v4.641c0 1.163.946 2.11 2.109 2.11h4.64v8.648a.703.703 0 0 0 1.406 0V7.453a.703.703 0 0 0-.205-.497l-6.75-6.75A.703.703 0 0 0 20.95 0H2.11C.946 0 0 .946 0 2.11v31.78C0 35.055.946 36 2.11 36h33.187a.703.703 0 0 0 .703-.703V15.38a.703.703 0 0 0-.703-.703z"/></g><g><path fill="#fff" d="M30.707 20.293a1.004 1.004 0 0 0-1.414 0A1.008 1.008 0 0 0 29 21c0 .263.107.521.293.707.186.186.444.293.707.293.263 0 .521-.107.707-.293.186-.186.293-.444.293-.707 0-.263-.107-.521-.293-.707z"/></g><g><path fill="#fff" d="M11.236 11.764v-6.31a7.068 7.068 0 0 1 6.31 6.31zm-.71 5.817a5.113 5.113 0 0 1-5.107-5.107 5.115 5.115 0 0 1 4.398-5.058v5.058c0 .392.317.71.71.71h5.057a5.115 5.115 0 0 1-5.058 4.397zm0-13.581a.71.71 0 0 0-.71.71v1.276A6.535 6.535 0 0 0 4 12.474 6.534 6.534 0 0 0 10.526 19a6.535 6.535 0 0 0 6.488-5.817h1.276a.71.71 0 0 0 .71-.71C19 7.802 15.199 4 10.526 4z"/></g><g><path fill="#fff" d="M18.29 20H4.71c-.392 0-.71.448-.71 1s.318 1 .71 1h13.58c.392 0 .71-.448.71-1s-.318-1-.71-1z"/></g><g><path fill="#fff" d="M9.286 24H4.714C4.32 24 4 24.448 4 25s.32 1 .714 1h4.572c.394 0 .714-.448.714-1s-.32-1-.714-1z"/></g><g><path fill="#fff" d="M13.707 24.293A1.008 1.008 0 0 0 13 24a1.003 1.003 0 0 0-.707 1.707c.186.186.443.293.707.293.263 0 .521-.107.707-.293.186-.186.293-.444.293-.707 0-.263-.107-.521-.293-.707z"/></g></g></g></svg>