<?xml version="1.0" encoding="UTF-8"?>
<svg width="64px" height="64px" viewBox="0 0 64 64" version="1.1" xmlns="http://www.w3.org/2000/svg" xmlns:xlink="http://www.w3.org/1999/xlink">
    <!-- Generator: Sketch 51.3 (57544) - http://www.bohemiancoding.com/sketch -->
    <title>support-1</title>
    <desc>Created with Sketch.</desc>
    <defs></defs>
    <g id="Page-1" stroke="none" stroke-width="1" fill="none" fill-rule="evenodd">
        <g id="настройка_систем_аналитики" transform="translate(-448.000000, -1097.000000)" fill="#FF614C" fill-rule="nonzero">
            <g id="support-1" transform="translate(448.000000, 1097.000000)">
                <path d="M55.4,8.6 C55.8,9 56,9.5 56,10 C56,10.5 55.8,11 55.4,11.4 C55,11.8 54.5,12 54,12 C53.5,12 53,11.8 52.6,11.4 C52.2,11 52,10.5 52,10 C52,9.5 52.2,9 52.6,8.6 C53.3,7.8 54.7,7.8 55.4,8.6 Z M26,40 C26,36.7 28.7,34 32,34 C35.3,34 38,36.7 38,40 C38,43.3 35.3,46 32,46 C28.7,46 26,43.3 26,40 Z M28,40 C28,42.2 29.8,44 32,44 C34.2,44 36,42.2 36,40 C36,37.8 34.2,36 32,36 C29.8,36 28,37.8 28,40 Z M15.3,43.4 L18,41.8 C17.9,41.2 17.9,40.5 17.9,39.9 C17.9,39.3 17.9,38.7 18,38 L15.3,36.4 L15.5,35.7 C16.3,32.7 17.9,29.9 20.1,27.7 L20.6,27.2 L23.3,28.8 C24.3,28 25.4,27.4 26.5,26.9 L26.5,23.8 L27.2,23.6 C30.2,22.7 33.4,22.7 36.5,23.6 L37.2,23.8 L37.2,27 C38.4,27.5 39.4,28.1 40.4,28.9 L43.1,27.3 L43.6,27.8 C45.9,30 47.5,32.8 48.2,35.8 L48.4,36.5 L46,38.1 C46.1,38.7 46.1,39.4 46.1,40 C46.1,40.6 46.1,41.2 46,41.9 L48.7,43.5 L48.5,44.2 C47.7,47.2 46.1,50 43.9,52.2 L43.4,52.7 L40.7,51.1 C39.7,51.9 38.6,52.5 37.5,53 L37.5,56.1 L36.8,56.3 C35.1,56.8 33.6,57 32,57 C30.4,57 28.9,56.8 27.4,56.4 L26.7,56.2 L26.7,53 C25.5,52.5 24.5,51.9 23.5,51.1 L20.8,52.7 L20.3,52.2 C18,50 16.4,47.2 15.7,44.2 L15.3,43.4 Z M17.7,44.4 C18.4,46.6 19.5,48.6 21.1,50.2 L23.7,48.7 L24.2,49.2 C25.3,50.2 26.6,50.9 28,51.4 L28.7,51.6 L28.7,54.6 C30.9,55.1 33.2,55.1 35.4,54.6 L35.4,51.6 L36.1,51.4 C37.5,50.9 38.8,50.2 39.9,49.2 L40.4,48.7 L43,50.2 C44.6,48.5 45.7,46.5 46.4,44.4 L43.8,42.9 L43.9,42.2 C44,41.4 44.1,40.7 44.1,40 C44.1,39.3 44,38.6 43.9,37.8 L43.8,37.1 L46.4,35.6 C45.7,33.4 44.6,31.4 43,29.8 L40.4,31.3 L39.9,30.8 C38.8,29.8 37.5,29.1 36.1,28.6 L35.4,28.4 L35.4,25.4 C33.2,24.9 30.9,24.9 28.7,25.4 L28.7,28.4 L28,28.6 C26.6,29.1 25.3,29.8 24.2,30.8 L23.7,31.3 L21,29.8 C19.4,31.5 18.3,33.5 17.6,35.6 L20.2,37.1 L20.1,37.8 C20,38.6 19.9,39.3 19.9,40 C19.9,40.7 20,41.4 20.1,42.2 L20.2,42.9 L17.7,44.4 Z M64,10 L64,54 C64,59.5 59.5,64 54,64 L37,64 L10,64 C4.5,64 0,59.5 0,54 L0,10 C0,4.5 4.5,0 10,0 L37,0 L54,0 C59.5,0 64,4.5 64,10 Z M60,20 L4,20 L4,54 C4,57.3 6.7,60 10,60 L37,60 L54,60 C57.3,60 60,57.3 60,54 L60,20 Z M60,10 C60,6.7 57.3,4 54,4 L37,4 L10,4 C6.7,4 4,6.7 4,10 L4,16 L60,16 L60,10 Z M46.6,8.6 C46.2,9 46,9.5 46,10 C46,10.5 46.2,11 46.6,11.4 C47,11.8 47.5,12 48,12 C48.5,12 49,11.8 49.4,11.4 C49.8,11 50,10.5 50,10 C50,9.5 49.8,9 49.4,8.6 C48.7,7.8 47.3,7.8 46.6,8.6 Z M40.6,8.6 C40.2,9 40,9.5 40,10 C40,10.5 40.2,11 40.6,11.4 C41,11.8 41.5,12 42,12 C42.5,12 43,11.8 43.4,11.4 C43.8,11 44,10.5 44,10 C44,9.5 43.8,9 43.4,8.6 C42.7,7.8 41.3,7.8 40.6,8.6 Z M14,8 L10,8 C8.9,8 8,8.9 8,10 C8,11.1 8.9,12 10,12 L14,12 C15.1,12 16,11.1 16,10 C16,8.9 15.1,8 14,8 Z" id="Shape"></path>
            </g>
        </g>
    </g>
</svg>