<?xml version="1.0" encoding="UTF-8"?>
<svg width="80px" height="80px" viewBox="0 0 80 80" version="1.1" xmlns="http://www.w3.org/2000/svg" xmlns:xlink="http://www.w3.org/1999/xlink">
    <!-- Generator: Sketch 51.3 (57544) - http://www.bohemiancoding.com/sketch -->
    <title>Group 3</title>
    <desc>Created with Sketch.</desc>
    <defs>
        <path d="M37.499,5.125 C20.25,6.375 6.375,20.251 5.125,37.5 L2.5,37.5 C1.12,37.5 0,38.62 0,40 C0,41.381 1.12,42.5 2.5,42.5 L5.125,42.5 C6.375,59.75 20.25,73.625 37.499,74.875 L37.499,77.5 C37.499,78.88 38.619,80 40,80 C41.38,80 42.5,78.88 42.5,77.5 L42.5,74.875 C59.751,73.625 73.625,59.75 74.875,42.5 L77.5,42.5 C78.88,42.5 80,41.381 80,40 C80,38.62 78.88,37.5 77.5,37.5 L74.875,37.5 C73.625,20.251 59.751,6.375 42.5,5.125 L42.5,2.5 C42.5,1.12 41.38,0 40,0 C38.619,0 37.499,1.12 37.499,2.5 L37.499,5.125 Z M42.5,13.876 L42.5,9.06 C57.001,10.31 69.286,23.001 70.536,37.5 L66.126,37.5 C65,25 55,15 42.5,13.876 Z M37.499,9.06 L37.499,13.876 C25,15 14.999,25 13.875,37.5 L9.255,37.5 C10.505,23.001 23,10.31 37.499,9.06 Z M42.5,16.375 C53.624,17.5 62.5,26.376 63.625,37.5 L59.999,37.5 C58.619,37.5 57.5,38.62 57.5,40 C57.5,41.381 58.619,42.5 59.999,42.5 L63.625,42.5 C62.5,53.625 53.624,62.5 42.5,63.625 L42.5,60 C42.5,58.62 41.38,57.5 40,57.5 C38.619,57.5 37.499,58.62 37.499,60 L37.499,63.625 C26.375,62.5 17.5,53.625 16.375,42.5 L20,42.5 C21.38,42.5 22.5,41.381 22.5,40 C22.5,38.62 21.38,37.5 20,37.5 L16.375,37.5 C17.5,26.376 26.375,17.5 37.499,16.375 L37.499,20 C37.499,21.381 38.619,22.5 40,22.5 C41.38,22.5 42.5,21.381 42.5,20 L42.5,16.375 Z M42.5,66.125 C55,65 65,55 66.126,42.5 L70.536,42.729 C69.286,57.229 57.001,69.673 42.5,70.923 L42.5,66.125 Z M9.546,42.5 L13.875,42.5 C14.999,55 25,65 37.499,66.125 L37.499,70.923 C23,69.673 10.796,57 9.546,42.5 Z M40,44 C42.2,44 44,42.2008 44,40 C44,37.8 42.2,36 40,36 C37.8008,36 36,37.8 36,40 C36,42.2008 37.8008,44 40,44 Z" id="path-1"></path>
    </defs>
    <g id="Page-1" stroke="none" stroke-width="1" fill="none" fill-rule="evenodd">
        <g id="настройка_систем_аналитики" transform="translate(-1248.000000, -1089.000000)">
            <g id="Group-3" transform="translate(1248.000000, 1089.000000)">
                <mask id="mask-2" fill="white">
                    <use xlink:href="#path-1"></use>
                </mask>
                <g id="Clip-2"></g>
                <polygon id="Fill-1" fill="#FF614A" mask="url(#mask-2)" points="-5 85 85 85 85 -5 -5 -5"></polygon>
            </g>
        </g>
    </g>
</svg>