<?xml version="1.0" encoding="UTF-8"?>
<svg width="96px" height="96px" viewBox="0 0 96 96" version="1.1" xmlns="http://www.w3.org/2000/svg" xmlns:xlink="http://www.w3.org/1999/xlink">
    <!-- Generator: Sketch 51.3 (57544) - http://www.bohemiancoding.com/sketch -->
    <title>Group 5</title>
    <desc>Created with Sketch.</desc>
    <defs></defs>
    <g id="Page-1" stroke="none" stroke-width="1" fill="none" fill-rule="evenodd">
        <g id="настройка_систем_аналитики" transform="translate(-848.000000, -1097.000000)" fill="#FF614A" fill-rule="nonzero">
            <g id="Group-5" transform="translate(848.000000, 1097.000000)">
                <g id="cms-2">
                    <path d="M8,10 C8,8.9 8.9,8 10,8 L14,8 C15.1,8 16,8.9 16,10 C16,11.1 15.1,12 14,12 L10,12 C8.9,12 8,11.1 8,10 Z M54,12 C54.5,12 55,11.8 55.4,11.4 C55.8,11 56,10.5 56,10 C56,9.5 55.8,9 55.4,8.6 C54.7,7.9 53.3,7.9 52.6,8.6 C52.2,9 52,9.5 52,10 C52,10.5 52.2,11 52.6,11.4 C53,11.8 53.5,12 54,12 Z M48,12 C48.5,12 49,11.8 49.4,11.4 C49.8,11 50,10.5 50,10 C50,9.5 49.8,9 49.4,8.6 C48.7,7.9 47.3,7.9 46.6,8.6 C46.2,9 46,9.5 46,10 C46,10.5 46.2,11 46.6,11.4 C47,11.8 47.5,12 48,12 Z M42,12 C42.5,12 43,11.8 43.4,11.4 C43.8,11 44,10.5 44,10 C44,9.5 43.8,9 43.4,8.6 C42.7,7.9 41.3,7.9 40.6,8.6 C40.2,9 40,9.5 40,10 C40,10.5 40.2,11 40.6,11.4 C41,11.8 41.5,12 42,12 Z M22,27 L10,27 C9.4,27 9,27.4 9,28 C9,28.6 9.4,29 10,29 L22,29 C22.6,29 23,28.6 23,28 C23,27.4 22.6,27 22,27 Z M22,35 L10,35 C9.4,35 9,35.4 9,36 C9,36.6 9.4,37 10,37 L22,37 C22.6,37 23,36.6 23,36 C23,35.4 22.6,35 22,35 Z M22,43 L10,43 C9.4,43 9,43.4 9,44 C9,44.6 9.4,45 10,45 L22,45 C22.6,45 23,44.6 23,44 C23,43.4 22.6,43 22,43 Z M22,51 L10,51 C9.4,51 9,51.4 9,52 C9,52.6 9.4,53 10,53 L22,53 C22.6,53 23,52.6 23,52 C23,51.4 22.6,51 22,51 Z M95.4,95.4 C95,95.8 94.5,96 94,96 C93.5,96 93,95.8 92.6,95.4 L74.9,77.7 C70.2,81.8 64.3,84 58,84 C51.1,84 44.5,81.3 39.6,76.4 C36.1,72.9 33.8,68.6 32.7,64 L10,64 C4.5,64 0,59.5 0,54 L0,10 C0,4.5 4.5,0 10,0 L37,0 L54,0 C59.5,0 64,4.5 64,10 L64,32.7 C68.7,33.8 72.9,36.2 76.4,39.6 C86.1,49.3 86.5,64.7 77.8,74.9 L95.5,92.6 C96.2,93.4 96.2,94.6 95.4,95.4 Z M4,10 L4,16 L60,16 L60,10 C60,6.7 57.3,4 54,4 L37,4 L10,4 C6.7,4 4,6.7 4,10 Z M32.1,60 C31.9,57.7 32,55.3 32.5,53 L30,53 C29.4,53 29,52.6 29,52 L29,28 C29,27.4 29.4,27 30,27 L54.3,27 C54.9,27 55.3,27.4 55.3,28 L55.3,32.1 C56.2,32 57.1,32 58.1,32 C58.8,32 59.4,32 60.1,32.1 L60.1,20 L4,20 L4,54 C4,57.3 6.7,60 10,60 L32.1,60 Z M39.6,39.6 C43.4,35.8 48.1,33.4 53.2,32.4 L53.2,29 L31,29 L31,51 L33,51 C34.1,46.8 36.3,42.9 39.6,39.6 Z M58,80 C63.9,80 69.4,77.7 73.6,73.6 C82.2,65 82.2,51.1 73.6,42.5 C69.4,38.3 63.9,36 58,36 C52.1,36 46.6,38.3 42.4,42.4 C33.8,51 33.8,64.9 42.4,73.5 C46.6,77.7 52.1,80 58,80 Z" id="Shape"></path>
                </g>
                <path d="M69.935,51.93361 C69.935,51.8713693 69.935,51.8713693 69.87,51.8091286 C69.87,51.746888 69.805,51.746888 69.805,51.6846473 C69.805,51.6224066 69.74,51.6224066 69.74,51.560166 C69.675,51.4356846 69.545,51.3112033 69.35,51.186722 C69.285,51.186722 69.285,51.1244813 69.22,51.1244813 C69.155,51.1244813 69.155,51.0622407 69.09,51.0622407 C69.025,51.0622407 69.025,51.0622407 68.96,51 C68.895,51 68.895,51 68.83,51 C68.765,51 68.635,51 68.57,51 L62.2,51 C61.485,51 60.9,51.560166 60.9,52.2448133 C60.9,52.9294606 61.485,53.4896266 62.2,53.4896266 L65.45,53.4896266 L58.3,60.5228216 L54.01,56.4149378 C53.49,55.9170124 52.71,55.9170124 52.19,56.4149378 L44.39,63.8838174 C43.87,64.3817427 43.87,65.1286307 44.39,65.626556 C44.65,65.8755187 44.975,66 45.3,66 C45.625,66 45.95,65.8755187 46.21,65.626556 L53.1,59.0290456 L57.39,63.1369295 C57.91,63.6348548 58.69,63.6348548 59.21,63.1369295 L67.4,55.2946058 L67.4,58.5311203 C67.4,59.2157676 67.985,59.7759336 68.7,59.7759336 C69.415,59.7759336 70,59.2157676 70,58.5311203 L70,52.3070539 C70,52.2448133 70,52.120332 70,52.0580913 C69.935,51.9958506 69.935,51.9958506 69.935,51.93361 Z" id="Shape"></path>
            </g>
        </g>
    </g>
</svg>