<svg id="Layer_1" data-name="Layer 1" xmlns="http://www.w3.org/2000/svg" viewBox="0 0 65 65"><defs><style>.cls-1{fill:#ff614a;}</style></defs><title>phone</title><path class="cls-1" d="M54.32,65c-.23,0-.46,0-.69,0a60.29,60.29,0,0,1-26.15-9.28A59.36,59.36,0,0,1,9.32,37.56,60,60,0,0,1,0,11.38,7.75,7.75,0,0,1,7,3q.35,0,.69,0h8.87a7.76,7.76,0,0,1,7.65,6.65,35.72,35.72,0,0,0,2,7.83,7.74,7.74,0,0,1-1.74,8.15l-2.7,2.69A45,45,0,0,0,36.7,43.15l2.69-2.69a7.78,7.78,0,0,1,8.18-1.75,35.86,35.86,0,0,0,7.82,1.94,7.74,7.74,0,0,1,6.68,7.83v8.76A7.75,7.75,0,0,1,54.35,65ZM16.59,6.69H7.74l-.35,0A4,4,0,0,0,3.78,11a56.21,56.21,0,0,0,8.7,24.52,55.62,55.62,0,0,0,17,17A56.49,56.49,0,0,0,54,61.23h.34a4,4,0,0,0,4-4V48.46s0,0,0,0a4,4,0,0,0-3.42-4,39.63,39.63,0,0,1-8.63-2.15,4,4,0,0,0-4.2.89l-3.72,3.71a1.89,1.89,0,0,1-2.26.3,48.77,48.77,0,0,1-18.3-18.26,1.88,1.88,0,0,1,.31-2.26l3.72-3.72a4,4,0,0,0,.89-4.18,39.46,39.46,0,0,1-2.16-8.64A4,4,0,0,0,16.59,6.69ZM51.39,27a1.88,1.88,0,0,1-1.85-1.52A12.71,12.71,0,0,0,39.45,15.43a1.88,1.88,0,1,1,.72-3.69,16.46,16.46,0,0,1,13.07,13A1.89,1.89,0,0,1,51.39,27Zm11.72,0a1.88,1.88,0,0,1-1.87-1.67A24.35,24.35,0,0,0,39.6,3.75,1.88,1.88,0,1,1,40,0,28.09,28.09,0,0,1,65,24.9,1.88,1.88,0,0,1,63.33,27Z"/></svg>