<?xml version="1.0" encoding="utf-8"?>
<!-- Generator: Adobe Illustrator 17.1.0, SVG Export Plug-In . SVG Version: 6.00 Build 0)  -->
<!DOCTYPE svg PUBLIC "-//W3C//DTD SVG 1.1//EN" "http://www.w3.org/Graphics/SVG/1.1/DTD/svg11.dtd">
<svg version="1.1" id="Layer_1" xmlns="http://www.w3.org/2000/svg" xmlns:xlink="http://www.w3.org/1999/xlink" x="0px" y="0px"
	 viewBox="0 0 64 64" style="enable-background:new 0 0 64 64;" xml:space="preserve">
<style type="text/css">
	.st0{fill:#FF614C;}
</style>
<path class="st0" d="M61.3,35.3L42.2,2.2C41.3,0.8,39.9,0,38.3,0c-1.6,0-3,0.9-3.8,2.2l-5.2,8.8c-3.2,5.4-7.8,9.9-13.1,13l-9.8,5.7
	c-1.9,1.1-3.3,2.9-3.8,5c-0.6,2.1-0.3,4.3,0.8,6.2l5,8.6c1.5,2.5,4.2,4.1,7.1,4.1c1.2,0,2.4-0.2,3.4-0.7l4,6.9
	c1.5,2.5,4.2,4.1,7.1,4.1c1.5,0,2.9-0.4,4.1-1.1l1.1-0.6c3.9-2.3,5.3-7.3,3-11.3l-1.5-2.5c2.4-0.9,4.2-3.1,4.5-5.8
	c2-0.4,4-0.6,6.1-0.6L57.4,42c1.6,0,3-0.9,3.9-2.3C62.1,38.3,62.1,36.6,61.3,35.3z M33,58.8L32,59.5c-0.6,0.3-1.3,0.5-2.1,0.5
	c-1.5,0-2.9-0.8-3.7-2.1l-5-8.6l8.4-4.6c0,0,0,0,0,0.1l5,8.3C35.8,55.1,35.1,57.7,33,58.8z M35.5,46.8l-1.2-2.1
	c1.2-0.5,2.5-0.9,3.2-1.2c0.5-0.1,1-0.2,1.4-0.4C38.6,44.9,37.2,46.3,35.5,46.8z M47.1,38.1c-3.7,0.1-7.3,0.6-10.7,1.6
	c-1.5,0.4-4.7,1.7-5.9,2.2c0,0-0.1,0-0.1,0.1c0,0,0,0,0,0l-11.9,6.5c0,0,0,0,0,0c0,0,0,0-0.1,0l-1,0.6c-0.6,0.3-1.3,0.5-2.1,0.5
	c-1.5,0-2.9-0.8-3.7-2.1l-5-8.6c-0.6-1-0.7-2.1-0.4-3.2c0.3-1.1,1-2,2-2.6l9.8-5.7c6-3.4,11-8.4,14.6-14.5l2.7-4.6L52.5,38
	L47.1,38.1z M57.8,37.7c-0.1,0.1-0.2,0.3-0.4,0.3l-2.6,0L36.6,6.5l1.3-2.2c0.2-0.4,0.7-0.3,0.8,0l19.1,33
	C57.9,37.4,57.9,37.6,57.8,37.7z"/>
</svg>
