<?xml version="1.0" encoding="utf-8"?>
<!-- Generator: Adobe Illustrator 17.1.0, SVG Export Plug-In . SVG Version: 6.00 Build 0)  -->
<!DOCTYPE svg PUBLIC "-//W3C//DTD SVG 1.1//EN" "http://www.w3.org/Graphics/SVG/1.1/DTD/svg11.dtd">
<svg version="1.1" id="Layer_1" xmlns="http://www.w3.org/2000/svg" xmlns:xlink="http://www.w3.org/1999/xlink" x="0px" y="0px"
	 viewBox="0 0 64 64" style="enable-background:new 0 0 64 64;" xml:space="preserve">
<style type="text/css">
	.st0{fill:#FF614A;}
</style>
<path class="st0" d="M56,0H8C3.6,0,0,3.6,0,8v48c0,4.4,3.6,8,8,8h48c4.4,0,8-3.6,8-8V39V25V8C64,3.6,60.4,0,56,0z M60,37h-8
	c-1.1,0-2-0.9-2-2v-6c0-1.1,0.9-2,2-2h8V37z M52,25c-2.2,0-4,1.8-4,4v6c0,2.2,1.8,4,4,4h8v17c0,2.2-1.8,4-4,4H8c-2.2,0-4-1.8-4-4V8
	c0-2.2,1.8-4,4-4h48c2.2,0,4,1.8,4,4v17H52z M32.6,20h-8.5v10.1h-2.3v3.4h2.3v2.2h-2.3v2.9h2.3V44h4.4v-5.4h8.4v-2.9h-8.4v-2.2h4
	c4.5,0,7.8-2.4,7.8-6.6C40.2,22.7,37.6,20,32.6,20z M31.8,30.1h-3.3v-6.7h3.4c2.5,0,3.9,1.4,3.9,3.3C35.7,28.6,34.4,30.1,31.8,30.1z
	 M52,32c0-1.1,0.9-2,2-2s2,0.9,2,2s-0.9,2-2,2S52,33.1,52,32z"/>
</svg>
