<?xml version="1.0" encoding="utf-8"?>
<!-- Generator: Adobe Illustrator 17.1.0, SVG Export Plug-In . SVG Version: 6.00 Build 0)  -->
<!DOCTYPE svg PUBLIC "-//W3C//DTD SVG 1.1//EN" "http://www.w3.org/Graphics/SVG/1.1/DTD/svg11.dtd">
<svg version="1.1" id="Layer_1" xmlns="http://www.w3.org/2000/svg" xmlns:xlink="http://www.w3.org/1999/xlink" x="0px" y="0px"
	 viewBox="0 0 64 64" style="enable-background:new 0 0 64 64;" xml:space="preserve">
<style type="text/css">
	.st0{fill:#FF614A;}
</style>
<path class="st0" d="M32,64C14.4,64,0,49.6,0,32S14.4,0,32,0s32,14.4,32,32S49.6,64,32,64z M32,4C16.6,4,4,16.6,4,32s12.6,28,28,28
	s28-12.6,28-28S47.4,4,32,4z M44.7,44.7C48.1,41.3,50,36.8,50,32s-1.9-9.3-5.3-12.7c-0.8-0.8-2-0.8-2.8,0s-0.8,2,0,2.8
	c2.6,2.6,4.1,6.2,4.1,9.9s-1.5,7.3-4.1,9.9C39.3,44.5,35.7,46,32,46s-7.3-1.5-9.9-4.1C19.5,39.3,18,35.7,18,32s1.5-7.3,4.1-9.9
	c0.8-0.8,0.8-2,0-2.8s-2-0.8-2.8,0C15.9,22.7,14,27.2,14,32s1.9,9.3,5.3,12.7C22.7,48.1,27.2,50,32,50S41.3,48.1,44.7,44.7z M34,32
	V16c0-1.1-0.9-2-2-2s-2,0.9-2,2v16c0,1.1,0.9,2,2,2S34,33.1,34,32z"/>
</svg>
