<?xml version="1.0" encoding="utf-8"?>
<!-- Generator: Adobe Illustrator 17.1.0, SVG Export Plug-In . SVG Version: 6.00 Build 0)  -->
<!DOCTYPE svg PUBLIC "-//W3C//DTD SVG 1.1//EN" "http://www.w3.org/Graphics/SVG/1.1/DTD/svg11.dtd">
<svg version="1.1" id="Layer_1" xmlns="http://www.w3.org/2000/svg" xmlns:xlink="http://www.w3.org/1999/xlink" x="0px" y="0px"
	 viewBox="0 0 96 96" style="enable-background:new 0 0 96 96;" xml:space="preserve">
<style type="text/css">
	.st0{fill:#FF614C;}
</style>
<path class="st0" d="M86,8h-5V6c0-1.1-0.9-2-2-2s-2,0.9-2,2v2H60V6c0-1.1-0.9-2-2-2s-2,0.9-2,2v2H40V6c0-1.1-0.9-2-2-2s-2,0.9-2,2v2
	H19V6c0-1.1-0.9-2-2-2s-2,0.9-2,2v2h-5C4.5,8,0,12.5,0,18v64c0,5.5,4.5,10,10,10h76c5.5,0,10-4.5,10-10V18C96,12.5,91.5,8,86,8z
	 M10,12h5v2c0,1.1,0.9,2,2,2s2-0.9,2-2v-2h17v2c0,1.1,0.9,2,2,2s2-0.9,2-2v-2h16v2c0,1.1,0.9,2,2,2s2-0.9,2-2v-2h17v2
	c0,1.1,0.9,2,2,2s2-0.9,2-2v-2h5c3.3,0,6,2.7,6,6v4H4v-4C4,14.7,6.7,12,10,12z M86,88H10c-3.3,0-6-2.7-6-6V26h88v56
	C92,85.3,89.3,88,86,88z M18,42c1.7,0,3-1.3,3-3s-1.3-3-3-3s-3,1.3-3,3S16.3,42,18,42z M18,38c0.6,0,1,0.4,1,1s-0.4,1-1,1
	s-1-0.4-1-1S17.4,38,18,38z M9.5,42.2h1.6c0.2,0.4,0.4,0.8,0.7,1.1L11,44.7l0.5,0.5c1.2,1.2,2.6,2.1,4.3,2.5l0.7,0.2l0.8-1.4
	c0.4,0,0.9,0,1.3,0l0.8,1.4l0.7-0.2c1.6-0.4,3.1-1.3,4.3-2.5l0.5-0.5l-0.8-1.4c0.3-0.4,0.5-0.7,0.7-1.1h1.6l0.2-0.7
	c0.2-0.8,0.3-1.6,0.3-2.5s-0.1-1.7-0.3-2.5l-0.2-0.7h-1.6c-0.2-0.4-0.4-0.8-0.7-1.1l0.8-1.4l-0.5-0.5c-1.2-1.2-2.6-2.1-4.3-2.5
	l-0.7-0.2l-0.8,1.4c-0.4,0-0.9,0-1.3,0l-0.8-1.4l-0.7,0.2c-1.6,0.4-3.1,1.3-4.3,2.5L11,33.3l0.8,1.4c-0.3,0.4-0.5,0.7-0.7,1.1H9.5
	l-0.2,0.7C9.1,37.3,9,38.2,9,39s0.1,1.7,0.3,2.5L9.5,42.2z M11.1,37.8h1.4l0.2-0.7c0.2-0.6,0.6-1.2,1-1.8l0.5-0.5l-0.7-1.2
	c0.6-0.5,1.3-0.9,2-1.2l0.7,1.2l0.7-0.1c0.7-0.1,1.3-0.1,2,0l0.7,0.1l0.7-1.2c0.7,0.3,1.4,0.7,2,1.2l-0.7,1.2l0.5,0.5
	c0.4,0.5,0.8,1.1,1,1.8l0.2,0.7h1.4C25,38.2,25,38.6,25,39s0,0.8-0.1,1.2h-1.4l-0.2,0.7c-0.2,0.6-0.6,1.2-1,1.8l-0.5,0.5l0.7,1.2
	c-0.6,0.5-1.3,0.9-2,1.2l-0.7-1.2L19,44.4c-0.7,0.1-1.3,0.1-2,0l-0.7-0.1l-0.7,1.2c-0.7-0.3-1.4-0.7-2-1.2l0.7-1.2l-0.5-0.5
	c-0.4-0.5-0.8-1.1-1-1.8l-0.2-0.7h-1.4C11,39.8,11,39.4,11,39S11,38.2,11.1,37.8z M38,42c1.7,0,3-1.3,3-3s-1.3-3-3-3s-3,1.3-3,3
	S36.3,42,38,42z M38,38c0.6,0,1,0.4,1,1s-0.4,1-1,1s-1-0.4-1-1S37.4,38,38,38z M29.5,42.2h1.6c0.2,0.4,0.4,0.8,0.7,1.1L31,44.7
	l0.5,0.5c1.2,1.2,2.6,2.1,4.3,2.5l0.7,0.2l0.8-1.4c0.4,0,0.9,0,1.3,0l0.8,1.4l0.7-0.2c1.6-0.4,3.1-1.3,4.3-2.5l0.5-0.5l-0.8-1.4
	c0.3-0.4,0.5-0.7,0.7-1.1h1.6l0.2-0.7c0.2-0.8,0.3-1.6,0.3-2.5s-0.1-1.7-0.3-2.5l-0.2-0.7h-1.6c-0.2-0.4-0.4-0.8-0.7-1.1l0.8-1.4
	l-0.5-0.5c-1.2-1.2-2.6-2.1-4.3-2.5l-0.7-0.2l-0.8,1.4c-0.4,0-0.9,0-1.3,0l-0.8-1.4l-0.7,0.2c-1.6,0.4-3.1,1.3-4.3,2.5L31,33.3
	l0.8,1.4c-0.3,0.4-0.5,0.7-0.7,1.1h-1.6l-0.2,0.7C29.1,37.3,29,38.2,29,39s0.1,1.7,0.3,2.5L29.5,42.2z M31.1,37.8h1.4l0.2-0.7
	c0.2-0.6,0.6-1.2,1-1.8l0.5-0.5l-0.7-1.2c0.6-0.5,1.3-0.9,2-1.2l0.7,1.2l0.7-0.1c0.7-0.1,1.3-0.1,2,0l0.7,0.1l0.7-1.2
	c0.7,0.3,1.4,0.7,2,1.2l-0.7,1.2l0.5,0.5c0.4,0.5,0.8,1.1,1,1.8l0.2,0.7h1.4C45,38.2,45,38.6,45,39s0,0.8-0.1,1.2h-1.4l-0.2,0.7
	c-0.2,0.6-0.6,1.2-1,1.8l-0.5,0.5l0.7,1.2c-0.6,0.5-1.3,0.9-2,1.2l-0.7-1.2L39,44.4c-0.7,0.1-1.3,0.1-2,0l-0.7-0.1l-0.7,1.2
	c-0.7-0.3-1.4-0.7-2-1.2l0.7-1.2l-0.5-0.5c-0.4-0.5-0.8-1.1-1-1.8l-0.2-0.7h-1.4C31,39.8,31,39.4,31,39S31,38.2,31.1,37.8z M58,42
	c1.7,0,3-1.3,3-3s-1.3-3-3-3s-3,1.3-3,3S56.3,42,58,42z M58,38c0.6,0,1,0.4,1,1s-0.4,1-1,1s-1-0.4-1-1S57.4,38,58,38z M49.5,42.2
	h1.6c0.2,0.4,0.4,0.8,0.7,1.1L51,44.7l0.5,0.5c1.2,1.2,2.6,2.1,4.3,2.5l0.7,0.2l0.8-1.4c0.4,0,0.9,0,1.3,0l0.8,1.4l0.7-0.2
	c1.6-0.4,3.1-1.3,4.3-2.5l0.5-0.5l-0.8-1.4c0.3-0.4,0.5-0.7,0.7-1.1h1.6l0.2-0.7c0.2-0.8,0.3-1.6,0.3-2.5s-0.1-1.7-0.3-2.5l-0.2-0.7
	h-1.6c-0.2-0.4-0.4-0.8-0.7-1.1l0.8-1.4l-0.5-0.5c-1.2-1.2-2.6-2.1-4.3-2.5l-0.7-0.2l-0.8,1.4c-0.4,0-0.9,0-1.3,0l-0.8-1.4l-0.7,0.2
	c-1.6,0.4-3.1,1.3-4.3,2.5L51,33.3l0.8,1.4c-0.3,0.4-0.5,0.7-0.7,1.1h-1.6l-0.2,0.7C49.1,37.3,49,38.2,49,39s0.1,1.7,0.3,2.5
	L49.5,42.2z M51.1,37.8h1.4l0.2-0.7c0.2-0.6,0.6-1.2,1-1.8l0.5-0.5l-0.7-1.2c0.6-0.5,1.3-0.9,2-1.2l0.7,1.2l0.7-0.1
	c0.7-0.1,1.3-0.1,2,0l0.7,0.1l0.7-1.2c0.7,0.3,1.4,0.7,2,1.2l-0.7,1.2l0.5,0.5c0.4,0.5,0.8,1.1,1,1.8l0.2,0.7h1.4
	C65,38.2,65,38.6,65,39s0,0.8-0.1,1.2h-1.4l-0.2,0.7c-0.2,0.6-0.6,1.2-1,1.8l-0.5,0.5l0.7,1.2c-0.6,0.5-1.3,0.9-2,1.2l-0.7-1.2
	L59,44.4c-0.7,0.1-1.3,0.1-2,0l-0.7-0.1l-0.7,1.2c-0.7-0.3-1.4-0.7-2-1.2l0.7-1.2l-0.5-0.5c-0.4-0.5-0.8-1.1-1-1.8l-0.2-0.7h-1.4
	C51,39.8,51,39.4,51,39S51,38.2,51.1,37.8z M78,36c-1.7,0-3,1.3-3,3s1.3,3,3,3s3-1.3,3-3S79.7,36,78,36z M78,40c-0.6,0-1-0.4-1-1
	s0.4-1,1-1s1,0.4,1,1S78.6,40,78,40z M86.5,35.8h-1.6c-0.2-0.4-0.4-0.8-0.7-1.1l0.8-1.4l-0.5-0.5c-1.2-1.2-2.6-2.1-4.3-2.5l-0.7-0.2
	l-0.8,1.4c-0.4,0-0.9,0-1.3,0l-0.8-1.4l-0.7,0.2c-1.6,0.4-3.1,1.3-4.3,2.5L71,33.3l0.8,1.4c-0.3,0.4-0.5,0.7-0.7,1.1h-1.6l-0.2,0.7
	C69.1,37.3,69,38.2,69,39s0.1,1.7,0.3,2.5l0.2,0.7h1.6c0.2,0.4,0.4,0.8,0.7,1.1L71,44.7l0.5,0.5c1.2,1.2,2.6,2.1,4.3,2.5l0.7,0.2
	l0.8-1.4c0.4,0,0.9,0,1.3,0l0.8,1.4l0.7-0.2c1.6-0.4,3.1-1.3,4.3-2.5l0.5-0.5l-0.8-1.4c0.3-0.4,0.5-0.7,0.7-1.1h1.6l0.2-0.7
	c0.2-0.8,0.3-1.6,0.3-2.5s-0.1-1.7-0.3-2.5L86.5,35.8z M84.9,40.2h-1.4l-0.2,0.7c-0.2,0.6-0.6,1.2-1,1.8l-0.5,0.5l0.7,1.2
	c-0.6,0.5-1.3,0.9-2,1.2l-0.7-1.2L79,44.4c-0.7,0.1-1.3,0.1-2,0l-0.7-0.1l-0.7,1.2c-0.7-0.3-1.4-0.7-2-1.2l0.7-1.2l-0.5-0.5
	c-0.4-0.5-0.8-1.1-1-1.8l-0.2-0.7h-1.4C71,39.8,71,39.4,71,39s0-0.8,0.1-1.2h1.4l0.2-0.7c0.2-0.6,0.6-1.2,1-1.8l0.5-0.5l-0.7-1.2
	c0.6-0.5,1.3-0.9,2-1.2l0.7,1.2l0.7-0.1c0.7-0.1,1.3-0.1,2,0l0.7,0.1l0.7-1.2c0.7,0.3,1.4,0.7,2,1.2l-0.7,1.2l0.5,0.5
	c0.4,0.5,0.8,1.1,1,1.8l0.2,0.7h1.4C85,38.2,85,38.6,85,39S85,39.8,84.9,40.2z M18,72c-1.7,0-3,1.3-3,3s1.3,3,3,3s3-1.3,3-3
	S19.7,72,18,72z M18,76c-0.6,0-1-0.4-1-1s0.4-1,1-1s1,0.4,1,1S18.6,76,18,76z M26.5,71.8h-1.6c-0.2-0.4-0.4-0.8-0.7-1.1l0.8-1.4
	l-0.5-0.5c-1.2-1.2-2.6-2.1-4.3-2.5l-0.7-0.2l-0.8,1.4c-0.4,0-0.9,0-1.3,0l-0.8-1.4l-0.7,0.2c-1.6,0.4-3.1,1.3-4.3,2.5L11,69.3
	l0.8,1.4c-0.3,0.4-0.5,0.7-0.7,1.1H9.5l-0.2,0.7C9.1,73.3,9,74.2,9,75s0.1,1.7,0.3,2.5l0.2,0.7h1.6c0.2,0.4,0.4,0.8,0.7,1.1L11,80.7
	l0.5,0.5c1.2,1.2,2.6,2.1,4.3,2.5l0.7,0.2l0.8-1.4c0.4,0,0.9,0,1.3,0l0.8,1.4l0.7-0.2c1.6-0.4,3.1-1.3,4.3-2.5l0.5-0.5l-0.8-1.4
	c0.3-0.4,0.5-0.7,0.7-1.1h1.6l0.2-0.7c0.2-0.8,0.3-1.6,0.3-2.5s-0.1-1.7-0.3-2.5L26.5,71.8z M24.9,76.2h-1.4l-0.2,0.7
	c-0.2,0.6-0.6,1.2-1,1.8l-0.5,0.5l0.7,1.2c-0.6,0.5-1.3,0.9-2,1.2l-0.7-1.2L19,80.4c-0.7,0.1-1.3,0.1-2,0l-0.7-0.1l-0.7,1.2
	c-0.7-0.3-1.4-0.7-2-1.2l0.7-1.2l-0.5-0.5c-0.4-0.5-0.8-1.1-1-1.8l-0.2-0.7h-1.4C11,75.8,11,75.4,11,75s0-0.8,0.1-1.2h1.4l0.2-0.7
	c0.2-0.6,0.6-1.2,1-1.8l0.5-0.5l-0.7-1.2c0.6-0.5,1.3-0.9,2-1.2l0.7,1.2l0.7-0.1c0.7-0.1,1.3-0.1,2,0l0.7,0.1l0.7-1.2
	c0.7,0.3,1.4,0.7,2,1.2l-0.7,1.2l0.5,0.5c0.4,0.5,0.8,1.1,1,1.8l0.2,0.7h1.4C25,74.2,25,74.6,25,75S25,75.8,24.9,76.2z M38,72
	c-1.7,0-3,1.3-3,3s1.3,3,3,3s3-1.3,3-3S39.7,72,38,72z M38,76c-0.6,0-1-0.4-1-1s0.4-1,1-1s1,0.4,1,1S38.6,76,38,76z M46.5,71.8h-1.6
	c-0.2-0.4-0.4-0.8-0.7-1.1l0.8-1.4l-0.5-0.5c-1.2-1.2-2.6-2.1-4.3-2.5l-0.7-0.2l-0.8,1.4c-0.4,0-0.9,0-1.3,0l-0.8-1.4l-0.7,0.2
	c-1.6,0.4-3.1,1.3-4.3,2.5L31,69.3l0.8,1.4c-0.3,0.4-0.5,0.7-0.7,1.1h-1.6l-0.2,0.7C29.1,73.3,29,74.2,29,75s0.1,1.7,0.3,2.5
	l0.2,0.7h1.6c0.2,0.4,0.4,0.8,0.7,1.1L31,80.7l0.5,0.5c1.2,1.2,2.6,2.1,4.3,2.5l0.7,0.2l0.8-1.4c0.4,0,0.9,0,1.3,0l0.8,1.4l0.7-0.2
	c1.6-0.4,3.1-1.3,4.3-2.5l0.5-0.5l-0.8-1.4c0.3-0.4,0.5-0.7,0.7-1.1h1.6l0.2-0.7c0.2-0.8,0.3-1.6,0.3-2.5s-0.1-1.7-0.3-2.5
	L46.5,71.8z M44.9,76.2h-1.4l-0.2,0.7c-0.2,0.6-0.6,1.2-1,1.8l-0.5,0.5l0.7,1.2c-0.6,0.5-1.3,0.9-2,1.2l-0.7-1.2L39,80.4
	c-0.7,0.1-1.3,0.1-2,0l-0.7-0.1l-0.7,1.2c-0.7-0.3-1.4-0.7-2-1.2l0.7-1.2l-0.5-0.5c-0.4-0.5-0.8-1.1-1-1.8l-0.2-0.7h-1.4
	C31,75.8,31,75.4,31,75s0-0.8,0.1-1.2h1.4l0.2-0.7c0.2-0.6,0.6-1.2,1-1.8l0.5-0.5l-0.7-1.2c0.6-0.5,1.3-0.9,2-1.2l0.7,1.2l0.7-0.1
	c0.7-0.1,1.3-0.1,2,0l0.7,0.1l0.7-1.2c0.7,0.3,1.4,0.7,2,1.2l-0.7,1.2l0.5,0.5c0.4,0.5,0.8,1.1,1,1.8l0.2,0.7h1.4
	C45,74.2,45,74.6,45,75S45,75.8,44.9,76.2z M58,72c-1.7,0-3,1.3-3,3s1.3,3,3,3s3-1.3,3-3S59.7,72,58,72z M58,76c-0.6,0-1-0.4-1-1
	s0.4-1,1-1s1,0.4,1,1S58.6,76,58,76z M66.5,71.8h-1.6c-0.2-0.4-0.4-0.8-0.7-1.1l0.8-1.4l-0.5-0.5c-1.2-1.2-2.6-2.1-4.3-2.5l-0.7-0.2
	l-0.8,1.4c-0.4,0-0.9,0-1.3,0l-0.8-1.4l-0.7,0.2c-1.6,0.4-3.1,1.3-4.3,2.5L51,69.3l0.8,1.4c-0.3,0.4-0.5,0.7-0.7,1.1h-1.6l-0.2,0.7
	C49.1,73.3,49,74.2,49,75s0.1,1.7,0.3,2.5l0.2,0.7h1.6c0.2,0.4,0.4,0.8,0.7,1.1L51,80.7l0.5,0.5c1.2,1.2,2.6,2.1,4.3,2.5l0.7,0.2
	l0.8-1.4c0.4,0,0.9,0,1.3,0l0.8,1.4l0.7-0.2c1.6-0.4,3.1-1.3,4.3-2.5l0.5-0.5l-0.8-1.4c0.3-0.4,0.5-0.7,0.7-1.1h1.6l0.2-0.7
	c0.2-0.8,0.3-1.6,0.3-2.5s-0.1-1.7-0.3-2.5L66.5,71.8z M64.9,76.2h-1.4l-0.2,0.7c-0.2,0.6-0.6,1.2-1,1.8l-0.5,0.5l0.7,1.2
	c-0.6,0.5-1.3,0.9-2,1.2l-0.7-1.2L59,80.4c-0.7,0.1-1.3,0.1-2,0l-0.7-0.1l-0.7,1.2c-0.7-0.3-1.4-0.7-2-1.2l0.7-1.2l-0.5-0.5
	c-0.4-0.5-0.8-1.1-1-1.8l-0.2-0.7h-1.4C51,75.8,51,75.4,51,75s0-0.8,0.1-1.2h1.4l0.2-0.7c0.2-0.6,0.6-1.2,1-1.8l0.5-0.5l-0.7-1.2
	c0.6-0.5,1.3-0.9,2-1.2l0.7,1.2l0.7-0.1c0.7-0.1,1.3-0.1,2,0l0.7,0.1l0.7-1.2c0.7,0.3,1.4,0.7,2,1.2l-0.7,1.2l0.5,0.5
	c0.4,0.5,0.8,1.1,1,1.8l0.2,0.7h1.4C65,74.2,65,74.6,65,75S65,75.8,64.9,76.2z M78,72c-1.7,0-3,1.3-3,3s1.3,3,3,3s3-1.3,3-3
	S79.7,72,78,72z M78,76c-0.6,0-1-0.4-1-1s0.4-1,1-1s1,0.4,1,1S78.6,76,78,76z M86.5,71.8h-1.6c-0.2-0.4-0.4-0.8-0.7-1.1l0.8-1.4
	l-0.5-0.5c-1.2-1.2-2.6-2.1-4.3-2.5l-0.7-0.2l-0.8,1.4c-0.4,0-0.9,0-1.3,0l-0.8-1.4l-0.7,0.2c-1.6,0.4-3.1,1.3-4.3,2.5L71,69.3
	l0.8,1.4c-0.3,0.4-0.5,0.7-0.7,1.1h-1.6l-0.2,0.7C69.1,73.3,69,74.2,69,75s0.1,1.7,0.3,2.5l0.2,0.7h1.6c0.2,0.4,0.4,0.8,0.7,1.1
	L71,80.7l0.5,0.5c1.2,1.2,2.6,2.1,4.3,2.5l0.7,0.2l0.8-1.4c0.4,0,0.9,0,1.3,0l0.8,1.4l0.7-0.2c1.6-0.4,3.1-1.3,4.3-2.5l0.5-0.5
	l-0.8-1.4c0.3-0.4,0.5-0.7,0.7-1.1h1.6l0.2-0.7c0.2-0.8,0.3-1.6,0.3-2.5s-0.1-1.7-0.3-2.5L86.5,71.8z M84.9,76.2h-1.4l-0.2,0.7
	c-0.2,0.6-0.6,1.2-1,1.8l-0.5,0.5l0.7,1.2c-0.6,0.5-1.3,0.9-2,1.2l-0.7-1.2L79,80.4c-0.7,0.1-1.3,0.1-2,0l-0.7-0.1l-0.7,1.2
	c-0.7-0.3-1.4-0.7-2-1.2l0.7-1.2l-0.5-0.5c-0.4-0.5-0.8-1.1-1-1.8l-0.2-0.7h-1.4C71,75.8,71,75.4,71,75s0-0.8,0.1-1.2h1.4l0.2-0.7
	c0.2-0.6,0.6-1.2,1-1.8l0.5-0.5l-0.7-1.2c0.6-0.5,1.3-0.9,2-1.2l0.7,1.2l0.7-0.1c0.7-0.1,1.3-0.1,2,0l0.7,0.1l0.7-1.2
	c0.7,0.3,1.4,0.7,2,1.2l-0.7,1.2l0.5,0.5c0.4,0.5,0.8,1.1,1,1.8l0.2,0.7h1.4C85,74.2,85,74.6,85,75S85,75.8,84.9,76.2z M28,54
	c-1.7,0-3,1.3-3,3s1.3,3,3,3s3-1.3,3-3S29.7,54,28,54z M28,58c-0.6,0-1-0.4-1-1s0.4-1,1-1s1,0.4,1,1S28.6,58,28,58z M31.2,65.5v-1.6
	c0.4-0.2,0.8-0.4,1.1-0.7l1.4,0.8l0.5-0.5c1.2-1.2,2.1-2.6,2.5-4.3l0.2-0.7l-1.4-0.8c0-0.2,0-0.4,0-0.7s0-0.4,0-0.7l1.4-0.8
	l-0.2-0.7c-0.4-1.6-1.3-3.1-2.5-4.3L33.7,50l-1.4,0.8c-0.4-0.3-0.7-0.5-1.1-0.7v-1.6l-0.7-0.2c-1.6-0.5-3.3-0.5-4.9,0l-0.7,0.2v1.6
	c-0.4,0.2-0.8,0.4-1.1,0.7L22.3,50l-0.5,0.5c-1.2,1.2-2.1,2.6-2.5,4.3l-0.2,0.7l1.4,0.8c0,0.2,0,0.4,0,0.7s0,0.4,0,0.7l-1.4,0.8
	l0.2,0.7c0.4,1.6,1.3,3.1,2.5,4.3l0.5,0.5l1.4-0.8c0.4,0.3,0.7,0.5,1.1,0.7v1.6l0.7,0.2c0.8,0.2,1.6,0.3,2.5,0.3s1.7-0.1,2.5-0.3
	L31.2,65.5z M29.2,62.5v1.4c-0.8,0.1-1.6,0.1-2.4,0v-1.4l-0.7-0.2c-0.6-0.2-1.2-0.6-1.8-1l-0.5-0.5l-1.2,0.7c-0.5-0.6-0.9-1.3-1.2-2
	l1.2-0.7L22.6,58c-0.1-0.4-0.1-0.7-0.1-1s0-0.7,0.1-1l0.1-0.7l-1.2-0.7c0.3-0.7,0.7-1.4,1.2-2l1.2,0.7l0.5-0.5
	c0.5-0.4,1.1-0.8,1.8-1l0.7-0.2v-1.4c0.8-0.1,1.6-0.1,2.4,0v1.4l0.7,0.2c0.6,0.2,1.2,0.6,1.8,1l0.5,0.5l1.2-0.7
	c0.5,0.6,0.9,1.3,1.2,2l-1.2,0.7l0.1,0.7c0.1,0.4,0.1,0.7,0.1,1s0,0.7-0.1,1l-0.1,0.7l1.2,0.7c-0.3,0.7-0.7,1.4-1.2,2l-1.2-0.7
	l-0.5,0.5c-0.5,0.4-1.1,0.8-1.8,1L29.2,62.5z M48,54c-1.7,0-3,1.3-3,3s1.3,3,3,3s3-1.3,3-3S49.7,54,48,54z M48,58c-0.6,0-1-0.4-1-1
	s0.4-1,1-1s1,0.4,1,1S48.6,58,48,58z M51.2,65.5v-1.6c0.4-0.2,0.8-0.4,1.1-0.7l1.4,0.8l0.5-0.5c1.2-1.2,2.1-2.6,2.5-4.3l0.2-0.7
	l-1.4-0.8c0-0.2,0-0.4,0-0.7s0-0.4,0-0.7l1.4-0.8l-0.2-0.7c-0.4-1.6-1.3-3.1-2.5-4.3L53.7,50l-1.4,0.8c-0.4-0.3-0.7-0.5-1.1-0.7
	v-1.6l-0.7-0.2c-1.6-0.5-3.3-0.5-4.9,0l-0.7,0.2v1.6c-0.4,0.2-0.8,0.4-1.1,0.7L42.3,50l-0.5,0.5c-1.2,1.2-2.1,2.6-2.5,4.3l-0.2,0.7
	l1.4,0.8c0,0.2,0,0.4,0,0.7s0,0.4,0,0.7l-1.4,0.8l0.2,0.7c0.4,1.6,1.3,3.1,2.5,4.3l0.5,0.5l1.4-0.8c0.4,0.3,0.7,0.5,1.1,0.7v1.6
	l0.7,0.2c0.8,0.2,1.6,0.3,2.5,0.3s1.7-0.1,2.5-0.3L51.2,65.5z M49.2,62.5v1.4c-0.8,0.1-1.6,0.1-2.4,0v-1.4l-0.7-0.2
	c-0.6-0.2-1.2-0.6-1.8-1l-0.5-0.5l-1.2,0.7c-0.5-0.6-0.9-1.3-1.2-2l1.2-0.7L42.6,58c-0.1-0.4-0.1-0.7-0.1-1s0-0.7,0.1-1l0.1-0.7
	l-1.2-0.7c0.3-0.7,0.7-1.4,1.2-2l1.2,0.7l0.5-0.5c0.5-0.4,1.1-0.8,1.8-1l0.7-0.2v-1.4c0.8-0.1,1.6-0.1,2.4,0v1.4l0.7,0.2
	c0.6,0.2,1.2,0.6,1.8,1l0.5,0.5l1.2-0.7c0.5,0.6,0.9,1.3,1.2,2l-1.2,0.7l0.1,0.7c0.1,0.4,0.1,0.7,0.1,1s0,0.7-0.1,1l-0.1,0.7
	l1.2,0.7c-0.3,0.7-0.7,1.4-1.2,2l-1.2-0.7l-0.5,0.5c-0.5,0.4-1.1,0.8-1.8,1L49.2,62.5z M68,54c-1.7,0-3,1.3-3,3s1.3,3,3,3s3-1.3,3-3
	S69.7,54,68,54z M68,58c-0.6,0-1-0.4-1-1s0.4-1,1-1s1,0.4,1,1S68.6,58,68,58z M71.2,65.5v-1.6c0.4-0.2,0.8-0.4,1.1-0.7l1.4,0.8
	l0.5-0.5c1.2-1.2,2.1-2.6,2.5-4.3l0.2-0.7l-1.4-0.8c0-0.2,0-0.4,0-0.7s0-0.4,0-0.7l1.4-0.8l-0.2-0.7c-0.4-1.6-1.3-3.1-2.5-4.3
	L73.7,50l-1.4,0.8c-0.4-0.3-0.7-0.5-1.1-0.7v-1.6l-0.7-0.2c-1.6-0.5-3.3-0.5-4.9,0l-0.7,0.2v1.6c-0.4,0.2-0.8,0.4-1.1,0.7L62.3,50
	l-0.5,0.5c-1.2,1.2-2.1,2.6-2.5,4.3l-0.2,0.7l1.4,0.8c0,0.2,0,0.4,0,0.7s0,0.4,0,0.7l-1.4,0.8l0.2,0.7c0.4,1.6,1.3,3.1,2.5,4.3
	l0.5,0.5l1.4-0.8c0.4,0.3,0.7,0.5,1.1,0.7v1.6l0.7,0.2c0.8,0.2,1.6,0.3,2.5,0.3s1.7-0.1,2.5-0.3L71.2,65.5z M69.2,62.5v1.4
	c-0.8,0.1-1.6,0.1-2.4,0v-1.4l-0.7-0.2c-0.6-0.2-1.2-0.6-1.8-1l-0.5-0.5l-1.2,0.7c-0.5-0.6-0.9-1.3-1.2-2l1.2-0.7L62.6,58
	c-0.1-0.4-0.1-0.7-0.1-1s0-0.7,0.1-1l0.1-0.7l-1.2-0.7c0.3-0.7,0.7-1.4,1.2-2l1.2,0.7l0.5-0.5c0.5-0.4,1.1-0.8,1.8-1l0.7-0.2v-1.4
	c0.8-0.1,1.6-0.1,2.4,0v1.4l0.7,0.2c0.6,0.2,1.2,0.6,1.8,1l0.5,0.5l1.2-0.7c0.5,0.6,0.9,1.3,1.2,2l-1.2,0.7l0.1,0.7
	c0.1,0.4,0.1,0.7,0.1,1s0,0.7-0.1,1l-0.1,0.7l1.2,0.7c-0.3,0.7-0.7,1.4-1.2,2l-1.2-0.7l-0.5,0.5c-0.5,0.4-1.1,0.8-1.8,1L69.2,62.5z"
	/>
</svg>
