<?xml version="1.0" encoding="utf-8"?>
<!-- Generator: Adobe Illustrator 17.1.0, SVG Export Plug-In . SVG Version: 6.00 Build 0)  -->
<!DOCTYPE svg PUBLIC "-//W3C//DTD SVG 1.1//EN" "http://www.w3.org/Graphics/SVG/1.1/DTD/svg11.dtd">
<svg version="1.1" id="Layer_1" xmlns="http://www.w3.org/2000/svg" xmlns:xlink="http://www.w3.org/1999/xlink" x="0px" y="0px"
	 viewBox="0 0 96 96" style="enable-background:new 0 0 96 96;" xml:space="preserve">
<style type="text/css">
	.st0{fill:#FF614A;}
</style>
<path class="st0" d="M48,0C21.5,0,0,21.5,0,48s21.5,48,48,48s48-21.5,48-48S74.5,0,48,0z M92,47H82c-0.5-18-15-32.5-33-33V4
	C72.5,4.6,91.4,23.5,92,47z M48,78c-7.9,0-15.1-3.1-20.5-8.1l8.5-8.5c3.2,2.9,7.4,4.6,12,4.6s8.8-1.8,12-4.6l8.5,8.5
	C63.1,74.9,55.9,78,48,78z M48,18c7.9,0,15.1,3.1,20.5,8.1L60,34.6c-3.2-2.9-7.4-4.6-12-4.6s-8.8,1.8-12,4.6l-8.5-8.5
	C32.9,21.1,40.1,18,48,18z M48,62c-7.7,0-14-6.3-14-14s6.3-14,14-14s14,6.3,14,14S55.7,62,48,62z M26.1,27.5l8.5,8.5
	c-2.9,3.2-4.6,7.4-4.6,12s1.8,8.8,4.6,12l-8.5,8.5C21.1,63.1,18,55.9,18,48S21.1,32.9,26.1,27.5z M69.9,68.5L61.4,60
	c2.9-3.2,4.6-7.4,4.6-12s-1.8-8.8-4.6-12l8.5-8.5c5,5.4,8.1,12.6,8.1,20.5S74.9,63.1,69.9,68.5z M47,4v10c-18,0.5-32.5,15-33,33H4
	C4.6,23.5,23.5,4.6,47,4z M4,49h10c0.5,18,15,32.5,33,33v10C23.5,91.4,4.6,72.5,4,49z M49,92V82c18-0.5,32.5-15,33-33h10
	C91.4,72.5,72.5,91.4,49,92z M54,48c0,3.3-2.7,6-6,6s-6-2.7-6-6s2.7-6,6-6S54,44.7,54,48z M0.3,1.7c-0.4-0.4-0.4-1,0-1.4
	s1-0.4,1.4,0l8,8c0.4,0.4,0.4,1,0,1.4C9.5,9.9,9.3,10,9,10S8.5,9.9,8.3,9.7L0.3,1.7z M86.3,9.7c-0.4-0.4-0.4-1,0-1.4l8-8
	c0.4-0.4,1-0.4,1.4,0s0.4,1,0,1.4l-8,8C87.5,9.9,87.3,10,87,10S86.5,9.9,86.3,9.7z M9.7,86.3c0.4,0.4,0.4,1,0,1.4l-8,8
	C1.5,95.9,1.3,96,1,96s-0.5-0.1-0.7-0.3c-0.4-0.4-0.4-1,0-1.4l8-8C8.7,85.9,9.3,85.9,9.7,86.3z M95.7,94.3c0.4,0.4,0.4,1,0,1.4
	C95.5,95.9,95.3,96,95,96s-0.5-0.1-0.7-0.3l-8-8c-0.4-0.4-0.4-1,0-1.4s1-0.4,1.4,0L95.7,94.3z"/>
</svg>
