<?xml version="1.0" encoding="utf-8"?>
<!-- Generator: Adobe Illustrator 17.1.0, SVG Export Plug-In . SVG Version: 6.00 Build 0)  -->
<!DOCTYPE svg PUBLIC "-//W3C//DTD SVG 1.1//EN" "http://www.w3.org/Graphics/SVG/1.1/DTD/svg11.dtd">
<svg version="1.1" id="Layer_1" xmlns="http://www.w3.org/2000/svg" xmlns:xlink="http://www.w3.org/1999/xlink" x="0px" y="0px"
	 viewBox="0 0 96 96" style="enable-background:new 0 0 96 96;" xml:space="preserve">
<style type="text/css">
	.st0{fill:#FF614A;}
</style>
<path class="st0" d="M0,0v18h6v64h37.2L32.6,92.6c-0.8,0.8-0.8,2,0,2.8C33,95.8,33.5,96,34,96s1-0.2,1.4-0.6L48,82.8l12.6,12.6
	C61,95.8,61.5,96,62,96s1-0.2,1.4-0.6c0.8-0.8,0.8-2,0-2.8L52.8,82H90V18h6V0H0z M10,78V16h76v62H10z M92,14h-4h-2H10H8H4V4h88V14z
	 M72.5,38.7C62.3,53.8,42.1,70,20,70c-1.1,0-2-0.9-2-2s0.9-2,2-2c21.1,0,40.4-15.9,49.8-30.4l-4.5,3.7c-0.4,0.3-0.8,0.4-1.3,0.4
	c-0.6,0-1.2-0.3-1.6-0.7c-0.7-0.9-0.6-2.1,0.3-2.8l12-9.8c0,0,0,0,0,0c0,0,0.1,0,0.1-0.1c0,0,0.1,0,0.1-0.1c0.1-0.1,0.2-0.1,0.3-0.1
	c0,0,0,0,0.1,0c0.1,0,0.2-0.1,0.3-0.1c0,0,0.1,0,0.1,0c0,0,0.1,0,0.1,0c0,0,0,0,0.1,0c0,0,0,0,0.1,0c0.1,0,0.1,0,0.2,0
	c0.1,0,0.1,0,0.2,0c0,0,0,0,0,0c0,0,0,0,0,0c0,0,0.1,0,0.1,0c0.1,0,0.1,0,0.2,0c0,0,0,0,0.1,0c0,0,0,0,0,0c0,0,0.1,0,0.1,0
	c0.1,0,0.1,0,0.2,0.1c0,0,0,0,0.1,0c0,0,0.1,0.1,0.1,0.1c0,0,0.1,0.1,0.1,0.1c0,0,0,0,0.1,0c0,0,0.1,0.1,0.1,0.1c0,0,0.1,0,0.1,0.1
	c0,0,0,0,0,0c0,0,0,0,0,0.1c0,0,0.1,0.1,0.1,0.2c0,0,0.1,0.1,0.1,0.1c0,0,0,0,0,0.1c0,0.1,0,0.1,0.1,0.2c0,0.1,0,0.1,0.1,0.2
	c0,0,0,0,0,0c0,0.1,0,0.1,0,0.2s0,0.1,0,0.2c0,0,0,0,0,0c0,0.1,0,0.1,0,0.2c0,0.1,0,0.1,0,0.2c0,0,0,0,0,0l-2.1,15
	c-0.1,1-1,1.7-2,1.7c-0.1,0-0.2,0-0.3,0c-1.1-0.1-1.9-1.2-1.7-2.3L72.5,38.7z M27,29h-9v20h9V29z M25,47h-5V31h5V47z M39,33h-9v16h9
	V33z M37,47h-5V35h5V47z M51,25h-9v24h9V25z M49,47h-5V27h5V47z M78.4,61.4L74.8,65l3.6,3.6c0.8,0.8,0.8,2,0,2.8
	C78,71.8,77.5,72,77,72s-1-0.2-1.4-0.6L72,67.8l-3.6,3.6C68,71.8,67.5,72,67,72s-1-0.2-1.4-0.6c-0.8-0.8-0.8-2,0-2.8l3.6-3.6
	l-3.6-3.6c-0.8-0.8-0.8-2,0-2.8s2-0.8,2.8,0l3.6,3.6l3.6-3.6c0.8-0.8,2-0.8,2.8,0S79.2,60.6,78.4,61.4z"/>
</svg>
