<?xml version="1.0" encoding="utf-8"?>
<!-- Generator: Adobe Illustrator 17.1.0, SVG Export Plug-In . SVG Version: 6.00 Build 0)  -->
<!DOCTYPE svg PUBLIC "-//W3C//DTD SVG 1.1//EN" "http://www.w3.org/Graphics/SVG/1.1/DTD/svg11.dtd">
<svg version="1.1" id="Layer_1" xmlns="http://www.w3.org/2000/svg" xmlns:xlink="http://www.w3.org/1999/xlink" x="0px" y="0px"
	 viewBox="0 0 96 96" style="enable-background:new 0 0 96 96;" xml:space="preserve">
<style type="text/css">
	.st0{fill:#FF614A;}
</style>
<path class="st0" d="M76,8h-7H57.8c-0.9-4.6-5-8-9.8-8s-8.9,3.4-9.8,8H27h-7C13.4,8,8,13.4,8,20v64c0,6.6,5.4,12,12,12h56
	c6.6,0,12-5.4,12-12V20C88,13.4,82.6,8,76,8z M48,4c2.6,0,4.8,1.7,5.7,4H42.3C43.2,5.7,45.4,4,48,4z M38,12h20h7v10H31V12H38z
	 M69,26v-7h5v64H22V19h5v7H69z M84,84c0,4.4-3.6,8-8,8H20c-4.4,0-8-3.6-8-8V20c0-4.4,3.6-8,8-8h7v5h-7v68h56V17h-7v-5h7
	c4.4,0,8,3.6,8,8V84z M27,32c0-0.6,0.4-1,1-1h36c0.6,0,1,0.4,1,1s-0.4,1-1,1H28C27.4,33,27,32.6,27,32z M46,39H28c-0.6,0-1-0.4-1-1
	s0.4-1,1-1h18c0.6,0,1,0.4,1,1S46.6,39,46,39z M57.4,55.6c0.8,0.8,0.8,2,0,2.8l-11,11C46,69.8,45.5,70,45,70s-1-0.2-1.4-0.6l-6-6
	c-0.8-0.8-0.8-2,0-2.8c0.8-0.8,2-0.8,2.8,0l4.6,4.6l9.6-9.6C55.4,54.8,56.6,54.8,57.4,55.6z M48,45c-9.4,0-17,7.6-17,17
	s7.6,17,17,17s17-7.6,17-17S57.4,45,48,45z M48,77c-8.3,0-15-6.7-15-15s6.7-15,15-15s15,6.7,15,15S56.3,77,48,77z"/>
</svg>
