<?xml version="1.0" encoding="utf-8"?>
<!-- Generator: Adobe Illustrator 17.1.0, SVG Export Plug-In . SVG Version: 6.00 Build 0)  -->
<!DOCTYPE svg PUBLIC "-//W3C//DTD SVG 1.1//EN" "http://www.w3.org/Graphics/SVG/1.1/DTD/svg11.dtd">
<svg version="1.1" id="Layer_1" xmlns="http://www.w3.org/2000/svg" xmlns:xlink="http://www.w3.org/1999/xlink" x="0px" y="0px"
	 viewBox="0 0 96 96" style="enable-background:new 0 0 96 96;" xml:space="preserve">
<style type="text/css">
	.st0{fill:#FF614C;}
</style>
<path class="st0" d="M80.5,22.3l2.5-2.5l2.6,2.6C86,22.8,86.5,23,87,23c0.5,0,1-0.2,1.4-0.6c0.8-0.8,0.8-2,0-2.8l-8-8
	c-0.8-0.8-2-0.8-2.8,0c-0.8,0.8-0.8,2,0,2.8l2.6,2.6l-2.5,2.5c-5.7-5.2-12.5-8.7-19.6-10.3C58.7,8.2,59,7.1,59,6c0-3.3-2.7-6-6-6H43
	c-3.3,0-6,2.7-6,6c0,1.1,0.3,2.2,0.9,3.1c-7.7,1.8-15,5.7-21,11.7c-17.2,17.2-17.2,45,0,62.2C25.5,91.7,36.7,96,48,96
	s22.5-4.3,31.1-12.9C95.8,66.4,96.3,39.6,80.5,22.3z M43,8c-1.1,0-2-0.9-2-2c0-1.1,0.9-2,2-2H53c1.1,0,2,0.9,2,2c0,1.1-0.9,2-2,2
	h-4.9c-0.1,0-0.1,0-0.2,0c-0.1,0-0.1,0-0.2,0H43z M76.3,80.3C68.7,87.8,58.7,92,48,92s-20.7-4.2-28.3-11.7C12.2,72.7,8,62.7,8,52
	c0-10.7,4.2-20.7,11.7-28.3C27.2,16.2,37.2,12,47.8,12h0.3c10.6,0,20.6,4.2,28.1,11.7C83.8,31.3,88,41.3,88,52
	C88,62.7,83.8,72.7,76.3,80.3z M61,59c-3.3,0-6,2.7-6,6s2.7,6,6,6s6-2.7,6-6S64.3,59,61,59z M61,67c-1.1,0-2-0.9-2-2
	c0-1.1,0.9-2,2-2s2,0.9,2,2C63,66.1,62.1,67,61,67z M77.9,58.6h-3.2c-0.4-0.8-0.8-1.6-1.3-2.3l1.6-2.8l-1.1-1.1
	c-2.3-2.4-5.3-4.1-8.5-4.9l-1.5-0.4L62.3,50c-0.9-0.1-1.8-0.1-2.7,0l-1.6-2.8l-1.5,0.4c-3.2,0.8-6.2,2.5-8.5,4.9L47,53.5l1.6,2.8
	c-0.5,0.7-1,1.5-1.3,2.3h-3.2l-0.4,1.5C43.2,61.7,43,63.3,43,65c0,1.7,0.2,3.3,0.7,4.9l0.4,1.5h3.2c0.4,0.8,0.8,1.6,1.3,2.3L47,76.5
	l1.1,1.1c2.3,2.4,5.3,4.1,8.5,4.9l1.5,0.4l1.6-2.8c0.9,0.1,1.8,0.1,2.7,0l1.6,2.8l1.5-0.4c3.2-0.8,6.2-2.5,8.5-4.9l1.1-1.1l-1.6-2.8
	c0.5-0.7,1-1.5,1.3-2.3h3.2l0.4-1.5c0.5-1.6,0.7-3.3,0.7-4.9c0-1.7-0.2-3.3-0.7-4.9L77.9,58.6z M74.8,67.4h-2.9l-0.5,1.3
	c-0.5,1.3-1.1,2.5-2,3.5l-0.9,1.1l1.4,2.5c-1.2,1-2.6,1.8-4.1,2.4l-1.4-2.5L63,75.9c-1.4,0.3-2.6,0.3-4.1,0l-1.4-0.3l-1.4,2.5
	c-1.5-0.5-2.9-1.3-4.1-2.4l1.4-2.5l-0.9-1.1c-0.9-1-1.6-2.2-2-3.5l-0.5-1.3h-2.9C47.1,66.6,47,65.8,47,65c0-0.8,0.1-1.6,0.2-2.4h2.9
	l0.5-1.3c0.5-1.3,1.1-2.5,2-3.5l0.9-1.1l-1.4-2.5c1.2-1,2.6-1.8,4.1-2.4l1.4,2.5l1.4-0.3c1.4-0.3,2.6-0.3,4,0l1.4,0.3l1.4-2.5
	c1.5,0.5,2.9,1.3,4.1,2.4l-1.4,2.5l0.9,1.1c0.9,1,1.6,2.2,2,3.5l0.5,1.3h2.9c0.1,0.8,0.2,1.6,0.2,2.4C75,65.8,74.9,66.6,74.8,67.4z
	 M49,82v3c0,0.6-0.4,1-1,1c-0.6,0-1-0.4-1-1v-3c0-0.6,0.4-1,1-1C48.6,81,49,81.4,49,82z M47,22v-3c0-0.6,0.4-1,1-1c0.6,0,1,0.4,1,1
	v3c0,0.6-0.4,1-1,1C47.4,23,47,22.5,47,22z M33.9,78.5l-1.5,2.6c-0.2,0.3-0.5,0.5-0.9,0.5c-0.2,0-0.3,0-0.5-0.1
	c-0.5-0.3-0.6-0.9-0.4-1.4l1.5-2.6c0.3-0.5,0.9-0.6,1.4-0.4C34,77.4,34.1,78,33.9,78.5z M62.1,25.5l1.5-2.6c0.3-0.5,0.9-0.6,1.4-0.4
	c0.5,0.3,0.6,0.9,0.4,1.4l-1.5,2.6C63.7,26.8,63.3,27,63,27c-0.2,0-0.3,0-0.5-0.1C62,26.6,61.9,26,62.1,25.5z M22.9,66.5
	c0.3,0.5,0.1,1.1-0.4,1.4l-2.6,1.5c-0.2,0.1-0.3,0.1-0.5,0.1c-0.3,0-0.7-0.2-0.9-0.5c-0.3-0.5-0.1-1.1,0.4-1.4l2.6-1.5
	C22,65.9,22.6,66,22.9,66.5z M73.1,37.5c-0.3-0.5-0.1-1.1,0.4-1.4l2.6-1.5c0.5-0.3,1.1-0.1,1.4,0.4c0.3,0.5,0.1,1.1-0.4,1.4
	l-2.6,1.5C74.3,38,74.2,38,74,38C73.6,38,73.3,37.8,73.1,37.5z M18,53h-3c-0.6,0-1-0.4-1-1s0.4-1,1-1h3c0.6,0,1,0.4,1,1
	S18.6,53,18,53z M82,52c0,0.6-0.4,1-1,1h-3c-0.6,0-1-0.4-1-1s0.4-1,1-1h3C81.6,51,82,51.4,82,52z M35,33c-3.3,0-6,2.7-6,6s2.7,6,6,6
	c3.3,0,6-2.7,6-6S38.3,33,35,33z M35,41c-1.1,0-2-0.9-2-2s0.9-2,2-2s2,0.9,2,2S36.1,41,35,41z M49,50.5l-1.6-2.8
	c0.5-0.7,1-1.5,1.3-2.3h3.2l0.4-1.5c0.5-1.6,0.7-3.3,0.7-4.9s-0.2-3.3-0.7-4.9l-0.4-1.5h-3.2c-0.4-0.8-0.8-1.6-1.3-2.3l1.6-2.8
	l-1.1-1.1c-2.3-2.4-5.3-4.1-8.5-4.9l-1.5-0.4L36.3,24c-0.9-0.1-1.8-0.1-2.7,0l-1.6-2.8l-1.5,0.4c-3.2,0.8-6.2,2.5-8.5,4.9L21,27.5
	l1.6,2.8c-0.5,0.7-1,1.5-1.3,2.3h-3.2l-0.4,1.5C17.2,35.7,17,37.3,17,39s0.2,3.3,0.7,4.9l0.4,1.5h3.2c0.4,0.8,0.8,1.6,1.3,2.3
	L21,50.5l1.1,1.1c2.3,2.4,5.3,4.1,8.5,4.9l1.5,0.4l1.6-2.8c0.9,0.1,1.8,0.1,2.7,0l1.6,2.8l1.5-0.4c3.2-0.8,6.2-2.5,8.5-4.9L49,50.5z
	 M45.4,42.7c-0.5,1.3-1.1,2.5-2,3.5l-0.9,1.1l1.4,2.5c-1.2,1-2.6,1.8-4.1,2.4l-1.4-2.5L37,49.9c-1.4,0.3-2.6,0.3-4.1,0l-1.4-0.3
	l-1.4,2.5c-1.5-0.5-2.9-1.3-4.1-2.4l1.4-2.5l-0.9-1.1c-0.9-1-1.6-2.2-2-3.5l-0.5-1.3h-2.9C21.1,40.6,21,39.8,21,39
	c0-0.8,0.1-1.6,0.2-2.4h2.9l0.5-1.3c0.5-1.3,1.1-2.5,2-3.5l0.9-1.1l-1.4-2.5c1.2-1,2.6-1.8,4.1-2.4l1.4,2.5l1.4-0.3
	c1.4-0.3,2.6-0.3,4.1,0l1.4,0.3l1.4-2.5c1.5,0.5,2.9,1.3,4.1,2.4l-1.4,2.5l0.9,1.1c0.9,1,1.6,2.2,2,3.5l0.5,1.3h2.9
	c0.1,0.8,0.2,1.6,0.2,2.4c0,0.8-0.1,1.6-0.2,2.4h-2.9L45.4,42.7z"/>
</svg>
