<?xml version="1.0" encoding="utf-8"?>
<!-- Generator: Adobe Illustrator 17.1.0, SVG Export Plug-In . SVG Version: 6.00 Build 0)  -->
<!DOCTYPE svg PUBLIC "-//W3C//DTD SVG 1.1//EN" "http://www.w3.org/Graphics/SVG/1.1/DTD/svg11.dtd">
<svg version="1.1" id="Layer_1" xmlns="http://www.w3.org/2000/svg" xmlns:xlink="http://www.w3.org/1999/xlink" x="0px" y="0px"
	 viewBox="0 0 96 96" style="enable-background:new 0 0 96 96;" xml:space="preserve">
<style type="text/css">
	.st0{fill:#FF614A;}
</style>
<path class="st0" d="M94,47.7l-8.5-8.5L71.8,52.9l5.2,5.2c-2.9,3.9-5.8,7.4-8.7,10.3c-2.9,2.9-6.3,5.8-10.3,8.7l-5.2-5.2L39.2,85.5
	l1.9,1.9l0,0l6.6,6.6c1.3,1.3,3,2,4.8,2c1.2,0,2.3-0.3,3.3-0.9c5.1-2.9,14.7-8.8,22.6-16.7c7.9-7.8,13.8-17.5,16.7-22.6
	C96.6,53.2,96.2,49.9,94,47.7z M91.6,53.9c-2.8,4.9-8.5,14.2-16,21.7c-7.5,7.5-16.8,13.3-21.7,16c-1.1,0.6-2.5,0.4-3.4-0.5l-4.7-4.7
	l0,0l-1-1l8-8l4.8,4.8l1.4-1c4.7-3.3,8.8-6.7,12.1-10.1c3.4-3.4,6.8-7.5,10.1-12.2l1-1.4l-4.8-4.8l8-8l5.7,5.7
	C92.1,51.4,92.3,52.8,91.6,53.9z M77.4,28.6l-28-28c-0.8-0.8-2-0.8-2.8,0l-46,46c-0.8,0.8-0.8,2,0,2.8l28,28C29,77.8,29.5,78,30,78
	c0.5,0,1-0.2,1.4-0.6l46-46C78.2,30.6,78.2,29.4,77.4,28.6z M48,4.8l3.7,3.7L40.4,40.4L8.5,51.7L4.8,48L48,4.8z M30,73.2L11.7,54.8
	l31-10.9c0.6-0.2,1-0.6,1.2-1.2l10.9-31L73.2,30L30,73.2z M79,10c0-0.6,0.4-1,1-1h5V4c0-0.6,0.4-1,1-1c0.6,0,1,0.4,1,1v5h5
	c0.6,0,1,0.4,1,1s-0.4,1-1,1h-5v5c0,0.6-0.4,1-1,1c-0.6,0-1-0.4-1-1v-5h-5C79.5,11,79,10.6,79,10z M5,10c0-0.6,0.4-1,1-1h3V6
	c0-0.6,0.4-1,1-1c0.6,0,1,0.4,1,1v3h3c0.6,0,1,0.4,1,1s-0.4,1-1,1h-3v3c0,0.6-0.4,1-1,1c-0.6,0-1-0.4-1-1v-3H6C5.4,11,5,10.6,5,10z
	 M17,86c0,0.6-0.4,1-1,1h-5v5c0,0.6-0.4,1-1,1c-0.6,0-1-0.4-1-1v-5H4c-0.6,0-1-0.4-1-1s0.4-1,1-1h5v-5c0-0.6,0.4-1,1-1
	c0.6,0,1,0.4,1,1v5h5C16.5,85,17,85.5,17,86z"/>
</svg>
