<?xml version="1.0" encoding="utf-8"?>
<!-- Generator: Adobe Illustrator 17.1.0, SVG Export Plug-In . SVG Version: 6.00 Build 0)  -->
<!DOCTYPE svg PUBLIC "-//W3C//DTD SVG 1.1//EN" "http://www.w3.org/Graphics/SVG/1.1/DTD/svg11.dtd">
<svg version="1.1" id="Layer_1" xmlns="http://www.w3.org/2000/svg" xmlns:xlink="http://www.w3.org/1999/xlink" x="0px" y="0px"
	 viewBox="0 0 96 96" style="enable-background:new 0 0 96 96;" xml:space="preserve">
<style type="text/css">
	.st0{fill:#FF614A;}
</style>
<path class="st0" d="M95.4,41.6l-5-5c-0.8-0.8-2-0.8-2.8,0L78,46.2V2c0-1.1-0.9-2-2-2H2C0.9,0,0,0.9,0,2v92c0,1.1,0.9,2,2,2h74
	c1.1,0,2-0.9,2-2V61.8l17.4-17.4C96.2,43.6,96.2,42.4,95.4,41.6z M74.6,59.6C74.6,59.6,74.6,59.6,74.6,59.6L57.3,76.9l-2.2-2.2
	l22.3-22.3c0,0,0,0,0,0l8.3-8.3l2.2,2.2L74.6,59.6z M52.8,77l0.9-0.9l2.2,2.2L55,79.2l-3,0.9L52.8,77z M74,92H4V4h70v46.2L49.6,74.6
	c-0.2,0.2-0.4,0.5-0.5,0.9l-2,7c-0.2,0.7,0,1.5,0.5,2C48,84.8,48.5,85,49,85c0.2,0,0.4,0,0.5-0.1l7-2c0.3-0.1,0.6-0.3,0.9-0.5
	L74,65.8V92z M89.3,44.9l-2.2-2.2l1.9-1.9l2.2,2.2L89.3,44.9z M13,18c0-0.6,0.4-1,1-1h46c0.6,0,1,0.4,1,1s-0.4,1-1,1H14
	C13.4,19,13,18.6,13,18z M13,26c0-0.6,0.4-1,1-1h40c0.6,0,1,0.4,1,1s-0.4,1-1,1H14C13.4,27,13,26.6,13,26z M13,34c0-0.6,0.4-1,1-1
	h46c0.6,0,1,0.4,1,1s-0.4,1-1,1H14C13.4,35,13,34.6,13,34z M43,42c0,0.6-0.4,1-1,1H14c-0.6,0-1-0.4-1-1s0.4-1,1-1h28
	C42.6,41,43,41.4,43,42z M31,84c0,0.6-0.4,1-1,1H14c-0.6,0-1-0.4-1-1s0.4-1,1-1h16C30.6,83,31,83.4,31,84z M22,55
	c-5.5,0-10,4.5-10,10s4.5,10,10,10s10-4.5,10-10S27.5,55,22,55z M22,71c-3.3,0-6-2.7-6-6s2.7-6,6-6s6,2.7,6,6S25.3,71,22,71z M22,60
	c-2.8,0-5,2.2-5,5s2.2,5,5,5s5-2.2,5-5S24.8,60,22,60z M22,68c-1.7,0-3-1.3-3-3s1.3-3,3-3s3,1.3,3,3S23.7,68,22,68z"/>
</svg>
