<?xml version="1.0" encoding="utf-8"?>
<!-- Generator: Adobe Illustrator 17.1.0, SVG Export Plug-In . SVG Version: 6.00 Build 0)  -->
<!DOCTYPE svg PUBLIC "-//W3C//DTD SVG 1.1//EN" "http://www.w3.org/Graphics/SVG/1.1/DTD/svg11.dtd">
<svg version="1.1" id="Layer_1" xmlns="http://www.w3.org/2000/svg" xmlns:xlink="http://www.w3.org/1999/xlink" x="0px" y="0px"
	 viewBox="0 0 96 96" style="enable-background:new 0 0 96 96;" xml:space="preserve">
<style type="text/css">
	.st0{fill:#FF614A;}
</style>
<path class="st0" d="M82.2,15.4L68.6,1.8C67.5,0.6,65.9,0,64.3,0H18c-3.3,0-6,2.7-6,6v84c0,3.3,2.7,6,6,6h60c3.3,0,6-2.7,6-6V19.7
	C84,18.1,83.4,16.5,82.2,15.4z M77.2,16H68V6.8L77.2,16z M78,92H18c-1.1,0-2-0.9-2-2V6c0-1.1,0.9-2,2-2h46v14c0,1.1,0.9,2,2,2h14v70
	C80,91.1,79.1,92,78,92z M22,14c0-1.1,0.9-2,2-2h16c1.1,0,2,0.9,2,2s-0.9,2-2,2H24C22.9,16,22,15.1,22,14z M74,54c0,1.1-0.9,2-2,2
	H24c-1.1,0-2-0.9-2-2s0.9-2,2-2h48C73.1,52,74,52.9,74,54z M74,62c0,1.1-0.9,2-2,2H24c-1.1,0-2-0.9-2-2s0.9-2,2-2h48
	C73.1,60,74,60.9,74,62z M22,22c0-1.1,0.9-2,2-2h8c1.1,0,2,0.9,2,2s-0.9,2-2,2h-8C22.9,24,22,23.1,22,22z M54,78c0,1.1-0.9,2-2,2h-8
	c-1.1,0-2-0.9-2-2s0.9-2,2-2h8C53.1,76,54,76.9,54,78z M24,48h20c1.1,0,2-0.9,2-2V34c0-1.1-0.9-2-2-2H24c-1.1,0-2,0.9-2,2v12
	C22,47.1,22.9,48,24,48z M26,36h16v8H26V36z M72,32H52c-1.1,0-2,0.9-2,2v12c0,1.1,0.9,2,2,2h20c1.1,0,2-0.9,2-2V34
	C74,32.9,73.1,32,72,32z M70,44H54v-8h16V44z M30,70c-4.4,0-8,3.6-8,8s3.6,8,8,8s8-3.6,8-8S34.4,70,30,70z M30,82c-2.2,0-4-1.8-4-4
	s1.8-4,4-4s4,1.8,4,4S32.2,82,30,82z"/>
</svg>
