<?xml version="1.0" encoding="utf-8"?>
<!-- Generator: Adobe Illustrator 17.1.0, SVG Export Plug-In . SVG Version: 6.00 Build 0)  -->
<!DOCTYPE svg PUBLIC "-//W3C//DTD SVG 1.1//EN" "http://www.w3.org/Graphics/SVG/1.1/DTD/svg11.dtd">
<svg version="1.1" id="Layer_1" xmlns="http://www.w3.org/2000/svg" xmlns:xlink="http://www.w3.org/1999/xlink" x="0px" y="0px"
	 viewBox="0 0 96 96" style="enable-background:new 0 0 96 96;" xml:space="preserve">
<style type="text/css">
	.st0{fill:#FF6148;}
</style>
<g>
	<path class="st0" d="M88.8,22.8l-2.9,2.9C89.8,32.3,92,39.9,92,48c0,24.3-19.7,44-44,44S4,72.3,4,48S23.7,4,48,4
		c8.1,0,15.7,2.2,22.3,6.1l2.9-2.9C65.9,2.6,57.2,0,48,0C21.5,0,0,21.5,0,48s21.5,48,48,48s48-21.5,48-48
		C96,38.8,93.4,30.1,88.8,22.8z"/>
	<path class="st0" d="M72,12v9.2l-7,7V28c0-1.1-0.9-2-2-2s-2,0.9-2,2v4.2L46.6,46.6c-0.8,0.8-0.8,2,0,2.8C47,49.8,47.5,50,48,50
		s1-0.2,1.4-0.6L63.8,35H68c1.1,0,2-0.9,2-2s-0.9-2-2-2h-0.2l7-7H84c0.5,0,1-0.2,1.4-0.6l10-10c0.6-0.6,0.7-1.4,0.4-2.2
		c-0.3-0.7-1-1.2-1.8-1.2h-8V2c0-0.8-0.5-1.5-1.2-1.8C84-0.2,83.2,0,82.6,0.6l-10,10C72.2,11,72,11.5,72,12z M89.2,14l-6,6h-4.3l6-6
		H89.2z M82,6.8v4.3l-6,6v-4.3L82,6.8z"/>
	<path class="st0" d="M68.3,22c-5.6-4.4-12.7-7-20.3-7c-18.2,0-33,14.8-33,33s14.8,33,33,33s33-14.8,33-33c0-7.7-2.6-14.7-7-20.3
		l-1.4,1.4c4,5.2,6.4,11.8,6.4,18.9c0,17.1-13.9,31-31,31c-17.1,0-31-13.9-31-31c0-17.1,13.9-31,31-31c7.1,0,13.7,2.4,18.9,6.4
		L68.3,22z"/>
	<path class="st0" d="M48,33c2.7,0,5.2,0.7,7.4,2l1.5-1.5C54.3,31.9,51.2,31,48,31c-9.4,0-17,7.6-17,17s7.6,17,17,17s17-7.6,17-17
		c0-3.2-0.9-6.3-2.5-8.8L61,40.6c1.2,2.2,2,4.7,2,7.4c0,8.3-6.7,15-15,15c-8.3,0-15-6.7-15-15C33,39.7,39.7,33,48,33z"/>
</g>
</svg>
