<?xml version="1.0" encoding="utf-8"?>
<!-- Generator: Adobe Illustrator 21.1.0, SVG Export Plug-In . SVG Version: 6.00 Build 0)  -->
<svg version="1.1" id="Layer_1" xmlns="http://www.w3.org/2000/svg" xmlns:xlink="http://www.w3.org/1999/xlink" x="0px" y="0px"
	 viewBox="0 0 64 64" style="enable-background:new 0 0 64 64;" xml:space="preserve">
<style type="text/css">
	.st0{fill:#FF614C;}
</style>
<path class="st0" d="M62,0H2C0.9,0,0,0.9,0,2v10c0,0.5,0.2,1,0.5,1.4L24,38.8V62c0,0.8,0.4,1.5,1.2,1.8c0.3,0.1,0.6,0.2,0.8,0.2
	c0.5,0,0.9-0.2,1.3-0.5l12-10c0.5-0.4,0.7-0.9,0.7-1.5V38.8l23.5-25.4C63.8,13,64,12.5,64,12V2C64,0.9,63.1,0,62,0z M60,4v5H4V4H60z
	 M36.5,36.6C36.2,37,36,37.5,36,38v13.1l-8,6.7V38c0-0.5-0.2-1-0.5-1.4L4,11.2V11h56v0.2L36.5,36.6z"/>
</svg>
