<svg id="Layer_1" data-name="Layer 1" xmlns="http://www.w3.org/2000/svg" viewBox="0 0 125.02 122.7"><defs><style>.cls-1{fill:#ff614c;}</style></defs><title>service2</title><path class="cls-1" d="M43.4,125.3a10.42,10.42,0,0,1-9.1-5.2l-7.7-13.4-1.3.8a10.21,10.21,0,0,1-5.3,1.4,10.42,10.42,0,0,1-9.1-5.2l-8-13.9A10.63,10.63,0,0,1,6.8,75.4l15.8-9.1A61,61,0,0,0,44.7,44.4L53.1,30a4.47,4.47,0,0,1,7.7,0L71.5,48.6a9.86,9.86,0,0,1,2.4-.3A9.37,9.37,0,0,1,82.1,53a9.49,9.49,0,0,1,.9,7.2,9,9,0,0,1-2.5,4.3L91.4,83.2A4.55,4.55,0,0,1,87.6,90l-16.5.2a64.16,64.16,0,0,0-15.8,2.3,11.55,11.55,0,0,1-.3,5.2,12.59,12.59,0,0,1-3.7,6.1l2.9,4.9a10.64,10.64,0,0,1,1.1,8,10.52,10.52,0,0,1-4.9,6.4l-1.7,1A12.9,12.9,0,0,1,43.4,125.3Zm-4.8-7.5a5.5,5.5,0,0,0,4.8,2.7,7.22,7.22,0,0,0,2.8-.7l1.7-1a5.67,5.67,0,0,0,2-7.6L42.2,97.8c-.1,0-.1.1-.2.1a4.35,4.35,0,0,0-.7.4l-1.9,1-8.5,4.9ZM37.4,61.4a61.22,61.22,0,0,1-12.3,9.1L9.3,79.7A5.66,5.66,0,0,0,6.7,83a5.16,5.16,0,0,0,.6,4.2l8,13.9a5.5,5.5,0,0,0,4.8,2.7,7.22,7.22,0,0,0,2.8-.7l1.7-1,15.6-9,.1-.1c.1-.1.3-.1.5-.2a64.21,64.21,0,0,1,12.1-5ZM48.6,99.3a6.24,6.24,0,0,0,1.5-2.9,7.1,7.1,0,0,0,.4-2.4c-1.3.5-2.7,1-4,1.6Zm7-12.2a72.2,72.2,0,0,1,15.4-2l8.7-.1L53.5,39.4,49,47a64.49,64.49,0,0,1-9.4,12.3ZM83.3,85l3.5-.1L57,33.5l-1.7,2.9ZM79.2,61.8a7,7,0,0,0,1.1-2.3,6.09,6.09,0,0,0-.7-4.9A6.5,6.5,0,0,0,74,51.4a2,2,0,0,0-.8.1Zm42.7,21.7a1.08,1.08,0,0,1-.7-.2,2.48,2.48,0,0,1-1.5-1.2,2.29,2.29,0,0,1-.2-1.8,59.48,59.48,0,0,0-42-72.8A2.29,2.29,0,0,1,76,6.3a2.29,2.29,0,0,1-.2-1.8,2.35,2.35,0,0,1,2.3-1.9,1.27,1.27,0,0,1,.6.1,64.31,64.31,0,0,1,45.6,78.9A2.46,2.46,0,0,1,121.9,83.5Zm-15.5-4.2c-.2,0-.3,0-.4-.1h-.1a2.26,2.26,0,0,1-1.5-1,2.36,2.36,0,0,1-.3-2A43.65,43.65,0,0,0,73.3,22.9a2.52,2.52,0,0,1-1.5-1,2.36,2.36,0,0,1-.3-2,2.19,2.19,0,0,1,2.3-1.8,1.7,1.7,0,0,1,.7.1,48.36,48.36,0,0,1,29.4,22.5,47.85,47.85,0,0,1,4.8,36.8A2.29,2.29,0,0,1,106.4,79.3Z" transform="translate(-1.49 -2.6)"/><path class="cls-1" d="M123.8,81.5a1.93,1.93,0,0,1-1.9,1.5.9.9,0,0,1-.5-.1,1.94,1.94,0,0,1-1.4-2.4A60.08,60.08,0,0,0,77.6,7a1.94,1.94,0,0,1-1.4-2.4,2,2,0,0,1,2.4-1.4,63.77,63.77,0,0,1,45.2,78.3ZM74.4,18.6A1.86,1.86,0,0,0,72,20a1.86,1.86,0,0,0,1.4,2.4,44,44,0,0,1,31.1,53.9,1.86,1.86,0,0,0,1.4,2.4c.2,0,.3.1.5.1a1.93,1.93,0,0,0,1.9-1.5A47.91,47.91,0,0,0,74.4,18.6ZM91.1,83.4a4.07,4.07,0,0,1,0,4,4,4,0,0,1-3.4,2l-16.5.2A64.36,64.36,0,0,0,54.8,92a11,11,0,0,1-.2,5.4,12,12,0,0,1-3.9,6.1l3.1,5.3a10,10,0,0,1-3.7,13.7l-1.7,1a9.58,9.58,0,0,1-5,1.3,10,10,0,0,1-8.7-5l-8-13.9L25,107a9.58,9.58,0,0,1-5,1.3,10,10,0,0,1-8.7-5l-8-13.9a10.07,10.07,0,0,1-1-7.6A9.9,9.9,0,0,1,7,75.7l15.8-9.1A62.15,62.15,0,0,0,45.1,44.5l8.4-14.2a4,4,0,0,1,3.4-2,4.06,4.06,0,0,1,3.5,2L71.3,49.2A9,9,0,0,1,82.6,60.1,8.37,8.37,0,0,1,80,64.4ZM72.4,51.1l6.7,11.6a6.91,6.91,0,0,0,1.7-3,7,7,0,0,0-8.4-8.6ZM24.7,102.6h0l15.6-9c.2-.1.3-.2.5-.2a66.5,66.5,0,0,1,12.7-5.2l-16-27.6a61.91,61.91,0,0,1-12.7,9.5L9,79.3a5.92,5.92,0,0,0-2.8,3.6,6.19,6.19,0,0,0,.6,4.6l8,13.9a6,6,0,0,0,5.2,3,6.41,6.41,0,0,0,3-.8Zm25.6,8.3-8-13.8c-.5.3-1,.5-1.4.8l-1.8,1-8.9,5.2,8,13.9a6,6,0,0,0,5.2,3,6.41,6.41,0,0,0,3-.8l1.7-1A6.24,6.24,0,0,0,50.3,110.9Zm.6-17.6a54.86,54.86,0,0,0-5.1,2.1l2.7,4.7a7.33,7.33,0,0,0,2.1-3.6A6,6,0,0,0,50.9,93.3Zm29.8-7.8L53.5,38.4l-4.9,8.3A62,62,0,0,1,39,59.2L55.4,87.7a69,69,0,0,1,15.7-2.1Zm6.9-.1L57,32.5l-2.3,3.9L83,85.5Z" transform="translate(-1.49 -2.6)"/></svg>