<svg id="Layer_1" data-name="Layer 1" xmlns="http://www.w3.org/2000/svg" viewBox="0 0 64 64"><defs><style>.cls-1{fill:#ff614a;}</style></defs><title>advantage_2_1</title><path class="cls-1" d="M56,0H8A8,8,0,0,0,0,8V56a8,8,0,0,0,8,8H56a8,8,0,0,0,8-8V8A8,8,0,0,0,56,0Zm4,37H52a2,2,0,0,1-2-2V29a2,2,0,0,1,2-2h8ZM52,25a4,4,0,0,0-4,4v6a4,4,0,0,0,4,4h8V56a4,4,0,0,1-4,4H8a4,4,0,0,1-4-4V8A4,4,0,0,1,8,4H56a4,4,0,0,1,4,4V25ZM32.6,20H24.1V30.1H21.8v3.4h2.3v2.2H21.8v2.9h2.3V44h4.4V38.6h8.4V35.7H28.5V33.5h4c4.5,0,7.8-2.4,7.8-6.6S37.6,20,32.6,20Zm-.8,10.1H28.5V23.4h3.4c2.5,0,3.9,1.4,3.9,3.3S34.4,30.1,31.8,30.1ZM52,32a2,2,0,1,1,2,2A2,2,0,0,1,52,32Z"/></svg>