<?xml version="1.0" encoding="utf-8"?>
<!-- Generator: Adobe Illustrator 17.1.0, SVG Export Plug-In . SVG Version: 6.00 Build 0)  -->
<!DOCTYPE svg PUBLIC "-//W3C//DTD SVG 1.1//EN" "http://www.w3.org/Graphics/SVG/1.1/DTD/svg11.dtd">
<svg version="1.1" id="Layer_1" xmlns="http://www.w3.org/2000/svg" xmlns:xlink="http://www.w3.org/1999/xlink" x="0px" y="0px"
	 viewBox="0 0 64 64" style="enable-background:new 0 0 64 64;" xml:space="preserve">
<style type="text/css">
	.st0{fill:#FF614A;}
</style>
<path class="st0" d="M64,30h-4.1C58.9,16.2,47.8,5.1,34,4.1V0h-4v4.1C16.2,5.1,5.1,16.2,4.1,30H0v4h4.1c1,13.8,12.1,24.9,25.9,25.9
	V64h4v-4.1c13.8-1,24.9-12.1,25.9-25.9H64V30z M55.9,30h-3C52,20,44,12,34,11.1v-3C45.6,9.1,54.9,18.4,55.9,30z M50.9,34
	c-0.9,8.9-8,16-16.9,16.9V46h-4v4.9c-8.9-0.9-16-8-16.9-16.9H18v-4h-4.9c0.9-8.9,8-16,16.9-16.9V18h4v-4.9c8.9,0.9,16,8,16.9,16.9
	H46v4H50.9z M30,8.1v3C20,12,12,20,11.1,30h-3C9.1,18.4,18.4,9.1,30,8.1z M8.1,34h3C12,44,20,52,30,52.9v3
	C18.4,54.9,9.1,45.6,8.1,34z M34,55.9v-3C44,52,52,44,52.9,34h3C54.9,45.6,45.6,54.9,34,55.9z M36,32c0,2.2-1.8,4-4,4s-4-1.8-4-4
	c0-2.2,1.8-4,4-4S36,29.8,36,32z"/>
</svg>
