<svg xmlns="http://www.w3.org/2000/svg" width="29" height="40" viewBox="0 0 29 40">
  <metadata><?xpacket begin="﻿" id="W5M0MpCehiHzreSzNTczkc9d"?>
<x:xmpmeta xmlns:x="adobe:ns:meta/" x:xmptk="Adobe XMP Core 5.6-c138 79.159824, 2016/09/14-01:09:01        ">
   <rdf:RDF xmlns:rdf="http://www.w3.org/1999/02/22-rdf-syntax-ns#">
      <rdf:Description rdf:about=""/>
   </rdf:RDF>
</x:xmpmeta>
                                                                                                    
                                                                                                    
                                                                                                    
                                                                                                    
                                                                                                    
                                                                                                    
                                                                                                    
                                                                                                    
                                                                                                    
                                                                                                    
                                                                                                    
                                                                                                    
                                                                                                    
                                                                                                    
                                                                                                    
                                                                                                    
                                                                                                    
                                                                                                    
                                                                                                    
                                                                                                    
                           
<?xpacket end="w"?></metadata>
<defs>
    <style>
      .cls-1 {
        fill: #ff6148;
        stroke: #ff6148;
        stroke-width: 1px;
        fill-rule: evenodd;
      }
    </style>
  </defs>
  <path class="cls-1" d="M24.611,27.4v0a5.727,5.727,0,0,0-1.142-.6l-3.321-1.429-2.341-1.595a0.683,0.683,0,0,0-.07-0.041V22.7a6.3,6.3,0,0,0,3.325-4.781,2.835,2.835,0,0,0,2.55-2.856,2.908,2.908,0,0,0-.726-1.93V9.464a8.27,8.27,0,0,0-8.127-8.39H14.13A8.271,8.271,0,0,0,6,9.464v3.626a2.907,2.907,0,0,0-.764,1.971,2.835,2.835,0,0,0,2.55,2.856,6.3,6.3,0,0,0,3.326,4.78v0.967L8.674,25.326a0.536,0.536,0,0,0-.1.032L5.237,26.793a6.49,6.49,0,0,0-2.123,1.4A7.221,7.221,0,0,0,1,33.547V38.4a0.593,0.593,0,0,0,.583.6h9.33a0.6,0.6,0,0,0,0-1.2H6.677v-4.47a0.584,0.584,0,1,0-1.167,0V37.8H2.167V33.547a5.717,5.717,0,0,1,3.465-5.618l0.039-.016,2.782-1.2L11.459,37.8H10.3a0.6,0.6,0,0,0,0,1.2H27.122a0.593,0.593,0,0,0,.583-0.6V33.547A7.078,7.078,0,0,0,24.611,27.4Zm-5.405-1.234-1.757,3.727-2.18-1.656,2.3-2.469a1.245,1.245,0,0,0,.163-0.572V25.167Zm-3.544,3.865L15.2,31.293H13.632l-0.516-1.272,1.265-.961ZM12.273,25.3a0.647,0.647,0,0,0,.009-0.1v-1.2h0V23.151a5.935,5.935,0,0,0,1.546.206h1.2a5.935,5.935,0,0,0,1.546-.206v1.958L14.4,27.436ZM22.446,15.061A1.649,1.649,0,0,1,21.119,16.7V13.426A1.651,1.651,0,0,1,22.446,15.061ZM7.732,16.7a1.67,1.67,0,0,1,0-3.269V16.7Zm0.586-5.079h0a0.407,0.407,0,0,0-.06,0l-0.018,0-0.04.007-0.025.007-0.031.008-0.028.01-0.026.01-0.031.016a0.212,0.212,0,0,0-.02.01l-0.029.018-0.019.011-0.027.021-0.018.014c-0.008.006-.015,0.015-0.023,0.022L7.9,11.792l-0.02.023-0.018.019-0.017.024a0.224,0.224,0,0,0-.016.022,0.262,0.262,0,0,0-.014.025L7.8,11.93c0,0.008-.007.017-0.011,0.024l-0.013.03c0,0.007-.006.016-0.009,0.024s-0.008.02-.011,0.03,0,0.016-.006.025-0.006.022-.008,0.033,0,0.017,0,.027,0,0.021,0,.033,0,0.019,0,.028,0,0.017,0,.026a2.632,2.632,0,0,0-.563.121V9.464a7.084,7.084,0,0,1,6.96-7.186h0.629a7.084,7.084,0,0,1,6.961,7.186v2.881a2.694,2.694,0,0,0-.6-0.134s0-.006,0-0.008,0-.027,0-0.039,0-.016,0-0.024,0-.023-0.005-0.034,0-.019-0.006-0.028,0-.019-0.007-0.028l-0.01-.031c0-.007-0.005-0.016-0.008-0.022s-0.009-.022-0.014-0.032-0.006-.014-0.009-0.021l-0.017-.031-0.012-.019-0.018-.027-0.015-.021-0.019-.022L20.954,11.8c-0.006-.007-0.012-0.013-0.019-0.019l-0.023-.021-0.02-.016-0.025-.019a0.159,0.159,0,0,0-.022-0.014l-0.026-.016-0.026-.014-0.024-.012-0.032-.013-0.021-.008-0.037-.011-0.016,0c-2.283-.536-2.972-3.5-2.978-3.533a0.594,0.594,0,0,0-.452-0.457,0.576,0.576,0,0,0-.59.237c-2.594,3.7-8.235,3.739-8.327,3.739h0ZM8.9,17.064V12.8c1.491-.094,5.454-0.607,8-3.36a5.529,5.529,0,0,0,3.051,3.232v4.393a5.016,5.016,0,0,1-4.929,5.089h-1.2A5.017,5.017,0,0,1,8.9,17.064Zm2.216,8.042V25.2a0.612,0.612,0,0,0,.028.182,0.617,0.617,0,0,0,.149.613l2.221,2.232-2.2,1.669L9.558,26.167ZM12.074,35.6L10.93,31.384a0.192,0.192,0,0,1,.027.009,0.6,0.6,0,0,0,.14.016,0.577,0.577,0,0,0,.346-0.116l0.707-.538,0.492,1.212Zm0.838,2.2,0.828-5.3h1.37l0.828,5.3H12.913Zm3.3-5.841,0.43-1.181,0.683,0.52a0.577,0.577,0,0,0,.346.116,0.6,0.6,0,0,0,.14-0.016,0.63,0.63,0,0,0,.137-0.056l-1.163,4.285ZM26.539,37.8H23.195v-4.47a0.584,0.584,0,1,0-1.167,0V37.8H17.4l2.99-11.02,2.642,1.137,0.037,0.014a4.589,4.589,0,0,1,.9.483h0a5.836,5.836,0,0,1,2.563,5.137V37.8ZM15.108,17.615a0.6,0.6,0,0,0,0-1.2H14.678V15.016a0.584,0.584,0,1,0-1.167,0v2a0.592,0.592,0,0,0,.583.6h1.014Z"/>
</svg>
