<svg xmlns="http://www.w3.org/2000/svg" width="88" height="87" viewBox="0 0 88 87">
  <metadata><?xpacket begin="﻿" id="W5M0MpCehiHzreSzNTczkc9d"?>
<x:xmpmeta xmlns:x="adobe:ns:meta/" x:xmptk="Adobe XMP Core 5.6-c138 79.159824, 2016/09/14-01:09:01        ">
   <rdf:RDF xmlns:rdf="http://www.w3.org/1999/02/22-rdf-syntax-ns#">
      <rdf:Description rdf:about=""/>
   </rdf:RDF>
</x:xmpmeta>
                                                                                                    
                                                                                                    
                                                                                                    
                                                                                                    
                                                                                                    
                                                                                                    
                                                                                                    
                                                                                                    
                                                                                                    
                                                                                                    
                                                                                                    
                                                                                                    
                                                                                                    
                                                                                                    
                                                                                                    
                                                                                                    
                                                                                                    
                                                                                                    
                                                                                                    
                                                                                                    
                           
<?xpacket end="w"?></metadata>
<defs>
    <style>
      .cls-1 {
        fill: #ff6148;
        fill-rule: evenodd;
      }
    </style>
  </defs>
  <path class="cls-1" d="M77.128,73.294l-0.062-.025a44,44,0,1,0-66.226-.079l-0.26.1a7.712,7.712,0,0,0-4.866,7.484V85.64A1.356,1.356,0,0,0,7.067,87H26.985a1.253,1.253,0,0,0,.192-0.015,1.254,1.254,0,0,0,.192.015H80.635a1.363,1.363,0,0,0,1.353-1.367V80.775A7.711,7.711,0,0,0,77.128,73.294Zm-8.98-4.7H66.914a4.349,4.349,0,0,1-4.336-4.352V60.645a13.961,13.961,0,0,0,7.291-2.826,6.1,6.1,0,0,0,2.616,2.516v3.9A4.349,4.349,0,0,1,68.148,68.59Zm0.845,2.662V72l-1.508,1.57-1.417-1.385V71.252a7.041,7.041,0,0,0,.845.054h1.234A7.043,7.043,0,0,0,68.994,71.252ZM52.541,42.642h0a11.028,11.028,0,0,0-7.347-3.626V27.34a121.751,121.751,0,0,0,18.758-1.585,65.867,65.867,0,0,1,2.443,16.887H52.541Zm1.913,14.179A1.747,1.747,0,0,1,53.185,58.5V55.142A1.749,1.749,0,0,1,54.454,56.821Zm-9.737,7.834H43.174a5.778,5.778,0,0,1-5.762-5.782V54.079c2.16-.2,6.43-0.953,9.549-3.762a7.39,7.39,0,0,0,3.518,3.454v5.1A5.778,5.778,0,0,1,44.718,64.655Zm1.4,2.6v1.469L43.9,71.033l-2.119-2.071V67.254a8.4,8.4,0,0,0,1.4.117h1.544A8.551,8.551,0,0,0,46.113,67.255Zm2.628-19.766a1.352,1.352,0,0,0-2.416-.5c-3.169,4.4-10.169,4.441-10.261,4.441H36.059c-0.047,0-.093,0-0.138.007l-0.042.007a0.93,0.93,0,0,0-.092.015c-0.019,0-.038.009-0.057,0.013s-0.049.011-.072,0.019-0.043.016-.064,0.024-0.04.013-.059,0.022-0.048.022-.072,0.034-0.031.013-.046,0.022-0.047.028-.071,0.042l-0.041.025c-0.022.015-.042,0.031-0.063,0.048l-0.041.031-0.036.033V50.083a8.383,8.383,0,0,1,8.359-8.388h0.809a8.383,8.383,0,0,1,8.359,8.388v1.66l-0.028-.021c-0.02-.016-0.039-0.031-0.06-0.045l-0.049-.032-0.061-.037-0.059-.031-0.057-.027L52.3,51.521,52.253,51.5c-0.027-.008-0.055-0.016-0.083-0.023a0.33,0.33,0,0,0-.037-0.01C49.562,50.882,48.748,47.519,48.741,47.489ZM21.283,42.642h0a65.862,65.862,0,0,1,2.444-16.889A121.812,121.812,0,0,0,42.484,27.34V39.03a11.033,11.033,0,0,0-7.174,3.62,1.426,1.426,0,0,0-.15-0.008H21.283ZM34.705,55.128v3.387A1.745,1.745,0,0,1,34.705,55.128ZM20.94,68.59H19.705a4.349,4.349,0,0,1-4.336-4.352V60.646a13.949,13.949,0,0,0,7.29-2.827,6.1,6.1,0,0,0,2.616,2.516v3.9A4.349,4.349,0,0,1,20.94,68.59Zm0.845,2.662V72l-1.508,1.57L18.86,72.189V71.252a7.207,7.207,0,0,0,.845.053H20.94A7.037,7.037,0,0,0,21.784,71.252Zm60.968-37.1c0.088,0.343.16,0.691,0.239,1.037,0.126,0.564.248,1.129,0.349,1.7,0.03,0.161.059,0.321,0.086,0.482a40.473,40.473,0,0,1,.529,5.273H69.1a68.756,68.756,0,0,0-2.479-17.377,60.409,60.409,0,0,0,10.829-3.106,40.04,40.04,0,0,1,5.265,11.847C82.725,34.055,82.741,34.1,82.753,34.15ZM75.841,19.877a59.656,59.656,0,0,1-10.024,2.785,48.627,48.627,0,0,0-3.893-8.787,31.574,31.574,0,0,0-6.57-8.218A40.146,40.146,0,0,1,75.841,19.877ZM45.19,4.03c0.613,0.018,1.221.051,1.827,0.1,4.7,1.2,9.073,5.032,12.563,11.105a45.7,45.7,0,0,1,3.547,7.915A119.655,119.655,0,0,1,45.19,24.623V4.03Zm-4.69.132q0.985-.086,1.984-0.124V24.623a119.574,119.574,0,0,1-17.934-1.48,45.684,45.684,0,0,1,3.545-7.911C31.545,9.225,35.861,5.4,40.5,4.162ZM14.814,71.627A40.016,40.016,0,0,1,4,45.358H18.576c0.017,0.935.053,1.869,0.1,2.8a9.153,9.153,0,0,0-7.815,9.055v2.4a3.837,3.837,0,0,0,2.144,6.812,7.1,7.1,0,0,0,3.144,3.913V71.1Zm-2.151-9.975v1.889A1.123,1.123,0,0,1,12.662,61.652Zm11.759-6.577a1.351,1.351,0,0,0-2.416-.5c-2.452,3.4-7.919,3.438-7.985,3.438h0c-0.046,0-.093,0-0.138.007l-0.042.007c-0.031,0-.062.008-0.092,0.014s-0.038.01-.057,0.015-0.049.011-.072,0.019-0.028.01-.043,0.015V57.209a6.431,6.431,0,0,1,6.413-6.435h0.647a6.431,6.431,0,0,1,6.412,6.435v0.874h0c-0.026-.008-0.053-0.015-0.079-0.021a0.362,0.362,0,0,1-.036-0.01C25.043,57.621,24.426,55.094,24.422,55.075ZM18.576,42.642H4.014a39.986,39.986,0,0,1,6.461-20.383,61.292,61.292,0,0,0,10.581,3A68.741,68.741,0,0,0,18.576,42.642Zm-6.5-22.678A40.156,40.156,0,0,1,32.166,5.792a31.779,31.779,0,0,0-6.416,8.083,48.635,48.635,0,0,0-3.892,8.785A60.349,60.349,0,0,1,12.078,19.964Zm55.115,30.81H67.84a6.431,6.431,0,0,1,6.412,6.435v0.874c-0.025-.008-0.051-0.013-0.077-0.021a0.377,0.377,0,0,1-.037-0.01c-1.886-.43-2.5-2.957-2.508-2.976a1.352,1.352,0,0,0-2.416-.5c-2.45,3.4-7.913,3.438-7.984,3.438h0c-0.047,0-.093,0-0.138.007l-0.043.007c-0.03,0-.061.007-0.091,0.014s-0.04.01-.06,0.015-0.047.011-.069,0.019-0.029.01-.043,0.015V57.209A6.431,6.431,0,0,1,67.193,50.774ZM71.7,70.337a7.1,7.1,0,0,0,3.145-3.915,3.84,3.84,0,0,0,2.114-6.8V57.209a9.153,9.153,0,0,0-7.964-9.075c0.051-.92.086-1.847,0.1-2.776H83.956A40.163,40.163,0,0,1,73.034,71.646L71.7,71.11V70.337Zm3.491-6.824v-1.83A1.123,1.123,0,0,1,75.191,63.513ZM26.016,79.555v4.728H8.421V80.775a5.051,5.051,0,0,1,3.064-4.925,0.485,0.485,0,0,0,.062-0.023l5.1-2.005,2.712,2.651a1.348,1.348,0,0,0,.944.385h0.021a1.349,1.349,0,0,0,.953-0.416l2.562-2.668,3.166,1.274A10.173,10.173,0,0,0,26.016,79.555ZM24.49,71.11V70.337a7.1,7.1,0,0,0,3.146-3.915,3.84,3.84,0,0,0,2.114-6.8V57.209a9.149,9.149,0,0,0-8.363-9.117c-0.052-.906-0.087-1.82-0.1-2.734H33.512a11.061,11.061,0,0,0-1.055,4.725v3.169a4.463,4.463,0,0,0,2.6,8.03A8.53,8.53,0,0,0,39.071,66.3v1.385h0l-7.182,2.822a8.645,8.645,0,0,0-3.3,2.246Zm3.491-7.6V61.682A1.123,1.123,0,0,1,27.982,63.513Zm31,20.771H28.722V79.555a6.634,6.634,0,0,1,4.063-6.48l0.063-.023,6.59-2.59c0.014,0.016.028,0.032,0.042,0.047l3.5,3.423a1.352,1.352,0,0,0,.944.385h0.021A1.352,1.352,0,0,0,44.9,73.9l3.363-3.5,6.581,2.648c0.024,0.01.04,0.016,0.064,0.025a6.635,6.635,0,0,1,4.072,6.483v4.728Zm0.145-11.516a8.615,8.615,0,0,0-3.307-2.253l-7-2.817V66.3a8.528,8.528,0,0,0,4.018-5.023,4.463,4.463,0,0,0,2.56-8.015V50.083a11.059,11.059,0,0,0-1.055-4.725H66.39c-0.017.918-.053,1.836-0.106,2.747a9.15,9.15,0,0,0-8.212,9.1v2.4a3.838,3.838,0,0,0,2.145,6.812,7.094,7.094,0,0,0,3.145,3.913V71.1Zm0.747-11.115v1.889A1.123,1.123,0,0,1,59.872,61.652ZM79.282,84.283h-17.6V79.555a10.17,10.17,0,0,0-.986-4.491l3.16-1.242,2.712,2.651a1.352,1.352,0,0,0,.944.385h0.021a1.349,1.349,0,0,0,.953-0.416l2.562-2.668,5.093,2.05,0.062,0.023a5.049,5.049,0,0,1,3.075,4.928v3.508Z"/>
</svg>
