<svg xmlns="http://www.w3.org/2000/svg" width="84" height="68" viewBox="0 0 84 68">
  <metadata><?xpacket begin="﻿" id="W5M0MpCehiHzreSzNTczkc9d"?>
<x:xmpmeta xmlns:x="adobe:ns:meta/" x:xmptk="Adobe XMP Core 5.6-c138 79.159824, 2016/09/14-01:09:01        ">
   <rdf:RDF xmlns:rdf="http://www.w3.org/1999/02/22-rdf-syntax-ns#">
      <rdf:Description rdf:about=""/>
   </rdf:RDF>
</x:xmpmeta>
                                                                                                    
                                                                                                    
                                                                                                    
                                                                                                    
                                                                                                    
                                                                                                    
                                                                                                    
                                                                                                    
                                                                                                    
                                                                                                    
                                                                                                    
                                                                                                    
                                                                                                    
                                                                                                    
                                                                                                    
                                                                                                    
                                                                                                    
                                                                                                    
                                                                                                    
                                                                                                    
                           
<?xpacket end="w"?></metadata>
<defs>
    <style>
      .cls-1 {
        fill: #ff6148;
        fill-rule: evenodd;
      }
    </style>
  </defs>
  <path class="cls-1" d="M76,6H73V3a2.946,2.946,0,0,0-3-3H68a2.946,2.946,0,0,0-3,3V6H19V3a2.946,2.946,0,0,0-3-3H14a2.946,2.946,0,0,0-3,3V6H8a8.023,8.023,0,0,0-8,8V60a8.024,8.024,0,0,0,8,8H76a8.024,8.024,0,0,0,8-8V14A8.023,8.023,0,0,0,76,6ZM67,3a0.945,0.945,0,0,1,1-1h2a0.945,0.945,0,0,1,1,1V13a0.945,0.945,0,0,1-1,1H68a0.945,0.945,0,0,1-1-1V3ZM13,3a0.945,0.945,0,0,1,1-1h2a0.945,0.945,0,0,1,1,1V13a0.945,0.945,0,0,1-1,1H14a0.945,0.945,0,0,1-1-1V3ZM8,10h3v3a2.946,2.946,0,0,0,3,3h2a2.946,2.946,0,0,0,3-3V10H65v3a2.946,2.946,0,0,0,3,3h2a2.946,2.946,0,0,0,3-3V10h3a4.013,4.013,0,0,1,4,4v7H4V14A4.013,4.013,0,0,1,8,10ZM76,64H8a4.011,4.011,0,0,1-4-4V23H80V60A4.011,4.011,0,0,1,76,64ZM31,33H25V31h6v2Zm28,0H53V31h6v2Zm14,0H67V31h6v2ZM17,33H11V31h6v2Zm8,9h6v2H25V42Zm28,0h6v2H53V42Zm14,0h6v2H67V42ZM11,42h6v2H11V42ZM25,53h6v2H25V53Zm28,0h6v2H53V53Zm14,0h6v2H67V53ZM11,53h6v2H11V53ZM45,33H39V31h6v2Zm-6,9h6v2H39V42Zm0,11h6v2H39V53Z"/>
</svg>
