<svg xmlns="http://www.w3.org/2000/svg" width="28" height="40" viewBox="0 0 28 40">
  <metadata><?xpacket begin="﻿" id="W5M0MpCehiHzreSzNTczkc9d"?>
<x:xmpmeta xmlns:x="adobe:ns:meta/" x:xmptk="Adobe XMP Core 5.6-c138 79.159824, 2016/09/14-01:09:01        ">
   <rdf:RDF xmlns:rdf="http://www.w3.org/1999/02/22-rdf-syntax-ns#">
      <rdf:Description rdf:about=""/>
   </rdf:RDF>
</x:xmpmeta>
                                                                                                    
                                                                                                    
                                                                                                    
                                                                                                    
                                                                                                    
                                                                                                    
                                                                                                    
                                                                                                    
                                                                                                    
                                                                                                    
                                                                                                    
                                                                                                    
                                                                                                    
                                                                                                    
                                                                                                    
                                                                                                    
                                                                                                    
                                                                                                    
                                                                                                    
                                                                                                    
                           
<?xpacket end="w"?></metadata>
<defs>
    <style>
      .cls-1 {
        fill: #ff6148;
        stroke: #ff6148;
        stroke-width: 1px;
        fill-rule: evenodd;
      }
    </style>
  </defs>
  <path class="cls-1" d="M24.907,28.2A6.445,6.445,0,0,0,22.8,26.812L19.49,25.387a0.462,0.462,0,0,0-.081-0.028l-2.291-.6V22.756l0.1-.054a0.567,0.567,0,0,0,.231.095,15.023,15.023,0,0,1,3.828,1.117,0.556,0.556,0,0,0,.238.054,0.578,0.578,0,0,0,.5-0.3,0.542,0.542,0,0,0,.065-0.071,15.188,15.188,0,0,0,2.9-9.089A14.679,14.679,0,0,0,20.8,3.963h0A10.023,10.023,0,0,0,13.837,1C7.693,1,2.7,7.058,2.7,14.505a15.127,15.127,0,0,0,3.011,9.237l0.013,0.015L5.731,23.77c0.015,0.016.03,0.033,0.047,0.048l0.009,0.008A0.583,0.583,0,0,0,6,23.943l0.005,0c0.024,0.007.049,0.012,0.074,0.016h0a0.587,0.587,0,0,0,.081.006H6.178a0.392,0.392,0,0,0,.059-0.006l0.033,0,0.068-.018,0.033-.014A0.135,0.135,0,0,0,6.4,23.914a15.065,15.065,0,0,1,3.878-1.125,0.584,0.584,0,0,0,.2-0.075l0.069,0.036v2.007l-2.429.6a0.522,0.522,0,0,0-.088.03L4.717,26.812A6.45,6.45,0,0,0,2.612,28.2a7.172,7.172,0,0,0-2.1,5.313v4.812a0.59,0.59,0,0,0,.58.6h8.48a0.6,0.6,0,0,0,0-1.2H6.148V33.294a0.58,0.58,0,1,0-1.16,0v4.433H1.674V33.514A5.675,5.675,0,0,1,5.11,27.939l0.038-.015,2.757-1.187L8.28,28.115v0l2.607,9.612H9.74a0.6,0.6,0,0,0,0,1.2H26.425a0.591,0.591,0,0,0,.58-0.6V33.514A7.172,7.172,0,0,0,24.907,28.2ZM6.346,22.635a14,14,0,0,1-2.491-8.129C3.855,7.719,8.333,2.2,13.837,2.2a8.772,8.772,0,0,1,6.172,2.637,13.463,13.463,0,0,1,3.81,9.671,14.028,14.028,0,0,1-2.49,8.13,15.849,15.849,0,0,0-2.828-.859,6.3,6.3,0,0,0,1.92-3.768,2.855,2.855,0,0,0,.057-5.665,0.593,0.593,0,0,0-.464-0.576,9.624,9.624,0,0,1-5.7-3.284,0.567,0.567,0,0,0-.888-0.071,14.137,14.137,0,0,1-5.791,3.362,0.6,0.6,0,0,0-.434.569,2.855,2.855,0,0,0,.056,5.665,6.3,6.3,0,0,0,1.92,3.768A15.912,15.912,0,0,0,6.346,22.635Zm14.132-5.841v-3.24A1.656,1.656,0,0,1,20.478,16.795ZM7.2,13.555v3.24A1.656,1.656,0,0,1,7.2,13.555Zm1.16,3.608V12.8A15.294,15.294,0,0,0,13.8,9.7a11.046,11.046,0,0,0,5.522,3.133v4.328A4.975,4.975,0,0,1,14.43,22.21H13.244A4.975,4.975,0,0,1,8.356,17.163ZM9.01,26.368l2.252-.557a0.594,0.594,0,0,0,.445-0.582V23.2a5.84,5.84,0,0,0,1.537.205H14.43a5.827,5.827,0,0,0,1.527-.2v2.024a0.6,0.6,0,0,0,.438.581l2.26,0.588-0.317,1.17A8.345,8.345,0,0,1,12,28.658a8.8,8.8,0,0,1-2.662-1.08Zm6.572,11.359H12.092L9.766,29.154a10.2,10.2,0,0,0,1.935.662,9.456,9.456,0,0,0,6.21-.673Zm10.263,0H22.531V33.294a0.58,0.58,0,1,0-1.16,0v4.433H16.787L19.752,26.8l2.619,1.127,0.036,0.014a5.677,5.677,0,0,1,3.438,5.576v4.214h0ZM13.73,18.019h0.988a0.6,0.6,0,0,0,0-1.2H14.31V15.475a0.58,0.58,0,1,0-1.16,0v1.946A0.589,0.589,0,0,0,13.73,18.019Z"/>
</svg>
