<?xml version="1.0" encoding="UTF-8"?>
<svg width="84px" height="64px" viewBox="0 0 84 64" version="1.1" xmlns="http://www.w3.org/2000/svg" xmlns:xlink="http://www.w3.org/1999/xlink">
    <!-- Generator: Sketch 51.3 (57544) - http://www.bohemiancoding.com/sketch -->
    <title>Shape</title>
    <desc>Created with Sketch.</desc>
    <defs></defs>
    <g id="Page-1" stroke="none" stroke-width="1" fill="none" fill-rule="evenodd">
        <g id="увеличение_конверсии" transform="translate(-420.000000, -3120.000000)" fill="#FF614A" fill-rule="nonzero">
            <path d="M427.84,3128.98246 L431.2,3128.98246 C431.816,3128.98246 432.32,3128.47719 432.32,3127.85965 C432.32,3127.24211 431.816,3126.73684 431.2,3126.73684 L427.84,3126.73684 C427.224,3126.73684 426.72,3127.24211 426.72,3127.85965 C426.72,3128.47719 427.224,3128.98246 427.84,3128.98246 Z M440.16,3127.85965 C440.16,3127.24211 439.656,3126.73684 439.04,3126.73684 L435.68,3126.73684 C435.064,3126.73684 434.56,3127.24211 434.56,3127.85965 C434.56,3128.47719 435.064,3128.98246 435.68,3128.98246 L439.04,3128.98246 C439.656,3128.98246 440.16,3128.47719 440.16,3127.85965 Z M448,3127.85965 C448,3127.24211 447.496,3126.73684 446.88,3126.73684 L443.52,3126.73684 C442.904,3126.73684 442.4,3127.24211 442.4,3127.85965 C442.4,3128.47719 442.904,3128.98246 443.52,3128.98246 L446.88,3128.98246 C447.496,3128.98246 448,3128.47719 448,3127.85965 Z M485.52,3128.98246 C485.8,3128.98246 486.08,3128.87018 486.304,3128.64561 C486.528,3128.42105 486.64,3128.14035 486.64,3127.85965 C486.64,3127.57895 486.528,3127.29825 486.304,3127.07368 C485.912,3126.6807 485.128,3126.6807 484.736,3127.07368 C484.512,3127.29825 484.4,3127.57895 484.4,3127.85965 C484.4,3128.14035 484.512,3128.42105 484.736,3128.64561 C484.96,3128.87018 485.24,3128.98246 485.52,3128.98246 Z M471.52,3130.66667 C471.184,3130.66667 470.96,3130.89123 470.96,3131.22807 C470.96,3131.56491 471.184,3131.78947 471.52,3131.78947 C476.784,3131.78947 481.04,3136.05614 481.04,3141.33333 C481.04,3141.67018 481.264,3141.89474 481.6,3141.89474 C481.936,3141.89474 482.16,3141.67018 482.16,3141.33333 C482.16,3135.4386 477.4,3130.66667 471.52,3130.66667 Z M503.664,3167.49474 C503.888,3167.7193 504,3168 504,3168.2807 C504,3168.5614 503.888,3168.84211 503.664,3169.06667 L499.184,3173.55789 C498.96,3173.78246 498.68,3173.89474 498.4,3173.89474 C498.12,3173.89474 497.84,3173.78246 497.616,3173.55789 L491.4,3167.32632 C490.504,3167.94386 489.44,3168.2807 488.32,3168.2807 L462.784,3168.2807 L464.576,3177.26316 L470.4,3177.26316 C472.864,3177.26316 474.88,3179.28421 474.88,3181.75439 L474.88,3184 L439.04,3184 L439.04,3181.75439 C439.04,3179.28421 441.056,3177.26316 443.52,3177.26316 L449.344,3177.26316 L451.136,3168.2807 L425.6,3168.2807 C422.52,3168.2807 420,3165.75439 420,3162.66667 L420,3125.61404 C420,3122.52632 422.52,3120 425.6,3120 L488.32,3120 C491.4,3120 493.92,3122.52632 493.92,3125.61404 L493.92,3157.72632 L503.664,3167.49474 Z M496.552,3169.34737 L499.464,3166.42807 L492.016,3158.9614 C492.016,3158.9614 492.016,3158.9614 492.016,3158.9614 L489.048,3155.98596 L486.136,3158.90526 L496.552,3169.34737 Z M485.352,3158.1193 L488.264,3155.2 L487.2,3154.13333 L484.288,3157.05263 L485.352,3158.1193 Z M422.24,3159.29825 L483.392,3159.29825 L481.936,3157.8386 C481.712,3157.61404 481.6,3157.33333 481.6,3157.05263 C481.6,3156.77193 481.712,3156.49123 481.936,3156.26667 L483.392,3154.80702 L480.984,3152.39298 C478.464,3154.58246 475.104,3155.92982 471.52,3155.92982 C463.512,3155.92982 456.96,3149.3614 456.96,3141.33333 C456.96,3133.30526 463.512,3126.73684 471.52,3126.73684 C479.528,3126.73684 486.08,3133.30526 486.08,3141.33333 C486.08,3144.92632 484.736,3148.29474 482.552,3150.82105 L484.96,3153.23509 L486.416,3151.77544 C486.864,3151.32632 487.536,3151.32632 487.984,3151.77544 L491.68,3155.4807 L491.68,3125.61404 C491.68,3123.7614 490.168,3122.24561 488.32,3122.24561 L425.6,3122.24561 C423.752,3122.24561 422.24,3123.7614 422.24,3125.61404 L422.24,3159.29825 Z M483.84,3141.33333 C483.84,3134.54035 478.296,3128.98246 471.52,3128.98246 C464.744,3128.98246 459.2,3134.54035 459.2,3141.33333 C459.2,3148.12632 464.744,3153.68421 471.52,3153.68421 C478.296,3153.68421 483.84,3148.12632 483.84,3141.33333 Z M470.4,3179.50877 L463.68,3179.50877 C463.68,3179.50877 463.68,3179.50877 463.68,3179.50877 L450.24,3179.50877 C450.24,3179.50877 450.24,3179.50877 450.24,3179.50877 L443.52,3179.50877 C442.288,3179.50877 441.28,3180.5193 441.28,3181.75439 L472.64,3181.75439 C472.64,3180.5193 471.632,3179.50877 470.4,3179.50877 Z M460.544,3168.2807 L453.376,3168.2807 L451.584,3177.26316 L462.28,3177.26316 L460.544,3168.2807 Z M489.776,3165.69825 L485.632,3161.54386 C485.576,3161.54386 485.576,3161.54386 485.52,3161.54386 L422.24,3161.54386 L422.24,3162.66667 C422.24,3164.5193 423.752,3166.03509 425.6,3166.03509 L452.48,3166.03509 L461.44,3166.03509 L488.32,3166.03509 C488.824,3166.03509 489.328,3165.92281 489.776,3165.69825 Z M501.312,3168.2807 L500.248,3167.21404 L497.336,3170.13333 L498.4,3171.2 L501.312,3168.2807 Z M477.12,3137.96491 L465.92,3137.96491 C465.304,3137.96491 464.8,3138.47018 464.8,3139.08772 C464.8,3139.70526 465.304,3140.21053 465.92,3140.21053 L477.12,3140.21053 C477.736,3140.21053 478.24,3139.70526 478.24,3139.08772 C478.24,3138.47018 477.736,3137.96491 477.12,3137.96491 Z M473.76,3142.45614 L465.92,3142.45614 C465.304,3142.45614 464.8,3142.9614 464.8,3143.57895 C464.8,3144.19649 465.304,3144.70175 465.92,3144.70175 L473.76,3144.70175 C474.376,3144.70175 474.88,3144.19649 474.88,3143.57895 C474.88,3142.9614 474.376,3142.45614 473.76,3142.45614 Z M433.44,3139.08772 L433.44,3153.68421 C433.44,3154.30175 432.936,3154.80702 432.32,3154.80702 L427.84,3154.80702 C427.224,3154.80702 426.72,3154.30175 426.72,3153.68421 L426.72,3139.08772 C426.72,3138.47018 427.224,3137.96491 427.84,3137.96491 L432.32,3137.96491 C432.936,3137.96491 433.44,3138.47018 433.44,3139.08772 Z M431.2,3140.21053 L428.96,3140.21053 L428.96,3152.5614 L431.2,3152.5614 L431.2,3140.21053 Z M442.4,3143.57895 L442.4,3153.68421 C442.4,3154.30175 441.896,3154.80702 441.28,3154.80702 L436.8,3154.80702 C436.184,3154.80702 435.68,3154.30175 435.68,3153.68421 L435.68,3143.57895 C435.68,3142.9614 436.184,3142.45614 436.8,3142.45614 L441.28,3142.45614 C441.896,3142.45614 442.4,3142.9614 442.4,3143.57895 Z M440.16,3144.70175 L437.92,3144.70175 L437.92,3152.5614 L440.16,3152.5614 L440.16,3144.70175 Z M451.36,3135.7193 L451.36,3153.68421 C451.36,3154.30175 450.856,3154.80702 450.24,3154.80702 L445.76,3154.80702 C445.144,3154.80702 444.64,3154.30175 444.64,3153.68421 L444.64,3135.7193 C444.64,3135.10175 445.144,3134.59649 445.76,3134.59649 L450.24,3134.59649 C450.856,3134.59649 451.36,3135.10175 451.36,3135.7193 Z M449.12,3136.84211 L446.88,3136.84211 L446.88,3152.5614 L449.12,3152.5614 L449.12,3136.84211 Z" id="Shape"></path>
        </g>
    </g>
</svg>