<?xml version="1.0" encoding="UTF-8"?>
<svg width="67px" height="67px" viewBox="0 0 67 67" version="1.1" xmlns="http://www.w3.org/2000/svg" xmlns:xlink="http://www.w3.org/1999/xlink">
    <!-- Generator: Sketch 51.3 (57544) - http://www.bohemiancoding.com/sketch -->
    <title>Shape Copy</title>
    <desc>Created with Sketch.</desc>
    <defs></defs>
    <g id="Page-1" stroke="none" stroke-width="1" fill="none" fill-rule="evenodd">
        <g id="увеличение_конверсии" transform="translate(-820.000000, -3117.000000)" fill="#FF614A" fill-rule="nonzero">
            <path d="M853.5,3117 C835.005208,3117 820,3132.00521 820,3150.5 C820,3168.99479 835.005208,3184 853.5,3184 C871.994792,3184 887,3168.99479 887,3150.5 C887,3132.00521 871.994792,3117 853.5,3117 Z M882.463542,3140.38021 L877.159375,3142.125 C873.809375,3132.56354 864.80625,3125.65417 854.197917,3125.375 L854.197917,3119.79167 C867.248958,3120.07083 878.345833,3128.58542 882.463542,3140.38021 Z M853.5,3172.83333 C841.216667,3172.83333 831.166667,3162.78333 831.166667,3150.5 C831.166667,3138.21667 841.216667,3128.16667 853.5,3128.16667 C865.783333,3128.16667 875.833333,3138.21667 875.833333,3150.5 C875.833333,3162.78333 865.783333,3172.83333 853.5,3172.83333 Z M852.802083,3119.79167 L852.802083,3125.375 C842.19375,3125.65417 833.190625,3132.56354 829.840625,3142.05521 L824.536458,3140.31042 C828.654167,3128.58542 839.751042,3120.07083 852.802083,3119.79167 Z M822.791667,3150.5 C822.791667,3147.42917 823.280208,3144.49792 824.117708,3141.70625 L829.421875,3143.45104 C828.723958,3145.68437 828.375,3148.05729 828.375,3150.5 C828.375,3158.59583 832.213542,3165.78438 838.145833,3170.39062 L834.865625,3174.92708 C827.5375,3169.27396 822.791667,3160.48021 822.791667,3150.5 Z M836.052083,3175.76458 L839.332292,3171.22813 C843.380208,3174.01979 848.265625,3175.625 853.5,3175.625 C858.734375,3175.625 863.689583,3174.01979 867.667708,3171.22813 L870.947917,3175.76458 C865.992708,3179.18437 859.990625,3181.20833 853.5,3181.20833 C847.009375,3181.20833 841.007292,3179.18437 836.052083,3175.76458 Z M872.134375,3174.92708 L868.854167,3170.39062 C874.786458,3165.78438 878.625,3158.59583 878.625,3150.5 C878.625,3148.05729 878.276042,3145.68437 877.578125,3143.38125 L882.882292,3141.63646 C883.719792,3144.42812 884.208333,3147.35938 884.208333,3150.43021 C884.208333,3160.48021 879.4625,3169.27396 872.134375,3174.92708 Z M861.805208,3138.00729 C857.827083,3138.00729 854.826042,3139.82188 854.826042,3142.19479 C854.826042,3144.56771 857.827083,3146.38229 861.805208,3146.38229 C865.783333,3146.38229 868.784375,3144.56771 868.784375,3142.19479 C868.784375,3139.82188 865.783333,3138.00729 861.805208,3138.00729 Z M861.805208,3143.59062 C859.083333,3143.59062 857.617708,3142.54375 857.617708,3142.19479 C857.617708,3141.84583 859.083333,3140.79896 861.805208,3140.79896 C864.527083,3140.79896 865.992708,3141.84583 865.992708,3142.19479 C865.992708,3142.54375 864.457292,3143.59062 861.805208,3143.59062 Z M868.226042,3147.01042 C868.644792,3147.63854 868.435417,3148.54583 867.807292,3148.96458 C866.132292,3150.01146 863.96875,3150.56979 861.805208,3150.56979 C859.641667,3150.56979 857.478125,3150.01146 855.803125,3148.96458 C855.175,3148.54583 854.965625,3147.70833 855.384375,3147.01042 C855.803125,3146.38229 856.640625,3146.17292 857.338542,3146.59167 C859.78125,3148.12708 863.898958,3148.12708 866.271875,3146.59167 C866.9,3146.17292 867.807292,3146.38229 868.226042,3147.01042 Z M868.226042,3151.19792 C868.644792,3151.82604 868.435417,3152.73333 867.807292,3153.15208 C866.132292,3154.19896 863.96875,3154.75729 861.805208,3154.75729 C859.641667,3154.75729 857.478125,3154.19896 855.803125,3153.15208 C855.175,3152.73333 854.965625,3151.89583 855.384375,3151.19792 C855.803125,3150.56979 856.640625,3150.36042 857.338542,3150.77917 C859.78125,3152.31458 863.898958,3152.31458 866.271875,3150.77917 C866.9,3150.36042 867.807292,3150.56979 868.226042,3151.19792 Z M868.226042,3155.38542 C868.644792,3156.01354 868.435417,3156.92083 867.807292,3157.33958 C866.132292,3158.38646 863.96875,3158.94479 861.805208,3158.94479 C859.641667,3158.94479 857.478125,3158.38646 855.803125,3157.33958 C855.175,3156.92083 854.965625,3156.08333 855.384375,3155.38542 C855.803125,3154.75729 856.640625,3154.54792 857.338542,3154.96667 C859.78125,3156.50208 863.898958,3156.50208 866.271875,3154.96667 C866.9,3154.54792 867.807292,3154.75729 868.226042,3155.38542 Z M868.226042,3159.57292 C868.644792,3160.20104 868.435417,3161.10833 867.807292,3161.52708 C866.132292,3162.57396 863.96875,3163.13229 861.805208,3163.13229 C859.641667,3163.13229 857.478125,3162.57396 855.803125,3161.52708 C855.175,3161.10833 854.965625,3160.27083 855.384375,3159.57292 C855.803125,3158.94479 856.640625,3158.73542 857.338542,3159.15417 C859.78125,3160.68958 863.898958,3160.68958 866.271875,3159.15417 C866.9,3158.73542 867.807292,3158.94479 868.226042,3159.57292 Z M845.055208,3146.38229 C841.077083,3146.38229 838.076042,3148.19688 838.076042,3150.56979 C838.076042,3152.94271 841.077083,3154.75729 845.055208,3154.75729 C849.033333,3154.75729 852.034375,3152.94271 852.034375,3150.56979 C852.034375,3148.19688 849.033333,3146.38229 845.055208,3146.38229 Z M845.055208,3151.96562 C842.333333,3151.96562 840.867708,3150.91875 840.867708,3150.56979 C840.867708,3150.22083 842.333333,3149.17396 845.055208,3149.17396 C847.777083,3149.17396 849.242708,3150.22083 849.242708,3150.56979 C849.242708,3150.91875 847.707292,3151.96562 845.055208,3151.96562 Z M851.476042,3155.38542 C851.894792,3156.01354 851.685417,3156.92083 851.057292,3157.33958 C849.382292,3158.38646 847.21875,3158.94479 845.055208,3158.94479 C842.891667,3158.94479 840.728125,3158.38646 839.053125,3157.33958 C838.425,3156.92083 838.215625,3156.08333 838.634375,3155.38542 C839.053125,3154.6875 839.890625,3154.54792 840.588542,3154.96667 C843.03125,3156.50208 847.148958,3156.50208 849.521875,3154.96667 C850.15,3154.54792 851.057292,3154.75729 851.476042,3155.38542 Z M851.476042,3159.57292 C851.894792,3160.20104 851.685417,3161.10833 851.057292,3161.52708 C849.382292,3162.57396 847.21875,3163.13229 845.055208,3163.13229 C842.891667,3163.13229 840.728125,3162.57396 839.053125,3161.52708 C838.425,3161.10833 838.215625,3160.27083 838.634375,3159.57292 C839.053125,3158.875 839.890625,3158.73542 840.588542,3159.15417 C843.03125,3160.68958 847.148958,3160.68958 849.521875,3159.15417 C850.15,3158.73542 851.057292,3158.94479 851.476042,3159.57292 Z" id="Shape-Copy"></path>
        </g>
    </g>
</svg>