<?xml version="1.0" encoding="UTF-8"?>
<svg width="66px" height="66px" viewBox="0 0 66 66" version="1.1" xmlns="http://www.w3.org/2000/svg" xmlns:xlink="http://www.w3.org/1999/xlink">
    <!-- Generator: Sketch 51.3 (57544) - http://www.bohemiancoding.com/sketch -->
    <title>work_stage2</title>
    <desc>Created with Sketch.</desc>
    <defs></defs>
    <g id="Page-1" stroke="none" stroke-width="1" fill="none" fill-rule="evenodd">
        <g id="увеличение_конверсии" transform="translate(-1219.000000, -3118.000000)" fill="#FF614A" fill-rule="nonzero">
            <g id="work_stage2" transform="translate(1219.000000, 3118.000000)">
                <path d="M0,0 L0,12.375 L4.125,12.375 L4.125,56.375 L29.7,56.375 L22.4125,63.6625 C21.8625,64.2125 21.8625,65.0375 22.4125,65.5875 C22.6875,65.8625 23.03125,66 23.375,66 C23.71875,66 24.0625,65.8625 24.3375,65.5875 L33,56.925 L41.6625,65.5875 C41.9375,65.8625 42.28125,66 42.625,66 C42.96875,66 43.3125,65.8625 43.5875,65.5875 C44.1375,65.0375 44.1375,64.2125 43.5875,63.6625 L36.3,56.375 L61.875,56.375 L61.875,12.375 L66,12.375 L66,0 L0,0 Z M6.875,53.625 L6.875,11 L59.125,11 L59.125,53.625 L6.875,53.625 Z M63.25,9.625 L60.5,9.625 L59.125,9.625 L6.875,9.625 L5.5,9.625 L2.75,9.625 L2.75,2.75 L63.25,2.75 L63.25,9.625 Z M49.84375,26.60625 C42.83125,36.9875 28.94375,48.125 13.75,48.125 C12.99375,48.125 12.375,47.50625 12.375,46.75 C12.375,45.99375 12.99375,45.375 13.75,45.375 C28.25625,45.375 41.525,34.44375 47.9875,24.475 L44.89375,27.01875 C44.61875,27.225 44.34375,27.29375 44,27.29375 C43.5875,27.29375 43.175,27.0875 42.9,26.8125 C42.41875,26.19375 42.4875,25.36875 43.10625,24.8875 L51.35625,18.15 C51.35625,18.15 51.35625,18.15 51.35625,18.15 C51.35625,18.15 51.425,18.15 51.425,18.08125 C51.425,18.08125 51.49375,18.08125 51.49375,18.0125 C51.5625,17.94375 51.63125,17.94375 51.7,17.94375 C51.7,17.94375 51.7,17.94375 51.76875,17.94375 C51.8375,17.94375 51.90625,17.875 51.975,17.875 C51.975,17.875 52.04375,17.875 52.04375,17.875 C52.04375,17.875 52.1125,17.875 52.1125,17.875 C52.1125,17.875 52.1125,17.875 52.18125,17.875 C52.18125,17.875 52.18125,17.875 52.25,17.875 C52.31875,17.875 52.31875,17.875 52.3875,17.875 C52.45625,17.875 52.45625,17.875 52.525,17.875 C52.525,17.875 52.525,17.875 52.525,17.875 C52.525,17.875 52.525,17.875 52.525,17.875 C52.525,17.875 52.59375,17.875 52.59375,17.875 C52.6625,17.875 52.6625,17.875 52.73125,17.875 C52.73125,17.875 52.73125,17.875 52.8,17.875 C52.8,17.875 52.8,17.875 52.8,17.875 C52.8,17.875 52.86875,17.875 52.86875,17.875 C52.9375,17.875 52.9375,17.875 53.00625,17.94375 C53.00625,17.94375 53.00625,17.94375 53.075,17.94375 C53.075,17.94375 53.14375,18.0125 53.14375,18.0125 C53.14375,18.0125 53.2125,18.08125 53.2125,18.08125 C53.2125,18.08125 53.2125,18.08125 53.28125,18.08125 C53.28125,18.08125 53.35,18.15 53.35,18.15 C53.35,18.15 53.41875,18.15 53.41875,18.21875 C53.41875,18.21875 53.41875,18.21875 53.41875,18.21875 C53.41875,18.21875 53.41875,18.21875 53.41875,18.2875 C53.41875,18.2875 53.4875,18.35625 53.4875,18.425 C53.4875,18.425 53.55625,18.49375 53.55625,18.49375 C53.55625,18.49375 53.55625,18.49375 53.55625,18.5625 C53.55625,18.63125 53.55625,18.63125 53.625,18.7 C53.625,18.76875 53.625,18.76875 53.69375,18.8375 C53.69375,18.8375 53.69375,18.8375 53.69375,18.8375 C53.69375,18.90625 53.69375,18.90625 53.69375,18.975 C53.69375,19.04375 53.69375,19.04375 53.69375,19.1125 C53.69375,19.1125 53.69375,19.1125 53.69375,19.1125 C53.69375,19.18125 53.69375,19.18125 53.69375,19.25 C53.69375,19.31875 53.69375,19.31875 53.69375,19.3875 C53.69375,19.3875 53.69375,19.3875 53.69375,19.3875 L52.25,29.7 C52.18125,30.3875 51.5625,30.86875 50.875,30.86875 C50.80625,30.86875 50.7375,30.86875 50.66875,30.86875 C49.9125,30.8 49.3625,30.04375 49.5,29.2875 L49.84375,26.60625 Z M18.5625,19.9375 L12.375,19.9375 L12.375,33.6875 L18.5625,33.6875 L18.5625,19.9375 Z M17.1875,32.3125 L13.75,32.3125 L13.75,21.3125 L17.1875,21.3125 L17.1875,32.3125 Z M26.8125,22.6875 L20.625,22.6875 L20.625,33.6875 L26.8125,33.6875 L26.8125,22.6875 Z M25.4375,32.3125 L22,32.3125 L22,24.0625 L25.4375,24.0625 L25.4375,32.3125 Z M35.0625,17.1875 L28.875,17.1875 L28.875,33.6875 L35.0625,33.6875 L35.0625,17.1875 Z M33.6875,32.3125 L30.25,32.3125 L30.25,18.5625 L33.6875,18.5625 L33.6875,32.3125 Z M53.9,42.2125 L51.425,44.6875 L53.9,47.1625 C54.45,47.7125 54.45,48.5375 53.9,49.0875 C53.625,49.3625 53.28125,49.5 52.9375,49.5 C52.59375,49.5 52.25,49.3625 51.975,49.0875 L49.5,46.6125 L47.025,49.0875 C46.75,49.3625 46.40625,49.5 46.0625,49.5 C45.71875,49.5 45.375,49.3625 45.1,49.0875 C44.55,48.5375 44.55,47.7125 45.1,47.1625 L47.575,44.6875 L45.1,42.2125 C44.55,41.6625 44.55,40.8375 45.1,40.2875 C45.65,39.7375 46.475,39.7375 47.025,40.2875 L49.5,42.7625 L51.975,40.2875 C52.525,39.7375 53.35,39.7375 53.9,40.2875 C54.45,40.8375 54.45,41.6625 53.9,42.2125 Z" id="Shape"></path>
            </g>
        </g>
    </g>
</svg>