<?xml version="1.0" encoding="UTF-8"?>
<svg width="58px" height="58px" viewBox="0 0 58 58" version="1.1" xmlns="http://www.w3.org/2000/svg" xmlns:xlink="http://www.w3.org/1999/xlink">
    <!-- Generator: Sketch 51.3 (57544) - http://www.bohemiancoding.com/sketch -->
    <title>task4</title>
    <desc>Created with Sketch.</desc>
    <defs></defs>
    <g id="Page-1" stroke="none" stroke-width="1" fill="none" fill-rule="evenodd">
        <g id="увеличение_конверсии" transform="translate(-633.000000, -3415.000000)" fill="#FF614A" fill-rule="nonzero">
            <g id="task4" transform="translate(633.000000, 3415.000000)">
                <path d="M48.9375,0 L33.53125,0 L9.0625,0 C4.078125,0 0,4.078125 0,9.0625 L0,48.9375 C0,53.921875 4.078125,58 9.0625,58 L33.53125,58 L48.9375,58 C53.921875,58 58,53.921875 58,48.9375 L58,9.0625 C58,4.078125 53.921875,0 48.9375,0 Z M8.35044643,2.809375 L33.6930804,2.809375 L49.6495536,2.809375 C52.7469866,2.809375 55.28125,5.43976563 55.28125,8.6546875 L55.28125,14.5 L2.71875,14.5 L2.71875,8.6546875 C2.71875,5.43976563 5.25301339,2.809375 8.35044643,2.809375 Z M49.6495536,55.28125 L33.6930804,55.28125 L9.5980356,55.28125 C7.97895112,55.28125 5.76236329,54.3266421 4.73255381,53.2080485 C3.79225861,52.1866865 2.71875,50.294468 2.71875,48.7957284 L2.71875,17.21875 L55.28125,17.21875 L55.28125,49.571875 C55.28125,52.7120313 52.7469866,55.28125 49.6495536,55.28125 Z M7.25,9.0625 C7.25,8.065625 8.065625,7.25 9.0625,7.25 L12.6875,7.25 C13.684375,7.25 14.5,8.065625 14.5,9.0625 C14.5,10.059375 13.684375,10.875 12.6875,10.875 L9.0625,10.875 C8.065625,10.875 7.25,10.059375 7.25,9.0625 Z M47.66875,10.33125 C47.30625,9.96875 47.125,9.515625 47.125,9.0625 C47.125,8.609375 47.30625,8.15625 47.66875,7.79375 C48.303125,7.06875 49.571875,7.06875 50.20625,7.79375 C50.56875,8.15625 50.75,8.609375 50.75,9.0625 C50.75,9.515625 50.56875,9.96875 50.20625,10.33125 C49.84375,10.69375 49.390625,10.875 48.9375,10.875 C48.484375,10.875 48.03125,10.69375 47.66875,10.33125 Z M42.23125,10.33125 C41.86875,9.96875 41.6875,9.515625 41.6875,9.0625 C41.6875,8.609375 41.86875,8.15625 42.23125,7.79375 C42.95625,7.06875 44.134375,7.06875 44.76875,7.79375 C45.13125,8.15625 45.3125,8.609375 45.3125,9.0625 C45.3125,9.515625 45.13125,9.96875 44.76875,10.33125 C44.40625,10.69375 43.953125,10.875 43.5,10.875 C43.046875,10.875 42.59375,10.69375 42.23125,10.33125 Z M36.79375,10.33125 C36.43125,9.96875 36.25,9.515625 36.25,9.0625 C36.25,8.609375 36.43125,8.15625 36.79375,7.79375 C37.428125,7.06875 38.696875,7.06875 39.33125,7.79375 C39.69375,8.15625 39.875,8.609375 39.875,9.0625 C39.875,9.515625 39.69375,9.96875 39.33125,10.33125 C38.96875,10.69375 38.515625,10.875 38.0625,10.875 C37.609375,10.875 37.15625,10.69375 36.79375,10.33125 Z M29.584457,23.8201127 L29,23.653125 L28.415543,23.9036066 C25.4097643,24.9890266 22.236998,25.5734836 18.9807377,25.4899898 L17.3108607,25.4899898 L17.3108607,27.1598668 C17.3108607,41.2703279 24.9088012,46.9479098 28.2485553,48.7012807 L29,49.11875 L29.7514447,48.7012807 C33.0911988,46.864416 40.6891393,41.186834 40.6891393,27.076373 L40.6891393,25.4064959 L39.0192623,25.4064959 C35.763002,25.4899898 32.5902357,24.9890266 29.584457,23.8201127 Z M29,45.946875 C25.91875,43.953125 20.48125,39.059375 19.9375,28.09375 C23.01875,28.003125 26.009375,27.36875 29,26.371875 C31.9,27.36875 34.890625,27.9125 38.0625,28.09375 C37.51875,39.059375 32.08125,43.953125 29,45.946875 Z M28.45625,41.86875 C30.63125,40.05625 33.35,36.6125 34.165625,30.45 C34.25625,29.996875 34.709375,29.634375 35.1625,29.634375 C35.615625,29.725 35.978125,30.178125 35.978125,30.63125 C35.071875,37.428125 31.990625,41.234375 29.634375,43.228125 C29.453125,43.409375 29.18125,43.5 29,43.5 C28.728125,43.5 28.45625,43.409375 28.275,43.1375 C28.003125,42.775 28.003125,42.23125 28.45625,41.86875 Z" id="Shape"></path>
            </g>
        </g>
    </g>
</svg>