<?xml version="1.0" encoding="UTF-8"?>
<svg width="67px" height="67px" viewBox="0 0 67 67" version="1.1" xmlns="http://www.w3.org/2000/svg" xmlns:xlink="http://www.w3.org/1999/xlink">
    <!-- Generator: Sketch 51.3 (57544) - http://www.bohemiancoding.com/sketch -->
    <title>Group 2</title>
    <desc>Created with Sketch.</desc>
    <defs></defs>
    <g id="Page-1" stroke="none" stroke-width="1" fill="none" fill-rule="evenodd">
        <g id="увеличение_конверсии" transform="translate(-1028.000000, -3407.000000)" fill="#FF614A" fill-rule="nonzero">
            <g id="Group-2" transform="translate(1028.000000, 3407.000000)">
                <path d="M33.5,0 C15.0052083,0 0,15.0052083 0,33.5 C0,51.9947917 15.0052083,67 33.5,67 C51.9947917,67 67,51.9947917 67,33.5 C67,15.0052083 51.9947917,0 33.5,0 Z M62.4635417,23.3802083 L57.159375,25.125 C53.809375,15.5635417 44.80625,8.65416667 34.1979167,8.375 L34.1979167,2.79166667 C47.2489583,3.07083333 58.3458333,11.5854167 62.4635417,23.3802083 Z M33.5,55.8333333 C21.2166667,55.8333333 11.1666667,45.7833333 11.1666667,33.5 C11.1666667,21.2166667 21.2166667,11.1666667 33.5,11.1666667 C45.7833333,11.1666667 55.8333333,21.2166667 55.8333333,33.5 C55.8333333,45.7833333 45.7833333,55.8333333 33.5,55.8333333 Z M32.8020833,2.79166667 L32.8020833,8.375 C22.19375,8.65416667 13.190625,15.5635417 9.840625,25.0552083 L4.53645833,23.3104167 C8.65416667,11.5854167 19.7510417,3.07083333 32.8020833,2.79166667 Z M2.79166667,33.5 C2.79166667,30.4291667 3.28020833,27.4979167 4.11770833,24.70625 L9.421875,26.4510417 C8.72395833,28.684375 8.375,31.0572917 8.375,33.5 C8.375,41.5958333 12.2135417,48.784375 18.1458333,53.390625 L14.865625,57.9270833 C7.5375,52.2739583 2.79166667,43.4802083 2.79166667,33.5 Z M16.0520833,58.7645833 L19.3322917,54.228125 C23.3802083,57.0197917 28.265625,58.625 33.5,58.625 C38.734375,58.625 43.6895833,57.0197917 47.6677083,54.228125 L50.9479167,58.7645833 C45.9927083,62.184375 39.990625,64.2083333 33.5,64.2083333 C27.009375,64.2083333 21.0072917,62.184375 16.0520833,58.7645833 Z M52.134375,57.9270833 L48.8541667,53.390625 C54.7864583,48.784375 58.625,41.5958333 58.625,33.5 C58.625,31.0572917 58.2760417,28.684375 57.578125,26.38125 L62.8822917,24.6364583 C63.7197917,27.428125 64.2083333,30.359375 64.2083333,33.4302083 C64.2083333,43.4802083 59.4625,52.2739583 52.134375,57.9270833 Z" id="Shape-Copy-2"></path>
                <path d="M46.9325,26.0125 C46.9325,25.945 46.9325,25.945 46.865,25.8775 C46.865,25.81 46.7975,25.81 46.7975,25.7425 C46.7975,25.675 46.73,25.675 46.73,25.6075 C46.6625,25.4725 46.5275,25.3375 46.325,25.2025 C46.2575,25.2025 46.2575,25.135 46.19,25.135 C46.1225,25.135 46.1225,25.0675 46.055,25.0675 C45.9875,25.0675 45.9875,25.0675 45.92,25 C45.8525,25 45.8525,25 45.785,25 C45.7175,25 45.5825,25 45.515,25 L38.9,25 C38.1575,25 37.55,25.6075 37.55,26.35 C37.55,27.0925 38.1575,27.7 38.9,27.7 L42.275,27.7 L34.85,35.3275 L30.395,30.8725 C29.855,30.3325 29.045,30.3325 28.505,30.8725 L20.405,38.9725 C19.865,39.5125 19.865,40.3225 20.405,40.8625 C20.675,41.1325 21.0125,41.2675 21.35,41.2675 C21.6875,41.2675 22.025,41.1325 22.295,40.8625 L29.45,33.7075 L33.905,38.1625 C34.445,38.7025 35.255,38.7025 35.795,38.1625 L44.3,29.6575 L44.3,33.1675 C44.3,33.91 44.9075,34.5175 45.65,34.5175 C46.3925,34.5175 47,33.91 47,33.1675 L47,26.4175 C47,26.35 47,26.215 47,26.1475 C46.9325,26.08 46.9325,26.08 46.9325,26.0125 Z" id="Shape"></path>
            </g>
        </g>
    </g>
</svg>