<?xml version="1.0" encoding="utf-8"?>
<!-- Generator: Adobe Illustrator 21.1.0, SVG Export Plug-In . SVG Version: 6.00 Build 0)  -->
<svg version="1.1" id="Layer_1" xmlns="http://www.w3.org/2000/svg" xmlns:xlink="http://www.w3.org/1999/xlink" x="0px" y="0px"
	 viewBox="0 0 36 36" style="enable-background:new 0 0 36 36;" xml:space="preserve">
<style type="text/css">
	.st0{fill:#FF614C;}
</style>
<g>
	<path class="st0" d="M27.2,12.4c-0.6-0.5-1.4-0.5-2,0l0,0l-9.1,9.1l-4.4-4.4c-0.5-0.5-1.4-0.5-1.9,0c-0.5,0.5-0.6,1.4,0,2
		c0,0,5.3,5.2,5.3,5.3c0.7,0.7,1.6,0.7,2.2,0.1l10-10C27.8,13.9,27.8,13,27.2,12.4z"/>
	<path class="st0" d="M18,0C8.1,0,0,8.1,0,18s8.1,18,18,18s18-8.1,18-18S27.9,0,18,0z M18,33C9.7,33,3,26.3,3,18C3,9.7,9.7,3,18,3
		c8.3,0,15,6.7,15,15C33,26.3,26.3,33,18,33z"/>
</g>
</svg>
