<svg xmlns="http://www.w3.org/2000/svg" width="1987" height="1077" viewBox="0 0 1987 1077"><defs><linearGradient id="mye1a" x1="1012.06" x2="962.13" y1="906.42" y2="93.32" gradientUnits="userSpaceOnUse"><stop offset="0" stop-color="#254565"/><stop offset="1" stop-color="#102135"/></linearGradient><linearGradient id="mye1b" x1="1140" x2="521.86" y1="553.35" y2="565.62" gradientUnits="userSpaceOnUse"><stop offset="0" stop-color="#112236"/><stop offset="1" stop-color="#112f40"/></linearGradient><linearGradient id="mye1c" x1="836.89" x2="1192.29" y1="669.38" y2="991.71" gradientUnits="userSpaceOnUse"><stop offset="0" stop-color="#102132"/><stop offset="1" stop-color="#182f47"/></linearGradient></defs><g><g><path fill="url(#mye1a)" d="M1974.284 1061.07s-2.832-635.007-21.289-637.896c-28.038-4.39-60.984-191.922-110.59-200.701-49.606-8.78-71.818-94.236-87.61-105.623-15.79-11.386-33.758-35.535-61.8-35.535-28.041 0-51.388 15.646-80.449 39.913-29.061 24.267-60.025 154.27-96.68 179.406-36.654 25.137-83.419 21.578-112.942 7.112-29.523-14.468-43.808 5.688-73.35-6.082-29.54-11.77-22.222-23.348-37.319-40.906-15.098-17.559-31.526-41.113-48.78-47.962-17.255-6.849-59.06 8.455-76.314 23.554-17.255 15.099-53.916 8.603-86.063 14.001-32.147 5.399-53.306 39.483-116.675 36.745-75.089-3.245-120.652-29.844-165.829-29.844-53.774 0-71.66 13.543-111.208 29.844-39.549 16.3-22.76 21.948-42.17 17.558-19.411-4.39-40.98 8.78-75.488 0-34.509-8.779-30.195-13.17-49.594-17.558-19.4-4.39-49.619 0-87.243 0-37.624 0-35.706-13.17-60.976-26.338-25.27-13.17-48.062-26.338-63.16-30.727-15.097-4.39-34.508-17.559-50.201-30.728-15.693-13.169-10.189-13.169-44.11-39.507-33.92-26.337-39.698-57.356-65.136-80.772-25.439-23.415-29.614-33.137-63.076-41.155-33.463-8.018-34.475-8.385-57.86-37.063C4.987-27.871.69 1061.07.69 1061.07z"/></g><g><path fill="url(#mye1b)" d="M15.727 1026.687S-8.787 472.044 10.381 473.61c19.167 1.566 71.927 14.773 86.05 21.035 14.124 6.263 16.142 1.566 27.238-3.13 11.097-4.698 14.124-1.566 30.265-6.262 16.14-4.698 8.07 1.564 19.167-1.567 11.097-3.13 17.15 0 29.255-6.262 12.106-6.262 15.132-4.696 40.352-14.09 25.22-9.393 27.238 0 37.326 0 10.088 0 23.203 0 39.344-6.262 16.14-6.262 49.699-9.946 64.83-20.905 7.84-5.678 58.422 26.71 124.82 20.905 61.761-5.399 117.986-53.286 130.14-54.795 25.22-3.13 36.317-6.262 47.414-10.958 11.097-4.698 29.255-17.222 32.282-21.919 3.026-4.696 40.352-34.442 50.44-34.442 10.088 0 40.352-17.221 43.379-17.221 3.026 0 17.15 17.22 21.184 21.917 4.036 4.697 26.267 15.656 29.294 15.656 3.026 0 21.147-3.13 25.182-7.828 4.035-4.697 11.097-10.959 20.176-20.353 9.079-9.392 23.292-29.647 34.893-45.303 10.603-14.308 27.147-30.628 32.527-39.108 5.104-8.044 24.971-17.022 41.367-10.672 16.396 6.35 25.917 4.015 38.022 19.671 12.106 15.655 16.428 36.275 31.56 53.496 15.132 17.221 12.295 28.179 22.383 36.007 10.088 7.827 8.07 7.827 12.106 14.09 4.035 6.263 8.07 7.828 21.185 17.222 13.114 9.393 6.052 3.13 23.202 14.09 17.15 10.959 11.097 3.13 28.246 1.565 17.15-1.566 11.097-6.262 20.177-9.393 9.079-3.132 3.026 0 15.132 0 12.105 0 24.21 3.131 31.272 6.262 7.062 3.131 17.15 10.959 17.15 10.962 8.875 5.902 28.308 18.82 36.097 23.959 10.245 6.758 25.204 3.597 33.924 3.597 8.72 0 38.657-5.397 50.865-3.597 12.208 1.798 42.763-1.8 82.876 0 19.983 1.423 45.896-22.011 59.848-29.207 13.953-7.196 36.625-3.599 64.53-3.599 27.904 0 27.904-8.993 36.625-14.39 8.72-5.397 24.416-8.996 31.392-14.392 6.976-5.397 27.905-29.79 34.88-38.784 6.977-8.995 12.21-14.392 12.21-14.392l5.231-.716c5.232-.716 6.976-10.078 20.929-22.67 13.952-12.594 10.682-7.422 17.44-10.795 17.44-10.794 34.608-31.791 39.84-38.986 5.232-7.196 7.79-25.197 37.565-25.197 29.776 0 72.583-3.595 87.408 15.267 14.825 18.863 11.335 9.921 25.261 29.601 13.926 19.68 29.373 796.285 29.373 796.285zm1607.18-829.054l.3-.3-.3.3z"/></g><g><path fill="url(#mye1c)" d="M1986.046 1067.796s4.62-462.772-6.032-462.772c-10.652 0-28.923 2.176-41.438-2.478-9.513-3.539-33.251-12.436-44.09-16.5 0-.003-12.322-5.393-20.948-7.55-8.625-2.157-23.412-4.312-38.198-4.312-14.787 0-7.394-2.158-18.484 0-11.09 2.155-3.696 5.39-24.644 6.469-20.948 1.078-13.554 6.469-34.502-1.08-20.948-7.547-12.322-3.234-28.34-9.703-16.02-6.468-20.948-7.547-25.877-11.86-4.929-4.312-2.464-4.312-14.787-9.703-12.322-5.392-23.412-7.547-41.895-19.408-18.483-11.86-34.502-22.642-49.288-33.424-14.787-10.782-32.038-16.173-32.038-16.173s-12.707-10.97-17.868-10.244c-6.239.876-15.536 5.87-21.77 11.411-6.572 5.84-23.194 24.378-36.145 34.233-14.17 10.782-35.116 17.431-46.206 23.9-11.09 6.47-19.715 10.783-24.644 14.017-4.93 3.234-14.787 10.783-18.483 10.783-3.697 0-43.127-12.939-48.057-16.173-4.928-3.235-22.18-15.096-25.876-15.096-3.696 0-7.393-6.47-16.019 0-8.625 6.47-24.644 11.861-36.966 11.861-12.322 0-11.09-8.626-27.109 1.078-16.018 9.704-30.805 19.408-34.502 22.643-3.696 3.234-25.876 11.859-39.43 15.093-13.555 3.235-27.109 5.392-57.914 7.549-30.806 2.155-29.573 1.86-41.896-8.922-12.322-10.782-17.25-15.096-17.25-15.096s-19.716-21.563-27.11-24.797c-7.393-3.235-12.94-12.581-17.868-16.894-4.929-4.313-4.313-11.051-19.1-18.599-14.786-7.547-22.179-13.477-22.179-13.477l-16.02.296s-15.093-12.13-26.184-6.739c-11.09 5.391-14.17-3.53-21.563 2.94-7.394 6.468-17.251 10.78-20.948 15.094-3.696 4.312-13.862 6.2-17.56 14.825-3.696 8.625-11.089 12.13-24.643 26.146-13.555 14.016-13.247 21.834-24.337 29.38-11.09 7.548-22.249-.626-40.732 6.92-18.483 7.548-27.62-15.095-44.76-23.424-17.14-8.328-32.09-61.458-44.413-61.458-12.322 0-49.59-86.507-68.17-106.75-18.58-20.243-26.334-32.842-41.12-28.53-14.787 4.314-18.09-2.156-31.644 0-13.555 2.156-16.261-3.234-35.976 0-19.716 3.234-19.64 5.295-33.193 8.53-13.555 3.235-27.612 21.646-45.618 28.085-18.006 6.439-24.443 22.623-47.855 21.545-23.412-1.079-33.775 50.082-46.977 69.636-13.201 19.554-33.339 25.634-44.376 25.634-11.036 0-45.848 27.075-63.482 23.84-17.635-3.235-56.436-26.894-65.062-36.598-8.626-9.704-24.644-30.19-28.34-31.268-3.697-1.078-29.574-14.017-45.593-7.547-16.019 6.469-25.876 9.703-39.43 14.016-13.555 4.313-19.716 6.469-38.2 19.407C-5.584 509.492 1.7 1076.28 1.7 1076.28z"/></g></g></svg>