<svg xmlns="http://www.w3.org/2000/svg" width="1029" height="153" viewBox="0 0 1029 153"><g><g opacity="1"><path fill="none" d="M1027.654 148.994H997.79l-69.318-94.823v94.823h-30.954V3.598h31.825L996.7 94.934V3.598h30.954zM786.84 124.152c26.814 0 44.254-20.71 44.254-47.742 0-27.25-17.44-47.742-44.254-47.742-26.814 0-44.036 20.492-44.036 47.742 0 27.032 17.222 47.742 44.036 47.742zm-.005 27.468c-43.815 0-75.859-31.392-75.859-75.21S743.02 1.2 786.836 1.2c44.032 0 76.076 31.392 76.076 75.21s-32.044 75.21-76.077 75.21zm-110.454-2.626h-30.956V3.598h30.956zm-105.882 0h-31.174V30.846h-42.51V3.598h115.976v27.248h-42.292zm-156.894 2.626c-43.6 0-77.39-30.52-77.39-75.21s33.79-75.21 77.39-75.21c32.046 0 50.576 17.44 60.822 35.534l-26.596 13.08c-6.104-11.772-19.184-21.146-34.226-21.146-26.378 0-45.562 20.274-45.562 47.742 0 27.468 19.184 47.742 45.562 47.742 15.042 0 28.122-9.156 34.226-21.146l26.596 12.862c-10.464 18.094-28.776 35.752-60.822 35.752zm-177.385 0c-44.254 0-65.618-24.852-65.618-60.604V3.598h31.392v86.328c0 20.274 11.772 34.226 34.226 34.226s34.008-13.952 34.008-34.226V3.598h31.61v87.2c0 36.188-21.364 60.822-65.618 60.822zM98.738 97.12L76.061 34.554 53.384 97.12zm52.746 51.874h-35.316l-8.938-24.632H44.882l-9.156 24.632H.41L56.654 3.598h38.804z"/><path fill="none" stroke="#fff" stroke-miterlimit="50" stroke-width=".7" d="M1027.654 148.994H997.79l-69.318-94.823v94.823h-30.954V3.598h31.825L996.7 94.934V3.598h30.954zM786.84 124.152c26.814 0 44.254-20.71 44.254-47.742 0-27.25-17.44-47.742-44.254-47.742-26.814 0-44.036 20.492-44.036 47.742 0 27.032 17.222 47.742 44.036 47.742zm-.005 27.468c-43.815 0-75.859-31.392-75.859-75.21S743.02 1.2 786.836 1.2c44.032 0 76.076 31.392 76.076 75.21s-32.044 75.21-76.077 75.21zm-110.454-2.626h-30.956V3.598h30.956zm-105.882 0h-31.174V30.846h-42.51V3.598h115.976v27.248h-42.292zm-156.894 2.626c-43.6 0-77.39-30.52-77.39-75.21s33.79-75.21 77.39-75.21c32.046 0 50.576 17.44 60.822 35.534l-26.596 13.08c-6.104-11.772-19.184-21.146-34.226-21.146-26.378 0-45.562 20.274-45.562 47.742 0 27.468 19.184 47.742 45.562 47.742 15.042 0 28.122-9.156 34.226-21.146l26.596 12.862c-10.464 18.094-28.776 35.752-60.822 35.752zm-177.385 0c-44.254 0-65.618-24.852-65.618-60.604V3.598h31.392v86.328c0 20.274 11.772 34.226 34.226 34.226s34.008-13.952 34.008-34.226V3.598h31.61v87.2c0 36.188-21.364 60.822-65.618 60.822zM98.738 97.12L76.061 34.554 53.384 97.12zm52.746 51.874h-35.316l-8.938-24.632H44.882l-9.156 24.632H.41L56.654 3.598h38.804z"/></g></g></svg>