<svg xmlns="http://www.w3.org/2000/svg" width="837" height="97" viewBox="0 0 837 97"><g><g><path fill="none" d="M836.226 94.504h-65.145V2.468h65.145v17.248H790.68v19.456h44.58V56.42h-44.58v20.836h45.546zm-128.02 1.804c-26.915 0-49-18.768-49-47.748 0-29.118 22.085-47.61 49-47.61 19.187 0 31.195 9.66 38.097 20.562l-16.288 8.832c-4.14-6.486-12.008-12.006-21.808-12.006-16.702 0-28.849 12.834-28.849 30.222s12.147 30.222 28.849 30.222c8.143 0 15.873-3.588 19.6-7.038v-11.04h-24.293V43.592h43.893V78.92c-9.386 10.488-22.499 17.388-39.2 17.388zM618.274 61.67l-14.357-39.606-14.357 39.606zm33.405 32.834h-22.36l-5.66-15.592h-39.475l-5.797 15.592h-22.36l35.61-92.036h24.57zM522.264 44.558c7.73 0 13.528-4.83 13.528-12.42 0-7.728-5.798-12.42-13.528-12.42H501.42v24.84zm-20.841 49.946h-19.599V2.468h43.062c20.012 0 30.915 13.523 30.915 29.667 0 16.006-11.041 29.667-30.915 29.667h-23.463zm-86.444 0h-65.135V2.468h65.135v17.248h-45.54v19.456h44.574V56.42H369.44v20.836h45.539zm-91.44 0h-19.737V30.065l-25.946 64.439H269.3l-25.946-64.439v64.439h-19.598V2.468h27.465l22.358 55.608 22.358-55.608h27.602zm-169.84-15.722c16.977 0 28.019-13.11 28.019-30.222 0-17.25-11.042-30.222-28.019-30.222-16.977 0-27.88 12.972-27.88 30.222 0 17.112 10.903 30.222 27.88 30.222zm0 17.388c-27.74 0-48.028-19.872-48.028-47.61S125.959.95 153.699.95c27.879 0 48.167 19.872 48.167 47.61s-20.288 47.61-48.167 47.61zm-69.78-1.666H64.183V55.868H20.708v38.636H1.11V2.468h19.598V38.62h43.475V2.468h19.736z"/><path fill="none" stroke="#008e54" stroke-miterlimit="50" stroke-width=".7" d="M836.226 94.504h-65.145V2.468h65.145v17.248H790.68v19.456h44.58V56.42h-44.58v20.836h45.546zm-128.02 1.804c-26.915 0-49-18.768-49-47.748 0-29.118 22.085-47.61 49-47.61 19.187 0 31.195 9.66 38.097 20.562l-16.288 8.832c-4.14-6.486-12.008-12.006-21.808-12.006-16.702 0-28.849 12.834-28.849 30.222s12.147 30.222 28.849 30.222c8.143 0 15.873-3.588 19.6-7.038v-11.04h-24.293V43.592h43.893V78.92c-9.386 10.488-22.499 17.388-39.2 17.388zM618.274 61.67l-14.357-39.606-14.357 39.606zm33.405 32.834h-22.36l-5.66-15.592h-39.475l-5.797 15.592h-22.36l35.61-92.036h24.57zM522.264 44.558c7.73 0 13.528-4.83 13.528-12.42 0-7.728-5.798-12.42-13.528-12.42H501.42v24.84zm-20.841 49.946h-19.599V2.468h43.062c20.012 0 30.915 13.523 30.915 29.667 0 16.006-11.041 29.667-30.915 29.667h-23.463zm-86.444 0h-65.135V2.468h65.135v17.248h-45.54v19.456h44.574V56.42H369.44v20.836h45.539zm-91.44 0h-19.737V30.065l-25.946 64.439H269.3l-25.946-64.439v64.439h-19.598V2.468h27.465l22.358 55.608 22.358-55.608h27.602zm-169.84-15.722c16.977 0 28.019-13.11 28.019-30.222 0-17.25-11.042-30.222-28.019-30.222-16.977 0-27.88 12.972-27.88 30.222 0 17.112 10.903 30.222 27.88 30.222zm0 17.388c-27.74 0-48.028-19.872-48.028-47.61S125.959.95 153.699.95c27.879 0 48.167 19.872 48.167 47.61s-20.288 47.61-48.167 47.61zm-69.78-1.666H64.183V55.868H20.708v38.636H1.11V2.468h19.598V38.62h43.475V2.468h19.736z"/></g></g></svg>