<svg xmlns="http://www.w3.org/2000/svg" width="533" height="98" viewBox="0 0 533 98"><g><g><path fill="none" d="M531.786 94.994h-65.145V2.958h65.145v17.248H486.24v19.456h44.58V56.91h-44.58v20.836h45.546zm-86.896 0h-58.521V2.958h19.599v74.788h38.922zm-84.827 0h-19.605V2.958h19.605zM285.721 78.03c7.454 0 11.871-4.002 11.871-10.626 0-5.796-4.14-10.764-11.87-10.764h-25.26v21.39zm-.696-38.226c6.624 0 10.763-4.14 10.763-9.936s-4.14-10.074-10.763-10.074H260.46v20.01zm5.802 55.19h-49.962V2.958h48.444c17.528 0 26.499 11.177 26.499 23.457 0 11.591-7.177 19.318-15.872 21.112 9.8 1.518 17.666 11.039 17.666 22.63 0 13.798-9.247 24.837-26.775 24.837zM170.81 79.272c16.977 0 28.018-13.11 28.018-30.222 0-17.25-11.041-30.222-28.018-30.222S142.93 31.8 142.93 49.05c0 17.112 10.903 30.222 27.88 30.222zm0 17.388c-27.74 0-48.028-19.872-48.028-47.61S143.069 1.44 170.81 1.44c27.878 0 48.166 19.872 48.166 47.61s-20.288 47.61-48.166 47.61zm-69.918-1.666H81.157V30.555L55.21 94.994h-8.556L20.708 30.555v64.439H1.11V2.958h27.464l22.358 55.608L73.29 2.958h27.602z"/><path fill="none" stroke="#fff" stroke-miterlimit="50" stroke-width=".7" d="M531.786 94.994h-65.145V2.958h65.145v17.248H486.24v19.456h44.58V56.91h-44.58v20.836h45.546zm-86.896 0h-58.521V2.958h19.599v74.788h38.922zm-84.827 0h-19.605V2.958h19.605zM285.721 78.03c7.454 0 11.871-4.002 11.871-10.626 0-5.796-4.14-10.764-11.87-10.764h-25.26v21.39zm-.696-38.226c6.624 0 10.763-4.14 10.763-9.936s-4.14-10.074-10.763-10.074H260.46v20.01zm5.802 55.19h-49.962V2.958h48.444c17.528 0 26.499 11.177 26.499 23.457 0 11.591-7.177 19.318-15.872 21.112 9.8 1.518 17.666 11.039 17.666 22.63 0 13.798-9.247 24.837-26.775 24.837zM170.81 79.272c16.977 0 28.018-13.11 28.018-30.222 0-17.25-11.041-30.222-28.018-30.222S142.93 31.8 142.93 49.05c0 17.112 10.903 30.222 27.88 30.222zm0 17.388c-27.74 0-48.028-19.872-48.028-47.61S143.069 1.44 170.81 1.44c27.878 0 48.166 19.872 48.166 47.61s-20.288 47.61-48.166 47.61zm-69.918-1.666H81.157V30.555L55.21 94.994h-8.556L20.708 30.555v64.439H1.11V2.958h27.464l22.358 55.608L73.29 2.958h27.602z"/></g></g></svg>