<svg xmlns="http://www.w3.org/2000/svg" width="1240" height="69" viewBox="0 0 1240 69"><g><g><path fill="none" d="M1210.91 68.278c-19.11 0-34.79-13.328-34.79-33.908 0-20.678 15.68-33.81 34.79-33.81 13.621 0 22.147 6.86 27.047 14.602l-11.564 6.272c-2.94-4.606-8.526-8.526-15.484-8.526-11.858 0-20.482 9.114-20.482 21.462 0 12.348 8.624 21.462 20.482 21.462 5.782 0 11.27-2.548 13.916-4.998v-7.84h-17.248V30.842h31.164V55.93c-6.664 7.448-15.974 12.348-27.832 12.348zm-50.343-1.284h-13.426l-31.164-42.624v42.624h-13.916V1.638h14.308l30.282 41.056V1.638h13.916zm-77.204 0h-13.906V1.638h13.906zm-32.496 0h-14.014V39.558h-30.87v27.436h-13.916V1.638h13.916V27.31h30.87V1.638h14.014zM950.642 68.18c-19.6 0-34.79-13.72-34.79-33.81 0-20.09 15.19-33.81 34.79-33.81 14.406 0 22.736 7.84 27.342 15.974l-11.956 5.88c-2.744-5.292-8.624-9.506-15.386-9.506-11.858 0-20.482 9.114-20.482 21.462 0 12.348 8.624 21.462 20.482 21.462 6.762 0 12.642-4.116 15.386-9.506l11.956 5.782c-4.704 8.134-12.936 16.072-27.342 16.072zm-62.984-1.186h-14.014V13.886h-19.11V1.638h52.136v12.248h-19.012zm-58.378-23.31l-10.192-28.132-10.192 28.132zm23.726 23.31h-15.878l-4.019-11.072h-28.032l-4.117 11.072h-15.878L810.37 1.638h17.446zm-87.6 0H750.61l-11.465-44.877-11.367 44.877h-14.796L694.266 1.638h15.58l11.465 47.229 12.445-47.23h10.876l12.347 47.23 11.367-47.23h15.678zm-135.858-35.46c5.586 0 9.8-3.334 9.8-8.824s-4.214-8.824-9.8-8.824h-14.602v17.647zm24.402 35.46h-15.974l-12.838-23.222h-10.192v23.222H601.03V1.638h30.576c13.622 0 21.952 8.917 21.952 21.067 0 11.562-7.252 17.735-14.308 19.4zm-102.675-11.16c12.054 0 19.894-9.311 19.894-21.464 0-12.251-7.84-21.464-19.894-21.464-12.054 0-19.796 9.213-19.796 21.464 0 12.153 7.742 21.464 19.796 21.464zm0 12.346c-19.698 0-34.104-14.112-34.104-33.81S531.577.56 551.275.56c19.796 0 34.202 14.112 34.202 33.81s-14.406 33.81-34.202 33.81zm-78.765-1.186h-13.913V1.638h46.246v12.248H472.51v13.816h31.647V39.95H472.51zm-86.074 1.186c-12.546 0-21.564-4.214-27.641-10.388l7.547-10.584c4.607 4.802 11.762 8.82 20.78 8.82 7.646 0 11.37-3.528 11.37-7.252 0-11.564-37.639-3.626-37.639-28.224 0-10.878 9.41-19.894 24.799-19.894 10.39 0 19.015 3.136 25.485 9.114l-7.744 10.192c-5.293-4.9-12.35-7.154-19.015-7.154-5.98 0-9.312 2.646-9.312 6.566 0 10.388 37.54 3.43 37.54 27.832 0 11.956-8.527 20.972-26.17 20.972zm-35.353-1.186h-17.15l-19.796-26.162-5.096 6.075v20.087h-13.916V1.638h13.916v29.2l23.128-29.2h17.15l-25.97 30.67zm-74.646 0H263.01L231.847 24.37v42.624H217.93V1.638h14.308l30.282 41.056V1.638h13.916zm-94.04-23.31l-10.198-28.132-10.197 28.132zm23.705 23.31h-15.876l-4.018-11.072H158.18l-4.116 11.072h-15.876l25.284-65.356h17.444zm-79.546 0h-14.014V39.558h-30.87v27.436H67.756V1.638h13.916V27.31h30.87V1.638h14.014zm-92.482 0H20.06V13.886H.95V1.638h52.136v12.248H34.074z"/><path fill="none" stroke="#fff" stroke-miterlimit="50" stroke-width=".7" d="M1210.91 68.278c-19.11 0-34.79-13.328-34.79-33.908 0-20.678 15.68-33.81 34.79-33.81 13.621 0 22.147 6.86 27.047 14.602l-11.564 6.272c-2.94-4.606-8.526-8.526-15.484-8.526-11.858 0-20.482 9.114-20.482 21.462 0 12.348 8.624 21.462 20.482 21.462 5.782 0 11.27-2.548 13.916-4.998v-7.84h-17.248V30.842h31.164V55.93c-6.664 7.448-15.974 12.348-27.832 12.348zm-50.343-1.284h-13.426l-31.164-42.624v42.624h-13.916V1.638h14.308l30.282 41.056V1.638h13.916zm-77.204 0h-13.906V1.638h13.906zm-32.496 0h-14.014V39.558h-30.87v27.436h-13.916V1.638h13.916V27.31h30.87V1.638h14.014zM950.642 68.18c-19.6 0-34.79-13.72-34.79-33.81 0-20.09 15.19-33.81 34.79-33.81 14.406 0 22.736 7.84 27.342 15.974l-11.956 5.88c-2.744-5.292-8.624-9.506-15.386-9.506-11.858 0-20.482 9.114-20.482 21.462 0 12.348 8.624 21.462 20.482 21.462 6.762 0 12.642-4.116 15.386-9.506l11.956 5.782c-4.704 8.134-12.936 16.072-27.342 16.072zm-62.984-1.186h-14.014V13.886h-19.11V1.638h52.136v12.248h-19.012zm-58.378-23.31l-10.192-28.132-10.192 28.132zm23.726 23.31h-15.878l-4.019-11.072h-28.032l-4.117 11.072h-15.878L810.37 1.638h17.446zm-87.6 0H750.61l-11.465-44.877-11.367 44.877h-14.796L694.266 1.638h15.58l11.465 47.229 12.445-47.23h10.876l12.347 47.23 11.367-47.23h15.678zm-135.858-35.46c5.586 0 9.8-3.334 9.8-8.824s-4.214-8.824-9.8-8.824h-14.602v17.647zm24.402 35.46h-15.974l-12.838-23.222h-10.192v23.222H601.03V1.638h30.576c13.622 0 21.952 8.917 21.952 21.067 0 11.562-7.252 17.735-14.308 19.4zm-102.675-11.16c12.054 0 19.894-9.311 19.894-21.464 0-12.251-7.84-21.464-19.894-21.464-12.054 0-19.796 9.213-19.796 21.464 0 12.153 7.742 21.464 19.796 21.464zm0 12.346c-19.698 0-34.104-14.112-34.104-33.81S531.577.56 551.275.56c19.796 0 34.202 14.112 34.202 33.81s-14.406 33.81-34.202 33.81zm-78.765-1.186h-13.913V1.638h46.246v12.248H472.51v13.816h31.647V39.95H472.51zm-86.074 1.186c-12.546 0-21.564-4.214-27.641-10.388l7.547-10.584c4.607 4.802 11.762 8.82 20.78 8.82 7.646 0 11.37-3.528 11.37-7.252 0-11.564-37.639-3.626-37.639-28.224 0-10.878 9.41-19.894 24.799-19.894 10.39 0 19.015 3.136 25.485 9.114l-7.744 10.192c-5.293-4.9-12.35-7.154-19.015-7.154-5.98 0-9.312 2.646-9.312 6.566 0 10.388 37.54 3.43 37.54 27.832 0 11.956-8.527 20.972-26.17 20.972zm-35.353-1.186h-17.15l-19.796-26.162-5.096 6.075v20.087h-13.916V1.638h13.916v29.2l23.128-29.2h17.15l-25.97 30.67zm-74.646 0H263.01L231.847 24.37v42.624H217.93V1.638h14.308l30.282 41.056V1.638h13.916zm-94.04-23.31l-10.198-28.132-10.197 28.132zm23.705 23.31h-15.876l-4.018-11.072H158.18l-4.116 11.072h-15.876l25.284-65.356h17.444zm-79.546 0h-14.014V39.558h-30.87v27.436H67.756V1.638h13.916V27.31h30.87V1.638h14.014zm-92.482 0H20.06V13.886H.95V1.638h52.136v12.248H34.074z"/></g></g></svg>