<svg xmlns="http://www.w3.org/2000/svg" width="487" height="98" viewBox="0 0 487 98"><g><g opacity="1"><path fill="none" d="M451.908 45.048c7.866 0 13.8-4.692 13.8-12.42s-5.934-12.42-13.8-12.42h-20.562v24.84zm34.362 49.946h-22.494l-18.078-32.702h-14.352v32.702H411.75V2.958h43.056c19.182 0 30.912 12.557 30.912 29.667 0 16.282-10.212 24.975-20.148 27.32zM341.688 79.272c16.974 0 28.014-13.11 28.014-30.222 0-17.25-11.04-30.222-28.014-30.222S313.812 31.8 313.812 49.05c0 17.112 10.902 30.222 27.876 30.222zm0 17.388c-27.738 0-48.024-19.872-48.024-47.61S313.95 1.44 341.688 1.44c27.876 0 48.162 19.872 48.162 47.61s-20.286 47.61-48.162 47.61zm-61.644-1.666h-58.512V2.958h19.596v74.788h38.916zM151.47 79.272c16.974 0 28.014-13.11 28.014-30.222 0-17.25-11.04-30.222-28.014-30.222S123.594 31.8 123.594 49.05c0 17.112 10.902 30.222 27.876 30.222zm-.005 17.388c-27.735 0-48.019-19.872-48.019-47.61S123.73 1.44 151.465 1.44c27.873 0 48.157 19.872 48.157 47.61s-20.284 47.61-48.157 47.61zm-101.935 0C21.93 96.66.54 77.34.54 49.05S21.93 1.44 49.53 1.44c20.286 0 32.016 11.04 38.502 22.494l-16.836 8.28c-3.864-7.452-12.144-13.386-21.666-13.386-16.698 0-28.842 12.834-28.842 30.222S32.832 79.272 49.53 79.272c9.522 0 17.802-5.796 21.666-13.386l16.836 8.142C81.408 85.482 69.816 96.66 49.53 96.66z"/><path fill="none" stroke="#fff" stroke-miterlimit="50" stroke-width=".7" d="M451.908 45.048c7.866 0 13.8-4.692 13.8-12.42s-5.934-12.42-13.8-12.42h-20.562v24.84zm34.362 49.946h-22.494l-18.078-32.702h-14.352v32.702H411.75V2.958h43.056c19.182 0 30.912 12.557 30.912 29.667 0 16.282-10.212 24.975-20.148 27.32zM341.688 79.272c16.974 0 28.014-13.11 28.014-30.222 0-17.25-11.04-30.222-28.014-30.222S313.812 31.8 313.812 49.05c0 17.112 10.902 30.222 27.876 30.222zm0 17.388c-27.738 0-48.024-19.872-48.024-47.61S313.95 1.44 341.688 1.44c27.876 0 48.162 19.872 48.162 47.61s-20.286 47.61-48.162 47.61zm-61.644-1.666h-58.512V2.958h19.596v74.788h38.916zM151.47 79.272c16.974 0 28.014-13.11 28.014-30.222 0-17.25-11.04-30.222-28.014-30.222S123.594 31.8 123.594 49.05c0 17.112 10.902 30.222 27.876 30.222zm-.005 17.388c-27.735 0-48.019-19.872-48.019-47.61S123.73 1.44 151.465 1.44c27.873 0 48.157 19.872 48.157 47.61s-20.284 47.61-48.157 47.61zm-101.935 0C21.93 96.66.54 77.34.54 49.05S21.93 1.44 49.53 1.44c20.286 0 32.016 11.04 38.502 22.494l-16.836 8.28c-3.864-7.452-12.144-13.386-21.666-13.386-16.698 0-28.842 12.834-28.842 30.222S32.832 79.272 49.53 79.272c9.522 0 17.802-5.796 21.666-13.386l16.836 8.142C81.408 85.482 69.816 96.66 49.53 96.66z"/></g></g></svg>