<svg xmlns="http://www.w3.org/2000/svg" width="992" height="97" viewBox="0 0 992 97"><g><g><path fill="none" stroke="#008e54" stroke-miterlimit="50" stroke-width="1" d="M955.762 94.494h-19.598v-37.67l-35.47-54.366h22.358l22.911 36.98 22.635-36.98h22.358l-35.194 54.366zm-71.448 0H864.58V55.858h-43.47v38.636h-19.596V2.458h19.596V38.61h43.47V2.458h19.734zm-136.578-49.94c7.728 0 13.524-4.832 13.524-12.424 0-7.73-5.796-12.424-13.524-12.424h-20.838v24.847zm-20.838 49.94h-19.596V2.458h43.056c20.01 0 30.912 13.522 30.912 29.667 0 16.006-11.04 29.667-30.912 29.667h-23.46zm-69.648-32.83l-14.352-39.612-14.352 39.612zm33.406 32.83h-22.358l-5.659-15.592h-39.472l-5.797 15.592h-22.358L630.62 2.458h24.566zm-142.522-49.94c7.866 0 13.8-4.694 13.8-12.424 0-7.73-5.934-12.424-13.8-12.424h-20.562v24.847zm34.362 49.94h-22.494l-18.078-32.702h-14.352v32.702h-19.596V2.458h43.056c19.182 0 30.912 12.557 30.912 29.667 0 16.282-10.212 24.975-20.148 27.32zM445.09 96.298c-26.91 0-48.99-18.768-48.99-47.748 0-29.118 22.08-47.61 48.99-47.61 19.182 0 31.188 9.66 38.088 20.562l-16.284 8.832c-4.14-6.486-12.006-12.006-21.804-12.006-16.698 0-28.842 12.834-28.842 30.222s12.144 30.222 28.842 30.222c8.142 0 15.87-3.588 19.596-7.038v-11.04h-24.288V43.582h43.884V78.91c-9.384 10.488-22.494 17.388-39.192 17.388zM330.454 78.774c16.974 0 28.014-13.11 28.014-30.224 0-17.251-11.04-30.224-28.014-30.224S302.578 31.3 302.578 48.55c0 17.113 10.902 30.224 27.876 30.224zm0 17.386c-27.738 0-48.024-19.872-48.024-47.61S302.716.94 330.454.94c27.876 0 48.162 19.872 48.162 47.61s-20.286 47.61-48.162 47.61zm-97.386-51.607c7.728 0 13.524-4.831 13.524-12.423 0-7.73-5.796-12.424-13.524-12.424H212.23v24.847zM212.23 94.494h-19.596V2.458h43.056c20.01 0 30.912 13.522 30.912 29.667 0 16.006-11.04 29.667-30.912 29.667h-23.46zm-71.442 0h-19.596v-37.67L85.726 2.458h22.356l22.908 36.98 22.632-36.98h22.356l-35.19 54.366zm-92.694 0H28.36V19.706H1.45V2.458h73.416v17.248H48.094z"/></g></g></svg>