<svg xmlns="http://www.w3.org/2000/svg" width="235" height="234" viewBox="0 0 235 234"><defs><clipPath id="28kea"><path fill="#fff" d="M25.01 58.43c0-18.778 15.222-34 34-34h117c18.778 0 34 15.222 34 34v117c0 18.778-15.222 34-34 34h-117c-18.778 0-34-15.222-34-34z"/></clipPath></defs><g><g clip-path="url(#clip-893CB4FF-287A-4D98-9BE6-59935DFD1F43)" transform="rotate(-227 118 117)"><path fill="#008e54" d="M45.01 116.43c0-39.764 32.236-72 72-72h1c39.764 0 72 32.236 72 72v1c0 39.764-32.236 72-72 72h-1c-39.765 0-72-32.236-72-72z"/></g><g clip-path="url(#clip-893CB4FF-287A-4D98-9BE6-59935DFD1F43)" transform="rotate(-227 117.5 117)"><path fill="none" stroke="#00904e" stroke-miterlimit="50" stroke-width="2" d="M25.01 58.43c0-18.778 15.222-34 34-34h117c18.778 0 34 15.222 34 34v117c0 18.778-15.222 34-34 34h-117c-18.778 0-34-15.222-34-34z" clip-path="url(&quot;#28kea&quot;)"/></g></g></svg>