<svg xmlns="http://www.w3.org/2000/svg" width="1474" height="452" viewBox="0 0 1474 452"><defs><linearGradient id="p0t5b" x1="1127.99" x2="1326.92" y1="460.52" y2="277.93" gradientUnits="userSpaceOnUse"><stop offset="0" stop-color="#1b5940" stop-opacity="0"/><stop offset="1" stop-color="#05a764"/></linearGradient><filter id="p0t5a" width="148%" height="148%" x="-14%" y="-14%" filterUnits="objectBoundingBox"><feGaussianBlur in="SourceGraphic" result="FeGaussianBlur1019Out" stdDeviation="10 10"/></filter><linearGradient id="p0t5d" x1="569.17" x2="141.86" y1="-42.23" y2="461.28" gradientUnits="userSpaceOnUse"><stop offset="0" stop-color="#1b5940"/><stop offset="1" stop-color="#008e54"/></linearGradient><filter id="p0t5c" width="144%" height="144%" x="-12%" y="-12%" filterUnits="objectBoundingBox"><feGaussianBlur in="SourceGraphic" result="FeGaussianBlur1029Out" stdDeviation="10 10"/></filter></defs><g><g clip-path="url(#clip-893CB4FF-287A-4D98-9BE6-59935DFD1F43)" filter="url(#p0t5a)" transform="rotate(-227 1207.5 383.5)"><path fill="url(#p0t5b)" d="M1025.01 235.91c0-18.778 15.222-34 34-34h297c18.778 0 34 15.222 34 34v297c0 18.778-15.222 34-34 34h-297c-18.778 0-34-15.222-34-34z"/></g><g clip-path="url(#clip-893CB4FF-287A-4D98-9BE6-59935DFD1F43)" filter="url(#p0t5c)" transform="rotate(-39 376.5 219.5)"><path fill="url(#p0t5d)" d="M114 2.77c0-24.853 20.147-45 45-45h434c24.853 0 45 20.147 45 45v434c0 24.853-20.147 45-45 45H159c-24.853 0-45-20.147-45-45z"/></g></g></svg>