<svg xmlns="http://www.w3.org/2000/svg" width="384" height="132" viewBox="0 0 384 132"><g><g><g><path fill="#008e54" d="M54.73 23.24h49.077l-.113 62.728-48.964 25.385z"/></g><g><path fill="#008e54" d="M49.21 23.24H.02l.113 62.728 49.077 25.385z"/></g><g><path fill="#cc6f28" d="M103.7 85.966L73.575 38.92 51.915 59.679 30.253 38.92.13 85.966c0 16.585 11.17 27.416 23.015 34.41 1.129.677 2.257 1.354 3.498 1.918 7.108 3.723 14.666 6.318 22.338 8.688 2.031.564 3.836.676 5.867 0 8.8-2.595 17.261-5.641 25.272-10.267l.677-.339c11.846-6.994 22.902-17.938 22.902-34.41"/></g><g><path fill="#008e54" d="M49.21 23.24H.02l.113 62.728 49.077 25.385z"/></g><g><path fill="#e8812f" d="M51.915 59.679L30.253 38.92.13 85.966c0 16.585 11.17 27.416 23.015 34.41 1.129.677 2.257 1.354 3.498 1.918 7.108 3.723 14.666 6.318 22.338 8.688 1.016.338 1.918.45 2.934.45z"/></g><g><path fill="#d1a471" d="M52.253 72.882c18.164 0 30.01-6.883 31.138-18.729-1.58-3.046-4.287-5.64-6.205-8.687-.902-1.354-1.692-2.82-2.595-4.174-.564-.903-1.354-7.56-2.143-7.56-3.498-.112-11.508-.112-17.375-.112h-1.692l2.03 19.18c.114 1.24-.45 2.482-1.804 2.482H52.14"/></g><g><path fill="#b0612c" d="M62.403 62.5c1.128 0 2.256.226 3.384.451 4.4 1.128 8.349 2.82 11.395 6.544 3.498 4.287 4.513 9.815 4.739 15.23.225 5.754-.339 11.396-1.016 17.037-.113 1.015-.677 2.707-.338 3.723.338 1.128 1.58 1.805 1.692 3.159.226 2.143-2.933 3.835-1.015 5.753-3.047.79-5.867-3.61-5.303-6.205.339-1.805 1.692-1.805 1.354-3.723-.339-2.03-.903-4.061-1.354-6.092-.79-3.836-1.467-7.785-2.482-11.62-.79-2.934-2.482-6.093-5.641-6.544-3.61-.564-7.446.677-10.944-.677-3.271-1.354-4.964-4.851-4.964-8.236 0-.338-.225-2.144 0-2.37.226-.225 1.805-.45 2.144-.676.564-.339.902-.903 1.467-1.241.79-.339 1.579-.226 2.369-.451.564-.226 1.128-.565 1.466-1.016.565-.677.339-1.467.677-2.03.564-.903 1.354-1.016 2.37-1.016"/></g><g><path fill="#ecc202" d="M80.686 106.392H77.3a1.252 1.252 0 0 1-1.241-1.241c0-.677.564-1.241 1.241-1.241h3.385c.677 0 1.24.564 1.24 1.241-.112.677-.676 1.241-1.24 1.241"/></g><g><path fill="#b0612c" d="M52.25 69.38h1.918v1.692H52.25z"/></g><g><path fill="#413f3f" d="M60.71 49.08c1.353-4.512 8.8-4.173 10.379 0 .338.79 1.692.452 1.353-.338-2.03-5.415-11.282-5.866-13.087 0-.225.79 1.128 1.129 1.354.339"/></g><g><path fill="#d1a471" d="M51.578 72.886c-18.164 0-30.01-6.882-31.138-18.728 1.58-3.046 4.287-5.641 6.205-8.687.903-1.354 1.692-2.82 2.595-4.175.564-.902 1.354-2.03 2.144-2.143 3.497-.113 11.507-.113 17.374-.113h1.692l-2.03 13.764c-.113 1.241.45 2.482 1.805 2.482h1.466"/></g><g><path fill="#e8bb80" d="M51.578 72.884c-18.164 0-30.01-6.882-31.138-18.728 1.58-3.047 4.287-5.641 6.205-8.688.903-1.353 1.692-2.82 2.595-4.174.564-.902 1.354-4.851 2.144-4.851 3.497-.113 11.507-.113 17.374-.113h1.692l-2.03 16.472c-.113 1.24.45 2.482 1.805 2.482h1.466"/></g><g><path fill="#d27334" d="M41.538 62.5c-1.128 0-2.256.226-3.385.451-4.4 1.128-8.348 2.82-11.394 6.544-3.498 4.287-4.513 9.815-4.739 15.23-.226 5.754.339 11.396 1.015 17.037.113 1.015.677 2.707.339 3.723-.339 1.128-1.58 1.805-1.692 3.159-.226 2.143 2.933 3.835 1.015 5.753 3.046.79 5.867-3.61 5.303-6.205-.339-1.805-1.693-1.805-1.354-3.723.338-2.03.902-4.061 1.354-6.092.79-3.836 1.466-7.785 2.482-11.62.79-2.934 2.482-6.093 5.64-6.544 3.61-.564 7.447.677 10.944-.677 3.272-1.354 4.964-4.739 4.964-8.236 0-.338.226-2.144 0-2.37-.225-.225-1.805-.45-2.143-.676-.564-.339-.903-.903-1.467-1.241-.79-.339-1.58-.226-2.37-.451-.563-.226-1.127-.565-1.466-1.016-.564-.677-.338-1.467-.677-2.03-.564-.903-1.466-1.016-2.369-1.016"/></g><g><path fill="#ecc202" d="M23.261 106.392h3.385c.677 0 1.24-.564 1.24-1.241 0-.677-.563-1.241-1.24-1.241H23.26c-.677 0-1.241.564-1.241 1.241 0 .677.564 1.241 1.241 1.241"/></g><g><path fill="#d27334" d="M49.99 69.38h1.918v2.482H49.99z"/></g><g><path fill="#b0612c" d="M53.828 69.38H51.91v2.482h1.918z"/></g><g><path fill="#413f3f" d="M43.117 49.08c-1.354-4.512-8.8-4.173-10.38 0-.338.79-1.692.452-1.353-.338 2.03-5.415 11.282-5.866 13.087 0 .226.79-1.128 1.129-1.354.339"/></g><g><path fill="#ffe1b9" d="M57.217 60.698c-.452 0-.79-.339-.903-.79L55.3 49.98c-.903.677-2.031 5.303-3.272 5.303H51.8c-1.24 0-2.369-4.626-3.272-5.303l-1.015 10.041c0 .451-.451.79-.902.79-2.257 0-4.062 1.466-4.062 3.159 0 1.805 1.805 3.159 4.062 3.159.564 0 1.128.225 1.579.677.79.902 2.03 1.466 3.385 1.466h.451c1.354 0 2.595-.564 3.385-1.466.338-.452.902-.677 1.579-.677 2.256 0 4.062-1.467 4.062-3.16.225-1.804-1.58-3.271-3.836-3.271"/></g><g><path fill="#fff" d="M144.082 63.63c-.902-.902-1.805-1.692-2.707-2.03a6.582 6.582 0 0 0-2.934-.677c-1.24 0-2.256.339-3.046 1.128-.79.79-1.24 1.693-1.24 2.82 0 1.016.338 1.806.902 2.596.677.79 1.805 1.692 3.384 2.707 2.482 1.58 4.175 3.047 5.19 4.4 1.015 1.354 1.467 2.934 1.467 4.852 0 2.482-.903 4.512-2.595 6.205-1.805 1.692-3.949 2.482-6.657 2.482-1.353 0-2.482-.113-3.384-.339a33.735 33.735 0 0 1-3.272-1.015v-5.641c.903 1.128 1.918 2.03 2.82 2.482 1.016.564 2.031.79 3.272.79 1.467 0 2.708-.452 3.723-1.241 1.016-.903 1.467-1.918 1.467-3.16 0-1.127-.338-2.143-1.015-2.933-.677-.79-1.805-1.805-3.498-2.82-2.369-1.58-4.061-2.933-5.077-4.287-1.015-1.354-1.466-2.82-1.466-4.513 0-2.37.902-4.287 2.707-5.867 1.805-1.58 4.062-2.369 6.77-2.369 1.128 0 2.03.113 2.933.338.902.226 1.692.452 2.37.903v5.19z"/></g><g><path fill="#fff" d="M169.813 65.552l3.95 9.025h-7.787zm-9.933 13.425c-1.128 2.482-2.144 4.287-2.82 5.528-.79 1.354-1.58 2.37-2.37 3.16h7.446c-.225-.678-.113-1.919.339-3.61a35.632 35.632 0 0 1 1.805-5.19l.113-.452h11.056l1.015 2.256c.564 1.58 1.016 2.934 1.354 4.175.339 1.24.339 2.256.226 2.82h7.559c-.79-.79-1.467-1.805-2.257-3.046-.79-1.24-1.805-3.159-2.933-5.64L170.146 57.09z"/></g><g><path fill="#fff" d="M196.32 87.657c.338-1.353.677-2.594.79-3.948.113-1.241.225-2.82.225-4.739V66.447c0-1.918-.112-3.497-.225-4.738-.113-1.241-.452-2.595-.79-3.949h6.544c-.339 1.354-.677 2.595-.79 3.949a51.218 51.218 0 0 0-.226 4.738v17.939c2.257-.113 4.175-.226 5.641-.564 2.37-.452 4.4-1.129 6.205-2.144l-1.24 3.046-1.242 3.046H196.32z"/></g><g><path fill="#fff" d="M225.43 87.657c.338-1.353.677-2.594.79-3.948.113-1.241.225-2.82.225-4.739V66.447c0-1.918-.112-3.497-.225-4.738-.113-1.241-.452-2.595-.79-3.949h16.585l-1.129 2.482-1.128 2.482c-1.128-.564-2.256-1.015-3.384-1.24-1.129-.227-2.482-.34-4.062-.34h-1.241v9.816h9.928l-1.354 2.482-1.353 2.482c-1.016-.564-1.918-1.015-3.047-1.24-1.015-.227-2.369-.34-3.948-.34h-.226v10.38c2.708-.113 4.964-.226 6.656-.564 2.37-.451 4.4-1.128 6.206-2.144l-1.241 3.047-1.241 3.046H225.43z"/></g><g><path fill="#008e54" d="M255.665 78.97V66.447c0-1.918-.112-3.497-.225-4.738-.113-1.241-.452-2.595-.79-3.949h6.544c-.339 1.354-.677 2.595-.79 3.949a51.218 51.218 0 0 0-.226 4.738v4.062h12.749v-4.062c0-1.918-.113-3.497-.226-4.738-.113-1.241-.451-2.595-.79-3.949h6.544c-.338 1.354-.677 2.595-.79 3.949a51.218 51.218 0 0 0-.225 4.738V78.97c0 1.918.113 3.498.225 4.739.113 1.24.452 2.595.79 3.948H271.912c.338-1.353.676-2.594.79-3.948.112-1.241.225-2.82.225-4.739v-4.625h-12.749v4.625c0 1.918.113 3.498.226 4.739.113 1.24.451 2.595.79 3.948h-6.544c.338-1.353.677-2.594.79-3.948.113-1.241.225-2.82.225-4.739"/></g><g><path fill="#008e54" d="M292.33 87.657c.338-1.353.677-2.594.79-3.948.113-1.241.225-2.82.225-4.739V66.447c0-1.918-.112-3.497-.225-4.738-.113-1.241-.452-2.595-.79-3.949h16.585l-1.129 2.482-1.128 2.482c-1.128-.564-2.256-1.015-3.384-1.24-1.129-.227-2.482-.34-4.062-.34h-1.241v9.816h9.928l-1.354 2.482-1.353 2.482c-1.016-.564-1.918-1.015-3.047-1.24-1.015-.227-2.369-.34-3.948-.34h-.226v10.38c2.708-.113 4.964-.226 6.656-.564 2.37-.451 4.4-1.128 6.206-2.144l-1.241 3.047-1.241 3.046H292.33z"/></g><g><path fill="#008e54" d="M327.311 60.693c2.034.113 3.728.565 4.971 1.581 1.356 1.016 2.034 2.484 2.034 4.178 0 1.92-.678 3.5-2.147 4.63-1.243 1.016-2.937 1.58-4.858 1.693zm-4.513 18.277c0 1.918-.113 3.498-.338 4.739-.113 1.354-.452 2.595-.79 3.948h6.544c-.339-1.353-.677-2.707-.79-3.948a51.218 51.218 0 0 1-.226-4.739v-5.19l.79 1.242c1.467 2.256 3.272 4.512 5.303 6.994 2.03 2.482 3.835 4.288 5.415 5.641h5.302c-2.143-2.369-3.835-4.4-5.076-5.866-1.241-1.467-2.37-3.046-3.385-4.513l-2.144-3.272a11.67 11.67 0 0 0 2.37-1.24c2.256-1.58 3.384-3.611 3.384-6.206 0-2.82-1.015-4.964-3.046-6.544-2.03-1.466-4.964-2.256-8.8-2.256h-5.528c.338 1.354.677 2.708.79 3.949.112 1.24.225 2.82.225 4.738z"/></g><g><path fill="#008e54" d="M375.376 81.46c-1.806 2.032-4.177 3.047-6.999 3.16-3.047 0-5.644-1.128-7.675-3.61-2.032-2.483-3.048-5.529-3.048-9.139 0-3.159.903-5.754 2.822-7.785 1.806-2.03 4.176-3.046 6.998-3.046 3.048 0 5.644 1.128 7.676 3.61 2.032 2.37 3.047 5.416 3.047 9.139 0 3.046-.903 5.641-2.821 7.672m-18.512 2.256c2.82 2.934 6.318 4.4 10.493 4.513 4.512 0 8.348-1.354 11.282-4.287 3.046-2.82 4.513-6.431 4.513-10.83 0-4.401-1.354-8.237-4.175-11.17-2.82-3.046-6.318-4.513-10.605-4.513-4.4 0-8.236 1.354-11.17 4.287-3.045 2.82-4.512 6.431-4.512 10.83 0 4.514 1.354 8.237 4.174 11.17"/></g><g><path fill="#2d2d2d" d="M38.482 12.185c-2.256 1.692-4.625 3.271-6.882 4.964-1.805 1.24-3.723 2.369-5.754 2.933-2.482.677-5.077.113-6.318-2.708-1.24-2.82-.564-5.302 1.806-7.22.79-.677 1.692-1.354 2.369-2.03 2.37-2.37 3.723-5.303 3.61-8.124a466.346 466.346 0 0 1-12.41 8.01c-1.805 1.128-3.16 2.257-4.175 3.61-2.143 2.821-2.707 6.206-1.805 10.606 1.129 5.64 4.4 9.815 8.913 12.41l.113.113c1.015 1.805 2.256 3.384 3.385 4.964 0 .113.112.113.112.225 0 .452-.112.903-.112 1.467-.339 2.595-.452 5.19-.677 7.898-.113 1.58-.226 3.384-.339 4.964l6.318-8.688c.903-1.353 1.692-2.82 2.595-4.174.564-.902 1.354-2.03 2.144-2.143 3.384-.113 11.169-.113 17.036-.113l.338.338-.564 13.539c-.113 1.24.902 2.369 2.256 2.482h2.934c1.353 0 2.256-1.129 2.256-2.482l-.677-13.652.339-.338c5.866 0 13.65 0 17.035.113.677 0 1.58 1.24 2.144 2.143.903 1.354 1.692 2.82 2.595 4.175l6.318 8.687c-.113-1.58-.226-3.272-.339-4.964a97.355 97.355 0 0 0-.677-7.898c-.112-.451-.112-1.015-.112-1.466 0-.113 0-.113.112-.226 1.242-1.58 2.37-3.272 3.385-4.964l.113-.113c4.626-2.482 7.785-6.77 8.913-12.41.902-4.4.338-7.785-1.805-10.605-1.016-1.354-2.37-2.595-4.175-3.61C84.74 5.414 80.677 2.594 76.503 0c0 2.82 1.24 5.754 3.61 8.123l2.37 2.03c2.369 1.919 3.045 4.4 1.804 7.221-1.24 2.82-3.835 3.385-6.318 2.708-2.03-.564-3.948-1.692-5.753-2.933-2.37-1.58-4.626-3.272-6.882-4.964L54.052 4.062c-1.467-1.016-2.708-1.016-4.175 0"/></g><g><path fill="#515151" d="M38.482 12.185c-2.256 1.692-4.625 3.271-6.882 4.964-1.805 1.24-3.723 2.369-5.754 2.933-2.482.677-5.077.113-6.318-2.708-1.24-2.82-.564-5.302 1.806-7.22.79-.677 1.692-1.354 2.369-2.03 2.37-2.37 3.723-5.303 3.61-8.124a466.346 466.346 0 0 1-12.41 8.01c-1.805 1.128-3.16 2.257-4.175 3.61-2.143 2.821-2.707 6.206-1.805 10.606 1.129 5.64 4.4 9.815 8.913 12.41l.113.113c1.015 1.805 2.256 3.384 3.385 4.964 0 .113.112.113.112.225 0 .452-.112.903-.112 1.467-.339 2.595-.452 5.19-.677 7.898-.113 1.58-.226 3.384-.339 4.964l6.318-8.688c.903-1.353 1.692-2.82 2.595-4.174.564-.902 1.354-2.03 2.144-2.143 3.384-.113 11.169-.113 17.036-.113l.338.338-.564 13.539c-.113 1.24.902 2.369 2.256 2.482H51.908V3.385c-.677 0-1.354.225-2.144.79"/></g><g><path fill="#bb672e" d="M66.358 37.12c.338-.113 1.015 0 1.354 0 1.58.226 2.37.339 3.723 1.016 1.467.676 2.82 1.805 3.949 2.933.564.677 2.595 2.933 1.692 3.723-.903.903-2.708-.564-3.497-1.128-3.047-2.031-4.965-3.836-8.913-3.498-1.467.113-2.708-.113-1.354-1.692.677-.677 1.918-1.128 3.046-1.354"/></g><g><path fill="#bb672e" d="M37.586 37.12c-.339-.113-1.015 0-1.354 0-1.58.226-2.37.339-3.723 1.016-1.467.676-2.82 1.805-3.949 2.933-.564.677-2.595 2.933-1.692 3.723.903.903 2.708-.564 3.497-1.128 3.047-2.031 4.965-3.836 8.913-3.498 1.467.113 2.708-.113 1.354-1.692-.79-.677-2.03-1.128-3.046-1.354"/></g></g></g></svg>