<svg xmlns="http://www.w3.org/2000/svg" width="1191" height="293" viewBox="0 0 1191 293"><defs><clipPath id="o9s6a"><path d="M391.87 85.67h231.307v207.124H391.87z"/></clipPath><clipPath id="o9s6b"><path d="M1033 48.58h157.37v243.829H1033z"/></clipPath><clipPath id="o9s6c"><path d="M.5 94.79h386.61v188.368H.5z"/></clipPath></defs><g><g><g/><g clip-path="url(#o9s6a)"><path fill="#09594d" d="M508.265 85.67c67.51 0 114.912 40.758 114.912 99.584 0 6.431-.372 18.518-.372 18.892l-1.12.75H466.48c2.974 23.374 26.115 43.75 58.564 43.75 26.131 0 53.745-11.705 67.544-21.109h1.482l20.142 29.421v1.5c-33.207 28.297-71.645 34.336-97.743 34.336-30.958 0-61.546-8.68-79.834-22.258-22.754-16.593-37.302-38.476-42.154-63.016-1.887-7.155-2.612-14.71-2.612-22.266 0-56.952 49.98-99.584 116.395-99.584zm43.656 83.008c0-17.36-11.196-43.783-43.656-43.783-20.53 0-42.528 15.103-43.27 43.783z"/></g></g><g clip-path="url(#clip-663861F5-A728-4804-8677-C858DE26021E)"><path fill="#09594d" d="M794.816 86.59c54.787 0 90.557 39.1 90.557 101.883 0 57.636-42.797 104.396-115.424 104.396-26.488 0-50.187-8.666-68.883-18.78l-43.02 10.616-1.11-1.146.255-235.247L640.75 9.247l1.144-1.147h86.813l1.16 1.147v109.945h.724c13.034-20.847 38.88-32.601 64.225-32.601M729.5 244.057c48.145 16.76 82.822-.921 82.822-54.35 0-32.573-15.623-57.228-40.995-57.228-1.843 0-3.325 0-5.208.385-36.503 4.547-36.619 44.73-36.619 56.844v54.349"/></g><g><path fill="#09594d" d="M955.162 0C930.63 0 910.54 16.934 910.54 38.015c0 20.698 20.09 37.99 44.622 37.99 24.557 0 44.598-17.292 44.598-37.99C999.76 16.935 979.719 0 955.162 0"/></g><g><path fill="#09594d" d="M909.959 95.01l-1.119 1.114 16.28 38.793v147.247l1.118 1.13H996.1l1.11-1.13V96.124l-1.11-1.114z"/></g><g><g/><g clip-path="url(#o9s6b)"><path fill="#09594d" d="M1185.934 241.748l-1.854-1.135c-17.476 3.022-59.458 10.593-59.458-21.545v-80.16h58.302l1.156-1.127V96.21l-1.156-1.118h-58.67V49.707l-1.124-1.127h-47.91l-1.133 1.127-21.897 45.385h-18.083L1033 96.21l19.19 38.942v99.05c0 23.048 13.737 58.207 64.986 58.207 20.453 0 56.841-6.803 72.456-12.471l.738-1.887z"/></g></g><g><g/><g clip-path="url(#o9s6c)"><path fill="#09594d" d="M331.701 94.79l-1.142 1.115-46.758 138.661h-1.11l-39.7-138.661-1.125-1.115h-82.852l-1.101 1.115 17.213 42.285-36.332 96.376h-1.1L85.586 95.905l-1.11-1.115H1.642L.5 95.905l82.63 186.13 1.076 1.123h79.146l1.118-1.123 35.625-86.866 28.025 86.866 1.117 1.123h79.13l1.11-1.123 77.634-186.13-1.093-1.115z"/></g></g></g></svg>