<svg width="174" height="30" fill="none" xmlns="http://www.w3.org/2000/svg"><path fill-rule="evenodd" clip-rule="evenodd" d="M27.59 12.034c1.15-2.718 3.807-4.659 6.923-4.659 2.81 0 5.263 1.579 6.566 3.882h7.792C47.21 4.787 41.41 0 34.513 0c-3.934 0-7.485 1.553-10.142 4.089l3.219 7.945z" fill="#4D72D0"/><path fill-rule="evenodd" clip-rule="evenodd" d="M19.697 1.01A6.238 6.238 0 0016.325 0a6.087 6.087 0 00-3.398 1.01C11.42 2.018 10.96 2.975 10.32 4.554L0 29.993h7.92L15.022 12.5l1.277-3.13 1.277 3.13 2.734 6.703c2.35 5.797 5.646 9.756 12.263 10.662a13.89 13.89 0 002.324.13c6.745-.156 12.365-4.892 13.975-11.258H41.08a7.454 7.454 0 01-6.566 3.882 7.53 7.53 0 01-2.861-.57c-2.887-1.216-3.423-2.872-4.496-5.511L22.303 4.58c-.665-1.605-1.099-2.562-2.606-3.572z" fill="#4D72D0"/><g clip-path="url(#clip0)"><path d="M169.688 9.575v11.682h-2.178v-7.309l-4.354 7.309h-1.882V9.575h2.177v7.548l4.413-7.548h1.824zm-18.299 0h2.235v4.074l3.119-4.074h2.648l-4.001 5.212 4.413 6.47h-2.589l-3.531-5.212v5.212h-2.236V9.575h-.058zm-6.826 4.553h.706c.53 0 .942-.06 1.177-.12.235-.06.412-.24.53-.42.117-.18.176-.419.176-.658 0-.48-.176-.78-.529-1.019-.236-.18-.706-.24-1.412-.24h-.648v2.457zm-2.177-4.553h2.295c1.236 0 2.177.12 2.707.36.529.239 1 .598 1.294 1.137.294.54.471 1.139.471 1.918 0 .838-.236 1.497-.647 2.036-.412.54-1.001.899-1.707 1.139-.412.12-1.177.18-2.295.18v4.912h-2.177V9.575h.059zm-7.178 3.115l-1.53 4.014h3.119l-1.589-4.014zm-1.118-3.115h2.177l4.472 11.682h-2.295l-.883-2.397h-4.707l-.941 2.397h-2.295l4.472-11.682zm-10.65 6.59v2.995h.53c.941 0 1.529-.12 1.883-.36.294-.24.47-.599.47-1.018 0-.48-.176-.899-.588-1.198-.353-.3-1-.42-1.883-.42h-.412zm0-4.493v2.456h.471c.529 0 .941-.12 1.235-.36.236-.24.412-.539.412-.958 0-.36-.117-.66-.353-.899-.235-.24-.647-.3-1.118-.3h-.647v.06zm-2.177 9.585V9.575h1.824c1.059 0 1.824.06 2.295.18.706.18 1.235.539 1.647 1.018.412.48.589 1.078.589 1.797a2.756 2.756 0 01-1.177 2.217c.706.36 1.177.778 1.53 1.258.294.479.47 1.078.47 1.797a3.21 3.21 0 01-.529 1.797c-.353.54-.765.959-1.295 1.198-.529.24-1.235.42-2.177.42h-3.177zm-1.883-9.645l-1.53 1.497c-1.059-1.138-2.235-1.677-3.53-1.677-1.118 0-2 .36-2.765 1.138-.765.779-1.118 1.678-1.118 2.816 0 .779.176 1.497.529 2.097a4.097 4.097 0 001.412 1.437c.589.36 1.295.54 2.06.54.647 0 1.235-.12 1.765-.36.529-.24 1.118-.659 1.765-1.318l1.471 1.558c-.824.838-1.647 1.437-2.412 1.737a7.12 7.12 0 01-2.589.48c-1.765 0-3.236-.6-4.413-1.738-1.118-1.138-1.706-2.636-1.706-4.433 0-1.138.235-2.217.764-3.115.53-.899 1.236-1.618 2.236-2.217a6.456 6.456 0 013.06-.779c.941 0 1.883.18 2.765.6a7.807 7.807 0 012.236 1.737zM96.359 12.69l-1.53 4.014h3.118L96.36 12.69zM95.24 9.575h2.177l4.471 11.682h-2.294l-.883-2.397h-4.707l-.941 2.397h-2.295L95.24 9.575zm-10.886 0h5.708v2.157h-3.53v9.525h-2.178V9.575zm-2.647 0v11.682H79.53v-7.309l-4.296 7.309h-1.882V9.575h2.177v7.548l4.412-7.548h1.766zM69.704 21.257l-3.236-8.567-3.236 8.567h-2.294L65.35 9.575h2.236L72 21.257h-2.294z" fill="#4D72D0"/></g><defs><clipPath id="clip0"><path fill="#fff" transform="translate(60.938 9.275)" d="M0 0h112.5v12.281H0z"/></clipPath></defs></svg>