<svg xmlns="http://www.w3.org/2000/svg" width="192" height="31" viewBox="0 0 192 31"><g fill="#053282"><ellipse cx="187.553" cy="26.035" rx="4.449" ry="4.402"/><path d="M158.073 0v30.27h6.435v-6.952l2.831-2.702 5.748 9.654h7.636l-8.706-14.415 7.721-7.98h-7.937l-7.251 7.679v-15.554zM155.554 12.637c-.431-.686-.6-.944-.857-1.287-3.004-3.776-6.949-4.119-8.71-4.119-2.057 0-7.592.472-10.123 6.348-1.072 2.49-1.116 4.634-1.116 5.665 0 4.46 1.672 8.452 5.877 10.509 2.275 1.116 4.246 1.247 5.235 1.247 1.63 0 5.448-.387 8.408-3.863.558-.644 1.072-1.414 1.545-2.145l-4.978-2.573c-.259.729-.429.987-.644 1.33-.385.557-1.545 1.974-3.688 2.014-1.458 0-2.404-.729-2.831-1.072-1.503-1.243-2.146-3.73-2.146-5.662 0-.429.085-4.247 2.358-5.962.986-.729 1.932-.773 2.404-.773 2.016 0 3.26 1.374 3.646 1.845.343.473.687 1.158.73 1.288l4.89-2.79zM120.198 7.198c-7.346 0-12.029 4.51-12.029 11.857 0 8.291 5.757 11.898 12.073 11.898 8.763 0 12.029-6.229 12.029-11.898 0-4.297-2.063-11.857-12.073-11.857zm.085 5.198c3.995 0 5.285 3.652 5.285 6.7 0 3.524-1.763 6.619-5.326 6.619-3.695 0-5.371-3.052-5.371-6.619 0-3.737 1.547-6.7 5.412-6.7zM83.44 0v30.27h6.336l-.256-2.354c.813.899 2.611 2.954 6.549 2.954 7.066 0 9.719-6.123 9.719-12.244 0-8.905-5.908-11.389-9.504-11.389-3.81 0-5.479 1.712-6.421 2.697v-9.934h-6.423zm11.217 12.074c3.684 0 4.712 3.426 4.712 6.807 0 3.513-1.074 7.108-4.797 7.108-3.983 0-4.881-3.725-4.881-7.108 0-2.311.428-6.807 4.966-6.807zM68.335 7.198c-7.345 0-12.028 4.51-12.028 11.857 0 8.291 5.756 11.898 12.072 11.898 8.764 0 12.028-6.229 12.028-11.898 0-4.297-2.062-11.857-12.072-11.857zm.086 5.198c3.995 0 5.284 3.652 5.284 6.7 0 3.524-1.761 6.619-5.327 6.619-3.695 0-5.37-3.052-5.37-6.619.001-3.737 1.547-6.7 5.413-6.7zM54.624 12.466v-4.591h-4.385v-6.479h-6.512v6.479h-8.462v-6.479h-6.511v6.479h-3.26v4.591h3.26v10.733c0 2.143 0 3.769.943 5.055 1.243 1.756 3.513 2.226 5.697 2.226 1.414 0 2.87-.212 3.941-.385v-5.141l-2.441.086c-1.457 0-1.628-.985-1.628-1.972v-10.602h8.462v10.733c0 2.143 0 3.769.942 5.055 1.243 1.756 3.513 2.226 5.697 2.226 1.414 0 2.87-.212 3.941-.385v-5.141l-2.442.086c-1.457 0-1.627-.985-1.627-1.972v-10.602h4.385zM12.684 7.198c-7.346 0-12.029 4.51-12.029 11.857 0 8.291 5.757 11.898 12.072 11.898 8.764 0 12.029-6.229 12.029-11.898 0-4.297-2.061-11.857-12.072-11.857zm.087 5.198c3.995 0 5.283 3.652 5.283 6.7 0 3.524-1.761 6.619-5.326 6.619-3.695 0-5.371-3.052-5.371-6.619 0-3.737 1.547-6.7 5.414-6.7z"/></g></svg>