<svg width="100" height="100" viewBox="0 0 100 100" fill="none" xmlns="http://www.w3.org/2000/svg">
<path fill-rule="evenodd" clip-rule="evenodd" d="M50 96C75.4053 96 96 75.4053 96 50C96 24.5947 75.4053 4 50 4C36.3948 4 24.1687 9.9067 15.747 19.2956C8.44257 27.4384 4 38.2004 4 50C4 75.4053 24.5947 96 50 96Z" stroke="#E1E2ED" stroke-width="7.84"/>
<path fill-rule="evenodd" clip-rule="evenodd" d="M50 88.1283C71.0577 88.1283 88.1283 71.0576 88.1283 49.9999C88.1283 28.9423 71.0577 11.8716 50 11.8716C28.9423 11.8716 11.8716 28.9423 11.8716 49.9999C11.8716 71.0576 28.9423 88.1283 50 88.1283Z" stroke="#E1E2ED" stroke-width="7.84"/>
<path d="M90.1328 27.5028C82.2528 13.4765 67.2331 4.00049 50.0001 4.00049" stroke="#FF614C" stroke-width="7.84"/>
<path d="M23.0392 76.9608C29.9387 83.8604 39.4708 88.1283 50.0001 88.1283C71.0578 88.1283 88.1284 71.0576 88.1284 49.9999C88.1284 28.9423 71.0578 11.8716 50.0001 11.8716" stroke="#6F95F5" stroke-width="7.84"/>
</svg>
