<svg width="100" height="100" viewBox="0 0 100 100" fill="none" xmlns="http://www.w3.org/2000/svg">
<path fill-rule="evenodd" clip-rule="evenodd" d="M50 96.0004C75.4053 96.0004 96 75.5152 96 50.2451C96 24.9749 75.4053 4.48975 50 4.48975C36.3948 4.48975 24.1687 10.365 15.747 19.704C8.44306 27.8034 4 38.5082 4 50.2451C4 75.5152 24.5947 96.0004 50 96.0004Z" stroke="#E1E2ED" stroke-width="7.84"/>
<path fill-rule="evenodd" clip-rule="evenodd" d="M50 88.1704C71.0577 88.1704 88.1283 71.1905 88.1283 50.2449C88.1283 29.2992 71.0577 12.3193 50 12.3193C28.9423 12.3193 11.8716 29.2992 11.8716 50.2449C11.8716 71.1905 28.9423 88.1704 50 88.1704Z" stroke="#E1E2ED" stroke-width="7.84"/>
<path d="M95.4259 42.9952C91.9328 21.1701 72.9247 4.48926 50 4.48926" stroke="#FF614C" stroke-width="7.84"/>
<path d="M79.7931 26.5754C72.806 17.8853 62.0567 12.3193 49.9998 12.3193" stroke="#6F95F5" stroke-width="7.84"/>
</svg>
