<svg width="100" height="100" viewBox="0 0 100 100" fill="none" xmlns="http://www.w3.org/2000/svg">
<path fill-rule="evenodd" clip-rule="evenodd" d="M50 96C75.4053 96 96 75.4053 96 50C96 24.5947 75.4053 4 50 4C36.3948 4 24.1687 9.9067 15.747 19.2956C8.44257 27.4384 4 38.2004 4 50C4 75.4053 24.5947 96 50 96Z" stroke="#E1E2ED" stroke-width="7.84"/>
<path fill-rule="evenodd" clip-rule="evenodd" d="M50 88.1288C71.0577 88.1288 88.1283 71.0581 88.1283 50.0004C88.1283 28.9427 71.0577 11.8721 50 11.8721C28.9423 11.8721 11.8716 28.9427 11.8716 50.0004C11.8716 71.0581 28.9423 88.1288 50 88.1288Z" stroke="#E1E2ED" stroke-width="7.84"/>
<path d="M88.0222 75.8982C93.0561 68.522 96.0001 59.6049 96.0001 50C96.0001 24.5952 75.4049 4 50.0001 4" stroke="#FF614C" stroke-width="7.84"/>
<path d="M84.4587 33.6584C78.3389 20.7774 65.2095 11.8721 50 11.8721" stroke="#6F95F5" stroke-width="7.84"/>
</svg>
