<svg width="101" height="100" viewBox="0 0 101 100" fill="none" xmlns="http://www.w3.org/2000/svg">
<path fill-rule="evenodd" clip-rule="evenodd" d="M50.4976 95.5114C76.0431 95.5941 96.8185 75.1755 96.9012 49.9058C96.9834 24.6357 76.3413 4.08344 50.7958 4.00122C37.116 3.95718 24.8031 9.79233 16.3046 19.1044C8.93352 27.1798 4.43114 37.8704 4.39325 49.6068C4.31059 74.8769 24.9522 95.4292 50.4976 95.5114Z" stroke="#E1E2ED" stroke-width="7.84"/>
<path fill-rule="evenodd" clip-rule="evenodd" d="M50.5231 87.6818C71.6971 87.7503 88.9174 70.8263 88.9858 49.8806C89.0542 28.9349 71.9446 11.8998 50.7706 11.8313C29.5967 11.7628 12.3764 28.6873 12.308 49.633C12.2396 70.5786 29.3491 87.6133 50.5231 87.6818Z" stroke="#E1E2ED" stroke-width="7.84"/>
<path d="M69.9601 91.4088C85.8538 84.201 96.9006 68.2615 96.9006 49.7558C96.9006 24.4857 76.3023 4.00049 50.8927 4.00049" stroke="#FF614C" stroke-width="7.84"/>
<path d="M78.4208 76.0015C84.9909 69.1882 89.0277 59.9412 89.0277 49.7556C89.0277 28.81 71.9536 11.8301 50.8928 11.8301" stroke="#6F95F5" stroke-width="7.84"/>
</svg>
