<svg xmlns="http://www.w3.org/2000/svg" width="59" height="59"><path fill="#5c65b7" d="M50.387 20.674a.929.929 0 0 1-.662.274.927.927 0 0 1-.66-.274L38.441 10.053a.93.93 0 0 1-.274-.662c0-.249.097-.484.274-.66l1.522-1.522c1-1 3.19-1.55 6.168-1.55 1.79 0 3.84.199 5.927.577.416.075.747.406.823.822 1.035 5.72.653 10.468-.974 12.094zm1.979-16.139c-2.187-.396-4.343-.605-6.234-.605-3.539 0-6.025.692-7.39 2.057l-1.521 1.522a2.645 2.645 0 0 0-.781 1.882c0 .712.277 1.381.78 1.884l10.621 10.621c.504.503 1.172.78 1.884.78.711 0 1.38-.277 1.883-.78l1.522-1.522c3.077-3.077 1.889-11.205 1.451-13.623a2.761 2.761 0 0 0-2.215-2.216z"/><path fill="#5c65b7" d="M41.765 7.823l-.752.752a.865.865 0 0 0 1.222 1.222l.753-.752a.864.864 0 1 0-1.223-1.222zM50.075 16.133l-.752.752a.864.864 0 0 0 1.222 1.223l.753-.753a.865.865 0 0 0-1.223-1.222zM46.802 13.454a1.055 1.055 0 0 1-.81-.32 1.058 1.058 0 0 1-.322-.812.864.864 0 1 0-1.724-.116c-.053.79.247 1.573.823 2.15a2.793 2.793 0 0 0 2.15.822.864.864 0 0 0-.117-1.724z"/><path fill="#5c65b7" d="M32.945 43.654L15.456 26.17 37.194 4.436c.952-.95 2.265-1.661 3.904-2.112 1.436-.395 3.133-.595 5.045-.595 3.667 0 7.258.73 9.073 1.167.502.12.888.506 1.008 1.009.75 3.116 2.852 13.624-1.54 18.016zm8.471 8.492l-7.25-7.253 13.964-13.97c-.192 1.057-.309 2.215-.436 3.471-.486 4.807-1.087 10.748-6.278 17.752zm-5.35 2.262l-5.71-5.71 2.588-2.59 7.404 7.404a43.2 43.2 0 0 1-.639.765c-.928 1.087-2.636 1.137-3.643.13zm-21.833-27.01l17.48 17.48-2.588 2.587-17.48-17.48zM3.983 21.19a2.442 2.442 0 0 1 .86-1.78c.258-.219.514-.432.766-.638l7.402 7.404-2.588 2.588-5.71-5.71a2.473 2.473 0 0 1-.73-1.864zm18.674 25.504c-.15.57-.902.771-1.327.346l-9.25-9.25c-.422-.42-.233-1.174.346-1.327.848-.224 1.719-.271 2.3-.271.288 0 .53.01.703.023l7.477 7.476c.037.545.071 1.791-.249 3.003zm-4.922-.805c-.5.949-1.312 2.118-2.58 3.084-1.77 1.351-4.283 2.138-7.304 2.296.158-3.022.945-5.534 2.296-7.305.966-1.267 2.136-2.079 3.084-2.579zM55.619 1.215C53.73.762 49.989 0 46.143 0c-4.616 0-8.037 1.082-10.17 3.215L31.47 7.717c-1.439 1.435-3.857 1.68-6.917 1.99-2.286.23-4.878.493-7.796 1.285a.864.864 0 1 0 .452 1.668c2.782-.755 5.299-1.01 7.519-1.234 1.255-.127 2.413-.244 3.469-.436L14.234 24.953l-7.25-7.25c2.234-1.656 4.488-2.938 6.868-3.909a.864.864 0 1 0-.652-1.6c-2.806 1.144-5.442 2.695-8.06 4.741-.46.359-.937.75-1.42 1.162-1.84 1.572-1.937 4.471-.23 6.179l10.23 10.228c-.534.044-1.135.129-1.735.288-1.285.34-2.093 1.675-1.812 2.972-1.694.414-4.814 1.55-7.148 4.568C.391 45.739-.457 50.499.503 56.478a2.577 2.577 0 0 0 2.139 2.14c1.574.252 3.077.379 4.493.379.81 0 1.59-.042 2.34-.125a.864.864 0 0 0-.19-1.718c-1.905.212-4.048.13-6.37-.244a.85.85 0 0 1-.705-.706c-.88-5.478-.15-9.783 2.17-12.797 2.33-3.028 5.666-3.878 6.787-4.085l.794.794a10.996 10.996 0 0 0-3.188 2.8c-1.735 2.274-2.636 5.382-2.679 9.237a.871.871 0 0 0 .865.873h.009c3.854-.042 6.962-.943 9.237-2.678a10.991 10.991 0 0 0 2.8-3.189l.795.796c-.266 1.452-1.608 6.613-7.462 8.55a.864.864 0 1 0 .543 1.642c6.081-2.013 7.943-7.04 8.473-9.203a2.52 2.52 0 0 0 2.975-1.808c.157-.596.243-1.192.288-1.734L34.845 55.63c1.71 1.71 4.606 1.61 6.179-.23.412-.483.802-.96 1.162-1.421 6.047-7.733 6.73-14.483 7.228-19.412.31-3.063.555-5.482 1.993-6.92l4.499-4.5c2.168-2.168 3.25-5.666 3.214-10.395-.03-3.772-.774-7.415-1.215-9.25a3.075 3.075 0 0 0-2.286-2.287z"/></svg>