<svg width="50" height="49" xmlns="http://www.w3.org/2000/svg"><g fill="#FF6147" fill-rule="evenodd"><path d="M41.254 14.028a8.487 8.487 0 0 0-5.537 2.05L32.1 13.062a8.472 8.472 0 0 0 1.312-4.539c0-4.7-3.823-8.523-8.523-8.523-4.7 0-8.524 3.823-8.524 8.523a8.501 8.501 0 0 0 2.733 6.248l-5.956 5.295a8.474 8.474 0 0 0-4.618-1.363c-4.7 0-8.524 3.824-8.524 8.524 0 4.7 3.824 8.523 8.524 8.523 4.7 0 8.523-3.824 8.523-8.523a8.502 8.502 0 0 0-2.732-6.249l5.956-5.294a8.504 8.504 0 0 0 10.946-1.456l3.472 2.893a8.484 8.484 0 0 0-1.958 5.43c0 4.7 3.823 8.523 8.523 8.523 4.7 0 8.524-3.823 8.524-8.523 0-4.7-3.824-8.524-8.524-8.524zm-25.668 13.2a7.07 7.07 0 0 1-7.062 7.062 7.07 7.07 0 0 1-7.063-7.062 7.07 7.07 0 0 1 7.063-7.063 7.07 7.07 0 0 1 7.062 7.063zm9.303-11.641a7.07 7.07 0 0 1-7.063-7.063 7.07 7.07 0 0 1 7.063-7.062 7.07 7.07 0 0 1 7.062 7.062 7.07 7.07 0 0 1-7.062 7.063zm16.365 14.027a7.07 7.07 0 0 1-7.062-7.062c0-1.838.706-3.513 1.86-4.77a.727.727 0 0 0 .432-.433 7.035 7.035 0 0 1 4.77-1.86 7.07 7.07 0 0 1 7.063 7.063 7.07 7.07 0 0 1-7.063 7.062z" fill-rule="nonzero"/><path d="M5.878 27.285h.794v-3.566h2.046c.38 0 .726.043 1.04.129.312.085.58.216.804.39.224.176.399.398.526.666.126.268.19.589.19.961a2.2 2.2 0 0 1-.202.973 1.95 1.95 0 0 1-.547.687 2.334 2.334 0 0 1-.816.408 3.69 3.69 0 0 1-1.018.135H7.566v1.129h1.8v.737h-1.8v1.577h-.894v-1.577h-.794v-.737h.794v-1.13h-.794v-.782zm2.84 0c.514 0 .918-.117 1.213-.352.294-.235.441-.59.441-1.068 0-.477-.147-.823-.441-1.04-.295-.215-.7-.323-1.213-.323H7.566v2.783h1.152zm13.639-19.01h.794V4.707h2.045c.38 0 .727.043 1.04.129.313.086.581.216.805.391.223.175.399.397.525.665.127.269.19.589.19.962a2.2 2.2 0 0 1-.2.972 1.95 1.95 0 0 1-.549.688 2.334 2.334 0 0 1-.816.408 3.69 3.69 0 0 1-1.017.134h-1.13v1.129h1.8v.738h-1.8V12.5h-.893v-1.576h-.794v-.738h.794v-1.13h-.794v-.782zm2.84 0c.514 0 .918-.118 1.212-.353.295-.235.442-.59.442-1.067s-.147-.824-.442-1.04c-.294-.216-.698-.324-1.213-.324h-1.151v2.783h1.151zm14.574 13.51h.794v-3.566h2.045c.38 0 .727.043 1.04.129.313.085.581.216.805.39.223.176.399.398.525.666.127.268.19.589.19.961a2.2 2.2 0 0 1-.2.973 1.95 1.95 0 0 1-.549.687 2.334 2.334 0 0 1-.816.408 3.69 3.69 0 0 1-1.017.135h-1.13v1.129h1.8v.737h-1.8v1.577h-.893v-1.577h-.794v-.737h.794v-1.13h-.794v-.782zm2.84 0c.514 0 .918-.117 1.212-.352.295-.235.442-.59.442-1.068 0-.477-.147-.823-.442-1.04-.294-.215-.698-.323-1.213-.323H41.46v2.783h1.151z"/><path d="M15.537 38.186H9.303a.73.73 0 0 0-.73.731v9.352c0 .403.326.73.73.73h6.234a.73.73 0 0 0 .73-.73v-9.352a.73.73 0 0 0-.73-.73zm-.73 9.352h-4.774v-7.89h4.774v7.89zM45.93 38.186h-6.234a.73.73 0 0 0-.731.731v9.352c0 .403.327.73.73.73h6.235a.73.73 0 0 0 .73-.73v-9.352a.73.73 0 0 0-.73-.73zm-.73 9.352h-4.774v-7.89H45.2v7.89zM25.668 41.255a.73.73 0 0 0 .73-.73v-10.96a.73.73 0 0 0-.73-.73h-6.234a.73.73 0 0 0-.73.73V48.27c0 .403.326.73.73.73h6.234a.73.73 0 0 0 .73-.73v-4.335a.73.73 0 1 0-1.46 0v3.604h-4.774V30.296h4.773v10.229c0 .403.328.73.731.73zM35.8 33.51h-6.235a.73.73 0 0 0-.73.731V48.27c0 .403.326.73.73.73h6.234a.73.73 0 0 0 .73-.73V34.24a.73.73 0 0 0-.73-.73zm-.731 14.028h-4.774V34.972h4.774v12.566z" fill-rule="nonzero"/></g></svg>