<svg xmlns="http://www.w3.org/2000/svg" width="62" height="62"><path fill="#ff6147" d="M60.79 20.59a1.211 1.211 0 1 0 .002 2.423 1.211 1.211 0 0 0-.001-2.423zM55.617 6.384A1.212 1.212 0 1 0 53.905 8.1a1.212 1.212 0 0 0 1.712-1.715zM55.617 35.495a1.21 1.21 0 1 0-1.712 1.712 1.212 1.212 0 0 0 1.712-1.712zM40.2 0a1.211 1.211 0 1 0 .002 2.423A1.211 1.211 0 0 0 40.2 0zM40.2 41.17a1.211 1.211 0 1 0 .002 2.423 1.211 1.211 0 0 0-.001-2.423zM26.506 6.384A1.212 1.212 0 1 0 24.794 8.1a1.212 1.212 0 0 0 1.712-1.715zM19.62 20.59a1.211 1.211 0 1 0 .002 2.423 1.211 1.211 0 0 0-.001-2.423zM43.933 21.344L33.12 32.2l-3.426-3.425 10.816-10.86c.23-.228.533-.354.857-.354.324 0 .628.126.857.355l1.712 1.712a1.209 1.209 0 0 1-.002 1.715zM6.201 59.23a1.203 1.203 0 0 1-.856.355c-.323 0-.627-.126-.856-.355l-1.712-1.713a1.203 1.203 0 0 1-.355-.856c0-.323.126-.627.356-.858L27.984 30.49l3.425 3.427zm39.446-41.315l-1.712-1.712a3.61 3.61 0 0 0-2.569-1.064 3.61 3.61 0 0 0-2.57 1.066L27.317 27.728a1.209 1.209 0 0 0-.387.389L1.064 54.085A3.608 3.608 0 0 0 0 56.653c0 .97.378 1.883 1.064 2.569l1.712 1.712a3.608 3.608 0 0 0 2.569 1.064 3.61 3.61 0 0 0 2.57-1.066L33.978 34.77l11.67-11.715a3.61 3.61 0 0 0 1.063-2.57 3.61 3.61 0 0 0-1.064-2.569zM40.2 4.84a1.21 1.21 0 0 0-1.21 1.21v4.845a1.211 1.211 0 0 0 2.422 0V6.05a1.21 1.21 0 0 0-1.211-1.211zM40.2 31.48a1.21 1.21 0 0 0-1.21 1.21v4.845a1.211 1.211 0 0 0 2.422 0V32.69a1.21 1.21 0 0 0-1.212-1.21zM33.352 13.24l-3.425-3.425a1.211 1.211 0 0 0-1.712 1.712l3.424 3.425a1.207 1.207 0 0 0 1.713 0 1.211 1.211 0 0 0 0-1.713zM52.192 32.07l-3.425-3.425a1.211 1.211 0 0 0-1.712 1.712l3.424 3.425a1.207 1.207 0 0 0 1.713 0 1.211 1.211 0 0 0 0-1.713zM52.192 9.815a1.211 1.211 0 0 0-1.713 0l-3.424 3.424a1.211 1.211 0 1 0 1.712 1.713l3.425-3.425a1.211 1.211 0 0 0 0-1.712zM29.305 20.59H24.46a1.211 1.211 0 0 0 0 2.422h4.844a1.211 1.211 0 0 0 0-2.422zM55.945 20.59H51.1a1.211 1.211 0 0 0 0 2.422h4.844a1.211 1.211 0 0 0 0-2.422z"/></svg>