<svg xmlns="http://www.w3.org/2000/svg" width="60" height="60"><path fill="#ff6147" d="M9.102 57.591l-6.75-6.743a2.043 2.043 0 0 1 0-2.889c1.186-1.185 2.507-.384 2.89 0l6.75 6.744c1.052 1.05.384 2.505 0 2.888a2.047 2.047 0 0 1-2.89 0zM6.48 46.72a3.77 3.77 0 0 0-2.685-1.109c-1.016 0-1.97.394-2.685 1.108a3.801 3.801 0 0 0 0 5.37l6.744 6.744c.74.74 1.712 1.11 2.685 1.11a3.784 3.784 0 0 0 3.793-3.795 3.77 3.77 0 0 0-1.109-2.685zM11.226 37.827c-.715-.715-3.215-2.154-5.37 0-2.153 2.154-.714 4.654 0 5.369l6.574 6.574a.878.878 0 0 0 1.24-1.24l-6.573-6.574c-.383-.384-1.05-1.785 0-2.889 1.05-1.104 2.505-.383 2.889 0l10.889 10.89c.37.405.94 1.86 0 2.888-1.064 1.162-2.505.383-2.889 0l-1.815-1.815a.877.877 0 1 0-1.24 1.24l1.815 1.816c.714.714 3.43 2.126 5.37 0 2.107-2.313.714-4.655 0-5.37zM47.037 5.367c.31-.03 6.652.136 6.652.136a.79.79 0 0 1 .764.763s.185 6.143.137 6.64a.39.39 0 0 1-.264.339.383.383 0 0 1-.418-.094l-7.115-7.103a.383.383 0 0 1-.094-.419.39.39 0 0 1 .338-.262zm5.62 9.025c.89.863 2.01.59 2.251.504a2.136 2.136 0 0 0 1.417-1.822c.056-.583-.13-6.864-.13-6.864a2.548 2.548 0 0 0-2.46-2.46s-6.281-.186-6.864-.13a2.134 2.134 0 0 0-1.821 1.417 2.135 2.135 0 0 0 .503 2.251z"/><path fill="#ff6147" d="M44.668 53.91l-10.25-10.25 2.628-2.628 7.836 7.836c.568.454 1.07.171 1.241 0a.878.878 0 0 0 0-1.24l-7.837-7.837L54.617 23.46l-3.043 28.018c-.05.449-.167.871-.34 1.26l-2.587-2.586a.877.877 0 1 0-1.24 1.24l2.756 2.757c-.367.305-.796.55-1.277.719-1.51.532-3.086.173-4.218-.959zM26.746 42.976l-2.337-2.338 4.189-4.187 5.273 5.273-1.251 1.251a4.158 4.158 0 0 1-5.874 0zm-7.913-1.862a1.864 1.864 0 0 1 0-2.63l13.27-13.278c.99-.967 2.267-.363 2.629 0a1.864 1.864 0 0 1 0 2.63l-13.27 13.278a1.861 1.861 0 0 1-2.63 0zm-1.87-7.923a4.157 4.157 0 0 1 0-5.873l1.25-1.251 5.274 5.273-4.188 4.188zM5.07 11.052c.169-.48.413-.91.719-1.277l13.117 13.11-2.628 2.626L6.03 15.267c-1.132-1.13-1.49-2.707-.958-4.216zm3.39-2.687l28.02-3.044-16.332 16.331L7.2 8.705c.388-.174.81-.291 1.26-.34zm46.155-6.181c1.69.1 3.039 1.45 3.139 3.14L58.1 11.2a13.27 13.27 0 0 1-3.86 10.155l-19.13 19.13-2.261-2.262 15.764-15.764a4.456 4.456 0 0 0 1.313-3.171 4.457 4.457 0 0 0-1.313-3.171l-4.792-4.792a4.453 4.453 0 0 0-3.17-1.313 4.453 4.453 0 0 0-3.171 1.313L23.903 24.902a.878.878 0 0 0 1.24 1.241l13.578-13.578a2.713 2.713 0 0 1 1.93-.8c.73 0 1.415.285 1.93.8l4.792 4.792c.516.516.8 1.201.8 1.93 0 .73-.284 1.415-.8 1.931L31.61 36.982l-1.771-1.77 6.134-6.136a3.617 3.617 0 0 0 0-5.11 3.618 3.618 0 0 0-5.11 0l-6.134 6.135-5.274-5.274 19.13-19.13a13.26 13.26 0 0 1 10.154-3.86zm1.998 19.142a15.024 15.024 0 0 0 3.239-10.229l-.347-5.878A5.098 5.098 0 0 0 54.72.432L48.842.086a15.02 15.02 0 0 0-10.229 3.239L8.272 6.62a5.768 5.768 0 0 0-4.856 3.848 5.768 5.768 0 0 0 1.373 6.042l10.306 10.307a5.862 5.862 0 0 0-1.104 3.438c0 1.578.615 3.061 1.73 4.177l2.337 2.337-.466.466a3.617 3.617 0 0 0 0 5.11c.705.705 2.953 2.027 5.11 0l.467-.466 2.337 2.337a5.869 5.869 0 0 0 4.177 1.73 5.863 5.863 0 0 0 3.438-1.103L43.427 55.15a5.77 5.77 0 0 0 4.092 1.709c.65 0 5.295 0 5.799-5.192z"/></svg>