<svg xmlns="http://www.w3.org/2000/svg" width="104" height="73"><path fill="#5c65b7" d="M61.707 37.816a.906.906 0 0 0-1.074.7 9.475 9.475 0 0 1-2.579 4.758c-3.709 3.71-9.745 3.71-13.454 0a9.452 9.452 0 0 1-2.787-6.727c0-2.541.99-4.93 2.787-6.728a9.451 9.451 0 0 1 6.727-2.786c2.541 0 4.93.99 6.728 2.786a9.43 9.43 0 0 1 2.692 5.391.907.907 0 0 0 1.795-.253 11.23 11.23 0 0 0-3.206-6.42 11.252 11.252 0 0 0-8.009-3.317c-3.026 0-5.87 1.178-8.01 3.317A11.253 11.253 0 0 0 40 36.547c0 3.025 1.178 5.87 3.318 8.01a11.291 11.291 0 0 0 8.009 3.311c2.9 0 5.801-1.104 8.01-3.312a11.283 11.283 0 0 0 3.07-5.666.906.906 0 0 0-.7-1.074z"/><path fill="#5c65b7" d="M55.698 40.921a6.14 6.14 0 0 1-4.37 1.81 6.139 6.139 0 0 1-4.369-1.81 6.186 6.186 0 0 1 0-8.738 6.139 6.139 0 0 1 4.37-1.81c1.65 0 3.202.642 4.369 1.81a6.186 6.186 0 0 1 0 8.738zm1.282-10.02a7.94 7.94 0 0 0-5.652-2.341 7.94 7.94 0 0 0-5.65 2.34c-3.117 3.117-3.117 8.187 0 11.303a7.94 7.94 0 0 0 5.65 2.341 7.94 7.94 0 0 0 5.652-2.34c3.116-3.117 3.116-8.187 0-11.303z"/><path fill="#5c65b7" d="M49.835 32.435a.906.906 0 0 0-1.282 0l-.508.508a.906.906 0 0 0 1.282 1.282l.508-.507a.907.907 0 0 0 0-1.283zM55.445 38.035a.906.906 0 0 0-1.282 0l-.508.508a.906.906 0 1 0 1.282 1.282l.508-.508a.906.906 0 0 0 0-1.282zM53.255 37.176a.906.906 0 0 0-.965-.843.686.686 0 0 1-.525-.211.685.685 0 0 1-.21-.525.906.906 0 0 0-1.81-.121 2.497 2.497 0 0 0 .738 1.928 2.505 2.505 0 0 0 1.928.737.906.906 0 0 0 .844-.965z"/><path fill="#5c65b7" d="M73.054 57.765H53.587l.126-2.614c.12-.052.238-.107.358-.16 5.471-2.412 10.574-5.747 14.657-10.146a3.788 3.788 0 0 1 2.46 3.53 3.8 3.8 0 0 1-.105.879c-.155.646.446 1.247 1.092 1.092a3.765 3.765 0 0 1 4.64 3.657 3.765 3.765 0 0 1-3.76 3.762zm-27.25-1.703a4.39 4.39 0 0 1-4.327-1.113l-8.541-8.543a4.393 4.393 0 0 1-1.112-4.328c2.383-8.229 6.394-16.158 12.833-21.95a35.13 35.13 0 0 1 8.505-5.675l4.269 4.27a.92.92 0 0 0 1.282 0 .907.907 0 0 0 0-1.282l-3.768-3.769c7.887-3.204 15.483-3.05 19.419-2.649a2.798 2.798 0 0 1 2.488 2.49c.401 3.936.556 11.534-2.648 19.423l-12.928-12.93a.919.919 0 0 0-1.344.068.914.914 0 0 0 .062 1.214l13.429 13.431a34.818 34.818 0 0 1-5.59 8.44c-.02.02-.04.038-.06.06-5.793 6.426-13.75 10.46-21.969 12.843zm5.741 6.198l-5.83 2.346 2.543-2.55a1.26 1.26 0 0 0 .32-1.23l-.963-3.425a63.24 63.24 0 0 0 4.236-1.488zm-14.767-.006c-3.192 4.52-7.62 6.812-13.164 6.812-1.384 0-2.85-.147-4.367-.437-1.35-7.026.393-12.614 5.184-16.616 3.009-2.514 6.376-3.626 7.59-3.967l.443.444c-.935.577-2.34 1.56-3.69 2.943-3.056 3.13-4.347 6.814-3.733 10.651.062.387.365.69.752.752 2.402.384 4.85-.002 7.022-1.096a.907.907 0 0 0-.816-1.62c-1.668.841-3.432 1.18-5.253 1.01-.285-3.026.82-5.846 3.288-8.393a18.048 18.048 0 0 1 3.752-2.925l4.28 4.28c-.507.87-1.636 2.607-3.35 4.146a.906.906 0 0 0 1.211 1.349c1.658-1.49 2.814-3.127 3.46-4.174l.443.443a21.635 21.635 0 0 1-3.052 6.398zm-6.301-21.997s-3.649-1.01-3.763-1.01c-.328 0-.65.13-.888.366L23.28 42.16l2.343-5.84 6.34-.306-.058.152a64.21 64.21 0 0 0-1.428 4.091zm-2.823-16.94a3.532 3.532 0 0 1-3.527-3.528 3.532 3.532 0 0 1 3.527-3.53c.716 0 1.405.214 1.993.618.589.404 1.41-.025 1.419-.737.03-2.787 2.321-5.054 5.106-5.054 1.413 0 2.729.566 3.704 1.593a.906.906 0 0 0 1.263.05 3.52 3.52 0 0 1 2.358-.905 3.532 3.532 0 0 1 3.528 3.53c0 .185-.005.372-.005.559-.095.066-.19.133-.283.201-2.858 2.032-5.375 4.486-7.589 7.2 0 .002-.002.003-.003.004zM73.063 48.43h-.056v-.055c0-2.105-1.21-4.01-3.02-4.952a36.656 36.656 0 0 0 5.35-8.532c3.913-8.7 3.759-17.244 3.319-21.563a4.618 4.618 0 0 0-4.108-4.107c-4.32-.44-12.864-.595-21.564 3.319a36.8 36.8 0 0 0-4.172 2.21 5.35 5.35 0 0 0-5.307-4.738c-1.039 0-2.045.3-2.905.86a6.848 6.848 0 0 0-4.422-1.598c-3.304 0-6.094 2.352-6.768 5.469a5.348 5.348 0 0 0-7.097 5.047 5.348 5.348 0 0 0 5.342 5.342H37.78c-1.927 2.691-3.615 5.709-5.053 9.032l-7.563.365a1.26 1.26 0 0 0-1.09.785l-3.492 8.7c-.155.389-.11.825.121 1.167.44.65 1.377.743 1.932.189l4.242-4.243 3.097.873a6.205 6.205 0 0 0 .776 4.535c-1.68.545-4.655 1.743-7.427 4.042-3.791 3.143-7.861 8.986-5.74 18.972l.004.018a.93.93 0 0 0 .738.725c1.833.39 3.613.588 5.29.588 7.679 0 12.202-4.121 14.644-7.579a23.47 23.47 0 0 0 3.082-6.177 6.207 6.207 0 0 0 4.535.779l.873 3.096-4.242 4.242c-.36.36-.468.896-.274 1.364.26.63.996.942 1.629.689l8.7-3.49c.449-.181.757-.61.786-1.102l.151-3.123h19.563a5.58 5.58 0 0 0 5.575-5.575 5.58 5.58 0 0 0-5.574-5.574z"/><g opacity=".08"><path fill="#5c65b7" d="M67.99 65.072c24.252-14.242 53.882-39.4 22.26-57.139-31.623-17.737-32.681 0-60.11 0-27.428 0-30.15 12.402-30.15 39.83 0 27.429 43.749 31.551 68 17.31z"/></g></svg>