<svg xmlns="http://www.w3.org/2000/svg" width="56" height="56" viewBox="0 0 56 56"><g><g><g><path fill="#ff6147" d="M41.064 28c-7.217 0-13.067-5.85-13.067-13.067 0-7.216 5.85-13.066 13.067-13.066 7.216 0 13.066 5.85 13.066 13.066-.007 7.214-5.853 13.06-13.066 13.067zm1.866 4.667h-3.733v-2.93c1.238.173 2.495.173 3.733 0zm-1.866 21.466a1.867 1.867 0 0 1-1.867-1.866V40.133h3.733v12.134c0 1.03-.835 1.866-1.866 1.866zm1.866-15.856h-3.733v-3.744h3.733zM25.242 19.422l-3.703 2.055c-.093-.039-.037-.15.677-4.406a1.974 1.974 0 0 0-.525-1.699c-3.306-3.413-3.003-3.01-3.01-3.184l4.163-.626a1.875 1.875 0 0 0 1.414-1.067l1.878-3.951 1.192 2.533a14.93 14.93 0 0 0-.536 10.255 1.842 1.842 0 0 0-1.55.09zm-12.01-2.361l.703 4.416C9.87 19.24 9.953 19.2 9.325 19.2c-.606 0-.513.03-4.617 2.198l.711-4.332a1.963 1.963 0 0 0-.528-1.682c-3.331-3.4-3.007-3.015-3.007-3.184l4.157-.632a1.887 1.887 0 0 0 1.419-1.074l1.859-3.962c.006.007.01.015.014.023l1.858 3.94c.265.57.796.97 1.417 1.068l4.156.63c.002.17.342-.23-3.005 3.186a1.963 1.963 0 0 0-.527 1.68zM41.064 0a14.922 14.922 0 0 0-12.642 7.021l-.598-1.266a1.861 1.861 0 0 0-3.387 0L22.571 9.72c-4.543.682-4.363.599-4.839.888-.547-.328-.641-.255-4.842-.909l-1.865-3.944a1.867 1.867 0 0 0-3.39 0L5.77 9.715l-4.16.631a1.94 1.94 0 0 0-1.052 3.271l3.028 3.14-.711 4.328a1.912 1.912 0 0 0 1.85 2.248c.632 0 .566-.05 4.598-2.275l3.722 2.045a1.892 1.892 0 0 0 2.748-2.017l-.692-4.403 2.63-2.676 2.65 2.754-.712 4.324a1.898 1.898 0 0 0 2.753 2.02l3.7-2.053 1.828 1.008a14.978 14.978 0 0 0 9.381 7.315v22.892a3.733 3.733 0 0 0 7.467 0V29.375A14.923 14.923 0 0 0 41.064 0z"/></g><g><path fill="#ff6147" d="M44.975 17.06l.704 4.416c-4.067-2.236-3.984-2.276-4.613-2.276-.606 0-.513.031-4.62 2.199l.712-4.333a1.962 1.962 0 0 0-.529-1.681c-3.333-3.4-3.009-3.016-3.009-3.185l4.16-.631a1.888 1.888 0 0 0 1.42-1.074l1.86-3.962c.006.007.01.014.014.022l1.86 3.94c.265.57.796.971 1.417 1.068l4.159.63c.002.17.342-.23-3.006 3.186a1.962 1.962 0 0 0-.529 1.682zm-.353-7.368l-1.86-3.937a1.867 1.867 0 0 0-3.39 0l-1.867 3.959-4.16.632a1.94 1.94 0 0 0-1.052 3.266l3.028 3.14-.711 4.328a1.912 1.912 0 0 0 1.85 2.253c.632 0 .566-.05 4.598-2.275l3.722 2.044a1.892 1.892 0 0 0 2.748-2.016l-.692-4.403 3.008-3.065a1.94 1.94 0 0 0-1.051-3.272z"/></g></g></g></svg>