<svg xmlns="http://www.w3.org/2000/svg" width="30" height="30"><path fill="#50e3a8" d="M14.976 29.953c8.272 0 14.977-6.705 14.977-14.977C29.953 6.706 23.248 0 14.976 0 6.706 0 0 6.705 0 14.976c0 8.272 6.705 14.977 14.976 14.977z"/><path fill="#45cc96" d="M11.15 21.736l7.7 7.7c6.379-1.7 11.103-7.511 11.103-14.456v-.425L23.906 8.98z"/><path fill="#fff" d="M15.353 18.333c.661.662.661 1.796 0 2.457l-1.37 1.37c-.662.661-1.796.661-2.457 0l-6-6.047c-.661-.662-.661-1.795 0-2.457l1.37-1.37c.662-.661 1.795-.661 2.457 0z"/><path fill="#fff" d="M20.6 7.886c.661-.661 1.795-.661 2.456 0l1.37 1.37c.662.662.662 1.795 0 2.457L14.034 22.059c-.662.662-1.795.662-2.457 0l-1.37-1.37c-.661-.661-.661-1.795 0-2.456z"/></svg>