<svg xmlns="http://www.w3.org/2000/svg" width="302" height="349"><defs><filter id="b" width="140%" height="152%" y="-16%" filterUnits="objectBoundingBox"><feGaussianBlur in="SourceGraphic" result="FeGaussianBlur2126Out" stdDeviation="1 1"/></filter><clipPath id="a"><path d="M8.42 309.08h293.134v39.257H8.42z"/></clipPath></defs><path fill="#e6effe" d="M266.94 167.77a.823.823 0 0 1 .244.171c.195.13.294.31.294.538 0 .163-.033.359-.1.587-.031.032-.048.065-.048.097-.032 0-.064.016-.097.05h-.049zM188.566 320.882l-16.866 2.982 1.027-5.744zM24.67 332.812l5.647-1.002c-.362 1.636-.567 3.055-.612 4.252-1.03.043-2.032.101-3.006.172a40.443 40.443 0 0 0-1.125-2.077 61.59 61.59 0 0 1-.904-1.345"/><g clip-path="url(#a)" filter="url(#b)"><path fill="#c8dfff" d="M255.28 309.153l.417-.073 28.722 5.059 1.1 6.136 3.422.635v.05l4.839-.832-.781-4.474 8.555 1.517v3.568l-29.797 5.255 26.57 4.694-72.256 12.76-29.431-5.206 35.444-6.332c5.899-1.042 8.539-4.611 7.92-10.706l-.93-9.19 8.165-1.443.538 3.006 3.422.636v.097l4.84-.83zm-83.573 14.714l16.866-2.98 7.285 1.27a7.767 7.767 0 0 1-3.57 1.684c-.554.1-1.091.131-1.613.1l-2.493-.538 1.418 13.581-2.249-.39.44-.073-43.95-7.744 19.36-3.42-.539 3.03 4.84.879v-.1l3.374-.584zm-73.381 13.96c1.045.174 2.056.37 3.03.586 5.15 1.141 7.725 2.509 7.725 4.107 0 1.596-2.575 2.965-7.724 4.106-5.15 1.14-11.376 1.711-18.676 1.711-7.3 0-13.525-.57-18.675-1.71-2.746-.609-4.758-1.286-6.038-2.03-1.175.463-2.665.895-4.473 1.296-5.15 1.14-11.374 1.711-18.675 1.711s-13.527-.571-18.676-1.711c-5.15-1.141-7.724-2.51-7.724-4.107 0-1.438 2.086-2.693 6.258-3.765v.44c-.033.554-.066.93-.098 1.125-.261 1.108-.163 2.086.293 2.934.521.945 1.37 1.417 2.542 1.417 1.663 1.076 3.797 1.613 6.405 1.613.717 0 2.965-.196 6.746-.586.326.032.555-.148.685-.538v-.978a4.606 4.606 0 0 0 .098-1.809c0-.097-.034-.163-.098-.196l-.098-.293a2.226 2.226 0 0 0-.635-.978c2.15.424 3.715.652 4.693.685 1.824.097 3.356-.244 4.595-1.026 3.781.879 6.894 1.4 9.338 1.563 3.422.197 6.534-.129 9.338-.978.08-.35.113-.749.097-1.196.356.163.674.326.954.488 1.076-.425 2.42-.824 4.033-1.198.008.128.023.259.049.392-.13.489-.196.814-.196.978 0 .39.196.619.587.684 2.281 1.467 5.361 2.346 9.24 2.64 2.183.065 3.83.13 4.938.195 1.987.066 3.6.195 4.84.392.652 1.107 1.808 1.694 3.47 1.759 1.924-.13 3.293-.163 4.107-.097 1.174-.099 1.89-.212 2.151-.343.75-.228 1.01-.766.782-1.613 1.597.196 2.885.065 3.863-.392 1.27-.618 1.613-1.678 1.026-3.177a33.15 33.15 0 0 1-.097-2.102zm-68.615-1.762a7.145 7.145 0 0 0-.025.586l-.195 2.533c-1.076-.974-1.989-1.916-2.738-2.825a1.021 1.021 0 0 1-.049-.122 96.096 96.096 0 0 1 3.007-.172z"/></g><path fill="#f50f00" d="M149.848 16.872v38.524a11.253 11.253 0 0 0-3.08-.929.932.932 0 0 0-.294-.049l-5.964-.928V15.21zM149.848 118.61l-9.338-1.663V87.321c.359-.065.733-.13 1.124-.195 3.031-.555 5.77-1.794 8.214-3.716z"/><path fill="#00cb8d" d="M207.19 287.03l-4.156-.929c-1.337-1.239-2.102-2.802-2.298-4.693a9.471 9.471 0 0 1-.049-1.393c.091-1.58.63-3.037 1.614-4.376 1.303-1.728 2.966-2.787 4.986-3.178a8.577 8.577 0 0 1 1.98-.074c.175.022.346.046.514.074.293.033.586.098.88.196l2.737.684a8.357 8.357 0 0 0-1.27 0c-.26 0-.505.033-.734.098a7.823 7.823 0 0 0-2.469.929c-.924.542-1.746 1.292-2.469 2.249-.94 1.279-1.48 2.655-1.613 4.13a8.294 8.294 0 0 0 0 1.59c.195 1.922.978 3.487 2.347 4.693"/><path fill="#f50f00" d="M96.272 330.74l2.102-.44c0 .912-.016 1.956-.049 3.129a80.03 80.03 0 0 0 0 4.4c.015.792.047 1.492.098 2.101-1.239.36-2.868.652-4.889.881.087-1.026.047-2.231-.122-3.618a30.217 30.217 0 0 0-.318-2.2c-.163-1.336-.358-2.46-.586-3.374l-.098-.83z"/><path fill="#00cb8d" d="M190.673 323.938l1.614.39 1.515 14.422-4.106-.928-.098-.831-1.418-13.591zM184.71 289.33h.098l4.106.978h-.097l2.2 21.217-4.107-.929"/><path fill="#f50f00" d="M140.51 15.21L223.816.495c3.29-.587 6.16-.652 8.604-.195.13 0 .261.016.391.048l7.92 1.467c-1.271-.163-2.64-.195-4.107-.098a27.448 27.448 0 0 0-3.47.44l-83.306 14.716zM146.473 54.417c-1.532-.196-3.146-.147-4.84.147-4.432.782-8.23 3.03-11.391 6.746-3.097 3.748-4.644 7.871-4.644 12.369 0 4.498 1.547 8.05 4.644 10.657a12.09 12.09 0 0 0 1.662 1.223 12.526 12.526 0 0 0 4.01 1.564l-8.263-1.467a9.896 9.896 0 0 1-1.418-.293c-1.955-.456-3.732-1.352-5.329-2.689-3.096-2.607-4.644-6.16-4.644-10.657 0-4.498 1.548-8.62 4.644-12.37 3.161-3.715 6.958-5.963 11.391-6.746a13.928 13.928 0 0 1 3.031-.244c1.402 0 2.738.212 4.01.635.39.13.781.277 1.173.44v-.244zM248.794 94.95l-3.372.635h-.05l-4.742-.88 3.471-.635 1.614.318 2.982.562z"/><path fill="#00cb8d" d="M192.283 324.328l-1.613-.39c.521.032 1.06 0 1.613-.099a7.762 7.762 0 0 0 3.57-1.686 8.643 8.643 0 0 0 1.417-1.491l.073-.098c1.209-1.643 1.73-3.453 1.565-5.426a6.345 6.345 0 0 1-.025-.196c-.228-2.086-1.14-3.748-2.738-4.986a3.053 3.053 0 0 0-.586-.392c1.728-.196 3.292.261 4.693 1.37a6.75 6.75 0 0 1 1.833 2.004c.516.858.833 1.836.954 2.934.195 2.117-.36 4.04-1.662 5.767a10.463 10.463 0 0 1-1.15 1.296 7.862 7.862 0 0 1-3.788 1.882c-1.5.228-2.885.066-4.156-.489M207.19 287.029l-18.283 3.275-4.107-.977 12.858-2.275 5.28-.928.097-.024zM235.986 281.849l-17.746 3.226c.391-.62.701-1.238.929-1.858l12.71-2.297z"/><path fill="#dae0ff" d="M83.406 242.195a40.285 40.285 0 0 0-2.444-.098h-.293a66.58 66.58 0 0 0-1.32-.048c-2.34-.087-4.426-.046-6.258.122-.23.023-.459.046-.684.074.912-7.432 1.222-13.559.928-18.383a384.751 384.751 0 0 0-1.075-13.053c-.423-3.846-1.874-8.214-4.351-13.103l-.489-.927c2.02-.457 3.683-1.011 4.987-1.663l.88-.489c.945-.62 1.678-1.32 2.2-2.103.443-.641.737-1.35.88-2.126a5.51 5.51 0 0 0 .097-.758 6.72 6.72 0 0 1 .025-.367 31.12 31.12 0 0 0-.025-1.93c-.097-2.216-.57-3.749-1.417-4.596l-.05-.05c.326.034.702.05 1.125.05a3.58 3.58 0 0 0 .636-.147h.049c.26.294.505.62.733.978a22.944 22.944 0 0 1 1.711 2.786c.489.913.961 1.86 1.418 2.837a180.78 180.78 0 0 1 3.52 8.555 40.74 40.74 0 0 1 2.102 7.773c.332 1.924.585 3.888.758 5.89a65.781 65.781 0 0 1 .22 3.276c.102 1.858.168 3.724.195 5.599a41.223 41.223 0 0 1-.44 7.234 66.804 66.804 0 0 1-1.515 7.677 114.467 114.467 0 0 1-1.516 5.23c-.194.59-.389 1.176-.587 1.76"/><path fill="#f50f00" d="M84 333.282c1.695.228 3.39.081 5.085-.44l3.422-1.222c.229.912.423 2.038.586 3.373.14.777.247 1.51.318 2.2.17 1.387.21 2.592.122 3.618l-.195 1.32c-1.956.391-4.14.538-6.551.44-1.597-.098-3.748-.342-6.453-.733-4.107 0-6.96-.114-8.556-.343-3.194-.39-5.915-1.255-8.164-2.59a3.287 3.287 0 0 1-.05-.392c-.094-1.01.265-1.775 1.076-2.297 1.01.13 2.298.407 3.863.83.51.135.991.257 1.442.367 1.882.44 3.308.66 4.278.66 2.526 0 4.637-.449 6.33-1.344a8.737 8.737 0 0 0 2.274-1.736c.391-.62.782-1.19 1.173-1.71"/><path fill="#ff6a4e" d="M185.565 85.07c.423 5.316.57 9.724.44 13.224a19.564 19.564 0 0 0-.268 3.251c0 .366.008.725.024 1.076-.125 1.99-.23 3.376-.318 4.155.19.102.387.2.587.294l.098 1.32c.281 1.236.55 2.474.806 3.715l-14.544 2.567a10.56 10.56 0 0 0 .44-1.589c.293-1.858.521-3.259.684-4.204 1.728-1.63 2.966-3.602 3.716-5.916l.587-1.467a592.958 592.958 0 0 1 2.2-4.35 192.192 192.192 0 0 0 4.595-9.876c.329-.731.646-1.465.953-2.2"/><path fill="#ff6a4e" d="M185.097 48.868c-2.333-.636-4.45-.057-6.355 1.735a13.834 13.834 0 0 0-2.69 3.325 16.198 16.198 0 0 1-.537 2.933c-.066.293-.066.668 0 1.124 0 .424.016.88.049 1.37.098 3.096.211 6.192.342 9.288.066 2.151.017 4.27-.147 6.356a34.603 34.603 0 0 1-1.515 8.8 60.848 60.848 0 0 1-1.418 4.302 202.194 202.194 0 0 0-2.591 7.92 8.268 8.268 0 0 1-.636 1.564c-.26.391-.505.782-.733 1.173a7.809 7.809 0 0 0-.929 1.516 45.024 45.024 0 0 0-1.906 4.498c-1.403 1.075-2.575 2.59-3.52 4.546-.914 1.597-1.565 3.357-1.956 5.28-.13.163-.212.31-.244.44.195.489.52.652.977.489l.294-.196c.098 0 .26-.065.489-.195l.684-.342c-.13.227-.424.586-.88 1.075l-.587.734-11.44 2.004v-35.2c-2.444 1.924-5.182 3.162-8.213 3.716-.39.065-.765.13-1.124.195-1.63.164-3.161.098-4.596-.195a12.526 12.526 0 0 1-4.008-1.565 12.089 12.089 0 0 1-1.663-1.222c-3.096-2.607-4.644-6.16-4.644-10.657 0-4.498 1.548-8.621 4.644-12.37 3.161-3.715 6.96-5.963 11.391-6.746 1.695-.293 3.308-.342 4.84-.146.098 0 .196.016.294.049a11.22 11.22 0 0 1 3.08.928V16.87l83.305-14.715a27.426 27.426 0 0 1 3.471-.44c1.467-.098 2.836-.065 4.106.098a8.52 8.52 0 0 1 1.272.195c6.942 1.304 10.413 6.747 10.413 16.33v75.311l-1.955-.366-4.791.83v.05l.048.22-1.613-.318-3.47.636v-.147l-.026.147h-.024v-.147l-1.442 8.31-6.38 1.125-8.824-1.564a86.838 86.838 0 0 0-2.47-.636c.198-.208.394-.42.588-.635-2.674-10.788-3.407-20.614-2.2-29.48 1.173-8.897 1.547-15.139 1.124-18.724-.457-3.618-1.728-5.932-3.813-6.942-1.4-.678-3.323-1.403-5.77-2.176-.096-.608-.34-1.301-.732-2.077-.717-1.467-1.907-2.428-3.57-2.885 0-.195-.016-.423-.048-.684.098-.196.163-.408.195-.636.065-.423.147-.765.245-1.026a4.27 4.27 0 0 0 .929-1.565c.782-1.239 1.27-2.542 1.466-3.91.098-.262.147-.539.147-.832v-.782c0-.294-.017-.57-.049-.831-.065-.36-.13-.75-.195-1.174a8.34 8.34 0 0 0-.147-.88c-.261-1.4-.88-2.72-1.858-3.96-1.27-1.89-2.868-3.373-4.79-4.448-2.022-1.076-4.124-1.548-6.307-1.418-.392 0-2.364.146-5.916.44-1.858.098-3.454.032-4.791-.196a2.77 2.77 0 0 1-.831-.293c-.261.163-.375.457-.342.88 0 .098.065.505.195 1.222.065.163.098.326.098.489 0 .326-.147.554-.44.684-.032 0-.082.05-.147.147a1.83 1.83 0 0 0-.44-.049h-.097c.227 1.597.994 2.982 2.297 4.156a15.66 15.66 0 0 1 2.25 2.102c-.13.457-.245 1.075-.343 1.858v.195c0 .88.017 1.826.049 2.836a13.023 13.023 0 0 0-.685 2.004c.033.163.294.766.783 1.809.097.293.227.57.39.831.326 1.858.653 3.308.979 4.351.097.163.163.31.195.44.324.775.7 1.418 1.124 1.931a9.478 9.478 0 0 0-.88.22c-.977.391-1.793.93-2.444 1.614-.717.75-1.108 1.63-1.173 2.64 1.245-.544 2.622-.984 4.13-1.32-.137.143-.276.29-.415.44l-.782.977.147.025c-.802.183-1.6.37-2.396.562-.755.363-1.455.746-2.102 1.149"/><path fill="#00f1b3" d="M188.908 290.308l18.284-3.275c-1.369-1.206-2.151-2.771-2.347-4.692a8.294 8.294 0 0 1 0-1.59c.134-1.475.672-2.851 1.614-4.131.721-.958 1.545-1.706 2.469-2.25a7.847 7.847 0 0 1 2.468-.928 2.68 2.68 0 0 1 .734-.098 8.357 8.357 0 0 1 1.906.075c.298.062.59.152.88.267a8.089 8.089 0 0 1 1.956 1.027c.078.06.151.126.22.196 1.46 1.21 2.283 2.808 2.469 4.79a8.06 8.06 0 0 1-.391 3.52 9.838 9.838 0 0 1-.93 1.858l17.747-3.225 1.37 13.419 1.71 16.744.929 9.192c.619 6.094-2.021 9.662-7.92 10.705l-35.444 6.331-2.835.514-1.516-14.422c1.271.554 2.657.716 4.156.489a7.866 7.866 0 0 0 3.788-1.883l.22-.22c.325-.326.634-.685.93-1.075 1.303-1.728 1.857-3.651 1.661-5.769-.12-1.098-.438-2.076-.953-2.933a6.76 6.76 0 0 0-1.833-2.004c-1.401-1.109-2.967-1.565-4.693-1.37-.23 0-.457.017-.685.05-1.5.26-2.786.896-3.862 1.906l-2.2-21.218z"/><path fill="#ff6a4e" d="M165.179 115.919l-.489.098c.23-.35.434-.675.611-.978.228-.163.391-.326.489-.489a4.505 4.505 0 0 1-.611 1.369"/><path fill="#f0f0ff" d="M97.88 178.35c5.578.305 9.277 2.668 11.098 7.089 1.298 3.111 1.656 7.25 1.076 12.417-1.434 12.451-2.298 21.544-2.591 27.281-.293 5.736-.375 9.874-.244 12.417.113.273-.165.64-.832 1.1-.581.389-1.445.844-2.59 1.369l-.734.317c-.892.369-2.098.679-3.618.93-1.96.338-4.446.582-7.455.733-2.496.13-5.356.195-8.58.195.197-.584.393-1.17.587-1.76a114.503 114.503 0 0 0 1.515-5.23 66.537 66.537 0 0 0 1.516-7.676c.358-2.38.505-4.791.44-7.236-.028-1.874-.093-3.74-.196-5.598a64.909 64.909 0 0 0-.22-3.276 69.547 69.547 0 0 0-.758-5.89 40.74 40.74 0 0 0-2.102-7.772 179.749 179.749 0 0 0-3.52-8.556 57.634 57.634 0 0 0-1.418-2.836 22.87 22.87 0 0 0-1.71-2.787 7.565 7.565 0 0 0-.734-.978c1.694-.65 2.95-1.092 3.764-1.32 1.141-.586 2.543-.977 4.205-1.173.912-.13 2.379-.196 4.4-.196 1.955-.064 3.439-.162 4.449-.293.129-.016.26-.031.39-.049 1.437-.215 2.725-.623 3.863-1.222"/><path fill="#ff6a4e" d="M64.64 336.212a1.3 1.3 0 0 1 .44-.293c1.108-.521 2.363-.668 3.764-.44 1.5.13 3.178-.147 5.036-.831 2.119-.88 3.715-1.516 4.79-1.907a7.96 7.96 0 0 0 .734-.831c.62.228 1.255.472 1.907.733.912.327 1.809.538 2.689.636a25.681 25.681 0 0 0-1.174 1.711 8.737 8.737 0 0 1-2.273 1.735c-1.694.896-3.804 1.345-6.33 1.345-.97 0-2.396-.22-4.279-.66-.451-.11-.931-.233-1.442-.367-1.564-.423-2.852-.7-3.862-.83"/><path fill="#22a3f3" d="M248.803 94.943h-.098l.098-.049v.025l.05-.025v.05z"/><path fill="#46589e" d="M57.185 156.96c-1.341-3.11-2.262-5.366-2.762-6.77.391-.88.31-1.989-.244-3.325-.326-.75-.554-1.32-.685-1.711a7.825 7.825 0 0 1-.537-1.614c.325-1.662.26-3.47-.196-5.426a17.334 17.334 0 0 0-.856-2.982l6.527-1.174c-2.509 3.455-3.764 7.202-3.764 11.245 0 3.356.863 6.192 2.59 8.506a12.789 12.789 0 0 0 2.054 2.151 13.351 13.351 0 0 0 3.813 2.25zm46.127-67.343a19.37 19.37 0 0 0 5.084-1.663 26.662 26.662 0 0 0 3.129-2.004l9.289 1.613c-2.445 1.923-5.183 3.161-8.214 3.716-3.683.651-6.909.13-9.68-1.565l.392-.097zm145.785 5.182l8.701 49.037h-.048l31.191 177.08-3.422-.635-1.1-6.135-1.443-8.19-29.138-5.133-4.79-.831-1.076-6.063 33.928 5.964-.244-1.368-5.084-29.188-29.236-5.134-4.79-.879-1.026-6.013 33.927 5.964h.05l-.244-1.369-5.134-29.285-29.187-5.086h-.049l-4.693-.879-1.076-6.013 33.929 5.964-.245-1.369-6.649-37.89-28.697-5.035 1.002-5.696 26.62 4.718-.244-1.37-5.133-29.284-16.158-2.86 1.003-5.647 14.079 2.493-.245-1.369-5.133-29.236-3.618-.66.978-5.647 1.564.293-.244-1.369-.562-3.227 1.492-8.507v-.048l-.05.024v-.024l-.098.048-2.982-.562-.048-.22zm-20.045 112.394v-.025l1.662-9.435L251.2 314.209l-3.423-.636-.537-3.006zm-11.165-82.426l2.889 16.329c-.068.14-.134.278-.196.416l-3.134-.538-2.865-16.256zm2.952 13.933l.929.172c-.22.478-.44.959-.66 1.442zm5.074 39.062l-2.117-.366-.048-.318c.133.049.271.097.413.146.489.138 1.073.294 1.752.465zM47.286 135.938v.465a5.407 5.407 0 0 1-.196-.44z"/><path fill="#6176c9" d="M112.589 91.274c3.03-.554 5.768-1.792 8.212-3.715v35.394l-31.53 5.573-2.934.537c.075-.129.139-.291.196-.489.163-.782-.718-1.613-2.64-2.493-1.89-.88-2.933-.896-3.129-.049-.13.555.115 1.108.734 1.662.704.613 1.892 1.142 3.568 1.59l-.88.146-.806.147-.465.073c.185.186.365.372.538.562a12.592 12.592 0 0 1 2.298 3.74c-.543.038-1.357.43-2.445 1.173-.065 1.89-.097 3.259-.097 4.107.065 1.596.293 2.803.684 3.617.148 1.357.253 3.313.318 5.867a.7.7 0 0 0-.05.097 2.055 2.055 0 0 0-.512-.293c-.326-.13-.587-.13-.783 0-.195.228-.423.668-.684 1.32-.228.814-.472 1.288-.733 1.418-.294.293-.701.293-1.222 0-.034 0-.066-.016-.098-.05l-.147-.097a22.999 22.999 0 0 0-.44 2.151 6.419 6.419 0 0 0-.049 1.149c-2.579 2.234-5.512 3.644-8.8 4.229-2.769.488-5.295.31-7.576-.538a13.35 13.35 0 0 1-3.813-2.249 12.788 12.788 0 0 1-2.054-2.151c-1.727-2.314-2.59-5.149-2.59-8.506 0-4.041 1.254-7.79 3.764-11.244l-6.526 1.173a19.686 19.686 0 0 0-.905-1.955 2.225 2.225 0 0 0-.195-.391c-.391-.228-.717-.13-.978.293v.098l-.049.146a1.118 1.118 0 0 0-.244.44l-.294.636c-.032-.228-.049-.668-.049-1.32v-1.662c-.097-1.141-.586-1.434-1.466-.88-.098 0-.147.016-.147.049a2.99 2.99 0 0 0-1.564.44c-.782.489-1.434 1.303-1.956 2.444 0 .032-.033.098-.097.196-.098.325-.375 1.043-.831 2.15-.146.337-.285.638-.416.905L18.24 141.04V58.862c0-13.036 6.42-20.695 19.26-22.976l83.301-14.666v38.327c-2.444-1.108-5.182-1.386-8.212-.831-4.432.782-8.23 3.03-11.39 6.746-3.097 3.748-4.645 7.87-4.645 12.368 0 3.357.864 6.193 2.591 8.507a12.73 12.73 0 0 0 2.053 2.15c.36.294.717.572 1.076.832.195.13.407.26.635.39 2.77 1.695 5.997 2.217 9.68 1.565zm181.185 228.839l-4.839.831v-.049L257.75 143.831h.05L249.098 94.8h.049l4.79-.88 13.002 73.842.244 1.442 23.829 135.193zm-47.169-212.358l.219-1.271 1.093.196.243 1.368zm-5.842 33.123l13.606 2.414.244 1.365-14.07-2.487zm-6.087 34.443l26.146 4.637.245 1.366-26.61-4.71zm16.517 138.896l-20.477-116.48 2.468-13.958 6.182 35.054h.05l.244 1.32 29.127 5.085.244 1.368-33.917-5.964 1.076 6.013 4.691.88h.05l5.13 29.285 29.177 5.085.244 1.369h-.049l-33.916-5.965 1.026 6.014 4.79.88 5.18 29.236 29.127 5.085.244 1.368-33.916-5.964 1.075 6.062 4.789.831 1.442 8.336.757 4.327-4.838.831zm-12.664-207.89l-6.254-1.097a76.01 76.01 0 0 0-8.33-2.804l8.819 1.56 5.985 1.073zm-20.646 18.442l4.946.073 1.463 8.326c-.836 1.9-1.68 3.795-2.535 5.688l-.926-.17.268 1.61c-.116.263-.23.524-.34.782zm11.16 35.364l-1.828 10.426a4.855 4.855 0 0 1-.17-.342c-.488-1.302-.878-2.246-1.17-2.832a.964.964 0 0 0-.098-.44.547.547 0 0 1-.05-.244c-.129-1.009-.21-2.441-.243-4.297-.032-.488-.049-.96-.049-1.416a10.318 10.318 0 0 0-.195-1.563v-.195l-.097-.488a485.6 485.6 0 0 0 2.828-4.64zm-182.157-27.64c0 .39.08 1.007.242 1.853.032.52.08.991.145 1.414v.17l-.194.025a7.245 7.245 0 0 1-.193-.732c-.194-.844-.194-1.853 0-3.023z"/><path fill="#849be1" d="M253.931 93.926l-4.79.88h-.05l-3.422-.636v-.049l4.791-.831 1.956.367zm-67.71 147.839l27.568 4.888 4.741-26.888.318-1.81h-.024l-29.182-5.084.978-5.622.098.05 1.515.244.024-.026c1.15.264 2.723.525 4.717.783l.196.024v.049l22.656 4.059 4.815-27.33.293-1.809-.098-.024-20.823-3.691c.096-1.885.194-3.768.293-5.647l19.48 3.471 2.125.367v-.073a.175.175 0 0 1 .05.024l.22-1.247.268-1.54.758-4.35 1.833-10.438 1.662-9.362.293-1.687 7.259-41.164.269-1.589.22-1.27.39-2.2 1.443-8.312v.147h.024l.024-.147v.147l4.742.88h.049l-21.996 124.666h-.025l-9.36 53.166a5.775 5.775 0 0 0-.636-.075l-2.737-.684a4.31 4.31 0 0 0-.88-.196 11.36 11.36 0 0 0-.513-.073l3.25-18.455.147-.88h-.049l.147-.733-29.378-5.232.978-5.475 1.809.342zm19.873-97.191c.123-1.847.246-3.697.367-5.549l10.983 1.956 3.131.537a668.09 668.09 0 0 1-2.397 5.182zm-38.597 184.602v.099l-4.84-.881.538-3.03 3.104-17.528 26.106-148.205a253.761 253.761 0 0 1-.464 21.413 82.323 82.323 0 0 0-.073 9.827l-24.42 138.305zm6.55-18.382l24.86 4.351c.166 1.974-.356 3.784-1.564 5.427l-25.984-4.547 1.027-5.572zm28.894-24.663l-25.618-4.522 1.027-5.575 1.711.294 20.63 3.692a9.33 9.33 0 0 0 .05 1.392c.195 1.891.961 3.455 2.298 4.693zM41.267 191.458c.064.602.112 1.204.147 1.809l-11.342 2.004v27.597a547.898 547.898 0 0 1-3.325-4.962 41.037 41.037 0 0 1-2.786-4.815c-.41-3.1-.867-6.155-1.369-9.167a45.014 45.014 0 0 0-3.227-11c-1.336-3.03-3.47-5.28-6.404-6.746-3.39-1.695-6.893-2.037-10.511-1.027.326-.326.717-.668 1.173-1.027a183.728 183.728 0 0 0 4.302-2.982c1.663-1.205 2.853-2.379 3.57-3.52 2.444 2.869 5.458 4.825 9.044 5.867 3.487.88 6.68 2.38 9.582 4.498 0-.457.016-.913.049-1.37.26-2.965-.213-5.751-1.418-8.36.75.229 1.711.424 2.884.587 1.988.196 2.982.326 2.982.392 2.413.39 4.156 1.19 5.232 2.395a122.892 122.892 0 0 1 1.417 9.827zM30.072 244.72l-3.422-.366-4.01-.88a82.97 82.97 0 0 0 .832-6.453c.203-2.107.399-4.218.587-6.332.094.11.192.216.293.32a228.468 228.468 0 0 1 3.911 4.007c.489.521.978 1.059 1.467 1.614.111.108.226.213.342.317zm-5.231 96.814c-3.133 0-4.975-1.49-5.525-4.47-.014-.12-.03-.241-.048-.366.054-1.157.103-2.143.146-2.956.066-1.613.098-2.549.098-2.809 0-.293-.017-.618-.049-.977a8.05 8.05 0 0 1 .88-.048l3.178-.83v1.513a11.553 11.553 0 0 1 .733 1.514c.077.155.215.39.416.71.225.345.526.792.904 1.343a40.4 40.4 0 0 1 1.125 2.076c.012.04.029.08.048.123.75.91 1.663 1.855 2.738 2.832l1.027.977c.293.26.505.587.635.977-1.336.26-3.438.39-6.306.39zm14.08-14.56h1.222l1.564-.928.636.636c.293.325.652.7 1.075 1.125.549.502.956 1 1.223 1.49.104.204.185.407.244.611 3.292 2.934 6.6 4.743 9.924 5.427 1.141.195 2.021.57 2.64 1.124.391.294.701.62.93.978a75.876 75.876 0 0 1-5.647.073c-2.783-.067-4.91-.336-6.38-.806a8.922 8.922 0 0 1-.66-.245c-2.948-1.14-5.075-3.219-6.38-6.233-.46-1.046-.819-2.213-1.076-3.496z"/><path fill="#46589e" d="M245.62 113.405l-.146.783-2.224 12.588-2.494 14.105-.22 1.295-1.002 5.647-4.106 23.197-.318 1.76-.44 2.542-.22 1.296-1.002 5.695-.27 1.467-2.468 13.958-1.662 9.435v.024l-11.954 67.71a2.212 2.212 0 0 0-.22-.195 8.089 8.089 0 0 0-1.955-1.026 5.453 5.453 0 0 0-.88-.27l9.362-53.165h.025l22-124.665 3.372-.636h.05l-1.492 8.507-.537 3.03-.221 1.272zm-39.648 33.049l.123-1.882 12.075 2.126c-.27.584-.539 1.17-.807 1.76zm24.738 4.326l-.636-.122c.313-.524.623-1.045.93-1.564zm-6.062 34.32l-20.729-3.667c.031-.622.065-1.242.098-1.857l20.826 3.69.098.025zm-30.952 9.289l-.537 3.96c-.196 1.369-.49 3.422-.88 6.16-.293.227-.489.733-.587 1.515-.13.912.033 1.401.49 1.467a.428.428 0 0 1 .072.024l-.024.025-1.515-.245-.098-.049-.978 5.622 29.181 5.085h.024l-.317 1.809-27.568-4.84-4.741 26.84-.049.195-1.809-.342-.977 5.475 29.376 5.231-.147.734h.05l-.147.88-.05.195-27.567-4.84-4.839 27.035-1.71-.293-1.027 5.573 25.612 4.523-5.279.928-18.818-3.3-3.983 22.562-.807 4.474-1.662-.343-1.026 5.574 25.979 4.546-.074.098a8.713 8.713 0 0 1-1.417 1.491l-7.283-1.27-15.837-2.763-1.026 5.744-.831 4.718-3.373.587h-.049l24.415-138.305c.05 1.09.123 2.181.22 3.275zm-167.34-18.627h.392l1.124 2.396-1.564-.391c.032-.62.049-1.24.049-1.858zm-12.075-1.515v1.507l-.293.39c-.359-.26-.57-.584-.635-.973a2.198 2.198 0 0 1-.05-.438zm-1.857 66.439l-1.32-.342c.423-3.911.814-7.61 1.173-11.098.359-3.488.049-6.91-.929-10.266a36.584 36.584 0 0 0-4.449-9.583 68.094 68.094 0 0 1-5.23-9.435c-1.5-3.26-1.988-6.682-1.467-10.267.227-1.727.977-3.243 2.249-4.546 3.617-1.01 7.12-.668 10.51 1.027 2.934 1.466 5.068 3.715 6.405 6.746a45.057 45.057 0 0 1 3.227 11 278.19 278.19 0 0 1 1.368 9.167 27.32 27.32 0 0 1-.537-1.1 375.186 375.186 0 0 0-8.018-16.231c.326-1.108.26-2.2-.196-3.276-1.043-2.38-2.77-4.009-5.182-4.889-2.51-1.01-4.986-1.124-7.43-.342-.979.587-1.565 1.451-1.76 2.591-.457 2.705-.23 5.297.684 7.773a23.447 23.447 0 0 0 2.2 4.547 238.984 238.984 0 0 1 8.653 14.324 42.828 42.828 0 0 0 6.16 8.409c1.794 1.95 3.636 3.88 5.524 5.793a826.47 826.47 0 0 1-.587 6.331 83.42 83.42 0 0 1-.83 6.454zm15.204 103.262c-1.564.26-2.868.391-3.911.391-2.966 0-5.101-.946-6.404-2.837a30.843 30.843 0 0 1-1.467-.734c-.554-.391-.978-.783-1.271-1.174.032-.196.065-.571.098-1.125v-.783c0-.293.015-.636.048-1.027a1.74 1.74 0 0 1 0-.587v-2.397c0-.848.033-1.647.098-2.397l.098-.978c.098-.946.228-1.777.391-2.495 1.108 1.207 2.411 1.94 3.911 2.201a.783.783 0 0 0 .245-.049c.032.36.049.685.049.979 0 .26-.033 1.197-.098 2.812-.043.814-.092 1.8-.147 2.96.018.125.034.247.049.367.55 2.984 2.392 4.476 5.524 4.476 2.868 0 4.97-.131 6.307-.392l.098.294c.064.033.098.098.098.196a4.595 4.595 0 0 1-.098 1.81c-.75.065-1.956.228-3.618.489zm10.609-17.217c.256 1.283.615 2.45 1.075 3.497 1.306 3.017 3.432 5.096 6.38 6.238.213.089.433.17.66.244 1.47.47 3.597.74 6.38.808 1.649.047 3.53.024 5.647-.074.228.457.293.962.195 1.517-.126.037-.257.07-.39.098-2.684.744-5.52 1.054-8.507.929-2.738-.13-5.558-.62-8.458-1.468a.55.55 0 0 1-.245-.049 2.836 2.836 0 0 0-.782-.097 143.681 143.681 0 0 0-5.035-.147c-2.315-.196-4.14-.718-5.476-1.566 0-.188.008-.383.025-.587.045-1.2.25-2.618.61-4.256.087-.41.185-.834.294-1.272.228-.816.424-1.55.587-2.2.098-.328.179-.621.244-.881v-.147a3.56 3.56 0 0 0 .147-.44 5.96 5.96 0 0 1 .098-.49c.228-.913.358-1.55.39-1.908z"/><path fill="#6176c9" d="M209.876 31.04c-.554.097-1.205.325-1.954.683-.782.39-1.694.666-2.736.829-3.616.52-7.33.212-11.141-.927-1.107-.325-2.28-.666-3.518-1.025.032-.13.048-.243.048-.341v-.44a.788.788 0 0 1 0-.39c0-.455-.016-.877-.048-1.268a33.483 33.483 0 0 0 5.96 2.196c2.053.487 4.203.65 6.45.487 2.085 0 4.203-.163 6.353-.487a4.8 4.8 0 0 1 .733-.147c0 .293-.049.569-.147.83zm-19.108-13.88c3.551-.292 5.523-.439 5.914-.439 2.182-.13 4.283.342 6.304 1.417 1.922 1.074 3.518 2.556 4.789 4.445.977 1.238 1.596 2.557 1.857 3.957a10.48 10.48 0 0 1-2.2.977 27.408 27.408 0 0 1-6.303 1.025c-2.053-.13-4.154-.57-6.304-1.319-2.118-.781-3.975-1.612-5.572-2.49-1.563-.945-3.323-2.509-5.277-4.69h.097c.164 0 .31.016.44.049.065-.098.114-.147.147-.147.293-.13.44-.359.44-.684.455.52.798.75 1.026.684.456-.032.733-.26.83-.684v-.586c-.065-.456-.39-1.026-.977-1.71 1.336.229 2.932.293 4.79.196zm16.185 107.457h-.098a13.03 13.03 0 0 1-3.226-.416c-1.65-.422-3.173-1.18-4.571-2.273a14.922 14.922 0 0 1-1.834-1.71c-2.667-2.892-4.02-6.386-4.057-10.486a34.32 34.32 0 0 0 7.528 1.002c7.561.196 14.08-2.361 19.556-7.674.414-.414.822-.838 1.222-1.27.829.2 1.652.412 2.469.635a75.97 75.97 0 0 1 8.335 2.81 75.147 75.147 0 0 1 5.989 2.689l-7.26 41.158c-.306.519-.616 1.04-.929 1.564a654.666 654.666 0 0 1-2.102 3.446 486.35 486.35 0 0 1-2.836 4.644c0-1.81-.7-3.383-2.102-4.717a9.653 9.653 0 0 0-3.667-2.175 11.253 11.253 0 0 0-3.373-.49l1.37-2.908c.268-.59.536-1.176.806-1.76a668.12 668.12 0 0 0 2.395-5.18c.063-.138.128-.277.196-.416.111-.258.226-.52.342-.782.22-.483.44-.964.66-1.442a640.363 640.363 0 0 0 2.542-5.695 699.49 699.49 0 0 0 3.08-6.99 4.5 4.5 0 0 1 .831-1.271l-5.377-.073-4.962-.074-3.3-.049zM81.457 151.266h.147c.75 0 1.32-.49 1.71-1.467a7.46 7.46 0 0 0 .343-1.271c.163.061.334.16.513.293a.33.33 0 0 0 .049.05 3.8 3.8 0 0 1 .269.244c.228.554.602.928 1.124 1.124.228.098.636.18 1.223.244 1.238.034 2.102.425 2.59 1.174 3.126.587 5.683 2.135 7.676 4.644.432.559.84 1.162 1.222 1.81.913 1.58 1.515 3.177 1.81 4.79.18.97.244 1.947.195 2.934-1.24.978-2.624 1.467-4.156 1.467-3.252 0-6.095-.978-8.53-2.934-1.75-1.391-3.29-3.281-4.62-5.671-.86-1.627-1.608-3.453-2.25-5.476a51.258 51.258 0 0 1-.195-.635 80.898 80.898 0 0 1-.342-1.32c.52.293.929.293 1.222 0zm164.02-37.083c.273.448.551.929.831 1.44.766 1.428-.253 5.141-3.055 11.139zm-34.022 49.398c2.48 1.95 3.721 3.168 3.721 3.655 0 .358-.081.618-.245.78-.163.13-.457.228-.88.292a5.863 5.863 0 0 0-1.127-.097c-2.024-1.462-3.33-2.6-3.917-3.412-.783-1.04-.93-1.949-.44-2.729.62.032 1.583.536 2.888 1.511zm14.736 12.879l-.22 1.245a.176.176 0 0 0-.05-.024 66.405 66.405 0 0 1-1.76-.464 22.088 22.088 0 0 1-.415-.147c-1.984-.738-3.524-1.732-4.62-2.979-.359-.357-.765-.96-1.222-1.807-.619-1.009-1.027-1.644-1.222-1.905-.098-.097-.147-.162-.147-.195a5.98 5.98 0 0 0-.978-1.026c.065-1.04.668-1.09 1.81-.146 1.825 1.824 3.356 3.289 4.595 4.395.222.205.45.409.684.61.215.181.435.361.66.538.884.684 1.837 1.31 2.86 1.88zM98.372 330.29l-2.102.44c.698-3.604 1.31-7.221 1.833-10.852a225.163 225.163 0 0 0 1.785-17.744 302.2 302.2 0 0 0 .464-11.855 306.07 306.07 0 0 0-.073-16.353c-.196-6.648.538-13.247 2.2-19.798a44.327 44.327 0 0 0 1.32-14.103c1.146-.524 2.01-.98 2.59-1.369.929 3.63.718 8.949-.635 15.96-1.564 8.083-2.28 18.838-2.15 32.265.006.966.006 1.911 0 2.835-.004 11.977-.656 21.004-1.956 27.083-.189.88-.368 1.727-.538 2.54a1568.42 1568.42 0 0 0-2.298 10.853zM81.457 161.043a.6.6 0 0 0 .244-.488c.196.423.408.847.636 1.27 1.94 3.46 4.286 5.959 7.04 7.498 2.202 1.222 4.663 1.832 7.382 1.832.684 0 1.337-.065 1.955-.195.13-.228.245-.391.343-.489-.261.391-.538.88-.831 1.466-1.565.586-3.325.879-5.28.879-.766 0-1.548-.162-2.347-.488-2.442-.978-5.05-3.454-7.822-7.426a73.892 73.892 0 0 1-1.809-2.735c.13-.359.293-.733.489-1.124zm-64.875-2.152c0 .065.032.114.098.146l.098.341c.032.065.08.18.146.341-.586.292-1.156.585-1.71.877-1.858.974-3.716.877-5.574-.292a6.247 6.247 0 0 1 .391-1.852c1.01.488 2.07.731 3.178.731 1.205 0 2.298-.195 3.275-.584l.098.292zm-4.498-3.924c1.858-2.21 4.173-3.51 6.943-3.9.88-.358 2.493-.422 4.84-.195 2.053.195 3.6-.065 4.644-.78h.098c-.326.39-.49.748-.49 1.073 0 .455.05.633.147.536l.636.146c.293 0 .587-.13.88-.39 0 .13.032.26.098.39.716-.227 1.205-.178 1.466.146-.13.098-.26.212-.39.342-.229.26-.636.699-1.223 1.316-.684.52-1.679.828-2.982.926l-7.529.097c-.62 0-1.598.358-2.933 1.073-1.401.748-2.38 1.121-2.933 1.121-.62 0-1.354-.244-2.2-.731a6.4 6.4 0 0 1 .928-1.17zm17.991 89.751v35.128c0 1.452.081 2.813.245 4.083a382.891 382.891 0 0 1-2.934 11.073 75.61 75.61 0 0 0-2.835 17.062 282.061 282.061 0 0 0-.293 16.574l-.734.44-3.177.83v-2.053a2779.39 2779.39 0 0 1-.147-16.769 67.9 67.9 0 0 1 1.809-15.644 162.146 162.146 0 0 0 3.03-16.819 96.55 96.55 0 0 0 .587-16.817 80.429 80.429 0 0 1 1.027-17.454zm69.373-3.445c.07 1.94-.255 3.863-.978 5.766-3.422 9.06-4.872 18.493-4.351 28.301.27 5.305.474 10.617.611 15.935.107 3.662.18 7.328.22 10.998a144.013 144.013 0 0 1-.978 18.306 146.39 146.39 0 0 1-1.564 10.19l.098.831-3.423 1.222c.56-3.598 1.033-7.475 1.418-11.632.248-2.608.459-5.33.636-8.164.312-5.423.173-12.439-.416-21.041a401.652 401.652 0 0 0-.806-9.85c-1.24-13.23-1.467-22.485-.685-27.764.64-4.317 1.56-8.44 2.762-12.365 3.01-.152 5.495-.396 7.456-.733zm-54.975 55.612c-.475 3.557-.81 7.132-1.002 10.726-.294 6.06-.636 12.088-1.027 18.084l-.733.342-1.565.928h-1.222a248.521 248.521 0 0 1-.684-15.59 76.352 76.352 0 0 1 1.295-15.371 33.252 33.252 0 0 0 2.029.367zm49.06 46.608c.227.847-.033 1.383-.783 1.611-.261.131-.978.244-2.151.342-.815-.065-2.183-.032-4.107.098-1.662-.065-2.819-.65-3.47-1.758-1.24-.195-2.853-.325-4.84-.39-1.108-.066-2.755-.13-4.938-.195-3.88-.294-6.96-1.172-9.24-2.637-.391-.064-.587-.292-.587-.683 0-.163.066-.488.196-.976 2.249 1.333 4.97 2.196 8.164 2.588 1.597.227 4.449.34 8.555.34 2.706.392 4.857.636 6.454.733 2.412.097 4.595-.05 6.55-.44z"/><path fill="#071b46" d="M191.554 109.294l-5.426-.904-.098-1.32c1.787.91 3.63 1.652 5.524 2.224"/><path fill="#46589e" d="M185.002 18.789c-.13-.72-.194-1.128-.194-1.226-.033-.426.081-.72.34-.883.228.13.503.229.828.294.583.687.908 1.258.973 1.716v.589c-.098.425-.373.653-.828.686-.226.066-.567-.163-1.021-.686a1.31 1.31 0 0 0-.098-.49zm4.253 5.962c1.597.88 3.454 1.712 5.571 2.495 2.15.75 4.252 1.191 6.304 1.321 2.15-.098 4.252-.44 6.305-1.027a10.472 10.472 0 0 0 2.2-.979c.065.294.114.587.146.88.065.425.13.816.195 1.175.033.26.05.538.05.832v.783a4.763 4.763 0 0 0-.734.147c-2.15.326-4.267.49-6.353.49-2.248.163-4.399 0-6.451-.49a33.428 33.428 0 0 1-5.963-2.202c-.456-.49-.912-.93-1.368-1.321a1.702 1.702 0 0 0-.635-.539 15.664 15.664 0 0 0-2.249-2.104c-1.302-1.174-2.069-2.56-2.297-4.159 1.955 2.185 3.715 3.751 5.279 4.698zm4.791 6.89c3.812 1.141 7.525 1.452 11.141.93 1.043-.164 1.955-.44 2.737-.832.75-.36 1.401-.588 1.954-.686-.195 1.37-.684 2.676-1.465 3.916a4.263 4.263 0 0 1-.929 1.567 4.214 4.214 0 0 1-1.075.587c-.456.326-1.01.588-1.661.783a1.62 1.62 0 0 1-.391.05c-1.239.325-2.541.408-3.91.244-.977-.13-1.97-.832-2.98-2.105a80.476 80.476 0 0 0-1.27-1.566h-.099a1.258 1.258 0 0 1-.293-.294l-.83-.538h-.05a1.19 1.19 0 0 0-.44-.098c-.358 1.077-.846 1.598-1.465 1.566-.521-.065-1.042-.44-1.564-1.126-.423-.717-.7-1.534-.83-2.447l-.098-.539c.032-.13.049-.244.049-.342-.033-.034-.05-.066-.05-.098 1.24.359 2.412.7 3.52 1.028zm5.276 163.641l-5.62-.879-1.613-.244a75.577 75.577 0 0 1-.22-3.278 82.371 82.371 0 0 1 .074-9.827c.457-7.168.612-14.309.464-21.417a251.73 251.73 0 0 0-5.473-47.53c-.256-1.24-.525-2.48-.806-3.715l5.424.904c.534.162 1.071.31 1.613.44.038 4.1 1.39 7.596 4.056 10.489a14.92 14.92 0 0 0 1.832 1.711c1.398 1.094 2.921 1.852 4.57 2.274 1.024.269 2.1.408 3.224.416h.098c.228 1.89.278 3.765.147 5.623-.214 2.926-.426 5.852-.636 8.777-.12 1.852-.243 3.702-.366 5.55l-.122 1.883c-.606 9.15-1.16 18.31-1.662 27.48-.1 1.88-.197 3.763-.293 5.648l-.098 1.858a2508.7 2508.7 0 0 0-.684 14.425zm24.174-38.681c-.802-.909-1.607-1.643-2.417-2.203a9.191 9.191 0 0 0-1.416-.832 6.562 6.562 0 0 0-2.686-.587l-.977-1.616c1.203 0 2.327.164 3.37.49a9.635 9.635 0 0 1 3.662 2.178c1.4 1.335 2.1 2.91 2.1 4.724a24.603 24.603 0 0 0-1.636-2.154zm-13.169 4.344c.164.032.31.098.44.196 1.368.685 2.819 1.76 4.35 3.228 2.735 2.576 4.282 3.995 4.641 4.256.228.228.489.473.782.734.628.61 1.37 1.336 2.223 2.177.662.642 1.386 1.352 2.175 2.128.514.45 1.01.865 1.49 1.247l.024.024-.268 1.541-.025-.024a22.964 22.964 0 0 1-2.858-1.883 30.92 30.92 0 0 1-.66-.538 32.884 32.884 0 0 1-.684-.612c-1.238-1.108-2.769-2.576-4.593-4.403-1.14-.946-1.743-.897-1.808.147a4.078 4.078 0 0 0-1.515-.831c.424-.066.716-.164.88-.294.163-.163.244-.424.244-.783 0-.489-1.238-1.712-3.714-3.668-1.302-.979-2.263-1.485-2.883-1.517.261-.457.717-.897 1.369-1.32zm-4.113 46.399c.13.032.228.049.293.049 1.923.424 3.274.734 4.056.93.293.947.049 1.47-.733 1.568-.293.032-1.026-.017-2.199-.147-1.76-.425-4.349-.8-7.77-1.127-.967-.1-1.862-.199-2.687-.294l-.195-.024c-1.994-.259-3.566-.52-4.716-.784a.551.551 0 0 0-.073-.025c-.456-.065-.619-.555-.489-1.47.098-.782.293-1.289.587-1.517a65.506 65.506 0 0 1 2.443.392c.684.13 1.466.277 2.345.44 2.28.457 3.877.752 4.789.882.75.228 1.71.49 2.883.783.456.099.945.212 1.466.344zM28.891 151.862l-.632-.148c-.097.099-.146-.081-.146-.54 0-.329.163-.688.486-1.082.357-.196.649-.065.875.394.065.229.162.557.292.983-.292.262-.583.393-.875.393zm2.44 1.605a6.548 6.548 0 0 1-.392 1.126c-.13.196-.26.408-.39.637-.392.555-.782.93-1.173 1.126-.652.358-1.45.538-2.395.538a55.199 55.199 0 0 1-2.443-.392c-2.183-.391-3.877-.391-5.083 0-1.238.392-1.954.62-2.15.686-.227.065-.488.196-.782.391-.032 0-.048.017-.048.05-.066 0-.098.032-.098.097 0 .033-.017.065-.05.098-.031.164.018.424.148.783-.978.392-2.07.588-3.275.588a7.194 7.194 0 0 1-3.176-.734c.26-.784.635-1.55 1.124-2.301.847.49 1.58.734 2.199.734.554 0 1.532-.375 2.932-1.126 1.336-.718 2.313-1.077 2.932-1.077l7.526-.098c1.304-.098 2.297-.408 2.98-.93.587-.62.995-1.06 1.222-1.322.13-.13.261-.244.391-.342.164.261.164.75 0 1.468zm-14.228 6.94c0 2.154-.749 3.932-2.246 5.335-.065.065-.13.098-.195.098l-1.611-1.86-.098-.098v.05l-.635-.294c-.423 2.217.066 4.29 1.465 6.214l-.977-.342c-2.18-2.643-3.239-5.71-3.173-9.2 1.855 1.174 3.71 1.272 5.566.294a83.453 83.453 0 0 1 1.709-.881zm2.108 169.588c-1.498-.26-2.802-.993-3.909-2.2l-1.124-.733a57.425 57.425 0 0 0-.293-6.6 224.87 224.87 0 0 1-1.123-16.963c-.13-4.498.423-8.996 1.66-13.493 1.499-5.54 1.727-11.097.685-16.67a202.922 202.922 0 0 1-2.297-15.889 102.975 102.975 0 0 1-.39-16.768l10.21 2.787 4.007.88a80.458 80.458 0 0 0-1.026 17.452 96.596 96.596 0 0 1-.586 16.816 161.983 161.983 0 0 1-3.03 16.818 68.02 68.02 0 0 0-1.807 15.644c.033 5.573.08 11.163.146 16.768v2.054a8.12 8.12 0 0 0-.88.047.76.76 0 0 1-.243.05zm64.778 3.276c-.88-.098-1.774-.31-2.687-.637a78.96 78.96 0 0 0-1.906-.733l-.635-.292c.71-2.87 1.304-5.754 1.783-8.653a113.994 113.994 0 0 0 1.54-19.946 73.827 73.827 0 0 0-5.13-26.399c-3.585-9.158-5.034-18.643-4.35-28.452.151-1.996.313-3.992.488-5.989 1.832-.168 3.917-.209 6.255-.122.098 0 .538.017 1.32.049h.293c.62 0 1.433.032 2.443.097 3.222 0 6.082-.065 8.576-.195-1.201 3.928-2.122 8.05-2.76 12.368-.783 5.28-.554 14.536.683 27.768.327 3.486.595 6.77.806 9.85.59 8.606.728 15.622.416 21.047a252.064 252.064 0 0 1-.635 8.164 189.72 189.72 0 0 1-1.418 11.635c-1.693.52-3.388.668-5.082.44zm18.478-79.146c-1.66 6.551-2.393 13.152-2.198 19.8.17 5.461.194 10.913.073 16.355-.077 3.959-.231 7.91-.464 11.857a225.394 225.394 0 0 1-1.783 17.748c-.522 3.63-1.133 7.25-1.832 10.854l-3.858.049c.641-3.39 1.163-6.787 1.563-10.195a144.2 144.2 0 0 0 .977-18.31c-.04-3.67-.114-7.337-.22-11a636.072 636.072 0 0 0-.61-15.94c-.522-9.81.927-19.247 4.347-28.308.722-1.905 1.047-3.827.977-5.769 1.518-.251 2.723-.56 3.614-.929l.733-.318a44.379 44.379 0 0 1-1.319 14.106zM38.225 326.72l-6.152-2.249-.88-.587c.457-5.9.522-11.83.196-17.794a84.485 84.485 0 0 1 .684-16.01c1.567 3.062 4.05 5.033 7.446 5.915a76.468 76.468 0 0 0-1.294 15.373 249.11 249.11 0 0 0 .684 15.596zm55.304 14.082c2.017-.229 3.643-.523 4.88-.883.585 1.503.244 2.566-1.025 3.187-.976.457-2.262.588-3.855.392l-.196-1.373z"/><path fill="#009561" d="M187.197 47.72c4.921.032 7.708 3.976 8.36 11.83.619 7.854 1.043 15.072 1.27 21.654.033.94.074 1.861.123 2.762.267 5.454.765 10.317 1.491 14.592.604 3.695 1.174 6.881 1.711 9.556.13.672.261 1.307.391 1.907.048.244.097.48.147.709a34.378 34.378 0 0 1-7.529-1.003 29.777 29.777 0 0 1-1.613-.44 33.515 33.515 0 0 1-5.524-2.224c-.2-.094-.396-.191-.587-.293.086-.78.193-2.164.318-4.155.07-1.001.143-2.159.22-3.47.013-.277.021-.562.024-.856.128-3.5-.018-7.908-.44-13.223a86.378 86.378 0 0 0 1.785-4.693c1.336-3.747 2.232-7.479 2.688-11.194.163-1.662.294-3.324.392-4.986a62.562 62.562 0 0 0-.098-6.99 16.76 16.76 0 0 0-.538-3.275 8.354 8.354 0 0 0-1.858-3.422 5.78 5.78 0 0 0-1.662-1.222 9.171 9.171 0 0 0-1.173-.415 22.053 22.053 0 0 1 2.102-1.149zm39.257 127.212l-.024-.024c-.48-.381-.978-.797-1.491-1.247a878.12 878.12 0 0 0-2.176-2.127 568.33 568.33 0 0 0-2.224-2.175 4.5 4.5 0 0 1-.391-.587c-.424-.814-.636-1.988-.636-3.52 0-1.108.326-2.836.978-5.182.065-.258.122-.51.17-.758.425-1.82.58-3.263.465-4.327a3.494 3.494 0 0 1-.049-.587c.81.56 1.618 1.293 2.42 2.2a24.722 24.722 0 0 1 1.638 2.152l.098.489v.195c.098.457.162.978.196 1.565 0 .456.016.929.048 1.417.033 1.858.115 3.293.245 4.303 0 .098.015.179.049.244.065.13.098.277.098.44.293.587.684 1.533 1.173 2.836.053.116.11.23.17.342zm-15.889 33.392c-.782-.195-2.134-.504-4.057-.929-.066 0-.164-.016-.294-.048a43.722 43.722 0 0 0-1.466-.343c-1.141-1.4-2.184-3.144-3.13-5.23-.912-1.989-1.678-4.157-2.297-6.503l3.911.586.05.147c.227.359.455.799.684 1.32l.097.049c.783 1.695 1.45 2.901 2.005 3.618.26.195.847.718 1.76 1.564.88.685 1.548 1.255 2.004 1.711.62.717 1.01 1.402 1.173 2.054.13.554.065 1.092-.195 1.613v.098a1.408 1.408 0 0 1-.196.147v.146zM30.07 195.271l9.338 1.662v34.482c-.482-.006-1.02.034-1.614.122-.529.078-.993.176-1.393.294a8.935 8.935 0 0 0-.562-.831 129.105 129.105 0 0 1-4.253-5.914c-.508-.74-1.012-1.481-1.516-2.224zm2.004 94.814c-.876-1.715-1.462-3.768-1.76-6.16a32.044 32.044 0 0 1-.244-4.081V236.95a9.08 9.08 0 0 0 2.787 1.637v.293c0 .685.44 1.58 1.32 2.689 1.238 1.596 2.884 2.395 4.937 2.395.096 0 .194-.008.294-.024v37.566c0 3.444.447 6.352 1.344 8.725.87 2.318 2.165 4.127 3.887 5.426.37.273.761.526 1.173.758a12.33 12.33 0 0 0 3.373 1.32l-4.717-.856-2.91-.513a33.239 33.239 0 0 1-2.028-.367c-3.4-.88-5.886-2.852-7.456-5.914zm7.334-55.685c-.135-.066-.265-.132-.391-.193l.39-.17z"/><path fill="#00cb8d" d="M221.076 154.398a9.198 9.198 0 0 0-1.417-.83 6.568 6.568 0 0 0-2.69-.588c-.75.913-1.76 1.989-3.03 3.227-1.988 1.857-3.325 3.373-4.01 4.546l.392.196c.163.033.31.098.44.196 1.369.684 2.819 1.76 4.351 3.226 2.738 2.575 4.286 3.993 4.644 4.253.228.229.49.473.783.734a4.37 4.37 0 0 1-.391-.587c-.424-.815-.636-1.988-.636-3.52 0-1.108.326-2.836.978-5.182.065-.257.122-.51.17-.757.425-1.822.58-3.264.465-4.328a3.59 3.59 0 0 1-.049-.586zm-88.431 22.782l-23.523 4.155c.173.87.271 1.716.294 2.543a4.233 4.233 0 0 1-.147.734l32.716-5.77zm14.415 41.409a5.239 5.239 0 0 0-.93-.196 16.158 16.158 0 0 0-4.155.048v5.818c2.542-2.151 5.427-3.503 8.653-4.058.13-.032.262-.049.392-.049 1.564-.26 3.047-.293 4.448-.096zm46.639-24.2c-.163 1.206-.342 2.526-.538 3.96l-.88 6.16a66.437 66.437 0 0 1 2.444.392l2.347.44c2.281.455 3.88.748 4.791.878.75.23 1.711.49 2.885.783-1.141-1.402-2.184-3.145-3.13-5.232-.911-1.987-1.678-4.155-2.297-6.502zm-129.676-1.81a73.924 73.924 0 0 1-2.273-2.908l-16.476 2.909-3.862.684-11.342 2.004 9.338 1.663z"/><path fill="#e9fcff" d="M193.11 43.953a6.704 6.704 0 0 1-.978-.44 4.258 4.258 0 0 1-1.124-.953 9.476 9.476 0 0 0-.88.22c-.978.391-1.793.929-2.445 1.613-.716.75-1.107 1.63-1.173 2.64 1.247-.543 2.623-.983 4.131-1.32.747-.71 1.57-1.296 2.469-1.76zM27.428 175.707l-.685.05 1.125 2.395c.065.195.114.39.146.586a2.73 2.73 0 0 1 0 .734c-2.476 1.955-5.003 2.297-7.577 1.026-2.608-1.304-4.76-2.754-6.454-4.35-.358-.262-.57-.587-.635-.979a2.297 2.297 0 0 1-.05-.44l.979-.488v-.538a4.288 4.288 0 0 0-.783.342c-1.303.749-1.972 1.939-2.004 3.569 2.444 2.868 5.46 4.823 9.044 5.866a27.497 27.497 0 0 1 9.582 4.498c0-.456.017-.912.05-1.369.26-2.965-.213-5.752-1.418-8.36z"/><path fill="#00f1b3" d="M220.248 103.058c-5.476 5.313-11.995 7.871-19.556 7.676-.05-.228-.098-.465-.146-.71a85.958 85.958 0 0 1-.391-1.906c-.537-2.675-1.107-5.86-1.711-9.558-.727-4.274-1.225-9.139-1.492-14.593a143.89 143.89 0 0 1-.122-2.762c-.228-6.583-.652-13.802-1.27-21.657-.653-7.855-3.44-11.798-8.36-11.831.794-.193 1.593-.38 2.395-.563a60.967 60.967 0 0 0 18.235.123c2.714-.299 3.904-1.447 3.569-3.447 2.446.772 4.37 1.498 5.769 2.176 2.085 1.01 3.356 3.324 3.813 6.942.423 3.585.049 9.826-1.124 18.724-1.207 8.865-.474 18.692 2.2 29.48-.194.215-.39.427-.587.635-.4.433-.808.857-1.222 1.271zm-78.27 75.777v45.417c2.542-2.15 5.426-3.503 8.653-4.058.13-.032.26-.048.39-.048 1.565-.262 3.049-.294 4.45-.098.325.033.635.098.929.196 2.02.39 3.862 1.287 5.524 2.69 3.161 2.638 4.742 6.207 4.742 10.705 0 4.497-1.58 8.605-4.742 12.32-3.129 3.747-6.893 6.013-11.293 6.796-3.227.553-6.111.228-8.653-.978v31.19l-38.378 6.747c.007-.924.007-1.87 0-2.836-.13-13.428.587-24.183 2.151-32.266 1.352-7.013 1.564-12.333.636-15.962.667-.46.943-.826.831-1.1-.131-2.542-.049-6.681.244-12.417.294-5.737 1.157-14.83 2.592-27.28.58-5.168.221-9.307-1.076-12.418a5.01 5.01 0 0 0 .293-.831zM39.41 196.924l24.615-4.351c.361.444.728.884 1.1 1.32a52.285 52.285 0 0 1 2.298 2.885l.489.928c2.477 4.889 3.928 9.256 4.35 13.102.392 3.846.75 8.197 1.076 13.053.294 4.823-.016 10.951-.928 18.383.225-.027.453-.05.684-.074a495.694 495.694 0 0 0-.489 5.989c-.684 9.81.766 19.295 4.351 28.452a73.852 73.852 0 0 1 4.449 17.014l-22.733 4.008c-2.868.522-5.427.653-7.675.392a.55.55 0 0 0-.245-.048 20.853 20.853 0 0 1-1.564-.245 12.329 12.329 0 0 1-3.374-1.32 11.625 11.625 0 0 1-1.173-.758c-1.722-1.3-3.017-3.109-3.887-5.427-.896-2.373-1.344-5.282-1.344-8.727v-37.57c.92-.108 2.011-.736 3.276-1.883 1.27-1.205 1.906-2.102 1.906-2.688v-.49c-.032 0-.082-.047-.147-.146.685.196 1.304-.113 1.858-.929.424-.847.636-1.288.636-1.32 0-.293-.49-.472-1.467-.538-1.695-.13-3.503-.536-5.426-1.222-.221-.112-.434-.217-.636-.318v-.366c1.63-.717 2.526-1.206 2.689-1.467-.477-.74-1.374-1.122-2.689-1.149z"/><path fill="#ff996e" d="M188.176 28.363c.26.196.567.457.925.783.552.455 1.039.83 1.46 1.124v-.44a.793.793 0 0 1 0-.391c0-.457-.016-.88-.049-1.271a17.09 17.09 0 0 0-1.363-1.32 1.697 1.697 0 0 0-.633-.538c-.13.457-.243 1.076-.34 1.858zm6.648 15.253c.292-.498.52-1.036.685-1.613.277-.99.374-2.098.293-3.324 0-.294-.016-.587-.049-.88.294-.228.473-.62.538-1.174v-.488a2.17 2.17 0 0 0 .049-.392c-.002.067-.019.117-.049.147-.065.326-.31.863-.733 1.613-.555.717-.864 1.24-.93 1.565-.205 1.441-.531 2.468-.977 3.08a2.083 2.083 0 0 1-.391.39c-.717.588-1.092.913-1.124.979.293.163.618.31.977.44zM46.008 131.03a7.969 7.969 0 0 0-.146 1.564c0 .862.139 2.026.415 3.496.057.263.114.532.171.806a2.7 2.7 0 0 0 .22-.073c.538-.176.807-.38.807-.611a2.284 2.284 0 0 0-.098-.294 1.66 1.66 0 0 1-.097-.146v.635a5.407 5.407 0 0 1-.196-.44 7.222 7.222 0 0 1-.196-.733c-.195-.848-.195-1.858 0-3.031v.293c.098-.684.375-1.336.832-1.955-.098 0-.147.015-.147.049a2.99 2.99 0 0 0-1.565.44zm-2.053 2.64c-.098.325-.374 1.042-.83 2.15v.147c.046.21.11.43.195.66.028.087.06.177.097.27.522 1.237.897 1.955 1.125 2.15.195 0 .342-.114.44-.342a17.233 17.233 0 0 0-.27-2.322 12.859 12.859 0 0 0-.757-2.713zm7.04-.49a2.16 2.16 0 0 0-.195-.39c-.392-.228-.717-.13-.978.293v.098l-.05.146a1.118 1.118 0 0 0-.244.44l-.293.636c.15.365.289.74.416 1.124.058.191.115.386.17.587.294-.065.506-.18.636-.342v-.391c.043-.922.223-1.656.538-2.2zm32.389-3.593c.032.195.055.407.073.636a12.587 12.587 0 0 1 2.305 3.74.823.823 0 0 1 .196 0c.27.041.557.073.858.098.031-.642-.5-1.75-1.594-3.325a10.963 10.963 0 0 0-1.03-1.295zm85.383-11.708c.065-.066.098-.115.098-.147a1.98 1.98 0 0 0 .342-.88c.232-.713.395-1.284.489-1.711.097-.426.13-.72.098-.88-.13-.13-.326-.13-.587 0-.276.37-.537.736-.782 1.1-.827 1.27-1.43 2.5-1.81 3.691.294-.229 1.01-.619 2.152-1.173zm-5.72 1.906a5.33 5.33 0 0 0 1.271-1.173c.517-.647 1.146-1.6 1.882-2.86.2-.332.404-.682.611-1.051-.716-.326-1.124-.374-1.222-.147-.13.13-.228.294-.293.49.228-.164.391-.326.489-.49a4.505 4.505 0 0 1-.49 1.174 1.8 1.8 0 0 1-.121.195c-.426.73-1.086 1.512-1.98 2.347a.374.374 0 0 1 .122-.171 6.344 6.344 0 0 1-1.833.953c.52.391 1.043.636 1.564.733zm-2.493-5.188c-.13.162-.212.308-.245.438.196.487.521.65.978.487l.293-.195c.098 0 .261-.065.49-.194l.684-.341a7.781 7.781 0 0 1 .733-1.803c-.293-.163-.57-.227-.831-.195-.75.91-1.45 1.51-2.102 1.803zm-76.96 53.686a.893.893 0 0 1-.293-.392 2.847 2.847 0 0 0-.097.783l-.488 1.173c-.097.228-.373.374-.828.44-.325.098-.52.212-.585.342l-.877 2.053c.163.555.341 1.125.536 1.712.097.26.309.488.633.684.293.098.617.163.975.196.065-1.044.179-2.2.341-3.472.13-.586.358-1.743.683-3.47zm-1.897-7.725c0-.293-.114-.57-.342-.83l-.05-.05c-.227-.26-.586-.603-1.075-1.026v.048l-.44 1.027a2.729 2.729 0 0 1-.244.538l.244.733c.326.847.636 1.483.93 1.907.031-.163.08-.294.146-.391l.098-.343c.13-.358.293-.733.488-1.124a.6.6 0 0 0 .245-.489zm-52.31-4.204c-.653.358-1.45.538-2.396.538a55.309 55.309 0 0 1-2.444-.392c-2.184-.39-3.88-.39-5.085 0-1.239.392-1.955.62-2.15.685a2.917 2.917 0 0 0-.783.391c-.032 0-.049.017-.049.049-.066 0-.098.032-.098.098 0 .032-.016.065-.049.097-.032.164.017.424.147.783l.098.293c0 .065.032.114.098.147l.097.342c.033.065.081.179.147.342l.195.685c.978-1.206 2.233-1.81 3.765-1.81 3.422 0 6.437-.276 9.044-.83h.147a18.373 18.373 0 0 0-.685-1.418zm-16.33 7.626l-.097-.097v.293c0 1.694.408 3.014 1.222 3.96.326-.359.49-1.125.49-2.298zm1.223 11.782c2.412 1.89 5.052 3.194 7.92 3.911 1.825.36 3.194-.276 4.106-1.906.033-.62.05-1.239.05-1.858v-.147h-.05c-2.51-.163-4.66-.75-6.453-1.76-2.249-1.303-3.487-2.835-3.715-4.595-.521.978-1.108 1.206-1.76.684l-.098 3.618z"/><path fill="#ffac82" d="M196.343 35.253c0 .033-.017.245-.05.636-.065.325-.309.863-.732 1.613-.555.717-.865 1.239-.93 1.565-.206 1.44-.531 2.467-.977 3.08a2.083 2.083 0 0 1-.391.39c-.717.587-1.092.914-1.125.978a4.242 4.242 0 0 1-1.124-.953c-.425-.513-.8-1.157-1.124-1.931a1.663 1.663 0 0 0-.196-.44c-.326-1.043-.652-2.493-.978-4.351a3.866 3.866 0 0 1-.39-.831c-.49-1.043-.75-1.646-.783-1.81a13 13 0 0 1 .684-2.003 89.191 89.191 0 0 1-.049-2.836c.262.196.57.457.93.782a22.82 22.82 0 0 0 1.466 1.125c0 .097-.017.212-.049.342 0 .032.016.065.049.098 0 .097-.017.212-.049.342l.098.538c.13.912.407 1.727.831 2.444.521.684 1.042 1.059 1.564 1.124.62.033 1.108-.488 1.467-1.564.13 0 .277.032.44.098h.049l.831.538c.066.097.163.195.293.293.13.228.212.472.245.733zm-33.83 74.066c.945-1.956 2.117-3.471 3.52-4.547.455 1.044 1.156 1.826 2.101 2.347 1.76 1.01 3.553 1.597 5.378 1.76-.163.945-.391 2.347-.684 4.204a10.612 10.612 0 0 1-.44 1.59c-.32.88-.744 1.604-1.272 2.175-.554.13-1.336.472-2.346 1.026.065-.065.098-.114.098-.146.195-.294.309-.587.342-.88.232-.713.395-1.284.489-1.711.097-.427.129-.72.097-.88-.13-.13-.325-.13-.586 0-.276.37-.537.736-.782 1.1-.827 1.27-1.43 2.5-1.81 3.69l-.195.05c-1.27.652-2.395.88-3.373.684a5.33 5.33 0 0 0 1.271-1.173c.517-.648 1.145-1.6 1.882-2.86.2-.333.403-.683.611-1.051-.717-.326-1.124-.375-1.222-.147-.13.13-.229.293-.293.489-.177.303-.38.629-.611.978-.074.093-.147.19-.22.293-.425.814-.8 1.369-1.125 1.662l.05.05a.262.262 0 0 0-.074.072 6.344 6.344 0 0 1-1.834.954c.033.032-.016.049-.146.049-1.109-.228-1.304-.831-.587-1.81.063-.083.243-.311.538-.684l.587-.733c.455-.489.75-.848.88-1.076a7.756 7.756 0 0 1 .733-1.808c-.293-.164-.571-.228-.831-.196-.75.912-1.451 1.516-2.102 1.809.39-1.923 1.042-3.683 1.955-5.28zM43.176 141.691c-.783-1.37-1.174-2.61-1.174-3.718.214-.3.45-.716.71-1.248.13-.267.27-.568.415-.905v.147c.047.211.112.43.196.66.028.087.06.177.098.27.521 1.24.897 1.956 1.125 2.152.196 0 .343-.115.44-.342a17.4 17.4 0 0 0-.269-2.324 12.924 12.924 0 0 0-.758-2.715c.064-.098.098-.164.098-.196.521-1.142 1.174-1.957 1.957-2.446a7.971 7.971 0 0 0-.147 1.565c0 .862.14 2.028.416 3.498.057.263.114.533.171.807.078-.022.151-.046.22-.073.539-.176.808-.38.808-.611a2.285 2.285 0 0 0-.098-.294 1.664 1.664 0 0 1-.098-.147 15.677 15.677 0 0 1-.147-1.418c-.163-.849-.244-1.468-.244-1.86.098-.684.375-1.337.832-1.956.88-.555 1.37-.262 1.468.88v1.664c0 .652.016 1.092.048 1.32.15.365.29.74.416 1.126.06.19.116.386.172.587.293-.066.506-.18.636-.343v-.391c.043-.923.222-1.657.538-2.202a19.6 19.6 0 0 1 .905 1.957c.376.974.66 1.969.857 2.984.457 1.957.521 3.767.195 5.43-1.142-.652-2.48-.75-4.012-.293-1.033.273-2.207.828-3.523 1.664l-.294.195c-.391-.783-1.044-1.924-1.957-3.424zm46.1-13.162c.085.419.15.841.196 1.27.13 1.66-.081 3.157-.635 4.492a1.092 1.092 0 0 0-.22-.025.86.86 0 0 1-.074-.073 3.972 3.972 0 0 0-1.222-.097 8.82 8.82 0 0 1-.513-.05c.03-.64-.499-1.748-1.59-3.32a11.048 11.048 0 0 0-1.026-1.294l.88-.147c-1.676-.447-2.865-.975-3.569-1.587-.619-.553-.863-1.106-.733-1.66.195-.847 1.238-.83 3.129.049 1.922.879 2.803 1.71 2.64 2.49-.057.198-.121.36-.196.489zm-5.964 39.358a2.838 2.838 0 0 0-.098.782l-.489 1.174c-.097.227-.374.374-.83.44-.326.097-.522.212-.587.342l-.88 2.053c-.521-1.89-.897-3.536-1.125-4.938-.423-2.444-.489-4.693-.195-6.746.163-.228.31-.472.44-.733l.244.733c.326.848.636 1.483.929 1.907-.195.652-.261 1.368-.195 2.15a8.734 8.734 0 0 0 1.026 3.912c.391-.783.652-1.255.782-1.418.36-.293.783-.049 1.271.733a.878.878 0 0 1-.293-.39zm-70.35-3.96v.245c0 1.694.408 3.014 1.222 3.96.326-.36.489-1.125.489-2.298.066 0 .13-.032.196-.098 1.498-1.401 2.248-3.178 2.248-5.329.978-1.205 2.233-1.809 3.765-1.809 3.422 0 6.436-.276 9.044-.83h.147c.652 1.76.912 3.65.782 5.67-.163 2.51-.457 4.612-.88 6.307-.457 1.662-.88 3.096-1.271 4.302-.293.848-.718 1.401-1.271 1.662l-.685.05h-.44c-2.51-.164-4.66-.75-6.453-1.76-2.249-1.304-3.488-2.836-3.715-4.596-.522.977-1.11 1.205-1.76.684l-.391-.195h-.098c-.032 0-.066-.017-.098-.05-1.401-1.923-1.89-3.992-1.467-6.208zm26.057 70.277c.126.062.257.128.391.196.203.1.415.205.636.317 1.923.685 3.731 1.092 5.427 1.223.977.065 1.466.244 1.466.537 0 .033-.212.473-.635 1.32-.555.816-1.174 1.125-1.858.93.064.097.114.146.147.146v.489c0 .586-.636 1.483-1.907 2.689-1.264 1.147-2.356 1.774-3.276 1.882-.1.016-.197.024-.293.024-2.053 0-3.699-.799-4.938-2.395-.88-1.11-1.32-2.005-1.32-2.69v-.292c.012-1.41.11-2.42.294-3.032.263-.79.703-1.402 1.32-1.833v-.024c0-.844.643-1.464 1.93-1.858.4-.117.865-.216 1.394-.293a10.229 10.229 0 0 1 1.613-.123c1.316.027 2.212.41 2.69 1.15-.164.26-1.06.75-2.69 1.466l-.39.171z"/><path fill="#e67d53" d="M207.05 39.36a45.694 45.694 0 0 0 0 2.982c-1.142.39-2.3.69-3.471.905a23.84 23.84 0 0 1-5.965.317c-.945 0-1.873.017-2.786.05.291-.5.52-1.037.684-1.614.278-.99.375-2.098.293-3.324 0-.294-.016-.587-.048-.88.293-.228.473-.62.537-1.174v-.489a2.17 2.17 0 0 0 .05-.39c-.003.066-.02.116-.05.146.033-.391.05-.603.05-.636a1.93 1.93 0 0 0-.245-.733h.098c.195.228.619.75 1.27 1.564 1.01 1.272 2.005 1.973 2.983 2.103 1.369.163 2.672.08 3.91-.245.131 0 .262-.016.392-.049.652-.195 1.206-.456 1.662-.782a4.219 4.219 0 0 0 1.076-.587 5.334 5.334 0 0 0-.245 1.027c-.032.228-.097.44-.195.636.032.26.049.489.049.684zM95.145 175.994c-.648.432-1.463.757-2.445.977-.937.196-2.029.293-3.275.293-3.097 0-5.117.147-6.063.44-.032-.717-.08-1.14-.146-1.27-.066-.52-.277-.912-.636-1.172.066-1.042.18-2.198.342-3.467.131-.586.36-1.742.685-3.468.163 1.238.652 2.425 1.467 3.565.782 1.042 1.808 1.873 3.08 2.49 1.14.555 2.378.831 3.715.831 1.303 0 2.493-.407 3.569-1.22-.098.455-.196 1.122-.293 2.001zm-67.27 2.16c.065.195.114.39.146.586a2.73 2.73 0 0 1 0 .734c-2.477 1.955-5.003 2.297-7.578 1.026-2.607-1.304-4.759-2.754-6.453-4.35l.293-.392c2.412 1.89 5.052 3.194 7.92 3.911 1.826.36 3.195-.276 4.107-1.906z"/><path fill="#deedff" d="M194.82 43.612a76.626 76.626 0 0 1 2.788-.049c2.025.143 4.013.036 5.967-.317a24.577 24.577 0 0 0 3.472-.905l1.81-1.125.195-.684-2.005-1.173.049-.489c1.663.456 2.853 1.418 3.57 2.884.393.777.637 1.469.734 2.078.335 1.999-.855 3.148-3.57 3.447a61.049 61.049 0 0 1-18.39-.147l.783-.978c.139-.15.278-.297.415-.44a10.65 10.65 0 0 1 2.47-1.76zm-8.55 5.67a5.799 5.799 0 0 1 1.664 1.222c.88.978 1.5 2.12 1.858 3.423.294 1.108.473 2.2.538 3.276a62.54 62.54 0 0 1 .098 6.99 127.57 127.57 0 0 1-.391 4.988c-.457 3.715-1.353 7.446-2.69 11.195a85.573 85.573 0 0 1-1.785 4.693 93.378 93.378 0 0 1-.954 2.2 193.753 193.753 0 0 1-4.597 9.876 524.626 524.626 0 0 0-2.2 4.35l-.588 1.468c-.75 2.314-1.988 4.285-3.717 5.915-1.826-.163-3.619-.75-5.38-1.76-.945-.522-1.645-1.304-2.102-2.348a45.56 45.56 0 0 1 1.907-4.496c.261-.555.57-1.06.93-1.516.227-.391.472-.782.733-1.173a8.293 8.293 0 0 0 .636-1.565 201.065 201.065 0 0 1 2.592-7.92 60.33 60.33 0 0 0 1.418-4.302 34.55 34.55 0 0 0 1.516-8.8 58.75 58.75 0 0 0 .147-6.355c-.13-3.097-.245-6.193-.342-9.289a20.887 20.887 0 0 1-.05-1.369c-.065-.456-.065-.83 0-1.125.262-.912.44-1.89.539-2.933a13.848 13.848 0 0 1 2.69-3.324c1.905-1.792 4.023-2.37 6.357-1.735.388.106.78.245 1.174.414zm-102.055 99.44c-.065-2.554-.17-4.51-.319-5.867-.391-.815-.62-2.02-.685-3.618 0-.847.032-2.216.098-4.106 1.089-.744 1.904-1.135 2.448-1.173a.73.73 0 0 1 .196 0c.27.04.556.073.856.097.165.021.337.038.514.048.392-.032.8 0 1.224.1l.074.072a14.203 14.203 0 0 1 2.276 3.398c.686 1.434.98 2.656.881 3.667.066.489.343 1.238.833 2.249.391.944.668 1.662.832 2.15a93.691 93.691 0 0 0 3.672 10.56c-1.995-2.508-4.557-4.056-7.686-4.644-.49-.75-1.355-1.14-2.595-1.174-.588-.065-.996-.146-1.224-.244-.522-.195-.898-.57-1.126-1.124a3.5 3.5 0 0 0-.27-.244 1.83 1.83 0 0 0 0-.147zm-9.158 34.033c.848.847 1.32 2.38 1.418 4.597.027.61.036 1.255.024 1.93a6.86 6.86 0 0 0-.024.367 5.524 5.524 0 0 1-.098.759 5.411 5.411 0 0 1-.88 2.126c-.522.782-1.255 1.484-2.2 2.104-.294.162-.588.325-.881.489-1.304.65-2.966 1.205-4.988 1.662a52.267 52.267 0 0 0-2.298-2.885 74.965 74.965 0 0 1-1.1-1.321 73.9 73.9 0 0 1-2.275-2.908 85.723 85.723 0 0 1-8.949-14.645 24.317 24.317 0 0 1-.537-1.37 8.874 8.874 0 0 1-.49-1.174 155.4 155.4 0 0 1-3.13-10.757c-.782-2.934-1.483-5.9-2.102-8.899a5.498 5.498 0 0 0-.538-1.271c-.489-1.924-.733-2.934-.733-3.033-.326-1.466-.375-2.607-.147-3.422l.293-.195c1.316-.835 2.49-1.39 3.521-1.663 1.533-.456 2.869-.358 4.01.294.098.489.277 1.027.538 1.613.13.392.359.962.685 1.712.554 1.336.635 2.445.244 3.325.5 1.405 1.421 3.662 2.763 6.771.055.14.112.278.171.417 0 .162.05.309.147.439.13.457.277.897.44 1.321l.098.294a43.952 43.952 0 0 0 8.46 14.277c.423.456.815.896 1.173 1.32l5.624 6.503.978.832c.196.13.44.245.734.343zm-33.64 10.513a38.477 38.477 0 0 0-.147-1.81 122.89 122.89 0 0 0-1.42-9.834 9.656 9.656 0 0 1 2.056 2.397 25.625 25.625 0 0 1 3.38 8.562zm67.567-7.832c-1.823-4.42-5.524-6.783-11.105-7.089-.555-2.313-1.468-3.095-2.74-2.345.098-.88.196-1.548.294-2.005 1.044-.229 1.924-.864 2.641-1.906a.318.318 0 0 0 .147-.147c.294-.587.57-1.076.832-1.467l.734-1.32a.83.83 0 0 0 .049-.195l.097-.392c.098-.39.196-.798.294-1.223.032-.52.065-1.025.098-1.514a12.59 12.59 0 0 0-.196-2.933 91.308 91.308 0 0 0 3.376 6.013c2.25 4.04 3.538 6.436 3.864 7.186.858 1.821 1.444 3.565 1.761 5.231.174.869.271 1.716.294 2.543-.028.255-.077.5-.147.733a4.85 4.85 0 0 1-.293.83zM30.08 236.95c-.116-.104-.23-.21-.342-.317a70.854 70.854 0 0 0-1.467-1.614 225.242 225.242 0 0 0-3.912-4.01 7.52 7.52 0 0 1-.293-.317 233.444 233.444 0 0 1-5.526-5.795 42.842 42.842 0 0 1-6.161-8.411 239.324 239.324 0 0 0-8.656-14.326 23.479 23.479 0 0 1-2.2-4.548c-.913-2.478-1.141-5.07-.685-7.775.196-1.14.783-2.004 1.76-2.591 2.446-.782 4.923-.669 7.433.342 2.413.88 4.14 2.51 5.184 4.89a4.73 4.73 0 0 1 .195 3.275 374.148 374.148 0 0 1 8.02 16.235c.172.374.351.74.538 1.1a41.126 41.126 0 0 0 2.787 4.817 562.399 562.399 0 0 0 4.841 7.187 129.203 129.203 0 0 0 4.254 5.917c.208.272.395.551.563.832-1.288.394-1.932 1.014-1.932 1.858v.023c-.616.433-1.057 1.044-1.32 1.834-.184.612-.282 1.623-.294 3.033a9.077 9.077 0 0 1-2.787-1.64z"/><path fill="#79add3" d="M207.044 42.342a45.693 45.693 0 0 1 0-2.982l2.005 1.173-.196.685z"/><path fill="#020202" d="M30.51 340.17l-1.027-.978.196-2.542c1.337.847 3.163 1.368 5.477 1.564 2.12.033 3.8.083 5.038.147.293 0 .554.032.782.098a.55.55 0 0 0 .245.048c2.902.848 5.721 1.337 8.46 1.466 2.99.126 5.826-.183 8.51-.927.135-.029.265-.061.39-.098.007.095.007.185 0 .269.017.447-.016.846-.097 1.197-2.803.848-5.917 1.174-9.34.978-2.446-.162-5.56-.685-9.342-1.564-1.238.782-2.77 1.123-4.597 1.026-.978-.032-2.543-.26-4.695-.684m-15.938-.587c.294.391.717.784 1.272 1.176.293.162.782.407 1.466.734 1.304 1.893 3.439 2.84 6.405 2.84 1.043 0 2.346-.13 3.91-.391 1.663-.26 2.87-.424 3.618-.49v.98c-.13.391-.358.57-.684.538-3.781.39-6.029.588-6.747.588-2.606 0-4.742-.539-6.404-1.616-1.173 0-2.021-.473-2.542-1.42-.457-.85-.555-1.829-.294-2.939"/><path fill="#46589e" d="M18.239 141.047l-9.289-1.613v-82.23c0-13.037 6.421-20.695 19.262-22.978l83.257-14.666 9.337 1.662L37.501 35.89c-12.841 2.28-19.262 9.94-19.262 22.977zM81.452 151.265c.26-.13.505-.603.733-1.417.261-.653.489-1.093.685-1.32.195-.13.456-.13.782 0a7.46 7.46 0 0 1-.342 1.27c-.392.978-.962 1.467-1.712 1.467zm-.88 1.32c.063.21.128.423.195.636.642 2.023 1.39 3.848 2.25 5.475 1.33 2.39 2.87 4.28 4.62 5.671 2.435 1.956 5.278 2.934 8.53 2.934 1.532 0 2.917-.49 4.156-1.467-.033.489-.066.994-.098 1.516-.098.423-.196.83-.293 1.222l-.098.39a.82.82 0 0 1-.05.196l-.732 1.32a2.414 2.414 0 0 0-.343.49 9.494 9.494 0 0 1-1.955.195c-2.72 0-5.18-.611-7.382-1.834-2.754-1.54-5.1-4.042-7.04-7.504-.228-.423-.44-.848-.636-1.271 0-.293-.114-.57-.342-.831l-.049-.049c-.228-.261-.587-.603-1.075-1.027v.05c-.034-.033-.082-.245-.147-.636-.196-.555-.342-1.32-.44-2.298-.081-.485-.13-.933-.147-1.344-.016-.42 0-.804.05-1.15.097-.651.244-1.368.44-2.15l.146.097c.032.033.064.05.098.05.097.39.21.83.342 1.32zm17.502 19.507c-.717 1.043-.554 1.45-1.597 1.678-1.075.815-3.309 1.45-4.612 1.45-1.337 0-2.574-.276-3.716-.83-1.27-.62-2.297-1.45-3.08-2.494-.814-1.14-1.303-2.33-1.466-3.569v-.049c-.489-.782-.912-1.026-1.271-.733-.13.163-.391.636-.782 1.418a8.734 8.734 0 0 1-1.027-3.911c-.066-.782 0-1.5.195-2.151.033-.164.082-.294.147-.391l.098-.343a73.96 73.96 0 0 0 1.809 2.738c2.773 3.975 5.38 6.451 7.822 7.431.799.326 1.58.489 2.347.489 1.955 0 3.715-.293 5.28-.88a.314.314 0 0 1-.147.147z"/><g><path fill="#e6fbf9" d="M83.36 177.716c.945-.293 2.965-.44 6.061-.44 1.247 0 2.34-.097 3.276-.293.982-.22 1.797-.546 2.444-.978 1.271-.75 2.184.033 2.738 2.347-1.138.6-2.426 1.007-3.862 1.222l-.391.049c-1.01.13-2.493.229-4.449.293-2.021 0-3.488.066-4.4.196-1.662.195-3.063.587-4.204 1.173-.033-.782.227-1.515.782-2.2a5.017 5.017 0 0 1 2.004-1.369"/></g></svg>