<svg xmlns="http://www.w3.org/2000/svg" width="50" height="51"><path fill="#ff6147" d="M22.984 34.344a.976.976 0 0 0-1.379-1.379.976.976 0 0 0 1.379 1.379zM37.859 11.218c0 4.836-3.935 8.77-8.77 8.77-4.837 0-8.771-3.934-8.771-8.77 0-4.835 3.934-8.77 8.77-8.77 4.836 0 8.77 3.935 8.77 8.77zm-19.489 0c0 5.91 4.808 10.719 10.718 10.719s10.718-4.809 10.718-10.719C39.806 5.308 34.998.5 29.088.5S18.37 5.308 18.37 11.218z"/><path fill="#ff6147" d="M6.349 34.44a.972.972 0 0 1 1.206-.137c.169.103-.315-.338 8.44 8.411.39.39.368 1.01.005 1.374l-4.027 3.97-9.574-9.653zm16.504-5.573a.973.973 0 0 0 .39.082h11.065c1.057 0 1.95.861 1.95 1.948a1.951 1.951 0 0 1-1.95 1.949h-7.95a.974.974 0 0 0 0 1.949h7.95a3.902 3.902 0 0 0 3.864-4.407c5.562-5.718 6.346-6.521 6.38-6.561a1.955 1.955 0 0 1 2.747-.232c.82.694.925 1.926.228 2.75l-8.74 10.448a6.785 6.785 0 0 1-4.722 1.9H21.11c-1.269 0-2.47.485-3.382 1.366l-.828.799-7.634-7.634c1.784-3.346 5.132-5.25 9.296-5.25 1.493 0 2.935.3 4.29.893zM11.273 50.11a.974.974 0 0 0 1.376.008l4.724-4.654a2.945 2.945 0 0 0 .693-3.023l1.016-.98a2.906 2.906 0 0 1 2.03-.82h12.953c2.298 0 4.47-.883 6.116-2.485.068-.066-.514.62 8.838-10.557a3.903 3.903 0 0 0-.463-5.493 3.907 3.907 0 0 0-5.468.435l-5.75 5.91A3.916 3.916 0 0 0 34.308 27H23.443a12.571 12.571 0 0 0-4.88-.975c-4.692 0-8.789 2.167-10.987 6.23a2.91 2.91 0 0 0-2.606.808l-4.636 4.65a.975.975 0 0 0-.001 1.374zM27.921 5.375v1.141a2.928 2.928 0 0 0-1.949 2.756 2.927 2.927 0 0 0 2.923 2.923.975.975 0 0 1 0 1.949c-.416 0-.865-.262-1.265-.737a.975.975 0 0 0-1.491 1.254c.52.62 1.133 1.051 1.782 1.269v1.137a.974.974 0 1 0 1.949 0v-1.142a2.928 2.928 0 0 0 1.949-2.755 2.926 2.926 0 0 0-2.924-2.924.975.975 0 0 1 0-1.949c.346 0 .71.177 1.054.51a.975.975 0 0 0 1.356-1.4c-.495-.479-.99-.75-1.435-.897V5.375a.975.975 0 1 0-1.949 0z"/></svg>