<svg xmlns="http://www.w3.org/2000/svg" width="97" height="80"><path fill="#3fba9e" d="M63.387 23.745a.929.929 0 0 1-.662.274.927.927 0 0 1-.66-.274L51.441 13.122a.93.93 0 0 1-.274-.661c0-.25.097-.484.274-.66l1.522-1.523c1-1 3.19-1.55 6.168-1.55 1.79 0 3.84.199 5.927.577.416.075.747.406.823.823 1.035 5.72.653 10.468-.974 12.095zm1.979-16.14C63.179 7.209 61.023 7 59.132 7c-3.539 0-6.025.692-7.39 2.057l-1.521 1.522a2.645 2.645 0 0 0-.781 1.882c0 .712.277 1.381.78 1.884l10.621 10.621c.504.503 1.172.78 1.884.78.711 0 1.38-.277 1.883-.78l1.522-1.522c3.077-3.077 1.889-11.205 1.451-13.623a2.761 2.761 0 0 0-2.215-2.216z"/><path fill="#3fba9e" d="M54.765 10.883l-.752.752a.865.865 0 0 0 1.222 1.222l.753-.752a.864.864 0 1 0-1.223-1.222zM63.075 19.193l-.752.752a.864.864 0 0 0 1.222 1.223l.753-.753a.865.865 0 0 0-1.223-1.222zM59.802 16.514a1.055 1.055 0 0 1-.81-.32 1.058 1.058 0 0 1-.322-.812.864.864 0 1 0-1.724-.116c-.053.79.247 1.573.823 2.15a2.793 2.793 0 0 0 2.15.822.864.864 0 0 0-.117-1.724z"/><path fill="#3fba9e" d="M45.945 46.727L28.456 29.24 50.194 7.506c.952-.95 2.265-1.661 3.904-2.112 1.436-.396 3.133-.596 5.045-.596 3.667 0 7.258.732 9.073 1.168.502.12.888.506 1.008 1.009.75 3.116 2.852 13.625-1.54 18.017zm8.471 8.49l-7.25-7.255L61.13 33.988c-.192 1.057-.309 2.216-.436 3.472-.486 4.808-1.087 10.751-6.278 17.757zm-5.35 2.26l-5.71-5.715 2.588-2.591 7.404 7.41c-.206.252-.418.508-.639.766-.928 1.088-2.636 1.138-3.643.13zM27.233 30.464l17.48 17.486-2.588 2.588-17.48-17.486zm-10.25-6.204c.027-.697.333-1.33.86-1.781.258-.22.514-.433.766-.639l7.402 7.41-2.588 2.59-5.71-5.715a2.476 2.476 0 0 1-.73-1.865zm18.674 25.506c-.15.571-.902.772-1.327.347l-9.25-9.256c-.422-.422-.233-1.176.346-1.33.848-.224 1.719-.27 2.3-.27.288 0 .53.01.703.023l7.477 7.482c.037.545.071 1.792-.249 3.004zm-4.922-.809c-.5.95-1.312 2.12-2.58 3.086-1.77 1.353-4.283 2.14-7.304 2.299.158-3.025.945-5.54 2.296-7.312.966-1.268 2.136-2.08 3.084-2.58zm37.884-44.67c-1.889-.454-5.63-1.216-9.476-1.216-4.616 0-8.037 1.082-10.17 3.215l-4.503 4.502c-1.439 1.435-3.857 1.68-6.917 1.99-2.286.23-4.878.493-7.796 1.285a.864.864 0 1 0 .452 1.668c2.782-.755 5.299-1.01 7.519-1.234 1.255-.127 2.413-.244 3.469-.436L27.234 28.023l-7.25-7.25c2.234-1.656 4.488-2.938 6.868-3.909a.864.864 0 1 0-.652-1.6c-2.806 1.144-5.442 2.695-8.06 4.741-.46.359-.937.75-1.42 1.162-1.84 1.572-1.937 4.471-.23 6.179l10.23 10.228c-.534.044-1.135.129-1.735.288-1.285.34-2.093 1.675-1.812 2.972-1.694.414-4.814 1.55-7.148 4.568-2.634 3.407-3.482 8.167-2.522 14.146a2.577 2.577 0 0 0 2.139 2.14c1.574.252 3.077.379 4.493.379.81 0 1.59-.042 2.34-.125a.864.864 0 0 0-.19-1.718c-1.905.212-4.048.13-6.37-.244a.85.85 0 0 1-.705-.706c-.88-5.478-.15-9.783 2.17-12.797 2.33-3.028 5.666-3.878 6.787-4.085l.794.794a10.996 10.996 0 0 0-3.188 2.8c-1.735 2.274-2.636 5.382-2.679 9.237a.871.871 0 0 0 .865.873h.009c3.854-.042 6.962-.943 9.237-2.678a10.991 10.991 0 0 0 2.8-3.189l.795.796c-.266 1.452-1.608 6.613-7.462 8.55a.864.864 0 1 0 .543 1.642c6.081-2.013 7.943-7.04 8.473-9.203a2.52 2.52 0 0 0 2.975-1.808c.157-.596.243-1.192.288-1.734L47.845 58.7c1.71 1.71 4.606 1.61 6.179-.23.412-.483.802-.96 1.162-1.421 6.047-7.733 6.73-14.483 7.228-19.412.31-3.063.555-5.482 1.993-6.92l4.499-4.5c2.168-2.168 3.25-5.666 3.214-10.395-.03-3.772-.774-7.415-1.215-9.25a3.075 3.075 0 0 0-2.286-2.287z"/><g opacity=".08"><path fill="#3fba9e" d="M68 71.159c24.252-14.243 43.266-49.905 11.643-67.643-31.623-17.737-5.92 37.4-33.349 37.4C18.866 40.917.001 26.423.001 53.85 0 81.278 43.749 85.401 68 71.16z"/></g></svg>