<svg xmlns="http://www.w3.org/2000/svg" width="40" height="49"><path fill="#ff6147" d="M13.55 11.85a2.288 2.288 0 0 1 3.158.706l.596.939a.763.763 0 1 0 1.288-.818l-.596-.939a3.813 3.813 0 0 0-6.439 4.088l2.127 3.35a.763.763 0 0 0 1.288-.817l-2.127-3.35a2.29 2.29 0 0 1 .705-3.159zM27.906 44.186a5.817 5.817 0 0 1-8.919 1.848l-7.801-6.499a5.385 5.385 0 0 1-1.093-7.016l12.722-19.96a2.29 2.29 0 0 1 3.865 2.452l-6.277 9.907-3.818 5.998a.763.763 0 1 0 1.287.818l3.819-5.997a2.014 2.014 0 0 1 3.42 2.123l-1.378 2.226a3.313 3.313 0 0 0-.04.064v.001l-2.158 3.574a.762.762 0 1 0 1.306.788l2.157-3.572.028-.046a2.127 2.127 0 0 1 2.726-.756 2.113 2.113 0 0 1 .834 3.037l-2.08 3.24a.762.762 0 1 0 1.284.824l1.34-2.088.008.005a1.49 1.49 0 0 1 2.607 1.421zM30.32 32.95a3.637 3.637 0 0 0-1.897-4.177 3.599 3.599 0 0 0-1.88-.367 3.54 3.54 0 0 0-3.304-5.126l4.72-7.453a3.813 3.813 0 0 0-6.438-4.089L8.806 31.7a6.914 6.914 0 0 0 1.402 9.008l7.798 6.498a7.298 7.298 0 0 0 6.19 1.549 7.302 7.302 0 0 0 5.063-3.881l3.845-7.62.011-.024a3.03 3.03 0 0 0-1.096-3.792 2.997 2.997 0 0 0-1.698-.486zM9.12 27.712h.001a.762.762 0 0 0 .467-1.365C7.22 24.513 5.35 22.48 4.03 20.301a16.263 16.263 0 0 1-2.405-8.53A9.95 9.95 0 0 1 3.8 5.536a.763.763 0 0 0-1.196-.947v.002A11.527 11.527 0 0 0 .1 11.77c-.009 3.291.9 6.519 2.625 9.322 1.42 2.337 3.414 4.51 5.93 6.46.132.103.296.16.465.16z"/><path fill="#ff6147" d="M38.822 7.225a11.627 11.627 0 0 0-2.54-3.71A11.877 11.877 0 0 0 27.922.1h-.002a11.875 11.875 0 0 0-7.995 3.08A11.957 11.957 0 0 0 7.821.822a.763.763 0 1 0 .523 1.433 10.413 10.413 0 0 1 3.585-.63 10.3 10.3 0 0 1 7.448 3.144l.547.565.547-.565a10.407 10.407 0 0 1 14.741-.168 10.007 10.007 0 0 1 3.016 7.17c-.001 3.12-.858 6.066-2.546 8.76-1.389 2.214-3.347 4.274-5.82 6.124a.763.763 0 1 0 .913 1.222c2.624-1.964 4.71-4.162 6.2-6.535 1.845-2.937 2.78-6.158 2.778-9.57a11.479 11.479 0 0 0-.931-4.548z"/></svg>