<svg xmlns="http://www.w3.org/2000/svg" width="30" height="30"><path fill="#d8d8d8" d="M14.976 29.953c8.272 0 14.977-6.705 14.977-14.977C29.953 6.706 23.248 0 14.976 0 6.706 0 0 6.705 0 14.976c0 8.272 6.705 14.977 14.976 14.977z"/><path fill="#c4c3c5" d="M8.69 21.732l8.079 8.079a14.899 14.899 0 0 0 13.04-12.945L21.681 8.74z"/><path fill="#fff" d="M22.06 18.287c.66.661.66 1.795 0 2.457l-1.324 1.323c-.661.66-1.795.66-2.456 0L7.886 11.673c-.661-.662-.661-1.795 0-2.457l1.37-1.37c.662-.661 1.795-.661 2.457 0z"/><path fill="#d6d6d6" d="M16.587 12.76l-3.827 3.827 5.528 5.48c.661.662 1.795.662 2.456 0l1.37-1.37c.662-.661.662-1.795 0-2.457z"/><path fill="#fff" d="M18.28 7.886c.661-.661 1.795-.661 2.456 0l1.37 1.37c.662.662.662 1.795 0 2.457l-10.44 10.346c-.662.662-1.796.662-2.457 0l-1.323-1.323c-.661-.661-.661-1.795 0-2.456z"/></svg>