<svg xmlns="http://www.w3.org/2000/svg" width="60" height="60"><path fill="#ff6147" d="M29.943.002h-4.99C14.623.013 6.25 8.385 6.239 18.715v2.097L.156 31.836a1.256 1.256 0 0 0-.154.602 3.638 3.638 0 0 0 3.743 3.743 4.46 4.46 0 0 1 2.494.934v4.056a4.85 4.85 0 0 0 4.99 4.99h7.486a3.638 3.638 0 0 0 3.743-3.743v-7.485h-2.495v7.486a1.142 1.142 0 0 1-1.248 1.248H11.23a2.35 2.35 0 0 1-2.495-2.495V36.52a1.25 1.25 0 0 0-.42-.934 7.207 7.207 0 0 0-4.57-1.9l-.017.002a1.095 1.095 0 0 1-1.205-.974L8.58 21.735c.101-.184.154-.392.155-.602v-2.418C8.745 9.762 16 2.507 24.953 2.497h4.975a1.148 1.148 0 0 1 1.263 1.247v6.238h2.495V3.744A3.638 3.638 0 0 0 29.943.001zM51.15 37.432H37.425v2.495h13.723a1.141 1.141 0 0 1 1.248 1.248v2.357c-.18.745-1.383 5.128-4.99 5.128-.69 0-1.248.558-1.248 1.247v7.486H22.455V53.65H19.96v4.99c0 .69.559 1.248 1.248 1.248h26.198c.69 0 1.248-.559 1.248-1.248v-7.595c3.9-.737 5.759-4.852 6.213-7.126a1.24 1.24 0 0 0 .025-.25v-2.495a3.638 3.638 0 0 0-3.743-3.743zM58.636 14.968h-3.145a11.36 11.36 0 0 0-.453-1.089l2.226-2.226a1.248 1.248 0 0 0 0-1.764l-3.53-3.529a1.248 1.248 0 0 0-1.763 0l-2.226 2.226c-.355-.17-.719-.32-1.09-.452V4.988c0-.69-.558-1.248-1.247-1.248h-4.99c-.689 0-1.248.559-1.248 1.248v3.146a11.1 11.1 0 0 0-1.953.912l1.267 2.148a8.732 8.732 0 0 1 2.246-.93c.55-.142.935-.638.936-1.207V6.235h2.495v2.822a1.249 1.249 0 0 0 .933 1.21 8.732 8.732 0 0 1 2.245.929c.49.29 1.115.21 1.518-.193l1.996-1.996 1.765 1.762-1.996 1.996a1.248 1.248 0 0 0-.194 1.517 8.7 8.7 0 0 1 .932 2.246c.143.55.639.935 1.207.935h2.822v2.494h-2.82c-.568 0-1.064.386-1.206.936a8.735 8.735 0 0 1-.932 2.245c-.29.491-.21 1.115.193 1.518l1.996 1.996-1.764 1.764-1.996-1.996a1.248 1.248 0 0 0-1.517-.193 8.732 8.732 0 0 1-2.246.93c-.55.142-.935.639-.935 1.208v2.822h-2.495v-2.821c0-.569-.385-1.066-.936-1.208a8.732 8.732 0 0 1-2.246-.93 1.248 1.248 0 0 0-1.517.193l-1.996 1.996-1.764-1.764 1.997-1.996a1.247 1.247 0 0 0 .193-1.517 8.735 8.735 0 0 1-.932-2.246 1.248 1.248 0 0 0-1.207-.936H31.19v2.495h3.146c.132.371.283.734.452 1.09l-2.226 2.225a1.248 1.248 0 0 0 0 1.764l3.53 3.53a1.248 1.248 0 0 0 1.764 0l2.225-2.226c.355.169.719.32 1.09.451v3.147c0 .689.558 1.247 1.247 1.247h4.99c.69 0 1.248-.558 1.248-1.247v-3.145c.37-.132.734-.283 1.09-.452l2.225 2.225a1.248 1.248 0 0 0 1.764 0l3.53-3.53a1.248 1.248 0 0 0 0-1.764l-2.228-2.226c.17-.355.321-.718.453-1.089h3.146c.69 0 1.248-.558 1.248-1.247v-4.99c0-.69-.559-1.248-1.248-1.248z"/><path fill="#ff6147" d="M44.91 21.203a2.494 2.494 0 1 1 0-4.985 2.494 2.494 0 1 1 0 4.985zm0-7.483a4.99 4.99 0 1 0 0 9.98 4.99 4.99 0 0 0 0-9.98zM18.718 19.96v1.248h-3.742V19.96H12.48v1.351a2.444 2.444 0 0 0 2.495 2.392h3.846a2.444 2.444 0 0 0 2.391-2.495V19.96zM34.928 39.91a1.243 1.243 0 1 1 0-2.485 1.243 1.243 0 0 1 0 2.485zm.005-4.98a3.743 3.743 0 1 0 0 7.485 3.743 3.743 0 0 0 0-7.485zM21.208 33.684a1.246 1.246 0 1 1 0-2.492 1.246 1.246 0 0 1 0 2.492zm.005-4.984a3.743 3.743 0 1 0 0 7.485 3.743 3.743 0 0 0 0-7.485zM32.438 13.71a1.244 1.244 0 0 1-1.246-1.242c0-.687.558-1.243 1.246-1.243s1.246.556 1.246 1.243c0 .686-.558 1.242-1.246 1.242zm.005-4.98a3.743 3.743 0 1 0 0 7.485 3.743 3.743 0 0 0 0-7.485zM26.2 19.96h2.495v2.495H26.2zM26.2 24.95h2.495v2.495H26.2zM19.96 48.66h2.495v2.495H19.96z"/></svg>