<svg xmlns="http://www.w3.org/2000/svg" width="90" height="83"><path fill="#ff6147" d="M71.32 82.64c27.428 0 19.045-25.307 6.436-36.855C65.146 34.238 55.586.56 28.159.56.73.56.27 25.194.27 52.622.27 80.05 43.892 82.64 71.32 82.64z" opacity=".08"/><path fill="#ff6147" d="M18.102 63.161l-6.75-6.743a2.043 2.043 0 0 1 0-2.889c1.186-1.185 2.507-.384 2.89 0l6.75 6.744c1.052 1.05.384 2.505 0 2.888a2.047 2.047 0 0 1-2.89 0zM15.48 52.29a3.77 3.77 0 0 0-2.685-1.109c-1.016 0-1.97.394-2.685 1.108a3.801 3.801 0 0 0 0 5.37l6.744 6.744c.74.74 1.712 1.11 2.685 1.11a3.784 3.784 0 0 0 3.793-3.795 3.77 3.77 0 0 0-1.109-2.685zM20.226 43.397c-.715-.715-3.215-2.154-5.37 0-2.153 2.154-.714 4.654 0 5.369l6.574 6.574a.878.878 0 0 0 1.24-1.24l-6.573-6.574c-.383-.384-1.05-1.785 0-2.889 1.05-1.104 2.505-.383 2.889 0l10.889 10.89c.37.405.94 1.86 0 2.888-1.064 1.162-2.505.383-2.889 0L25.171 56.6a.877.877 0 1 0-1.24 1.24l1.815 1.816c.714.714 3.43 2.126 5.37 0 2.107-2.313.714-4.655 0-5.37zM56.037 10.935c.31-.03 6.652.137 6.652.137a.79.79 0 0 1 .764.763s.185 6.145.137 6.643a.39.39 0 0 1-.264.338.383.383 0 0 1-.418-.094l-7.115-7.106a.384.384 0 0 1-.094-.418.39.39 0 0 1 .338-.263zm5.62 9.027c.89.863 2.01.59 2.251.504a2.136 2.136 0 0 0 1.417-1.822c.056-.583-.13-6.864-.13-6.864a2.548 2.548 0 0 0-2.46-2.46s-6.281-.186-6.864-.13a2.134 2.134 0 0 0-1.821 1.417 2.135 2.135 0 0 0 .503 2.251z"/><path fill="#ff6147" d="M53.668 59.48l-10.25-10.252 2.628-2.628 7.836 7.837c.568.454 1.07.172 1.241 0a.878.878 0 0 0 0-1.24l-7.837-7.838 16.331-16.333-3.043 28.021a4.18 4.18 0 0 1-.34 1.26l-2.587-2.585a.877.877 0 1 0-1.24 1.24l2.756 2.758a4.154 4.154 0 0 1-1.277.718c-1.51.532-3.086.174-4.218-.959zM35.746 48.547l-2.337-2.34 4.189-4.193 5.273 5.28-1.251 1.252a4.155 4.155 0 0 1-5.874 0zm-7.913-1.86a1.865 1.865 0 0 1 0-2.632l13.27-13.283c.99-.967 2.267-.363 2.629 0a1.865 1.865 0 0 1 0 2.632l-13.27 13.283a1.86 1.86 0 0 1-2.63 0zm-1.87-7.924a4.163 4.163 0 0 1 0-5.878l1.25-1.253 5.274 5.279-4.188 4.19zM14.07 16.62c.169-.48.413-.91.719-1.276l13.117 13.115-2.628 2.627-10.25-10.248c-1.132-1.132-1.49-2.708-.958-4.218zm3.39-2.685l28.02-3.045-16.332 16.338L16.2 14.276c.388-.174.81-.292 1.26-.34zm46.155-6.181a3.343 3.343 0 0 1 3.139 3.14l.346 5.877a13.271 13.271 0 0 1-3.86 10.155L44.11 46.058l-2.261-2.262L57.614 28.03a4.457 4.457 0 0 0 1.313-3.171 4.457 4.457 0 0 0-1.313-3.171l-4.792-4.792a4.453 4.453 0 0 0-3.17-1.314 4.453 4.453 0 0 0-3.171 1.314L32.903 30.474a.878.878 0 0 0 1.24 1.24l13.578-13.578a2.712 2.712 0 0 1 1.93-.8c.73 0 1.415.285 1.93.8l4.792 4.792c.516.516.8 1.201.8 1.931a2.71 2.71 0 0 1-.8 1.93L40.61 42.555l-1.771-1.771 6.134-6.136a3.618 3.618 0 0 0 0-5.11 3.618 3.618 0 0 0-5.11 0l-6.134 6.135-5.274-5.274 19.13-19.132a13.259 13.259 0 0 1 10.154-3.86zm1.998 19.142a15.024 15.024 0 0 0 3.239-10.229l-.347-5.878a5.098 5.098 0 0 0-4.787-4.787l-5.877-.346a15.02 15.02 0 0 0-10.229 3.239l-30.34 3.295a5.768 5.768 0 0 0-4.856 3.848 5.768 5.768 0 0 0 1.373 6.042l10.306 10.307a5.862 5.862 0 0 0-1.104 3.438c0 1.578.615 3.061 1.73 4.177l2.337 2.337-.466.466a3.617 3.617 0 0 0 0 5.11c.705.705 2.953 2.027 5.11 0l.467-.466 2.337 2.337a5.869 5.869 0 0 0 4.177 1.73 5.863 5.863 0 0 0 3.438-1.103L52.427 60.72a5.77 5.77 0 0 0 4.092 1.709c.65 0 5.295 0 5.799-5.192z"/></svg>