<?xml version="1.0" encoding="utf-8"?>
<!-- Generator: Adobe Illustrator 17.1.0, SVG Export Plug-In . SVG Version: 6.00 Build 0)  -->
<!DOCTYPE svg PUBLIC "-//W3C//DTD SVG 1.1//EN" "http://www.w3.org/Graphics/SVG/1.1/DTD/svg11.dtd">
<svg version="1.1" id="Layer_1" xmlns="http://www.w3.org/2000/svg" xmlns:xlink="http://www.w3.org/1999/xlink" x="0px" y="0px"
	 viewBox="0 0 32 32" style="enable-background:new 0 0 32 32;" xml:space="preserve">
<style type="text/css">
	.st0{fill:#FF614A;}
</style>
<path class="st0" d="M16,32C7.2,32,0,24.8,0,16S7.2,0,16,0s16,7.2,16,16S24.8,32,16,32z M16,2C8.3,2,2,8.3,2,16s6.3,14,14,14
	s14-6.3,14-14S23.7,2,16,2z M4,20v-1.3c3.3-2.4,4.2-3.3,4.2-4.2c0-0.7-0.6-1-1.3-1c-0.9,0-1.6,0.4-2.1,0.9l-1-1.1
	c0.8-0.9,2-1.3,3.1-1.3c1.7,0,3.1,1,3.1,2.6c0,1.4-1.1,2.6-3.2,4.1h3.3V20H4z M14.8,20v-1.7H11V17l3.2-5h2.4v4.8h1v1.5h-1V20H14.8z
	 M14.8,13.5l-2.2,3.3h2.2V13.5z M18.1,20.2l2.8-8.5h0.5l-2.8,8.5H18.1z M23.3,20l2.9-6.5h-4V12h6v1.2l-3,6.8H23.3z"/>
</svg>
