<?xml version="1.0" encoding="utf-8"?>
<!-- Generator: Adobe Illustrator 17.1.0, SVG Export Plug-In . SVG Version: 6.00 Build 0)  -->
<!DOCTYPE svg PUBLIC "-//W3C//DTD SVG 1.1//EN" "http://www.w3.org/Graphics/SVG/1.1/DTD/svg11.dtd">
<svg version="1.1" id="Layer_1" xmlns="http://www.w3.org/2000/svg" xmlns:xlink="http://www.w3.org/1999/xlink" x="0px" y="0px"
	 viewBox="0 0 32 32" style="enable-background:new 0 0 32 32;" xml:space="preserve">
<style type="text/css">
	.st0{fill:#FF614A;}
</style>
<path class="st0" d="M8,32c-0.3,0-0.5-0.1-0.7-0.3l-7-7c-0.4-0.4-0.4-1,0-1.4L19,4.5l-2.1-2.1c-0.3-0.3-0.4-0.7-0.2-1.1
	s0.5-0.6,0.9-0.6L30.9,0c0.3,0,0.6,0.1,0.8,0.3C31.9,0.5,32,0.8,32,1.1l-0.7,13.4c0,0.4-0.3,0.7-0.6,0.9c-0.4,0.1-0.8,0.1-1.1-0.2
	L27.5,13L8.7,31.7C8.5,31.9,8.3,32,8,32z M2.4,24L8,29.6l18.8-18.7c0.4-0.4,1-0.4,1.4,0l1.2,1.2l0.5-10.1L19.9,2.6l1.2,1.2
	c0.4,0.4,0.4,1,0,1.4L2.4,24z"/>
</svg>
