<?xml version="1.0" encoding="utf-8"?>
<!-- Generator: Adobe Illustrator 17.1.0, SVG Export Plug-In . SVG Version: 6.00 Build 0)  -->
<!DOCTYPE svg PUBLIC "-//W3C//DTD SVG 1.1//EN" "http://www.w3.org/Graphics/SVG/1.1/DTD/svg11.dtd">
<svg version="1.1" id="Layer_1" xmlns="http://www.w3.org/2000/svg" xmlns:xlink="http://www.w3.org/1999/xlink" x="0px" y="0px"
	 viewBox="0 0 32 32" style="enable-background:new 0 0 32 32;" xml:space="preserve">
<style type="text/css">
	.st0{fill:#FF614A;}
</style>
<path class="st0" d="M31.6,6.2l-8-6c-0.1,0-0.1-0.1-0.2-0.1c0,0,0,0-0.1,0C23.3,0,23.2,0,23.1,0c0,0,0,0,0,0H9.1c0,0,0,0-0.1,0
	c-0.2,0-0.5,0-0.7,0.2l-8,6C0.1,6.4,0,6.7,0,7v24c0,0.4,0.2,0.7,0.6,0.9C0.7,32,0.8,32,1,32c0.2,0,0.4-0.1,0.6-0.2L9.3,26h13.4
	l7.7,5.8c0.2,0.1,0.4,0.2,0.6,0.2c0.2,0,0.3,0,0.4-0.1c0.3-0.2,0.6-0.5,0.6-0.9V7C32,6.7,31.9,6.4,31.6,6.2z M8,24.5L2,29V7.5L8,3
	V24.5z M10.1,2h12v22h-12V2z M30,29l-6-4.5V3l6,4.5V29z"/>
</svg>
