<?xml version="1.0" encoding="utf-8"?>
<!-- Generator: Adobe Illustrator 17.1.0, SVG Export Plug-In . SVG Version: 6.00 Build 0)  -->
<!DOCTYPE svg PUBLIC "-//W3C//DTD SVG 1.1//EN" "http://www.w3.org/Graphics/SVG/1.1/DTD/svg11.dtd">
<svg version="1.1" id="Layer_1" xmlns="http://www.w3.org/2000/svg" xmlns:xlink="http://www.w3.org/1999/xlink" x="0px" y="0px"
	 viewBox="0 0 32 32" style="enable-background:new 0 0 32 32;" xml:space="preserve">
<style type="text/css">
	.st0{fill:#FF614A;}
</style>
<path class="st0" d="M16,32C7.2,32,0,24.8,0,16S7.2,0,16,0s16,7.2,16,16S24.8,32,16,32z M16,2C8.3,2,2,8.3,2,16s6.3,14,14,14
	s14-6.3,14-14S23.7,2,16,2z M12,20.4h-1.5v-1.9H12V17h-1.5v-2.3H12V8h5.7c3.3,0,5,1.8,5,4.6c0,2.8-2.2,4.4-5.2,4.4h-2.6v1.4h5.6v1.9
	h-5.6V24H12V20.4z M17.2,14.7c1.8,0,2.6-1,2.6-2.3c0-1.3-0.9-2.2-2.6-2.2h-2.3v4.4H17.2z"/>
</svg>
