<?xml version="1.0" encoding="utf-8"?>
<!-- Generator: Adobe Illustrator 17.1.0, SVG Export Plug-In . SVG Version: 6.00 Build 0)  -->
<!DOCTYPE svg PUBLIC "-//W3C//DTD SVG 1.1//EN" "http://www.w3.org/Graphics/SVG/1.1/DTD/svg11.dtd">
<svg version="1.1" id="Layer_1" xmlns="http://www.w3.org/2000/svg" xmlns:xlink="http://www.w3.org/1999/xlink" x="0px" y="0px"
	 viewBox="0 0 32 32" style="enable-background:new 0 0 32 32;" xml:space="preserve">
<style type="text/css">
	.st0{fill:#FF6148;}
</style>
<path class="st0" d="M20.8,20.4L20.4,18c2.2-2.2,3.6-5.8,3.6-9.3C24,3.1,20.4,0,16,0S8,3.1,8,8.7c0,3.5,1.5,7.1,3.6,9.3l-0.5,2.4
	C4.9,20.7,0,24.6,0,29.3V32h14.9h2.2H32v-2.7C32,24.6,27.1,20.7,20.8,20.4z M16,2c1.9,0,3.4,0.7,4.5,1.9C19.7,4.4,19,4.7,16,4.7
	c-3,0-3.7-0.3-4.5-0.7C12.6,2.7,14.1,2,16,2z M10.1,9.8C10.1,9.7,10.1,9.7,10.1,9.8c0.1-0.1,0.7-2,1.3-3.7c0.9,0.4,2.1,0.6,4.7,0.6
	c2.6,0,3.8-0.2,4.7-0.6c0.6,1.7,1.2,3.6,1.2,3.6c0,0,0,0.1,0.1,0.1C21.5,14.1,18.8,18,16,18C13.2,18,10.5,14.1,10.1,9.8z M16,20
	c0.9,0,1.8-0.3,2.6-0.7l0.4,2c-0.2,0.4-1.6,1.2-3,1.6c-1.4-0.5-2.8-1.2-3-1.6l0.4-2C14.2,19.7,15.1,20,16,20z M2,29.3
	c0-3.7,4.1-6.7,9.3-7c0.6,1,2.1,1.8,3.3,2.2L13.7,30H2V29.3z M30,30H18.3l-0.9-5.4c1.2-0.5,2.6-1.2,3.3-2.2c5.2,0.3,9.3,3.3,9.3,7
	V30z M13,12c-0.6,0-1-0.4-1-1s0.4-1,1-1s1,0.4,1,1S13.6,12,13,12z M18,11c0-0.6,0.4-1,1-1s1,0.4,1,1s-0.4,1-1,1S18,11.6,18,11z"/>
</svg>
