<?xml version="1.0" encoding="utf-8"?>
<!-- Generator: Adobe Illustrator 17.1.0, SVG Export Plug-In . SVG Version: 6.00 Build 0)  -->
<!DOCTYPE svg PUBLIC "-//W3C//DTD SVG 1.1//EN" "http://www.w3.org/Graphics/SVG/1.1/DTD/svg11.dtd">
<svg version="1.1" id="Layer_1" xmlns="http://www.w3.org/2000/svg" xmlns:xlink="http://www.w3.org/1999/xlink" x="0px" y="0px"
	 viewBox="0 0 32 32" style="enable-background:new 0 0 32 32;" xml:space="preserve">
<style type="text/css">
	.st0{fill:#FF614A;}
</style>
<path class="st0" d="M16,2c7.7,0,14,6.3,14,14s-6.3,14-14,14S2,23.7,2,16S8.3,2,16,2 M16,0C7.2,0,0,7.2,0,16s7.2,16,16,16
	s16-7.2,16-16S24.8,0,16,0L16,0z M23.8,21.8c0.4-0.4,0.4-1,0-1.4s-1-0.4-1.4,0c-3.5,3.5-9.2,3.5-12.7,0c-0.4-0.4-1-0.4-1.4,0
	s-0.4,1,0,1.4c2.1,2.1,5,3.2,7.8,3.2S21.6,23.9,23.8,21.8z M25.7,13.4c0.4-0.4,0.4-1,0-1.4c-1.8-1.7-4.6-1.7-6.4,0
	c-0.4,0.4-0.4,1,0,1.4c0.4,0.4,1,0.4,1.4,0c1-1,2.6-1,3.6,0c0.2,0.2,0.4,0.3,0.7,0.3C25.3,13.7,25.5,13.6,25.7,13.4z M12.7,13.4
	c0.4-0.4,0.4-1,0-1.4c-1.8-1.7-4.6-1.7-6.4,0c-0.4,0.4-0.4,1,0,1.4c0.4,0.4,1,0.4,1.4,0c1-1,2.6-1,3.6,0c0.2,0.2,0.4,0.3,0.7,0.3
	C12.3,13.7,12.5,13.6,12.7,13.4z"/>
</svg>
