<?xml version="1.0" encoding="UTF-8"?>
<svg width="31px" height="31px" viewBox="0 0 31 31" version="1.1" xmlns="http://www.w3.org/2000/svg" xmlns:xlink="http://www.w3.org/1999/xlink">
    <!-- Generator: Sketch 53.2 (72643) - https://sketchapp.com -->
    <title>award</title>
    <desc>Created with Sketch.</desc>
    <g id="Page-1" stroke="none" stroke-width="1" fill="none" fill-rule="evenodd">
        <g id="Artboard" transform="translate(-1043.000000, -662.000000)" fill="#FF614C" fill-rule="nonzero">
            <g id="award" transform="translate(1043.000000, 662.000000)">
                <path d="M30.0917969,2.23739624 L26.113678,2.23739624 C26.1281051,1.7967758 26.1361466,1.35355379 26.1361466,0.908203125 C26.1361466,0.40656282 25.7293472,0 25.2279434,0 L5.77205656,0 C5.27065276,0 4.86385344,0.40656282 4.86385344,0.908203125 C4.86385344,1.35355379 4.87189485,1.7967758 4.88632202,2.23739624 L0.908203125,2.23739624 C0.40656282,2.23739624 0,2.64395906 0,3.14559937 C0,7.21501157 1.06359099,11.0542984 2.99470523,13.9565277 C4.90358733,16.8256454 7.44631958,18.4712906 10.193161,18.6314087 C10.8158951,19.3090134 11.4741058,19.8615036 12.1597519,20.2829666 L12.1597519,24.3195038 L10.6361466,24.3195038 C8.7941971,24.3195038 7.29589844,25.8180389 7.29589844,27.6597519 L7.29589844,29.1833573 L7.23133089,29.1833573 C6.72969058,29.1833573 6.32312776,29.5901566 6.32312776,30.0915604 C6.32312776,30.5932007 6.72969058,30.9997635 7.23133089,30.9997635 L23.7686691,30.9997635 C24.2703094,30.9997635 24.6768722,30.5932007 24.6768722,30.0915604 C24.6768722,29.5901566 24.2703094,29.1833573 23.7686691,29.1833573 L23.7041016,29.1833573 L23.7041016,27.6597519 C23.7041016,25.8180389 22.2058029,24.3195038 20.3638534,24.3195038 L18.8402481,24.3195038 L18.8402481,20.2829666 C19.5258942,19.8617401 20.1843415,19.3090134 20.8070755,18.6314087 C23.5536804,18.4712906 26.0964127,16.8256454 28.0055313,13.9565277 C29.9366455,11.0542984 31,7.21501157 31,3.14559937 C31,2.64395906 30.5934372,2.23739624 30.0917969,2.23739624 Z M4.50695801,12.9504089 C2.91405486,10.5566788 1.97817993,7.42574309 1.83556364,4.05380249 L4.98778532,4.05380249 C5.31535336,8.19889829 6.2883606,12.0303802 7.80912778,15.0716781 C8.05131528,15.5560531 8.30461882,16.0137024 8.56738281,16.4446258 C7.05678557,15.8741608 5.65876773,14.6816711 4.50695801,12.9504089 Z M21.8876953,27.6597519 L21.8876953,29.1835938 L9.11230469,29.1835938 L9.11230469,27.6597519 C9.11230469,26.819664 9.79582211,26.13591 10.6361466,26.13591 L20.3638534,26.13591 C21.2041779,26.13591 21.8876953,26.819664 21.8876953,27.6597519 Z M17.0238419,24.3195038 L13.9761581,24.3195038 L13.9761581,21.0722046 C14.4754333,21.2037048 14.984169,21.2720566 15.5,21.2720566 C16.015831,21.2720566 16.5245667,21.2037048 17.0238419,21.0722046 L17.0238419,24.3195038 Z M17.5862655,18.911438 C17.5453491,18.9282303 17.5060882,18.9485702 17.468483,18.9710388 C16.8265915,19.2903289 16.1669617,19.4556503 15.5,19.4556503 C14.8332748,19.4556503 14.1738815,19.2903289 13.5322266,18.9715119 C13.4941483,18.9485702 13.4546509,18.9282303 13.4132614,18.910965 C12.7011261,18.5344391 12.0121689,17.9658661 11.3605804,17.2187271 C11.3262863,17.1697693 11.287735,17.1245956 11.2449264,17.0834427 C10.5980682,16.3154907 9.98952483,15.3708649 9.43372346,14.2592621 C7.76466373,10.9213791 6.80064389,6.53244019 6.69090268,1.81640625 L24.3090973,1.81640625 C24.1991196,6.53244019 23.2350998,10.9216156 21.5662765,14.2592621 C21.0104752,15.3708649 20.4019318,16.3154907 19.7553101,17.0834427 C19.712265,17.1245956 19.6732406,17.1700058 19.639183,17.2189636 C18.9875946,17.9663391 18.2984009,18.5346756 17.5862655,18.911438 Z M26.493042,12.9504089 C25.3412323,14.6816711 23.9432144,15.8741608 22.4326172,16.4446258 C22.6953812,16.0137024 22.9486847,15.5560531 23.1908722,15.0716781 C24.7116394,12.0303802 25.6844101,8.19889829 26.0122147,4.05380249 L29.1644364,4.05380249 C29.0218201,7.42574309 28.0859451,10.5566788 26.493042,12.9504089 Z" id="Shape"></path>
            </g>
        </g>
    </g>
</svg>