<?xml version="1.0" encoding="utf-8"?>
<!-- Generator: Adobe Illustrator 17.1.0, SVG Export Plug-In . SVG Version: 6.00 Build 0)  -->
<!DOCTYPE svg PUBLIC "-//W3C//DTD SVG 1.1//EN" "http://www.w3.org/Graphics/SVG/1.1/DTD/svg11.dtd">
<svg version="1.1" id="Layer_1" xmlns="http://www.w3.org/2000/svg" xmlns:xlink="http://www.w3.org/1999/xlink" x="0px" y="0px"
	 viewBox="0 0 52 64" style="enable-background:new 0 0 52 64;" xml:space="preserve">
<style type="text/css">
	.st0{fill:#FF614A;}
</style>
<path class="st0" d="M50.2,15.4L36.6,1.8C35.5,0.6,33.9,0,32.3,0H6C2.7,0,0,2.7,0,6v52c0,3.3,2.7,6,6,6h40c3.3,0,6-2.7,6-6V19.7
	C52,18.1,51.4,16.5,50.2,15.4z M45.2,16H35V5.8L45.2,16z M48,58c0,1.1-0.9,2-2,2H6c-1.1,0-2-0.9-2-2V6c0-1.1,0.9-2,2-2h25v14
	c0,1.1,0.9,2,2,2h15V58z M31.3,40.6c-3-1.9-5-5.1-5.8-7.3c0.1-0.5,0.3-0.9,0.4-1.4c0.7-2.4,1.2-4.3,0.6-6.2
	c-0.3-1.2-1.1-1.7-1.8-1.7c-0.1,0-0.1,0-0.2,0c-0.9,0.1-1.7,0.7-2.1,1.4c-0.6,1.3-0.2,4.2,1.2,8.7l0,0.2c-0.9,2.8-2.9,6.8-5,10.1
	l-0.9,0.4c-3.9,1.9-5.9,3.5-6,5c-0.1,0.6,0.2,1.2,0.9,1.7c0.2,0.1,0.4,0.2,0.7,0.3c0.3,0.1,0.5,0.1,0.8,0.1c2.1,0,4.6-2.6,7-7.3
	c3-1,5.4-1.7,8.8-2.3c2.7,1.8,4.9,2.7,6.7,2.7c0.6,0,1.1-0.1,1.6-0.3c0.5-0.2,1.4-0.8,1.6-1.8c0.1-0.3,0.3-1.1-0.1-1.7
	c-0.5-0.8-1.7-1.2-3.6-1.2c-1.4,0-2.9,0.2-4.1,0.4C31.9,40.6,31.6,40.6,31.3,40.6z M13.4,50.6c0.1-0.8,0.8-2.5,4.1-4.6l0,0l0,0
	c0.1-0.1,0.2-0.2,0.3-0.3C16.2,48.1,14.6,50,13.4,50.6z M24.9,25.5c1.5,1.1,0.8,3.2,0.1,5.5c0,0.1-0.1,0.2-0.1,0.3
	C24.5,29.2,24.2,26.6,24.9,25.5z M21.8,43.3c0.8-1.8,2-4.9,2.8-7.4c0.9,1.7,2.1,3.6,3.9,5.3C26.1,41.7,24.3,42.3,21.8,43.3z
	 M36.5,41.9c0.9,0,1.5,0.1,1.9,0.2c0.9,0.3,1.1,0.7,1.1,0.8c-0.4,0.4-1,0.7-1.8,0.7c-1.2,0-2.8-0.5-4.5-1.5
	C34.6,41.9,35.7,41.9,36.5,41.9z"/>
</svg>
