<?xml version="1.0" encoding="utf-8"?>
<!-- Generator: Adobe Illustrator 17.1.0, SVG Export Plug-In . SVG Version: 6.00 Build 0)  -->
<!DOCTYPE svg PUBLIC "-//W3C//DTD SVG 1.1//EN" "http://www.w3.org/Graphics/SVG/1.1/DTD/svg11.dtd">
<svg version="1.1" id="Layer_1" xmlns="http://www.w3.org/2000/svg" xmlns:xlink="http://www.w3.org/1999/xlink" x="0px" y="0px"
	 viewBox="0 0 64 64" style="enable-background:new 0 0 64 64;" xml:space="preserve">
<style type="text/css">
	.st0{fill:#FF614A;}
</style>
<path class="st0" d="M32,0C14.3,0,0,14.3,0,32c0,17.7,14.3,32,32,32c17.7,0,32-14.3,32-32C64,14.3,49.7,0,32,0z M32,60
	C16.6,60,4,47.4,4,32C4,16.6,16.6,4,32,4c15.4,0,28,12.6,28,28C60,47.4,47.4,60,32,60z M51,21.6c0,0.1,0,0.3,0,0.4v10
	c0,1.1-0.9,2-2,2s-2-0.9-2-2v-5.2L34.4,39.4c-0.8,0.8-2,0.8-2.8,0L25,32.8l-9.6,9.6C15,42.8,14.5,43,14,43s-1-0.2-1.4-0.6
	c-0.8-0.8-0.8-2,0-2.8l11-11c0.8-0.8,2-0.8,2.8,0l6.6,6.6L44.2,24h-5c-1.1,0-2-0.9-2-2s0.9-2,2-2H49c0.1,0,0.3,0,0.4,0
	c0.1,0,0.1,0,0.2,0c0.1,0,0.1,0,0.2,0.1c0.1,0,0.1,0.1,0.2,0.1c0.1,0,0.1,0.1,0.2,0.1c0.2,0.1,0.4,0.3,0.6,0.6c0,0,0.1,0.1,0.1,0.1
	c0,0.1,0.1,0.1,0.1,0.2c0,0.1,0,0.1,0.1,0.2C50.9,21.5,50.9,21.5,51,21.6z M10.8,23.2c-0.2,0.4-0.5,0.6-0.9,0.6
	c-0.1,0-0.3,0-0.4-0.1c-0.5-0.2-0.8-0.8-0.5-1.3c2.6-6.2,7.4-11,13.5-13.5c0.5-0.2,1.1,0,1.3,0.5c0.2,0.5,0,1.1-0.5,1.3
	C17.5,13.1,13.1,17.5,10.8,23.2z"/>
</svg>
