<?xml version="1.0" encoding="utf-8"?>
<!-- Generator: Adobe Illustrator 17.1.0, SVG Export Plug-In . SVG Version: 6.00 Build 0)  -->
<!DOCTYPE svg PUBLIC "-//W3C//DTD SVG 1.1//EN" "http://www.w3.org/Graphics/SVG/1.1/DTD/svg11.dtd">
<svg version="1.1" id="Layer_1" xmlns="http://www.w3.org/2000/svg" xmlns:xlink="http://www.w3.org/1999/xlink" x="0px" y="0px"
	 viewBox="0 0 64 80" style="enable-background:new 0 0 64 80;" xml:space="preserve">
<style type="text/css">
	.st0{fill:#FF614C;}
</style>
<path class="st0" d="M64,32l-4.5-5.5l2.1-6.8l-6.3-3.3l-0.7-7.1l-7.1-0.7l-3.3-6.3l-6.8,2.1L32,0l-5.5,4.5l-6.8-2.1l-3.3,6.3
	L9.4,9.4l-0.7,7.1l-6.3,3.3l2.1,6.8L0,32l4.5,5.5l-2.1,6.8l6.3,3.3l0.7,7.1l4.8,0.4L9,74.1C9,74.4,9,74.7,9.2,75
	c0.2,0.3,0.5,0.4,0.8,0.4l9.1-0.5l7.6,5c0.2,0.1,0.4,0.2,0.6,0.2c0.1,0,0.2,0,0.4-0.1c0.3-0.1,0.5-0.4,0.6-0.7L32,65.6l3.6,13.6
	c0.1,0.3,0.3,0.6,0.6,0.7c0.1,0,0.2,0.1,0.4,0.1c0.2,0,0.4-0.1,0.6-0.2l7.6-5l9.1,0.5c0.3,0,0.6-0.1,0.8-0.4
	c0.2-0.2,0.3-0.6,0.2-0.9l-5.1-19l4.8-0.4l0.7-7.1l6.3-3.3l-2.1-6.8L64,32z M26.8,77.4L20,72.9c-0.2-0.1-0.4-0.2-0.6-0.2l-8.1,0.5
	l4.8-18l0.3,0l3.3,6.3l6.8-2.1l4.1,3.4L26.8,77.4z M52.7,73.3l-8.1-0.5c-0.2,0-0.4,0-0.6,0.2l-6.8,4.5l-3.9-14.5l4.1-3.4l6.8,2.1
	l3.3-6.3l0.3,0L52.7,73.3z M55.6,38.6l1.1,3.6L53.4,44l-1.9,1l-0.2,2.2L51,50.9l-3.8,0.3L45,51.5l-1,1.9l-1.8,3.3l-3.6-1.1L36.6,55
	l-1.7,1.4L32,58.8l-2.9-2.4L27.4,55l-2.1,0.6l-3.6,1.1L20,53.4l-1-1.9l-2.2-0.2L13,50.9l-0.3-3.8L12.5,45l-1.9-1l-3.3-1.8l1.1-3.6
	L9,36.6l-1.4-1.7L5.2,32l2.4-2.9L9,27.4l-0.6-2.1l-1.1-3.6l3.3-1.8l1.9-1l0.2-2.2L13,13l3.8-0.3l2.2-0.2l1-1.9l1.8-3.3l3.6,1.1
	L27.4,9l1.7-1.4L32,5.2l2.9,2.4L36.6,9l2.1-0.6l3.6-1.1l1.8,3.3l1,1.9l2.2,0.2L51,13l0.3,3.8l0.2,2.2l1.9,1l3.3,1.8l-1.1,3.6
	L55,27.4l1.4,1.7l2.4,2.9l-2.4,2.9L55,36.6L55.6,38.6z M32,13c-10.5,0-19,8.5-19,19s8.5,19,19,19s19-8.5,19-19S42.5,13,32,13z
	 M32,49c-9.4,0-17-7.6-17-17s7.6-17,17-17s17,7.6,17,17S41.4,49,32,49z"/>
</svg>
