<?xml version="1.0" encoding="utf-8"?>
<!-- Generator: Adobe Illustrator 17.1.0, SVG Export Plug-In . SVG Version: 6.00 Build 0)  -->
<!DOCTYPE svg PUBLIC "-//W3C//DTD SVG 1.1//EN" "http://www.w3.org/Graphics/SVG/1.1/DTD/svg11.dtd">
<svg version="1.1" id="Layer_1" xmlns="http://www.w3.org/2000/svg" xmlns:xlink="http://www.w3.org/1999/xlink" x="0px" y="0px"
	 viewBox="0 0 64 64" style="enable-background:new 0 0 64 64;" xml:space="preserve">
<style type="text/css">
	.st0{fill:#FF614C;}
</style>
<path class="st0" d="M58.5,32c0-1.1-0.1-2.3-0.2-3.4l5.1-2.9L63,24.2c-1.4-5.7-4.5-11-8.7-15.1L53.2,8l-5.1,2.9
	c-1.8-1.4-3.8-2.5-5.9-3.4V1.6l-1.5-0.4C35-0.4,29-0.4,23.3,1.2l-1.5,0.4v5.9c-2.1,0.9-4.1,2-5.9,3.4L10.8,8L9.7,9
	C5.4,13.2,2.4,18.4,1,24.2l-0.4,1.5l5.1,2.9c-0.2,1.2-0.2,2.3-0.2,3.4c0,1.1,0.1,2.3,0.2,3.4l-5.1,2.9L1,39.8
	c1.4,5.7,4.5,11,8.7,15.1l1.1,1.1l5.1-2.9c1.8,1.4,3.8,2.5,5.9,3.4v5.9l1.5,0.4c2.8,0.8,5.8,1.2,8.7,1.2c2.9,0,5.9-0.4,8.7-1.2
	l1.5-0.4v-5.9c2.1-0.9,4.1-2,5.9-3.4l5.1,2.9l1.1-1.1c4.3-4.1,7.3-9.4,8.7-15.1l0.4-1.5l-5.1-2.9C58.5,34.3,58.5,33.1,58.5,32z
	 M58.7,40.3c-1.2,4-3.3,7.6-6.2,10.7l-4.8-2.8l-1.1,0.9c-2.1,1.8-4.5,3.2-7.1,4.1l-1.3,0.5v5.6c-4.1,0.9-8.3,0.9-12.4,0v-5.6
	l-1.3-0.5c-2.6-0.9-5-2.3-7.1-4.1l-1.1-0.9L11.4,51c-2.8-3.1-5-6.7-6.2-10.7l4.9-2.8l-0.3-1.4c-0.3-1.4-0.4-2.8-0.4-4.1
	c0-1.3,0.1-2.7,0.4-4.1l0.3-1.4l-4.9-2.8c1.2-4,3.3-7.6,6.2-10.7l4.8,2.8l1.1-0.9c2.1-1.8,4.5-3.2,7.1-4.1l1.3-0.5V4.7
	c4.1-0.9,8.3-0.9,12.4,0v5.6l1.3,0.5c2.6,0.9,5,2.3,7.1,4.1l1.1,0.9l4.8-2.8c2.8,3.1,5,6.7,6.2,10.7l-4.8,2.8l0.3,1.4
	c0.3,1.4,0.4,2.8,0.4,4.1c0,1.3-0.1,2.7-0.4,4.1l-0.3,1.4L58.7,40.3z M46,25L46,25l-5.6,13.9L40.3,39h-5.8l-0.1-0.1l-2-6.5l-2.6,6.5
	L29.8,39H24l-0.1-0.1l-6-13.8L18,25h6l0.1,0.1l3.8,10.3H28l2.6-7.2l-1.3-3.1l0.1-0.1h6l0.1,0.1l2.9,10.3h0.1L42,25.1L42,25H46z"/>
</svg>
