<?xml version="1.0" encoding="utf-8"?>
<!-- Generator: Adobe Illustrator 17.1.0, SVG Export Plug-In . SVG Version: 6.00 Build 0)  -->
<!DOCTYPE svg PUBLIC "-//W3C//DTD SVG 1.1//EN" "http://www.w3.org/Graphics/SVG/1.1/DTD/svg11.dtd">
<svg version="1.1" id="Layer_1" xmlns="http://www.w3.org/2000/svg" xmlns:xlink="http://www.w3.org/1999/xlink" x="0px" y="0px"
	 viewBox="0 0 64 64" style="enable-background:new 0 0 64 64;" xml:space="preserve">
<style type="text/css">
	.st0{fill:#FF614A;}
</style>
<path class="st0" d="M49,36c3.8,0,7.7-1.5,10.6-4.4c5.9-5.9,5.9-15.4,0-21.2C56.7,7.5,52.8,6,49,6c-3.8,0-7.7,1.5-10.6,4.4
	c-5.4,5.4-5.8,13.8-1.3,19.7l-2.1,2.1L27,24.3c0.5-1.4,0.7-2.9,0.7-4.4C27.8,12.2,21.5,6,13.9,6h-0.2c-1.1,0-2.2,0.4-3,1.2
	c-1.6,1.6-1.6,4.2,0,5.9l3.3,3.3c0.5,0.5,0.7,1.1,0.7,1.8c0,0.7-0.3,1.3-0.8,1.8c-0.5,0.5-1.1,0.7-1.8,0.7s-1.3-0.2-1.8-0.7
	l-3.3-3.3c-0.8-0.8-1.8-1.2-2.9-1.2c-1.1,0-2.1,0.4-3,1.2C0.4,17.5,0,18.5,0,19.7v0.2c0,7.7,6.2,13.9,13.9,13.9c1.6,0,3-0.3,4.4-0.7
	l7.9,7.9L12.6,54.6c-0.8,0.8-0.8,2,0,2.8C13,57.8,13.5,58,14,58s1-0.2,1.4-0.6l13.6-13.6l12.4,12.4c1.2,1.2,2.8,1.8,4.4,1.8
	s3.2-0.6,4.4-1.8c2.4-2.4,2.4-6.3,0-8.7L37.8,35.1l2.1-2.1C42.6,35,45.8,36,49,36z M4,19.9v-0.2c0-0.1,0-0.1,0-0.1c0,0,0.1,0,0.1,0
	c0,0,0.1,0,0.1,0c0,0,0,0,0,0l3.3,3.3c1.2,1.2,2.9,1.9,4.6,1.9s3.4-0.7,4.6-1.9c1.3-1.3,2-2.9,2-4.7c0-1.7-0.7-3.4-1.9-4.6l-3.3-3.3
	c-0.1-0.1-0.1-0.1,0-0.2c0.1-0.1,0.1-0.1,0.1-0.1h0.2c5.5,0,9.9,4.4,9.9,9.9s-4.4,9.9-9.9,9.9C8.4,29.8,4,25.3,4,19.9z M47.4,53.4
	c-0.8,0.8-2.2,0.8-3.1,0L22,31.1c1.2-0.9,2.2-1.9,3.1-3.1l22.3,22.3C48.2,51.1,48.2,52.5,47.4,53.4z M41.2,13.2
	c2.1-2.1,4.8-3.2,7.8-3.2c2.9,0,5.7,1.1,7.8,3.2S60,18.1,60,21s-1.1,5.7-3.2,7.8C54.7,30.9,51.9,32,49,32c-2.9,0-5.7-1.1-7.8-3.2
	S38,23.9,38,21S39.1,15.3,41.2,13.2z M48,13c0-0.6,0.4-1,1-1c5,0,9,4,9,9c0,0.6-0.4,1-1,1s-1-0.4-1-1c0-3.9-3.1-7-7-7
	C48.4,14,48,13.6,48,13z"/>
</svg>
