<?xml version="1.0" encoding="utf-8"?>
<!-- Generator: Adobe Illustrator 17.1.0, SVG Export Plug-In . SVG Version: 6.00 Build 0)  -->
<!DOCTYPE svg PUBLIC "-//W3C//DTD SVG 1.1//EN" "http://www.w3.org/Graphics/SVG/1.1/DTD/svg11.dtd">
<svg version="1.1" id="Layer_1" xmlns="http://www.w3.org/2000/svg" xmlns:xlink="http://www.w3.org/1999/xlink" x="0px" y="0px"
	 viewBox="0 0 64 64" style="enable-background:new 0 0 64 64;" xml:space="preserve">
<style type="text/css">
	.st0{fill:#FF614C;}
</style>
<path class="st0" d="M24,40h16V24H24V40z M28,28h8v8h-8V28z M59,26.1V21H46v-3h-3v-6h9.1c0.7,4.2,5.7,6.9,10.3,3.4
	C66.2,10.5,62.7,5,58,5c-3,0-5.4,2.2-5.9,5H41v8H23v-6.1c4.2-0.7,6.9-5.7,3.4-10.3C21.5-2.2,16,1.3,16,6c0,3,2.2,5.4,5,5.9V18h-3v3
	H5v3.1c-4.2,0.7-6.9,5.7-3.4,10.3C6.5,38.2,12,34.7,12,30c0-3-2.2-5.4-5-5.9V23h11v18h-6.4c-1.3-3.6-5.8-5.6-10-2.4
	C-2.2,43.5,1.3,49,6,49c3.3,0,6-2.7,6-6c0,0,0,0,0,0h6v3h3v6.1c-4.2,0.7-6.9,5.7-3.4,10.3C22.5,66.2,28,62.7,28,58
	c0-3-2.2-5.4-5-5.9V46h18v13h5.1c0.7,4.2,5.7,6.9,10.3,3.4c3.5-4.6,0.8-9.6-3.4-10.3V41h-7V23h11v3.1c-4.2,0.7-6.9,5.7-3.4,10.3
	C58.5,40.2,64,36.7,64,32C64,29,61.8,26.6,59,26.1z M58,9c1.1,0,2,0.9,2,2s-0.9,2-2,2s-2-0.9-2-2S56.9,9,58,9z M20,6
	c0-1.1,0.9-2,2-2s2,0.9,2,2s-0.9,2-2,2S20,7.1,20,6z M8,30c0,1.1-0.9,2-2,2s-2-0.9-2-2s0.9-2,2-2S8,28.9,8,30z M6,45
	c-1.1,0-2-0.9-2-2s0.9-2,2-2s2,0.9,2,2S7.1,45,6,45z M24,58c0,1.1-0.9,2-2,2s-2-0.9-2-2s0.9-2,2-2S24,56.9,24,58z M22,22h20v20H22
	V22z M54,58c0,1.1-0.9,2-2,2s-2-0.9-2-2s0.9-2,2-2S54,56.9,54,58z M51,43v9.1c-2.5,0.4-4.5,2.4-4.9,4.9H43V46h3v-3H51z M58,34
	c-1.1,0-2-0.9-2-2c0-1.1,0.9-2,2-2s2,0.9,2,2C60,33.1,59.1,34,58,34z"/>
</svg>
