<svg id="Layer_1" data-name="Layer 1" xmlns="http://www.w3.org/2000/svg" viewBox="0 0 64 63.972"><defs><style>.cls-1{fill:#ff614a;}</style></defs><title>17</title><path class="cls-1" d="M64,32a31.362,31.362,0,0,1-9.4,22.6,31.868,31.868,0,0,1-45.2,0A31.53,31.53,0,0,1,0,32,31.362,31.362,0,0,1,9.4,9.4a32.014,32.014,0,0,1,41.8-3V2.8a2,2,0,0,1,4,0v8.4c0,.1,0,.1-.1.2,0,.1,0,.1-.1.2,0,.1-.1.1-.1.2a.1.1,0,0,1-.1.1,1.7,1.7,0,0,1-.6.6l-.1.1c-.1,0-.1.1-.2.1s-.1,0-.2.1c-.1,0-.1,0-.2.1H45.1a2,2,0,0,1,0-4h2.4A28.2,28.2,0,0,0,12,12.3,28.037,28.037,0,1,0,60,32a2,2,0,0,1,4,0Z" transform="translate(0 -0.028)"/><path class="cls-1" d="M26.9,41.2H22.4V25.7l-3.6,3.6-2.6-2.7,6.7-6.8h4Z" transform="translate(0 -0.028)"/><path class="cls-1" d="M34.514,41.2l7.343-16.574H32.6V19.843H48.03v3.409L40.5,41.2Z" transform="translate(0 -0.028)"/></svg>