<svg width="906" height="560" xmlns="http://www.w3.org/2000/svg"><defs><linearGradient x1="50%" y1="11.442%" x2="50%" y2="77.659%" id="a"><stop stop-color="#CD95FF" stop-opacity=".234" offset="0%"/><stop stop-color="#B620E0" stop-opacity="0" offset="100%"/></linearGradient><linearGradient x1="50%" y1="55.583%" x2="50%" y2="100%" id="b"><stop stop-color="#F7B500" stop-opacity=".222" offset="0%"/><stop stop-color="#D8D8D8" stop-opacity="0" offset="100%"/></linearGradient><linearGradient x1="50%" y1="17.241%" x2="50%" y2="100%" id="c"><stop stop-color="#00F4CD" stop-opacity=".281" offset="0%"/><stop stop-color="#D8D8D8" stop-opacity="0" offset="100%"/></linearGradient><linearGradient x1="50%" y1="17.241%" x2="50%" y2="100%" id="d"><stop stop-color="#FFE439" stop-opacity=".277" offset="0%"/><stop stop-color="#D8D8D8" stop-opacity="0" offset="100%"/></linearGradient></defs><g transform="translate(0 -1)" fill="none" fill-rule="evenodd"><path d="M12 1.334h883c6.075 0 11 4.925 11 11V548.8c0 6.627-5.373 12-12 12H12c-6.627 0-12-5.373-12-12V13.334c0-6.627 5.373-12 12-12z" fill="#F1F4FC"/><rect fill="#FFF" x="13.539" y="16.505" width="876.104" height="437.026" rx="10.692"/><rect fill="#FFF" x="16.7" y="464.829" width="873.44" height="78.08" rx="10.692"/><path d="M165.856 513.54v-1.258a146.865 146.865 0 003.029-2.447c.876-.73 1.612-1.41 2.209-2.038.597-.629 1.048-1.22 1.352-1.772.305-.552.457-1.101.457-1.647 0-.407-.076-.756-.228-1.048a2.158 2.158 0 00-.6-.724c-.248-.19-.53-.33-.848-.419a3.586 3.586 0 00-.971-.133c-.762 0-1.435.146-2.019.438-.584.292-1.06.68-1.429 1.162l-.97-1.01a4.638 4.638 0 011.894-1.485 6.208 6.208 0 012.524-.514c.533 0 1.054.076 1.562.228.508.153.962.381 1.362.686.4.305.723.692.97 1.162.249.47.372 1.022.372 1.657 0 .647-.155 1.285-.466 1.914-.311.629-.743 1.257-1.295 1.886a20.841 20.841 0 01-1.953 1.923c-.749.654-1.568 1.33-2.457 2.029h6.228v1.41h-8.723zm16 .228c-.877 0-1.62-.197-2.23-.59a4.888 4.888 0 01-1.504-1.534 6.788 6.788 0 01-.857-2.114 10.483 10.483 0 01-.267-2.333c0-.775.09-1.553.267-2.334.178-.78.464-1.482.857-2.104a4.924 4.924 0 011.505-1.524c.61-.394 1.352-.59 2.228-.59.864 0 1.603.196 2.22.59a4.79 4.79 0 011.504 1.524c.387.622.673 1.324.857 2.104.184.781.276 1.56.276 2.334s-.092 1.552-.276 2.333a7.108 7.108 0 01-.857 2.114 4.756 4.756 0 01-1.505 1.533c-.616.394-1.355.59-2.219.59zm0-1.41c.609 0 1.12-.149 1.533-.447a3.313 3.313 0 001-1.181 5.712 5.712 0 00.542-1.657c.108-.616.162-1.241.162-1.876 0-.635-.054-1.26-.162-1.876a5.587 5.587 0 00-.543-1.648 3.335 3.335 0 00-1-1.171c-.412-.299-.923-.448-1.533-.448-.61 0-1.12.15-1.533.448a3.335 3.335 0 00-1 1.171 5.587 5.587 0 00-.543 1.648 10.847 10.847 0 00-.162 1.876c0 .635.054 1.26.162 1.876.108.616.29 1.168.543 1.657.254.489.587.882 1 1.18.413.3.924.448 1.533.448zm9.218 1.181V502.93l-2.038 2.153-.953-.972 3.181-3.276h1.39v12.704h-1.58zm5.37 0l5.124-11.294h-6.837v-1.41h8.666v1.086l-5.2 11.618h-1.752z" fill="#050505" fill-rule="nonzero"/><g transform="translate(64.91 502.233)"><path d="M7.31 3.418h55.138" stroke="#BE8BEA" stroke-width="1.711" stroke-linecap="square"/><ellipse fill="#BE8BEA" cx="3.655" cy="3.865" rx="3.655" ry="3.865"/><ellipse fill="#BE8BEA" cx="64.567" cy="3.865" rx="3.655" ry="3.865"/></g><path d="M366.423 513.54v-1.258a146.868 146.868 0 003.028-2.447c.876-.73 1.613-1.41 2.21-2.038.596-.629 1.047-1.22 1.352-1.772.304-.552.457-1.101.457-1.647 0-.407-.076-.756-.229-1.048a2.158 2.158 0 00-.6-.724c-.247-.19-.53-.33-.847-.419a3.586 3.586 0 00-.972-.133c-.762 0-1.435.146-2.019.438-.584.292-1.06.68-1.428 1.162l-.972-1.01a4.638 4.638 0 011.896-1.485 6.208 6.208 0 012.523-.514c.534 0 1.054.076 1.562.228.508.153.962.381 1.362.686.4.305.724.692.971 1.162.248.47.372 1.022.372 1.657 0 .647-.156 1.285-.467 1.914-.311.629-.743 1.257-1.295 1.886a20.841 20.841 0 01-1.952 1.923c-.75.654-1.569 1.33-2.457 2.029h6.228v1.41h-8.723zm15.999.228c-.877 0-1.62-.197-2.229-.59a4.888 4.888 0 01-1.504-1.534 6.788 6.788 0 01-.858-2.114 10.483 10.483 0 01-.266-2.333c0-.775.089-1.553.266-2.334.178-.78.464-1.482.858-2.104a4.924 4.924 0 011.504-1.524c.61-.394 1.352-.59 2.229-.59.863 0 1.603.196 2.219.59a4.79 4.79 0 011.504 1.524c.388.622.673 1.324.857 2.104.184.781.277 1.56.277 2.334s-.093 1.552-.277 2.333a7.108 7.108 0 01-.857 2.114 4.756 4.756 0 01-1.504 1.533c-.616.394-1.356.59-2.22.59zm0-1.41c.61 0 1.12-.149 1.533-.447a3.313 3.313 0 001-1.181 5.712 5.712 0 00.543-1.657c.108-.616.162-1.241.162-1.876 0-.635-.054-1.26-.162-1.876a5.587 5.587 0 00-.543-1.648 3.335 3.335 0 00-1-1.171c-.413-.299-.924-.448-1.533-.448-.61 0-1.12.15-1.534.448a3.335 3.335 0 00-1 1.171 5.587 5.587 0 00-.542 1.648 10.847 10.847 0 00-.162 1.876c0 .635.054 1.26.162 1.876.108.616.288 1.168.542 1.657.254.489.588.882 1 1.18.413.3.924.448 1.534.448zm9.218 1.181V502.93l-2.038 2.153-.952-.972 3.18-3.276h1.391v12.704h-1.58zm8.61.229a6.674 6.674 0 01-1.782-.229 4.364 4.364 0 01-1.438-.676 3.445 3.445 0 01-.971-1.086 2.901 2.901 0 01-.362-1.457c0-.419.083-.806.248-1.162a3.44 3.44 0 01.666-.961c.28-.286.603-.53.972-.734.368-.203.749-.362 1.142-.476a5.238 5.238 0 01-1.057-.419 4.003 4.003 0 01-.895-.638 2.948 2.948 0 01-.628-.867 2.562 2.562 0 01-.238-1.123c0-.572.127-1.064.38-1.476a3.288 3.288 0 011-1.029 4.416 4.416 0 011.39-.6 6.53 6.53 0 013.134 0c.52.127.987.327 1.4.6.413.273.75.616 1.01 1.029.26.412.39.904.39 1.476 0 .419-.08.793-.238 1.123-.159.33-.368.62-.629.867-.26.248-.562.46-.904.638a5.473 5.473 0 01-1.067.42c.394.113.774.272 1.143.475.368.203.692.448.971.734.28.285.502.606.667.961.165.356.247.743.247 1.162 0 .534-.12 1.016-.362 1.448a3.273 3.273 0 01-.98 1.085 4.758 4.758 0 01-1.448.677 6.35 6.35 0 01-1.762.238zm0-7.428c.19-.039.444-.099.761-.181.318-.083.622-.21.914-.381.292-.172.546-.39.762-.657.216-.267.324-.59.324-.972 0-.33-.073-.625-.22-.885a2.014 2.014 0 00-.59-.658 2.791 2.791 0 00-.876-.409 3.935 3.935 0 00-1.076-.143c-.38 0-.74.048-1.076.143a2.791 2.791 0 00-.876.41 2.014 2.014 0 00-.59.657c-.147.26-.22.555-.22.885 0 .381.108.705.324.972.216.266.473.485.772.657.298.171.603.298.914.38.311.083.562.143.752.182zm0 6.018c.393 0 .767-.05 1.123-.152.355-.102.67-.248.943-.438.273-.19.489-.422.647-.695.16-.273.238-.581.238-.924 0-.42-.117-.778-.352-1.076a3.182 3.182 0 00-.828-.743 4.115 4.115 0 00-.981-.448 5.416 5.416 0 00-.79-.19c-.191.025-.455.089-.791.19-.337.102-.667.251-.99.448a3.122 3.122 0 00-.839.743c-.235.298-.352.657-.352 1.076 0 .343.08.65.238.924.159.273.375.504.648.695.273.19.59.336.952.438.362.101.74.152 1.133.152z" fill="#050505" fill-rule="nonzero"/><g transform="translate(264.837 502.454)"><path d="M7.31 3.418h55.138" stroke="#F7B500" stroke-width="1.711" stroke-linecap="square"/><ellipse fill="#F7B500" cx="3.655" cy="3.865" rx="3.655" ry="3.865"/><ellipse fill="#F7B500" cx="64.567" cy="3.865" rx="3.655" ry="3.865"/></g><path d="M564.8 513.177v-1.257a146.865 146.865 0 003.029-2.448c.876-.73 1.612-1.41 2.21-2.038.596-.628 1.047-1.219 1.352-1.771.304-.552.457-1.102.457-1.648 0-.406-.077-.755-.229-1.047a2.158 2.158 0 00-.6-.724c-.247-.19-.53-.33-.847-.419a3.586 3.586 0 00-.972-.133c-.762 0-1.435.146-2.019.438-.584.292-1.06.68-1.428 1.162l-.972-1.01a4.638 4.638 0 011.896-1.486 6.208 6.208 0 012.523-.514c.534 0 1.054.076 1.562.229.508.152.962.38 1.362.685.4.305.724.692.971 1.162.248.47.372 1.022.372 1.657 0 .648-.156 1.286-.467 1.915-.311.628-.743 1.257-1.295 1.885a20.841 20.841 0 01-1.952 1.924c-.75.654-1.569 1.33-2.457 2.028h6.228v1.41H564.8zm16 .228c-.877 0-1.62-.197-2.229-.59a4.888 4.888 0 01-1.505-1.533 6.788 6.788 0 01-.857-2.115 10.483 10.483 0 01-.266-2.333c0-.774.089-1.552.266-2.333.178-.78.464-1.482.857-2.105a4.924 4.924 0 011.505-1.523c.61-.394 1.352-.59 2.229-.59.863 0 1.603.196 2.218.59a4.79 4.79 0 011.505 1.523c.387.623.673 1.324.857 2.105.184.781.276 1.559.276 2.333 0 .775-.092 1.553-.276 2.333a7.108 7.108 0 01-.857 2.115 4.756 4.756 0 01-1.505 1.533c-.615.393-1.355.59-2.218.59zm0-1.41c.609 0 1.12-.148 1.533-.447a3.313 3.313 0 001-1.18 5.712 5.712 0 00.543-1.658c.107-.616.161-1.24.161-1.876 0-.635-.054-1.26-.161-1.876a5.587 5.587 0 00-.543-1.647 3.335 3.335 0 00-1-1.172c-.413-.298-.924-.447-1.533-.447-.61 0-1.121.149-1.534.447a3.335 3.335 0 00-1 1.172 5.587 5.587 0 00-.542 1.647 10.847 10.847 0 00-.162 1.876c0 .635.054 1.26.162 1.876.107.616.288 1.169.542 1.657.254.49.588.883 1 1.181.413.299.924.448 1.534.448zm9.218 1.182v-10.61l-2.038 2.153-.952-.971 3.18-3.276h1.39v12.704h-1.58zm8.19.21c-.813 0-1.501-.14-2.066-.42a4.736 4.736 0 01-1.458-1.104l.8-1.181c.33.38.702.692 1.115.933.412.241.949.362 1.61.362.647 0 1.196-.146 1.647-.438.45-.292.819-.673 1.104-1.143.286-.47.496-1.003.629-1.6.133-.597.2-1.194.2-1.79v-.257c0-.083-.007-.169-.02-.258-.139.216-.326.442-.561.677a4.273 4.273 0 01-.829.638c-.317.19-.66.349-1.028.476s-.756.19-1.162.19a5.03 5.03 0 01-1.619-.257 3.749 3.749 0 01-1.324-.762 3.63 3.63 0 01-.895-1.266c-.222-.508-.333-1.099-.333-1.772 0-.546.101-1.07.305-1.571a3.95 3.95 0 01.876-1.324 4.25 4.25 0 011.4-.914c.552-.229 1.171-.343 1.857-.343.889 0 1.644.181 2.266.543.622.362 1.13.844 1.524 1.448.394.603.68 1.301.857 2.095.178.793.267 1.622.267 2.485 0 .864-.102 1.689-.305 2.476a6.322 6.322 0 01-.943 2.086 4.824 4.824 0 01-1.61 1.447c-.647.362-1.415.543-2.304.543zm.343-6.286c.635 0 1.238-.172 1.81-.514a3.784 3.784 0 001.352-1.372c-.038-.393-.121-.8-.248-1.219a3.837 3.837 0 00-.562-1.142 2.963 2.963 0 00-.962-.848c-.393-.222-.863-.333-1.41-.333-.482 0-.907.082-1.275.247a2.773 2.773 0 00-.914.638c-.242.26-.423.55-.543.867-.12.317-.181.628-.181.933 0 .47.076.876.228 1.22.153.342.362.628.629.856.267.229.578.397.933.505.356.108.737.162 1.143.162z" fill="#050505" fill-rule="nonzero"/><g transform="translate(463.163 502.354)"><path d="M7.31 3.418h55.138" stroke="#00F4CD" stroke-width="1.711" stroke-linecap="square"/><ellipse fill="#00F4CD" cx="3.655" cy="3.865" rx="3.655" ry="3.865"/><ellipse fill="#00F4CD" cx="64.567" cy="3.865" rx="3.655" ry="3.865"/></g><g transform="translate(661.06 495.447)"><path d="M99.884 18.092v-1.257a146.867 146.867 0 003.028-2.447c.877-.73 1.613-1.41 2.21-2.038.597-.629 1.047-1.22 1.352-1.772.305-.552.457-1.101.457-1.647 0-.407-.076-.756-.228-1.048a2.158 2.158 0 00-.6-.724c-.248-.19-.53-.33-.848-.419a3.586 3.586 0 00-.971-.133c-.762 0-1.435.146-2.02.438-.583.292-1.06.68-1.428 1.162l-.971-1.01a4.638 4.638 0 011.895-1.485 6.208 6.208 0 012.524-.514c.533 0 1.054.076 1.562.228.507.153.961.381 1.361.686.4.305.724.692.972 1.162.247.47.371 1.022.371 1.657 0 .647-.155 1.285-.466 1.914-.312.628-.743 1.257-1.296 1.886a20.841 20.841 0 01-1.952 1.923c-.75.654-1.568 1.33-2.457 2.029h6.228v1.41h-8.723zm16 .229c-.877 0-1.62-.197-2.23-.59a4.888 4.888 0 01-1.504-1.534 6.788 6.788 0 01-.857-2.114 10.483 10.483 0 01-.267-2.333c0-.775.09-1.553.267-2.334.178-.78.463-1.482.857-2.104a4.924 4.924 0 011.505-1.524c.61-.394 1.352-.59 2.228-.59.864 0 1.603.196 2.219.59a4.79 4.79 0 011.505 1.524c.387.622.673 1.324.857 2.104.184.781.276 1.56.276 2.334s-.092 1.552-.276 2.333a7.108 7.108 0 01-.857 2.114 4.756 4.756 0 01-1.505 1.533c-.616.394-1.355.59-2.219.59zm0-1.41c.609 0 1.12-.149 1.532-.447a3.313 3.313 0 001-1.181 5.712 5.712 0 00.543-1.657c.108-.616.162-1.241.162-1.876 0-.635-.054-1.26-.162-1.876a5.587 5.587 0 00-.543-1.648 3.335 3.335 0 00-1-1.171c-.412-.299-.923-.448-1.533-.448-.61 0-1.12.15-1.533.448a3.335 3.335 0 00-1 1.171 5.587 5.587 0 00-.543 1.648 10.847 10.847 0 00-.162 1.876c0 .635.054 1.26.162 1.876.108.616.289 1.168.543 1.657.254.489.587.882 1 1.18.413.3.924.448 1.533.448zm6.856 1.181v-1.257a146.866 146.866 0 003.028-2.447c.876-.73 1.613-1.41 2.21-2.038.596-.629 1.047-1.22 1.352-1.772.305-.552.457-1.101.457-1.647 0-.407-.076-.756-.229-1.048a2.158 2.158 0 00-.6-.724c-.247-.19-.53-.33-.847-.419a3.586 3.586 0 00-.971-.133c-.762 0-1.435.146-2.02.438-.583.292-1.06.68-1.428 1.162l-.971-1.01a4.638 4.638 0 011.895-1.485 6.208 6.208 0 012.524-.514c.533 0 1.053.076 1.561.228.508.153.962.381 1.362.686.4.305.724.692.972 1.162.247.47.371 1.022.371 1.657 0 .647-.156 1.285-.467 1.914-.31.628-.742 1.257-1.295 1.886a20.841 20.841 0 01-1.952 1.923c-.75.654-1.568 1.33-2.457 2.029h6.228v1.41h-8.723zm15.999.229c-.876 0-1.619-.197-2.229-.59a4.888 4.888 0 01-1.504-1.534 6.788 6.788 0 01-.857-2.114 10.483 10.483 0 01-.267-2.333c0-.775.089-1.553.267-2.334.177-.78.463-1.482.857-2.104a4.924 4.924 0 011.504-1.524c.61-.394 1.353-.59 2.229-.59.863 0 1.603.196 2.219.59a4.79 4.79 0 011.505 1.524c.387.622.672 1.324.857 2.104.184.781.276 1.56.276 2.334s-.092 1.552-.276 2.333a7.108 7.108 0 01-.857 2.114 4.756 4.756 0 01-1.505 1.533c-.616.394-1.356.59-2.22.59zm0-1.41c.61 0 1.12-.149 1.533-.447a3.313 3.313 0 001-1.181 5.712 5.712 0 00.543-1.657c.108-.616.162-1.241.162-1.876 0-.635-.054-1.26-.162-1.876a5.587 5.587 0 00-.543-1.648 3.335 3.335 0 00-1-1.171c-.413-.299-.924-.448-1.533-.448-.61 0-1.12.15-1.533.448a3.335 3.335 0 00-1 1.171 5.587 5.587 0 00-.543 1.648 10.847 10.847 0 00-.162 1.876c0 .635.054 1.26.162 1.876.108.616.289 1.168.543 1.657.254.489.587.882 1 1.18.412.3.923.448 1.533.448z" fill="#050505" fill-rule="nonzero"/><path d="M7.31 10.688h55.138" stroke="#FFE439" stroke-width="1.711" stroke-linecap="square"/><ellipse fill="#FFE439" cx="3.655" cy="11.134" rx="3.655" ry="3.865"/><ellipse fill="#FFE439" cx="64.567" cy="11.134" rx="3.655" ry="3.865"/></g><g><path d="M122.005 89h715.266M122.005 129.08h715.266M122.005 165.404h715.266M122.005 205.485h715.266M122.005 244.314h715.266M122.005 281.89h715.266M122.005 320.718h715.266M122.005 359.547h715.266M122.005 395.87h715.266" stroke="#E8E6E6" stroke-width=".728" stroke-linecap="square"/><g transform="translate(143.82 119.687)"><path stroke="#00F4CD" stroke-width="1.455" d="M4.293 228.537l53.21-23.174 54.013-53.118L165.093 39.75l52.9 8.824 54.573 41.977 53.768 30.18 57.36 41.958 50.815 32.547 52.619 22.946 54.474 10.355 52.226-5.24"/><path stroke="#F7B500" stroke-width="1.455" d="M4.293 246.724l54.098-9.587 53.74-22.795 53.337-74.482 53.047-34.886 267.368 127.903 55.719-4.34 52.226 8.6"/><path stroke="#BE8BEA" stroke-width="1.455" d="M4.293 262.93l52.733-7.95 54.171-47 51.554-21.768 56.076-16.182 64.59 27.9 149.562 46.008 53.416 6.056 54.46 2.758 52.973 2.228"/><path stroke="#FFE439" stroke-width="1.455" d="M4.293 198.086l53.7-22.237L111.92 3.39"/><path fill="url(#a)" d="M4.293 262.93l52.733-7.95 54.893-47.638 50.832-21.13 56.076-16.182 66.037 28.056 148.115 45.852 51.614 5.516 109.235 5.526v21.872H3.32z"/><circle fill="#BE8BEA" cx="3.945" cy="263.032" r="3.945"/><circle fill="#F7B500" cx="3.945" cy="245.935" r="3.945"/><circle fill="#00F4CD" cx="3.945" cy="227.523" r="3.945"/><circle fill="#FFE439" cx="3.945" cy="197.274" r="3.945"/><circle fill="#FFE439" cx="57.867" cy="174.916" r="3.945"/><circle fill="#FFE439" cx="111.789" cy="3.945" r="3.945"/><circle fill="#00F4CD" cx="111.789" cy="149.928" r="3.945"/><circle fill="#00F4CD" cx="57.867" cy="205.165" r="3.945"/><circle fill="#F7B500" cx="111.789" cy="214.371" r="3.945"/><circle fill="#F7B500" cx="57.867" cy="235.414" r="3.945"/><circle fill="#BE8BEA" cx="57.867" cy="253.826" r="3.945"/><circle fill="#BE8BEA" cx="110.474" cy="207.795" r="3.945"/><path fill="url(#b)" d="M56.712 237.169l55.207-22.61 53.549-74.699 53.047-34.886 97.912 46.926 169.456 80.977 55.719-4.34 52.226 8.632.625 10.081H3.945z"/><path fill="url(#c)" d="M3.945 228.838l54.16-23.69 53.41-52.903L165.094 39.75l52.9 8.824 54.573 41.977 53.768 30.18 108.175 74.505 52.619 22.946 54.474 10.355 52.226-5.24.625 12.646H3.945z"/><circle fill="#BE8BEA" cx="164.395" cy="185.438" r="3.945"/><circle fill="#BE8BEA" cx="218.317" cy="169.656" r="3.945"/><circle fill="#BE8BEA" cx="264.347" cy="189.383" r="3.945"/><circle fill="#BE8BEA" cx="324.845" cy="210.426" r="3.945"/><circle fill="#BE8BEA" cx="377.451" cy="227.523" r="3.945"/><circle fill="#BE8BEA" cx="431.373" cy="243.305" r="3.945"/><circle fill="#BE8BEA" cx="485.295" cy="249.881" r="3.945"/><circle fill="#BE8BEA" cx="540.531" cy="252.511" r="3.945"/><circle fill="#BE8BEA" cx="594.453" cy="253.826" r="3.945"/><path fill="url(#d)" d="M3.32 198.086l54.786-22.237L111.919 3.39l-.13 197.83v11.836H3.945z"/><circle fill="#F7B500" cx="165.71" cy="139.407" r="3.945"/><circle fill="#F7B500" cx="219.632" cy="105.213" r="3.945"/><circle fill="#F7B500" cx="264.347" cy="126.255" r="3.945"/><circle fill="#F7B500" cx="324.845" cy="156.504" r="3.945"/><circle fill="#F7B500" cx="377.451" cy="181.492" r="3.945"/><circle fill="#F7B500" cx="431.373" cy="207.795" r="3.945"/><circle fill="#F7B500" cx="485.295" cy="231.468" r="3.945"/><circle fill="#F7B500" cx="540.531" cy="228.838" r="3.945"/><circle fill="#F7B500" cx="594.453" cy="238.044" r="3.945"/><circle fill="#00F4CD" cx="165.71" cy="40.77" r="3.945"/><circle fill="#00F4CD" cx="218.317" cy="48.661" r="3.945"/><circle fill="#00F4CD" cx="264.347" cy="84.17" r="3.945"/><circle fill="#00F4CD" cx="324.845" cy="120.995" r="3.945"/><circle fill="#00F4CD" cx="377.451" cy="159.135" r="3.945"/><circle fill="#00F4CD" cx="431.373" cy="192.014" r="3.945"/><circle fill="#00F4CD" cx="485.295" cy="217.002" r="3.945"/><circle fill="#00F4CD" cx="540.531" cy="227.523" r="3.945"/><circle fill="#00F4CD" cx="594.453" cy="223.577" r="3.945"/></g><g fill="#000" fill-rule="nonzero"><path d="M69.977 96.028v-2.454h-4.603v-1.002l4.153-6.229h1.655v6.171h1.365v1.06h-1.365v2.454h-1.205zm0-8.567l-3.397 5.053h3.397v-5.053zm7.478 8.74c-.668 0-1.235-.15-1.7-.45-.464-.3-.846-.689-1.146-1.168a5.175 5.175 0 01-.654-1.612 7.991 7.991 0 01-.203-1.778c0-.59.068-1.184.203-1.779.136-.595.354-1.13.654-1.604.3-.475.682-.862 1.147-1.162.464-.3 1.03-.45 1.699-.45.658 0 1.222.15 1.691.45.47.3.852.687 1.147 1.162.295.474.513 1.009.653 1.604.14.595.211 1.188.211 1.779 0 .59-.07 1.183-.21 1.778a5.419 5.419 0 01-.654 1.612c-.295.48-.677.869-1.147 1.169-.47.3-1.033.45-1.691.45zm0-1.074c.464 0 .854-.113 1.168-.34.315-.228.57-.528.763-.901.193-.373.331-.794.413-1.263a8.269 8.269 0 000-2.86 4.259 4.259 0 00-.413-1.256 2.542 2.542 0 00-.763-.893c-.314-.228-.704-.342-1.168-.342-.465 0-.855.114-1.17.342a2.542 2.542 0 00-.762.893 4.259 4.259 0 00-.413 1.256 8.269 8.269 0 000 2.86c.082.47.22.89.413 1.263.194.373.448.673.763.9.314.228.704.341 1.169.341zm12.631 1.075c-.667 0-1.234-.15-1.698-.45-.465-.3-.847-.69-1.147-1.169a5.175 5.175 0 01-.654-1.612 7.991 7.991 0 01-.203-1.778c0-.59.068-1.184.203-1.779.136-.595.354-1.13.654-1.604.3-.475.682-.862 1.147-1.162.464-.3 1.03-.45 1.698-.45.659 0 1.222.15 1.692.45.47.3.852.687 1.147 1.162.295.474.513 1.009.653 1.604.14.595.21 1.188.21 1.779 0 .59-.07 1.183-.21 1.778a5.419 5.419 0 01-.653 1.612c-.295.48-.678.869-1.147 1.169-.47.3-1.033.45-1.692.45zm0-1.075c.465 0 .855-.113 1.17-.34.314-.228.568-.528.762-.901.193-.373.331-.794.413-1.263a8.269 8.269 0 000-2.86 4.259 4.259 0 00-.413-1.256 2.542 2.542 0 00-.763-.893c-.314-.228-.704-.342-1.169-.342-.464 0-.854.114-1.168.342a2.542 2.542 0 00-.763.893 4.259 4.259 0 00-.413 1.256 8.269 8.269 0 000 2.86c.082.47.22.89.413 1.263.194.373.448.673.763.9.314.228.704.341 1.168.341zm8.886 1.075c-.668 0-1.234-.15-1.698-.45-.465-.3-.847-.69-1.148-1.169a5.175 5.175 0 01-.653-1.612 7.991 7.991 0 01-.203-1.778c0-.59.068-1.184.203-1.779.136-.595.353-1.13.653-1.604.3-.475.683-.862 1.148-1.162.464-.3 1.03-.45 1.698-.45.659 0 1.222.15 1.692.45.47.3.852.687 1.147 1.162.295.474.513 1.009.653 1.604.14.595.21 1.188.21 1.779 0 .59-.07 1.183-.21 1.778a5.419 5.419 0 01-.653 1.612c-.295.48-.678.869-1.147 1.169-.47.3-1.033.45-1.692.45zm0-1.075c.465 0 .855-.113 1.17-.34.314-.228.568-.528.761-.901.194-.373.332-.794.414-1.263a8.269 8.269 0 000-2.86 4.259 4.259 0 00-.414-1.256 2.542 2.542 0 00-.762-.893c-.314-.228-.704-.342-1.169-.342-.464 0-.854.114-1.169.342a2.542 2.542 0 00-.762.893 4.259 4.259 0 00-.414 1.256 8.269 8.269 0 000 2.86c.083.47.22.89.414 1.263.194.373.448.673.762.9.315.228.705.341 1.17.341zm8.886 1.075c-.668 0-1.234-.15-1.699-.45-.464-.3-.847-.69-1.147-1.169a5.175 5.175 0 01-.653-1.612 7.991 7.991 0 01-.203-1.778c0-.59.067-1.184.203-1.779.135-.595.353-1.13.653-1.604.3-.475.683-.862 1.147-1.162.465-.3 1.031-.45 1.7-.45.657 0 1.221.15 1.69.45.47.3.852.687 1.148 1.162.295.474.513 1.009.653 1.604.14.595.21 1.188.21 1.779 0 .59-.07 1.183-.21 1.778a5.419 5.419 0 01-.653 1.612c-.296.48-.678.869-1.147 1.169-.47.3-1.034.45-1.692.45zm0-1.075c.465 0 .854-.113 1.169-.34.315-.228.569-.528.762-.901.194-.373.332-.794.414-1.263a8.269 8.269 0 000-2.86 4.259 4.259 0 00-.414-1.256 2.542 2.542 0 00-.762-.893c-.315-.228-.704-.342-1.169-.342-.464 0-.854.114-1.169.342a2.542 2.542 0 00-.762.893 4.259 4.259 0 00-.414 1.256 8.269 8.269 0 000 2.86c.083.47.22.89.414 1.263.194.373.448.673.762.9.315.228.705.341 1.17.341zM70.087 135.03c-.823 0-1.527-.157-2.112-.471-.586-.315-1.029-.69-1.329-1.126l.711-.755c.281.378.656.685 1.126.922.47.237.994.356 1.575.356.707 0 1.26-.162 1.663-.486.401-.325.602-.767.602-1.329 0-.3-.058-.559-.174-.777a1.402 1.402 0 00-.494-.53 2.416 2.416 0 00-.762-.305 4.386 4.386 0 00-.98-.101h-.595c-.194 0-.33.005-.407.014v-1.103c.078.01.215.014.414.014h.588c.3 0 .588-.031.864-.094s.515-.16.719-.29c.203-.131.365-.296.486-.494.12-.198.181-.438.181-.719a1.41 1.41 0 00-.174-.711 1.63 1.63 0 00-.464-.516 2.108 2.108 0 00-.69-.32 3.16 3.16 0 00-.835-.108c-.532 0-1.002.1-1.408.298a3.908 3.908 0 00-1.147.878l-.668-.755a4.221 4.221 0 011.35-1.067c.552-.286 1.205-.428 1.96-.428.465 0 .898.058 1.3.174.401.116.747.283 1.038.5a2.332 2.332 0 01.944 1.91c0 .349-.066.653-.196.915-.131.261-.298.484-.501.668a2.585 2.585 0 01-.676.443 2.92 2.92 0 01-.718.225c.222.019.464.082.726.188.261.107.503.257.726.45.222.194.409.436.559.726.15.29.225.63.225 1.017 0 .406-.078.779-.233 1.118-.154.339-.38.631-.675.878-.295.247-.656.44-1.081.58a4.58 4.58 0 01-1.438.211zm8.596 0c-.823 0-1.506-.137-2.048-.413a3.934 3.934 0 01-1.364-1.14l.74-.799c.32.407.695.721 1.125.944.431.223.946.334 1.547.334a2.5 2.5 0 00.907-.16c.276-.106.51-.251.704-.435a2.038 2.038 0 00.624-1.481c0-.32-.055-.608-.166-.864a1.995 1.995 0 00-.458-.66 1.95 1.95 0 00-.697-.422 2.66 2.66 0 00-.9-.145c-.435 0-.835.073-1.198.218a3.212 3.212 0 00-1.038.697l-.886-.305v-5.227H81.5v1.074h-4.718v3.369c.232-.233.544-.436.936-.61a3.238 3.238 0 011.329-.261c.406 0 .793.067 1.161.203a2.842 2.842 0 011.662 1.568c.17.387.255.828.255 1.321 0 .494-.087.94-.262 1.336a2.885 2.885 0 01-.726 1.01c-.31.275-.675.485-1.096.63a4.137 4.137 0 01-1.357.218zm12.385 0c-.668 0-1.234-.15-1.7-.45-.464-.3-.846-.69-1.146-1.168a5.175 5.175 0 01-.654-1.612 7.991 7.991 0 01-.203-1.779c0-.59.068-1.183.203-1.778.136-.596.354-1.13.654-1.605.3-.474.682-.861 1.147-1.161.465-.3 1.03-.45 1.699-.45.658 0 1.222.15 1.691.45.47.3.852.687 1.147 1.161.295.475.513 1.01.654 1.605.14.595.21 1.188.21 1.778 0 .59-.07 1.184-.21 1.779a5.419 5.419 0 01-.654 1.612c-.295.479-.677.868-1.147 1.168-.47.3-1.033.45-1.691.45zm0-1.074c.464 0 .854-.114 1.168-.341.315-.228.57-.528.763-.9.193-.373.331-.794.414-1.264a8.269 8.269 0 000-2.86 4.259 4.259 0 00-.414-1.256 2.542 2.542 0 00-.763-.893c-.314-.227-.704-.341-1.168-.341-.465 0-.855.114-1.17.341a2.542 2.542 0 00-.761.893 4.259 4.259 0 00-.414 1.256 8.269 8.269 0 000 2.86c.082.47.22.89.414 1.264.193.372.447.672.762.9.314.227.704.341 1.169.341zm8.886 1.074c-.668 0-1.235-.15-1.7-.45-.464-.3-.846-.69-1.146-1.168a5.175 5.175 0 01-.654-1.612 7.991 7.991 0 01-.203-1.779c0-.59.068-1.183.203-1.778.136-.596.354-1.13.654-1.605.3-.474.682-.861 1.147-1.161.464-.3 1.03-.45 1.699-.45.658 0 1.222.15 1.691.45.47.3.852.687 1.147 1.161.295.475.513 1.01.653 1.605s.21 1.188.21 1.778c0 .59-.07 1.184-.21 1.779a5.419 5.419 0 01-.653 1.612c-.295.479-.678.868-1.147 1.168-.47.3-1.033.45-1.691.45zm0-1.074c.464 0 .854-.114 1.168-.341.315-.228.569-.528.763-.9.193-.373.331-.794.413-1.264a8.269 8.269 0 000-2.86 4.259 4.259 0 00-.413-1.256 2.542 2.542 0 00-.763-.893c-.314-.227-.704-.341-1.168-.341-.465 0-.855.114-1.17.341a2.542 2.542 0 00-.762.893 4.259 4.259 0 00-.413 1.256 8.269 8.269 0 000 2.86c.082.47.22.89.413 1.264.194.372.448.672.763.9.314.227.704.341 1.169.341zm8.885 1.074c-.668 0-1.234-.15-1.698-.45-.465-.3-.847-.69-1.147-1.168a5.175 5.175 0 01-.654-1.612 7.991 7.991 0 01-.203-1.779c0-.59.068-1.183.203-1.778.136-.596.354-1.13.654-1.605.3-.474.682-.861 1.147-1.161.464-.3 1.03-.45 1.698-.45.659 0 1.222.15 1.692.45.47.3.852.687 1.147 1.161.295.475.513 1.01.653 1.605s.21 1.188.21 1.778c0 .59-.07 1.184-.21 1.779a5.419 5.419 0 01-.653 1.612c-.295.479-.678.868-1.147 1.168-.47.3-1.033.45-1.692.45zm0-1.074c.465 0 .855-.114 1.17-.341.314-.228.568-.528.761-.9.194-.373.332-.794.414-1.264a8.269 8.269 0 000-2.86 4.259 4.259 0 00-.414-1.256 2.542 2.542 0 00-.762-.893c-.314-.227-.704-.341-1.169-.341-.464 0-.854.114-1.168.341a2.542 2.542 0 00-.763.893 4.259 4.259 0 00-.414 1.256 8.269 8.269 0 000 2.86c.083.47.22.89.414 1.264.194.372.448.672.763.9.314.227.704.341 1.168.341zM68.772 172.606c-.823 0-1.527-.157-2.113-.471-.585-.315-1.028-.69-1.328-1.126l.711-.755c.281.378.656.685 1.126.922.47.237.994.356 1.575.356.707 0 1.26-.162 1.662-.486.402-.325.603-.767.603-1.329 0-.3-.058-.559-.174-.777a1.402 1.402 0 00-.494-.53 2.416 2.416 0 00-.762-.305 4.386 4.386 0 00-.98-.101h-.596c-.193 0-.329.005-.406.014v-1.103c.077.01.215.014.414.014h.588c.3 0 .588-.031.864-.094s.515-.16.718-.29c.204-.131.366-.296.487-.494.12-.198.181-.438.181-.719a1.41 1.41 0 00-.174-.711 1.63 1.63 0 00-.465-.516 2.108 2.108 0 00-.69-.319 3.16 3.16 0 00-.834-.109c-.533 0-1.002.1-1.409.298a3.908 3.908 0 00-1.147.878l-.667-.755a4.221 4.221 0 011.35-1.067c.552-.286 1.205-.428 1.96-.428.465 0 .898.058 1.3.174.401.116.747.283 1.038.5a2.332 2.332 0 01.944 1.91c0 .349-.066.653-.197.915-.13.261-.297.484-.5.668a2.585 2.585 0 01-.676.443 2.92 2.92 0 01-.718.225c.222.019.464.082.726.188.26.107.503.257.726.45.222.194.408.436.559.726.15.29.225.63.225 1.017 0 .406-.078.779-.233 1.118-.155.339-.38.631-.675.878-.295.247-.656.44-1.082.581a4.58 4.58 0 01-1.437.21zm8.668 0c-.668 0-1.234-.15-1.699-.45-.464-.3-.847-.69-1.147-1.168a5.175 5.175 0 01-.653-1.612 7.991 7.991 0 01-.203-1.779c0-.59.067-1.183.203-1.778.135-.596.353-1.13.653-1.605.3-.474.683-.861 1.147-1.161.465-.3 1.031-.45 1.699-.45.658 0 1.222.15 1.692.45.469.3.851.687 1.147 1.161.295.475.513 1.01.653 1.605s.21 1.188.21 1.778c0 .59-.07 1.184-.21 1.779a5.419 5.419 0 01-.653 1.612c-.296.479-.678.868-1.147 1.168-.47.3-1.034.45-1.692.45zm0-1.074c.465 0 .854-.114 1.169-.341.314-.228.569-.528.762-.9.194-.373.332-.794.414-1.264a8.269 8.269 0 000-2.86 4.259 4.259 0 00-.414-1.256 2.542 2.542 0 00-.762-.893c-.315-.227-.704-.34-1.169-.34-.465 0-.854.113-1.169.34a2.542 2.542 0 00-.762.893 4.259 4.259 0 00-.414 1.256 8.269 8.269 0 000 2.86c.082.47.22.891.414 1.264.194.372.448.672.762.9.315.227.704.341 1.169.341zm12.632 1.074c-.668 0-1.234-.15-1.699-.45-.464-.3-.847-.69-1.147-1.168a5.175 5.175 0 01-.653-1.612 7.991 7.991 0 01-.204-1.779c0-.59.068-1.183.204-1.778.135-.596.353-1.13.653-1.605.3-.474.683-.861 1.147-1.161.465-.3 1.031-.45 1.699-.45.658 0 1.222.15 1.691.45.47.3.852.687 1.147 1.161.296.475.513 1.01.654 1.605.14.595.21 1.188.21 1.778 0 .59-.07 1.184-.21 1.779a5.419 5.419 0 01-.654 1.612c-.295.479-.677.868-1.147 1.168-.469.3-1.033.45-1.691.45zm0-1.074c.465 0 .854-.114 1.169-.341.314-.228.568-.528.762-.9.194-.373.332-.794.414-1.264a8.269 8.269 0 000-2.86 4.259 4.259 0 00-.414-1.256 2.542 2.542 0 00-.762-.893c-.315-.227-.704-.34-1.17-.34-.464 0-.853.113-1.168.34a2.542 2.542 0 00-.762.893 4.259 4.259 0 00-.414 1.256 8.269 8.269 0 000 2.86c.082.47.22.891.414 1.264.193.372.448.672.762.9.315.227.704.341 1.169.341zm8.886 1.074c-.668 0-1.234-.15-1.699-.45-.465-.3-.847-.69-1.147-1.168a5.175 5.175 0 01-.653-1.612 7.991 7.991 0 01-.204-1.779c0-.59.068-1.183.204-1.778.135-.596.353-1.13.653-1.605.3-.474.682-.861 1.147-1.161.465-.3 1.03-.45 1.699-.45.658 0 1.222.15 1.691.45.47.3.852.687 1.147 1.161.296.475.513 1.01.654 1.605.14.595.21 1.188.21 1.778 0 .59-.07 1.184-.21 1.779a5.419 5.419 0 01-.654 1.612c-.295.479-.677.868-1.147 1.168-.47.3-1.033.45-1.691.45zm0-1.074c.464 0 .854-.114 1.169-.341.314-.228.568-.528.762-.9.193-.373.331-.794.414-1.264a8.269 8.269 0 000-2.86 4.259 4.259 0 00-.414-1.256 2.542 2.542 0 00-.762-.893c-.315-.227-.705-.34-1.17-.34-.464 0-.853.113-1.168.34a2.542 2.542 0 00-.762.893 4.259 4.259 0 00-.414 1.256 8.269 8.269 0 000 2.86c.082.47.22.891.414 1.264.193.372.447.672.762.9.315.227.704.341 1.169.341zm8.886 1.074c-.668 0-1.235-.15-1.7-.45-.464-.3-.846-.69-1.146-1.168a5.175 5.175 0 01-.654-1.612 7.991 7.991 0 01-.203-1.779c0-.59.068-1.183.203-1.778.136-.596.354-1.13.654-1.605.3-.474.682-.861 1.147-1.161.464-.3 1.03-.45 1.699-.45.658 0 1.222.15 1.691.45.47.3.852.687 1.147 1.161.295.475.513 1.01.654 1.605.14.595.21 1.188.21 1.778 0 .59-.07 1.184-.21 1.779a5.419 5.419 0 01-.654 1.612c-.295.479-.677.868-1.147 1.168-.47.3-1.033.45-1.691.45zm0-1.074c.464 0 .854-.114 1.168-.341.315-.228.57-.528.763-.9.193-.373.331-.794.414-1.264a8.269 8.269 0 000-2.86 4.259 4.259 0 00-.414-1.256 2.542 2.542 0 00-.763-.893c-.314-.227-.704-.34-1.168-.34-.465 0-.855.113-1.17.34a2.542 2.542 0 00-.761.893 4.259 4.259 0 00-.414 1.256 8.269 8.269 0 000 2.86c.082.47.22.891.414 1.264.193.372.447.672.762.9.314.227.704.341 1.169.341zM65.694 211.26v-.957c.871-.688 1.64-1.31 2.308-1.866a19.932 19.932 0 001.685-1.554c.455-.479.798-.929 1.03-1.35.233-.421.349-.84.349-1.256 0-.31-.058-.576-.174-.799a1.645 1.645 0 00-.458-.551 1.879 1.879 0 00-.646-.32 2.734 2.734 0 00-.74-.101c-.58 0-1.094.111-1.54.334a3.073 3.073 0 00-1.088.885l-.74-.77c.367-.493.849-.87 1.444-1.132a4.732 4.732 0 011.924-.392c.406 0 .803.058 1.19.174.388.117.734.29 1.039.523.304.232.551.528.74.886.189.358.283.779.283 1.263 0 .494-.118.98-.356 1.46-.237.478-.566.957-.987 1.437-.42.479-.917.968-1.488 1.466a47.158 47.158 0 01-1.873 1.546h4.748v1.075h-6.65zm12.124.175c-.823 0-1.506-.138-2.048-.414a3.934 3.934 0 01-1.365-1.14l.741-.798c.32.406.694.721 1.125.944.431.222.946.334 1.547.334a2.5 2.5 0 00.907-.16 1.995 1.995 0 001.162-1.096c.11-.257.167-.53.167-.82 0-.32-.056-.608-.167-.865a1.995 1.995 0 00-.458-.66 1.95 1.95 0 00-.697-.421 2.66 2.66 0 00-.9-.145c-.436 0-.835.072-1.198.217a3.212 3.212 0 00-1.038.697l-.886-.305v-5.227h5.924v1.075h-4.718v3.368c.232-.232.544-.435.936-.61a3.238 3.238 0 011.329-.26c.406 0 .793.067 1.161.202a2.842 2.842 0 011.662 1.568c.17.388.255.828.255 1.322 0 .493-.087.939-.262 1.336a2.885 2.885 0 01-.726 1.009c-.31.276-.675.486-1.096.631a4.137 4.137 0 01-1.357.218zm12.385 0c-.668 0-1.235-.15-1.7-.45-.464-.3-.846-.69-1.146-1.169a5.175 5.175 0 01-.654-1.612 7.991 7.991 0 01-.203-1.778c0-.59.068-1.183.203-1.779.136-.595.354-1.13.654-1.604.3-.474.682-.862 1.147-1.162.464-.3 1.03-.45 1.699-.45.658 0 1.222.15 1.691.45.47.3.852.688 1.147 1.162.295.474.513 1.009.653 1.604.14.596.211 1.188.211 1.779 0 .59-.07 1.183-.21 1.778a5.419 5.419 0 01-.654 1.612c-.295.48-.677.869-1.147 1.169-.47.3-1.033.45-1.691.45zm0-1.074c.464 0 .854-.114 1.168-.342.315-.227.57-.527.763-.9.193-.372.331-.794.413-1.263a8.269 8.269 0 000-2.86 4.259 4.259 0 00-.413-1.256 2.542 2.542 0 00-.763-.893c-.314-.228-.704-.341-1.168-.341-.465 0-.855.113-1.17.34a2.542 2.542 0 00-.761.894 4.259 4.259 0 00-.414 1.256 8.269 8.269 0 000 2.86c.082.47.22.89.414 1.263.193.373.447.673.762.9.314.228.704.342 1.169.342zm8.885 1.074c-.667 0-1.234-.15-1.698-.45-.465-.3-.847-.69-1.147-1.169a5.175 5.175 0 01-.654-1.612 7.991 7.991 0 01-.203-1.778c0-.59.068-1.183.203-1.779.136-.595.354-1.13.654-1.604.3-.474.682-.862 1.147-1.162.464-.3 1.03-.45 1.698-.45.659 0 1.222.15 1.692.45.47.3.852.688 1.147 1.162.295.474.513 1.009.653 1.604.14.596.21 1.188.21 1.779 0 .59-.07 1.183-.21 1.778a5.419 5.419 0 01-.653 1.612c-.295.48-.678.869-1.147 1.169-.47.3-1.033.45-1.692.45zm0-1.074c.465 0 .855-.114 1.17-.342.314-.227.568-.527.762-.9.193-.372.331-.794.413-1.263a8.269 8.269 0 000-2.86 4.259 4.259 0 00-.413-1.256 2.542 2.542 0 00-.763-.893c-.314-.228-.704-.341-1.169-.341-.464 0-.854.113-1.168.34a2.542 2.542 0 00-.763.894 4.259 4.259 0 00-.413 1.256 8.269 8.269 0 000 2.86c.082.47.22.89.413 1.263.194.373.448.673.763.9.314.228.704.342 1.168.342zm8.886 1.074c-.668 0-1.234-.15-1.698-.45-.465-.3-.847-.69-1.147-1.169a5.175 5.175 0 01-.654-1.612 7.991 7.991 0 01-.203-1.778c0-.59.068-1.183.203-1.779.136-.595.353-1.13.654-1.604.3-.474.682-.862 1.147-1.162.464-.3 1.03-.45 1.698-.45.659 0 1.222.15 1.692.45.47.3.852.688 1.147 1.162.295.474.513 1.009.653 1.604.14.596.21 1.188.21 1.779 0 .59-.07 1.183-.21 1.778a5.419 5.419 0 01-.653 1.612c-.295.48-.678.869-1.147 1.169-.47.3-1.033.45-1.692.45zm0-1.074c.465 0 .855-.114 1.17-.342.314-.227.568-.527.761-.9.194-.372.332-.794.414-1.263a8.269 8.269 0 000-2.86 4.259 4.259 0 00-.414-1.256 2.542 2.542 0 00-.762-.893c-.314-.228-.704-.341-1.169-.341-.464 0-.854.113-1.169.34a2.542 2.542 0 00-.762.894 4.259 4.259 0 00-.414 1.256 8.269 8.269 0 000 2.86c.083.47.22.89.414 1.263.194.373.448.673.762.9.315.228.705.342 1.17.342zM65.694 250.09v-.959c.871-.687 1.64-1.309 2.308-1.866a19.932 19.932 0 001.685-1.553c.455-.48.798-.93 1.03-1.35.233-.422.349-.84.349-1.256 0-.31-.058-.576-.174-.799a1.645 1.645 0 00-.458-.552 1.879 1.879 0 00-.646-.32 2.734 2.734 0 00-.74-.1c-.58 0-1.094.11-1.54.333a3.073 3.073 0 00-1.088.886l-.74-.77c.367-.493.849-.87 1.444-1.132a4.732 4.732 0 011.924-.392c.406 0 .803.058 1.19.174.388.116.734.29 1.039.523.304.232.551.527.74.885.189.359.283.78.283 1.264 0 .493-.118.98-.356 1.459-.237.479-.566.958-.987 1.437-.42.48-.917.968-1.488 1.467a47.158 47.158 0 01-1.873 1.546h4.748v1.074h-6.65zm12.196.174c-.668 0-1.234-.15-1.699-.45-.464-.3-.847-.69-1.147-1.17a5.175 5.175 0 01-.653-1.61 7.991 7.991 0 01-.203-1.78c0-.59.067-1.183.203-1.778.135-.595.353-1.13.653-1.605.3-.474.683-.861 1.147-1.161.465-.3 1.031-.45 1.7-.45.657 0 1.221.15 1.69.45.47.3.852.687 1.148 1.161.295.475.513 1.01.653 1.605s.21 1.188.21 1.778c0 .59-.07 1.184-.21 1.78a5.419 5.419 0 01-.653 1.61c-.296.48-.678.87-1.147 1.17-.47.3-1.034.45-1.692.45zm0-1.075c.465 0 .854-.114 1.169-.341.315-.227.569-.528.762-.9.194-.373.332-.794.414-1.263a8.269 8.269 0 000-2.86 4.259 4.259 0 00-.414-1.257 2.542 2.542 0 00-.762-.893c-.315-.227-.704-.34-1.169-.34-.464 0-.854.113-1.169.34a2.542 2.542 0 00-.762.893 4.259 4.259 0 00-.414 1.256 8.269 8.269 0 000 2.86c.083.47.22.891.414 1.264.194.372.448.673.762.9.315.227.705.341 1.17.341zm12.632 1.075c-.668 0-1.234-.15-1.699-.45-.464-.3-.847-.69-1.147-1.17a5.175 5.175 0 01-.653-1.61 7.991 7.991 0 01-.203-1.78c0-.59.067-1.183.203-1.778.135-.595.353-1.13.653-1.605.3-.474.683-.861 1.147-1.161.465-.3 1.031-.45 1.699-.45.658 0 1.222.15 1.692.45.469.3.851.687 1.147 1.161.295.475.513 1.01.653 1.605s.21 1.188.21 1.778c0 .59-.07 1.184-.21 1.78a5.419 5.419 0 01-.653 1.61c-.296.48-.678.87-1.147 1.17-.47.3-1.034.45-1.692.45zm0-1.075c.465 0 .854-.114 1.169-.341.314-.227.568-.528.762-.9.194-.373.332-.794.414-1.263a8.269 8.269 0 000-2.86 4.259 4.259 0 00-.414-1.257 2.542 2.542 0 00-.762-.893c-.315-.227-.704-.34-1.169-.34-.465 0-.854.113-1.169.34a2.542 2.542 0 00-.762.893 4.259 4.259 0 00-.414 1.256 8.269 8.269 0 000 2.86c.082.47.22.891.414 1.264.194.372.448.673.762.9.315.227.704.341 1.169.341zm8.886 1.075c-.668 0-1.234-.15-1.699-.45-.465-.3-.847-.69-1.147-1.17a5.175 5.175 0 01-.653-1.61 7.991 7.991 0 01-.204-1.78c0-.59.068-1.183.204-1.778.135-.595.353-1.13.653-1.605.3-.474.682-.861 1.147-1.161.465-.3 1.031-.45 1.699-.45.658 0 1.222.15 1.691.45.47.3.852.687 1.147 1.161.296.475.513 1.01.654 1.605.14.595.21 1.188.21 1.778 0 .59-.07 1.184-.21 1.78a5.419 5.419 0 01-.654 1.61c-.295.48-.677.87-1.147 1.17-.47.3-1.033.45-1.691.45zm0-1.075c.464 0 .854-.114 1.169-.341.314-.227.568-.528.762-.9.194-.373.331-.794.414-1.263a8.269 8.269 0 000-2.86 4.259 4.259 0 00-.414-1.257 2.542 2.542 0 00-.762-.893c-.315-.227-.705-.34-1.17-.34-.464 0-.853.113-1.168.34a2.542 2.542 0 00-.762.893 4.259 4.259 0 00-.414 1.256 8.269 8.269 0 000 2.86c.082.47.22.891.414 1.264.193.372.447.673.762.9.315.227.704.341 1.169.341zm8.886 1.075c-.668 0-1.234-.15-1.699-.45-.465-.3-.847-.69-1.147-1.17a5.175 5.175 0 01-.653-1.61 7.991 7.991 0 01-.204-1.78c0-.59.068-1.183.204-1.778.135-.595.353-1.13.653-1.605.3-.474.682-.861 1.147-1.161.465-.3 1.03-.45 1.699-.45.658 0 1.222.15 1.691.45.47.3.852.687 1.147 1.161.296.475.513 1.01.654 1.605.14.595.21 1.188.21 1.778 0 .59-.07 1.184-.21 1.78a5.419 5.419 0 01-.654 1.61c-.295.48-.677.87-1.147 1.17-.47.3-1.033.45-1.691.45zm0-1.075c.464 0 .854-.114 1.169-.341.314-.227.568-.528.762-.9.193-.373.331-.794.414-1.263a8.269 8.269 0 000-2.86 4.259 4.259 0 00-.414-1.257 2.542 2.542 0 00-.762-.893c-.315-.227-.705-.34-1.17-.34-.464 0-.853.113-1.168.34a2.542 2.542 0 00-.762.893 4.259 4.259 0 00-.414 1.256 8.269 8.269 0 000 2.86c.082.47.22.891.414 1.264.193.372.447.673.762.9.315.227.704.341 1.169.341zM71.44 288.918v-8.087l-1.554 1.64-.726-.74 2.425-2.497h1.06v9.684H71.44zm6.708.174c-.823 0-1.505-.138-2.048-.414a3.934 3.934 0 01-1.364-1.14l.74-.798c.32.407.695.721 1.125.944.431.222.947.334 1.547.334a2.5 2.5 0 00.907-.16 1.995 1.995 0 001.162-1.096c.111-.257.167-.53.167-.82 0-.32-.056-.608-.167-.864a1.995 1.995 0 00-.458-.661 1.95 1.95 0 00-.697-.421 2.66 2.66 0 00-.9-.145c-.435 0-.835.072-1.198.217a3.212 3.212 0 00-1.038.697l-.885-.304v-5.227h5.923v1.074h-4.718v3.368c.232-.232.544-.435.936-.61a3.238 3.238 0 011.329-.26c.406 0 .793.067 1.161.203a2.842 2.842 0 011.662 1.568c.17.387.255.827.255 1.32 0 .495-.087.94-.262 1.337a2.885 2.885 0 01-.726 1.009c-.31.276-.675.486-1.096.631a4.137 4.137 0 01-1.357.218zm12.385 0c-.668 0-1.234-.15-1.699-.45-.465-.3-.847-.69-1.147-1.169a5.175 5.175 0 01-.653-1.611 7.991 7.991 0 01-.204-1.779c0-.59.068-1.183.204-1.779.135-.595.353-1.13.653-1.604.3-.474.682-.861 1.147-1.162.465-.3 1.03-.45 1.699-.45.658 0 1.222.15 1.691.45.47.3.852.688 1.147 1.162.296.474.513 1.01.654 1.604.14.596.21 1.189.21 1.779 0 .59-.07 1.183-.21 1.779a5.419 5.419 0 01-.654 1.611c-.295.48-.677.869-1.147 1.17-.47.3-1.033.45-1.691.45zm0-1.074c.464 0 .854-.114 1.169-.341.314-.228.568-.528.762-.9.193-.373.331-.794.414-1.264a8.269 8.269 0 000-2.86 4.259 4.259 0 00-.414-1.256 2.542 2.542 0 00-.762-.893c-.315-.227-.705-.341-1.17-.341-.464 0-.853.114-1.168.341a2.542 2.542 0 00-.762.893 4.259 4.259 0 00-.414 1.256 8.269 8.269 0 000 2.86c.082.47.22.89.414 1.263.193.373.447.673.762.9.315.228.704.342 1.169.342zm8.886 1.074c-.668 0-1.235-.15-1.7-.45-.464-.3-.846-.69-1.146-1.169a5.175 5.175 0 01-.654-1.611 7.991 7.991 0 01-.203-1.779c0-.59.068-1.183.203-1.779.136-.595.354-1.13.654-1.604.3-.474.682-.861 1.147-1.162.464-.3 1.03-.45 1.699-.45.658 0 1.222.15 1.691.45.47.3.852.688 1.147 1.162.295.474.513 1.01.654 1.604.14.596.21 1.189.21 1.779 0 .59-.07 1.183-.21 1.779a5.419 5.419 0 01-.654 1.611c-.295.48-.677.869-1.147 1.17-.47.3-1.033.45-1.691.45zm0-1.074c.464 0 .854-.114 1.168-.341.315-.228.57-.528.763-.9.193-.373.331-.794.413-1.264a8.269 8.269 0 000-2.86 4.259 4.259 0 00-.413-1.256 2.542 2.542 0 00-.763-.893c-.314-.227-.704-.341-1.168-.341-.465 0-.855.114-1.17.341a2.542 2.542 0 00-.761.893 4.259 4.259 0 00-.414 1.256 8.269 8.269 0 000 2.86c.082.47.22.89.414 1.263.193.373.447.673.762.9.314.228.704.342 1.169.342zm8.885 1.074c-.667 0-1.234-.15-1.698-.45-.465-.3-.847-.69-1.147-1.169a5.175 5.175 0 01-.654-1.611 7.991 7.991 0 01-.203-1.779c0-.59.068-1.183.203-1.779.136-.595.354-1.13.654-1.604.3-.474.682-.861 1.147-1.162.464-.3 1.03-.45 1.698-.45.659 0 1.223.15 1.692.45.47.3.852.688 1.147 1.162.295.474.513 1.01.653 1.604.14.596.21 1.189.21 1.779 0 .59-.07 1.183-.21 1.779a5.419 5.419 0 01-.653 1.611c-.295.48-.678.869-1.147 1.17-.47.3-1.033.45-1.692.45zm0-1.074c.465 0 .855-.114 1.17-.341.314-.228.568-.528.762-.9.193-.373.331-.794.413-1.264a8.269 8.269 0 000-2.86 4.259 4.259 0 00-.413-1.256 2.542 2.542 0 00-.763-.893c-.314-.227-.704-.341-1.169-.341-.464 0-.854.114-1.168.341a2.542 2.542 0 00-.763.893 4.259 4.259 0 00-.413 1.256 8.269 8.269 0 000 2.86c.082.47.22.89.413 1.263.194.373.448.673.763.9.314.228.704.342 1.168.342zM71.44 326.494v-8.087l-1.554 1.64-.726-.74 2.425-2.497h1.06v9.684H71.44zm6.78.174c-.668 0-1.234-.15-1.698-.45-.465-.3-.847-.69-1.147-1.169a5.175 5.175 0 01-.654-1.611 7.991 7.991 0 01-.203-1.779c0-.59.068-1.183.203-1.779.136-.595.353-1.13.654-1.604.3-.474.682-.861 1.147-1.162.464-.3 1.03-.45 1.698-.45.659 0 1.222.15 1.692.45.47.3.852.688 1.147 1.162.295.474.513 1.01.653 1.604.14.596.21 1.189.21 1.78 0 .59-.07 1.182-.21 1.778a5.419 5.419 0 01-.653 1.611c-.295.48-.678.87-1.147 1.17-.47.3-1.033.45-1.692.45zm0-1.074c.465 0 .855-.114 1.17-.341.314-.228.568-.528.761-.9.194-.373.332-.794.414-1.264a8.269 8.269 0 000-2.86 4.259 4.259 0 00-.414-1.256 2.542 2.542 0 00-.762-.893c-.314-.227-.704-.341-1.169-.341-.464 0-.854.114-1.169.341a2.542 2.542 0 00-.762.893 4.259 4.259 0 00-.414 1.256 8.269 8.269 0 000 2.86c.083.47.22.89.414 1.263.194.373.448.673.762.9.315.228.705.342 1.17.342zm12.632 1.074c-.668 0-1.234-.15-1.699-.45-.464-.3-.847-.69-1.147-1.169a5.175 5.175 0 01-.653-1.611 7.991 7.991 0 01-.203-1.779c0-.59.067-1.183.203-1.779.136-.595.353-1.13.653-1.604.3-.474.683-.861 1.147-1.162.465-.3 1.031-.45 1.7-.45.657 0 1.221.15 1.69.45.47.3.852.688 1.148 1.162.295.474.513 1.01.653 1.604.14.596.21 1.189.21 1.78 0 .59-.07 1.182-.21 1.778a5.419 5.419 0 01-.653 1.611c-.296.48-.678.87-1.147 1.17-.47.3-1.034.45-1.692.45zm0-1.074c.465 0 .854-.114 1.169-.341.315-.228.569-.528.762-.9.194-.373.332-.794.414-1.264a8.269 8.269 0 000-2.86 4.259 4.259 0 00-.414-1.256 2.542 2.542 0 00-.762-.893c-.315-.227-.704-.341-1.169-.341-.464 0-.854.114-1.169.341a2.542 2.542 0 00-.762.893 4.259 4.259 0 00-.414 1.256 8.269 8.269 0 000 2.86c.083.47.22.89.414 1.263.194.373.448.673.762.9.315.228.705.342 1.17.342zm8.886 1.074c-.668 0-1.234-.15-1.699-.45-.464-.3-.847-.69-1.147-1.169a5.175 5.175 0 01-.653-1.611 7.991 7.991 0 01-.203-1.779c0-.59.067-1.183.203-1.779.135-.595.353-1.13.653-1.604.3-.474.683-.861 1.147-1.162.465-.3 1.031-.45 1.699-.45.658 0 1.222.15 1.692.45.469.3.851.688 1.147 1.162.295.474.513 1.01.653 1.604.14.596.21 1.189.21 1.78 0 .59-.07 1.182-.21 1.778a5.419 5.419 0 01-.653 1.611c-.296.48-.678.87-1.147 1.17-.47.3-1.034.45-1.692.45zm0-1.074c.465 0 .854-.114 1.169-.341.314-.228.569-.528.762-.9.194-.373.332-.794.414-1.264a8.269 8.269 0 000-2.86 4.259 4.259 0 00-.414-1.256 2.542 2.542 0 00-.762-.893c-.315-.227-.704-.341-1.169-.341-.465 0-.854.114-1.169.341a2.542 2.542 0 00-.762.893 4.259 4.259 0 00-.414 1.256 8.269 8.269 0 000 2.86c.082.47.22.89.414 1.263.194.373.448.673.762.9.315.228.704.342 1.169.342zm8.886 1.074c-.668 0-1.234-.15-1.699-.45-.464-.3-.847-.69-1.147-1.169a5.175 5.175 0 01-.653-1.611 7.991 7.991 0 01-.204-1.779c0-.59.068-1.183.204-1.779.135-.595.353-1.13.653-1.604.3-.474.683-.861 1.147-1.162.465-.3 1.031-.45 1.699-.45.658 0 1.222.15 1.691.45.47.3.852.688 1.147 1.162.296.474.513 1.01.654 1.604.14.596.21 1.189.21 1.78 0 .59-.07 1.182-.21 1.778a5.419 5.419 0 01-.654 1.611c-.295.48-.677.87-1.147 1.17-.47.3-1.033.45-1.691.45zm0-1.074c.465 0 .854-.114 1.169-.341.314-.228.568-.528.762-.9.194-.373.331-.794.414-1.264a8.269 8.269 0 000-2.86 4.259 4.259 0 00-.414-1.256 2.542 2.542 0 00-.762-.893c-.315-.227-.704-.341-1.17-.341-.464 0-.853.114-1.168.341a2.542 2.542 0 00-.762.893 4.259 4.259 0 00-.414 1.256 8.269 8.269 0 000 2.86c.082.47.22.89.414 1.263.193.373.447.673.762.9.315.228.704.342 1.169.342zM78.486 365.497c-.822 0-1.505-.138-2.047-.414a3.934 3.934 0 01-1.365-1.14l.74-.798c.32.406.695.72 1.126.943.43.223.946.334 1.546.334a2.5 2.5 0 00.908-.16c.276-.106.51-.251.704-.435a2.038 2.038 0 00.624-1.481c0-.32-.055-.607-.167-.864a1.995 1.995 0 00-.457-.66 1.95 1.95 0 00-.697-.421 2.66 2.66 0 00-.9-.146c-.436 0-.835.073-1.198.218a3.212 3.212 0 00-1.038.697l-.886-.305v-5.227h5.924v1.075h-4.719v3.368c.233-.232.545-.435.937-.61a3.238 3.238 0 011.328-.261c.407 0 .794.068 1.162.203a2.842 2.842 0 011.662 1.568c.17.387.254.828.254 1.322 0 .493-.087.938-.261 1.335a2.885 2.885 0 01-.726 1.01c-.31.275-.675.486-1.096.631a4.137 4.137 0 01-1.358.218zm12.385 0c-.668 0-1.234-.15-1.698-.45-.465-.3-.847-.69-1.147-1.17a5.175 5.175 0 01-.654-1.61 7.991 7.991 0 01-.203-1.78c0-.59.068-1.183.203-1.778.136-.595.353-1.13.654-1.604.3-.475.682-.862 1.147-1.162.464-.3 1.03-.45 1.698-.45.659 0 1.222.15 1.692.45.47.3.852.687 1.147 1.162.295.474.513 1.009.653 1.604.14.595.21 1.188.21 1.779 0 .59-.07 1.183-.21 1.778a5.419 5.419 0 01-.653 1.612c-.295.479-.678.869-1.147 1.169-.47.3-1.033.45-1.692.45zm0-1.075c.465 0 .855-.113 1.17-.34.314-.228.568-.528.761-.901.194-.373.332-.794.414-1.263a8.269 8.269 0 000-2.86 4.259 4.259 0 00-.414-1.256 2.542 2.542 0 00-.762-.893c-.314-.228-.704-.342-1.169-.342-.464 0-.854.114-1.168.342a2.542 2.542 0 00-.763.893 4.259 4.259 0 00-.414 1.255 8.269 8.269 0 000 2.86c.083.47.22.891.414 1.264.194.373.448.673.763.9.314.228.704.341 1.168.341zm8.886 1.075c-.668 0-1.234-.15-1.699-.45-.464-.3-.847-.69-1.147-1.17a5.175 5.175 0 01-.653-1.61 7.991 7.991 0 01-.203-1.78c0-.59.067-1.183.203-1.778s.353-1.13.653-1.604c.3-.475.683-.862 1.147-1.162.465-.3 1.031-.45 1.7-.45.657 0 1.221.15 1.69.45.47.3.852.687 1.148 1.162.295.474.513 1.009.653 1.604.14.595.21 1.188.21 1.779 0 .59-.07 1.183-.21 1.778a5.419 5.419 0 01-.653 1.612c-.296.479-.678.869-1.147 1.169-.47.3-1.034.45-1.692.45zm0-1.075c.465 0 .854-.113 1.169-.34.315-.228.569-.528.762-.901.194-.373.332-.794.414-1.263a8.269 8.269 0 000-2.86 4.259 4.259 0 00-.414-1.256 2.542 2.542 0 00-.762-.893c-.315-.228-.704-.342-1.169-.342-.464 0-.854.114-1.169.342a2.542 2.542 0 00-.762.893 4.259 4.259 0 00-.414 1.255 8.269 8.269 0 000 2.86c.083.47.22.891.414 1.264.194.373.448.673.762.9.315.228.705.341 1.17.341zm8.886 1.075c-.668 0-1.234-.15-1.699-.45-.464-.3-.847-.69-1.147-1.17a5.175 5.175 0 01-.653-1.61 7.991 7.991 0 01-.203-1.78c0-.59.067-1.183.203-1.778.135-.595.353-1.13.653-1.604.3-.475.683-.862 1.147-1.162.465-.3 1.031-.45 1.699-.45.658 0 1.222.15 1.692.45.469.3.851.687 1.147 1.162.295.474.513 1.009.653 1.604.14.595.21 1.188.21 1.779 0 .59-.07 1.183-.21 1.778a5.419 5.419 0 01-.653 1.612c-.296.479-.678.869-1.147 1.169-.47.3-1.034.45-1.692.45zm0-1.075c.465 0 .854-.113 1.169-.34.314-.228.569-.528.762-.901.194-.373.332-.794.414-1.263a8.269 8.269 0 000-2.86 4.259 4.259 0 00-.414-1.256 2.542 2.542 0 00-.762-.893c-.315-.228-.704-.342-1.169-.342-.465 0-.854.114-1.169.342a2.542 2.542 0 00-.762.893 4.259 4.259 0 00-.414 1.255 8.269 8.269 0 000 2.86c.082.47.22.891.414 1.264.194.373.448.673.762.9.315.228.704.341 1.169.341zM108.808 402.634c-.668 0-1.235-.15-1.7-.45-.464-.3-.846-.69-1.146-1.168a5.175 5.175 0 01-.654-1.612 7.991 7.991 0 01-.203-1.779c0-.59.068-1.183.203-1.778.136-.596.354-1.13.654-1.605.3-.474.682-.861 1.147-1.161.464-.3 1.03-.45 1.699-.45.658 0 1.222.15 1.691.45.47.3.852.687 1.147 1.161.295.475.513 1.01.654 1.605.14.595.21 1.188.21 1.778 0 .59-.07 1.184-.21 1.779a5.419 5.419 0 01-.654 1.612c-.295.479-.677.868-1.147 1.168-.47.3-1.033.45-1.691.45zm0-1.074c.464 0 .854-.114 1.168-.341.315-.228.57-.528.763-.9.193-.373.331-.794.413-1.264a8.269 8.269 0 000-2.86 4.259 4.259 0 00-.413-1.256 2.542 2.542 0 00-.763-.893c-.314-.227-.704-.341-1.168-.341-.465 0-.855.114-1.17.341a2.542 2.542 0 00-.761.893 4.259 4.259 0 00-.414 1.256 8.269 8.269 0 000 2.86c.082.47.22.891.414 1.264.193.372.447.672.762.9.314.227.704.341 1.169.341z"/></g><g fill="#000" fill-rule="nonzero"><path d="M130.598 423.913l2.13-3.22a2.42 2.42 0 01-.775-.2 2.162 2.162 0 01-.657-.45 2.122 2.122 0 01-.455-.699 2.456 2.456 0 01-.172-.946c0-.363.061-.69.183-.983a2.182 2.182 0 011.302-1.23c.304-.111.638-.167 1-.167h3.173v7.895h-.983v-3.136h-1.586l-2.012 3.136h-1.148zm4.746-4v-3.019h-2.083c-.465 0-.844.138-1.136.415-.292.276-.438.639-.438 1.089 0 .45.146.814.438 1.094.292.28.67.42 1.136.42h2.083zm2.782 4v-5.717h.888v2.38h2.982v-2.38h.888v5.717h-.888v-2.556h-2.982v2.556h-.888zm10.375-2.945c.14.04.272.102.396.187.126.087.237.194.332.32.094.126.17.264.224.414.056.15.083.308.083.474 0 .465-.146.84-.438 1.124-.292.284-.702.426-1.23.426h-3.208v-5.717h3.148c.505 0 .9.136 1.184.409.284.272.426.625.426 1.06 0 .346-.093.63-.278.851-.186.221-.4.371-.645.45l.006.002zm-.811 2.164c.284 0 .509-.077.674-.23.166-.155.249-.37.249-.646a.913.913 0 00-.237-.615c-.158-.182-.386-.272-.686-.272h-2.143v1.763h2.143zm-.036-2.545c.276 0 .488-.075.634-.225a.781.781 0 00.218-.568c0-.252-.073-.451-.218-.597-.146-.146-.358-.22-.634-.22h-2.107v1.61h2.107zm7.138 3.326v-.65c-.482.528-1.113.792-1.894.792a2.27 2.27 0 01-.722-.118 1.882 1.882 0 01-1.1-.959 1.803 1.803 0 01-.179-.816c0-.316.06-.592.178-.829a1.815 1.815 0 011.1-.941c.238-.075.478-.112.723-.112.394 0 .751.063 1.071.189.32.126.594.323.823.592v-1.03c0-.387-.136-.685-.409-.894-.272-.209-.617-.313-1.035-.313-.671 0-1.255.264-1.752.793l-.414-.616c.607-.631 1.369-.947 2.284-.947.3 0 .584.036.852.107.268.07.503.183.704.337.202.154.361.353.48.598.118.245.177.54.177.888v3.93h-.887zm-1.575-.497c.316 0 .614-.059.894-.177.28-.119.507-.296.68-.533v-1.077a1.597 1.597 0 00-.68-.533 2.272 2.272 0 00-.894-.177c-.418 0-.757.116-1.018.349-.26.233-.39.535-.39.905 0 .363.13.661.39.894.26.233.6.35 1.018.35zm7.055.64a2.31 2.31 0 01-1.089-.261 2.368 2.368 0 01-.84-.746v3.042h-.888v-7.895h.888v.853c.205-.292.477-.531.816-.717.34-.185.71-.278 1.113-.278.379 0 .724.07 1.036.207.311.139.58.336.804.592.225.257.399.57.521.941.123.371.184.79.184 1.255 0 .466-.061.884-.184 1.255-.122.37-.296.686-.52.947-.225.26-.494.46-.805.597a2.529 2.529 0 01-1.036.207zm-.225-.794c.284 0 .54-.055.77-.165.228-.11.422-.265.58-.462.157-.197.278-.432.36-.704.083-.272.125-.566.125-.882 0-.316-.042-.608-.125-.876a2.094 2.094 0 00-.36-.698 1.654 1.654 0 00-.58-.462 1.747 1.747 0 00-.77-.166c-.355 0-.688.09-1 .267a1.935 1.935 0 00-.704.645v2.58c.157.253.392.47.704.651.312.182.645.272 1 .272zm5.066-5.066v2.214h2.142c.292 0 .55.047.776.142.225.095.414.223.568.384.154.162.268.348.343.557.075.209.113.432.113.669 0 .236-.04.461-.119.674a1.609 1.609 0 01-.343.557c-.15.157-.337.284-.562.378a1.983 1.983 0 01-.776.142h-3.03v-5.717h.888zm0 2.995v1.941h2.048c.323 0 .568-.09.734-.272.165-.182.248-.414.248-.698 0-.277-.08-.507-.242-.693-.162-.185-.409-.278-.74-.278h-2.048zM188.236 423.913v-.769a5.586 5.586 0 01-1.533-.308 3.614 3.614 0 01-1.154-.663 2.859 2.859 0 01-.728-.97 2.924 2.924 0 01-.254-1.231c0-.442.085-.848.254-1.22a2.8 2.8 0 01.728-.964c.316-.272.7-.493 1.154-.663.454-.17.965-.274 1.533-.314v-.793h.983v.793c.568.04 1.079.145 1.532.314.454.17.84.39 1.16.663.32.272.565.594.734.965.17.37.255.777.255 1.219 0 .45-.085.86-.255 1.23-.17.372-.414.695-.734.971-.32.277-.706.498-1.16.663a5.586 5.586 0 01-1.532.308v.77h-.983zm3.646-3.941c0-.631-.235-1.152-.704-1.563-.47-.41-1.123-.65-1.96-.722v4.57c.837-.072 1.49-.312 1.96-.723.47-.41.704-.93.704-1.562zm-6.297 0c0 .631.23 1.152.692 1.562.462.41 1.115.651 1.96.722v-4.569c-.845.071-1.498.312-1.96.722-.461.41-.692.932-.692 1.563zm11.386 4.083c-.426 0-.816-.073-1.171-.219a2.683 2.683 0 01-.918-.615 2.861 2.861 0 01-.603-.947 3.288 3.288 0 01-.22-1.225c0-.41.072-.799.214-1.166.142-.367.337-.684.586-.953.248-.268.544-.481.887-.639.344-.158.72-.237 1.13-.237.435 0 .821.08 1.16.237.34.158.628.375.865.651s.416.602.538.977c.123.374.184.775.184 1.201v.225h-4.628c.016.268.075.523.177.763a1.969 1.969 0 001.054 1.054c.244.106.52.16.828.16a2.503 2.503 0 001.764-.722l.426.58a2.9 2.9 0 01-.994.65c-.379.15-.805.225-1.279.225zm1.776-3.361c0-.213-.038-.432-.112-.657a1.895 1.895 0 00-.344-.616 1.787 1.787 0 00-.586-.455 1.859 1.859 0 00-.84-.178c-.308 0-.576.06-.805.178-.229.118-.42.268-.574.45a2.15 2.15 0 00-.491 1.278h3.752zm6.15.274c.14.04.271.102.396.187.126.087.236.194.33.32.096.126.17.264.226.414.055.15.083.308.083.474 0 .465-.146.84-.438 1.124-.292.284-.703.426-1.231.426h-3.208v-5.717h3.149c.505 0 .9.136 1.183.409.284.272.426.625.426 1.06 0 .346-.092.63-.278.851-.185.221-.4.371-.645.45l.007.002zm-.812 2.164c.284 0 .51-.077.675-.23.166-.155.248-.37.248-.646a.913.913 0 00-.236-.615c-.158-.182-.387-.272-.687-.272h-2.142v1.763h2.142zm-.035-2.545c.276 0 .487-.075.633-.225a.781.781 0 00.219-.568c0-.252-.073-.451-.22-.597-.145-.146-.356-.22-.632-.22h-2.107v1.61h2.107zm6.38 3.468a2.31 2.31 0 01-1.09-.26 2.368 2.368 0 01-.84-.746v3.042h-.888v-7.895h.888v.853c.205-.292.478-.531.817-.717.34-.185.71-.278 1.113-.278.378 0 .724.07 1.035.207.312.139.58.336.805.592.225.257.399.57.52.941.123.371.184.79.184 1.255 0 .466-.06.884-.183 1.255-.122.37-.296.686-.52.947-.226.26-.494.46-.806.597a2.529 2.529 0 01-1.035.207zm-.225-.793c.284 0 .54-.055.769-.165.229-.11.422-.265.58-.462.158-.197.278-.432.361-.704.083-.272.124-.566.124-.882 0-.316-.041-.608-.124-.876a2.094 2.094 0 00-.361-.698 1.654 1.654 0 00-.58-.462 1.747 1.747 0 00-.77-.166c-.354 0-.688.09-1 .267a1.935 1.935 0 00-.704.645v2.58c.158.253.393.47.704.651.312.182.646.272 1 .272zm7.753.651v-.65c-.482.528-1.113.792-1.894.792a2.27 2.27 0 01-.722-.118 1.882 1.882 0 01-1.1-.959 1.803 1.803 0 01-.179-.816c0-.316.06-.592.178-.829a1.815 1.815 0 011.1-.941c.237-.075.478-.112.723-.112.394 0 .751.063 1.07.189.32.126.595.323.824.592v-1.03c0-.387-.137-.685-.409-.894-.272-.209-.617-.313-1.036-.313-.67 0-1.254.264-1.751.793l-.415-.616c.608-.631 1.37-.947 2.285-.947.3 0 .584.036.852.107.268.07.503.183.704.337.202.154.361.353.48.598.118.245.177.54.177.888v3.93h-.887zm-1.575-.497c.316 0 .614-.059.894-.177.28-.119.507-.296.68-.533v-1.077a1.597 1.597 0 00-.68-.533 2.272 2.272 0 00-.894-.177c-.418 0-.757.116-1.018.349-.26.233-.39.535-.39.905 0 .363.13.661.39.894.26.233.6.35 1.018.35zm3.563-.094c.268 0 .49-.174.663-.521.173-.347.316-.943.426-1.788l.367-2.817h3.977v5.717h-.888v-4.935h-2.308l-.26 2.142c-.063.537-.15.99-.26 1.361-.111.371-.247.673-.409.906a1.504 1.504 0 01-.568.509c-.217.106-.464.16-.74.16v-.734zm8.096-5.126v2.214h2.143c.292 0 .55.047.775.142.225.095.414.223.568.384.154.162.268.348.343.557.075.209.113.432.113.669 0 .236-.04.461-.119.674a1.609 1.609 0 01-.343.557c-.15.157-.337.284-.562.378a1.983 1.983 0 01-.775.142h-3.03v-5.717h.887zm0 2.995v1.941h2.048c.323 0 .568-.09.734-.272.165-.182.248-.414.248-.698 0-.277-.08-.507-.242-.693-.162-.185-.409-.278-.74-.278h-2.048zM250.816 423.913v-6.498l-2.687 6.498h-.403l-2.675-6.498v6.498h-.982v-7.895h1.408l2.45 5.942 2.462-5.942h1.409v7.895h-.982zm6.368 0v-.65c-.482.528-1.113.792-1.894.792a2.27 2.27 0 01-.722-.118 1.882 1.882 0 01-1.1-.959 1.803 1.803 0 01-.179-.816c0-.316.06-.592.178-.829a1.815 1.815 0 011.1-.941c.237-.075.478-.112.723-.112.394 0 .751.063 1.07.189.32.126.595.323.824.592v-1.03c0-.387-.137-.685-.409-.894-.272-.209-.617-.313-1.036-.313-.67 0-1.254.264-1.751.793l-.415-.616c.608-.631 1.37-.947 2.285-.947.3 0 .584.036.852.107.268.07.503.183.704.337.202.154.361.353.48.598.118.245.177.54.177.888v3.93h-.887zm-1.575-.497c.316 0 .614-.059.894-.177.28-.119.507-.296.68-.533v-1.077a1.597 1.597 0 00-.68-.533 2.272 2.272 0 00-.894-.177c-.418 0-.757.116-1.018.349-.26.233-.39.535-.39.905 0 .363.13.661.39.894.26.233.6.35 1.018.35zm7.055.64a2.31 2.31 0 01-1.09-.261 2.368 2.368 0 01-.84-.746v3.042h-.887v-7.895h.887v.853c.206-.292.478-.531.817-.717.34-.185.71-.278 1.113-.278.379 0 .724.07 1.035.207.312.139.58.336.805.592.225.257.399.57.521.941s.184.79.184 1.255c0 .466-.062.884-.184 1.255-.122.37-.296.686-.52.947-.226.26-.494.46-.806.597a2.529 2.529 0 01-1.035.207zm-.225-.794c.284 0 .54-.055.77-.165.228-.11.421-.265.58-.462.157-.197.277-.432.36-.704.083-.272.125-.566.125-.882 0-.316-.042-.608-.125-.876a2.094 2.094 0 00-.36-.698 1.654 1.654 0 00-.58-.462 1.747 1.747 0 00-.77-.166c-.355 0-.689.09-1 .267a1.935 1.935 0 00-.705.645v2.58c.158.253.393.47.705.651.311.182.645.272 1 .272zm5.22.651v-4.935h-1.657v-.782h4.213v.782h-1.668v4.935h-.888zM298.364 423.913l-.698-1.751h-3.93l-.699 1.751h-1.124l3.172-7.895h1.22l3.183 7.895h-1.124zm-2.663-6.877l-1.681 4.25h3.35l-1.67-4.25zm8.652 6.877v-4.935h-2.983v4.935h-.887v-5.717h4.758v5.717h-.888zm5.48.142a2.31 2.31 0 01-1.089-.26 2.368 2.368 0 01-.84-.746v3.042h-.888v-7.895h.888v.853c.205-.292.477-.531.817-.717.34-.185.71-.278 1.112-.278.38 0 .724.07 1.036.207.312.139.58.336.805.592.225.257.398.57.52.941.123.371.184.79.184 1.255 0 .466-.06.884-.183 1.255-.123.37-.296.686-.521.947-.225.26-.493.46-.805.597a2.529 2.529 0 01-1.036.207zm-.225-.793c.285 0 .541-.055.77-.165.229-.11.422-.265.58-.462.158-.197.278-.432.36-.704.084-.272.125-.566.125-.882 0-.316-.041-.608-.124-.876a2.094 2.094 0 00-.361-.698 1.654 1.654 0 00-.58-.462 1.747 1.747 0 00-.77-.166c-.355 0-.688.09-1 .267a1.935 1.935 0 00-.704.645v2.58c.158.253.393.47.704.651.312.182.645.272 1 .272zm6.76.793c-.427 0-.818-.073-1.173-.219a2.683 2.683 0 01-.917-.615 2.861 2.861 0 01-.604-.947 3.288 3.288 0 01-.219-1.225c0-.41.071-.799.213-1.166.142-.367.338-.684.586-.953.249-.268.545-.481.888-.639.343-.158.72-.237 1.13-.237.434 0 .821.08 1.16.237.34.158.628.375.864.651.237.276.417.602.539.977.122.374.183.775.183 1.201v.225h-4.628c.016.268.075.523.178.763a1.969 1.969 0 001.053 1.054c.245.106.521.16.829.16a2.503 2.503 0 001.764-.722l.426.58a2.9 2.9 0 01-.995.65c-.378.15-.804.225-1.278.225zm1.775-3.361c0-.213-.038-.432-.113-.657a1.895 1.895 0 00-.343-.616 1.787 1.787 0 00-.586-.455 1.859 1.859 0 00-.84-.178c-.308 0-.576.06-.805.178-.23.118-.42.268-.574.45a2.15 2.15 0 00-.491 1.278h3.752zm1.633 2.628c.268 0 .49-.174.663-.521.173-.347.315-.943.426-1.788l.367-2.817h3.977v5.717h-.888v-4.935h-2.308l-.26 2.142c-.063.537-.15.99-.26 1.361-.111.371-.247.673-.41.906a1.504 1.504 0 01-.567.509c-.217.106-.464.16-.74.16v-.734zm8.096-5.126v2.214h2.143c.291 0 .55.047.775.142.225.095.414.223.568.384.154.162.268.348.343.557.075.209.113.432.113.669 0 .236-.04.461-.119.674a1.609 1.609 0 01-.343.557c-.15.157-.337.284-.562.378a1.983 1.983 0 01-.775.142h-3.03v-5.717h.887zm0 2.995v1.941h2.048c.323 0 .568-.09.734-.272.165-.182.248-.414.248-.698 0-.277-.08-.507-.242-.693-.162-.185-.409-.278-.74-.278h-2.048zM358.659 423.913v-6.498l-2.687 6.498h-.403l-2.675-6.498v6.498h-.982v-7.895h1.408l2.45 5.942 2.463-5.942h1.408v7.895h-.982zm6.368 0v-.65c-.482.528-1.113.792-1.894.792a2.27 2.27 0 01-.722-.118 1.882 1.882 0 01-1.1-.959 1.803 1.803 0 01-.178-.816c0-.316.059-.592.177-.829a1.815 1.815 0 011.1-.941c.238-.075.478-.112.723-.112.394 0 .752.063 1.071.189.32.126.594.323.823.592v-1.03c0-.387-.136-.685-.409-.894-.272-.209-.617-.313-1.035-.313-.671 0-1.255.264-1.752.793l-.414-.616c.607-.631 1.369-.947 2.284-.947.3 0 .584.036.852.107.269.07.503.183.705.337.2.154.36.353.479.598.118.245.177.54.177.888v3.93h-.887zm-1.574-.497c.315 0 .613-.059.893-.177.28-.119.507-.296.68-.533v-1.077a1.597 1.597 0 00-.68-.533 2.272 2.272 0 00-.893-.177c-.419 0-.758.116-1.018.349-.26.233-.391.535-.391.905 0 .363.13.661.39.894.261.233.6.35 1.019.35zm4.237.497v-5.717h.888v4.368l2.994-4.368h.876v5.717h-.888v-4.45l-3.018 4.45h-.852zm4.45-7.41a2.531 2.531 0 01-2.07 1.042c-.427 0-.82-.092-1.179-.278a2.641 2.641 0 01-.905-.763l.438-.379c.19.26.422.468.698.621.276.154.592.231.947.231.347 0 .66-.075.941-.225.28-.15.511-.359.693-.627l.437.379zM399.258 423.913v-7.895h.982v6.167l4.545-6.167h1.006v7.895h-.982v-6.297l-4.604 6.297h-.947zm13.138.142c-.402 0-.77-.069-1.1-.207a2.648 2.648 0 01-.865-.574 2.746 2.746 0 01-.58-.858 3.34 3.34 0 01-.26-1.06h-1.1v2.557h-.889v-5.717h.888v2.38h1.113c.047-.356.146-.687.296-.995a2.7 2.7 0 01.586-.799 2.722 2.722 0 011.911-.728c.434 0 .827.08 1.178.237.351.158.651.37.9.64.248.268.437.585.568.952.13.367.195.756.195 1.166 0 .418-.065.809-.195 1.172a2.702 2.702 0 01-1.468 1.598 2.842 2.842 0 01-1.178.236zm0-.793a1.754 1.754 0 001.415-.668 2.1 2.1 0 00.367-.705c.082-.268.124-.548.124-.84 0-.292-.042-.57-.124-.835a2.109 2.109 0 00-.367-.698 1.754 1.754 0 00-1.414-.669c-.3 0-.569.062-.806.184a1.841 1.841 0 00-.597.485 2.109 2.109 0 00-.367.698 2.774 2.774 0 00-.125.835c0 .292.042.572.125.84a2.1 2.1 0 00.367.705c.161.2.36.363.597.485s.505.183.805.183zm4.285.651v-5.717h.888v2.38h2.983v-2.38h.887v5.717h-.887v-2.556h-2.983v2.556h-.888zm7.421-5.717v2.214h2.143c.292 0 .55.047.775.142.225.095.414.223.568.384.154.162.269.348.344.557.075.209.112.432.112.669 0 .236-.04.461-.118.674a1.609 1.609 0 01-.344.557c-.15.157-.337.284-.562.378a1.983 1.983 0 01-.775.142h-3.03v-5.717h.887zm0 2.995v1.941h2.048c.324 0 .568-.09.734-.272.166-.182.249-.414.249-.698 0-.277-.081-.507-.243-.693-.162-.185-.408-.278-.74-.278h-2.048zM458.44 423.913v-7.895h.982v6.167l4.546-6.167h1.006v7.895h-.983v-6.297l-4.604 6.297h-.947zm13.138.142c-.402 0-.769-.069-1.1-.207a2.648 2.648 0 01-.864-.574 2.746 2.746 0 01-.58-.858 3.34 3.34 0 01-.26-1.06h-1.102v2.557h-.887v-5.717h.887v2.38h1.113c.047-.356.146-.687.296-.995a2.7 2.7 0 01.586-.799 2.722 2.722 0 011.911-.728c.434 0 .827.08 1.178.237.351.158.651.37.9.64.248.268.438.585.568.952.13.367.195.756.195 1.166 0 .418-.065.809-.195 1.172a2.702 2.702 0 01-1.468 1.598 2.842 2.842 0 01-1.178.236zm0-.793a1.754 1.754 0 001.415-.668 2.1 2.1 0 00.367-.705c.083-.268.124-.548.124-.84 0-.292-.041-.57-.124-.835a2.109 2.109 0 00-.367-.698 1.754 1.754 0 00-1.414-.669c-.3 0-.569.062-.805.184a1.841 1.841 0 00-.598.485 2.109 2.109 0 00-.367.698 2.774 2.774 0 00-.124.835c0 .292.041.572.124.84a2.1 2.1 0 00.367.705c.162.2.36.363.598.485.236.122.505.183.804.183zm3.61.06c.269 0 .49-.174.663-.521.174-.347.316-.943.427-1.788l.366-2.817h3.978v5.717h-.888v-4.935h-2.308l-.26 2.142c-.064.537-.15.99-.261 1.361-.11.371-.247.673-.408.906a1.504 1.504 0 01-.569.509c-.217.106-.463.16-.74.16v-.734zm8.097-5.126v2.214h2.142c.292 0 .55.047.775.142.225.095.415.223.569.384.153.162.268.348.343.557.075.209.112.432.112.669 0 .236-.04.461-.118.674a1.609 1.609 0 01-.343.557c-.15.157-.338.284-.563.378a1.983 1.983 0 01-.775.142h-3.03v-5.717h.888zm0 2.995v1.941h2.047c.324 0 .569-.09.734-.272.166-.182.249-.414.249-.698 0-.277-.081-.507-.243-.693-.162-.185-.408-.278-.74-.278h-2.047zM515.365 423.913l-.698-1.751h-3.93l-.698 1.751h-1.124l3.172-7.895h1.219l3.184 7.895h-1.125zm-2.663-6.877l-1.68 4.25h3.35l-1.67-4.25zm8.624 3.932c.14.04.271.102.396.187.126.087.236.194.331.32.095.126.17.264.225.414.055.15.083.308.083.474 0 .465-.146.84-.438 1.124-.292.284-.702.426-1.231.426h-3.208v-5.717h3.149c.505 0 .9.136 1.183.409.284.272.426.625.426 1.06 0 .346-.092.63-.278.851-.185.221-.4.371-.645.45l.007.002zm-.812 2.164c.284 0 .51-.077.675-.23.166-.155.249-.37.249-.646a.913.913 0 00-.237-.615c-.158-.182-.387-.272-.687-.272h-2.142v1.763h2.142zm-.035-2.545c.276 0 .487-.075.633-.225a.781.781 0 00.219-.568c0-.252-.073-.451-.219-.597-.146-.146-.357-.22-.633-.22h-2.107v1.61h2.107zm7.563-1.61h-3.113v4.936h-.887v-5.717h4v.782zm.983 6.369a.841.841 0 00.236.07c.095.016.178.024.249.024a.93.93 0 00.497-.124c.134-.083.253-.243.355-.48l.379-.863-2.39-5.777h.958l1.905 4.688 1.894-4.688h.97l-2.864 6.877c-.173.419-.402.714-.686.888a1.949 1.949 0 01-.994.272c-.095 0-.205-.008-.332-.023a2.342 2.342 0 01-.32-.06l.143-.804zm8.498-1.29c-.426 0-.814-.078-1.166-.231a2.672 2.672 0 01-.9-.634 2.874 2.874 0 01-.58-.952 3.35 3.35 0 01-.206-1.19c0-.426.069-.82.207-1.184.138-.363.331-.678.58-.947.248-.268.548-.479.9-.633.35-.154.74-.23 1.165-.23.521 0 .945.094 1.273.283.327.19.601.427.822.71l-.591.545c-.19-.26-.405-.45-.646-.568a1.813 1.813 0 00-.81-.178c-.308 0-.582.056-.823.166-.24.11-.448.264-.621.462-.174.197-.306.43-.397.698-.09.268-.136.56-.136.876 0 .316.045.61.136.882.09.272.223.507.397.704.173.197.38.351.621.462.24.11.515.165.823.165.6 0 1.085-.248 1.456-.745l.591.544c-.22.284-.495.52-.822.71-.328.19-.752.284-1.273.284zm4.38-.143v-4.935h-1.657v-.782h4.213v.782h-1.668v4.935h-.888zM558.187 424.055a4.247 4.247 0 01-1.592-.296 3.888 3.888 0 01-1.29-.834 3.863 3.863 0 01-.864-1.29 4.277 4.277 0 01-.314-1.663c0-.608.105-1.162.314-1.663.209-.501.497-.931.864-1.29a3.888 3.888 0 011.29-.835 4.247 4.247 0 011.592-.296c.347 0 .669.04.965.119.296.079.568.189.817.331.248.142.473.308.674.497.201.19.38.395.539.616l-.829.461a2.727 2.727 0 00-.917-.822 2.489 2.489 0 00-1.249-.326c-.434 0-.836.08-1.207.237-.371.158-.693.379-.965.663a3.071 3.071 0 00-.639 1.012c-.154.39-.23.822-.23 1.296 0 .465.076.895.23 1.29.154.395.367.734.64 1.018.271.284.593.505.964.663.37.158.773.237 1.207.237.45 0 .866-.107 1.249-.32.383-.213.688-.49.917-.829l.84.462a4.26 4.26 0 01-1.224 1.119c-.486.295-1.08.443-1.782.443zm6.806 0c-.426 0-.817-.073-1.172-.219a2.683 2.683 0 01-.917-.615 2.861 2.861 0 01-.604-.947 3.288 3.288 0 01-.219-1.225c0-.41.071-.799.213-1.166.142-.367.338-.684.586-.953.249-.268.545-.481.888-.639.343-.158.72-.237 1.13-.237.434 0 .821.08 1.16.237.34.158.628.375.864.651.237.276.417.602.539.977.122.374.183.775.183 1.201v.225h-4.628c.016.268.075.523.178.763a1.969 1.969 0 001.053 1.054c.245.106.521.16.829.16a2.503 2.503 0 001.764-.722l.426.58a2.9 2.9 0 01-.995.65c-.378.15-.804.225-1.278.225zm1.776-3.361c0-.213-.038-.432-.113-.657a1.895 1.895 0 00-.343-.616 1.787 1.787 0 00-.586-.455 1.859 1.859 0 00-.84-.178c-.308 0-.576.06-.805.178-.23.118-.42.268-.574.45a2.15 2.15 0 00-.491 1.278h3.752zm2.308 3.22v-5.718h.887v2.38h2.983v-2.38h.888v5.717h-.888v-2.556h-2.983v2.556h-.887zm7.575 0v-4.936h-1.657v-.782h4.214v.782h-1.67v4.935h-.887zm3.527 0l1.527-2.25a1.665 1.665 0 01-1.053-.538c-.276-.304-.415-.696-.415-1.178 0-.244.04-.473.119-.686a1.566 1.566 0 01.917-.93 2.06 2.06 0 01.775-.136h3.019v5.717h-.888V421.7h-1.562l-1.397 2.213h-1.042zm4.001-2.995v-1.941h-2.036c-.316 0-.56.09-.734.272a.969.969 0 00-.26.698c0 .284.083.517.248.699.166.181.415.272.746.272h2.036zm5.16 2.343c.308 0 .579-.06.811-.183.233-.122.43-.284.592-.485a2.1 2.1 0 00.367-.705 2.872 2.872 0 000-1.675 2.109 2.109 0 00-.367-.698 1.861 1.861 0 00-.592-.485 1.718 1.718 0 00-.81-.184 1.754 1.754 0 00-1.415.67 2.109 2.109 0 00-.367.697 2.872 2.872 0 000 1.675 2.1 2.1 0 00.367.705 1.754 1.754 0 001.414.669zm0 .793c-.441 0-.836-.08-1.183-.242a2.548 2.548 0 01-.888-.68 3.084 3.084 0 01-.562-1.037 4.19 4.19 0 01-.195-1.307c0-.695.063-1.293.19-1.794.125-.5.313-.917.561-1.248.249-.332.56-.59.935-.776.375-.185.811-.31 1.308-.373.316-.047.576-.092.782-.136a3.3 3.3 0 00.49-.136.848.848 0 00.261-.142.22.22 0 00.077-.166h.864a.83.83 0 01-.213.586 1.57 1.57 0 01-.544.373c-.221.095-.464.17-.728.225a9.986 9.986 0 01-.764.13 4.528 4.528 0 00-1.065.273c-.284.118-.517.26-.698.426a1.795 1.795 0 00-.42.562c-.1.209-.172.436-.22.68.103-.165.225-.321.367-.467.142-.146.304-.274.486-.385.181-.11.38-.199.597-.266.217-.067.452-.1.705-.1.402 0 .77.078 1.1.236.332.158.614.373.847.645.233.272.412.59.538.953.127.363.19.746.19 1.148 0 .41-.063.8-.19 1.166a2.76 2.76 0 01-.556.959c-.245.272-.54.489-.888.65a2.771 2.771 0 01-1.183.243zm7.15 0a2.31 2.31 0 01-1.09-.26 2.368 2.368 0 01-.84-.746v3.042h-.887v-7.895h.888v.853c.205-.292.477-.531.816-.717.34-.185.71-.278 1.113-.278.379 0 .724.07 1.036.207.311.139.58.336.804.592.225.257.399.57.521.941.123.371.184.79.184 1.255 0 .466-.061.884-.184 1.255-.122.37-.296.686-.52.947-.225.26-.494.46-.805.597a2.529 2.529 0 01-1.036.207zm-.225-.793c.284 0 .54-.055.77-.165.228-.11.422-.265.58-.462.157-.197.277-.432.36-.704.083-.272.125-.566.125-.882 0-.316-.042-.608-.125-.876a2.094 2.094 0 00-.36-.698 1.654 1.654 0 00-.58-.462 1.747 1.747 0 00-.77-.166c-.355 0-.689.09-1 .267a1.935 1.935 0 00-.704.645v2.58c.157.253.392.47.704.651.311.182.645.272 1 .272zm5.066-5.066v2.214h2.142c.292 0 .55.047.776.142.225.095.414.223.568.384.154.162.268.348.343.557.075.209.113.432.113.669 0 .236-.04.461-.119.674a1.609 1.609 0 01-.343.557c-.15.157-.337.284-.562.378a1.983 1.983 0 01-.776.142h-3.03v-5.717h.888zm0 2.995v1.941h2.048c.323 0 .568-.09.734-.272.165-.182.248-.414.248-.698 0-.277-.08-.507-.243-.693-.161-.185-.408-.278-.74-.278h-2.047zM615.912 424.055a4.035 4.035 0 01-1.598-.307 3.609 3.609 0 01-1.237-.858 3.914 3.914 0 01-.799-1.297 4.518 4.518 0 01-.284-1.621c0-.584.095-1.125.284-1.622.19-.497.456-.929.8-1.296a3.609 3.609 0 011.236-.858 4.035 4.035 0 011.598-.308c.584 0 1.117.103 1.598.308.481.205.894.491 1.237.858.343.367.61.8.799 1.296.19.497.284 1.038.284 1.622 0 .584-.095 1.124-.284 1.621-.19.498-.456.93-.799 1.297a3.609 3.609 0 01-1.237.858 4.035 4.035 0 01-1.598.307zm0-.875c.442 0 .84-.081 1.196-.243.355-.162.659-.387.911-.675.253-.288.448-.627.586-1.018.138-.39.207-.814.207-1.272 0-.458-.069-.884-.207-1.279a3.008 3.008 0 00-.586-1.017 2.704 2.704 0 00-.911-.67 2.852 2.852 0 00-1.196-.242c-.442 0-.842.081-1.201.243a2.688 2.688 0 00-.918.669 2.932 2.932 0 00-.58 1.017c-.134.395-.2.821-.2 1.279 0 .458.066.882.2 1.272.135.39.328.73.58 1.018.253.288.559.513.918.675.359.162.76.243 1.201.243zm9.315.733l-2.06-2.568-.946.935v1.633h-.888v-5.717h.888v3.042l3.006-3.042h1.125l-2.533 2.593 2.545 3.124h-1.137zm3.232 0v-4.935h-1.657v-.782h4.213v.782h-1.668v4.935h-.888zm3.527 0l1.527-2.249a1.665 1.665 0 01-1.053-.538c-.277-.304-.415-.696-.415-1.178 0-.244.04-.473.119-.686a1.566 1.566 0 01.917-.93 2.06 2.06 0 01.775-.136h3.019v5.717h-.888V421.7h-1.563l-1.396 2.213h-1.042zm4-2.994v-1.941h-2.035c-.316 0-.56.09-.734.272a.969.969 0 00-.26.698c0 .284.083.517.248.699.166.181.415.272.746.272h2.036zm5.161 2.343c.308 0 .579-.06.811-.183.233-.122.43-.284.592-.485a2.1 2.1 0 00.367-.705 2.872 2.872 0 000-1.675 2.109 2.109 0 00-.367-.698 1.861 1.861 0 00-.592-.485 1.718 1.718 0 00-.81-.184 1.754 1.754 0 00-1.415.67 2.109 2.109 0 00-.367.697 2.872 2.872 0 000 1.675 2.1 2.1 0 00.367.705 1.754 1.754 0 001.414.669zm0 .793c-.441 0-.836-.08-1.183-.242a2.548 2.548 0 01-.888-.68 3.084 3.084 0 01-.562-1.037 4.19 4.19 0 01-.195-1.307c0-.695.063-1.293.189-1.794.126-.5.314-.917.562-1.248.249-.332.56-.59.935-.776.375-.185.811-.31 1.308-.373.316-.047.576-.092.781-.136a3.3 3.3 0 00.492-.136.848.848 0 00.26-.142.22.22 0 00.077-.166h.864a.83.83 0 01-.213.586 1.57 1.57 0 01-.545.373c-.22.095-.463.17-.727.225a9.986 9.986 0 01-.764.13 4.528 4.528 0 00-1.065.273c-.284.118-.517.26-.699.426a1.795 1.795 0 00-.42.562c-.098.209-.171.436-.219.68.103-.165.225-.321.367-.467.142-.146.304-.274.486-.385.181-.11.38-.199.597-.266.217-.067.452-.1.705-.1.402 0 .769.078 1.1.236.332.158.614.373.847.645.232.272.412.59.538.953.126.363.19.746.19 1.148 0 .41-.064.8-.19 1.166a2.76 2.76 0 01-.556.959c-.245.272-.54.489-.888.65a2.771 2.771 0 01-1.184.243zm7.15 0a2.31 2.31 0 01-1.09-.26 2.368 2.368 0 01-.84-.746v3.042h-.887v-7.895h.887v.853c.206-.292.478-.531.817-.717.34-.185.71-.278 1.113-.278.378 0 .724.07 1.035.207.312.139.58.336.805.592.225.257.399.57.521.941s.184.79.184 1.255c0 .466-.062.884-.184 1.255-.122.37-.296.686-.52.947-.226.26-.494.46-.806.597a2.529 2.529 0 01-1.035.207zm-.225-.793c.284 0 .54-.055.77-.165.228-.11.421-.265.58-.462.157-.197.277-.432.36-.704.083-.272.124-.566.124-.882 0-.316-.041-.608-.124-.876a2.094 2.094 0 00-.36-.698 1.654 1.654 0 00-.58-.462 1.747 1.747 0 00-.77-.166c-.355 0-.689.09-1 .267a1.935 1.935 0 00-.705.645v2.58c.158.253.393.47.705.651.311.182.645.272 1 .272zm5.066-5.066v2.214h2.142c.292 0 .55.047.776.142.224.095.414.223.568.384.154.162.268.348.343.557.075.209.112.432.112.669 0 .236-.04.461-.118.674a1.609 1.609 0 01-.343.557c-.15.157-.338.284-.562.378a1.983 1.983 0 01-.776.142h-3.03v-5.717h.888zm0 2.995v1.941h2.048c.323 0 .568-.09.733-.272.166-.182.249-.414.249-.698 0-.277-.08-.507-.243-.693-.161-.185-.408-.278-.74-.278h-2.047zM670.519 423.913v-3.622h-4.616v3.622h-.983v-7.895h.983v3.398h4.616v-3.398h.982v7.895h-.982zm5.29.142c-.433 0-.826-.079-1.177-.236a2.639 2.639 0 01-.893-.645 2.847 2.847 0 01-.563-.953 3.445 3.445 0 01-.195-1.172c0-.41.065-.799.195-1.166.13-.367.318-.684.563-.953.244-.268.542-.481.893-.639a2.842 2.842 0 011.178-.237c.434 0 .826.08 1.178.237.35.158.649.37.893.64.245.268.432.585.562.952.13.367.196.756.196 1.166 0 .418-.065.809-.196 1.172-.13.363-.317.68-.562.953a2.639 2.639 0 01-.893.645 2.842 2.842 0 01-1.178.236zm0-.793c.309 0 .579-.06.812-.183.232-.122.43-.284.592-.485a2.1 2.1 0 00.366-.705c.083-.268.125-.548.125-.84 0-.292-.042-.57-.125-.835a2.109 2.109 0 00-.366-.698 1.861 1.861 0 00-.592-.485 1.718 1.718 0 00-.811-.184 1.754 1.754 0 00-1.415.67 2.109 2.109 0 00-.367.697 2.774 2.774 0 00-.124.835c0 .292.042.572.124.84a2.1 2.1 0 00.367.705 1.754 1.754 0 001.414.669zm4.084.651l1.527-2.249a1.665 1.665 0 01-1.053-.538c-.276-.304-.414-.696-.414-1.178 0-.244.04-.473.118-.686a1.566 1.566 0 01.917-.93 2.06 2.06 0 01.776-.136h3.018v5.717h-.888V421.7h-1.562l-1.397 2.213h-1.042zm4.001-2.994v-1.941h-2.036c-.315 0-.56.09-.734.272a.969.969 0 00-.26.698c0 .284.083.517.249.699.165.181.414.272.745.272h2.036zm5.16 2.343c.309 0 .579-.06.812-.183.232-.122.43-.284.591-.485a2.1 2.1 0 00.367-.705 2.872 2.872 0 000-1.675 2.109 2.109 0 00-.367-.698 1.861 1.861 0 00-.591-.485 1.718 1.718 0 00-.811-.184 1.754 1.754 0 00-1.415.67 2.109 2.109 0 00-.367.697 2.872 2.872 0 000 1.675 2.1 2.1 0 00.367.705 1.754 1.754 0 001.414.669zm0 .793c-.441 0-.836-.08-1.183-.242a2.548 2.548 0 01-.888-.68 3.084 3.084 0 01-.562-1.037 4.19 4.19 0 01-.195-1.307c0-.695.063-1.293.19-1.794.126-.5.313-.917.562-1.248.248-.332.56-.59.935-.776.374-.185.81-.31 1.308-.373.315-.047.576-.092.78-.136a3.3 3.3 0 00.492-.136.848.848 0 00.26-.142.22.22 0 00.077-.166h.864a.83.83 0 01-.213.586 1.57 1.57 0 01-.544.373c-.221.095-.464.17-.728.225a9.986 9.986 0 01-.764.13 4.528 4.528 0 00-1.065.273c-.284.118-.517.26-.698.426a1.795 1.795 0 00-.42.562c-.099.209-.172.436-.22.68.103-.165.226-.321.368-.467.142-.146.303-.274.485-.385.181-.11.38-.199.598-.266.217-.067.451-.1.704-.1.402 0 .77.078 1.1.236.332.158.614.373.847.645.233.272.412.59.539.953.126.363.189.746.189 1.148 0 .41-.063.8-.19 1.166a2.76 2.76 0 01-.556.959c-.244.272-.54.489-.887.65a2.771 2.771 0 01-1.184.243zm7.15 0a2.31 2.31 0 01-1.089-.26 2.368 2.368 0 01-.84-.746v3.042h-.888v-7.895h.888v.853c.205-.292.477-.531.816-.717.34-.185.71-.278 1.113-.278.379 0 .724.07 1.036.207.311.139.58.336.805.592.225.257.398.57.52.941.123.371.184.79.184 1.255 0 .466-.061.884-.184 1.255-.122.37-.295.686-.52.947-.225.26-.494.46-.805.597a2.529 2.529 0 01-1.036.207zm-.225-.793c.284 0 .54-.055.77-.165.228-.11.422-.265.58-.462.157-.197.278-.432.36-.704.083-.272.125-.566.125-.882 0-.316-.042-.608-.124-.876a2.094 2.094 0 00-.361-.698 1.654 1.654 0 00-.58-.462 1.747 1.747 0 00-.77-.166c-.355 0-.688.09-1 .267a1.935 1.935 0 00-.704.645v2.58c.158.253.392.47.704.651.312.182.645.272 1 .272zm5.066-5.066v2.214h2.143c.292 0 .55.047.775.142.225.095.414.223.568.384.154.162.268.348.343.557.075.209.113.432.113.669 0 .236-.04.461-.119.674a1.609 1.609 0 01-.343.557c-.15.157-.337.284-.562.378a1.983 1.983 0 01-.775.142h-3.03v-5.717h.887zm0 2.995v1.941h2.048c.323 0 .568-.09.734-.272.165-.182.248-.414.248-.698 0-.277-.08-.507-.242-.693-.162-.185-.409-.278-.74-.278h-2.048zM718.297 423.12c.237-.015.448-.063.634-.142.185-.079.353-.229.503-.45.15-.22.278-.532.384-.935.107-.402.204-.939.29-1.61l.486-3.965h4.829v7.02h.722v2.331h-.982v-1.456h-5.883v1.456h-.983v-2.249zm2.782-3.065c-.103.836-.256 1.487-.462 1.953-.205.465-.453.809-.745 1.03h4.569v-6.144h-2.971l-.391 3.16zm8.866 4c-.427 0-.817-.073-1.172-.219a2.683 2.683 0 01-.918-.615 2.861 2.861 0 01-.603-.947 3.288 3.288 0 01-.22-1.225c0-.41.072-.799.214-1.166.142-.367.337-.684.586-.953.248-.268.544-.481.887-.639.344-.158.72-.237 1.13-.237.435 0 .822.08 1.16.237.34.158.628.375.865.651s.416.602.538.977c.123.374.184.775.184 1.201v.225h-4.628c.016.268.075.523.177.763a1.969 1.969 0 001.054 1.054c.244.106.52.16.828.16a2.503 2.503 0 001.764-.722l.426.58a2.9 2.9 0 01-.994.65c-.379.15-.805.225-1.278.225zm1.775-3.361c0-.213-.037-.432-.112-.657a1.895 1.895 0 00-.344-.616 1.787 1.787 0 00-.586-.455 1.859 1.859 0 00-.84-.178c-.308 0-.576.06-.805.178-.229.118-.42.268-.574.45a2.15 2.15 0 00-.491 1.278h3.752zm6.202 3.22l-2.06-2.57-.946.936v1.633h-.888v-5.717h.888v3.042l3.006-3.042h1.125l-2.533 2.593 2.545 3.124h-1.137zm5.765 0v-.652c-.482.53-1.113.793-1.894.793a2.27 2.27 0 01-.722-.118 1.882 1.882 0 01-1.1-.959 1.803 1.803 0 01-.179-.816c0-.316.06-.592.178-.829a1.815 1.815 0 011.1-.941c.238-.075.478-.112.723-.112.394 0 .751.063 1.071.189.32.126.594.323.823.592v-1.03c0-.387-.136-.685-.409-.894-.272-.209-.617-.313-1.035-.313-.671 0-1.255.264-1.752.793l-.414-.616c.607-.631 1.369-.947 2.284-.947.3 0 .584.036.852.107.269.07.503.183.704.337.202.154.361.353.48.598.118.245.177.54.177.888v3.93h-.887zm-1.575-.498c.316 0 .614-.059.894-.177.28-.119.507-.296.68-.533v-1.077a1.597 1.597 0 00-.68-.533 2.272 2.272 0 00-.894-.177c-.418 0-.757.116-1.018.349-.26.233-.39.535-.39.905 0 .363.13.661.39.894.26.233.6.35 1.018.35zm6.735-.154c.308 0 .578-.06.811-.183.233-.122.43-.284.592-.485a2.1 2.1 0 00.367-.705 2.872 2.872 0 000-1.675 2.109 2.109 0 00-.367-.698 1.861 1.861 0 00-.592-.485 1.718 1.718 0 00-.81-.184 1.754 1.754 0 00-1.415.67 2.109 2.109 0 00-.367.697 2.872 2.872 0 000 1.675 2.1 2.1 0 00.367.705 1.754 1.754 0 001.414.669zm0 .793c-.442 0-.836-.08-1.183-.242a2.548 2.548 0 01-.888-.68 3.084 3.084 0 01-.562-1.037 4.19 4.19 0 01-.196-1.307c0-.695.064-1.293.19-1.794.126-.5.314-.917.562-1.248.249-.332.56-.59.935-.776.375-.185.81-.31 1.308-.373.316-.047.576-.092.781-.136a3.3 3.3 0 00.491-.136.848.848 0 00.26-.142.22.22 0 00.078-.166h.864a.83.83 0 01-.213.586 1.57 1.57 0 01-.545.373c-.22.095-.463.17-.728.225a9.986 9.986 0 01-.763.13 4.528 4.528 0 00-1.065.273c-.284.118-.517.26-.699.426a1.795 1.795 0 00-.42.562c-.098.209-.171.436-.219.68.103-.165.225-.321.367-.467.142-.146.304-.274.485-.385.182-.11.381-.199.598-.266.217-.067.452-.1.704-.1.403 0 .77.078 1.101.236.332.158.614.373.846.645.233.272.413.59.54.953.125.363.188.746.188 1.148 0 .41-.063.8-.189 1.166a2.76 2.76 0 01-.556.959c-.245.272-.54.489-.888.65a2.771 2.771 0 01-1.184.243zm7.15 0a2.31 2.31 0 01-1.09-.26 2.368 2.368 0 01-.84-.746v3.042h-.887v-7.895h.887v.853c.205-.292.478-.531.817-.717.34-.185.71-.278 1.113-.278.378 0 .724.07 1.035.207.312.139.58.336.805.592.225.257.399.57.521.941s.183.79.183 1.255c0 .466-.06.884-.183 1.255-.122.37-.296.686-.52.947-.226.26-.494.46-.806.597a2.529 2.529 0 01-1.035.207zm-.225-.793c.284 0 .54-.055.77-.165.228-.11.421-.265.579-.462.158-.197.278-.432.361-.704.083-.272.124-.566.124-.882 0-.316-.041-.608-.124-.876a2.094 2.094 0 00-.361-.698 1.654 1.654 0 00-.58-.462 1.747 1.747 0 00-.77-.166c-.354 0-.688.09-1 .267a1.935 1.935 0 00-.704.645v2.58c.158.253.393.47.705.651.311.182.645.272 1 .272zm5.066-5.066v2.214h2.142c.292 0 .55.047.775.142.225.095.415.223.569.384.153.162.268.348.343.557.075.209.112.432.112.669 0 .236-.04.461-.118.674a1.609 1.609 0 01-.343.557c-.15.157-.338.284-.563.378a1.983 1.983 0 01-.775.142h-3.03v-5.717h.888zm0 2.995v1.941h2.047c.324 0 .569-.09.734-.272.166-.182.249-.414.249-.698 0-.277-.081-.507-.243-.693-.162-.185-.408-.278-.74-.278h-2.047z"/></g></g><path d="M310.388 65.023v-4.189c.52-.052.922-.182 1.208-.39.286-.207.549-.636.789-1.285.24-.65.432-1.598.575-2.845l.76-6.683h8.826V60.62h1.208v4.403h-2.28v-2.396h-8.807v2.396h-2.28zm4.832-8.553c-.221 1.922-.793 3.306-1.715 4.15h6.761v-8.982h-4.5l-.546 4.832zm12.177 6.157h-1.968v-9.411h2.046v6.332l4.326-6.332h2.045v9.41h-2.045V56.12l-4.404 6.508zm11.145 0h-2.046v-9.411h2.046v3.702h4.325v-3.702h2.046v9.41h-2.046V58.71h-4.325v3.917zm16.815 0h-2.046v-1.013c-.728.83-1.74 1.247-3.04 1.247a3.46 3.46 0 01-2.28-.829c-.662-.552-.993-1.315-.993-2.289 0-1 .328-1.76.984-2.28.656-.52 1.419-.779 2.29-.779 1.337 0 2.35.403 3.039 1.208V56.49c0-.545-.202-.974-.604-1.286-.403-.311-.935-.467-1.598-.467-1.052 0-1.98.396-2.786 1.188l-.838-1.422c1.065-1.013 2.384-1.52 3.955-1.52 1.156 0 2.098.273 2.825.819.728.545 1.092 1.409 1.092 2.59v6.236zm-4.287-1.17c1.026 0 1.773-.324 2.24-.973V59.06c-.467-.65-1.214-.974-2.24-.974-.584 0-1.065.156-1.442.468-.376.311-.565.72-.565 1.227 0 .507.189.913.565 1.218.377.305.858.458 1.442.458zm17.477 1.17h-2.046V56.08l-2.805 6.547h-.819l-2.825-6.547v6.547h-2.046v-9.411h2.67l2.61 6.079 2.572-6.079h2.69v9.41zm4.618 0h-1.968v-9.411h2.046v6.332l4.325-6.332h2.046v9.41h-2.046V56.12l-4.403 6.508zm17.906 0h-2.572l-2.884-3.878-1.305 1.345v2.533h-2.046v-9.411h2.046v4.54l4.15-4.54h2.533l-3.917 4.267 3.995 5.144zm9.235 0h-2.046v-1.013c-.727.83-1.74 1.247-3.04 1.247a3.46 3.46 0 01-2.279-.829c-.662-.552-.994-1.315-.994-2.289 0-1 .328-1.76.984-2.28.656-.52 1.42-.779 2.29-.779 1.337 0 2.35.403 3.04 1.208V56.49c0-.545-.202-.974-.605-1.286-.403-.311-.935-.467-1.598-.467-1.052 0-1.98.396-2.786 1.188l-.838-1.422c1.066-1.013 2.384-1.52 3.956-1.52 1.156 0 2.097.273 2.825.819.727.545 1.09 1.409 1.09 2.59v6.236zm-4.287-1.17c1.027 0 1.773-.324 2.241-.973V59.06c-.468-.65-1.214-.974-2.24-.974-.585 0-1.066.156-1.442.468-.377.311-.565.72-.565 1.227 0 .507.188.913.565 1.218.376.305.857.458 1.441.458zm20.361 1.17h-2.046v-7.618h-4.325v7.618h-2.046v-9.411h8.417v9.41zm6.897.234c-1.454 0-2.623-.478-3.507-1.433-.883-.954-1.325-2.127-1.325-3.516 0-1.39.442-2.56 1.325-3.507.884-.949 2.053-1.423 3.507-1.423 1.468 0 2.644.474 3.527 1.423.883.948 1.325 2.117 1.325 3.507 0 1.402-.442 2.578-1.325 3.526s-2.059 1.423-3.527 1.423zm0-1.812c.845 0 1.51-.302 1.997-.906.488-.604.731-1.348.731-2.231 0-.87-.243-1.608-.73-2.212-.488-.604-1.153-.906-1.998-.906-.831 0-1.49.302-1.977.906-.487.604-.73 1.341-.73 2.212 0 .883.243 1.627.73 2.23.487.605 1.146.907 1.977.907zm8.885 1.578h-1.968v-9.411h2.046v6.332l4.325-6.332h2.046v9.41h-2.046V56.12l-4.403 6.508zm13.385.234c-1.428 0-2.597-.465-3.507-1.394-.909-.928-1.364-2.114-1.364-3.555 0-1.43.455-2.608 1.364-3.537.91-.928 2.079-1.393 3.507-1.393 1.572 0 2.774.559 3.605 1.676l-1.344 1.247c-.52-.74-1.24-1.11-2.163-1.11-.857 0-1.546.288-2.065.866-.52.578-.78 1.328-.78 2.25 0 .923.26 1.676.78 2.26.52.585 1.208.878 2.065.878.896 0 1.617-.37 2.163-1.111l1.344 1.247c-.831 1.117-2.033 1.676-3.605 1.676zm14.204-.234h-2.572l-2.883-3.878-1.306 1.345v2.533h-2.046v-9.411h2.046v4.54l4.15-4.54h2.533l-3.916 4.267 3.994 5.144zm5.69.234c-1.455 0-2.624-.478-3.508-1.433-.883-.954-1.325-2.127-1.325-3.516 0-1.39.442-2.56 1.325-3.507.884-.949 2.053-1.423 3.507-1.423 1.468 0 2.644.474 3.527 1.423.883.948 1.325 2.117 1.325 3.507 0 1.402-.442 2.578-1.325 3.526s-2.059 1.423-3.527 1.423zm0-1.812c.844 0 1.51-.302 1.997-.906.487-.604.73-1.348.73-2.231 0-.87-.243-1.608-.73-2.212-.488-.604-1.153-.906-1.998-.906-.83 0-1.49.302-1.977.906-.487.604-.73 1.341-.73 2.212 0 .883.243 1.627.73 2.23.487.605 1.146.907 1.977.907zm12.683 1.578h-5.767v-9.411h5.631c.87 0 1.552.227 2.046.682.493.455.74 1.033.74 1.734 0 .546-.15 1.007-.448 1.383-.299.377-.675.63-1.13.76.507.117.929.393 1.267.828.337.435.506.926.506 1.471 0 .754-.25 1.367-.75 1.842-.5.474-1.198.71-2.095.71zm-.428-1.793c.364 0 .65-.094.857-.282.208-.189.312-.445.312-.77 0-.299-.104-.552-.312-.76-.208-.208-.493-.312-.857-.312h-3.293v2.124h3.293zm-.059-3.916c.325 0 .582-.088.77-.263a.878.878 0 00.282-.672c0-.299-.094-.536-.282-.711-.188-.176-.445-.263-.77-.263h-3.234v1.909h3.234zm10.112 5.943c-1.454 0-2.623-.478-3.507-1.433-.883-.954-1.325-2.127-1.325-3.516 0-1.39.442-2.56 1.325-3.507.884-.949 2.053-1.423 3.507-1.423 1.468 0 2.644.474 3.527 1.423.883.948 1.325 2.117 1.325 3.507 0 1.402-.442 2.578-1.325 3.526s-2.059 1.423-3.527 1.423zm0-1.812c.845 0 1.51-.302 1.998-.906.487-.604.73-1.348.73-2.231 0-.87-.243-1.608-.73-2.212-.488-.604-1.153-.906-1.998-.906-.83 0-1.49.302-1.977.906-.487.604-.73 1.341-.73 2.212 0 .883.243 1.627.73 2.23.487.605 1.146.907 1.977.907zm14.048-7.833v1.793h-5.085v7.618h-2.046v-9.411h7.131zm5.923 9.645c-1.454 0-2.623-.478-3.507-1.433-.883-.954-1.325-2.127-1.325-3.516 0-1.39.442-2.56 1.325-3.507.884-.949 2.053-1.423 3.507-1.423 1.468 0 2.644.474 3.527 1.423.883.948 1.325 2.117 1.325 3.507 0 1.402-.442 2.578-1.325 3.526s-2.059 1.423-3.527 1.423zm0-1.812c.845 0 1.51-.302 1.998-.906.487-.604.73-1.348.73-2.231 0-.87-.243-1.608-.73-2.212-.488-.604-1.153-.906-1.998-.906-.83 0-1.49.302-1.977.906-.487.604-.73 1.341-.73 2.212 0 .883.243 1.627.73 2.23.487.605 1.146.907 1.977.907zm15.685 1.578h-2.046v-7.618h-2.689v-1.793h7.443v1.793h-2.708v7.618zm9.45.234c-1.247 0-2.254-.514-3.02-1.54v4.89h-2.046V53.217h2.046v1.286c.753-1.013 1.76-1.52 3.02-1.52 1.234 0 2.237.442 3.01 1.325.773.883 1.16 2.085 1.16 3.605s-.387 2.724-1.16 3.614c-.773.89-1.776 1.335-3.01 1.335zm-.604-1.812c.805 0 1.448-.293 1.929-.877.48-.585.72-1.338.72-2.26 0-.923-.24-1.673-.72-2.25-.481-.579-1.124-.868-1.93-.868a2.87 2.87 0 00-1.383.37c-.454.247-.799.546-1.032.897v3.721c.233.35.578.65 1.032.896.455.247.916.37 1.384.37zm14.593 1.578h-2.046v-1.013c-.727.83-1.74 1.247-3.04 1.247a3.46 3.46 0 01-2.279-.829c-.662-.552-.994-1.315-.994-2.289 0-1 .328-1.76.984-2.28.656-.52 1.42-.779 2.29-.779 1.338 0 2.35.403 3.04 1.208V56.49c0-.545-.202-.974-.605-1.286-.402-.311-.935-.467-1.597-.467-1.053 0-1.981.396-2.787 1.188l-.837-1.422c1.065-1.013 2.383-1.52 3.955-1.52 1.156 0 2.098.273 2.825.819.727.545 1.091 1.409 1.091 2.59v6.236zm-4.286-1.17c1.026 0 1.773-.324 2.24-.973V59.06c-.467-.65-1.214-.974-2.24-.974-.585 0-1.066.156-1.442.468-.377.311-.565.72-.565 1.227 0 .507.188.913.565 1.218.376.305.857.458 1.442.458zm7.637-7.13c.65-.897 1.494-1.345 2.533-1.345 1.04 0 1.884.513 2.533 1.54V49.63h2.046v4.871c.636-1.013 1.48-1.52 2.533-1.52 1.039 0 1.883.442 2.533 1.325.65.883.974 2.085.974 3.605s-.325 2.724-.974 3.614c-.65.89-1.494 1.335-2.533 1.335-1.04 0-1.884-.514-2.533-1.54v4.89h-2.046v-4.87c-.636 1.013-1.48 1.52-2.533 1.52-1.039 0-1.883-.442-2.533-1.325-.65-.884-.974-2.085-.974-3.605s.325-2.721.974-3.604zm3.176.467c-.623 0-1.127.292-1.51.877s-.575 1.338-.575 2.26c0 .922.192 1.672.575 2.25.383.579.887.868 1.51.868.364 0 .724-.124 1.082-.37.357-.247.626-.546.808-.897v-3.721a2.467 2.467 0 00-.808-.897c-.358-.246-.718-.37-1.082-.37zm5.826 6.255c.623 0 1.127-.293 1.51-.877.383-.585.575-1.338.575-2.26 0-.923-.192-1.673-.575-2.25-.383-.579-.887-.868-1.51-.868-.364 0-.724.124-1.082.37a2.467 2.467 0 00-.808.897v3.721c.182.35.451.65.808.896.358.247.718.37 1.082.37zm8.495 1.578h-1.968v-9.411h2.046v6.332l4.325-6.332h2.046v9.41h-2.046V56.12l-4.403 6.508zm17.905 0h-2.571l-2.884-3.878-1.305 1.345v2.533h-2.046v-9.411h2.046v4.54l4.15-4.54h2.533l-3.917 4.267 3.994 5.144zm9.236 0h-2.046v-1.013c-.727.83-1.74 1.247-3.04 1.247a3.46 3.46 0 01-2.28-.829c-.662-.552-.993-1.315-.993-2.289 0-1 .328-1.76.984-2.28.656-.52 1.42-.779 2.29-.779 1.337 0 2.35.403 3.039 1.208V56.49c0-.545-.201-.974-.604-1.286-.403-.311-.935-.467-1.598-.467-1.052 0-1.98.396-2.786 1.188l-.838-1.422c1.065-1.013 2.384-1.52 3.956-1.52 1.156 0 2.097.273 2.825.819.727.545 1.09 1.409 1.09 2.59v6.236zm-4.287-1.17c1.027 0 1.773-.324 2.241-.973V59.06c-.468-.65-1.214-.974-2.24-.974-.585 0-1.066.156-1.442.468-.377.311-.565.72-.565 1.227 0 .507.188.913.565 1.218.376.305.857.458 1.441.458z" fill="#292929" fill-rule="nonzero"/></g></svg>