<svg width="906" height="560" xmlns="http://www.w3.org/2000/svg"><defs><linearGradient x1="50%" y1="17.241%" x2="50%" y2="100%" id="a"><stop stop-color="#00F4CD" stop-opacity=".281" offset="0%"/><stop stop-color="#D8D8D8" stop-opacity="0" offset="100%"/></linearGradient><linearGradient x1="50%" y1="55.583%" x2="50%" y2="100%" id="b"><stop stop-color="#F7B500" stop-opacity=".222" offset="0%"/><stop stop-color="#D8D8D8" stop-opacity="0" offset="100%"/></linearGradient><linearGradient x1="50%" y1="11.442%" x2="50%" y2="77.659%" id="c"><stop stop-color="#CD95FF" stop-opacity=".234" offset="0%"/><stop stop-color="#B620E0" stop-opacity="0" offset="100%"/></linearGradient><linearGradient x1="50%" y1="17.241%" x2="50%" y2="100%" id="d"><stop stop-color="#FFE439" stop-opacity=".277" offset="0%"/><stop stop-color="#D8D8D8" stop-opacity="0" offset="100%"/></linearGradient></defs><g fill="none" fill-rule="evenodd"><g transform="translate(0 -1)"><path d="M12 1.334h883c6.075 0 11 4.925 11 11V548.8c0 6.627-5.373 12-12 12H12c-6.627 0-12-5.373-12-12V13.334c0-6.627 5.373-12 12-12z" fill="#F1F4FC"/><rect fill="#FFF" x="13.539" y="16.505" width="876.104" height="437.026" rx="10.692"/><rect fill="#FFF" x="16.7" y="464.829" width="873.44" height="78.08" rx="10.692"/><g stroke="#E8E6E6" stroke-linecap="square" stroke-width=".77"><path d="M105.119 89.07H839.19M105.119 134.995H839.19M105.119 179.53H839.19M105.119 224.065H839.19M105.119 268.6H839.19M105.119 314.525H839.19M105.119 359.06H839.19M105.119 403.594H839.19"/></g><g transform="translate(62.627 82.11)"><path d="M3.344 11.134l4.34-9.567H1.891V.373h7.34v.92l-4.404 9.84H3.344zm11.293.193c-.742 0-1.372-.166-1.888-.5a4.14 4.14 0 01-1.274-1.299 5.75 5.75 0 01-.726-1.79 8.88 8.88 0 01-.226-1.977c0-.656.075-1.314.226-1.976.15-.661.392-1.255.726-1.782A4.17 4.17 0 0112.749.712c.516-.333 1.146-.5 1.888-.5.731 0 1.357.167 1.88.5.52.333.946.764 1.274 1.29.328.528.57 1.122.726 1.783.155.662.233 1.32.233 1.976 0 .657-.078 1.315-.233 1.977a6.02 6.02 0 01-.726 1.79 4.029 4.029 0 01-1.275 1.3c-.522.333-1.148.5-1.88.5zm0-1.194c.516 0 .949-.126 1.298-.379.35-.252.632-.586.847-1 .215-.414.369-.882.46-1.403a9.188 9.188 0 00.137-1.59c0-.537-.046-1.067-.137-1.589a4.732 4.732 0 00-.46-1.395 2.825 2.825 0 00-.847-.992c-.35-.253-.782-.38-1.298-.38-.517 0-.95.127-1.3.38-.349.253-.63.583-.846.992a4.732 4.732 0 00-.46 1.395 9.188 9.188 0 00-.137 1.59c0 .537.046 1.067.137 1.589.092.521.245.989.46 1.403.215.414.497.748.847 1 .35.253.782.38 1.299.38zm9.873 1.194c-.742 0-1.371-.166-1.888-.5a4.14 4.14 0 01-1.274-1.299 5.75 5.75 0 01-.726-1.79 8.88 8.88 0 01-.226-1.977c0-.656.075-1.314.226-1.976.15-.661.392-1.255.726-1.782A4.17 4.17 0 0122.622.712c.517-.333 1.146-.5 1.888-.5.731 0 1.358.167 1.88.5.52.333.946.764 1.274 1.29.328.528.57 1.122.726 1.783.156.662.234 1.32.234 1.976 0 .657-.078 1.315-.234 1.977a6.02 6.02 0 01-.726 1.79 4.029 4.029 0 01-1.275 1.3c-.521.333-1.148.5-1.88.5zm0-1.194c.516 0 .949-.126 1.298-.379.35-.252.632-.586.847-1 .216-.414.369-.882.46-1.403a9.188 9.188 0 00.137-1.59c0-.537-.045-1.067-.137-1.589a4.732 4.732 0 00-.46-1.395 2.825 2.825 0 00-.847-.992c-.35-.253-.782-.38-1.298-.38s-.95.127-1.299.38c-.35.253-.632.583-.847.992a4.732 4.732 0 00-.46 1.395 9.188 9.188 0 00-.137 1.59c0 .537.046 1.067.137 1.589.092.521.245.989.46 1.403.215.414.498.748.847 1 .35.253.783.38 1.299.38zM4.969 57.253c-.753 0-1.393-.153-1.92-.46a3.733 3.733 0 01-1.282-1.225 5.469 5.469 0 01-.718-1.767 9.497 9.497 0 01-.226-2.097c0-.731.086-1.433.258-2.105a5.348 5.348 0 01.798-1.775c.36-.51.815-.92 1.364-1.226.548-.307 1.199-.46 1.952-.46.699 0 1.288.121 1.766.363.479.242.885.551 1.218.928l-.677 1a3.812 3.812 0 00-.936-.79c-.344-.205-.801-.307-1.371-.307-.517 0-.966.12-1.347.363-.382.242-.7.562-.952.96-.253.398-.438.85-.557 1.355a6.773 6.773 0 00-.177 1.549v.21c0 .064.005.134.016.21.118-.184.277-.375.476-.574a3.62 3.62 0 01.702-.54c.268-.161.562-.296.879-.403a3.07 3.07 0 01.992-.162c.484 0 .938.073 1.363.218.425.145.799.36 1.121.645.323.285.576.643.759 1.073.182.43.274.93.274 1.5 0 .474-.086.923-.258 1.348-.172.424-.42.798-.742 1.12a3.5 3.5 0 01-1.186.767c-.468.188-.998.282-1.59.282zM4.92 56.06c.42 0 .783-.07 1.09-.21.306-.14.561-.32.766-.54.204-.221.357-.466.46-.735.102-.268.153-.532.153-.79 0-.398-.065-.742-.194-1.033a2.021 2.021 0 00-.532-.725 2.165 2.165 0 00-.79-.428 3.316 3.316 0 00-.969-.137c-.537 0-1.046.148-1.524.444a3.576 3.576 0 00-1.17 1.17c.032.333.105.677.218 1.032s.274.677.484.968c.21.29.479.527.807.71.328.182.728.274 1.201.274zm9.551 1.193c-.742 0-1.371-.166-1.888-.5a4.14 4.14 0 01-1.274-1.298 5.75 5.75 0 01-.726-1.791 8.88 8.88 0 01-.226-1.976c0-.656.075-1.315.226-1.977.15-.661.393-1.255.726-1.782a4.17 4.17 0 011.274-1.29c.517-.334 1.146-.5 1.888-.5.731 0 1.358.166 1.88.5.521.333.946.763 1.274 1.29.328.527.57 1.121.726 1.782.156.662.234 1.32.234 1.977 0 .656-.078 1.315-.234 1.976a6.02 6.02 0 01-.726 1.79 4.029 4.029 0 01-1.275 1.3c-.521.333-1.148.5-1.879.5zm0-1.193c.516 0 .95-.127 1.299-.38.35-.252.632-.586.847-1 .215-.414.368-.882.46-1.403a9.188 9.188 0 00.137-1.59c0-.537-.046-1.067-.138-1.588a4.732 4.732 0 00-.46-1.396 2.825 2.825 0 00-.846-.992c-.35-.253-.783-.38-1.299-.38-.516 0-.95.127-1.299.38-.35.253-.632.584-.847.992a4.732 4.732 0 00-.46 1.396 9.188 9.188 0 00-.137 1.589c0 .537.046 1.067.138 1.589.091.521.244.99.46 1.403.214.414.497.748.846 1 .35.253.783.38 1.299.38zm9.873 1.193c-.742 0-1.371-.166-1.887-.5a4.14 4.14 0 01-1.275-1.298 5.75 5.75 0 01-.726-1.791 8.88 8.88 0 01-.226-1.976c0-.656.076-1.315.226-1.977.15-.661.393-1.255.726-1.782a4.17 4.17 0 011.275-1.29c.516-.334 1.145-.5 1.887-.5.732 0 1.358.166 1.88.5.521.333.946.763 1.274 1.29.328.527.57 1.121.726 1.782.156.662.234 1.32.234 1.977 0 .656-.078 1.315-.234 1.976a6.02 6.02 0 01-.726 1.79 4.029 4.029 0 01-1.274 1.3c-.522.333-1.148.5-1.88.5zm0-1.193c.516 0 .95-.127 1.299-.38.35-.252.632-.586.847-1 .215-.414.368-.882.46-1.403a9.188 9.188 0 00.137-1.59c0-.537-.046-1.067-.137-1.588a4.732 4.732 0 00-.46-1.396 2.825 2.825 0 00-.847-.992c-.35-.253-.783-.38-1.299-.38-.516 0-.949.127-1.299.38s-.631.584-.846.992a4.732 4.732 0 00-.46 1.396 9.188 9.188 0 00-.137 1.589c0 .537.045 1.067.137 1.589.091.521.244.99.46 1.403.215.414.497.748.846 1 .35.253.783.38 1.3.38zM4.856 100.396c-.914 0-1.672-.153-2.275-.46a4.371 4.371 0 01-1.516-1.266l.823-.887c.354.452.771.801 1.25 1.048.478.248 1.051.372 1.718.372.366 0 .702-.06 1.008-.178.307-.118.568-.28.783-.484a2.265 2.265 0 00.694-1.646c0-.354-.062-.674-.186-.96a2.217 2.217 0 00-.508-.733 2.166 2.166 0 00-.775-.468 2.957 2.957 0 00-1-.162c-.484 0-.928.081-1.33.242-.404.162-.789.42-1.154.775l-.984-.339v-5.808h6.582v1.194H2.743v3.743c.258-.258.605-.484 1.04-.678.436-.193.928-.29 1.476-.29.452 0 .882.075 1.29.226a3.158 3.158 0 011.847 1.742c.19.43.283.92.283 1.468 0 .549-.096 1.043-.29 1.484a3.205 3.205 0 01-.807 1.122c-.344.306-.75.54-1.218.701-.468.162-.97.242-1.508.242zm9.599 0c-.742 0-1.371-.166-1.888-.5a4.14 4.14 0 01-1.274-1.298 5.75 5.75 0 01-.726-1.791 8.88 8.88 0 01-.226-1.976c0-.656.075-1.315.226-1.977.15-.661.392-1.255.726-1.782a4.17 4.17 0 011.274-1.29c.517-.334 1.146-.501 1.888-.501.731 0 1.358.167 1.88.5.52.333.946.764 1.274 1.29.328.528.57 1.122.726 1.783.156.662.234 1.32.234 1.977 0 .656-.078 1.314-.234 1.976a6.02 6.02 0 01-.726 1.79 4.029 4.029 0 01-1.275 1.3c-.521.333-1.148.5-1.88.5zm0-1.193c.516 0 .949-.127 1.299-.38.35-.252.631-.586.846-1 .216-.414.369-.882.46-1.403a9.188 9.188 0 00.137-1.59c0-.537-.045-1.067-.137-1.588a4.732 4.732 0 00-.46-1.396 2.825 2.825 0 00-.846-.992c-.35-.253-.783-.38-1.3-.38-.515 0-.948.127-1.298.38-.35.253-.632.583-.847.992a4.732 4.732 0 00-.46 1.396 9.188 9.188 0 00-.137 1.589c0 .537.046 1.067.137 1.589.092.521.245.99.46 1.403.215.414.498.748.847 1 .35.253.783.38 1.299.38zm9.873 1.193c-.742 0-1.371-.166-1.887-.5a4.14 4.14 0 01-1.275-1.298 5.75 5.75 0 01-.726-1.791 8.88 8.88 0 01-.226-1.976c0-.656.075-1.315.226-1.977.15-.661.393-1.255.726-1.782a4.17 4.17 0 011.275-1.29c.516-.334 1.145-.501 1.887-.501.731 0 1.358.167 1.88.5.521.333.946.764 1.274 1.29.328.528.57 1.122.726 1.783.156.662.234 1.32.234 1.977 0 .656-.078 1.314-.234 1.976a6.02 6.02 0 01-.726 1.79 4.029 4.029 0 01-1.275 1.3c-.521.333-1.148.5-1.879.5zm0-1.193c.516 0 .95-.127 1.299-.38.35-.252.632-.586.847-1 .215-.414.368-.882.46-1.403a9.188 9.188 0 00.137-1.59c0-.537-.046-1.067-.138-1.588a4.732 4.732 0 00-.46-1.396 2.825 2.825 0 00-.846-.992c-.35-.253-.783-.38-1.299-.38-.516 0-.95.127-1.299.38-.35.253-.632.583-.847.992a4.732 4.732 0 00-.46 1.396 9.188 9.188 0 00-.137 1.589c0 .537.046 1.067.138 1.589.091.521.244.99.46 1.403.214.414.497.748.846 1 .35.253.783.38 1.299.38zM7.022 146.129v-2.726H1.908v-1.114l4.614-6.92H8.36v6.856h1.516v1.178H8.361v2.726H7.022zm0-9.518l-3.775 5.614h3.775v-5.614zm8.308 9.712c-.742 0-1.371-.167-1.887-.5a4.14 4.14 0 01-1.275-1.3 5.75 5.75 0 01-.726-1.79 8.88 8.88 0 01-.226-1.976c0-.656.076-1.315.226-1.976.15-.662.393-1.256.726-1.783a4.17 4.17 0 011.275-1.29c.516-.334 1.145-.5 1.887-.5.732 0 1.358.166 1.88.5.521.333.946.763 1.274 1.29.328.527.57 1.121.726 1.783.156.661.234 1.32.234 1.976 0 .656-.078 1.315-.234 1.976a6.02 6.02 0 01-.726 1.79 4.029 4.029 0 01-1.274 1.3c-.522.333-1.148.5-1.88.5zm0-1.194c.517 0 .95-.127 1.299-.38.35-.252.632-.585.847-1 .215-.414.368-.881.46-1.403a9.188 9.188 0 00.137-1.59c0-.537-.046-1.067-.137-1.588a4.732 4.732 0 00-.46-1.396 2.825 2.825 0 00-.847-.992c-.35-.253-.782-.379-1.299-.379-.516 0-.949.126-1.298.38-.35.252-.632.583-.847.991a4.732 4.732 0 00-.46 1.396 9.188 9.188 0 00-.137 1.589c0 .538.045 1.067.137 1.589.091.522.245.99.46 1.403.215.415.497.748.847 1 .35.253.782.38 1.298.38zm9.873 1.194c-.742 0-1.37-.167-1.887-.5a4.14 4.14 0 01-1.275-1.3 5.75 5.75 0 01-.725-1.79 8.88 8.88 0 01-.226-1.976c0-.656.075-1.315.226-1.976.15-.662.392-1.256.725-1.783a4.17 4.17 0 011.275-1.29c.516-.334 1.145-.5 1.887-.5.732 0 1.358.166 1.88.5.522.333.946.763 1.274 1.29.328.527.57 1.121.726 1.783.156.661.234 1.32.234 1.976 0 .656-.078 1.315-.234 1.976a6.02 6.02 0 01-.726 1.79 4.029 4.029 0 01-1.274 1.3c-.522.333-1.148.5-1.88.5zm0-1.194c.517 0 .95-.127 1.3-.38.349-.252.631-.585.846-1 .215-.414.368-.881.46-1.403a9.188 9.188 0 00.137-1.59c0-.537-.046-1.067-.137-1.588a4.732 4.732 0 00-.46-1.396 2.825 2.825 0 00-.847-.992c-.35-.253-.782-.379-1.299-.379-.516 0-.949.126-1.298.38-.35.252-.632.583-.847.991a4.732 4.732 0 00-.46 1.396 9.188 9.188 0 00-.137 1.589c0 .538.046 1.067.137 1.589.091.522.245.99.46 1.403.215.415.497.748.847 1 .35.253.782.38 1.298.38zM5.683 192.249c-.914 0-1.697-.175-2.347-.524-.651-.35-1.143-.767-1.476-1.25l.79-.84c.312.42.729.761 1.25 1.025a3.827 3.827 0 001.75.395c.786 0 1.402-.18 1.848-.54.446-.36.67-.853.67-1.477a1.81 1.81 0 00-.194-.863 1.557 1.557 0 00-.549-.588 2.685 2.685 0 00-.847-.34 4.873 4.873 0 00-1.089-.112h-.661c-.215 0-.366.005-.452.016v-1.226c.086.01.24.016.46.016h.653c.334 0 .654-.035.96-.105.307-.07.573-.177.799-.322.226-.146.406-.329.54-.549.135-.22.202-.487.202-.799 0-.3-.065-.564-.194-.79a1.81 1.81 0 00-.516-.573 2.342 2.342 0 00-.766-.355 3.51 3.51 0 00-.928-.12c-.591 0-1.113.11-1.565.33-.451.22-.876.546-1.274.976l-.742-.839c.387-.473.887-.868 1.5-1.186.613-.317 1.34-.476 2.178-.476.516 0 .998.065 1.444.194.446.13.83.315 1.153.557.323.242.578.543.767.903.188.36.282.766.282 1.218 0 .387-.073.726-.218 1.016a2.49 2.49 0 01-.556.743 2.872 2.872 0 01-.75.492c-.275.123-.541.207-.8.25a2.8 2.8 0 01.807.21c.29.118.56.284.807.5.247.215.455.483.621.806.167.323.25.7.25 1.13 0 .451-.086.865-.258 1.242a2.752 2.752 0 01-.75.976c-.328.274-.729.489-1.202.645a5.088 5.088 0 01-1.597.234zm9.631 0c-.742 0-1.371-.167-1.887-.5a4.14 4.14 0 01-1.275-1.299 5.75 5.75 0 01-.726-1.79 8.88 8.88 0 01-.226-1.977c0-.656.076-1.315.226-1.976.15-.662.393-1.256.726-1.783a4.17 4.17 0 011.275-1.29c.516-.334 1.145-.5 1.887-.5.732 0 1.358.166 1.88.5.521.333.946.763 1.274 1.29.328.527.57 1.121.726 1.783.156.661.234 1.32.234 1.976 0 .656-.078 1.315-.234 1.976a6.02 6.02 0 01-.726 1.791 4.028 4.028 0 01-1.274 1.299c-.522.333-1.148.5-1.88.5zm0-1.194c.516 0 .95-.126 1.299-.379.35-.253.632-.586.847-1 .215-.414.368-.882.46-1.404a9.188 9.188 0 00.137-1.589c0-.538-.046-1.067-.137-1.589a4.732 4.732 0 00-.46-1.395 2.825 2.825 0 00-.847-.993c-.35-.252-.783-.379-1.299-.379-.516 0-.949.127-1.299.38-.349.252-.631.583-.846.992a4.732 4.732 0 00-.46 1.395 9.188 9.188 0 00-.137 1.59c0 .537.045 1.067.137 1.588.091.522.244.99.46 1.404.215.414.497.747.846 1 .35.253.783.38 1.3.38zm9.873 1.194c-.742 0-1.37-.167-1.887-.5a4.14 4.14 0 01-1.275-1.299 5.75 5.75 0 01-.726-1.79 8.88 8.88 0 01-.225-1.977c0-.656.075-1.315.225-1.976.151-.662.393-1.256.726-1.783a4.17 4.17 0 011.275-1.29c.516-.334 1.145-.5 1.887-.5.732 0 1.358.166 1.88.5.521.333.946.763 1.274 1.29.328.527.57 1.121.726 1.783.156.661.234 1.32.234 1.976 0 .656-.078 1.315-.234 1.976a6.02 6.02 0 01-.726 1.791 4.028 4.028 0 01-1.274 1.299c-.522.333-1.148.5-1.88.5zm0-1.194c.517 0 .95-.126 1.299-.379.35-.253.632-.586.847-1 .215-.414.368-.882.46-1.404a9.188 9.188 0 00.137-1.589c0-.538-.046-1.067-.137-1.589a4.732 4.732 0 00-.46-1.395 2.825 2.825 0 00-.847-.993c-.35-.252-.782-.379-1.299-.379-.516 0-.949.127-1.298.38-.35.252-.632.583-.847.992a4.732 4.732 0 00-.46 1.395 9.188 9.188 0 00-.137 1.59c0 .537.046 1.067.137 1.588.091.522.245.99.46 1.404.215.414.497.747.847 1s.782.38 1.298.38zM.871 237.982v-1.065c.968-.764 1.823-1.455 2.565-2.073a22.147 22.147 0 001.872-1.726c.505-.533.887-1.033 1.145-1.5.258-.469.387-.934.387-1.396 0-.344-.064-.64-.193-.888a1.828 1.828 0 00-.509-.613 2.088 2.088 0 00-.717-.354 3.037 3.037 0 00-.823-.113c-.646 0-1.216.123-1.71.37a3.415 3.415 0 00-1.21.985l-.823-.855a3.928 3.928 0 011.605-1.259 5.258 5.258 0 012.138-.435c.452 0 .892.064 1.323.193.43.13.814.323 1.153.581.339.258.613.586.823.984.21.398.315.866.315 1.404a3.62 3.62 0 01-.396 1.621 7.446 7.446 0 01-1.097 1.597 17.653 17.653 0 01-1.653 1.63 52.397 52.397 0 01-2.081 1.718H8.26v1.194H.87zm13.552.193c-.743 0-1.372-.167-1.888-.5a4.14 4.14 0 01-1.274-1.299 5.75 5.75 0 01-.726-1.79 8.88 8.88 0 01-.226-1.977c0-.656.075-1.314.226-1.976.15-.661.392-1.256.726-1.783a4.17 4.17 0 011.274-1.29c.516-.334 1.145-.5 1.888-.5.73 0 1.357.166 1.879.5.522.333.946.763 1.275 1.29.328.527.57 1.122.725 1.783.156.662.234 1.32.234 1.976 0 .656-.078 1.315-.234 1.977a6.02 6.02 0 01-.725 1.79 4.029 4.029 0 01-1.275 1.299c-.522.333-1.148.5-1.88.5zm0-1.194c.516 0 .949-.126 1.298-.379.35-.253.632-.586.847-1 .215-.414.369-.882.46-1.404a9.188 9.188 0 00.137-1.589c0-.537-.046-1.067-.137-1.589a4.732 4.732 0 00-.46-1.395 2.825 2.825 0 00-.847-.992c-.35-.253-.782-.38-1.298-.38-.517 0-.95.127-1.3.38-.349.252-.631.583-.846.992a4.732 4.732 0 00-.46 1.395 9.188 9.188 0 00-.137 1.59c0 .537.046 1.067.137 1.588.092.522.245.99.46 1.404.215.414.497.747.847 1s.782.38 1.299.38zm9.873 1.194c-.742 0-1.372-.167-1.888-.5a4.14 4.14 0 01-1.274-1.299 5.75 5.75 0 01-.726-1.79 8.88 8.88 0 01-.226-1.977c0-.656.075-1.314.226-1.976.15-.661.392-1.256.726-1.783a4.17 4.17 0 011.274-1.29c.516-.334 1.146-.5 1.888-.5.731 0 1.358.166 1.88.5.52.333.946.763 1.274 1.29.328.527.57 1.122.726 1.783.156.662.234 1.32.234 1.976 0 .656-.078 1.315-.234 1.977a6.02 6.02 0 01-.726 1.79 4.029 4.029 0 01-1.275 1.299c-.521.333-1.148.5-1.88.5zm0-1.194c.516 0 .949-.126 1.298-.379.35-.253.632-.586.847-1 .216-.414.369-.882.46-1.404a9.188 9.188 0 00.137-1.589c0-.537-.045-1.067-.137-1.589a4.732 4.732 0 00-.46-1.395 2.825 2.825 0 00-.847-.992c-.35-.253-.782-.38-1.298-.38s-.95.127-1.299.38c-.35.252-.632.583-.847.992a4.732 4.732 0 00-.46 1.395 9.188 9.188 0 00-.137 1.59c0 .537.046 1.067.137 1.588.092.522.245.99.46 1.404.215.414.498.747.847 1 .35.253.783.38 1.299.38zM7.047 281.124v-8.985l-1.726 1.823-.807-.823 2.694-2.775h1.178v10.76h-1.34zm7.534.194c-.742 0-1.372-.167-1.888-.5a4.14 4.14 0 01-1.274-1.299 5.75 5.75 0 01-.726-1.79 8.88 8.88 0 01-.226-1.977c0-.656.075-1.315.226-1.976.15-.661.392-1.256.726-1.783a4.17 4.17 0 011.274-1.29c.516-.334 1.146-.5 1.888-.5.731 0 1.357.166 1.88.5.52.333.946.763 1.274 1.29.328.527.57 1.122.726 1.783.156.661.233 1.32.233 1.976 0 .656-.077 1.315-.233 1.977a6.02 6.02 0 01-.726 1.79 4.029 4.029 0 01-1.275 1.299c-.522.333-1.148.5-1.88.5zm0-1.194c.516 0 .949-.126 1.298-.379.35-.253.632-.586.847-1 .215-.414.369-.882.46-1.404a9.188 9.188 0 00.137-1.589c0-.538-.045-1.067-.137-1.589a4.732 4.732 0 00-.46-1.395 2.825 2.825 0 00-.847-.992c-.35-.253-.782-.38-1.298-.38-.517 0-.95.127-1.299.38-.35.252-.632.583-.847.992a4.732 4.732 0 00-.46 1.395 9.188 9.188 0 00-.137 1.59c0 .537.046 1.067.137 1.588.092.522.245.99.46 1.404.215.414.497.747.847 1s.782.38 1.299.38zm9.873 1.194c-.742 0-1.371-.167-1.888-.5a4.14 4.14 0 01-1.274-1.299 5.75 5.75 0 01-.726-1.79 8.88 8.88 0 01-.226-1.977c0-.656.075-1.315.226-1.976.15-.661.392-1.256.726-1.783a4.17 4.17 0 011.274-1.29c.517-.334 1.146-.5 1.888-.5.731 0 1.358.166 1.88.5.52.333.946.763 1.274 1.29.328.527.57 1.122.726 1.783.156.661.234 1.32.234 1.976 0 .656-.078 1.315-.234 1.977a6.02 6.02 0 01-.726 1.79 4.029 4.029 0 01-1.275 1.299c-.521.333-1.148.5-1.88.5zm0-1.194c.516 0 .949-.126 1.299-.379s.631-.586.846-1c.216-.414.369-.882.46-1.404a9.188 9.188 0 00.137-1.589c0-.538-.045-1.067-.137-1.589a4.732 4.732 0 00-.46-1.395 2.825 2.825 0 00-.846-.992c-.35-.253-.783-.38-1.3-.38-.515 0-.948.127-1.298.38-.35.252-.632.583-.847.992a4.732 4.732 0 00-.46 1.395 9.188 9.188 0 00-.137 1.59c0 .537.046 1.067.137 1.588.092.522.245.99.46 1.404.215.414.498.747.847 1 .35.253.783.38 1.299.38zM24.42 328.636c-.742 0-1.37-.167-1.887-.5a4.14 4.14 0 01-1.275-1.299 5.75 5.75 0 01-.726-1.79 8.88 8.88 0 01-.225-1.977c0-.656.075-1.315.225-1.976.151-.661.393-1.256.726-1.783a4.17 4.17 0 011.275-1.29c.516-.334 1.145-.5 1.887-.5.732 0 1.358.166 1.88.5.522.333.946.763 1.274 1.29.328.527.57 1.122.726 1.783.156.661.234 1.32.234 1.976 0 .656-.078 1.315-.234 1.976a6.02 6.02 0 01-.726 1.791 4.029 4.029 0 01-1.274 1.299c-.522.333-1.148.5-1.88.5zm0-1.194c.517 0 .95-.126 1.3-.379.349-.253.631-.586.846-1 .215-.414.368-.882.46-1.404a9.188 9.188 0 00.137-1.589c0-.538-.046-1.067-.137-1.589a4.732 4.732 0 00-.46-1.395 2.825 2.825 0 00-.847-.992c-.35-.253-.782-.38-1.299-.38-.516 0-.949.127-1.298.38-.35.252-.632.583-.847.992a4.732 4.732 0 00-.46 1.395 9.188 9.188 0 00-.137 1.59c0 .537.046 1.067.137 1.588.091.522.245.99.46 1.404.215.414.497.747.847 1s.782.38 1.298.38z" fill="#000" fill-rule="nonzero"/><path stroke="#F7B500" stroke-width="1.55" d="M69.343 219.996l57.203 4.475 115.02-11.169 59.292 5.585 55.372 13.755 57.439-8.17 58.794-17.71 56.44 25.88 58.538-41.47 57.12-13.91 59.807 7.422"/><path stroke="#BE85EA" stroke-width="1.55" d="M69.343 232.642l59.866-27.69 54.982-34.468 58.26 40.11 56.54 3.944 56.54 23.415 61.78 3.181 55.766-8.492h55.827l58.988-14.973 56.737 8.746 59.739 18.812"/><path stroke="#1BEFCE" stroke-width="1.55" d="M69.343 158.516l56.486 6.8 56.492-13.302 59.185-10.544 57.255 7.245 57.706 33.6 58.24-36.523 57.58-15.163 57.486-32.607 56.672 17.937 58.994-8.91 59.174-27.039"/><path stroke="#FBE24B" stroke-width="1.55" d="M69.343 83.012l57.34-39.19 56.595-5.194"/><path fill="url(#a)" d="M69.343 158.516l56.967 7.214 56.968-13.962 58.228-10.298 57.255 7.245 57.706 33.6 58.24-36.523 57.896-14.63 57.17-33.14 56.672 17.937 58.994-8.91 58.764-27.039V207.364H69.585z"/><path fill="url(#b)" d="M69.343 219.996l57.203 4.475 115.02-11.169 59.292 5.585 56.556 13.528 56.255-7.944 58.794-17.708 58.545 25.652 56.433-41.243 57.12-13.91 59.642 7.708v47.445l-.243-7.944H69.343z"/><path fill="url(#c)" d="M69.343 232.642l56.967-24.787 56.968-37.371L245.42 212.1l53.57 2.438 61.2 24.592 57.12 2.004 55.766-8.492h55.827l58.988-14.973 56.737 8.746 59.574 18.812V318.7H69.585z"/><g fill="#000" fill-rule="nonzero"><path d="M53.404 349.318l1.989-3.005a2.259 2.259 0 01-.724-.188 2.018 2.018 0 01-.613-.42 1.98 1.98 0 01-.426-.651 2.293 2.293 0 01-.16-.884c0-.339.057-.645.172-.917a2.037 2.037 0 011.215-1.149c.283-.103.594-.155.933-.155h2.96v7.369h-.916v-2.928h-1.48l-1.878 2.928h-1.072zm4.43-3.734v-2.817H55.89c-.435 0-.788.129-1.06.387-.273.257-.41.596-.41 1.016 0 .42.137.76.41 1.022.272.261.625.392 1.06.392h1.944zm2.596 3.734v-5.336h.829v2.22h2.784v-2.22h.828v5.336h-.828v-2.386h-2.784v2.386h-.829zm9.684-2.75a1.32 1.32 0 01.679.473c.088.12.158.248.21.388.051.14.077.287.077.442 0 .434-.136.784-.409 1.05-.272.264-.655.397-1.149.397h-2.994v-5.336h2.939c.471 0 .84.127 1.105.381s.397.584.397.989c0 .324-.086.59-.26.795a1.305 1.305 0 01-.601.42l.006.002zm-.758 2.02c.266 0 .475-.071.63-.215.155-.143.232-.344.232-.602a.852.852 0 00-.22-.574c-.148-.17-.362-.254-.642-.254h-2v1.646h2zm-.033-2.374c.258 0 .455-.07.591-.21a.73.73 0 00.205-.53c0-.236-.068-.422-.205-.558-.136-.137-.333-.205-.59-.205h-1.967v1.503h1.966zm6.662 3.104v-.608c-.45.494-1.039.74-1.768.74-.228 0-.453-.036-.674-.11a1.757 1.757 0 01-1.027-.895 1.682 1.682 0 01-.166-.762c0-.295.055-.552.166-.773a1.694 1.694 0 011.027-.879c.221-.07.446-.105.674-.105a2.7 2.7 0 011 .177c.298.118.554.302.768.553v-.962c0-.36-.127-.638-.381-.834-.254-.195-.577-.292-.967-.292-.626 0-1.171.246-1.635.74l-.387-.575c.567-.589 1.278-.883 2.133-.883.28 0 .545.033.795.099s.47.171.657.315c.188.143.337.33.448.558.11.228.165.504.165.828v3.668h-.828zm-1.47-.464c.295 0 .573-.055.835-.166a1.49 1.49 0 00.635-.497v-1.005a1.49 1.49 0 00-.635-.497 2.12 2.12 0 00-.834-.166c-.39 0-.708.109-.95.326a1.08 1.08 0 00-.365.845c0 .339.121.617.364.834.243.217.56.326.95.326zm6.585.597c-.369 0-.707-.081-1.017-.244a2.21 2.21 0 01-.784-.695v2.839h-.829v-7.369h.829v.796c.192-.273.446-.496.762-.669a2.13 2.13 0 011.039-.26c.353 0 .675.065.966.194.291.129.542.313.752.552.21.24.372.532.486.878.114.347.17.737.17 1.172 0 .434-.056.824-.17 1.17-.114.347-.276.641-.486.884-.21.243-.46.43-.752.558a2.36 2.36 0 01-.966.194zm-.21-.74c.265 0 .504-.052.718-.155.213-.103.394-.247.541-.431.148-.184.26-.403.337-.657.078-.255.116-.529.116-.823 0-.295-.038-.568-.116-.818a1.954 1.954 0 00-.337-.652 1.544 1.544 0 00-.541-.43 1.63 1.63 0 00-.718-.155c-.332 0-.643.083-.934.248-.29.166-.51.367-.657.602v2.409c.147.235.366.438.657.607.291.17.602.254.934.254zm4.728-4.729v2.066h2c.272 0 .513.044.723.133.21.088.387.208.53.359.144.15.251.324.32.519.07.195.106.403.106.624 0 .22-.037.43-.11.63-.074.199-.181.372-.321.519-.14.147-.315.265-.525.353-.21.089-.45.133-.723.133H84.79v-5.336h.828zm0 2.795v1.812h1.911c.302 0 .53-.085.685-.254a.93.93 0 00.232-.652.948.948 0 00-.226-.646c-.151-.173-.381-.26-.69-.26h-1.912zM115.325 349.318v-.718a5.214 5.214 0 01-1.431-.287 3.373 3.373 0 01-1.077-.619 2.668 2.668 0 01-.68-.906 2.73 2.73 0 01-.237-1.149 2.613 2.613 0 01.917-2.038c.294-.254.653-.46 1.077-.619.423-.158.9-.256 1.43-.292v-.74h.917v.74c.53.036 1.008.134 1.431.292a3.59 3.59 0 011.083.619c.298.254.526.554.685.9.158.346.237.726.237 1.138 0 .42-.079.803-.237 1.15a2.638 2.638 0 01-.685.905c-.299.258-.66.464-1.083.619-.423.154-.9.25-1.43.287v.718h-.917zm3.402-3.679c0-.589-.219-1.075-.657-1.458-.438-.383-1.048-.608-1.829-.674v4.264c.781-.066 1.39-.29 1.829-.674.438-.383.657-.869.657-1.458zm-5.877 0c0 .59.215 1.075.646 1.458.431.383 1.04.608 1.829.674v-4.264c-.789.066-1.398.291-1.829.674-.43.383-.646.869-.646 1.458zm10.627 3.812a2.85 2.85 0 01-1.093-.205 2.504 2.504 0 01-.856-.574 2.67 2.67 0 01-.564-.884 3.068 3.068 0 01-.204-1.143c0-.383.066-.746.199-1.089.132-.342.315-.639.546-.889.232-.25.509-.45.829-.597.32-.147.672-.22 1.055-.22.405 0 .766.073 1.083.22.316.148.585.35.806.608.221.258.389.562.503.911.114.35.171.724.171 1.122v.21h-4.32c.015.25.07.488.166.712a1.838 1.838 0 00.983.983c.229.1.487.15.774.15a2.336 2.336 0 001.646-.674l.398.541a2.706 2.706 0 01-.928.608c-.354.14-.752.21-1.194.21zm1.658-3.138c0-.199-.035-.403-.105-.613a1.769 1.769 0 00-.32-.574 1.668 1.668 0 00-.548-.426 1.735 1.735 0 00-.784-.166c-.287 0-.538.056-.751.166-.214.11-.392.25-.536.42a2.006 2.006 0 00-.458 1.193h3.502zm5.74.256a1.32 1.32 0 01.679.473c.087.118.157.247.209.387.052.14.077.287.077.442 0 .434-.136.784-.408 1.05-.273.264-.656.397-1.15.397h-2.993v-5.336h2.938c.472 0 .84.127 1.105.381s.398.584.398.989c0 .324-.087.59-.26.795a1.305 1.305 0 01-.602.42l.006.002zm-.758 2.02c.265 0 .475-.072.63-.216.154-.143.232-.344.232-.602a.852.852 0 00-.221-.574c-.148-.17-.361-.254-.641-.254h-2v1.646h2zm-.033-2.375c.258 0 .455-.07.59-.21a.73.73 0 00.205-.53c0-.236-.068-.422-.204-.558-.136-.137-.333-.205-.591-.205h-1.967v1.503h1.967zm5.954 3.237c-.368 0-.707-.081-1.016-.244a2.21 2.21 0 01-.784-.695v2.839h-.829v-7.369h.829v.796c.191-.273.445-.496.762-.669a2.13 2.13 0 011.038-.26c.354 0 .676.065.967.194.29.129.541.313.751.552.21.24.372.532.486.878.114.347.171.737.171 1.172 0 .434-.057.824-.17 1.17-.115.347-.277.641-.487.884-.21.243-.46.43-.751.558a2.36 2.36 0 01-.967.194zm-.21-.74c.266 0 .505-.052.718-.155.214-.103.394-.247.542-.431.147-.184.26-.403.337-.657.077-.255.116-.529.116-.823 0-.295-.039-.568-.116-.818a1.954 1.954 0 00-.337-.652 1.544 1.544 0 00-.542-.43 1.63 1.63 0 00-.718-.155c-.331 0-.642.083-.933.248-.291.166-.51.367-.657.602v2.409c.147.235.366.438.657.607.29.17.602.254.933.254zm7.236.607v-.608c-.449.494-1.038.74-1.767.74-.228 0-.453-.036-.674-.11a1.757 1.757 0 01-1.027-.895 1.682 1.682 0 01-.166-.762c0-.295.055-.552.166-.773a1.694 1.694 0 011.027-.879c.22-.07.446-.105.674-.105a2.7 2.7 0 011 .177c.298.118.554.302.767.553v-.962c0-.36-.127-.638-.38-.834-.255-.195-.577-.292-.967-.292-.626 0-1.171.246-1.635.74l-.387-.575c.567-.589 1.278-.883 2.132-.883.28 0 .545.033.796.099.25.066.469.171.657.315.188.143.337.33.447.558.11.228.166.504.166.828v3.668h-.829zm-1.469-.464c.295 0 .573-.055.834-.166a1.49 1.49 0 00.635-.497v-1.005a1.49 1.49 0 00-.635-.497 2.12 2.12 0 00-.834-.166c-.39 0-.707.109-.95.326a1.08 1.08 0 00-.365.845c0 .339.122.617.365.834.243.217.56.326.95.326zm3.325-.088c.25 0 .457-.162.619-.486.162-.325.295-.88.398-1.669l.342-2.629h3.712v5.336h-.828v-4.607h-2.155l-.243 2c-.059.5-.14.924-.243 1.27-.103.346-.23.628-.38.845a1.403 1.403 0 01-.531.475c-.203.1-.433.15-.69.15v-.685zm7.557-4.784v2.066h2c.272 0 .513.044.723.133.21.088.387.208.53.359.144.15.25.324.32.519s.106.403.106.624c0 .22-.037.43-.11.63-.075.199-.181.372-.321.519-.14.147-.315.265-.525.353-.21.089-.451.133-.724.133h-2.828v-5.336h.829zm0 2.795v1.812h1.91c.303 0 .531-.085.686-.254a.93.93 0 00.232-.652.948.948 0 00-.227-.646c-.15-.173-.38-.26-.69-.26h-1.911zM186.689 349.318v-6.065l-2.508 6.065h-.376l-2.496-6.065v6.065h-.917v-7.369h1.314l2.287 5.546 2.298-5.546h1.315v7.369h-.917zm5.943 0v-.608c-.45.494-1.038.74-1.767.74-.229 0-.453-.036-.674-.11a1.757 1.757 0 01-1.027-.895 1.682 1.682 0 01-.166-.762c0-.295.055-.552.165-.773a1.694 1.694 0 011.028-.879c.22-.07.445-.105.674-.105a2.7 2.7 0 011 .177c.298.118.554.302.767.553v-.962c0-.36-.127-.638-.381-.834-.254-.195-.576-.292-.967-.292-.626 0-1.17.246-1.635.74l-.386-.575c.567-.589 1.277-.883 2.132-.883.28 0 .545.033.795.099s.47.171.658.315c.187.143.336.33.447.558.11.228.166.504.166.828v3.668h-.829zm-1.47-.464c.295 0 .573-.055.835-.166a1.49 1.49 0 00.635-.497v-1.005a1.49 1.49 0 00-.635-.497 2.12 2.12 0 00-.834-.166c-.39 0-.707.109-.95.326a1.08 1.08 0 00-.365.845c0 .339.122.617.365.834.243.217.56.326.95.326zm6.585.597c-.368 0-.707-.081-1.016-.244a2.21 2.21 0 01-.785-.695v2.839h-.828v-7.369h.828v.796c.192-.273.446-.496.763-.669a2.13 2.13 0 011.038-.26c.354 0 .676.065.967.194.29.129.541.313.75.552.21.24.373.532.487.878.114.347.171.737.171 1.172 0 .434-.057.824-.171 1.17-.114.347-.276.641-.486.884-.21.243-.46.43-.751.558a2.36 2.36 0 01-.967.194zm-.21-.74c.265 0 .505-.052.718-.155.214-.103.394-.247.542-.431.147-.184.26-.403.336-.657.078-.255.116-.529.116-.823 0-.295-.038-.568-.116-.818a1.954 1.954 0 00-.336-.652 1.544 1.544 0 00-.542-.43 1.63 1.63 0 00-.718-.155c-.331 0-.642.083-.933.248-.291.166-.51.367-.658.602v2.409c.148.235.367.438.658.607.29.17.602.254.933.254zm4.872.607v-4.607h-1.547v-.729h3.933v.73h-1.557v4.606h-.829zM232.968 349.318l-.652-1.635h-3.667l-.652 1.635h-1.05l2.961-7.369h1.138l2.972 7.369h-1.05zm-2.485-6.419l-1.57 3.966h3.127l-1.557-3.966zm8.075 6.419v-4.607h-2.784v4.607h-.828v-5.336h4.44v5.336h-.828zm5.115.133c-.368 0-.707-.081-1.016-.244a2.21 2.21 0 01-.785-.695v2.839h-.828v-7.369h.828v.796c.192-.273.446-.496.763-.669a2.13 2.13 0 011.038-.26c.354 0 .676.065.967.194.29.129.541.313.75.552.21.24.373.532.487.878.114.347.171.737.171 1.172 0 .434-.057.824-.171 1.17-.114.347-.276.641-.486.884-.21.243-.46.43-.751.558a2.36 2.36 0 01-.967.194zm-.21-.74c.265 0 .505-.052.718-.155.214-.103.394-.247.542-.431.147-.184.26-.403.336-.657.078-.255.116-.529.116-.823 0-.295-.038-.568-.116-.818a1.954 1.954 0 00-.336-.652 1.544 1.544 0 00-.542-.43 1.63 1.63 0 00-.718-.155c-.331 0-.642.083-.933.248-.291.166-.51.367-.658.602v2.409c.148.235.367.438.658.607.29.17.602.254.933.254zm6.308.74a2.85 2.85 0 01-1.093-.205 2.504 2.504 0 01-.857-.574 2.67 2.67 0 01-.563-.884 3.068 3.068 0 01-.204-1.143c0-.383.066-.746.198-1.089.133-.342.315-.639.547-.889.232-.25.508-.45.829-.597.32-.147.672-.22 1.055-.22.405 0 .766.073 1.082.22.317.148.586.35.807.608.22.258.388.562.503.911.114.35.17.724.17 1.122v.21h-4.319c.015.25.07.488.166.712a1.838 1.838 0 00.983.983c.229.1.486.15.774.15a2.336 2.336 0 001.646-.674l.397.541a2.706 2.706 0 01-.928.608c-.353.14-.75.21-1.193.21zm1.657-3.138c0-.199-.035-.403-.105-.613a1.769 1.769 0 00-.32-.574 1.668 1.668 0 00-.547-.426 1.735 1.735 0 00-.784-.166c-.287 0-.538.056-.751.166-.214.11-.393.25-.536.42a2.006 2.006 0 00-.458 1.193h3.501zm1.525 2.453c.25 0 .456-.162.618-.486.163-.325.295-.88.398-1.669l.343-2.629h3.712v5.336h-.829v-4.607h-2.154l-.243 2c-.06.5-.14.924-.243 1.27-.103.346-.23.628-.381.845a1.403 1.403 0 01-.53.475c-.203.1-.433.15-.691.15v-.685zm7.556-4.784v2.066h2c.272 0 .513.044.723.133.21.088.387.208.53.359.144.15.251.324.321.519s.105.403.105.624c0 .22-.037.43-.11.63-.074.199-.18.372-.32.519-.14.147-.316.265-.526.353-.21.089-.45.133-.723.133h-2.828v-5.336h.828zm0 2.795v1.812h1.911c.302 0 .53-.085.685-.254a.93.93 0 00.232-.652.948.948 0 00-.226-.646c-.151-.173-.381-.26-.69-.26h-1.912zM299.417 349.318v-6.065l-2.508 6.065h-.376l-2.496-6.065v6.065h-.917v-7.369h1.314l2.287 5.546 2.298-5.546h1.315v7.369h-.917zm5.943 0v-.608c-.449.494-1.038.74-1.767.74-.229 0-.453-.036-.674-.11a1.757 1.757 0 01-1.027-.895 1.682 1.682 0 01-.166-.762c0-.295.055-.552.165-.773a1.694 1.694 0 011.028-.879c.22-.07.445-.105.674-.105a2.7 2.7 0 011 .177c.298.118.554.302.767.553v-.962c0-.36-.127-.638-.38-.834-.255-.195-.577-.292-.968-.292-.626 0-1.17.246-1.635.74l-.386-.575c.567-.589 1.278-.883 2.132-.883.28 0 .545.033.795.099s.47.171.658.315c.187.143.337.33.447.558.11.228.166.504.166.828v3.668h-.829zm-1.47-.464c.296 0 .574-.055.835-.166a1.49 1.49 0 00.635-.497v-1.005a1.49 1.49 0 00-.635-.497 2.12 2.12 0 00-.834-.166c-.39 0-.707.109-.95.326a1.08 1.08 0 00-.365.845c0 .339.122.617.365.834.243.217.56.326.95.326zm3.956.464v-5.336h.828v4.077l2.795-4.077h.818v5.336h-.829v-4.154l-2.817 4.154h-.795zm4.154-6.916a2.363 2.363 0 01-1.934.972 2.36 2.36 0 01-1.099-.26 2.465 2.465 0 01-.845-.712l.409-.353c.177.243.394.436.652.58.257.143.552.215.883.215.324 0 .617-.07.879-.21.261-.14.477-.335.646-.585l.409.353zM344.613 349.318v-7.369h.917v5.756l4.242-5.756h.939v7.369h-.917v-5.877l-4.297 5.877h-.884zm12.262.133c-.375 0-.718-.065-1.027-.194a2.472 2.472 0 01-.806-.536 2.563 2.563 0 01-.542-.8 3.118 3.118 0 01-.243-.99h-1.027v2.387h-.829v-5.336h.829v2.22h1.038c.044-.33.136-.64.276-.927a2.52 2.52 0 01.547-.746 2.54 2.54 0 011.784-.68c.405 0 .772.074 1.1.221.327.148.607.347.84.597.231.25.408.547.53.89.121.342.182.705.182 1.088 0 .39-.061.754-.183 1.093a2.522 2.522 0 01-1.37 1.491c-.327.148-.694.222-1.099.222zm0-.74a1.637 1.637 0 001.32-.625 1.96 1.96 0 00.343-.657c.077-.25.116-.512.116-.784 0-.273-.039-.533-.116-.78a1.968 1.968 0 00-.342-.651 1.637 1.637 0 00-1.32-.624c-.28 0-.53.057-.752.17-.22.115-.407.266-.558.454a1.968 1.968 0 00-.342.652 2.589 2.589 0 00-.116.779c0 .272.038.533.116.784.077.25.191.47.342.657.151.188.337.339.558.453.221.114.472.171.751.171zm4 .607v-5.336h.828v2.22h2.784v-2.22h.829v5.336h-.829v-2.386h-2.784v2.386h-.828zm6.926-5.336v2.066h2c.272 0 .514.044.723.133.21.088.387.208.53.359.144.15.251.324.321.519s.105.403.105.624c0 .22-.037.43-.11.63-.074.199-.18.372-.32.519-.14.147-.316.265-.526.353-.21.089-.45.133-.723.133h-2.828v-5.336h.828zm0 2.795v1.812h1.911c.302 0 .53-.085.685-.254a.93.93 0 00.232-.652.948.948 0 00-.226-.646c-.151-.173-.381-.26-.69-.26H367.8zM400.281 349.318v-7.369h.917v5.756l4.242-5.756h.94v7.369h-.918v-5.877l-4.297 5.877h-.884zm12.263.133c-.376 0-.718-.065-1.028-.194a2.472 2.472 0 01-.806-.536 2.563 2.563 0 01-.542-.8 3.118 3.118 0 01-.243-.99h-1.027v2.387h-.829v-5.336h.829v2.22h1.038c.045-.33.137-.64.277-.927a2.52 2.52 0 01.546-.746 2.54 2.54 0 011.785-.68c.405 0 .771.074 1.099.221.328.148.607.347.84.597.231.25.408.547.53.89.121.342.182.705.182 1.088 0 .39-.06.754-.182 1.093a2.522 2.522 0 01-1.37 1.491c-.328.148-.694.222-1.1.222zm0-.74a1.637 1.637 0 001.32-.625 1.96 1.96 0 00.342-.657c.078-.25.116-.512.116-.784 0-.273-.038-.533-.116-.78a1.968 1.968 0 00-.342-.651 1.637 1.637 0 00-1.32-.624c-.28 0-.53.057-.752.17-.22.115-.407.266-.557.454a1.968 1.968 0 00-.343.652 2.589 2.589 0 00-.116.779c0 .272.039.533.116.784.077.25.192.47.343.657.15.188.336.339.557.453.221.114.472.171.752.171zm3.37.055c.25 0 .456-.162.618-.486.162-.325.294-.88.397-1.669l.343-2.629h3.712v5.336h-.829v-4.607h-2.154l-.243 2c-.059.5-.14.924-.243 1.27-.103.346-.23.628-.381.845a1.403 1.403 0 01-.53.475c-.203.1-.433.15-.69.15v-.685zm7.555-4.784v2.066h2c.273 0 .514.044.724.133.21.088.386.208.53.359.144.15.25.324.32.519s.105.403.105.624c0 .22-.037.43-.11.63-.074.199-.18.372-.32.519-.14.147-.315.265-.525.353-.21.089-.451.133-.724.133h-2.828v-5.336h.828zm0 2.795v1.812h1.912c.302 0 .53-.085.685-.254a.93.93 0 00.232-.652.948.948 0 00-.227-.646c-.15-.173-.381-.26-.69-.26h-1.912zM455.641 349.318l-.652-1.635h-3.668l-.651 1.635h-1.05l2.96-7.369h1.139l2.971 7.369h-1.049zm-2.486-6.419l-1.568 3.966h3.126l-1.558-3.966zm8.049 3.67a1.32 1.32 0 01.679.473c.088.118.158.247.21.387.051.14.077.287.077.442 0 .434-.136.784-.409 1.05-.272.264-.655.397-1.149.397h-2.994v-5.336h2.939c.471 0 .84.127 1.105.381s.397.584.397.989c0 .324-.086.59-.26.795a1.305 1.305 0 01-.601.42l.006.002zm-.757 2.02c.265 0 .475-.072.63-.216.154-.143.231-.344.231-.602a.852.852 0 00-.22-.574c-.148-.17-.362-.254-.641-.254h-2v1.646h2zm-.034-2.375c.258 0 .455-.07.591-.21a.73.73 0 00.205-.53c0-.236-.068-.422-.205-.558-.136-.137-.333-.205-.59-.205h-1.967v1.503h1.966zm7.06-1.503h-2.906v4.607h-.828v-5.336h3.734v.73zm.917 5.944c.059.03.132.051.22.066.089.015.166.022.233.022a.867.867 0 00.464-.116c.125-.077.235-.226.331-.447l.353-.807-2.231-5.39h.895l1.778 4.374 1.768-4.375h.906l-2.674 6.419c-.162.39-.375.666-.64.828a1.819 1.819 0 01-.928.254c-.089 0-.192-.007-.31-.022a2.186 2.186 0 01-.298-.055l.133-.751zm7.932-1.204c-.398 0-.76-.072-1.089-.216a2.493 2.493 0 01-.84-.59 2.682 2.682 0 01-.54-.89 3.127 3.127 0 01-.194-1.11c0-.398.065-.766.194-1.105.128-.339.309-.634.54-.884.233-.25.513-.447.84-.591.328-.144.69-.215 1.089-.215.486 0 .882.088 1.187.265.306.176.562.397.768.663l-.552.508a1.657 1.657 0 00-.602-.53 1.692 1.692 0 00-.757-.166c-.287 0-.543.051-.768.154a1.719 1.719 0 00-.58.431 1.891 1.891 0 00-.37.652c-.085.25-.127.523-.127.818 0 .294.042.568.127.823.085.254.208.473.37.657.162.184.355.328.58.43.225.104.48.155.768.155.56 0 1.012-.232 1.359-.696l.552.509a2.625 2.625 0 01-.768.662c-.305.177-.701.266-1.187.266zm4.087-.133v-4.607h-1.546v-.729h3.932v.73h-1.557v4.606h-.829zM498.408 349.45c-.53 0-1.026-.092-1.486-.276a3.629 3.629 0 01-1.204-.778 3.605 3.605 0 01-.807-1.205 3.992 3.992 0 01-.292-1.552c0-.567.097-1.084.292-1.552.196-.468.464-.869.807-1.204a3.629 3.629 0 011.204-.779c.46-.184.956-.276 1.486-.276.324 0 .624.037.9.11.277.074.53.177.763.31.232.132.441.287.63.464.187.176.355.368.502.574l-.773.431a2.545 2.545 0 00-.857-.768 2.323 2.323 0 00-1.165-.304c-.405 0-.78.074-1.127.221a2.693 2.693 0 00-.9.619c-.254.265-.453.58-.597.945a3.274 3.274 0 00-.215 1.21c0 .434.072.835.215 1.203.144.369.343.685.597.95.254.266.554.472.9.62.346.146.722.22 1.127.22.42 0 .808-.1 1.165-.298.358-.2.643-.457.857-.774l.784.431c-.31.42-.69.768-1.143 1.044-.453.276-1.008.415-1.663.415zm6.352 0a2.85 2.85 0 01-1.094-.204 2.504 2.504 0 01-.856-.574 2.67 2.67 0 01-.563-.884 3.068 3.068 0 01-.204-1.143c0-.383.066-.746.198-1.089.133-.342.315-.639.547-.889.232-.25.508-.45.829-.597.32-.147.672-.22 1.055-.22.405 0 .766.073 1.082.22.317.148.586.35.807.608.22.258.388.562.503.911.114.35.17.724.17 1.122v.21h-4.319c.015.25.07.488.166.712a1.838 1.838 0 00.983.983c.229.1.486.15.774.15a2.336 2.336 0 001.646-.674l.397.541a2.706 2.706 0 01-.928.608c-.353.14-.75.21-1.193.21zm1.657-3.137c0-.199-.035-.403-.105-.613a1.769 1.769 0 00-.32-.574 1.668 1.668 0 00-.547-.426 1.735 1.735 0 00-.784-.166c-.287 0-.538.056-.751.166-.214.11-.393.25-.536.42a2.006 2.006 0 00-.458 1.193h3.501zm2.155 3.005v-5.336h.828v2.22h2.784v-2.22h.829v5.336h-.829v-2.386H509.4v2.386h-.828zm7.07 0v-4.607h-1.547v-.729h3.933v.73h-1.558v4.606h-.828zm3.292 0l1.425-2.099a1.554 1.554 0 01-.983-.503c-.258-.283-.387-.65-.387-1.099 0-.228.037-.442.11-.64a1.462 1.462 0 01.857-.868c.21-.085.45-.127.723-.127h2.818v5.336h-.83v-2.066h-1.457l-1.304 2.066h-.972zm3.734-2.795v-1.812h-1.9c-.295 0-.523.085-.685.254a.904.904 0 00-.243.652.93.93 0 00.232.652c.154.17.386.254.696.254h1.9zm4.817 2.187c.287 0 .54-.057.756-.17.218-.115.402-.266.553-.454a1.96 1.96 0 00.342-.657 2.68 2.68 0 000-1.563 1.968 1.968 0 00-.342-.652 1.737 1.737 0 00-.553-.453 1.604 1.604 0 00-.756-.171 1.637 1.637 0 00-1.32.624 1.968 1.968 0 00-.343.652 2.68 2.68 0 000 1.563c.077.25.191.47.342.657a1.637 1.637 0 001.32.624zm0 .74c-.413 0-.781-.075-1.105-.226a2.378 2.378 0 01-.829-.635 2.879 2.879 0 01-.524-.967 3.911 3.911 0 01-.183-1.22c0-.649.06-1.207.177-1.674.118-.468.293-.856.525-1.166.232-.309.523-.55.873-.723.35-.173.756-.29 1.22-.348.295-.044.538-.087.73-.127a3.08 3.08 0 00.458-.127.791.791 0 00.243-.133.204.204 0 00.072-.155h.806c0 .221-.066.404-.199.547-.132.144-.302.26-.508.348a3.581 3.581 0 01-.68.21 9.32 9.32 0 01-.712.122c-.398.059-.729.143-.994.254-.265.11-.483.243-.652.397-.17.155-.3.33-.392.525-.092.195-.16.407-.204.635.095-.154.21-.3.342-.436.133-.136.284-.256.453-.359.17-.103.355-.186.558-.249.202-.062.421-.093.657-.093.376 0 .718.073 1.028.22.309.148.572.348.79.603.217.254.384.55.502.889.118.339.177.696.177 1.071 0 .383-.06.746-.177 1.089-.118.342-.29.64-.52.894a2.544 2.544 0 01-.828.608 2.587 2.587 0 01-1.104.227zm6.672 0c-.368 0-.707-.08-1.016-.243a2.21 2.21 0 01-.785-.695v2.839h-.828v-7.369h.828v.796c.192-.273.446-.496.763-.669a2.13 2.13 0 011.038-.26c.354 0 .676.065.967.194.29.129.541.313.751.552.21.24.372.532.486.878.114.347.171.737.171 1.172 0 .434-.057.824-.17 1.17-.115.347-.277.641-.487.884-.21.243-.46.43-.751.558a2.36 2.36 0 01-.967.194zm-.21-.74c.265 0 .505-.051.718-.154.214-.103.394-.247.542-.431.147-.184.26-.403.337-.657.077-.255.116-.529.116-.823 0-.295-.039-.568-.116-.818a1.954 1.954 0 00-.337-.652 1.544 1.544 0 00-.542-.43 1.63 1.63 0 00-.718-.155c-.331 0-.642.083-.933.248-.291.166-.51.367-.658.602v2.409c.148.235.367.438.658.607.29.17.602.254.933.254zm4.729-4.728v2.066h2c.272 0 .513.044.723.133.21.088.386.208.53.359.144.15.25.324.32.519s.105.403.105.624c0 .22-.036.43-.11.63-.074.199-.18.372-.32.519-.14.147-.315.265-.525.353-.21.089-.451.133-.724.133h-2.828v-5.336h.829zm0 2.795v1.812h1.91c.303 0 .531-.085.686-.254a.93.93 0 00.232-.652.948.948 0 00-.227-.646c-.15-.173-.38-.26-.69-.26h-1.911zM560.902 349.45a3.766 3.766 0 01-1.491-.287 3.368 3.368 0 01-1.155-.8 3.653 3.653 0 01-.745-1.21 4.217 4.217 0 01-.266-1.514c0-.545.089-1.05.266-1.513.176-.464.425-.867.745-1.21.32-.342.705-.61 1.155-.8.449-.192.946-.288 1.491-.288.545 0 1.042.096 1.492.287.449.192.834.459 1.154.801.32.343.569.746.746 1.21.176.464.265.968.265 1.513 0 .545-.089 1.05-.265 1.514a3.653 3.653 0 01-.746 1.21c-.32.342-.705.609-1.154.8-.45.192-.947.288-1.492.288zm0-.817c.413 0 .784-.075 1.116-.226a2.49 2.49 0 00.85-.63 2.88 2.88 0 00.547-.95c.13-.365.194-.76.194-1.188 0-.427-.065-.825-.194-1.193a2.807 2.807 0 00-.546-.95 2.524 2.524 0 00-.851-.624 2.661 2.661 0 00-1.116-.227 2.7 2.7 0 00-1.121.227 2.51 2.51 0 00-.856.624 2.737 2.737 0 00-.542.95 3.683 3.683 0 00-.187 1.193c0 .427.062.823.187 1.188.126.364.306.681.542.95.235.269.52.479.856.63a2.7 2.7 0 001.121.226zm8.694.685l-1.922-2.397-.884.872v1.525h-.828v-5.336h.828v2.84l2.806-2.84h1.05l-2.364 2.42 2.375 2.916h-1.06zm3.016 0v-4.607h-1.546v-.729h3.933v.73h-1.558v4.606h-.829zm3.292 0l1.426-2.099a1.554 1.554 0 01-.984-.503c-.257-.283-.386-.65-.386-1.099 0-.228.036-.442.11-.64a1.462 1.462 0 01.856-.868c.21-.085.451-.127.724-.127h2.817v5.336h-.829v-2.066h-1.458l-1.303 2.066h-.973zm3.734-2.795v-1.812h-1.9c-.294 0-.523.085-.685.254a.904.904 0 00-.243.652.93.93 0 00.232.652c.155.17.387.254.696.254h1.9zm4.817 2.187c.287 0 .54-.057.757-.17.217-.115.401-.266.552-.454a1.96 1.96 0 00.343-.657 2.68 2.68 0 000-1.563 1.968 1.968 0 00-.343-.652 1.737 1.737 0 00-.552-.453 1.604 1.604 0 00-.757-.171 1.637 1.637 0 00-1.32.624 1.968 1.968 0 00-.343.652 2.68 2.68 0 000 1.563c.078.25.192.47.343.657a1.637 1.637 0 001.32.624zm0 .74c-.412 0-.78-.075-1.105-.226a2.378 2.378 0 01-.828-.635 2.879 2.879 0 01-.525-.967 3.911 3.911 0 01-.182-1.22c0-.649.059-1.207.177-1.674.117-.468.292-.856.524-1.166.232-.309.523-.55.873-.723.35-.173.757-.29 1.22-.348.295-.044.538-.087.73-.127a3.08 3.08 0 00.458-.127.791.791 0 00.243-.133.204.204 0 00.072-.155h.807c0 .221-.067.404-.2.547-.132.144-.301.26-.507.348a3.581 3.581 0 01-.68.21 9.32 9.32 0 01-.712.122c-.398.059-.73.143-.995.254-.265.11-.482.243-.651.397-.17.155-.3.33-.393.525-.092.195-.16.407-.204.635.096-.154.21-.3.342-.436.133-.136.284-.256.453-.359.17-.103.356-.186.558-.249.203-.062.422-.093.658-.093.375 0 .718.073 1.027.22.31.148.573.348.79.603.217.254.385.55.503.889.117.339.176.696.176 1.071 0 .383-.059.746-.176 1.089-.118.342-.291.64-.52.894a2.544 2.544 0 01-.828.608 2.587 2.587 0 01-1.105.227zm6.673 0c-.369 0-.707-.08-1.017-.243a2.21 2.21 0 01-.784-.695v2.839h-.829v-7.369h.829v.796c.191-.273.446-.496.762-.669a2.13 2.13 0 011.039-.26c.353 0 .675.065.966.194.291.129.542.313.752.552.21.24.371.532.486.878.114.347.17.737.17 1.172 0 .434-.056.824-.17 1.17-.115.347-.277.641-.486.884-.21.243-.46.43-.752.558a2.36 2.36 0 01-.966.194zm-.21-.74c.265 0 .504-.051.718-.154.213-.103.394-.247.541-.431.147-.184.26-.403.337-.657.077-.255.116-.529.116-.823 0-.295-.039-.568-.116-.818a1.954 1.954 0 00-.337-.652 1.544 1.544 0 00-.541-.43 1.63 1.63 0 00-.718-.155c-.332 0-.643.083-.934.248-.29.166-.51.367-.657.602v2.409c.147.235.366.438.657.607.291.17.602.254.934.254zm4.728-4.728v2.066h2c.272 0 .513.044.723.133.21.088.387.208.53.359.144.15.25.324.32.519s.106.403.106.624c0 .22-.037.43-.11.63-.074.199-.181.372-.321.519-.14.147-.315.265-.525.353-.21.089-.45.133-.723.133h-2.829v-5.336h.829zm0 2.795v1.812h1.911c.302 0 .53-.085.685-.254a.93.93 0 00.232-.652.948.948 0 00-.226-.646c-.151-.173-.381-.26-.69-.26h-1.912zM628.18 349.318v-3.38h-4.31v3.38h-.916v-7.369h.917v3.171h4.308v-3.17h.917v7.368h-.917zm4.937.133c-.405 0-.771-.074-1.099-.221a2.463 2.463 0 01-.834-.602 2.657 2.657 0 01-.525-.89 3.216 3.216 0 01-.182-1.093c0-.383.06-.746.182-1.089.122-.342.297-.639.525-.889a2.5 2.5 0 01.834-.597c.328-.147.694-.22 1.1-.22.404 0 .77.073 1.099.22a2.5 2.5 0 01.834.597c.228.25.403.547.524.89.122.342.183.705.183 1.088 0 .39-.061.754-.183 1.093a2.657 2.657 0 01-.524.89 2.463 2.463 0 01-.834.602c-.328.147-.695.22-1.1.22zm0-.74c.288 0 .54-.058.757-.172.217-.114.402-.265.553-.453a1.96 1.96 0 00.342-.657c.077-.25.116-.512.116-.784 0-.273-.039-.533-.116-.78a1.968 1.968 0 00-.342-.651 1.737 1.737 0 00-.553-.453 1.604 1.604 0 00-.757-.171 1.637 1.637 0 00-1.32.624 1.968 1.968 0 00-.342.652 2.589 2.589 0 00-.116.779c0 .272.038.533.116.784.077.25.191.47.342.657a1.637 1.637 0 001.32.624zm3.812.607l1.425-2.099a1.554 1.554 0 01-.983-.503c-.258-.283-.387-.65-.387-1.099 0-.228.037-.442.11-.64a1.462 1.462 0 01.857-.868c.21-.085.45-.127.723-.127h2.817v5.336h-.828v-2.066h-1.458l-1.304 2.066h-.972zm3.734-2.795v-1.812h-1.9c-.295 0-.523.085-.685.254a.904.904 0 00-.243.652.93.93 0 00.232.652c.154.17.386.254.696.254h1.9zm4.816 2.187c.288 0 .54-.057.757-.17.217-.115.402-.266.553-.454a1.96 1.96 0 00.342-.657 2.68 2.68 0 000-1.563 1.968 1.968 0 00-.342-.652 1.737 1.737 0 00-.553-.453 1.604 1.604 0 00-.757-.171 1.637 1.637 0 00-1.32.624 1.968 1.968 0 00-.342.652 2.68 2.68 0 000 1.563c.077.25.191.47.342.657a1.637 1.637 0 001.32.624zm0 .74c-.412 0-.78-.075-1.104-.226a2.378 2.378 0 01-.829-.635 2.879 2.879 0 01-.525-.967 3.911 3.911 0 01-.182-1.22c0-.649.059-1.207.177-1.674.118-.468.293-.856.525-1.166.232-.309.523-.55.872-.723.35-.173.757-.29 1.221-.348.295-.044.538-.087.73-.127a3.08 3.08 0 00.458-.127.791.791 0 00.243-.133.204.204 0 00.072-.155h.806c0 .221-.066.404-.199.547-.132.144-.302.26-.508.348a3.581 3.581 0 01-.68.21 9.32 9.32 0 01-.712.122c-.398.059-.73.143-.994.254-.265.11-.483.243-.652.397-.17.155-.3.33-.392.525-.092.195-.16.407-.205.635.096-.154.21-.3.343-.436.132-.136.283-.256.453-.359.17-.103.355-.186.558-.249.202-.062.421-.093.657-.093.376 0 .718.073 1.027.22.31.148.573.348.79.603.218.254.385.55.503.889.118.339.177.696.177 1.071 0 .383-.06.746-.177 1.089-.118.342-.291.64-.52.894a2.544 2.544 0 01-.828.608 2.587 2.587 0 01-1.105.227zm6.673 0c-.368 0-.707-.08-1.016-.243a2.21 2.21 0 01-.785-.695v2.839h-.828v-7.369h.828v.796c.192-.273.446-.496.763-.669a2.13 2.13 0 011.038-.26c.354 0 .676.065.967.194.29.129.541.313.75.552.21.24.373.532.487.878.114.347.171.737.171 1.172 0 .434-.057.824-.171 1.17-.114.347-.276.641-.486.884-.21.243-.46.43-.751.558a2.36 2.36 0 01-.967.194zm-.21-.74c.265 0 .505-.051.718-.154.214-.103.394-.247.542-.431.147-.184.26-.403.336-.657.078-.255.116-.529.116-.823 0-.295-.038-.568-.116-.818a1.954 1.954 0 00-.336-.652 1.544 1.544 0 00-.542-.43 1.63 1.63 0 00-.718-.155c-.331 0-.642.083-.933.248-.291.166-.51.367-.658.602v2.409c.148.235.367.438.658.607.29.17.602.254.933.254zm4.728-4.728v2.066h2c.272 0 .514.044.724.133.21.088.386.208.53.359.143.15.25.324.32.519s.105.403.105.624c0 .22-.037.43-.11.63-.074.199-.18.372-.32.519-.14.147-.316.265-.525.353-.21.089-.452.133-.724.133h-2.828v-5.336h.828zm0 2.795v1.812h1.912c.302 0 .53-.085.685-.254a.93.93 0 00.232-.652.948.948 0 00-.227-.646c-.15-.173-.381-.26-.69-.26h-1.912zM682.289 348.578c.22-.015.418-.06.591-.133.173-.073.33-.213.47-.42.14-.206.26-.497.359-.872.099-.376.19-.877.27-1.503l.453-3.7h4.508v6.55h.673v2.177h-.917v-1.359h-5.49v1.359h-.917v-2.1zm2.596-2.861c-.096.78-.24 1.388-.43 1.822-.192.435-.424.755-.697.961h4.265v-5.733h-2.773l-.365 2.95zm8.275 3.734a2.85 2.85 0 01-1.094-.205 2.504 2.504 0 01-.856-.574 2.67 2.67 0 01-.564-.884 3.068 3.068 0 01-.204-1.143c0-.383.066-.746.199-1.089.132-.342.315-.639.547-.889.232-.25.508-.45.828-.597.32-.147.672-.22 1.055-.22.405 0 .766.073 1.083.22.317.148.585.35.806.608.221.258.389.562.503.911.114.35.171.724.171 1.122v.21h-4.32c.015.25.07.488.166.712a1.838 1.838 0 00.984.983c.228.1.486.15.773.15a2.336 2.336 0 001.646-.674l.398.541a2.706 2.706 0 01-.928.608c-.354.14-.752.21-1.193.21zm1.657-3.138c0-.199-.035-.403-.105-.613a1.769 1.769 0 00-.32-.574 1.668 1.668 0 00-.547-.426 1.735 1.735 0 00-.785-.166c-.287 0-.537.056-.751.166-.214.11-.392.25-.536.42a2.006 2.006 0 00-.458 1.193h3.502zm5.789 3.005l-1.923-2.397-.884.872v1.525h-.828v-5.336h.828v2.84l2.807-2.84h1.049l-2.364 2.42 2.375 2.916h-1.06zm5.38 0v-.608c-.45.494-1.039.74-1.768.74-.228 0-.453-.036-.674-.11a1.757 1.757 0 01-1.027-.895 1.682 1.682 0 01-.166-.762c0-.295.055-.552.166-.773a1.694 1.694 0 011.027-.879c.221-.07.446-.105.674-.105a2.7 2.7 0 011 .177c.298.118.554.302.768.553v-.962c0-.36-.127-.638-.382-.834-.254-.195-.576-.292-.966-.292-.626 0-1.171.246-1.635.74l-.387-.575c.567-.589 1.278-.883 2.132-.883.28 0 .545.033.796.099.25.066.47.171.657.315.188.143.337.33.447.558.11.228.166.504.166.828v3.668h-.828zm-1.47-.464c.295 0 .573-.055.834-.166a1.49 1.49 0 00.636-.497v-1.005a1.49 1.49 0 00-.636-.497 2.12 2.12 0 00-.834-.166c-.39 0-.707.109-.95.326a1.08 1.08 0 00-.364.845c0 .339.121.617.364.834.243.217.56.326.95.326zm6.286-.144c.287 0 .54-.057.757-.17.217-.115.401-.266.552-.454a1.96 1.96 0 00.343-.657 2.68 2.68 0 000-1.563 1.968 1.968 0 00-.343-.652 1.737 1.737 0 00-.552-.453 1.604 1.604 0 00-.757-.171 1.637 1.637 0 00-1.32.624 1.968 1.968 0 00-.342.652 2.68 2.68 0 000 1.563c.077.25.191.47.342.657a1.637 1.637 0 001.32.624zm0 .74c-.412 0-.78-.075-1.105-.226a2.378 2.378 0 01-.828-.635 2.879 2.879 0 01-.525-.967 3.911 3.911 0 01-.182-1.22c0-.649.059-1.207.177-1.674.118-.468.292-.856.524-1.166.232-.309.523-.55.873-.723.35-.173.757-.29 1.22-.348.295-.044.539-.087.73-.127a3.08 3.08 0 00.458-.127.791.791 0 00.244-.133.204.204 0 00.071-.155h.807c0 .221-.067.404-.2.547-.132.144-.301.26-.507.348a3.581 3.581 0 01-.68.21 9.32 9.32 0 01-.712.122c-.398.059-.73.143-.994.254-.266.11-.483.243-.652.397-.17.155-.3.33-.392.525-.093.195-.16.407-.205.635.096-.154.21-.3.343-.436.132-.136.283-.256.453-.359.169-.103.355-.186.557-.249.203-.062.422-.093.658-.093.375 0 .718.073 1.027.22.31.148.573.348.79.603.217.254.385.55.503.889.118.339.176.696.176 1.071 0 .383-.058.746-.176 1.089-.118.342-.291.64-.52.894a2.544 2.544 0 01-.828.608 2.587 2.587 0 01-1.105.227zm6.673 0c-.368 0-.707-.08-1.017-.243a2.21 2.21 0 01-.784-.695v2.839h-.828v-7.369h.828v.796c.192-.273.446-.496.762-.669a2.13 2.13 0 011.039-.26c.353 0 .676.065.966.194.291.129.542.313.752.552.21.24.372.532.486.878.114.347.171.737.171 1.172 0 .434-.057.824-.171 1.17-.114.347-.276.641-.486.884-.21.243-.46.43-.752.558a2.36 2.36 0 01-.966.194zm-.21-.74c.265 0 .504-.051.718-.154.214-.103.394-.247.541-.431.148-.184.26-.403.337-.657.078-.255.116-.529.116-.823 0-.295-.038-.568-.116-.818a1.954 1.954 0 00-.337-.652 1.544 1.544 0 00-.541-.43 1.63 1.63 0 00-.718-.155c-.331 0-.643.083-.934.248-.29.166-.51.367-.657.602v2.409c.147.235.367.438.657.607.291.17.603.254.934.254zm4.728-4.728v2.066h2c.272 0 .513.044.723.133.21.088.387.208.53.359.144.15.251.324.321.519s.105.403.105.624c0 .22-.037.43-.11.63-.074.199-.181.372-.32.519-.14.147-.316.265-.526.353-.21.089-.45.133-.723.133h-2.828v-5.336h.828zm0 2.795v1.812h1.911c.302 0 .53-.085.685-.254a.93.93 0 00.232-.652.948.948 0 00-.226-.646c-.151-.173-.381-.26-.69-.26h-1.912z"/></g><path fill="url(#d)" d="M69.343 83.012l57.181-38.418 56.754-5.966.427 72.708H69.585z"/><circle fill="#BE8BEA" cx="69.794" cy="234.015" r="4.384"/><circle fill="#F7B500" cx="69.794" cy="220.098" r="4.384"/><circle fill="#26EECF" cx="69.794" cy="158.863" r="4.384"/><circle fill="#FBE24B" cx="69.794" cy="82.319" r="4.384"/><circle fill="#FBE24B" cx="126.854" cy="44.743" r="4.384"/><circle fill="#FBE24B" cx="183.914" cy="39.176" r="4.384"/><circle fill="#26EECF" cx="126.854" cy="164.43" r="4.384"/><circle fill="#26EECF" cx="183.914" cy="151.905" r="4.384"/><circle fill="#26EECF" cx="242.365" cy="142.163" r="4.384"/><circle fill="#26EECF" cx="300.817" cy="150.513" r="4.384"/><circle fill="#26EECF" cx="355.094" cy="181.13" r="4.384"/><circle fill="#26EECF" cx="416.329" cy="144.946" r="4.384"/><circle fill="#26EECF" cx="473.388" cy="129.637" r="4.384"/><circle fill="#26EECF" cx="530.448" cy="99.02" r="4.384"/><circle fill="#26EECF" cx="587.508" cy="115.72" r="4.384"/><circle fill="#26EECF" cx="641.785" cy="107.37" r="4.384"/><circle fill="#26EECF" cx="704.412" cy="79.536" r="4.384"/><circle fill="#BE8BEA" cx="126.854" cy="207.573" r="4.384"/><circle fill="#BE8BEA" cx="183.914" cy="169.997" r="4.384"/><circle fill="#BE8BEA" cx="242.365" cy="208.965" r="4.384"/><circle fill="#BE8BEA" cx="300.817" cy="214.531" r="4.384"/><circle fill="#BE8BEA" cx="355.094" cy="238.19" r="4.384"/><circle fill="#BE8BEA" cx="416.329" cy="240.974" r="4.384"/><circle fill="#BE8BEA" cx="473.388" cy="232.624" r="4.384"/><circle fill="#BE8BEA" cx="530.448" cy="232.624" r="4.384"/><circle fill="#BE8BEA" cx="587.508" cy="218.706" r="4.384"/><circle fill="#BE8BEA" cx="641.785" cy="225.665" r="4.384"/><circle fill="#BE8BEA" cx="704.412" cy="245.149" r="4.384"/><circle fill="#F7B500" cx="126.854" cy="224.273" r="4.384"/><circle fill="#F7B500" cx="183.914" cy="217.315" r="4.384"/><circle fill="#F7B500" cx="242.365" cy="214.531" r="4.384"/><circle fill="#F7B500" cx="300.817" cy="218.706" r="4.384"/><circle fill="#F7B500" cx="355.094" cy="232.624" r="4.384"/><circle fill="#F7B500" cx="416.329" cy="225.665" r="4.384"/><circle fill="#F7B500" cx="473.388" cy="206.181" r="4.384"/><circle fill="#F7B500" cx="530.448" cy="229.84" r="4.384"/><circle fill="#F7B500" cx="587.508" cy="190.872" r="4.384"/><circle fill="#F7B500" cx="641.785" cy="178.347" r="4.384"/><circle fill="#F7B500" cx="704.412" cy="183.914" r="4.384"/></g><path d="M163.573 510.462v-1.257a146.865 146.865 0 003.028-2.448c.877-.73 1.613-1.409 2.21-2.038.597-.628 1.047-1.219 1.352-1.77.305-.553.457-1.102.457-1.648 0-.407-.076-.756-.228-1.048a2.158 2.158 0 00-.6-.724c-.248-.19-.53-.33-.848-.419a3.586 3.586 0 00-.971-.133c-.762 0-1.435.146-2.02.438-.583.292-1.06.68-1.428 1.162l-.971-1.01a4.638 4.638 0 011.895-1.485 6.208 6.208 0 012.524-.515c.533 0 1.054.077 1.562.229.508.152.961.38 1.361.686.4.304.724.692.972 1.162.247.47.371 1.022.371 1.657 0 .647-.155 1.285-.466 1.914-.311.628-.743 1.257-1.296 1.885a20.841 20.841 0 01-1.952 1.924c-.749.654-1.568 1.33-2.457 2.029h6.228v1.409h-8.723zm16 .229c-.877 0-1.62-.197-2.23-.59a4.888 4.888 0 01-1.504-1.534 6.788 6.788 0 01-.857-2.114 10.483 10.483 0 01-.267-2.334c0-.774.09-1.552.267-2.333.178-.78.463-1.482.857-2.104a4.924 4.924 0 011.505-1.524c.61-.394 1.352-.59 2.228-.59.864 0 1.603.196 2.22.59a4.79 4.79 0 011.504 1.524c.387.622.673 1.323.857 2.104.184.781.276 1.559.276 2.333 0 .775-.092 1.553-.276 2.334a7.108 7.108 0 01-.857 2.114 4.756 4.756 0 01-1.505 1.533c-.616.394-1.355.59-2.219.59zm0-1.41c.609 0 1.12-.15 1.532-.448a3.313 3.313 0 001-1.18 5.712 5.712 0 00.543-1.657c.108-.616.162-1.242.162-1.877 0-.634-.054-1.26-.162-1.876a5.587 5.587 0 00-.543-1.647 3.335 3.335 0 00-1-1.172c-.412-.298-.923-.447-1.533-.447-.61 0-1.12.15-1.533.447a3.335 3.335 0 00-1 1.172 5.587 5.587 0 00-.543 1.647 10.847 10.847 0 00-.162 1.876c0 .635.054 1.26.162 1.877.108.615.289 1.168.543 1.657.254.488.587.882 1 1.18.413.299.924.448 1.533.448zm9.218 1.18v-10.608l-2.038 2.152-.953-.971 3.181-3.276h1.39v12.704h-1.58zm5.37 0l5.124-11.294h-6.837v-1.41h8.666v1.087l-5.2 11.618h-1.752z" fill="#050505" fill-rule="nonzero"/><g transform="translate(62.627 499.156)"><path d="M7.31 3.418h55.138" stroke="#BE8BEA" stroke-width="1.711" stroke-linecap="square"/><ellipse fill="#BE8BEA" cx="3.655" cy="3.865" rx="3.655" ry="3.865"/><ellipse fill="#BE8BEA" cx="64.567" cy="3.865" rx="3.655" ry="3.865"/></g><path d="M364.14 510.462v-1.257a146.868 146.868 0 003.028-2.448c.876-.73 1.612-1.409 2.21-2.038.596-.628 1.047-1.219 1.352-1.77.304-.553.457-1.102.457-1.648 0-.407-.077-.756-.229-1.048a2.158 2.158 0 00-.6-.724c-.247-.19-.53-.33-.847-.419a3.586 3.586 0 00-.972-.133c-.762 0-1.435.146-2.019.438-.584.292-1.06.68-1.428 1.162l-.972-1.01a4.638 4.638 0 011.896-1.485 6.208 6.208 0 012.523-.515c.534 0 1.054.077 1.562.229.508.152.962.38 1.362.686.4.304.724.692.971 1.162.248.47.372 1.022.372 1.657 0 .647-.156 1.285-.467 1.914-.311.628-.743 1.257-1.295 1.885a20.841 20.841 0 01-1.952 1.924c-.75.654-1.569 1.33-2.457 2.029h6.228v1.409h-8.724zm15.999.229c-.877 0-1.62-.197-2.229-.59a4.888 4.888 0 01-1.505-1.534 6.788 6.788 0 01-.857-2.114 10.483 10.483 0 01-.266-2.334c0-.774.089-1.552.266-2.333.178-.78.464-1.482.857-2.104a4.924 4.924 0 011.505-1.524c.61-.394 1.352-.59 2.229-.59.863 0 1.603.196 2.218.59a4.79 4.79 0 011.505 1.524c.387.622.673 1.323.857 2.104.184.781.276 1.559.276 2.333 0 .775-.092 1.553-.276 2.334a7.108 7.108 0 01-.857 2.114 4.756 4.756 0 01-1.505 1.533c-.615.394-1.355.59-2.218.59zm0-1.41c.609 0 1.12-.15 1.533-.448a3.313 3.313 0 001-1.18 5.712 5.712 0 00.543-1.657c.107-.616.161-1.242.161-1.877 0-.634-.054-1.26-.161-1.876a5.587 5.587 0 00-.543-1.647 3.335 3.335 0 00-1-1.172c-.413-.298-.924-.447-1.533-.447-.61 0-1.121.15-1.534.447a3.335 3.335 0 00-1 1.172 5.587 5.587 0 00-.542 1.647 10.847 10.847 0 00-.162 1.876c0 .635.054 1.26.162 1.877.107.615.288 1.168.542 1.657.254.488.588.882 1 1.18.413.299.924.448 1.534.448zm9.218 1.18v-10.608l-2.038 2.152-.952-.971 3.18-3.276h1.39v12.704h-1.58zm8.61.23a6.674 6.674 0 01-1.782-.23 4.364 4.364 0 01-1.438-.675 3.445 3.445 0 01-.971-1.086 2.901 2.901 0 01-.362-1.457c0-.419.083-.806.248-1.162a3.44 3.44 0 01.666-.962c.28-.285.603-.53.972-.733.368-.203.749-.362 1.142-.476a5.238 5.238 0 01-1.057-.42 4.003 4.003 0 01-.895-.637 2.948 2.948 0 01-.628-.867 2.562 2.562 0 01-.239-1.124c0-.57.127-1.063.381-1.476a3.288 3.288 0 011-1.028 4.416 4.416 0 011.39-.6 6.53 6.53 0 013.134 0c.52.127.987.327 1.4.6.413.273.749.616 1.01 1.028.26.413.39.905.39 1.476 0 .42-.08.794-.238 1.124-.159.33-.369.62-.629.867s-.562.46-.905.638a5.473 5.473 0 01-1.066.419c.393.114.774.273 1.143.476.368.203.692.448.971.733.28.286.502.607.667.962.165.356.247.743.247 1.162 0 .533-.12 1.016-.362 1.448a3.273 3.273 0 01-.98 1.085 4.758 4.758 0 01-1.448.676 6.35 6.35 0 01-1.762.239zm0-7.429c.19-.038.444-.098.761-.18.317-.083.622-.21.914-.382.292-.17.546-.39.762-.657.216-.266.324-.59.324-.971 0-.33-.073-.625-.22-.886a2.014 2.014 0 00-.59-.657 2.791 2.791 0 00-.876-.41 3.935 3.935 0 00-1.076-.142c-.38 0-.74.047-1.076.143a2.791 2.791 0 00-.876.41 2.014 2.014 0 00-.59.656c-.147.26-.22.556-.22.886 0 .38.108.705.324.971.216.267.473.486.772.657.298.172.603.299.914.381.31.083.562.143.752.181zm0 6.02c.393 0 .767-.052 1.123-.153.355-.102.67-.248.943-.438.273-.19.489-.423.647-.696.159-.273.238-.58.238-.923 0-.42-.117-.778-.352-1.076a3.182 3.182 0 00-.829-.743 4.115 4.115 0 00-.98-.448 5.416 5.416 0 00-.79-.19c-.191.025-.455.089-.791.19-.337.102-.667.25-.99.448a3.122 3.122 0 00-.839.743c-.235.298-.352.657-.352 1.076 0 .343.08.65.238.923.159.273.375.505.648.696.273.19.59.336.952.438.362.101.74.152 1.133.152z" fill="#050505" fill-rule="nonzero"/><g transform="translate(262.554 499.376)"><path d="M7.31 3.418h55.138" stroke="#F7B500" stroke-width="1.711" stroke-linecap="square"/><ellipse fill="#F7B500" cx="3.655" cy="3.865" rx="3.655" ry="3.865"/><ellipse fill="#F7B500" cx="64.567" cy="3.865" rx="3.655" ry="3.865"/></g><g><path d="M562.517 510.1v-1.258a146.865 146.865 0 003.029-2.447c.876-.73 1.612-1.41 2.21-2.038.596-.629 1.047-1.219 1.351-1.771.305-.553.458-1.102.458-1.648 0-.406-.077-.755-.229-1.047a2.158 2.158 0 00-.6-.724c-.248-.19-.53-.33-.848-.42a3.586 3.586 0 00-.97-.133c-.763 0-1.436.146-2.02.439-.584.292-1.06.679-1.428 1.161l-.972-1.01a4.638 4.638 0 011.895-1.485 6.208 6.208 0 012.524-.514c.533 0 1.054.076 1.562.229.508.152.962.38 1.362.685.4.305.724.692.971 1.162.248.47.372 1.022.372 1.657 0 .648-.156 1.286-.467 1.914-.311.629-.743 1.257-1.295 1.886a20.841 20.841 0 01-1.953 1.924c-.749.654-1.568 1.33-2.457 2.028h6.229v1.41h-8.724zm16 .228c-.877 0-1.62-.197-2.229-.59a4.888 4.888 0 01-1.505-1.534 6.788 6.788 0 01-.857-2.114 10.483 10.483 0 01-.266-2.333c0-.775.088-1.552.266-2.333.178-.781.464-1.483.857-2.105a4.924 4.924 0 011.505-1.524c.61-.393 1.352-.59 2.228-.59.864 0 1.604.197 2.22.59a4.79 4.79 0 011.504 1.524c.387.622.673 1.324.857 2.105.184.78.276 1.558.276 2.333 0 .775-.092 1.552-.276 2.333a7.108 7.108 0 01-.857 2.114 4.756 4.756 0 01-1.505 1.534c-.615.393-1.355.59-2.219.59zm0-1.41c.609 0 1.12-.149 1.533-.447a3.313 3.313 0 001-1.18 5.712 5.712 0 00.542-1.658c.108-.616.162-1.241.162-1.876 0-.635-.054-1.26-.162-1.876a5.587 5.587 0 00-.542-1.648 3.335 3.335 0 00-1-1.17c-.413-.3-.924-.449-1.534-.449-.609 0-1.12.15-1.533.448a3.335 3.335 0 00-1 1.171 5.587 5.587 0 00-.543 1.648 10.847 10.847 0 00-.161 1.876c0 .635.054 1.26.161 1.876.108.616.29 1.168.543 1.657.254.489.588.883 1 1.181.413.298.924.448 1.533.448zm9.218 1.182v-10.61l-2.038 2.153-.952-.972 3.18-3.276h1.39V510.1h-1.58zm8.19.209c-.813 0-1.502-.14-2.067-.419a4.736 4.736 0 01-1.457-1.105l.8-1.18c.33.38.702.691 1.115.933.412.241.949.362 1.609.362.648 0 1.197-.146 1.648-.438.45-.293.819-.673 1.104-1.143.286-.47.495-1.003.629-1.6.133-.597.2-1.194.2-1.79v-.258c0-.082-.007-.168-.02-.257-.139.216-.326.441-.561.676a4.273 4.273 0 01-.829.638c-.317.19-.66.35-1.028.477s-.756.19-1.162.19a5.03 5.03 0 01-1.619-.257 3.749 3.749 0 01-1.324-.762 3.63 3.63 0 01-.895-1.267c-.222-.507-.333-1.098-.333-1.77 0-.547.101-1.07.304-1.572a3.95 3.95 0 01.877-1.324 4.25 4.25 0 011.4-.914c.552-.229 1.17-.343 1.857-.343.888 0 1.644.18 2.266.543.622.362 1.13.844 1.524 1.447.393.603.68 1.302.857 2.095.178.794.267 1.623.267 2.486 0 .863-.102 1.689-.305 2.476a6.322 6.322 0 01-.943 2.086 4.824 4.824 0 01-1.61 1.447c-.647.362-1.415.543-2.304.543zm.343-6.285c.635 0 1.238-.172 1.81-.515a3.784 3.784 0 001.352-1.37c-.039-.395-.121-.8-.248-1.22a3.837 3.837 0 00-.562-1.143 2.963 2.963 0 00-.962-.847c-.393-.222-.863-.334-1.41-.334-.482 0-.907.083-1.275.248a2.773 2.773 0 00-.915.638c-.24.26-.422.55-.542.867-.121.317-.181.628-.181.933 0 .47.076.876.228 1.219.153.343.362.628.629.857.266.229.577.397.933.505.356.108.737.162 1.143.162z" fill="#050505" fill-rule="nonzero"/><g transform="translate(460.88 499.276)"><path d="M7.31 3.418h55.138" stroke="#00F4CD" stroke-width="1.711" stroke-linecap="square"/><ellipse fill="#00F4CD" cx="3.655" cy="3.865" rx="3.655" ry="3.865"/><ellipse fill="#00F4CD" cx="64.567" cy="3.865" rx="3.655" ry="3.865"/></g></g><g transform="translate(658.777 492.37)"><path d="M99.884 18.092v-1.257a146.867 146.867 0 003.028-2.447c.877-.73 1.613-1.41 2.21-2.038.597-.629 1.047-1.22 1.352-1.772.305-.552.457-1.101.457-1.647 0-.407-.076-.756-.228-1.048a2.158 2.158 0 00-.6-.724c-.248-.19-.53-.33-.848-.419a3.586 3.586 0 00-.971-.133c-.762 0-1.435.146-2.02.438-.583.292-1.06.68-1.428 1.162l-.971-1.01a4.638 4.638 0 011.895-1.485 6.208 6.208 0 012.524-.514c.533 0 1.054.076 1.562.228.507.153.961.381 1.361.686.4.305.724.692.972 1.162.247.47.371 1.022.371 1.657 0 .647-.155 1.285-.466 1.914-.312.628-.743 1.257-1.296 1.886a20.841 20.841 0 01-1.952 1.923c-.75.654-1.568 1.33-2.457 2.029h6.228v1.41h-8.723zm16 .229c-.877 0-1.62-.197-2.23-.59a4.888 4.888 0 01-1.504-1.534 6.788 6.788 0 01-.857-2.114 10.483 10.483 0 01-.267-2.333c0-.775.09-1.553.267-2.334.178-.78.463-1.482.857-2.104a4.924 4.924 0 011.505-1.524c.61-.394 1.352-.59 2.228-.59.864 0 1.603.196 2.219.59a4.79 4.79 0 011.505 1.524c.387.622.673 1.324.857 2.104.184.781.276 1.56.276 2.334s-.092 1.552-.276 2.333a7.108 7.108 0 01-.857 2.114 4.756 4.756 0 01-1.505 1.533c-.616.394-1.355.59-2.219.59zm0-1.41c.609 0 1.12-.149 1.532-.447a3.313 3.313 0 001-1.181 5.712 5.712 0 00.543-1.657c.108-.616.162-1.241.162-1.876 0-.635-.054-1.26-.162-1.876a5.587 5.587 0 00-.543-1.648 3.335 3.335 0 00-1-1.171c-.412-.299-.923-.448-1.533-.448-.61 0-1.12.15-1.533.448a3.335 3.335 0 00-1 1.171 5.587 5.587 0 00-.543 1.648 10.847 10.847 0 00-.162 1.876c0 .635.054 1.26.162 1.876.108.616.289 1.168.543 1.657.254.489.587.882 1 1.18.413.3.924.448 1.533.448zm6.856 1.181v-1.257a146.866 146.866 0 003.028-2.447c.876-.73 1.613-1.41 2.21-2.038.596-.629 1.047-1.22 1.352-1.772.305-.552.457-1.101.457-1.647 0-.407-.076-.756-.229-1.048a2.158 2.158 0 00-.6-.724c-.247-.19-.53-.33-.847-.419a3.586 3.586 0 00-.971-.133c-.762 0-1.435.146-2.02.438-.583.292-1.06.68-1.428 1.162l-.971-1.01a4.638 4.638 0 011.895-1.485 6.208 6.208 0 012.524-.514c.533 0 1.053.076 1.561.228.508.153.962.381 1.362.686.4.305.724.692.972 1.162.247.47.371 1.022.371 1.657 0 .647-.156 1.285-.467 1.914-.31.628-.742 1.257-1.295 1.886a20.841 20.841 0 01-1.952 1.923c-.75.654-1.568 1.33-2.457 2.029h6.228v1.41h-8.723zm15.999.229c-.876 0-1.619-.197-2.229-.59a4.888 4.888 0 01-1.504-1.534 6.788 6.788 0 01-.857-2.114 10.483 10.483 0 01-.267-2.333c0-.775.089-1.553.267-2.334.177-.78.463-1.482.857-2.104a4.924 4.924 0 011.504-1.524c.61-.394 1.353-.59 2.229-.59.863 0 1.603.196 2.219.59a4.79 4.79 0 011.505 1.524c.387.622.672 1.324.857 2.104.184.781.276 1.56.276 2.334s-.092 1.552-.276 2.333a7.108 7.108 0 01-.857 2.114 4.756 4.756 0 01-1.505 1.533c-.616.394-1.356.59-2.22.59zm0-1.41c.61 0 1.12-.149 1.533-.447a3.313 3.313 0 001-1.181 5.712 5.712 0 00.543-1.657c.108-.616.162-1.241.162-1.876 0-.635-.054-1.26-.162-1.876a5.587 5.587 0 00-.543-1.648 3.335 3.335 0 00-1-1.171c-.413-.299-.924-.448-1.533-.448-.61 0-1.12.15-1.533.448a3.335 3.335 0 00-1 1.171 5.587 5.587 0 00-.543 1.648 10.847 10.847 0 00-.162 1.876c0 .635.054 1.26.162 1.876.108.616.289 1.168.543 1.657.254.489.587.882 1 1.18.412.3.923.448 1.533.448z" fill="#050505" fill-rule="nonzero"/><path d="M7.31 10.688h55.138" stroke="#FFE439" stroke-width="1.711" stroke-linecap="square"/><ellipse fill="#FFE439" cx="3.655" cy="11.134" rx="3.655" ry="3.865"/><ellipse fill="#FFE439" cx="64.567" cy="11.134" rx="3.655" ry="3.865"/></g><path d="M371.528 62.627h-2.805l-4.365-5.475-1.13 1.325v4.15h-2.28V49.63h2.28v6.196l5.085-6.196h2.826l-5.28 6.137 5.67 6.859zm5.709.234c-1.455 0-2.624-.478-3.507-1.433-.883-.954-1.325-2.127-1.325-3.516 0-1.39.442-2.56 1.325-3.507.883-.949 2.052-1.423 3.507-1.423 1.468 0 2.643.474 3.527 1.423.883.948 1.324 2.117 1.324 3.507 0 1.402-.441 2.578-1.324 3.526-.884.948-2.06 1.423-3.527 1.423zm0-1.812c.844 0 1.51-.302 1.997-.906.487-.604.73-1.348.73-2.231 0-.87-.243-1.608-.73-2.212-.487-.604-1.153-.906-1.997-.906-.831 0-1.49.302-1.978.906-.487.604-.73 1.341-.73 2.212 0 .883.243 1.627.73 2.23.487.605 1.147.907 1.978.907zm5.943 1.812v-1.676c.402 0 .724-.26.964-.78.24-.519.438-1.39.594-2.61l.565-4.579h7.268v9.41h-2.046V55.01h-3.41l-.33 3.02c-.183 1.688-.566 2.916-1.15 3.682-.585.766-1.403 1.15-2.455 1.15zm14.008-.234h-1.967v-9.411h2.045v6.332l4.326-6.332h2.046v9.41h-2.046V56.12l-4.404 6.508zm8.768-9.411h2.046v2.533c0 .701.179 1.195.536 1.48.357.286.925.43 1.705.43.844 0 1.532-.118 2.065-.351v-4.092h2.046v9.41h-2.046v-3.662c-.676.337-1.578.506-2.708.506-1.286 0-2.215-.246-2.787-.74-.571-.494-.857-1.24-.857-2.24v-3.274zm15.392 9.645c-1.428 0-2.607-.458-3.536-1.374-.929-.916-1.393-2.108-1.393-3.575 0-1.377.451-2.543 1.354-3.498.903-.954 2.043-1.432 3.42-1.432 1.39 0 2.51.48 3.36 1.442.851.961 1.277 2.189 1.277 3.682v.488h-7.268c.078.74.383 1.357.916 1.85.533.494 1.227.74 2.085.74.48 0 .964-.09 1.451-.272a3.35 3.35 0 001.218-.76l.935 1.345c-.948.909-2.22 1.364-3.819 1.364zm2.494-5.71a2.716 2.716 0 00-.71-1.733c-.449-.507-1.095-.76-1.94-.76-.805 0-1.435.25-1.89.75a2.86 2.86 0 00-.76 1.744h5.3zm8.3 5.71c-1.428 0-2.597-.465-3.507-1.394-.909-.928-1.363-2.114-1.363-3.555 0-1.43.454-2.608 1.363-3.537.91-.928 2.079-1.393 3.508-1.393 1.571 0 2.773.559 3.604 1.676l-1.344 1.247c-.52-.74-1.24-1.11-2.163-1.11-.857 0-1.546.288-2.065.866-.52.578-.78 1.328-.78 2.25 0 .923.26 1.676.78 2.26.52.585 1.208.878 2.065.878.896 0 1.617-.37 2.163-1.111l1.344 1.247c-.831 1.117-2.033 1.676-3.604 1.676zm9.158-.234h-2.046v-7.618h-2.689v-1.793h7.443v1.793H441.3v7.618zm10.151 0h-5.767v-9.411h5.63c.87 0 1.553.227 2.046.682.494.455.74 1.033.74 1.734 0 .546-.149 1.007-.447 1.383-.299.377-.676.63-1.13.76.506.117.928.393 1.266.828.338.435.507.926.507 1.471 0 .754-.25 1.367-.75 1.842-.5.474-1.199.71-2.095.71zm-.429-1.793c.364 0 .65-.094.858-.282.208-.189.311-.445.311-.77 0-.299-.103-.552-.311-.76-.208-.208-.494-.312-.858-.312h-3.292v2.124h3.292zm-.058-3.916c.325 0 .581-.088.77-.263a.878.878 0 00.282-.672c0-.299-.094-.536-.282-.711-.189-.176-.445-.263-.77-.263h-3.234v1.909h3.234zm10.112 5.943c-1.455 0-2.624-.478-3.507-1.433-.883-.954-1.325-2.127-1.325-3.516 0-1.39.442-2.56 1.325-3.507.883-.949 2.052-1.423 3.507-1.423 1.468 0 2.643.474 3.527 1.423.883.948 1.325 2.117 1.325 3.507 0 1.402-.442 2.578-1.325 3.526-.884.948-2.06 1.423-3.527 1.423zm0-1.812c.844 0 1.51-.302 1.997-.906.487-.604.73-1.348.73-2.231 0-.87-.243-1.608-.73-2.212-.487-.604-1.153-.906-1.997-.906-.831 0-1.49.302-1.978.906-.487.604-.73 1.341-.73 2.212 0 .883.243 1.627.73 2.23.488.605 1.147.907 1.978.907zm20.341 1.578h-2.046v-7.618h-4.325v7.618H473v-9.411h8.417v9.41zm6.898.234c-1.455 0-2.624-.478-3.508-1.433-.883-.954-1.324-2.127-1.324-3.516 0-1.39.441-2.56 1.324-3.507.884-.949 2.053-1.423 3.508-1.423 1.467 0 2.643.474 3.526 1.423.883.948 1.325 2.117 1.325 3.507 0 1.402-.442 2.578-1.325 3.526s-2.059 1.423-3.526 1.423zm0-1.812c.844 0 1.51-.302 1.997-.906.487-.604.73-1.348.73-2.231 0-.87-.243-1.608-.73-2.212-.487-.604-1.153-.906-1.997-.906-.832 0-1.491.302-1.978.906-.487.604-.73 1.341-.73 2.212 0 .883.243 1.627.73 2.23.487.605 1.146.907 1.978.907zm15.723 1.578h-2.572l-2.883-3.878-1.306 1.345v2.533h-2.046v-9.411h2.046v4.54l4.15-4.54h2.533l-3.916 4.267 3.994 5.144zm1.033 3.682l.311-1.831c.234.104.494.156.78.156.662 0 1.11-.273 1.344-.819l.468-1.071-3.858-9.528h2.182l2.747 7.053 2.748-7.053h2.201l-4.54 11.106c-.558 1.39-1.636 2.098-3.234 2.124a4.43 4.43 0 01-1.15-.137zm18.626-3.682h-2.046v-7.618h-4.325v7.618h-2.046v-9.411h8.417v9.41zm6.898.234c-1.455 0-2.624-.478-3.508-1.433-.883-.954-1.324-2.127-1.324-3.516 0-1.39.441-2.56 1.324-3.507.884-.949 2.053-1.423 3.508-1.423 1.467 0 2.643.474 3.526 1.423.883.948 1.325 2.117 1.325 3.507 0 1.402-.442 2.578-1.325 3.526s-2.059 1.423-3.526 1.423zm0-1.812c.844 0 1.51-.302 1.997-.906.487-.604.73-1.348.73-2.231 0-.87-.243-1.608-.73-2.212-.487-.604-1.153-.906-1.997-.906-.832 0-1.491.302-1.978.906-.487.604-.73 1.341-.73 2.212 0 .883.243 1.627.73 2.23.487.605 1.146.907 1.978.907zm15.723 1.578h-2.572l-2.883-3.878-1.306 1.345v2.533h-2.046v-9.411h2.046v4.54l4.15-4.54h2.533l-3.916 4.267 3.994 5.144z" fill="#292929" fill-rule="nonzero"/></g></g></svg>