<svg width="906" height="560" xmlns="http://www.w3.org/2000/svg"><defs><linearGradient x1="50%" y1="17.241%" x2="50%" y2="100%" id="a"><stop stop-color="#00F4CD" stop-opacity=".281" offset="0%"/><stop stop-color="#D8D8D8" stop-opacity="0" offset="100%"/></linearGradient><linearGradient x1="50%" y1="55.583%" x2="50%" y2="100%" id="b"><stop stop-color="#F7B500" stop-opacity=".222" offset="0%"/><stop stop-color="#D8D8D8" stop-opacity="0" offset="100%"/></linearGradient><linearGradient x1="50%" y1="11.442%" x2="50%" y2="77.659%" id="c"><stop stop-color="#CD95FF" stop-opacity=".234" offset="0%"/><stop stop-color="#B620E0" stop-opacity="0" offset="100%"/></linearGradient></defs><g transform="translate(0 -1)" fill="none" fill-rule="evenodd"><path d="M12 1.334h883c6.075 0 11 4.925 11 11V548.8c0 6.627-5.373 12-12 12H12c-6.627 0-12-5.373-12-12V13.334c0-6.627 5.373-12 12-12z" fill="#F1F4FC"/><rect width="876.104" height="437.026" rx="10.692" transform="translate(13.539 16.505)" fill="#FFF"/><path d="M310.388 65.023v-4.189c.52-.052.922-.182 1.208-.39.286-.207.549-.636.789-1.285.24-.65.432-1.598.575-2.845l.76-6.683h8.826V60.62h1.208v4.403h-2.28v-2.396h-8.807v2.396h-2.28zm4.832-8.553c-.221 1.922-.793 3.306-1.715 4.15h6.761v-8.982h-4.5l-.546 4.832zm12.177 6.157h-1.968v-9.411h2.046v6.332l4.326-6.332h2.045v9.41h-2.045V56.12l-4.404 6.508zm11.145 0h-2.046v-9.411h2.046v3.702h4.325v-3.702h2.046v9.41h-2.046V58.71h-4.325v3.917zm16.815 0h-2.046v-1.013c-.728.83-1.74 1.247-3.04 1.247a3.46 3.46 0 01-2.28-.829c-.662-.552-.993-1.315-.993-2.289 0-1 .328-1.76.984-2.28.656-.52 1.419-.779 2.29-.779 1.337 0 2.35.403 3.039 1.208V56.49c0-.545-.202-.974-.604-1.286-.403-.311-.935-.467-1.598-.467-1.052 0-1.98.396-2.786 1.188l-.838-1.422c1.065-1.013 2.384-1.52 3.955-1.52 1.156 0 2.098.273 2.825.819.728.545 1.092 1.409 1.092 2.59v6.236zm-4.287-1.17c1.026 0 1.773-.324 2.24-.973V59.06c-.467-.65-1.214-.974-2.24-.974-.584 0-1.065.156-1.442.468-.376.311-.565.72-.565 1.227 0 .507.189.913.565 1.218.377.305.858.458 1.442.458zm17.477 1.17h-2.046V56.08l-2.805 6.547h-.819l-2.825-6.547v6.547h-2.046v-9.411h2.67l2.61 6.079 2.572-6.079h2.69v9.41zm4.618 0h-1.968v-9.411h2.046v6.332l4.325-6.332h2.046v9.41h-2.046V56.12l-4.403 6.508zm17.906 0h-2.572l-2.884-3.878-1.305 1.345v2.533h-2.046v-9.411h2.046v4.54l4.15-4.54h2.533l-3.917 4.267 3.995 5.144zm9.235 0h-2.046v-1.013c-.727.83-1.74 1.247-3.04 1.247a3.46 3.46 0 01-2.279-.829c-.662-.552-.994-1.315-.994-2.289 0-1 .328-1.76.984-2.28.656-.52 1.42-.779 2.29-.779 1.337 0 2.35.403 3.04 1.208V56.49c0-.545-.202-.974-.605-1.286-.403-.311-.935-.467-1.598-.467-1.052 0-1.98.396-2.786 1.188l-.838-1.422c1.066-1.013 2.384-1.52 3.956-1.52 1.156 0 2.097.273 2.825.819.727.545 1.09 1.409 1.09 2.59v6.236zm-4.287-1.17c1.027 0 1.773-.324 2.241-.973V59.06c-.468-.65-1.214-.974-2.24-.974-.585 0-1.066.156-1.442.468-.377.311-.565.72-.565 1.227 0 .507.188.913.565 1.218.376.305.857.458 1.441.458zm20.361 1.17h-2.046v-7.618h-4.325v7.618h-2.046v-9.411h8.417v9.41zm6.897.234c-1.454 0-2.623-.478-3.507-1.433-.883-.954-1.325-2.127-1.325-3.516 0-1.39.442-2.56 1.325-3.507.884-.949 2.053-1.423 3.507-1.423 1.468 0 2.644.474 3.527 1.423.883.948 1.325 2.117 1.325 3.507 0 1.402-.442 2.578-1.325 3.526s-2.059 1.423-3.527 1.423zm0-1.812c.845 0 1.51-.302 1.997-.906.488-.604.731-1.348.731-2.231 0-.87-.243-1.608-.73-2.212-.488-.604-1.153-.906-1.998-.906-.831 0-1.49.302-1.977.906-.487.604-.73 1.341-.73 2.212 0 .883.243 1.627.73 2.23.487.605 1.146.907 1.977.907zm8.885 1.578h-1.968v-9.411h2.046v6.332l4.325-6.332h2.046v9.41h-2.046V56.12l-4.403 6.508zm13.385.234c-1.428 0-2.597-.465-3.507-1.394-.909-.928-1.364-2.114-1.364-3.555 0-1.43.455-2.608 1.364-3.537.91-.928 2.079-1.393 3.507-1.393 1.572 0 2.774.559 3.605 1.676l-1.344 1.247c-.52-.74-1.24-1.11-2.163-1.11-.857 0-1.546.288-2.065.866-.52.578-.78 1.328-.78 2.25 0 .923.26 1.676.78 2.26.52.585 1.208.878 2.065.878.896 0 1.617-.37 2.163-1.111l1.344 1.247c-.831 1.117-2.033 1.676-3.605 1.676zm14.204-.234h-2.572l-2.883-3.878-1.306 1.345v2.533h-2.046v-9.411h2.046v4.54l4.15-4.54h2.533l-3.916 4.267 3.994 5.144zm5.69.234c-1.455 0-2.624-.478-3.508-1.433-.883-.954-1.325-2.127-1.325-3.516 0-1.39.442-2.56 1.325-3.507.884-.949 2.053-1.423 3.507-1.423 1.468 0 2.644.474 3.527 1.423.883.948 1.325 2.117 1.325 3.507 0 1.402-.442 2.578-1.325 3.526s-2.059 1.423-3.527 1.423zm0-1.812c.844 0 1.51-.302 1.997-.906.487-.604.73-1.348.73-2.231 0-.87-.243-1.608-.73-2.212-.488-.604-1.153-.906-1.998-.906-.83 0-1.49.302-1.977.906-.487.604-.73 1.341-.73 2.212 0 .883.243 1.627.73 2.23.487.605 1.146.907 1.977.907zm12.683 1.578h-5.767v-9.411h5.631c.87 0 1.552.227 2.046.682.493.455.74 1.033.74 1.734 0 .546-.15 1.007-.448 1.383-.299.377-.675.63-1.13.76.507.117.929.393 1.267.828.337.435.506.926.506 1.471 0 .754-.25 1.367-.75 1.842-.5.474-1.198.71-2.095.71zm-.428-1.793c.364 0 .65-.094.857-.282.208-.189.312-.445.312-.77 0-.299-.104-.552-.312-.76-.208-.208-.493-.312-.857-.312h-3.293v2.124h3.293zm-.059-3.916c.325 0 .582-.088.77-.263a.878.878 0 00.282-.672c0-.299-.094-.536-.282-.711-.188-.176-.445-.263-.77-.263h-3.234v1.909h3.234zm10.112 5.943c-1.454 0-2.623-.478-3.507-1.433-.883-.954-1.325-2.127-1.325-3.516 0-1.39.442-2.56 1.325-3.507.884-.949 2.053-1.423 3.507-1.423 1.468 0 2.644.474 3.527 1.423.883.948 1.325 2.117 1.325 3.507 0 1.402-.442 2.578-1.325 3.526s-2.059 1.423-3.527 1.423zm0-1.812c.845 0 1.51-.302 1.998-.906.487-.604.73-1.348.73-2.231 0-.87-.243-1.608-.73-2.212-.488-.604-1.153-.906-1.998-.906-.83 0-1.49.302-1.977.906-.487.604-.73 1.341-.73 2.212 0 .883.243 1.627.73 2.23.487.605 1.146.907 1.977.907zm14.048-7.833v1.793h-5.085v7.618h-2.046v-9.411h7.131zm5.923 9.645c-1.454 0-2.623-.478-3.507-1.433-.883-.954-1.325-2.127-1.325-3.516 0-1.39.442-2.56 1.325-3.507.884-.949 2.053-1.423 3.507-1.423 1.468 0 2.644.474 3.527 1.423.883.948 1.325 2.117 1.325 3.507 0 1.402-.442 2.578-1.325 3.526s-2.059 1.423-3.527 1.423zm0-1.812c.845 0 1.51-.302 1.998-.906.487-.604.73-1.348.73-2.231 0-.87-.243-1.608-.73-2.212-.488-.604-1.153-.906-1.998-.906-.83 0-1.49.302-1.977.906-.487.604-.73 1.341-.73 2.212 0 .883.243 1.627.73 2.23.487.605 1.146.907 1.977.907zm15.685 1.578h-2.046v-7.618h-2.689v-1.793h7.443v1.793h-2.708v7.618zm9.45.234c-1.247 0-2.254-.514-3.02-1.54v4.89h-2.046V53.217h2.046v1.286c.753-1.013 1.76-1.52 3.02-1.52 1.234 0 2.237.442 3.01 1.325.773.883 1.16 2.085 1.16 3.605s-.387 2.724-1.16 3.614c-.773.89-1.776 1.335-3.01 1.335zm-.604-1.812c.805 0 1.448-.293 1.929-.877.48-.585.72-1.338.72-2.26 0-.923-.24-1.673-.72-2.25-.481-.579-1.124-.868-1.93-.868a2.87 2.87 0 00-1.383.37c-.454.247-.799.546-1.032.897v3.721c.233.35.578.65 1.032.896.455.247.916.37 1.384.37zm14.593 1.578h-2.046v-1.013c-.727.83-1.74 1.247-3.04 1.247a3.46 3.46 0 01-2.279-.829c-.662-.552-.994-1.315-.994-2.289 0-1 .328-1.76.984-2.28.656-.52 1.42-.779 2.29-.779 1.338 0 2.35.403 3.04 1.208V56.49c0-.545-.202-.974-.605-1.286-.402-.311-.935-.467-1.597-.467-1.053 0-1.981.396-2.787 1.188l-.837-1.422c1.065-1.013 2.383-1.52 3.955-1.52 1.156 0 2.098.273 2.825.819.727.545 1.091 1.409 1.091 2.59v6.236zm-4.286-1.17c1.026 0 1.773-.324 2.24-.973V59.06c-.467-.65-1.214-.974-2.24-.974-.585 0-1.066.156-1.442.468-.377.311-.565.72-.565 1.227 0 .507.188.913.565 1.218.376.305.857.458 1.442.458zm7.637-7.13c.65-.897 1.494-1.345 2.533-1.345 1.04 0 1.884.513 2.533 1.54V49.63h2.046v4.871c.636-1.013 1.48-1.52 2.533-1.52 1.039 0 1.883.442 2.533 1.325.65.883.974 2.085.974 3.605s-.325 2.724-.974 3.614c-.65.89-1.494 1.335-2.533 1.335-1.04 0-1.884-.514-2.533-1.54v4.89h-2.046v-4.87c-.636 1.013-1.48 1.52-2.533 1.52-1.039 0-1.883-.442-2.533-1.325-.65-.884-.974-2.085-.974-3.605s.325-2.721.974-3.604zm3.176.467c-.623 0-1.127.292-1.51.877s-.575 1.338-.575 2.26c0 .922.192 1.672.575 2.25.383.579.887.868 1.51.868.364 0 .724-.124 1.082-.37.357-.247.626-.546.808-.897v-3.721a2.467 2.467 0 00-.808-.897c-.358-.246-.718-.37-1.082-.37zm5.826 6.255c.623 0 1.127-.293 1.51-.877.383-.585.575-1.338.575-2.26 0-.923-.192-1.673-.575-2.25-.383-.579-.887-.868-1.51-.868-.364 0-.724.124-1.082.37a2.467 2.467 0 00-.808.897v3.721c.182.35.451.65.808.896.358.247.718.37 1.082.37zm8.495 1.578h-1.968v-9.411h2.046v6.332l4.325-6.332h2.046v9.41h-2.046V56.12l-4.403 6.508zm17.905 0h-2.571l-2.884-3.878-1.305 1.345v2.533h-2.046v-9.411h2.046v4.54l4.15-4.54h2.533l-3.917 4.267 3.994 5.144zm9.236 0h-2.046v-1.013c-.727.83-1.74 1.247-3.04 1.247a3.46 3.46 0 01-2.28-.829c-.662-.552-.993-1.315-.993-2.289 0-1 .328-1.76.984-2.28.656-.52 1.42-.779 2.29-.779 1.337 0 2.35.403 3.039 1.208V56.49c0-.545-.201-.974-.604-1.286-.403-.311-.935-.467-1.598-.467-1.052 0-1.98.396-2.786 1.188l-.838-1.422c1.065-1.013 2.384-1.52 3.956-1.52 1.156 0 2.097.273 2.825.819.727.545 1.09 1.409 1.09 2.59v6.236zm-4.287-1.17c1.027 0 1.773-.324 2.241-.973V59.06c-.468-.65-1.214-.974-2.24-.974-.585 0-1.066.156-1.442.468-.377.311-.565.72-.565 1.227 0 .507.188.913.565 1.218.376.305.857.458 1.441.458z" fill="#292929" fill-rule="nonzero"/><rect fill="#FFF" x="16.7" y="464.829" width="873.44" height="78.08" rx="10.692"/><path d="M166.69 511.51v-1.257a146.863 146.863 0 003.028-2.447c.876-.73 1.613-1.41 2.21-2.038.596-.629 1.047-1.219 1.352-1.771.305-.553.457-1.102.457-1.648 0-.406-.076-.755-.229-1.047a2.158 2.158 0 00-.6-.724c-.247-.19-.53-.33-.847-.42a3.586 3.586 0 00-.972-.133c-.761 0-1.434.146-2.018.438-.585.293-1.06.68-1.429 1.162l-.971-1.01a4.638 4.638 0 011.895-1.485 6.208 6.208 0 012.523-.514c.534 0 1.054.076 1.562.229.508.152.962.38 1.362.685.4.305.724.692.971 1.162.248.47.372 1.022.372 1.657 0 .648-.156 1.286-.467 1.914-.31.629-.743 1.257-1.295 1.886a20.841 20.841 0 01-1.952 1.924c-.75.653-1.568 1.33-2.457 2.028h6.228v1.41h-8.723zm15.999.229c-.876 0-1.62-.197-2.229-.59a4.888 4.888 0 01-1.504-1.534 6.788 6.788 0 01-.857-2.114 10.483 10.483 0 01-.267-2.333c0-.775.089-1.552.267-2.333.177-.781.463-1.483.857-2.105a4.924 4.924 0 011.504-1.524c.61-.393 1.353-.59 2.229-.59.863 0 1.603.197 2.219.59a4.79 4.79 0 011.504 1.524c.388.622.673 1.324.857 2.105.185.78.277 1.558.277 2.333 0 .775-.092 1.552-.277 2.333a7.108 7.108 0 01-.857 2.114 4.756 4.756 0 01-1.504 1.534c-.616.393-1.356.59-2.22.59zm0-1.41c.61 0 1.12-.149 1.533-.447a3.313 3.313 0 001-1.18 5.712 5.712 0 00.543-1.658c.108-.616.162-1.241.162-1.876 0-.635-.054-1.26-.162-1.876a5.587 5.587 0 00-.543-1.648 3.335 3.335 0 00-1-1.171c-.413-.298-.924-.448-1.533-.448-.61 0-1.12.15-1.533.448a3.335 3.335 0 00-1 1.171 5.587 5.587 0 00-.543 1.648 10.847 10.847 0 00-.162 1.876c0 .635.054 1.26.162 1.876.108.616.289 1.168.543 1.657.254.489.587.883 1 1.181.412.298.923.448 1.533.448zm9.218 1.181v-10.608l-2.038 2.152-.952-.972 3.18-3.276h1.391v12.704h-1.58zm5.371 0l5.124-11.294h-6.838v-1.41h8.666v1.086l-5.2 11.618h-1.752z" fill="#050505" fill-rule="nonzero"/><g transform="translate(64.91 502.233)"><path d="M7.31 3.418h55.138" stroke="#BE8BEA" stroke-width="1.711" stroke-linecap="square"/><ellipse fill="#BE8BEA" cx="3.655" cy="3.865" rx="3.655" ry="3.865"/><ellipse fill="#BE8BEA" cx="64.567" cy="3.865" rx="3.655" ry="3.865"/></g><path d="M366.665 511.73v-1.256a146.868 146.868 0 003.029-2.448c.876-.73 1.612-1.41 2.21-2.038.596-.628 1.047-1.219 1.351-1.771.305-.552.458-1.102.458-1.648 0-.406-.077-.755-.229-1.047a2.158 2.158 0 00-.6-.724c-.248-.19-.53-.33-.848-.419a3.586 3.586 0 00-.97-.133c-.763 0-1.436.146-2.02.438-.584.292-1.06.68-1.428 1.162l-.972-1.01a4.638 4.638 0 011.895-1.485 6.208 6.208 0 012.524-.515c.533 0 1.054.076 1.562.229.508.152.962.38 1.362.686.4.304.723.692.971 1.161.248.47.371 1.023.371 1.657 0 .648-.155 1.286-.466 1.915-.311.628-.743 1.257-1.295 1.885a20.841 20.841 0 01-1.953 1.924c-.749.654-1.568 1.33-2.457 2.028h6.229v1.41h-8.724zm16 .23c-.877 0-1.62-.197-2.23-.591a4.888 4.888 0 01-1.504-1.533 6.788 6.788 0 01-.857-2.114 10.483 10.483 0 01-.266-2.334c0-.774.088-1.552.266-2.333.178-.78.464-1.482.857-2.105a4.924 4.924 0 011.505-1.523c.61-.394 1.352-.59 2.228-.59.864 0 1.603.196 2.22.59a4.79 4.79 0 011.504 1.523c.387.623.673 1.324.857 2.105.184.781.276 1.559.276 2.333 0 .775-.092 1.553-.276 2.334a7.108 7.108 0 01-.857 2.114 4.756 4.756 0 01-1.505 1.533c-.616.394-1.355.59-2.219.59zm0-1.41c.609 0 1.12-.15 1.533-.448a3.313 3.313 0 001-1.18 5.712 5.712 0 00.542-1.658c.108-.615.162-1.24.162-1.876 0-.635-.054-1.26-.162-1.876a5.587 5.587 0 00-.542-1.647 3.335 3.335 0 00-1-1.172c-.413-.298-.924-.447-1.534-.447s-1.12.149-1.533.447a3.335 3.335 0 00-1 1.172 5.587 5.587 0 00-.543 1.647 10.847 10.847 0 00-.162 1.876c0 .635.054 1.26.162 1.876.108.616.29 1.169.543 1.657.254.49.587.883 1 1.181.413.299.924.448 1.533.448zm9.218 1.18v-10.608l-2.038 2.152-.952-.971 3.18-3.276h1.39v12.704h-1.58zm8.609.23a6.674 6.674 0 01-1.78-.23 4.364 4.364 0 01-1.439-.675 3.445 3.445 0 01-.971-1.086 2.901 2.901 0 01-.362-1.457c0-.42.082-.806.247-1.162a3.44 3.44 0 01.667-.962c.28-.285.603-.53.971-.733.369-.203.75-.362 1.143-.476a5.238 5.238 0 01-1.057-.42 4.003 4.003 0 01-.895-.637 2.948 2.948 0 01-.629-.867 2.562 2.562 0 01-.238-1.124c0-.571.127-1.063.381-1.476a3.288 3.288 0 011-1.028 4.416 4.416 0 011.39-.6 6.53 6.53 0 013.134 0c.52.127.987.327 1.4.6.412.273.749.616 1.01 1.028.26.413.39.905.39 1.476 0 .42-.08.794-.238 1.124-.16.33-.369.62-.629.867s-.562.46-.905.638a5.473 5.473 0 01-1.066.419c.393.114.774.273 1.142.476.369.203.692.448.972.733.28.286.501.607.666.962.166.356.248.743.248 1.162 0 .533-.12 1.016-.362 1.447a3.273 3.273 0 01-.98 1.086 4.758 4.758 0 01-1.448.676 6.35 6.35 0 01-1.762.238zm0-7.429c.19-.038.444-.098.762-.18.317-.083.622-.21.914-.382.292-.171.546-.39.762-.657.216-.266.324-.59.324-.971 0-.33-.073-.625-.22-.886a2.014 2.014 0 00-.59-.657 2.791 2.791 0 00-.876-.41 3.935 3.935 0 00-1.076-.142c-.381 0-.74.047-1.076.143a2.791 2.791 0 00-.876.41 2.014 2.014 0 00-.59.656c-.147.26-.22.556-.22.886 0 .38.108.705.324.971.216.267.473.486.771.657.299.172.604.299.915.381.31.083.561.143.752.181zm0 6.019c.394 0 .768-.05 1.124-.152.355-.102.67-.248.943-.439.273-.19.488-.422.647-.695.159-.273.238-.58.238-.923 0-.42-.117-.778-.352-1.077a3.182 3.182 0 00-.829-.742 4.115 4.115 0 00-.98-.448 5.416 5.416 0 00-.791-.19c-.19.025-.454.088-.79.19-.337.102-.667.25-.99.448a3.122 3.122 0 00-.839.742c-.235.299-.352.658-.352 1.077 0 .342.08.65.238.923.159.273.374.505.647.695.273.191.59.337.953.439.362.101.74.152 1.133.152z" fill="#050505" fill-rule="nonzero"/><g transform="translate(264.837 502.454)"><path d="M7.31 3.418h55.138" stroke="#F7B500" stroke-width="1.711" stroke-linecap="square"/><ellipse fill="#F7B500" cx="3.655" cy="3.865" rx="3.655" ry="3.865"/><ellipse fill="#F7B500" cx="64.567" cy="3.865" rx="3.655" ry="3.865"/></g><g><path d="M555.059 513.177v-1.257a146.865 146.865 0 003.028-2.448c.876-.73 1.613-1.41 2.21-2.038.596-.628 1.047-1.219 1.352-1.771.304-.552.457-1.102.457-1.648 0-.406-.076-.755-.229-1.047a2.158 2.158 0 00-.6-.724c-.247-.19-.53-.33-.847-.419a3.586 3.586 0 00-.972-.133c-.762 0-1.435.146-2.019.438-.584.292-1.06.68-1.428 1.162l-.972-1.01a4.638 4.638 0 011.896-1.486 6.208 6.208 0 012.523-.514c.534 0 1.054.076 1.562.229.508.152.962.38 1.362.685.4.305.724.692.971 1.162.248.47.372 1.022.372 1.657 0 .648-.156 1.286-.467 1.915-.311.628-.743 1.257-1.295 1.885a20.841 20.841 0 01-1.952 1.924c-.75.654-1.569 1.33-2.457 2.028h6.228v1.41h-8.723zm15.999.228c-.877 0-1.62-.197-2.229-.59a4.888 4.888 0 01-1.505-1.533 6.788 6.788 0 01-.857-2.115 10.483 10.483 0 01-.266-2.333c0-.774.089-1.552.266-2.333.178-.78.464-1.482.857-2.105a4.924 4.924 0 011.505-1.523c.61-.394 1.352-.59 2.229-.59.863 0 1.603.196 2.219.59a4.79 4.79 0 011.504 1.523c.387.623.673 1.324.857 2.105.184.781.276 1.559.276 2.333 0 .775-.092 1.553-.276 2.333a7.108 7.108 0 01-.857 2.115 4.756 4.756 0 01-1.504 1.533c-.616.393-1.356.59-2.22.59zm0-1.41c.61 0 1.12-.148 1.533-.447a3.313 3.313 0 001-1.18 5.712 5.712 0 00.543-1.658c.108-.616.162-1.24.162-1.876 0-.635-.054-1.26-.162-1.876a5.587 5.587 0 00-.543-1.647 3.335 3.335 0 00-1-1.172c-.413-.298-.924-.447-1.533-.447-.61 0-1.121.149-1.534.447a3.335 3.335 0 00-1 1.172 5.587 5.587 0 00-.542 1.647 10.847 10.847 0 00-.162 1.876c0 .635.054 1.26.162 1.876.108.616.288 1.169.542 1.657.254.49.588.883 1 1.181.413.299.924.448 1.534.448zm9.218 1.182v-10.61l-2.038 2.153-.952-.971 3.18-3.276h1.391v12.704h-1.58zm8.19.21c-.813 0-1.501-.14-2.066-.42a4.736 4.736 0 01-1.457-1.104l.8-1.181c.33.38.701.692 1.114.933.412.241.949.362 1.61.362.647 0 1.196-.146 1.647-.438.45-.292.819-.673 1.104-1.143.286-.47.496-1.003.629-1.6.133-.597.2-1.194.2-1.79v-.257c0-.083-.006-.169-.02-.258-.139.216-.326.442-.561.677a4.273 4.273 0 01-.829.638c-.317.19-.66.349-1.028.476s-.756.19-1.162.19a5.03 5.03 0 01-1.619-.257 3.749 3.749 0 01-1.324-.762 3.63 3.63 0 01-.895-1.266c-.222-.508-.333-1.099-.333-1.772 0-.546.101-1.07.305-1.571a3.95 3.95 0 01.876-1.324 4.25 4.25 0 011.4-.914c.552-.229 1.171-.343 1.857-.343.889 0 1.644.181 2.266.543.622.362 1.13.844 1.524 1.448.394.603.68 1.301.857 2.095.178.793.267 1.622.267 2.485 0 .864-.102 1.689-.305 2.476a6.322 6.322 0 01-.943 2.086 4.824 4.824 0 01-1.61 1.447c-.647.362-1.415.543-2.304.543zm.343-6.286c.635 0 1.238-.172 1.81-.514a3.784 3.784 0 001.352-1.372c-.038-.393-.12-.8-.248-1.219a3.837 3.837 0 00-.562-1.142 2.963 2.963 0 00-.962-.848c-.393-.222-.863-.333-1.41-.333-.482 0-.907.082-1.275.247a2.773 2.773 0 00-.914.638c-.242.26-.423.55-.543.867-.12.317-.181.628-.181.933 0 .47.076.876.228 1.22.153.342.362.628.629.856.267.229.578.397.933.505.356.108.737.162 1.143.162z" fill="#050505" fill-rule="nonzero"/><g transform="translate(453.42 502.354)"><path d="M7.31 3.418h55.138" stroke="#00F4CD" stroke-width="1.711" stroke-linecap="square"/><ellipse fill="#00F4CD" cx="3.655" cy="3.865" rx="3.655" ry="3.865"/><ellipse fill="#00F4CD" cx="64.567" cy="3.865" rx="3.655" ry="3.865"/></g></g><g transform="translate(51.493 77.935)"><path d="M60.47 5.636h713.665M60.47 42.377h713.665M60.47 79.118h713.665M60.47 79.118h713.665M60.47 114.329h713.665M60.47 151.07h713.665M60.47 151.07h713.665" stroke="#EDEBEB" stroke-width=".77" stroke-linecap="square"/><path fill="url(#a)" d="M90.868 67.31l61.235 18.697 58.173-10.113 59.704 9.638 58.173-21.885 59.704-41.485 59.705 7.805 59.704-1.53-.42 147.614-415.978 1.809z"/><path d="M60.47 186.28h713.665M60.47 223.02h713.665M60.47 258.23h713.665M60.47 294.972h713.665M60.47 330.182h713.665" stroke="#EDEBEB" stroke-width=".77" stroke-linecap="square"/><path stroke="#F7B500" stroke-width="1.694" d="M90.537 289.984l60.698 4.988 58.773-16.037 58.916-11.762 60.015-28.134 59.214-7.205 58.926-18.44 59.45-33.79 59.738-15.943 58.34-49.332 60.779-12.515 58.958-22.696"/><path stroke="#BE89EC" stroke-width="1.694" d="M90.537 271.944h119.916l58.59 3.66 59.768-3.66 59.37 7.39 59.245 4.477 59.504 20.998 59.457 6.201 58.688-21.523 60.364 1.99 58.905-1.99"/><path stroke="#00F3CD" stroke-width="1.694" d="M90.537 66.829l60.984 18.703 57.92-9.351 59.19 9.351 59.809-22.02 59.225-41.35 59.296 8.866 59.885-1.719"/><ellipse fill="#00F4CD" cx="90.868" cy="66.708" rx="3.608" ry="3.664"/><ellipse fill="#BE89EC" cx="90.868" cy="271.846" rx="3.608" ry="3.664"/><ellipse fill="#F7B500" cx="90.868" cy="290.216" rx="3.608" ry="3.664"/><ellipse fill="#F7B500" cx="150.572" cy="294.809" rx="3.608" ry="3.664"/><ellipse fill="#F7B500" cx="268.449" cy="265.722" rx="3.608" ry="3.664"/><ellipse fill="#F7B500" cx="328.153" cy="239.697" rx="3.608" ry="3.664"/><ellipse fill="#F7B500" cx="387.857" cy="232.043" rx="3.608" ry="3.664"/><ellipse fill="#F7B500" cx="210.276" cy="277.969" rx="3.608" ry="3.664"/><ellipse fill="#F7B500" cx="447.562" cy="213.672" rx="3.608" ry="3.664"/><ellipse fill="#F7B500" cx="507.266" cy="179.993" rx="3.608" ry="3.664"/><ellipse fill="#F7B500" cx="566.97" cy="163.154" rx="3.608" ry="3.664"/><ellipse fill="#F7B500" cx="625.143" cy="114.166" rx="3.608" ry="3.664"/><ellipse fill="#F7B500" cx="684.847" cy="101.919" rx="3.608" ry="3.664"/><ellipse fill="#F7B500" cx="743.021" cy="78.955" rx="3.608" ry="3.664"/><ellipse fill="#BE89EC" cx="150.572" cy="271.846" rx="3.608" ry="3.664"/><ellipse fill="#BE89EC" cx="210.276" cy="271.846" rx="3.608" ry="3.664"/><ellipse fill="#BE89EC" cx="268.449" cy="274.907" rx="3.608" ry="3.664"/><ellipse fill="#BE89EC" cx="328.153" cy="271.846" rx="3.608" ry="3.664"/><ellipse fill="#BE89EC" cx="387.857" cy="279.5" rx="3.608" ry="3.664"/><ellipse fill="#BE89EC" cx="447.562" cy="282.562" rx="3.608" ry="3.664"/><ellipse fill="#BE89EC" cx="507.266" cy="303.994" rx="3.608" ry="3.664"/><ellipse fill="#BE89EC" cx="566.97" cy="311.648" rx="3.608" ry="3.664"/><ellipse fill="#BE89EC" cx="625.143" cy="290.216" rx="3.608" ry="3.664"/><ellipse fill="#BE89EC" cx="684.847" cy="291.747" rx="3.608" ry="3.664"/><ellipse fill="#BE89EC" cx="744.551" cy="290.216" rx="3.608" ry="3.664"/><ellipse fill="#00F4CD" cx="152.103" cy="85.079" rx="3.608" ry="3.664"/><ellipse fill="#00F4CD" cx="210.276" cy="75.894" rx="3.608" ry="3.664"/><ellipse fill="#00F4CD" cx="269.98" cy="85.079" rx="3.608" ry="3.664"/><ellipse fill="#00F4CD" cx="328.153" cy="63.647" rx="3.608" ry="3.664"/><ellipse fill="#00F4CD" cx="387.857" cy="22.313" rx="3.608" ry="3.664"/><ellipse fill="#00F4CD" cx="447.562" cy="29.967" rx="3.608" ry="3.664"/><ellipse fill="#00F4CD" cx="507.266" cy="28.436" rx="3.608" ry="3.664"/><path d="M4.936 9.742v-2.39H.453v-.976L4.497.31H6.11v6.01h1.33v1.033h-1.33v2.39H4.936zm0-8.344L1.626 6.32h3.31V1.398zm7.212 8.514c-.801 0-1.466-.135-1.994-.403a3.832 3.832 0 01-1.33-1.11l.722-.778c.311.396.676.702 1.096.919.42.217.921.325 1.506.325.32 0 .615-.052.884-.155a1.943 1.943 0 001.131-1.068c.109-.25.163-.516.163-.8 0-.31-.054-.59-.163-.84a1.943 1.943 0 00-.445-.644 1.898 1.898 0 00-.679-.41 2.592 2.592 0 00-.877-.142c-.424 0-.813.071-1.167.212-.353.142-.69.368-1.01.68L9.121 5.4V.31h5.77v1.046h-4.597v3.28c.227-.226.53-.424.913-.593.381-.17.813-.255 1.294-.255.396 0 .773.066 1.13.198a2.768 2.768 0 011.62 1.527c.165.378.248.807.248 1.287 0 .481-.085.915-.255 1.301a2.81 2.81 0 01-.707.983 3.108 3.108 0 01-1.068.616 4.03 4.03 0 01-1.322.212zm8.415 0c-.651 0-1.203-.146-1.655-.439a3.63 3.63 0 01-1.117-1.138 5.04 5.04 0 01-.637-1.57 7.784 7.784 0 01-.198-1.732c0-.575.066-1.153.198-1.733.132-.58.344-1.1.637-1.562.292-.462.664-.84 1.117-1.132.452-.292 1.004-.438 1.655-.438.64 0 1.19.146 1.647.438.457.292.83.67 1.117 1.132.288.462.5.982.637 1.562.136.58.205 1.158.205 1.733 0 .575-.069 1.152-.205 1.732a5.278 5.278 0 01-.637 1.57c-.287.466-.66.846-1.117 1.138-.457.293-1.006.439-1.647.439zm0-1.047c.452 0 .832-.11 1.138-.332a2.46 2.46 0 00.742-.877c.189-.363.323-.773.403-1.23a8.054 8.054 0 000-2.786 4.148 4.148 0 00-.403-1.224 2.476 2.476 0 00-.742-.87c-.306-.22-.686-.332-1.138-.332-.453 0-.832.111-1.139.333a2.476 2.476 0 00-.742.87 4.148 4.148 0 00-.403 1.223 8.054 8.054 0 000 2.786c.08.457.214.867.403 1.23.188.363.436.655.742.877.307.221.686.332 1.139.332zm12.303 1.047c-.65 0-1.202-.146-1.654-.439a3.63 3.63 0 01-1.118-1.138 5.04 5.04 0 01-.636-1.57 7.784 7.784 0 01-.198-1.732c0-.575.066-1.153.198-1.733.132-.58.344-1.1.636-1.562.293-.462.665-.84 1.118-1.132.452-.292 1.004-.438 1.654-.438.641 0 1.19.146 1.648.438.457.292.83.67 1.117 1.132.287.462.5.982.636 1.562.137.58.205 1.158.205 1.733 0 .575-.068 1.152-.205 1.732a5.278 5.278 0 01-.636 1.57c-.288.466-.66.846-1.117 1.138-.458.293-1.007.439-1.648.439zm0-1.047c.453 0 .832-.11 1.139-.332a2.46 2.46 0 00.742-.877c.189-.363.323-.773.403-1.23a8.054 8.054 0 000-2.786 4.148 4.148 0 00-.403-1.224 2.476 2.476 0 00-.742-.87c-.307-.22-.686-.332-1.139-.332-.452 0-.832.111-1.138.333a2.476 2.476 0 00-.743.87 4.148 4.148 0 00-.403 1.223 8.054 8.054 0 000 2.786c.08.457.215.867.403 1.23.189.363.436.655.743.877.306.221.686.332 1.138.332zm8.655 1.047c-.65 0-1.202-.146-1.655-.439a3.63 3.63 0 01-1.117-1.138 5.04 5.04 0 01-.636-1.57 7.784 7.784 0 01-.198-1.732c0-.575.066-1.153.198-1.733.132-.58.344-1.1.636-1.562.293-.462.665-.84 1.117-1.132.453-.292 1.005-.438 1.655-.438.641 0 1.19.146 1.648.438.457.292.83.67 1.117 1.132.287.462.5.982.636 1.562.137.58.205 1.158.205 1.733 0 .575-.068 1.152-.205 1.732a5.278 5.278 0 01-.636 1.57c-.288.466-.66.846-1.117 1.138-.458.293-1.007.439-1.648.439zm0-1.047c.453 0 .832-.11 1.139-.332a2.46 2.46 0 00.742-.877c.189-.363.323-.773.403-1.23a8.054 8.054 0 000-2.786 4.148 4.148 0 00-.403-1.224 2.476 2.476 0 00-.742-.87c-.307-.22-.686-.332-1.139-.332-.452 0-.832.111-1.138.333a2.476 2.476 0 00-.743.87 4.148 4.148 0 00-.403 1.223 8.054 8.054 0 000 2.786c.08.457.215.867.403 1.23.189.363.436.655.743.877.306.221.686.332 1.138.332zm8.655 1.047c-.65 0-1.202-.146-1.655-.439a3.63 3.63 0 01-1.117-1.138 5.04 5.04 0 01-.636-1.57 7.784 7.784 0 01-.198-1.732c0-.575.066-1.153.198-1.733.132-.58.344-1.1.636-1.562.292-.462.665-.84 1.117-1.132.453-.292 1.004-.438 1.655-.438.641 0 1.19.146 1.648.438.457.292.83.67 1.117 1.132.287.462.5.982.636 1.562.137.58.205 1.158.205 1.733 0 .575-.068 1.152-.205 1.732a5.278 5.278 0 01-.636 1.57c-.288.466-.66.846-1.117 1.138-.458.293-1.007.439-1.648.439zm0-1.047c.453 0 .832-.11 1.138-.332a2.46 2.46 0 00.743-.877c.188-.363.323-.773.403-1.23a8.054 8.054 0 000-2.786 4.148 4.148 0 00-.403-1.224 2.476 2.476 0 00-.743-.87c-.306-.22-.685-.332-1.138-.332-.453 0-.832.111-1.138.333a2.476 2.476 0 00-.743.87 4.148 4.148 0 00-.403 1.223 8.054 8.054 0 000 2.786c.08.457.215.867.403 1.23.189.363.436.655.743.877.306.221.685.332 1.138.332zM4.936 45.926v-2.39H.453v-.976l4.044-6.066H6.11v6.01h1.33v1.032h-1.33v2.39H4.936zm0-8.344l-3.31 4.922h3.31v-4.922zm7.283 8.514c-.65 0-1.202-.146-1.655-.438a3.63 3.63 0 01-1.117-1.139 5.04 5.04 0 01-.636-1.57 7.784 7.784 0 01-.198-1.732c0-.575.066-1.153.198-1.732.131-.58.344-1.101.636-1.563.292-.462.665-.84 1.117-1.132.453-.292 1.004-.438 1.655-.438.64 0 1.19.146 1.647.438.458.293.83.67 1.118 1.132.287.462.5.983.636 1.563.137.58.205 1.157.205 1.732s-.068 1.153-.205 1.732a5.278 5.278 0 01-.636 1.57c-.288.467-.66.846-1.118 1.139-.457.292-1.006.438-1.647.438zm0-1.047c.452 0 .832-.11 1.138-.332a2.46 2.46 0 00.743-.877c.188-.363.323-.773.403-1.23a8.054 8.054 0 000-2.786 4.148 4.148 0 00-.403-1.223 2.476 2.476 0 00-.743-.87c-.306-.222-.686-.332-1.138-.332-.453 0-.832.11-1.139.332a2.476 2.476 0 00-.742.87 4.148 4.148 0 00-.403 1.223 8.054 8.054 0 000 2.786c.08.457.214.867.403 1.23.188.363.436.656.742.877.307.222.686.332 1.139.332zm8.655 1.047c-.65 0-1.202-.146-1.655-.438a3.63 3.63 0 01-1.117-1.139 5.04 5.04 0 01-.637-1.57 7.784 7.784 0 01-.198-1.732c0-.575.066-1.153.198-1.732.132-.58.345-1.101.637-1.563.292-.462.665-.84 1.117-1.132.453-.292 1.004-.438 1.655-.438.64 0 1.19.146 1.647.438.457.293.83.67 1.117 1.132.288.462.5.983.637 1.563s.205 1.157.205 1.732-.068 1.153-.205 1.732a5.278 5.278 0 01-.637 1.57c-.287.467-.66.846-1.117 1.139-.457.292-1.006.438-1.647.438zm0-1.047c.452 0 .832-.11 1.138-.332a2.46 2.46 0 00.743-.877c.188-.363.322-.773.403-1.23a8.054 8.054 0 000-2.786 4.148 4.148 0 00-.403-1.223 2.476 2.476 0 00-.743-.87c-.306-.222-.686-.332-1.138-.332-.453 0-.832.11-1.139.332a2.476 2.476 0 00-.742.87 4.148 4.148 0 00-.403 1.223 8.054 8.054 0 000 2.786c.08.457.214.867.403 1.23.188.363.436.656.742.877.307.222.686.332 1.139.332zm12.303 1.047c-.65 0-1.202-.146-1.654-.438a3.63 3.63 0 01-1.118-1.139 5.04 5.04 0 01-.636-1.57 7.784 7.784 0 01-.198-1.732c0-.575.066-1.153.198-1.732.132-.58.344-1.101.636-1.563.293-.462.665-.84 1.118-1.132.452-.292 1.004-.438 1.654-.438.641 0 1.19.146 1.648.438.457.293.83.67 1.117 1.132.288.462.5.983.636 1.563.137.58.205 1.157.205 1.732s-.068 1.153-.205 1.732a5.278 5.278 0 01-.636 1.57c-.288.467-.66.846-1.117 1.139-.457.292-1.007.438-1.648.438zm0-1.047c.453 0 .832-.11 1.139-.332a2.46 2.46 0 00.742-.877c.189-.363.323-.773.403-1.23a8.054 8.054 0 000-2.786 4.148 4.148 0 00-.403-1.223 2.476 2.476 0 00-.742-.87c-.307-.222-.686-.332-1.139-.332-.452 0-.832.11-1.138.332a2.476 2.476 0 00-.743.87 4.148 4.148 0 00-.403 1.223 8.054 8.054 0 000 2.786c.08.457.215.867.403 1.23.189.363.436.656.743.877.306.222.686.332 1.138.332zm8.655 1.047c-.65 0-1.202-.146-1.654-.438a3.63 3.63 0 01-1.118-1.139 5.04 5.04 0 01-.636-1.57 7.784 7.784 0 01-.198-1.732c0-.575.066-1.153.198-1.732.132-.58.344-1.101.636-1.563.293-.462.665-.84 1.118-1.132.452-.292 1.004-.438 1.654-.438.641 0 1.19.146 1.648.438.457.293.83.67 1.117 1.132.288.462.5.983.636 1.563.137.58.205 1.157.205 1.732s-.068 1.153-.205 1.732a5.278 5.278 0 01-.636 1.57c-.288.467-.66.846-1.117 1.139-.458.292-1.007.438-1.648.438zm0-1.047c.453 0 .832-.11 1.139-.332a2.46 2.46 0 00.742-.877c.189-.363.323-.773.403-1.23a8.054 8.054 0 000-2.786 4.148 4.148 0 00-.403-1.223 2.476 2.476 0 00-.742-.87c-.307-.222-.686-.332-1.139-.332-.452 0-.832.11-1.138.332a2.476 2.476 0 00-.743.87 4.148 4.148 0 00-.403 1.223 8.054 8.054 0 000 2.786c.08.457.215.867.403 1.23.189.363.436.656.743.877.306.222.686.332 1.138.332zm8.655 1.047c-.65 0-1.202-.146-1.654-.438a3.63 3.63 0 01-1.118-1.139 5.04 5.04 0 01-.636-1.57 7.784 7.784 0 01-.198-1.732c0-.575.066-1.153.198-1.732.132-.58.344-1.101.636-1.563.293-.462.665-.84 1.118-1.132.452-.292 1.004-.438 1.654-.438.641 0 1.19.146 1.648.438.457.293.83.67 1.117 1.132.287.462.5.983.636 1.563.137.58.205 1.157.205 1.732s-.068 1.153-.205 1.732a5.278 5.278 0 01-.636 1.57c-.288.467-.66.846-1.117 1.139-.458.292-1.007.438-1.648.438zm0-1.047c.453 0 .832-.11 1.139-.332a2.46 2.46 0 00.742-.877c.189-.363.323-.773.403-1.23a8.054 8.054 0 000-2.786 4.148 4.148 0 00-.403-1.223 2.476 2.476 0 00-.742-.87c-.307-.222-.686-.332-1.139-.332-.452 0-.832.11-1.138.332a2.476 2.476 0 00-.743.87 4.148 4.148 0 00-.403 1.223 8.054 8.054 0 000 2.786c.08.457.215.867.403 1.23.189.363.436.656.743.877.306.222.686.332 1.138.332zM3.762 82.28c-.802 0-1.487-.153-2.058-.46-.57-.306-1.002-.671-1.294-1.095l.693-.736a3.05 3.05 0 001.096.898c.457.231.969.347 1.535.347.688 0 1.228-.158 1.619-.474.391-.316.587-.747.587-1.294 0-.292-.057-.544-.17-.757a1.365 1.365 0 00-.48-.516 2.353 2.353 0 00-.743-.297 4.272 4.272 0 00-.955-.099h-.58c-.188 0-.32.005-.396.014v-1.074c.076.009.21.014.403.014h.573c.292 0 .573-.03.842-.092a2.18 2.18 0 00.7-.283c.198-.127.355-.288.473-.48a1.32 1.32 0 00.177-.7c0-.265-.056-.496-.17-.694A1.587 1.587 0 005.162 74a2.053 2.053 0 00-.672-.311c-.26-.07-.53-.106-.813-.106-.519 0-.976.097-1.372.29a3.807 3.807 0 00-1.117.855l-.65-.735c.339-.415.777-.761 1.315-1.04.537-.278 1.173-.417 1.909-.417.452 0 .874.057 1.266.17.39.113.728.276 1.01.488a2.271 2.271 0 01.92 1.86c0 .34-.064.636-.191.89-.127.255-.29.472-.488.651-.198.18-.417.323-.658.432-.24.108-.473.181-.7.219.217.019.453.08.708.184.254.103.49.25.707.438.216.189.398.424.544.707.146.283.22.613.22.99 0 .396-.076.759-.227 1.089-.15.33-.37.615-.658.856-.287.24-.638.429-1.053.565a4.46 4.46 0 01-1.4.205zm8.372 0c-.802 0-1.466-.134-1.994-.403a3.832 3.832 0 01-1.33-1.11l.722-.778c.31.396.676.703 1.096.92.42.216.921.325 1.506.325.32 0 .615-.052.884-.156.268-.103.497-.245.686-.424a1.985 1.985 0 00.608-1.442c0-.312-.054-.592-.163-.842a1.943 1.943 0 00-.445-.643 1.898 1.898 0 00-.68-.41 2.592 2.592 0 00-.876-.142c-.424 0-.813.07-1.167.212-.353.142-.69.368-1.01.679l-.864-.297v-5.091h5.77v1.046h-4.596v3.281c.227-.226.53-.424.912-.594.382-.17.814-.254 1.294-.254.396 0 .774.066 1.132.198a2.768 2.768 0 011.62 1.527c.164.377.247.806.247 1.287 0 .48-.085.915-.255 1.301a2.81 2.81 0 01-.707.983 3.108 3.108 0 01-1.068.615 4.03 4.03 0 01-1.322.212zm8.414 0c-.65 0-1.202-.146-1.654-.438a3.63 3.63 0 01-1.117-1.139 5.04 5.04 0 01-.637-1.57 7.784 7.784 0 01-.198-1.732c0-.575.066-1.152.198-1.732.132-.58.344-1.1.637-1.563.292-.462.664-.839 1.117-1.131.452-.292 1.004-.439 1.654-.439.642 0 1.19.147 1.648.439.457.292.83.67 1.117 1.131.288.462.5.983.637 1.563.136.58.205 1.157.205 1.732s-.069 1.153-.205 1.733a5.278 5.278 0 01-.637 1.57c-.287.466-.66.846-1.117 1.138-.457.292-1.006.438-1.648.438zm0-1.046c.453 0 .832-.111 1.139-.333a2.46 2.46 0 00.742-.876c.189-.363.323-.773.403-1.23a8.054 8.054 0 000-2.787 4.148 4.148 0 00-.403-1.223 2.476 2.476 0 00-.742-.87c-.307-.221-.686-.332-1.139-.332-.452 0-.832.11-1.138.332a2.476 2.476 0 00-.742.87 4.148 4.148 0 00-.404 1.223 8.054 8.054 0 000 2.786c.08.458.215.868.404 1.23.188.364.436.656.742.877.306.222.686.333 1.138.333zm12.304 1.046c-.65 0-1.202-.146-1.655-.438a3.63 3.63 0 01-1.117-1.139 5.04 5.04 0 01-.636-1.57 7.784 7.784 0 01-.198-1.732c0-.575.066-1.152.198-1.732.132-.58.344-1.1.636-1.563.292-.462.665-.839 1.117-1.131.453-.292 1.004-.439 1.655-.439.641 0 1.19.147 1.648.439.457.292.83.67 1.117 1.131.287.462.5.983.636 1.563.137.58.205 1.157.205 1.732s-.068 1.153-.205 1.733a5.278 5.278 0 01-.636 1.57c-.288.466-.66.846-1.117 1.138-.458.292-1.007.438-1.648.438zm0-1.046c.453 0 .832-.111 1.138-.333a2.46 2.46 0 00.743-.876c.188-.363.323-.773.403-1.23a8.054 8.054 0 000-2.787 4.148 4.148 0 00-.403-1.223 2.476 2.476 0 00-.743-.87c-.306-.221-.685-.332-1.138-.332-.453 0-.832.11-1.138.332a2.476 2.476 0 00-.743.87 4.148 4.148 0 00-.403 1.223 8.054 8.054 0 000 2.786c.08.458.215.868.403 1.23.189.364.436.656.743.877.306.222.685.333 1.138.333zm8.655 1.046c-.65 0-1.202-.146-1.655-.438a3.63 3.63 0 01-1.117-1.139 5.04 5.04 0 01-.636-1.57 7.784 7.784 0 01-.198-1.732c0-.575.066-1.152.198-1.732.132-.58.344-1.1.636-1.563.292-.462.665-.839 1.117-1.131.453-.292 1.004-.439 1.655-.439.641 0 1.19.147 1.647.439.458.292.83.67 1.118 1.131.287.462.5.983.636 1.563.137.58.205 1.157.205 1.732s-.068 1.153-.205 1.733a5.278 5.278 0 01-.636 1.57c-.288.466-.66.846-1.118 1.138-.457.292-1.006.438-1.647.438zm0-1.046c.452 0 .832-.111 1.138-.333a2.46 2.46 0 00.743-.876c.188-.363.323-.773.403-1.23a8.054 8.054 0 000-2.787 4.148 4.148 0 00-.403-1.223 2.476 2.476 0 00-.743-.87c-.306-.221-.686-.332-1.138-.332-.453 0-.832.11-1.138.332a2.476 2.476 0 00-.743.87 4.148 4.148 0 00-.403 1.223 8.054 8.054 0 000 2.786c.08.458.214.868.403 1.23.189.364.436.656.743.877.306.222.685.333 1.138.333zm8.655 1.046c-.65 0-1.202-.146-1.655-.438a3.63 3.63 0 01-1.117-1.139 5.04 5.04 0 01-.636-1.57 7.784 7.784 0 01-.198-1.732c0-.575.066-1.152.198-1.732.132-.58.344-1.1.636-1.563.292-.462.665-.839 1.117-1.131.453-.292 1.004-.439 1.655-.439.641 0 1.19.147 1.647.439.458.292.83.67 1.118 1.131.287.462.5.983.636 1.563.137.58.205 1.157.205 1.732s-.068 1.153-.205 1.733a5.278 5.278 0 01-.636 1.57c-.288.466-.66.846-1.118 1.138-.457.292-1.006.438-1.647.438zm0-1.046c.452 0 .832-.111 1.138-.333a2.46 2.46 0 00.743-.876c.188-.363.323-.773.403-1.23a8.054 8.054 0 000-2.787 4.148 4.148 0 00-.403-1.223 2.476 2.476 0 00-.743-.87c-.306-.221-.686-.332-1.138-.332-.453 0-.832.11-1.139.332a2.476 2.476 0 00-.742.87 4.148 4.148 0 00-.403 1.223 8.054 8.054 0 000 2.786c.08.458.214.868.403 1.23.189.364.436.656.742.877.307.222.686.333 1.139.333zM3.762 118.465c-.802 0-1.487-.154-2.058-.46-.57-.306-1.002-.672-1.294-1.096l.693-.735a3.05 3.05 0 001.096.898c.457.23.969.346 1.535.346.688 0 1.228-.158 1.619-.474.391-.315.587-.747.587-1.294 0-.292-.057-.544-.17-.756a1.365 1.365 0 00-.48-.516 2.353 2.353 0 00-.743-.297 4.272 4.272 0 00-.955-.1h-.58c-.188 0-.32.005-.396.015v-1.075c.076.01.21.014.403.014h.573c.292 0 .573-.03.842-.092a2.18 2.18 0 00.7-.283c.198-.127.355-.287.473-.48a1.32 1.32 0 00.177-.7c0-.265-.056-.496-.17-.693a1.587 1.587 0 00-.452-.503 2.053 2.053 0 00-.672-.31c-.26-.071-.53-.107-.813-.107-.519 0-.976.097-1.372.29a3.807 3.807 0 00-1.117.856l-.65-.736c.339-.414.777-.76 1.315-1.04.537-.277 1.173-.416 1.909-.416.452 0 .874.056 1.266.17.39.113.728.275 1.01.487a2.271 2.271 0 01.92 1.86c0 .34-.064.636-.191.891s-.29.471-.488.65c-.198.18-.417.323-.658.432-.24.108-.473.181-.7.22.217.018.453.08.708.183.254.104.49.25.707.438.216.189.398.425.544.707.146.283.22.613.22.99 0 .396-.076.76-.227 1.09-.15.33-.37.614-.658.855-.287.24-.638.429-1.053.566a4.46 4.46 0 01-1.4.205zm8.443 0c-.65 0-1.202-.146-1.655-.439a3.63 3.63 0 01-1.117-1.138 5.04 5.04 0 01-.637-1.57 7.784 7.784 0 01-.198-1.732c0-.575.066-1.153.198-1.733.132-.58.344-1.1.637-1.562.292-.462.664-.84 1.117-1.132.453-.292 1.004-.438 1.655-.438.64 0 1.19.146 1.647.438.457.292.83.67 1.117 1.132.288.462.5.982.637 1.562.136.58.205 1.158.205 1.733 0 .575-.069 1.152-.205 1.732a5.278 5.278 0 01-.637 1.57c-.287.466-.66.846-1.117 1.138-.457.293-1.006.439-1.647.439zm0-1.047c.452 0 .832-.11 1.138-.332a2.46 2.46 0 00.742-.877c.19-.363.323-.773.404-1.23a8.054 8.054 0 000-2.786 4.148 4.148 0 00-.404-1.224 2.476 2.476 0 00-.742-.87c-.306-.221-.686-.332-1.138-.332-.453 0-.832.111-1.139.333a2.476 2.476 0 00-.742.87 4.148 4.148 0 00-.403 1.223 8.054 8.054 0 000 2.786c.08.457.214.867.403 1.23.188.363.436.655.742.877.307.221.686.332 1.139.332zm8.655 1.047c-.651 0-1.203-.146-1.655-.439a3.63 3.63 0 01-1.117-1.138 5.04 5.04 0 01-.637-1.57 7.784 7.784 0 01-.198-1.732c0-.575.066-1.153.198-1.733.132-.58.344-1.1.637-1.562.292-.462.664-.84 1.117-1.132.452-.292 1.004-.438 1.655-.438.64 0 1.19.146 1.647.438.457.292.83.67 1.117 1.132.288.462.5.982.637 1.562.136.58.205 1.158.205 1.733 0 .575-.069 1.152-.205 1.732a5.278 5.278 0 01-.637 1.57c-.287.466-.66.846-1.117 1.138-.457.293-1.006.439-1.647.439zm0-1.047c.452 0 .832-.11 1.138-.332a2.46 2.46 0 00.742-.877c.189-.363.323-.773.403-1.23a8.054 8.054 0 000-2.786 4.148 4.148 0 00-.403-1.224 2.476 2.476 0 00-.742-.87c-.306-.221-.686-.332-1.138-.332-.453 0-.832.111-1.139.333a2.476 2.476 0 00-.742.87 4.148 4.148 0 00-.403 1.223 8.054 8.054 0 000 2.786c.08.457.214.867.403 1.23.188.363.436.655.742.877.307.221.686.332 1.139.332zm12.303 1.047c-.65 0-1.202-.146-1.654-.439a3.63 3.63 0 01-1.118-1.138 5.04 5.04 0 01-.636-1.57 7.784 7.784 0 01-.198-1.732c0-.575.066-1.153.198-1.733.132-.58.344-1.1.636-1.562.293-.462.665-.84 1.118-1.132.452-.292 1.004-.438 1.654-.438.641 0 1.19.146 1.648.438.457.292.83.67 1.117 1.132.287.462.5.982.636 1.562.137.58.205 1.158.205 1.733 0 .575-.068 1.152-.205 1.732a5.278 5.278 0 01-.636 1.57c-.288.466-.66.846-1.117 1.138-.458.293-1.007.439-1.648.439zm0-1.047c.453 0 .832-.11 1.139-.332a2.46 2.46 0 00.742-.877c.189-.363.323-.773.403-1.23a8.054 8.054 0 000-2.786 4.148 4.148 0 00-.403-1.224 2.476 2.476 0 00-.742-.87c-.307-.221-.686-.332-1.139-.332-.452 0-.832.111-1.138.333a2.476 2.476 0 00-.743.87 4.148 4.148 0 00-.403 1.223 8.054 8.054 0 000 2.786c.08.457.215.867.403 1.23.189.363.436.655.743.877.306.221.686.332 1.138.332zm8.655 1.047c-.65 0-1.202-.146-1.655-.439a3.63 3.63 0 01-1.117-1.138 5.04 5.04 0 01-.636-1.57 7.784 7.784 0 01-.198-1.732c0-.575.066-1.153.198-1.733.132-.58.344-1.1.636-1.562.292-.462.665-.84 1.117-1.132.453-.292 1.005-.438 1.655-.438.641 0 1.19.146 1.648.438.457.292.83.67 1.117 1.132.287.462.5.982.636 1.562.137.58.205 1.158.205 1.733 0 .575-.068 1.152-.205 1.732a5.278 5.278 0 01-.636 1.57c-.288.466-.66.846-1.117 1.138-.458.293-1.007.439-1.648.439zm0-1.047c.453 0 .832-.11 1.138-.332a2.46 2.46 0 00.743-.877c.189-.363.323-.773.403-1.23a8.054 8.054 0 000-2.786 4.148 4.148 0 00-.403-1.224 2.476 2.476 0 00-.743-.87c-.306-.221-.685-.332-1.138-.332-.452 0-.832.111-1.138.333a2.476 2.476 0 00-.743.87 4.148 4.148 0 00-.403 1.223 8.054 8.054 0 000 2.786c.08.457.215.867.403 1.23.189.363.436.655.743.877.306.221.686.332 1.138.332zm8.655 1.047c-.65 0-1.202-.146-1.655-.439a3.63 3.63 0 01-1.117-1.138 5.04 5.04 0 01-.636-1.57 7.784 7.784 0 01-.198-1.732c0-.575.066-1.153.198-1.733.132-.58.344-1.1.636-1.562.292-.462.665-.84 1.117-1.132.453-.292 1.004-.438 1.655-.438.641 0 1.19.146 1.648.438.457.292.83.67 1.117 1.132.287.462.5.982.636 1.562.137.58.205 1.158.205 1.733 0 .575-.068 1.152-.205 1.732a5.278 5.278 0 01-.636 1.57c-.288.466-.66.846-1.117 1.138-.458.293-1.007.439-1.648.439zm0-1.047c.453 0 .832-.11 1.138-.332a2.46 2.46 0 00.743-.877c.188-.363.323-.773.403-1.23a8.054 8.054 0 000-2.786 4.148 4.148 0 00-.403-1.224 2.476 2.476 0 00-.743-.87c-.306-.221-.685-.332-1.138-.332-.453 0-.832.111-1.138.333a2.476 2.476 0 00-.743.87 4.148 4.148 0 00-.403 1.223 8.054 8.054 0 000 2.786c.08.457.215.867.403 1.23.189.363.436.655.743.877.306.221.685.332 1.138.332zM.764 154.48v-.934a109.05 109.05 0 002.248-1.817 19.414 19.414 0 001.64-1.514c.444-.466.779-.905 1.005-1.315.226-.41.34-.818.34-1.223 0-.302-.057-.561-.17-.778a1.602 1.602 0 00-.446-.537 1.83 1.83 0 00-.63-.311 2.662 2.662 0 00-.72-.1c-.566 0-1.066.109-1.5.326a2.994 2.994 0 00-1.06.863l-.721-.75c.358-.48.827-.849 1.407-1.103a4.61 4.61 0 011.873-.382c.396 0 .783.057 1.16.17.377.113.714.283 1.011.509.297.226.538.514.722.863.183.348.275.759.275 1.23 0 .48-.115.955-.346 1.421a6.528 6.528 0 01-.962 1.4c-.41.467-.893.943-1.45 1.429-.556.485-1.164.987-1.824 1.506h4.625v1.046H.764zm11.808.169c-.801 0-1.466-.134-1.994-.403a3.832 3.832 0 01-1.33-1.11l.722-.778c.311.396.677.702 1.096.92.42.216.922.324 1.506.324.32 0 .615-.051.884-.155.269-.104.497-.245.686-.424a1.985 1.985 0 00.608-1.442c0-.312-.054-.592-.162-.842a1.943 1.943 0 00-.446-.644 1.898 1.898 0 00-.679-.41 2.592 2.592 0 00-.877-.141c-.424 0-.813.07-1.166.212-.354.141-.69.368-1.011.679l-.863-.297v-5.091h5.77v1.046H10.72v3.281c.226-.226.53-.424.912-.594.382-.17.813-.255 1.294-.255.396 0 .773.066 1.131.198s.677.326.955.58c.278.255.5.57.664.948.165.377.248.806.248 1.287 0 .48-.085.914-.255 1.3a2.81 2.81 0 01-.707.984 3.108 3.108 0 01-1.067.615 4.03 4.03 0 01-1.323.212zm8.415 0c-.65 0-1.202-.146-1.655-.438a3.63 3.63 0 01-1.117-1.139 5.04 5.04 0 01-.636-1.57 7.784 7.784 0 01-.198-1.732c0-.575.066-1.153.198-1.732.132-.58.344-1.101.636-1.563.292-.462.665-.84 1.117-1.132.453-.292 1.004-.438 1.655-.438.64 0 1.19.146 1.647.438.458.293.83.67 1.118 1.132.287.462.5.983.636 1.563.137.58.205 1.157.205 1.732s-.068 1.153-.205 1.732a5.278 5.278 0 01-.636 1.57c-.288.467-.66.846-1.118 1.139-.457.292-1.006.438-1.647.438zm0-1.047c.452 0 .832-.11 1.138-.332a2.46 2.46 0 00.743-.877c.188-.363.323-.773.403-1.23a8.054 8.054 0 000-2.786 4.148 4.148 0 00-.403-1.223 2.476 2.476 0 00-.743-.87c-.306-.222-.686-.332-1.138-.332-.453 0-.832.11-1.139.332a2.476 2.476 0 00-.742.87 4.148 4.148 0 00-.403 1.223 8.054 8.054 0 000 2.786c.08.457.214.867.403 1.23.188.363.436.656.742.877.307.222.686.332 1.139.332zm12.303 1.047c-.65 0-1.202-.146-1.654-.438a3.63 3.63 0 01-1.117-1.139 5.04 5.04 0 01-.637-1.57 7.784 7.784 0 01-.198-1.732c0-.575.066-1.153.198-1.732.132-.58.344-1.101.637-1.563.292-.462.664-.84 1.117-1.132.452-.292 1.004-.438 1.654-.438.642 0 1.19.146 1.648.438.457.293.83.67 1.117 1.132.288.462.5.983.637 1.563.136.58.205 1.157.205 1.732s-.069 1.153-.205 1.732a5.278 5.278 0 01-.637 1.57c-.287.467-.66.846-1.117 1.139-.457.292-1.006.438-1.648.438zm0-1.047c.453 0 .832-.11 1.139-.332a2.46 2.46 0 00.742-.877c.189-.363.323-.773.403-1.23a8.054 8.054 0 000-2.786 4.148 4.148 0 00-.403-1.223 2.476 2.476 0 00-.742-.87c-.307-.222-.686-.332-1.139-.332-.452 0-.832.11-1.138.332a2.476 2.476 0 00-.742.87 4.148 4.148 0 00-.404 1.223 8.054 8.054 0 000 2.786c.08.457.215.867.404 1.23.188.363.436.656.742.877.306.222.686.332 1.138.332zm8.655 1.047c-.65 0-1.202-.146-1.654-.438a3.63 3.63 0 01-1.118-1.139 5.04 5.04 0 01-.636-1.57 7.784 7.784 0 01-.198-1.732c0-.575.066-1.153.198-1.732.132-.58.344-1.101.636-1.563.293-.462.665-.84 1.118-1.132.452-.292 1.004-.438 1.654-.438.641 0 1.19.146 1.648.438.457.293.83.67 1.117 1.132.288.462.5.983.637 1.563.136.58.205 1.157.205 1.732s-.069 1.153-.205 1.732a5.278 5.278 0 01-.637 1.57c-.287.467-.66.846-1.117 1.139-.457.292-1.007.438-1.648.438zm0-1.047c.453 0 .832-.11 1.139-.332a2.46 2.46 0 00.742-.877c.189-.363.323-.773.403-1.23a8.054 8.054 0 000-2.786 4.148 4.148 0 00-.403-1.223 2.476 2.476 0 00-.742-.87c-.307-.222-.686-.332-1.139-.332-.452 0-.832.11-1.138.332a2.476 2.476 0 00-.743.87 4.148 4.148 0 00-.403 1.223 8.054 8.054 0 000 2.786c.08.457.215.867.403 1.23.189.363.436.656.743.877.306.222.686.332 1.138.332zm8.655 1.047c-.65 0-1.202-.146-1.654-.438a3.63 3.63 0 01-1.118-1.139 5.04 5.04 0 01-.636-1.57 7.784 7.784 0 01-.198-1.732c0-.575.066-1.153.198-1.732.132-.58.344-1.101.636-1.563.293-.462.665-.84 1.118-1.132.452-.292 1.004-.438 1.654-.438.641 0 1.19.146 1.648.438.457.293.83.67 1.117 1.132.288.462.5.983.636 1.563.137.58.206 1.157.206 1.732s-.069 1.153-.206 1.732a5.278 5.278 0 01-.636 1.57c-.288.467-.66.846-1.117 1.139-.457.292-1.007.438-1.648.438zm0-1.047c.453 0 .832-.11 1.139-.332a2.46 2.46 0 00.742-.877c.189-.363.323-.773.403-1.23a8.054 8.054 0 000-2.786 4.148 4.148 0 00-.403-1.223 2.476 2.476 0 00-.742-.87c-.307-.222-.686-.332-1.139-.332-.452 0-.832.11-1.138.332a2.476 2.476 0 00-.743.87 4.148 4.148 0 00-.403 1.223 8.054 8.054 0 000 2.786c.08.457.215.867.403 1.23.189.363.436.656.743.877.306.222.686.332 1.138.332zM.764 190.664v-.934c.848-.67 1.598-1.275 2.248-1.817a19.414 19.414 0 001.64-1.513c.444-.467.779-.905 1.005-1.315.226-.41.34-.818.34-1.224 0-.301-.057-.56-.17-.778a1.602 1.602 0 00-.446-.537 1.83 1.83 0 00-.63-.311 2.663 2.663 0 00-.72-.1c-.566 0-1.066.11-1.5.326a2.994 2.994 0 00-1.06.863l-.721-.75c.358-.48.827-.848 1.407-1.103a4.61 4.61 0 011.873-.382c.396 0 .783.057 1.16.17.377.113.714.283 1.011.51.297.226.538.513.722.862.183.349.275.759.275 1.23 0 .481-.115.955-.346 1.422a6.527 6.527 0 01-.962 1.4c-.41.466-.893.942-1.45 1.428-.556.486-1.164.988-1.824 1.506h4.625v1.047H.764zm11.879.17c-.65 0-1.202-.147-1.655-.44a3.63 3.63 0 01-1.117-1.138 5.04 5.04 0 01-.636-1.57 7.784 7.784 0 01-.198-1.732c0-.575.066-1.152.198-1.732.132-.58.344-1.1.636-1.563.292-.462.665-.839 1.117-1.131.453-.292 1.004-.439 1.655-.439.641 0 1.19.147 1.648.439.457.292.83.67 1.117 1.131.287.462.5.983.636 1.563.137.58.205 1.157.205 1.732s-.068 1.153-.205 1.733a5.278 5.278 0 01-.636 1.57c-.288.466-.66.846-1.117 1.138-.458.292-1.007.438-1.648.438zm0-1.047c.453 0 .832-.111 1.138-.333a2.46 2.46 0 00.743-.876c.188-.363.323-.773.403-1.23a8.054 8.054 0 000-2.787 4.148 4.148 0 00-.403-1.223 2.476 2.476 0 00-.743-.87c-.306-.221-.685-.332-1.138-.332-.453 0-.832.11-1.138.332a2.476 2.476 0 00-.743.87 4.148 4.148 0 00-.403 1.223 8.054 8.054 0 000 2.786c.08.458.215.868.403 1.23.189.364.436.656.743.877.306.222.685.333 1.138.333zm8.655 1.046c-.65 0-1.202-.146-1.655-.438a3.63 3.63 0 01-1.117-1.139 5.04 5.04 0 01-.636-1.57 7.784 7.784 0 01-.198-1.732c0-.575.066-1.152.198-1.732.132-.58.344-1.1.636-1.563.292-.462.665-.839 1.117-1.131.453-.292 1.004-.439 1.655-.439.641 0 1.19.147 1.647.439.458.292.83.67 1.118 1.131.287.462.5.983.636 1.563.137.58.205 1.157.205 1.732s-.068 1.153-.205 1.733a5.278 5.278 0 01-.636 1.57c-.288.466-.66.846-1.118 1.138-.457.292-1.006.438-1.647.438zm0-1.046c.452 0 .832-.111 1.138-.333a2.46 2.46 0 00.743-.876c.188-.363.323-.773.403-1.23a8.054 8.054 0 000-2.787 4.148 4.148 0 00-.403-1.223 2.476 2.476 0 00-.743-.87c-.306-.221-.686-.332-1.138-.332-.453 0-.832.11-1.138.332a2.476 2.476 0 00-.743.87 4.148 4.148 0 00-.403 1.223 8.054 8.054 0 000 2.786c.08.458.214.868.403 1.23.189.364.436.656.743.877.306.222.685.333 1.138.333zm12.304 1.046c-.651 0-1.203-.146-1.655-.438a3.63 3.63 0 01-1.117-1.139 5.04 5.04 0 01-.637-1.57 7.784 7.784 0 01-.198-1.732c0-.575.066-1.152.198-1.732.132-.58.344-1.1.637-1.563.292-.462.664-.839 1.117-1.131.452-.292 1.004-.439 1.655-.439.64 0 1.19.147 1.647.439.457.292.83.67 1.117 1.131.288.462.5.983.637 1.563.136.58.205 1.157.205 1.732s-.069 1.153-.205 1.733a5.278 5.278 0 01-.637 1.57c-.287.466-.66.846-1.117 1.138-.457.292-1.006.438-1.647.438zm0-1.046c.452 0 .832-.111 1.138-.333a2.46 2.46 0 00.742-.876c.189-.363.323-.773.403-1.23a8.054 8.054 0 000-2.787 4.148 4.148 0 00-.403-1.223 2.476 2.476 0 00-.742-.87c-.306-.221-.686-.332-1.138-.332-.453 0-.832.11-1.139.332a2.476 2.476 0 00-.742.87 4.148 4.148 0 00-.403 1.223 8.054 8.054 0 000 2.786c.08.458.214.868.403 1.23.188.364.436.656.742.877.307.222.686.333 1.139.333zm8.654 1.046c-.65 0-1.202-.146-1.654-.438a3.63 3.63 0 01-1.117-1.139 5.04 5.04 0 01-.637-1.57 7.784 7.784 0 01-.198-1.732c0-.575.066-1.152.198-1.732.132-.58.344-1.1.637-1.563.292-.462.664-.839 1.117-1.131.452-.292 1.004-.439 1.654-.439.642 0 1.19.147 1.648.439.457.292.83.67 1.117 1.131.288.462.5.983.637 1.563.136.58.205 1.157.205 1.732s-.069 1.153-.205 1.733a5.278 5.278 0 01-.637 1.57c-.287.466-.66.846-1.117 1.138-.457.292-1.006.438-1.648.438zm0-1.046c.453 0 .832-.111 1.139-.333a2.46 2.46 0 00.742-.876c.189-.363.323-.773.403-1.23a8.054 8.054 0 000-2.787 4.148 4.148 0 00-.403-1.223 2.476 2.476 0 00-.742-.87c-.307-.221-.686-.332-1.139-.332-.452 0-.832.11-1.138.332a2.476 2.476 0 00-.742.87 4.148 4.148 0 00-.403 1.223 8.054 8.054 0 000 2.786c.08.458.214.868.403 1.23.188.364.436.656.742.877.306.222.686.333 1.138.333zm8.655 1.046c-.65 0-1.202-.146-1.654-.438a3.63 3.63 0 01-1.117-1.139 5.04 5.04 0 01-.637-1.57 7.784 7.784 0 01-.198-1.732c0-.575.066-1.152.198-1.732.132-.58.344-1.1.637-1.563.292-.462.664-.839 1.117-1.131.452-.292 1.004-.439 1.654-.439.642 0 1.19.147 1.648.439.457.292.83.67 1.117 1.131.288.462.5.983.637 1.563.136.58.205 1.157.205 1.732s-.069 1.153-.205 1.733a5.278 5.278 0 01-.637 1.57c-.287.466-.66.846-1.117 1.138-.457.292-1.006.438-1.648.438zm0-1.046c.453 0 .832-.111 1.139-.333a2.46 2.46 0 00.742-.876c.189-.363.323-.773.403-1.23a8.054 8.054 0 000-2.787 4.148 4.148 0 00-.403-1.223 2.476 2.476 0 00-.742-.87c-.307-.221-.686-.332-1.139-.332-.452 0-.832.11-1.138.332a2.476 2.476 0 00-.742.87 4.148 4.148 0 00-.404 1.223 8.054 8.054 0 000 2.786c.08.458.215.868.404 1.23.188.364.436.656.742.877.306.222.686.333 1.138.333zM5.579 226.848v-7.877l-1.513 1.598-.707-.721 2.361-2.433h1.033v9.433H5.579zm6.534.17c-.802 0-1.466-.135-1.994-.403a3.832 3.832 0 01-1.33-1.11l.722-.778c.31.396.676.702 1.096.919.42.217.921.325 1.506.325.32 0 .615-.052.884-.155a1.943 1.943 0 001.131-1.068c.108-.25.163-.516.163-.8 0-.31-.055-.59-.163-.84a1.943 1.943 0 00-.446-.644 1.898 1.898 0 00-.678-.41 2.592 2.592 0 00-.877-.142c-.424 0-.813.071-1.167.212-.353.142-.69.368-1.011.68l-.863-.298v-5.09h5.77v1.046H10.26v3.28c.226-.226.53-.424.912-.593.382-.17.813-.255 1.294-.255.396 0 .773.066 1.132.198a2.768 2.768 0 011.62 1.527c.164.378.246.807.246 1.287 0 .481-.085.915-.254 1.301a2.81 2.81 0 01-.707.983 3.108 3.108 0 01-1.068.615 4.03 4.03 0 01-1.322.213zm8.414 0c-.65 0-1.202-.147-1.654-.439a3.63 3.63 0 01-1.118-1.138 5.04 5.04 0 01-.636-1.57 7.784 7.784 0 01-.198-1.732c0-.575.066-1.153.198-1.733.132-.58.344-1.1.636-1.562.293-.462.665-.84 1.118-1.132.452-.292 1.004-.438 1.654-.438.641 0 1.19.146 1.648.438.457.292.83.67 1.117 1.132.288.461.5.982.636 1.562.137.58.205 1.158.205 1.733 0 .575-.068 1.152-.205 1.732a5.278 5.278 0 01-.636 1.57c-.288.466-.66.846-1.117 1.138-.458.292-1.007.439-1.648.439zm0-1.047c.453 0 .832-.11 1.139-.332a2.46 2.46 0 00.742-.877c.189-.363.323-.773.403-1.23a8.054 8.054 0 000-2.786 4.148 4.148 0 00-.403-1.224 2.476 2.476 0 00-.742-.87c-.307-.221-.686-.332-1.139-.332-.452 0-.832.111-1.138.333a2.476 2.476 0 00-.743.87 4.148 4.148 0 00-.403 1.223 8.054 8.054 0 000 2.786c.08.457.215.867.403 1.23.189.363.436.655.743.877.306.221.686.332 1.138.332zm12.304 1.047c-.65 0-1.202-.147-1.655-.439a3.63 3.63 0 01-1.117-1.138 5.04 5.04 0 01-.636-1.57 7.784 7.784 0 01-.198-1.732c0-.575.066-1.153.198-1.733.132-.58.344-1.1.636-1.562.292-.462.665-.84 1.117-1.132.453-.292 1.004-.438 1.655-.438.64 0 1.19.146 1.647.438.458.292.83.67 1.118 1.132.287.461.5.982.636 1.562.137.58.205 1.158.205 1.733 0 .575-.068 1.152-.205 1.732a5.278 5.278 0 01-.636 1.57c-.288.466-.66.846-1.118 1.138-.457.292-1.006.439-1.647.439zm0-1.047c.452 0 .832-.11 1.138-.332a2.46 2.46 0 00.743-.877c.188-.363.323-.773.403-1.23a8.054 8.054 0 000-2.786 4.148 4.148 0 00-.403-1.224 2.476 2.476 0 00-.743-.87c-.306-.221-.686-.332-1.138-.332-.453 0-.832.111-1.139.333a2.476 2.476 0 00-.742.87 4.148 4.148 0 00-.403 1.223 8.054 8.054 0 000 2.786c.08.457.214.867.403 1.23.188.363.436.655.742.877.307.221.686.332 1.139.332zm8.655 1.047c-.65 0-1.202-.147-1.655-.439a3.63 3.63 0 01-1.117-1.138 5.04 5.04 0 01-.637-1.57 7.784 7.784 0 01-.198-1.732c0-.575.066-1.153.198-1.733.132-.58.345-1.1.637-1.562.292-.462.665-.84 1.117-1.132.453-.292 1.004-.438 1.655-.438.64 0 1.19.146 1.647.438.458.292.83.67 1.117 1.132.288.461.5.982.637 1.562.137.58.205 1.158.205 1.733 0 .575-.068 1.152-.205 1.732a5.278 5.278 0 01-.637 1.57c-.287.466-.66.846-1.117 1.138-.457.292-1.006.439-1.647.439zm0-1.047c.452 0 .832-.11 1.138-.332a2.46 2.46 0 00.743-.877c.188-.363.323-.773.403-1.23a8.054 8.054 0 000-2.786 4.148 4.148 0 00-.403-1.224 2.476 2.476 0 00-.743-.87c-.306-.221-.686-.332-1.138-.332-.453 0-.832.111-1.139.333a2.476 2.476 0 00-.742.87 4.148 4.148 0 00-.403 1.223 8.054 8.054 0 000 2.786c.08.457.214.867.403 1.23.188.363.436.655.742.877.307.221.686.332 1.139.332zm8.655 1.047c-.65 0-1.202-.147-1.655-.439a3.63 3.63 0 01-1.117-1.138 5.04 5.04 0 01-.637-1.57 7.784 7.784 0 01-.198-1.732c0-.575.066-1.153.198-1.733.132-.58.345-1.1.637-1.562.292-.462.664-.84 1.117-1.132.453-.292 1.004-.438 1.655-.438.64 0 1.19.146 1.647.438.457.292.83.67 1.117 1.132.288.461.5.982.637 1.562.137.58.205 1.158.205 1.733 0 .575-.068 1.152-.205 1.732a5.278 5.278 0 01-.637 1.57c-.287.466-.66.846-1.117 1.138-.457.292-1.006.439-1.647.439zm0-1.047c.452 0 .832-.11 1.138-.332a2.46 2.46 0 00.743-.877c.188-.363.322-.773.403-1.23a8.054 8.054 0 000-2.786 4.148 4.148 0 00-.403-1.224 2.476 2.476 0 00-.743-.87c-.306-.221-.686-.332-1.138-.332-.453 0-.832.111-1.139.333a2.476 2.476 0 00-.742.87 4.148 4.148 0 00-.403 1.223 8.054 8.054 0 000 2.786c.08.457.214.867.403 1.23.188.363.436.655.742.877.307.221.686.332 1.139.332zM5.579 263.032v-7.877l-1.513 1.598-.707-.721L5.72 253.6h1.033v9.432H5.579zm6.604.17c-.65 0-1.202-.146-1.654-.438a3.63 3.63 0 01-1.117-1.139 5.04 5.04 0 01-.637-1.57 7.784 7.784 0 01-.198-1.732c0-.575.066-1.153.198-1.732.132-.58.344-1.101.637-1.563.292-.462.664-.84 1.117-1.132.452-.292 1.004-.438 1.654-.438.641 0 1.19.146 1.648.438.457.293.83.67 1.117 1.132.288.462.5.983.637 1.563.136.58.205 1.157.205 1.732s-.069 1.153-.205 1.732a5.278 5.278 0 01-.637 1.57c-.287.467-.66.846-1.117 1.139-.457.292-1.007.438-1.648.438zm0-1.047c.453 0 .832-.11 1.139-.332a2.46 2.46 0 00.742-.877c.189-.363.323-.773.403-1.23a8.054 8.054 0 000-2.786 4.148 4.148 0 00-.403-1.223 2.476 2.476 0 00-.742-.87c-.307-.222-.686-.332-1.139-.332-.452 0-.832.11-1.138.332a2.476 2.476 0 00-.743.87 4.148 4.148 0 00-.403 1.223 8.054 8.054 0 000 2.786c.08.457.215.867.403 1.23.189.363.437.656.743.877.306.222.686.332 1.138.332zm8.655 1.047c-.65 0-1.202-.146-1.654-.438a3.63 3.63 0 01-1.118-1.139 5.04 5.04 0 01-.636-1.57 7.784 7.784 0 01-.198-1.732c0-.575.066-1.153.198-1.732.132-.58.344-1.101.636-1.563.293-.462.665-.84 1.118-1.132.452-.292 1.004-.438 1.654-.438.641 0 1.19.146 1.648.438.457.293.83.67 1.117 1.132.288.462.5.983.636 1.563.137.58.206 1.157.206 1.732s-.069 1.153-.206 1.732a5.278 5.278 0 01-.636 1.57c-.287.467-.66.846-1.117 1.139-.457.292-1.007.438-1.648.438zm0-1.047c.453 0 .832-.11 1.139-.332a2.46 2.46 0 00.742-.877c.189-.363.323-.773.403-1.23a8.054 8.054 0 000-2.786 4.148 4.148 0 00-.403-1.223 2.476 2.476 0 00-.742-.87c-.307-.222-.686-.332-1.139-.332-.452 0-.832.11-1.138.332a2.476 2.476 0 00-.743.87 4.148 4.148 0 00-.403 1.223 8.054 8.054 0 000 2.786c.08.457.215.867.403 1.23.189.363.436.656.743.877.306.222.686.332 1.138.332zm12.304 1.047c-.65 0-1.202-.146-1.655-.438a3.63 3.63 0 01-1.117-1.139 5.04 5.04 0 01-.636-1.57 7.784 7.784 0 01-.198-1.732c0-.575.066-1.153.198-1.732.132-.58.344-1.101.636-1.563.292-.462.665-.84 1.117-1.132.453-.292 1.004-.438 1.655-.438.641 0 1.19.146 1.647.438.458.293.83.67 1.118 1.132.287.462.5.983.636 1.563.137.58.205 1.157.205 1.732s-.068 1.153-.205 1.732a5.278 5.278 0 01-.636 1.57c-.288.467-.66.846-1.118 1.139-.457.292-1.006.438-1.647.438zm0-1.047c.452 0 .832-.11 1.138-.332a2.46 2.46 0 00.743-.877c.188-.363.323-.773.403-1.23a8.054 8.054 0 000-2.786 4.148 4.148 0 00-.403-1.223 2.476 2.476 0 00-.743-.87c-.306-.222-.686-.332-1.138-.332-.453 0-.832.11-1.139.332a2.476 2.476 0 00-.742.87 4.148 4.148 0 00-.403 1.223 8.054 8.054 0 000 2.786c.08.457.214.867.403 1.23.189.363.436.656.742.877.307.222.686.332 1.139.332zm8.655 1.047c-.65 0-1.202-.146-1.655-.438a3.63 3.63 0 01-1.117-1.139 5.04 5.04 0 01-.636-1.57 7.784 7.784 0 01-.198-1.732c0-.575.066-1.153.198-1.732.132-.58.344-1.101.636-1.563.292-.462.665-.84 1.117-1.132.453-.292 1.004-.438 1.655-.438.641 0 1.19.146 1.647.438.458.293.83.67 1.118 1.132.287.462.5.983.636 1.563.137.58.205 1.157.205 1.732s-.068 1.153-.205 1.732a5.278 5.278 0 01-.636 1.57c-.288.467-.66.846-1.118 1.139-.457.292-1.006.438-1.647.438zm0-1.047c.452 0 .832-.11 1.138-.332a2.46 2.46 0 00.743-.877c.188-.363.323-.773.403-1.23a8.054 8.054 0 000-2.786 4.148 4.148 0 00-.403-1.223 2.476 2.476 0 00-.743-.87c-.306-.222-.686-.332-1.138-.332-.453 0-.832.11-1.139.332a2.476 2.476 0 00-.742.87 4.148 4.148 0 00-.403 1.223 8.054 8.054 0 000 2.786c.08.457.214.867.403 1.23.189.363.436.656.742.877.307.222.686.332 1.139.332zm8.655 1.047c-.65 0-1.202-.146-1.655-.438a3.63 3.63 0 01-1.117-1.139 5.04 5.04 0 01-.636-1.57 7.784 7.784 0 01-.198-1.732c0-.575.066-1.153.198-1.732.132-.58.344-1.101.636-1.563.292-.462.665-.84 1.117-1.132.453-.292 1.004-.438 1.655-.438.64 0 1.19.146 1.647.438.458.293.83.67 1.118 1.132.287.462.5.983.636 1.563.137.58.205 1.157.205 1.732s-.068 1.153-.205 1.732a5.278 5.278 0 01-.636 1.57c-.288.467-.66.846-1.118 1.139-.457.292-1.006.438-1.647.438zm0-1.047c.452 0 .832-.11 1.138-.332a2.46 2.46 0 00.743-.877c.188-.363.323-.773.403-1.23a8.054 8.054 0 000-2.786 4.148 4.148 0 00-.403-1.223 2.476 2.476 0 00-.743-.87c-.306-.222-.686-.332-1.138-.332-.453 0-.832.11-1.139.332a2.476 2.476 0 00-.742.87 4.148 4.148 0 00-.403 1.223 8.054 8.054 0 000 2.786c.08.457.214.867.403 1.23.188.363.436.656.742.877.307.222.686.332 1.139.332zM7.319 299.386c-.802 0-1.467-.134-1.995-.403a3.832 3.832 0 01-1.329-1.11l.721-.778c.311.396.677.703 1.096.92.42.216.922.325 1.507.325.32 0 .615-.052.883-.156a1.943 1.943 0 001.131-1.068c.11-.25.163-.516.163-.799 0-.31-.054-.591-.162-.841a1.943 1.943 0 00-.446-.643 1.898 1.898 0 00-.679-.41 2.592 2.592 0 00-.876-.142c-.425 0-.814.07-1.167.212-.354.142-.69.368-1.011.679l-.863-.297v-5.091h5.77v1.046H5.466v3.281c.226-.226.53-.424.912-.594.382-.17.813-.254 1.294-.254.396 0 .773.066 1.131.198a2.768 2.768 0 011.62 1.527c.165.377.247.806.247 1.287 0 .48-.085.915-.254 1.301a2.81 2.81 0 01-.707.983 3.108 3.108 0 01-1.068.615 4.03 4.03 0 01-1.322.212zm8.414 0c-.65 0-1.202-.146-1.655-.438a3.63 3.63 0 01-1.117-1.139 5.04 5.04 0 01-.636-1.57 7.784 7.784 0 01-.198-1.732c0-.575.066-1.152.198-1.732.132-.58.344-1.1.636-1.563.292-.462.665-.839 1.117-1.131.453-.292 1.004-.439 1.655-.439.641 0 1.19.147 1.648.439.457.292.83.67 1.117 1.131.287.462.5.983.636 1.563.137.58.205 1.157.205 1.732s-.068 1.153-.205 1.733a5.278 5.278 0 01-.636 1.57c-.288.466-.66.846-1.117 1.138-.458.292-1.007.438-1.648.438zm0-1.046c.453 0 .832-.111 1.138-.333a2.46 2.46 0 00.743-.876c.188-.363.323-.773.403-1.23a8.054 8.054 0 000-2.787 4.148 4.148 0 00-.403-1.223 2.476 2.476 0 00-.743-.87c-.306-.221-.685-.332-1.138-.332-.453 0-.832.11-1.138.332a2.476 2.476 0 00-.743.87 4.148 4.148 0 00-.403 1.223 8.054 8.054 0 000 2.786c.08.458.215.868.403 1.23.189.364.436.656.743.877.306.222.685.333 1.138.333zm12.304 1.046c-.65 0-1.202-.146-1.655-.438a3.63 3.63 0 01-1.117-1.139 5.04 5.04 0 01-.637-1.57 7.784 7.784 0 01-.198-1.732c0-.575.066-1.152.198-1.732.132-.58.345-1.1.637-1.563.292-.462.664-.839 1.117-1.131.453-.292 1.004-.439 1.655-.439.64 0 1.19.147 1.647.439.457.292.83.67 1.117 1.131.288.462.5.983.637 1.563.136.58.205 1.157.205 1.732s-.069 1.153-.205 1.733a5.278 5.278 0 01-.637 1.57c-.287.466-.66.846-1.117 1.138-.457.292-1.006.438-1.647.438zm0-1.046c.452 0 .832-.111 1.138-.333a2.46 2.46 0 00.743-.876c.188-.363.322-.773.403-1.23a8.054 8.054 0 000-2.787 4.148 4.148 0 00-.403-1.223 2.476 2.476 0 00-.743-.87c-.306-.221-.686-.332-1.138-.332-.453 0-.832.11-1.139.332a2.476 2.476 0 00-.742.87 4.148 4.148 0 00-.403 1.223 8.054 8.054 0 000 2.786c.08.458.214.868.403 1.23.188.364.436.656.742.877.307.222.686.333 1.139.333zm8.655 1.046c-.651 0-1.203-.146-1.655-.438a3.63 3.63 0 01-1.117-1.139 5.04 5.04 0 01-.637-1.57 7.784 7.784 0 01-.198-1.732c0-.575.066-1.152.198-1.732.132-.58.344-1.1.637-1.563.292-.462.664-.839 1.117-1.131.452-.292 1.004-.439 1.655-.439.64 0 1.19.147 1.647.439.457.292.83.67 1.117 1.131.288.462.5.983.637 1.563.136.58.205 1.157.205 1.732s-.069 1.153-.205 1.733a5.278 5.278 0 01-.637 1.57c-.287.466-.66.846-1.117 1.138-.457.292-1.006.438-1.647.438zm0-1.046c.452 0 .832-.111 1.138-.333a2.46 2.46 0 00.742-.876c.189-.363.323-.773.404-1.23a8.054 8.054 0 000-2.787 4.148 4.148 0 00-.404-1.223 2.476 2.476 0 00-.742-.87c-.306-.221-.686-.332-1.138-.332-.453 0-.832.11-1.139.332a2.476 2.476 0 00-.742.87 4.148 4.148 0 00-.403 1.223 8.054 8.054 0 000 2.786c.08.458.214.868.403 1.23.188.364.436.656.742.877.307.222.686.333 1.139.333zm8.655 1.046c-.651 0-1.203-.146-1.655-.438a3.63 3.63 0 01-1.117-1.139 5.04 5.04 0 01-.637-1.57 7.784 7.784 0 01-.198-1.732c0-.575.066-1.152.198-1.732.132-.58.344-1.1.637-1.563.292-.462.664-.839 1.117-1.131.452-.292 1.004-.439 1.655-.439.64 0 1.19.147 1.647.439.457.292.83.67 1.117 1.131.288.462.5.983.637 1.563.136.58.205 1.157.205 1.732s-.069 1.153-.205 1.733a5.278 5.278 0 01-.637 1.57c-.287.466-.66.846-1.117 1.138-.457.292-1.006.438-1.647.438zm0-1.046c.452 0 .832-.111 1.138-.333a2.46 2.46 0 00.742-.876c.189-.363.323-.773.403-1.23a8.054 8.054 0 000-2.787 4.148 4.148 0 00-.403-1.223 2.476 2.476 0 00-.742-.87c-.306-.221-.686-.332-1.138-.332-.453 0-.833.11-1.139.332a2.476 2.476 0 00-.742.87 4.148 4.148 0 00-.403 1.223 8.054 8.054 0 000 2.786c.08.458.214.868.403 1.23.188.364.436.656.742.877.306.222.686.333 1.139.333zM51.785 335.988c-.65 0-1.202-.146-1.655-.438a3.63 3.63 0 01-1.117-1.139 5.04 5.04 0 01-.637-1.57 7.784 7.784 0 01-.198-1.732c0-.575.066-1.152.198-1.732.132-.58.344-1.101.637-1.563.292-.462.664-.84 1.117-1.131.453-.293 1.004-.439 1.655-.439.64 0 1.19.146 1.647.439.457.292.83.67 1.117 1.131.288.462.5.983.637 1.563.136.58.205 1.157.205 1.732s-.069 1.153-.205 1.733a5.278 5.278 0 01-.637 1.57c-.287.466-.66.845-1.117 1.138-.457.292-1.006.438-1.647.438zm0-1.046c.452 0 .832-.111 1.138-.333a2.46 2.46 0 00.743-.877c.188-.363.322-.773.403-1.23a8.054 8.054 0 000-2.786 4.148 4.148 0 00-.403-1.223 2.476 2.476 0 00-.743-.87c-.306-.221-.686-.332-1.138-.332-.453 0-.832.11-1.139.332a2.476 2.476 0 00-.742.87 4.148 4.148 0 00-.403 1.223 8.054 8.054 0 000 2.786c.08.457.214.867.403 1.23.188.363.436.656.742.877.307.222.686.333 1.139.333z" fill="#0C0C0C" fill-rule="nonzero"/><path fill="url(#b)" d="M90.322 291.477l60.25 3.332 59.704-16.237 58.173-11.921 60.49-27.612 59.214-7.205 58.926-18.44 59.767-33.907 59.42-15.826 58.877-49.332 60.243-12.515 58.958-22.696v251.064l-654.022 1.53z"/><path fill="url(#c)" d="M90.322 271.243l60.974.7 58.98-.097 58.173 3.99 60.362-3.892 59.046 7.556 59.705 3.664 59.368 21.645 60.04 6.201 58.173-20.794 59.704 1.531 59.159-1.53v45.323H90.322z"/><path d="M136.076 349.735v-.796a5.78 5.78 0 01-1.586-.318c-.469-.171-.867-.4-1.194-.686a2.958 2.958 0 01-.753-1.004 3.026 3.026 0 01-.263-1.274 2.897 2.897 0 011.017-2.26c.326-.281.724-.51 1.193-.685a5.63 5.63 0 011.586-.325v-.82h1.017v.82a5.63 5.63 0 011.586.325c.47.175.87.404 1.2.686.33.281.584.614.76.998.175.384.263.804.263 1.261 0 .466-.088.89-.264 1.274a2.924 2.924 0 01-.759 1.004c-.33.286-.73.515-1.2.686a5.78 5.78 0 01-1.586.318v.796h-1.017zm3.773-4.078c0-.653-.243-1.192-.73-1.616-.485-.425-1.16-.674-2.026-.747v4.727c.865-.074 1.541-.323 2.027-.747.486-.425.729-.964.729-1.617zm-6.516 0c0 .653.239 1.192.717 1.617.477.424 1.153.673 2.026.747v-4.727c-.873.073-1.549.322-2.026.747-.478.424-.717.963-.717 1.616zm11.782 4.225c-.441 0-.845-.075-1.213-.226a2.776 2.776 0 01-.949-.637 2.96 2.96 0 01-.624-.98 3.402 3.402 0 01-.227-1.267c0-.425.073-.827.22-1.207.147-.38.35-.708.607-.986.257-.277.563-.498.918-.66a2.766 2.766 0 011.17-.246c.449 0 .849.082 1.2.245.351.163.65.388.894.674.245.286.43.622.557 1.01.127.388.19.802.19 1.243v.233h-4.788c.016.277.077.54.183.79a2.037 2.037 0 001.09 1.09c.253.11.54.165.857.165a2.59 2.59 0 001.825-.747l.441.6a3 3 0 01-1.029.674 3.568 3.568 0 01-1.322.232zm1.837-3.478c0-.22-.039-.447-.117-.68a1.96 1.96 0 00-.355-.636 1.85 1.85 0 00-.606-.472 1.923 1.923 0 00-.87-.183 1.79 1.79 0 00-.832.183 1.93 1.93 0 00-.594.466c-.16.187-.282.398-.368.63a2.224 2.224 0 00-.14.692h3.882zm6.363.284c.144.04.28.106.41.194.13.09.244.2.342.33.098.131.176.274.233.43.057.154.086.318.086.49 0 .48-.151.869-.453 1.163-.302.294-.727.44-1.274.44h-3.319v-5.915h3.258c.522 0 .93.141 1.224.423.294.281.441.647.441 1.096 0 .36-.096.653-.288.882a1.446 1.446 0 01-.667.465l.007.002zm-.84 2.24c.294 0 .527-.08.698-.24.172-.159.257-.381.257-.667a.945.945 0 00-.244-.637c-.164-.188-.4-.282-.71-.282h-2.218v1.825h2.217zm-.037-2.634c.286 0 .505-.077.656-.233a.808.808 0 00.226-.587c0-.262-.075-.468-.226-.619-.151-.151-.37-.227-.656-.227h-2.18v1.666h2.18zm6.602 3.588c-.409 0-.784-.09-1.127-.269a2.45 2.45 0 01-.87-.772v3.148h-.918v-8.169h.918v.882c.213-.302.494-.55.845-.741a2.361 2.361 0 011.152-.288c.392 0 .749.072 1.071.215.323.142.6.347.833.612.233.265.412.59.539.974.126.383.19.816.19 1.298 0 .481-.064.914-.19 1.298a2.84 2.84 0 01-.539.98c-.233.27-.51.475-.833.618-.322.143-.68.214-1.071.214zm-.233-.82c.294 0 .56-.057.796-.172.237-.114.437-.273.6-.477.163-.204.288-.447.374-.729a3.12 3.12 0 00.128-.912c0-.327-.043-.629-.128-.907a2.166 2.166 0 00-.374-.722 1.712 1.712 0 00-.6-.478 1.807 1.807 0 00-.796-.171c-.368 0-.712.092-1.035.275a2.002 2.002 0 00-.729.668v2.67c.164.26.407.485.729.673.323.188.667.282 1.035.282zm8.022.673v-.673c-.498.547-1.152.82-1.96.82-.253 0-.502-.04-.747-.122a1.947 1.947 0 01-1.139-.992 1.865 1.865 0 01-.184-.845c0-.327.062-.612.184-.857a1.878 1.878 0 011.14-.974 2.46 2.46 0 01.746-.116c.408 0 .778.065 1.109.196.33.13.614.334.85.612v-1.066c0-.4-.14-.708-.422-.924-.282-.217-.639-.325-1.071-.325-.694 0-1.299.274-1.813.82l-.429-.636c.629-.653 1.417-.98 2.364-.98.31 0 .604.037.882.11.277.074.52.19.729.35.208.159.373.365.496.618.122.253.183.56.183.918v4.066h-.918zm-1.63-.514c.327 0 .636-.061.925-.184.29-.122.525-.306.705-.55v-1.115a1.652 1.652 0 00-.705-.551 2.351 2.351 0 00-.924-.184c-.433 0-.784.12-1.053.361-.27.241-.405.553-.405.937 0 .376.135.684.405.925.269.24.62.361 1.053.361zm3.687-.098c.278 0 .506-.18.686-.539.18-.359.327-.975.44-1.849l.38-2.915h4.116v5.915h-.919v-5.107h-2.388l-.27 2.217a8.488 8.488 0 01-.269 1.409 3.287 3.287 0 01-.423.936c-.167.241-.363.417-.587.527-.225.11-.48.165-.766.165v-.759zm8.377-5.303v2.29h2.217c.302 0 .57.05.802.147.233.098.429.231.588.398.16.168.277.36.355.576.078.216.116.447.116.692 0 .245-.04.478-.122.698-.082.22-.2.412-.355.576a1.699 1.699 0 01-.582.392c-.233.097-.5.146-.802.146h-3.135v-5.915h.918zm0 3.099v2.008h2.119c.335 0 .588-.094.76-.281.17-.188.256-.43.256-.723a1.05 1.05 0 00-.25-.717c-.168-.191-.423-.287-.766-.287h-2.119zM72.527 349.735l2.204-3.33a2.504 2.504 0 01-.802-.209 2.237 2.237 0 01-.68-.465 2.196 2.196 0 01-.471-.723 2.541 2.541 0 01-.178-.98c0-.375.064-.714.19-1.016a2.258 2.258 0 011.347-1.274c.315-.114.66-.171 1.035-.171h3.282v8.168h-1.016v-3.245h-1.641l-2.082 3.245h-1.188zm4.91-4.139v-3.123h-2.155c-.481 0-.873.143-1.175.429-.302.285-.454.661-.454 1.126 0 .466.152.843.454 1.133.302.29.694.435 1.175.435h2.156zm2.879 4.14v-5.916h.918v2.462h3.087v-2.462h.918v5.915h-.918v-2.645h-3.087v2.645h-.918zm10.735-3.048c.145.04.281.106.41.194.13.09.245.2.343.33.098.131.175.274.232.43.057.154.086.318.086.49 0 .48-.151.869-.453 1.163-.302.294-.727.44-1.274.44h-3.319v-5.915h3.258c.522 0 .93.141 1.225.423.294.281.44.647.44 1.096 0 .36-.095.653-.287.882a1.446 1.446 0 01-.668.465l.007.002zm-.84 2.24c.294 0 .527-.08.699-.24.171-.159.257-.381.257-.667a.945.945 0 00-.245-.637c-.164-.188-.4-.282-.71-.282h-2.217v1.825h2.216zm-.036-2.634c.285 0 .504-.077.655-.233a.808.808 0 00.226-.587c0-.262-.075-.468-.226-.619-.151-.151-.37-.227-.655-.227h-2.18v1.666h2.18zm7.385 3.441v-.673c-.498.547-1.152.82-1.96.82-.253 0-.502-.04-.747-.122a1.947 1.947 0 01-1.139-.992 1.865 1.865 0 01-.184-.845c0-.327.062-.612.184-.857a1.878 1.878 0 011.14-.974 2.46 2.46 0 01.746-.116c.408 0 .778.065 1.108.196.331.13.615.334.852.612v-1.066c0-.4-.141-.708-.423-.924-.282-.217-.639-.325-1.071-.325-.694 0-1.299.274-1.813.82l-.429-.636c.629-.653 1.417-.98 2.364-.98.31 0 .604.037.882.11.277.074.52.19.728.35.209.159.374.365.496.618.123.253.184.56.184.918v4.066h-.918zm-1.63-.514c.327 0 .636-.061.925-.184.29-.122.525-.306.705-.55v-1.115a1.652 1.652 0 00-.705-.551 2.351 2.351 0 00-.924-.184c-.433 0-.784.12-1.053.361-.27.241-.405.553-.405.937 0 .376.135.684.405.925.269.24.62.361 1.053.361zm7.3.661c-.408 0-.784-.09-1.127-.269a2.45 2.45 0 01-.87-.772v3.148h-.918v-8.169h.919v.882c.212-.302.494-.55.845-.741a2.361 2.361 0 011.151-.288c.392 0 .75.072 1.072.215.322.142.6.347.832.612.233.265.413.59.54.974.126.383.19.816.19 1.298 0 .481-.064.914-.19 1.298a2.84 2.84 0 01-.54.98c-.232.27-.51.475-.832.618-.323.143-.68.214-1.072.214zm-.233-.82c.294 0 .56-.057.796-.172.237-.114.437-.273.6-.477.164-.204.288-.447.374-.729a3.12 3.12 0 00.129-.912c0-.327-.043-.629-.129-.907a2.166 2.166 0 00-.374-.722 1.712 1.712 0 00-.6-.478 1.807 1.807 0 00-.796-.171c-.367 0-.712.092-1.035.275a2.002 2.002 0 00-.728.668v2.67c.163.26.406.485.728.673.323.188.668.282 1.035.282zm5.242-5.242v2.29h2.217c.302 0 .57.05.802.147.233.098.429.231.588.398.159.168.277.36.355.576.077.216.116.447.116.692 0 .245-.04.478-.122.698-.082.22-.2.412-.355.576a1.699 1.699 0 01-.582.392c-.233.097-.5.146-.802.146h-3.135v-5.915h.918zm0 3.099v2.008h2.119c.335 0 .588-.094.76-.281.17-.188.256-.43.256-.723a1.05 1.05 0 00-.25-.717c-.168-.191-.423-.287-.766-.287h-2.119zM210.012 349.735v-6.723l-2.78 6.723h-.417l-2.768-6.723v6.723h-1.016v-8.168h1.457l2.535 6.148 2.548-6.148h1.457v8.168h-1.016zm6.589 0v-.673c-.499.547-1.152.82-1.96.82-.253 0-.502-.04-.747-.122a1.947 1.947 0 01-1.139-.992 1.865 1.865 0 01-.184-.845c0-.327.061-.612.184-.857a1.878 1.878 0 011.139-.974 2.46 2.46 0 01.747-.116c.408 0 .778.065 1.108.196.331.13.615.334.852.612v-1.066c0-.4-.141-.708-.423-.924-.282-.217-.639-.325-1.072-.325-.694 0-1.298.274-1.812.82l-.429-.636c.629-.653 1.417-.98 2.364-.98.31 0 .604.037.882.11.277.074.52.19.728.35.209.159.374.365.496.618.123.253.184.56.184.918v4.066h-.918zm-1.63-.514c.327 0 .635-.061.925-.184.29-.122.525-.306.705-.55v-1.115a1.652 1.652 0 00-.705-.551 2.351 2.351 0 00-.924-.184c-.433 0-.784.12-1.054.361-.269.241-.404.553-.404.937 0 .376.135.684.404.925.27.24.62.361 1.054.361zm7.3.661c-.408 0-.784-.09-1.127-.269a2.45 2.45 0 01-.87-.772v3.148h-.918v-8.169h.919v.882c.212-.302.494-.55.845-.741a2.361 2.361 0 011.15-.288c.393 0 .75.072 1.072.215.323.142.6.347.833.612.233.265.413.59.54.974.126.383.189.816.189 1.298 0 .481-.063.914-.19 1.298a2.84 2.84 0 01-.539.98c-.232.27-.51.475-.833.618-.322.143-.68.214-1.071.214zm-.233-.82c.294 0 .56-.057.796-.172.237-.114.437-.273.6-.477.164-.204.288-.447.374-.729a3.12 3.12 0 00.128-.912c0-.327-.042-.629-.128-.907a2.166 2.166 0 00-.374-.722 1.712 1.712 0 00-.6-.478 1.807 1.807 0 00-.796-.171c-.367 0-.712.092-1.035.275a2.002 2.002 0 00-.728.668v2.67c.163.26.406.485.728.673.323.188.668.282 1.035.282zm5.401.673v-5.107h-1.714v-.808h4.36v.808h-1.727v5.107h-.919zM256.318 349.735l-.723-1.812h-4.066l-.723 1.812h-1.163l3.282-8.168h1.262l3.294 8.168h-1.163zm-2.756-7.115l-1.74 4.397h3.467l-1.727-4.397zm8.953 7.115v-5.107h-3.087v5.107h-.918v-5.915h4.923v5.915h-.918zm5.67.147c-.408 0-.784-.09-1.127-.269a2.45 2.45 0 01-.87-.772v3.148h-.918v-8.169h.919v.882c.212-.302.494-.55.845-.741a2.361 2.361 0 011.15-.288c.393 0 .75.072 1.073.215.322.142.6.347.832.612.233.265.413.59.54.974.126.383.189.816.189 1.298 0 .481-.063.914-.19 1.298a2.84 2.84 0 01-.539.98c-.232.27-.51.475-.832.618-.323.143-.68.214-1.072.214zm-.233-.82c.294 0 .56-.057.796-.172.237-.114.437-.273.6-.477.164-.204.288-.447.374-.729a3.12 3.12 0 00.129-.912c0-.327-.043-.629-.13-.907a2.166 2.166 0 00-.373-.722 1.712 1.712 0 00-.6-.478 1.807 1.807 0 00-.796-.171c-.367 0-.712.092-1.035.275a2.002 2.002 0 00-.728.668v2.67c.163.26.406.485.728.673.323.188.668.282 1.035.282zm6.993.82c-.44 0-.845-.075-1.212-.226a2.776 2.776 0 01-.95-.637 2.96 2.96 0 01-.624-.98 3.402 3.402 0 01-.227-1.267c0-.425.074-.827.22-1.207.148-.38.35-.708.607-.986.257-.277.564-.498.919-.66a2.766 2.766 0 011.17-.246c.448 0 .848.082 1.2.245.35.163.649.388.894.674.244.286.43.622.557 1.01.126.388.19.802.19 1.243v.233H272.9c.016.277.078.54.184.79a2.037 2.037 0 001.09 1.09c.253.11.539.165.857.165a2.59 2.59 0 001.825-.747l.44.6a3 3 0 01-1.028.674 3.568 3.568 0 01-1.323.232zm1.837-3.478c0-.22-.038-.447-.116-.68a1.96 1.96 0 00-.355-.636 1.85 1.85 0 00-.606-.472 1.923 1.923 0 00-.87-.183 1.79 1.79 0 00-.833.183 1.93 1.93 0 00-.594.466 2.224 2.224 0 00-.508 1.323h3.882zm1.69 2.72c.278 0 .507-.18.686-.54.18-.359.327-.975.441-1.849l.38-2.915h4.115v5.915h-.919v-5.107h-2.388l-.27 2.217a8.488 8.488 0 01-.269 1.409 3.287 3.287 0 01-.422.936c-.168.241-.364.417-.588.527-.225.11-.48.165-.766.165v-.759zm8.377-5.304v2.29h2.217c.302 0 .57.05.802.147.233.098.429.231.588.398.16.168.278.36.355.576.078.216.117.447.117.692 0 .245-.041.478-.123.698-.082.22-.2.412-.355.576a1.699 1.699 0 01-.582.392c-.232.097-.5.146-.802.146h-3.135v-5.915h.918zm0 3.099v2.008h2.12c.334 0 .587-.094.758-.281.172-.188.258-.43.258-.723a1.05 1.05 0 00-.251-.717c-.168-.191-.423-.287-.766-.287h-2.119zM323.296 349.735v-6.723l-2.78 6.723h-.416l-2.768-6.723v6.723h-1.016v-8.168h1.457l2.535 6.148 2.548-6.148h1.457v8.168h-1.017zm6.59 0v-.673c-.499.547-1.152.82-1.96.82-.253 0-.502-.04-.747-.122a1.947 1.947 0 01-1.139-.992 1.865 1.865 0 01-.184-.845c0-.327.061-.612.184-.857a1.878 1.878 0 011.139-.974 2.46 2.46 0 01.747-.116c.408 0 .777.065 1.108.196.33.13.615.334.851.612v-1.066c0-.4-.14-.708-.422-.924-.282-.217-.64-.325-1.072-.325-.694 0-1.298.274-1.812.82l-.429-.636c.629-.653 1.417-.98 2.364-.98.31 0 .604.037.881.11.278.074.52.19.73.35.207.159.373.365.495.618.123.253.184.56.184.918v4.066h-.919zm-1.63-.514c.327 0 .635-.061.925-.184.29-.122.525-.306.704-.55v-1.115a1.652 1.652 0 00-.704-.551 2.351 2.351 0 00-.925-.184c-.432 0-.783.12-1.053.361-.27.241-.404.553-.404.937 0 .376.135.684.404.925.27.24.62.361 1.053.361zm4.385.514v-5.915h.918v4.52l3.099-4.52h.906v5.915h-.918v-4.604l-3.123 4.604h-.882zm4.605-7.666a2.62 2.62 0 01-2.143 1.078c-.441 0-.848-.096-1.219-.288a2.733 2.733 0 01-.937-.79l.453-.392c.196.27.437.484.723.643.286.16.612.239.98.239.359 0 .683-.078.973-.233.29-.155.529-.371.717-.649l.453.392zM372.958 349.735v-8.168h1.017v6.38l4.702-6.38h1.041v8.168h-1.016v-6.515l-4.764 6.515h-.98zm13.594.147c-.416 0-.796-.071-1.139-.214a2.74 2.74 0 01-.894-.594 2.841 2.841 0 01-.6-.888 3.456 3.456 0 01-.27-1.096h-1.138v2.645h-.919v-5.915h.919v2.462h1.15a3.34 3.34 0 01.307-1.029c.155-.318.357-.594.606-.827.25-.232.54-.416.87-.55.33-.135.7-.203 1.108-.203.45 0 .855.082 1.219.245.363.163.673.384.93.661.258.278.454.607.588.986.135.38.202.782.202 1.207 0 .432-.067.837-.202 1.212a2.796 2.796 0 01-1.519 1.653 2.94 2.94 0 01-1.218.245zm0-.82a1.815 1.815 0 001.464-.692c.167-.208.294-.451.38-.729a2.93 2.93 0 00.128-.87c0-.301-.043-.59-.129-.863a2.182 2.182 0 00-.38-.722 1.815 1.815 0 00-1.464-.692c-.31 0-.587.063-.832.19a1.905 1.905 0 00-.618.502c-.167.208-.294.449-.38.722a2.87 2.87 0 00-.128.864c0 .302.043.592.128.87.086.277.213.52.38.728.167.208.373.376.618.502.245.127.523.19.833.19zm4.434.673v-5.915h.918v2.462h3.086v-2.462h.919v5.915h-.919v-2.645h-3.086v2.645h-.918zm7.678-5.915v2.29h2.217c.302 0 .57.05.802.147.233.098.429.231.588.398.16.168.278.36.355.576.078.216.117.447.117.692 0 .245-.041.478-.123.698-.081.22-.2.412-.355.576a1.699 1.699 0 01-.582.392c-.232.097-.5.146-.802.146h-3.135v-5.915h.918zm0 3.099v2.008h2.12c.334 0 .587-.094.759-.281.171-.188.257-.43.257-.723a1.05 1.05 0 00-.251-.717c-.168-.191-.423-.287-.766-.287h-2.119zM428.07 349.735v-8.168h1.016v6.38l4.703-6.38h1.04v8.168h-1.016v-6.515l-4.764 6.515h-.98zm13.594.147c-.417 0-.796-.071-1.14-.214a2.74 2.74 0 01-.893-.594 2.841 2.841 0 01-.6-.888 3.456 3.456 0 01-.27-1.096h-1.139v2.645h-.918v-5.915h.918v2.462h1.151a3.34 3.34 0 01.307-1.029c.155-.318.357-.594.606-.827.249-.232.539-.416.87-.55.33-.135.7-.203 1.108-.203.449 0 .855.082 1.218.245.364.163.674.384.931.661.257.278.453.607.588.986.135.38.202.782.202 1.207 0 .432-.067.837-.202 1.212a2.796 2.796 0 01-1.519 1.653 2.94 2.94 0 01-1.218.245zm0-.82a1.815 1.815 0 001.463-.692c.168-.208.294-.451.38-.729a2.93 2.93 0 00.128-.87c0-.301-.042-.59-.128-.863a2.182 2.182 0 00-.38-.722 1.815 1.815 0 00-1.464-.692c-.31 0-.587.063-.832.19a1.905 1.905 0 00-.619.502c-.167.208-.293.449-.38.722a2.87 2.87 0 00-.128.864c0 .302.043.592.129.87.086.277.212.52.38.728.167.208.373.376.618.502.245.127.522.19.833.19zm3.735.061c.278 0 .506-.18.686-.539.18-.359.326-.975.44-1.849l.38-2.915h4.115v5.915h-.918v-5.107h-2.388l-.27 2.217a8.488 8.488 0 01-.27 1.409 3.287 3.287 0 01-.422.936c-.167.241-.363.417-.587.527-.225.11-.48.165-.766.165v-.759zm8.377-5.303v2.29h2.217c.302 0 .57.05.802.147.233.098.429.231.588.398.159.168.277.36.355.576.077.216.116.447.116.692 0 .245-.04.478-.122.698-.082.22-.2.412-.355.576a1.699 1.699 0 01-.582.392c-.233.097-.5.146-.802.146h-3.136v-5.915h.919zm0 3.099v2.008h2.119c.334 0 .588-.094.76-.281.17-.188.256-.43.256-.723a1.05 1.05 0 00-.25-.717c-.168-.191-.423-.287-.766-.287h-2.119zM495.134 349.735l-.722-1.812h-4.066l-.723 1.812h-1.163l3.282-8.168h1.261l3.295 8.168h-1.164zm-2.755-7.115l-1.74 4.397h3.466l-1.726-4.397zm8.922 4.068c.145.04.281.106.41.194.13.09.245.2.343.33.098.131.175.274.232.43.058.154.086.318.086.49 0 .48-.15.869-.453 1.163-.302.294-.727.44-1.274.44h-3.319v-5.915h3.258c.523 0 .93.141 1.225.423.294.281.44.647.44 1.096 0 .36-.095.653-.287.882a1.446 1.446 0 01-.668.465l.007.002zm-.84 2.24c.295 0 .527-.08.699-.24.171-.159.257-.381.257-.667a.945.945 0 00-.245-.637c-.163-.188-.4-.282-.71-.282h-2.217v1.825h2.217zm-.036-2.634c.286 0 .504-.077.655-.233a.808.808 0 00.227-.587c0-.262-.076-.468-.227-.619-.151-.151-.37-.227-.655-.227h-2.18v1.666h2.18zm7.826-1.666h-3.221v5.107h-.919v-5.915h4.14v.808zm1.016 6.59a.87.87 0 00.245.073c.098.016.184.024.257.024a.962.962 0 00.515-.128c.138-.086.261-.251.367-.496l.392-.894-2.474-5.977h.992l1.972 4.85 1.96-4.85h1.004l-2.964 7.116c-.18.432-.417.739-.71.918-.294.18-.637.274-1.03.282a2.81 2.81 0 01-.342-.025 2.423 2.423 0 01-.33-.06l.146-.834zm8.794-1.336c-.441 0-.843-.08-1.207-.238a2.764 2.764 0 01-.93-.656 2.974 2.974 0 01-.6-.985 3.466 3.466 0 01-.215-1.231c0-.441.071-.85.214-1.225.143-.376.343-.702.6-.98.258-.277.568-.496.931-.655.364-.16.766-.239 1.207-.239.538 0 .977.098 1.316.294.339.196.623.441.851.735l-.612.563a1.837 1.837 0 00-.668-.588 1.875 1.875 0 00-.838-.183c-.319 0-.603.057-.852.171a1.906 1.906 0 00-.643.478c-.18.204-.316.445-.41.722-.094.278-.14.58-.14.907 0 .326.046.63.14.912.094.282.23.525.41.729.18.204.394.363.643.477.25.115.533.172.852.172.62 0 1.122-.257 1.506-.772l.612.564a2.91 2.91 0 01-.85.735c-.34.195-.779.293-1.317.293zm4.53-.147v-5.107h-1.714v-.808h4.36v.808h-1.727v5.107h-.918zM546.755 349.882a4.394 4.394 0 01-1.647-.306 4.023 4.023 0 01-1.335-.863 3.997 3.997 0 01-.894-1.335 4.426 4.426 0 01-.324-1.72c0-.63.108-1.203.324-1.721.216-.519.514-.964.894-1.335.38-.372.825-.66 1.335-.864a4.394 4.394 0 011.647-.306c.36 0 .692.04.998.122.307.082.588.196.845.343.258.147.49.319.699.515.208.196.393.408.557.637l-.858.477a2.821 2.821 0 00-.949-.85 2.575 2.575 0 00-1.292-.338c-.449 0-.865.082-1.249.245a2.985 2.985 0 00-.998.686 3.178 3.178 0 00-.661 1.047 3.63 3.63 0 00-.24 1.341c0 .482.08.927.24 1.335.159.408.38.76.66 1.053.283.294.615.523 1 .686.383.164.8.245 1.248.245.466 0 .896-.11 1.292-.33.396-.22.713-.507.95-.858l.869.478a4.408 4.408 0 01-1.268 1.157c-.502.306-1.116.46-1.843.46zm7.042 0c-.44 0-.845-.075-1.212-.226a2.776 2.776 0 01-.95-.637 2.96 2.96 0 01-.624-.98 3.402 3.402 0 01-.226-1.267c0-.425.073-.827.22-1.207.147-.38.349-.708.606-.986.257-.277.564-.498.919-.66a2.766 2.766 0 011.17-.246c.448 0 .848.082 1.2.245.35.163.649.388.894.674.245.286.43.622.557 1.01.126.388.19.802.19 1.243v.233h-4.789c.016.277.078.54.184.79a2.037 2.037 0 001.09 1.09c.253.11.539.165.857.165a2.59 2.59 0 001.825-.747l.44.6a3 3 0 01-1.028.674 3.568 3.568 0 01-1.323.232zm1.837-3.478c0-.22-.038-.447-.116-.68a1.96 1.96 0 00-.355-.636 1.85 1.85 0 00-.606-.472 1.923 1.923 0 00-.87-.183 1.79 1.79 0 00-.833.183 1.93 1.93 0 00-.594.466 2.224 2.224 0 00-.508 1.323h3.882zm2.389 3.331v-5.915h.918v2.462h3.086v-2.462h.919v5.915h-.919v-2.645h-3.086v2.645h-.918zm7.838 0v-5.107h-1.715v-.808h4.36v.808h-1.727v5.107h-.918zm3.65 0l1.58-2.326a1.723 1.723 0 01-1.09-.558c-.287-.314-.43-.72-.43-1.218 0-.253.041-.49.123-.71a1.62 1.62 0 01.95-.962c.232-.094.5-.14.801-.14h3.123v5.914h-.918v-2.29h-1.617l-1.445 2.29h-1.078zm4.139-3.098v-2.009h-2.107c-.326 0-.58.094-.76.282-.179.188-.269.429-.269.723s.086.535.258.722c.171.188.428.282.771.282h2.107zm5.34 2.425c.318 0 .597-.063.838-.19.241-.126.445-.294.613-.502.167-.208.294-.451.38-.729a2.972 2.972 0 000-1.733 2.182 2.182 0 00-.38-.722 1.926 1.926 0 00-.613-.502c-.24-.127-.52-.19-.839-.19a1.815 1.815 0 00-1.463.692c-.168.208-.294.449-.38.722a2.972 2.972 0 000 1.733c.086.278.212.52.38.729a1.815 1.815 0 001.464.692zm0 .82c-.458 0-.866-.083-1.225-.25a2.636 2.636 0 01-.919-.705 3.191 3.191 0 01-.582-1.071 4.336 4.336 0 01-.202-1.354c0-.718.066-1.337.196-1.855.13-.519.325-.95.582-1.292.257-.343.58-.61.968-.802a4.24 4.24 0 011.353-.386c.326-.05.596-.096.808-.141.212-.045.382-.092.508-.14a.877.877 0 00.27-.148.227.227 0 00.08-.171h.893a.859.859 0 01-.22.606c-.147.16-.335.288-.563.386a3.97 3.97 0 01-.754.232c-.273.058-.536.102-.79.135-.44.065-.808.16-1.102.282a2.47 2.47 0 00-.722.44 1.857 1.857 0 00-.435.582 2.963 2.963 0 00-.227.705c.107-.172.233-.333.38-.484.147-.151.314-.284.502-.398a2.74 2.74 0 01.619-.276c.224-.07.467-.104.728-.104.417 0 .796.082 1.14.245.342.163.634.386.875.668.24.281.427.61.557.986.13.375.196.771.196 1.187 0 .425-.065.827-.196 1.207-.13.38-.322.71-.575.992a2.82 2.82 0 01-.919.673c-.36.168-.767.251-1.225.251zm7.397 0c-.409 0-.784-.09-1.127-.269a2.45 2.45 0 01-.87-.772v3.148h-.918v-8.169h.918v.882c.213-.302.494-.55.845-.741a2.361 2.361 0 011.152-.288c.391 0 .749.072 1.071.215.323.142.6.347.833.612.233.265.412.59.539.974.126.383.19.816.19 1.298 0 .481-.064.914-.19 1.298a2.84 2.84 0 01-.539.98c-.233.27-.51.475-.833.618-.322.143-.68.214-1.071.214zm-.233-.82c.294 0 .56-.057.796-.172.237-.114.437-.273.6-.477.163-.204.288-.447.374-.729a3.12 3.12 0 00.128-.912c0-.327-.043-.629-.128-.907a2.166 2.166 0 00-.374-.722 1.712 1.712 0 00-.6-.478 1.807 1.807 0 00-.796-.171c-.368 0-.712.092-1.035.275a2.002 2.002 0 00-.729.668v2.67c.164.26.407.485.729.673.323.188.667.282 1.035.282zm5.242-5.242v2.29h2.216c.302 0 .57.05.802.147.233.098.43.231.588.398.16.168.278.36.356.576.077.216.116.447.116.692 0 .245-.041.478-.123.698-.081.22-.2.412-.355.576a1.699 1.699 0 01-.582.392c-.232.097-.5.146-.802.146h-3.135v-5.915h.919zm0 3.099v2.008h2.118c.335 0 .588-.094.76-.281.171-.188.257-.43.257-.723a1.05 1.05 0 00-.251-.717c-.168-.191-.423-.287-.766-.287h-2.118zM609.374 349.882a4.175 4.175 0 01-1.653-.318 3.734 3.734 0 01-1.28-.888 4.05 4.05 0 01-.827-1.34 4.675 4.675 0 01-.294-1.679c0-.604.098-1.163.294-1.678a4.05 4.05 0 01.827-1.34c.355-.38.782-.676 1.28-.889a4.175 4.175 0 011.653-.318c.604 0 1.156.106 1.654.318.498.213.924.509 1.28.888.355.38.63.827.826 1.341.196.515.294 1.074.294 1.678 0 .604-.098 1.164-.294 1.678a4.05 4.05 0 01-.827 1.341c-.355.38-.781.676-1.28.888a4.175 4.175 0 01-1.653.318zm0-.906c.457 0 .87-.084 1.237-.25.368-.168.682-.401.943-.699.261-.298.464-.65.606-1.053.143-.404.215-.843.215-1.317 0-.473-.072-.914-.215-1.322a3.112 3.112 0 00-.606-1.054 2.798 2.798 0 00-.943-.692 2.95 2.95 0 00-1.237-.25c-.457 0-.871.083-1.243.25a2.782 2.782 0 00-.949.692 3.034 3.034 0 00-.6 1.054c-.139.408-.208.849-.208 1.322 0 .474.07.913.208 1.317.139.404.339.755.6 1.053.261.298.578.53.95.698.37.167.785.251 1.242.251zm9.639.76l-2.131-2.658-.98.967v1.69h-.919v-5.915h.919v3.148l3.11-3.148h1.164l-2.62 2.682 2.632 3.233h-1.175zm3.343 0v-5.108h-1.715v-.808h4.36v.808h-1.726v5.107h-.919zm3.65 0l1.58-2.327a1.723 1.723 0 01-1.09-.558c-.286-.314-.43-.72-.43-1.218 0-.253.042-.49.123-.71a1.62 1.62 0 01.95-.962c.232-.094.5-.14.802-.14h3.123v5.914h-.919v-2.29h-1.616l-1.446 2.29h-1.077zm4.14-3.099v-2.009h-2.107c-.327 0-.58.094-.76.282-.18.188-.27.429-.27.723s.087.535.258.722c.172.188.429.282.772.282h2.106zm5.339 2.425c.318 0 .598-.063.839-.19.24-.126.445-.294.612-.502.167-.208.294-.451.38-.729a2.972 2.972 0 000-1.733 2.182 2.182 0 00-.38-.722 1.926 1.926 0 00-.612-.502c-.241-.127-.52-.19-.84-.19a1.815 1.815 0 00-1.463.692c-.167.208-.294.449-.38.722a2.972 2.972 0 000 1.733c.086.278.213.52.38.729a1.815 1.815 0 001.464.692zm0 .82c-.457 0-.866-.083-1.225-.25a2.636 2.636 0 01-.918-.705 3.191 3.191 0 01-.582-1.071 4.336 4.336 0 01-.202-1.354c0-.718.065-1.337.196-1.855.13-.519.324-.95.581-1.292.258-.343.58-.61.968-.802a4.24 4.24 0 011.353-.386c.327-.05.596-.096.809-.141.212-.045.381-.092.508-.14a.877.877 0 00.27-.148.227.227 0 00.079-.171h.894a.859.859 0 01-.22.606c-.148.16-.335.288-.564.386a3.97 3.97 0 01-.753.232c-.274.058-.537.102-.79.135-.44.065-.808.16-1.102.282a2.47 2.47 0 00-.723.44 1.857 1.857 0 00-.435.582 2.963 2.963 0 00-.226.705c.106-.172.233-.333.38-.484.146-.151.314-.284.502-.398a2.74 2.74 0 01.618-.276c.225-.07.468-.104.729-.104.416 0 .796.082 1.139.245.343.163.635.386.875.668.241.281.427.61.558.986.13.375.196.771.196 1.187 0 .425-.066.827-.196 1.207-.131.38-.323.71-.576.992a2.82 2.82 0 01-.918.673c-.36.168-.768.251-1.225.251zm7.397 0c-.408 0-.784-.09-1.127-.269a2.45 2.45 0 01-.87-.772v3.148h-.918v-8.169h.919v.882c.212-.302.494-.55.845-.741a2.361 2.361 0 011.151-.288c.392 0 .75.072 1.072.215.322.142.6.347.832.612.233.265.413.59.54.974.126.383.19.816.19 1.298 0 .481-.064.914-.19 1.298a2.84 2.84 0 01-.54.98c-.232.27-.51.475-.832.618-.323.143-.68.214-1.072.214zm-.233-.82c.294 0 .56-.057.796-.172.237-.114.437-.273.6-.477.164-.204.288-.447.374-.729a3.12 3.12 0 00.129-.912c0-.327-.043-.629-.129-.907a2.166 2.166 0 00-.374-.722 1.712 1.712 0 00-.6-.478 1.807 1.807 0 00-.796-.171c-.367 0-.712.092-1.035.275a2.002 2.002 0 00-.728.668v2.67c.163.26.406.485.728.673.323.188.668.282 1.035.282zm5.242-5.242v2.29h2.217c.302 0 .57.05.802.147.233.098.429.231.588.398.159.168.277.36.355.576.078.216.116.447.116.692 0 .245-.04.478-.122.698-.082.22-.2.412-.355.576a1.699 1.699 0 01-.582.392c-.233.097-.5.146-.802.146h-3.135v-5.915h.918zm0 3.099v2.008h2.119c.335 0 .588-.094.76-.281.17-.188.256-.43.256-.723a1.05 1.05 0 00-.25-.717c-.168-.191-.423-.287-.766-.287h-2.119zM672.679 349.735v-3.747h-4.776v3.747h-1.017v-8.168h1.017v3.515h4.776v-3.515h1.016v8.168h-1.016zm5.474.147a2.94 2.94 0 01-1.218-.244 2.73 2.73 0 01-.925-.668 2.946 2.946 0 01-.582-.986 3.565 3.565 0 01-.202-1.212c0-.425.068-.827.202-1.207.135-.38.33-.708.582-.986.253-.277.561-.498.925-.66a2.94 2.94 0 011.218-.246c.45 0 .856.082 1.219.245.363.163.672.384.925.661.253.278.447.607.581.986.135.38.202.782.202 1.207 0 .432-.067.837-.202 1.212a2.946 2.946 0 01-.581.986 2.73 2.73 0 01-.925.668 2.94 2.94 0 01-1.219.244zm0-.82c.319 0 .598-.063.84-.19.24-.126.444-.294.612-.502.167-.208.294-.451.38-.729a2.93 2.93 0 00.128-.87c0-.301-.043-.59-.129-.863a2.182 2.182 0 00-.38-.722 1.926 1.926 0 00-.612-.502c-.24-.127-.52-.19-.839-.19a1.815 1.815 0 00-1.463.692c-.168.208-.294.449-.38.722a2.87 2.87 0 00-.128.864c0 .302.042.592.128.87.086.277.212.52.38.728a1.815 1.815 0 001.464.692zm4.226.673l1.58-2.326a1.723 1.723 0 01-1.09-.558c-.286-.314-.43-.72-.43-1.218 0-.253.042-.49.123-.71a1.62 1.62 0 01.95-.962c.232-.094.5-.14.802-.14h3.123v5.914h-.919v-2.29h-1.617l-1.445 2.29h-1.077zm4.14-3.098v-2.009h-2.107c-.327 0-.58.094-.76.282-.18.188-.27.429-.27.723s.087.535.258.722c.172.188.429.282.772.282h2.106zm5.339 2.425c.318 0 .598-.063.839-.19.24-.126.445-.294.612-.502.167-.208.294-.451.38-.729a2.972 2.972 0 000-1.733 2.182 2.182 0 00-.38-.722 1.926 1.926 0 00-.612-.502c-.241-.127-.52-.19-.84-.19a1.815 1.815 0 00-1.463.692c-.167.208-.294.449-.38.722a2.972 2.972 0 000 1.733c.086.278.213.52.38.729a1.815 1.815 0 001.464.692zm0 .82c-.457 0-.866-.083-1.225-.25a2.636 2.636 0 01-.918-.705 3.191 3.191 0 01-.582-1.071 4.336 4.336 0 01-.202-1.354c0-.718.065-1.337.196-1.855.13-.519.324-.95.581-1.292.258-.343.58-.61.968-.802a4.24 4.24 0 011.353-.386c.327-.05.596-.096.809-.141.212-.045.381-.092.508-.14a.877.877 0 00.27-.148.227.227 0 00.079-.171h.894a.859.859 0 01-.22.606c-.148.16-.335.288-.564.386a3.97 3.97 0 01-.753.232c-.274.058-.537.102-.79.135-.441.065-.808.16-1.102.282a2.47 2.47 0 00-.723.44 1.857 1.857 0 00-.435.582 2.963 2.963 0 00-.226.705c.106-.172.232-.333.38-.484.146-.151.314-.284.502-.398a2.74 2.74 0 01.618-.276c.225-.07.467-.104.729-.104.416 0 .796.082 1.139.245.343.163.635.386.875.668.241.281.427.61.558.986.13.375.196.771.196 1.187 0 .425-.066.827-.196 1.207-.131.38-.323.71-.576.992a2.82 2.82 0 01-.919.673c-.359.168-.767.251-1.224.251zm7.397 0c-.408 0-.784-.09-1.127-.269a2.45 2.45 0 01-.87-.772v3.148h-.918v-8.169h.919v.882c.212-.302.494-.55.845-.741a2.361 2.361 0 011.151-.288c.392 0 .75.072 1.072.215.322.142.6.347.832.612.233.265.413.59.54.974.126.383.19.816.19 1.298 0 .481-.064.914-.19 1.298a2.84 2.84 0 01-.54.98c-.232.27-.51.475-.832.618-.323.143-.68.214-1.072.214zm-.233-.82c.294 0 .56-.057.796-.172.237-.114.437-.273.6-.477.164-.204.288-.447.374-.729a3.12 3.12 0 00.129-.912c0-.327-.043-.629-.129-.907a2.166 2.166 0 00-.374-.722 1.712 1.712 0 00-.6-.478 1.807 1.807 0 00-.796-.171c-.367 0-.712.092-1.035.275a2.002 2.002 0 00-.728.668v2.67c.163.26.406.485.728.673.323.188.668.282 1.035.282zm5.242-5.242v2.29h2.217c.302 0 .57.05.802.147.233.098.429.231.588.398.159.168.277.36.355.576.077.216.116.447.116.692 0 .245-.04.478-.122.698-.082.22-.2.412-.355.576a1.699 1.699 0 01-.582.392c-.233.097-.5.146-.802.146h-3.136v-5.915h.919zm0 3.099v2.008h2.119c.334 0 .588-.094.759-.281.172-.188.257-.43.257-.723a1.05 1.05 0 00-.25-.717c-.168-.191-.423-.287-.766-.287h-2.119zM719.903 348.915c.245-.016.464-.065.656-.147.192-.082.365-.237.52-.465.155-.229.288-.552.398-.968.11-.416.21-.972.3-1.666l.502-4.102h4.997v7.262h.747v2.413h-1.016v-1.507h-6.087v1.507h-1.017v-2.327zm2.878-3.172c-.106.865-.265 1.539-.477 2.02-.212.482-.47.838-.772 1.066h4.728v-6.356h-3.074l-.405 3.27zm9.173 4.14c-.44 0-.845-.076-1.212-.227a2.776 2.776 0 01-.95-.637 2.96 2.96 0 01-.624-.98 3.402 3.402 0 01-.226-1.267c0-.425.073-.827.22-1.207.147-.38.35-.708.606-.986.258-.277.564-.498.919-.66a2.766 2.766 0 011.17-.246c.449 0 .849.082 1.2.245.35.163.649.388.894.674.245.286.43.622.557 1.01.127.388.19.802.19 1.243v.233h-4.789c.017.277.078.54.184.79a2.037 2.037 0 001.09 1.09c.253.11.539.165.857.165a2.59 2.59 0 001.825-.747l.44.6a3 3 0 01-1.028.674 3.568 3.568 0 01-1.323.232zm1.838-3.479c0-.22-.04-.447-.117-.68a1.96 1.96 0 00-.355-.636 1.85 1.85 0 00-.606-.472 1.923 1.923 0 00-.87-.183 1.79 1.79 0 00-.833.183 1.93 1.93 0 00-.594.466 2.224 2.224 0 00-.508 1.323h3.883zm6.417 3.331l-2.131-2.657-.98.967v1.69h-.918v-5.915h.918v3.148l3.111-3.148h1.163l-2.62 2.682 2.633 3.233h-1.176zm5.964 0v-.673c-.498.547-1.151.82-1.96.82-.252 0-.501-.04-.746-.122a1.947 1.947 0 01-1.139-.992 1.865 1.865 0 01-.184-.845c0-.327.061-.612.184-.857a1.878 1.878 0 011.139-.974 2.46 2.46 0 01.747-.116c.408 0 .777.065 1.108.196.33.13.614.334.851.612v-1.066c0-.4-.14-.708-.422-.924-.282-.217-.64-.325-1.072-.325-.694 0-1.298.274-1.812.82l-.43-.636c.63-.653 1.417-.98 2.365-.98.31 0 .604.037.881.11.278.074.52.19.73.35.207.159.373.365.495.618.123.253.184.56.184.918v4.066h-.919zm-1.629-.514c.327 0 .635-.061.925-.184.29-.122.525-.306.704-.55v-1.115a1.652 1.652 0 00-.704-.551 2.351 2.351 0 00-.925-.184c-.432 0-.783.12-1.053.361-.27.241-.404.553-.404.937 0 .376.135.684.404.925.27.24.62.361 1.053.361zm6.969-.16c.318 0 .598-.062.839-.189.24-.126.445-.294.612-.502.168-.208.294-.451.38-.729a2.972 2.972 0 000-1.733 2.182 2.182 0 00-.38-.722 1.926 1.926 0 00-.612-.502c-.241-.127-.52-.19-.84-.19a1.815 1.815 0 00-1.463.692c-.167.208-.294.449-.38.722a2.972 2.972 0 000 1.733c.086.278.213.52.38.729a1.815 1.815 0 001.464.692zm0 .821c-.457 0-.866-.083-1.225-.25a2.636 2.636 0 01-.918-.705 3.191 3.191 0 01-.582-1.071 4.336 4.336 0 01-.202-1.354c0-.718.065-1.337.196-1.855.13-.519.324-.95.582-1.292.257-.343.58-.61.967-.802a4.24 4.24 0 011.353-.386c.327-.05.596-.096.809-.141.212-.045.381-.092.508-.14a.877.877 0 00.27-.148.227.227 0 00.079-.171h.894a.859.859 0 01-.22.606c-.147.16-.335.288-.564.386a3.97 3.97 0 01-.753.232c-.273.058-.537.102-.79.135-.44.065-.808.16-1.102.282a2.47 2.47 0 00-.723.44 1.857 1.857 0 00-.434.582 2.963 2.963 0 00-.227.705c.106-.172.233-.333.38-.484.147-.151.314-.284.502-.398a2.74 2.74 0 01.618-.276c.225-.07.468-.104.729-.104.416 0 .796.082 1.139.245.343.163.635.386.876.668.24.281.426.61.557.986.13.375.196.771.196 1.187 0 .425-.066.827-.196 1.207-.13.38-.323.71-.576.992a2.82 2.82 0 01-.918.673c-.36.168-.768.251-1.225.251zm7.397 0c-.408 0-.784-.09-1.127-.269a2.45 2.45 0 01-.87-.772v3.148h-.918v-8.169h.919v.882c.212-.302.494-.55.845-.741a2.361 2.361 0 011.151-.288c.392 0 .75.072 1.072.215.322.142.6.347.833.612.232.265.412.59.538.974.127.383.19.816.19 1.298 0 .481-.063.914-.19 1.298a2.84 2.84 0 01-.538.98c-.233.27-.51.475-.833.618-.323.143-.68.214-1.072.214zm-.233-.82c.294 0 .56-.057.796-.172.237-.114.437-.273.6-.477.164-.204.288-.447.374-.729a3.12 3.12 0 00.129-.912c0-.327-.043-.629-.129-.907a2.166 2.166 0 00-.373-.722 1.712 1.712 0 00-.6-.478 1.807 1.807 0 00-.797-.171c-.367 0-.712.092-1.034.275a2.002 2.002 0 00-.73.668v2.67c.164.26.407.485.73.673.322.188.667.282 1.034.282zm5.242-5.242v2.29h2.217c.302 0 .57.05.802.147.233.098.429.231.588.398.16.168.278.36.355.576.078.216.116.447.116.692 0 .245-.04.478-.122.698-.082.22-.2.412-.355.576a1.699 1.699 0 01-.582.392c-.233.097-.5.146-.802.146H763v-5.915h.918zm0 3.099v2.008h2.119c.335 0 .588-.094.76-.281.17-.188.256-.43.256-.723a1.05 1.05 0 00-.25-.717c-.168-.191-.423-.287-.766-.287h-2.119z" fill="#0B0B0B" fill-rule="nonzero"/></g></g></svg>