<?xml version="1.0" encoding="UTF-8"?>
<svg width="906px" height="560px" viewBox="0 0 906 560" version="1.1" xmlns="http://www.w3.org/2000/svg" xmlns:xlink="http://www.w3.org/1999/xlink">
    <!-- Generator: Sketch 60 (88103) - https://sketch.com -->
    <title>Group 24</title>
    <desc>Created with Sketch.</desc>
    <defs>
        <linearGradient x1="50%" y1="11.4420871%" x2="50%" y2="77.6592353%" id="linearGradient-1">
            <stop stop-color="#CD95FF" stop-opacity="0.234429633" offset="0%"></stop>
            <stop stop-color="#B620E0" stop-opacity="0" offset="100%"></stop>
        </linearGradient>
        <linearGradient x1="50%" y1="17.2409226%" x2="50%" y2="100%" id="linearGradient-2">
            <stop stop-color="#00F4CD" stop-opacity="0.280621722" offset="0%"></stop>
            <stop stop-color="#D8D8D8" stop-opacity="0" offset="100%"></stop>
        </linearGradient>
        <linearGradient x1="50%" y1="55.5834377%" x2="50%" y2="100%" id="linearGradient-3">
            <stop stop-color="#F7B500" stop-opacity="0.222109921" offset="0%"></stop>
            <stop stop-color="#D8D8D8" stop-opacity="0" offset="100%"></stop>
        </linearGradient>
    </defs>
    <g id="Page-1" stroke="none" stroke-width="1" fill="none" fill-rule="evenodd">
        <g id="SEO-1-Copy" transform="translate(-507.000000, -1430.000000)">
            <g id="Group-29" transform="translate(495.000000, 1418.000000)">
                <g id="Group-24" transform="translate(12.511211, 11.123810)">
                    <g id="Group-3">
                        <g id="Group-20" transform="translate(0.000000, -0.000000)">
                            <g id="Group-19">
                                <path d="M12,1.33297766 L893.977578,1.33297766 C900.052711,1.33297766 904.977578,6.25784541 904.977578,12.3329777 L904.977578,548.304406 C904.977578,554.931823 899.604995,560.304406 892.977578,560.304406 L12,560.304406 C5.372583,560.304406 8.11624501e-16,554.931823 0,548.304406 L0,13.3329777 C-8.11624501e-16,6.70556066 5.372583,1.33297766 12,1.33297766 Z" id="Rectangle" fill="#F1F4FC"></path>
                                <g id="Group-18" transform="translate(13.523456, 16.490735)">
                                    <rect id="Rectangle" fill="#FFFFFF" x="0" y="0" width="875.115787" height="436.64025" rx="10.692"></rect>
                                    <g id="Group-4" transform="translate(37.497319, 39.126425)">
                                        <text id="160-000" font-family="Helvetica" font-size="9.237888" font-weight="normal" fill="#0C0C0C">
                                            <tspan x="0" y="11.4258131">160 000</tspan>
                                        </text>
                                        <text id="140-000" font-family="Helvetica" font-size="9.237888" font-weight="normal" fill="#0C0C0C">
                                            <tspan x="0" y="51.3627807">140 000</tspan>
                                        </text>
                                        <text id="120-000" font-family="Helvetica" font-size="9.237888" font-weight="normal" fill="#0C0C0C">
                                            <tspan x="0" y="91.2997482">120 000</tspan>
                                        </text>
                                        <text id="100-000" font-family="Helvetica" font-size="9.237888" font-weight="normal" fill="#0C0C0C">
                                            <tspan x="0" y="131.236716">100 000</tspan>
                                        </text>
                                        <text id="80-000" font-family="Helvetica" font-size="9.237888" font-weight="normal" fill="#0C0C0C">
                                            <tspan x="4.36799561" y="171.173683">80 000</tspan>
                                        </text>
                                        <text id="60-000" font-family="Helvetica" font-size="9.237888" font-weight="normal" fill="#0C0C0C">
                                            <tspan x="4.36799561" y="211.110651">60 000</tspan>
                                        </text>
                                        <text id="40-000" font-family="Helvetica" font-size="9.237888" font-weight="normal" fill="#0C0C0C">
                                            <tspan x="4.36799561" y="251.047618">40 000</tspan>
                                        </text>
                                        <text id="20-000" font-family="Helvetica" font-size="9.237888" font-weight="normal" fill="#0C0C0C">
                                            <tspan x="4.36799561" y="290.984586">20 000</tspan>
                                        </text>
                                        <g id="Group-6" opacity="0.18312872" transform="translate(58.967941, 8.874882)" stroke-linecap="square" stroke-width="0.769824">
                                            <line x1="0.545999451" y1="0.554680105" x2="739.579661" y2="0.554680105" id="Line-6" stroke="#989090"></line>
                                            <line x1="0.545999451" y1="41.6010079" x2="739.579661" y2="41.6010079" id="Line-6-Copy" stroke="#989090"></line>
                                            <line x1="0.545999451" y1="81.5379754" x2="739.579661" y2="81.5379754" id="Line-6-Copy-2" stroke="#989090"></line>
                                            <line x1="0.545999451" y1="122.584303" x2="739.579661" y2="122.584303" id="Line-6-Copy-3" stroke="#989090"></line>
                                            <line x1="0.545999451" y1="162.521271" x2="739.579661" y2="162.521271" id="Line-6-Copy-4" stroke="#989090"></line>
                                            <line x1="0.545999451" y1="203.567598" x2="739.579661" y2="203.567598" id="Line-6-Copy-5" stroke="#989090"></line>
                                            <line x1="0.545999451" y1="243.504566" x2="739.579661" y2="243.504566" id="Line-6-Copy-6" stroke="#989090"></line>
                                            <line x1="0.545999451" y1="284.550894" x2="739.579661" y2="284.550894" id="Line-6-Copy-7" stroke="#989090"></line>
                                            <line x1="0.545999451" y1="324.487861" x2="739.579661" y2="324.487861" id="Line-6-Copy-8" stroke-opacity="0.275895979" stroke="#DDDDDD"></line>
                                        </g>
                                        <text id="0" font-family="Helvetica" font-size="9.237888" font-weight="normal" fill="#FFFFFF">
                                            <tspan x="39.3119605" y="330.921553">0</tspan>
                                        </text>
                                        <text id="Январь" font-family="Helvetica" font-size="9.237888" font-weight="normal" fill="#FFFFFF">
                                            <tspan x="67.7039319" y="351.999397">Январь</tspan>
                                        </text>
                                        <text id="Февраль" font-family="Helvetica" font-size="9.237888" font-weight="normal" fill="#0B0B0B">
                                            <tspan x="131.039868" y="327.346948">Февраль</tspan>
                                        </text>
                                        <text id="Март" font-family="Helvetica" font-size="9.237888" font-weight="normal" fill="#0B0B0B">
                                            <tspan x="205.295794" y="327.346948">Март</tspan>
                                        </text>
                                        <text id="Апрель" font-family="Helvetica" font-size="9.237888" font-weight="normal" fill="#0B0B0B">
                                            <tspan x="254.435744" y="327.346948">Апрель</tspan>
                                        </text>
                                        <text id="Май" font-family="Helvetica" font-size="9.237888" font-weight="normal" fill="#0B0B0B">
                                            <tspan x="318.863679" y="327.346948">Май</tspan>
                                        </text>
                                        <text id="Июнь" font-family="Helvetica" font-size="9.237888" font-weight="normal" fill="#0B0B0B">
                                            <tspan x="363.635634" y="327.346948">Июнь</tspan>
                                        </text>
                                        <text id="Июль" font-family="Helvetica" font-size="9.237888" font-weight="normal" fill="#0B0B0B">
                                            <tspan x="416.051582" y="327.346948">Июль</tspan>
                                        </text>
                                        <text id="Август" font-family="Helvetica" font-size="9.237888" font-weight="normal" fill="#0B0B0B">
                                            <tspan x="469.559528" y="327.346948">Август</tspan>
                                        </text>
                                        <text id="Сентябрь" font-family="Helvetica" font-size="9.237888" font-weight="normal" fill="#0B0B0B">
                                            <tspan x="528.527468" y="327.346948">Сентябрь</tspan>
                                        </text>
                                        <text id="Октябрь" font-family="Helvetica" font-size="9.237888" font-weight="normal" fill="#0B0B0B">
                                            <tspan x="604.967392" y="327.346948">Октябрь</tspan>
                                        </text>
                                        <text id="Ноябрь" font-family="Helvetica" font-size="9.237888" font-weight="normal" fill="#0B0B0B">
                                            <tspan x="675.94732" y="327.346948">Ноябрь</tspan>
                                        </text>
                                        <text id="Декабрь" font-family="Helvetica" font-size="9.237888" font-weight="normal" fill="#0B0B0B">
                                            <tspan x="741.467254" y="327.346948">Декабрь</tspan>
                                        </text>
                                        <path d="M90.0899094,239.621805 L151.248551,216.325241 L208.120848,193.038881 C211.098073,191.819857 214.371304,191.516841 217.521715,192.168606 L271.232963,203.280529 C273.627706,203.775959 276.070924,203.998106 278.51575,203.942708 L335.113286,202.660254 C335.794601,202.644816 336.475142,202.604932 337.153595,202.540678 L390.747373,197.464996 C395.221667,197.041251 399.732155,197.20412 404.164234,197.949466 L450.994412,205.824927 C456.611231,206.769511 462.330985,206.940082 467.99411,206.331881 L519.635347,200.785789 C521.216053,200.616027 522.80894,200.590634 524.394255,200.709925 L580.543294,204.935008 C582.015631,205.045798 583.494702,205.031806 584.96468,204.893181 L644.24782,199.302559 C644.746236,199.255556 645.2432,199.194264 645.7381,199.118757 L700.372715,190.783159 C704.399668,190.168767 708.514441,190.502778 712.389581,191.758613 L768.767227,210.029177 L768.767227,210.029177" id="Path-8" stroke="#BD87EF" stroke-width="1.539648"></path>
                                        <path d="M712.719231,191.940317 L766.799911,210.117045 L768.767227,210.029177 L768.757911,210.775045 L768.767227,210.77844 L768.757911,210.778045 L768.228792,254.267909 L767.675228,299.7496 L88.451911,299.7496 L88.451911,240.446737 L90.136911,240.371045 L150.156552,217.5087 L207.02885,194.22234 C210.006074,193.003315 213.279305,192.7003 216.429716,193.352065 L270.140965,204.463987 C272.535707,204.959418 274.978925,205.181565 277.423751,205.126167 L334.021288,203.843713 C334.702602,203.828275 335.383143,203.788391 336.061596,203.724137 L389.655374,198.648455 C394.129668,198.22471 398.640156,198.387579 403.072235,199.132925 L449.902414,207.008386 C455.519232,207.952969 461.238986,208.123541 466.902111,207.51534 L518.543348,201.969248 C520.124054,201.799485 521.716941,201.774092 523.302256,201.893384 L579.451295,206.118467 C580.923632,206.229256 582.402704,206.215264 583.872681,206.07664 L642.949266,200.505496 C643.585275,200.445518 644.218874,200.362276 644.848791,200.255936 L700.023443,190.941606 C704.273056,190.224206 708.634063,190.567264 712.719231,191.940317 Z" id="Combined-Shape" fill="url(#linearGradient-1)"></path>
                                        <ellipse id="Oval" fill="#BD87EF" cx="91.7279078" cy="239.621805" rx="3.27599671" ry="3.32808063"></ellipse>
                                        <ellipse id="Oval-Copy" fill="#BD87EF" cx="151.787847" cy="216.325241" rx="3.27599671" ry="3.32808063"></ellipse>
                                        <ellipse id="Oval-Copy-2" fill="#BD87EF" cx="212.939786" cy="191.919316" rx="3.27599671" ry="3.32808063"></ellipse>
                                        <ellipse id="Oval-Copy-3" fill="#BD87EF" cx="275.183723" cy="204.122279" rx="3.27599671" ry="3.32808063"></ellipse>
                                        <ellipse id="Oval-Copy-4" fill="#BD87EF" cx="336.335662" cy="201.903558" rx="3.27599671" ry="3.32808063"></ellipse>
                                        <ellipse id="Oval-Copy-5" fill="#BD87EF" cx="398.579599" cy="196.356757" rx="3.27599671" ry="3.32808063"></ellipse>
                                        <ellipse id="Oval-Copy-6" fill="#BD87EF" cx="458.639539" cy="206.340999" rx="3.27599671" ry="3.32808063"></ellipse>
                                        <ellipse id="Oval-Copy-7" fill="#BD87EF" cx="521.975475" cy="199.684838" rx="3.27599671" ry="3.32808063"></ellipse>
                                        <ellipse id="Oval-Copy-8" fill="#BD87EF" cx="583.127414" cy="205.231639" rx="3.27599671" ry="3.32808063"></ellipse>
                                        <ellipse id="Oval-Copy-9" fill="#BD87EF" cx="645.371351" cy="199.684838" rx="3.27599671" ry="3.32808063"></ellipse>
                                        <ellipse id="Oval-Copy-10" fill="#BD87EF" cx="706.523289" cy="189.700596" rx="3.27599671" ry="3.32808063"></ellipse>
                                        <ellipse id="Oval-Copy-11" fill="#BD87EF" cx="768.767227" cy="210.77844" rx="3.27599671" ry="3.32808063"></ellipse>
                                        <path d="M88.9979105,152.057072 L148.617677,115.468236 C149.996617,114.621976 151.485042,113.968709 153.041396,113.526673 L212.717785,96.5773909 C212.865779,96.5353576 213.013219,96.4913971 213.160068,96.4455208 L268.454524,79.1712025 C272.775689,77.821245 277.449806,78.1777573 281.516242,80.1674681 L329.430776,103.612096 C333.835429,105.767297 338.936627,105.999315 343.518739,104.252859 L396.792289,83.9478344 C397.255625,83.7712353 397.711339,83.5752507 398.158224,83.360399 L451.599923,57.666923 C456.084505,55.5108441 461.269352,55.3413325 465.885188,57.1998855 L518.333517,78.3180542 C519.828548,78.9200241 521.398768,79.3150538 523.000675,79.492199 L581.928291,86.0086486 L581.928291,86.0086486" id="Path-2" stroke="#00F4CD" stroke-width="1.539648"></path>
                                        <path d="M148.071677,115.475708 C149.450618,114.629447 150.939042,113.976181 152.495397,113.534145 L212.171786,96.5848624 C212.31978,96.5428291 212.46722,96.4988686 212.614068,96.4529923 L267.908525,79.178674 C272.229689,77.8287165 276.903807,78.1852288 280.970242,80.1749396 L328.884777,103.619567 C333.289429,105.774768 338.390627,106.006786 342.972739,104.26033 L396.246289,83.9553059 C396.709626,83.7787068 397.165339,83.5827222 397.612225,83.3678705 L451.053923,57.6743945 C455.538506,55.5183156 460.723352,55.348804 465.339188,57.207357 L517.787518,78.3255257 C519.282549,78.9274956 520.852769,79.3225253 522.454676,79.4996705 L581.382291,86.0161201 L581.382291,147.791167 L88.451911,152.064543 L148.071677,115.475708 Z" id="Combined-Shape" fill="url(#linearGradient-2)"></path>
                                        <g id="Group" transform="translate(86.267913, 96.514338)">
                                            <path d="M2.1839978,117.592182 L63.6973784,91.7336883 C64.9104653,91.2237407 66.1624623,90.8118133 67.4413507,90.5018603 L125.730087,76.3749299 C126.357701,76.2228205 126.991054,76.095449 127.628678,75.9931107 L187.643564,66.3607522 C188.490851,66.224763 189.346007,66.1434038 190.203736,66.1171782 L249.154894,64.3147077 C249.763147,64.2961099 250.371932,64.3052613 250.979352,64.3421334 L310.785265,67.9725154 C311.801398,68.0341975 312.820757,68.0182676 313.834467,67.9248643 L370.765378,62.6792464 C371.835252,62.5806681 372.910064,62.5461711 373.984058,62.5759401 L432.055227,64.1855609 C434.479025,64.2527439 436.9008,63.9924428 439.254958,63.411708 L491.388752,50.5510943 C494.996889,49.6610218 498.381888,48.0341638 501.330964,45.7727856 L556.696826,3.31774857 C558.230967,2.14135542 560.186849,1.65944826 562.091905,1.98846202 L619.123982,11.8382167 C619.873137,11.9675997 620.595889,12.2194005 621.263262,12.5835235 L682.499314,45.9943139 L682.499314,45.9943139" id="Path-10" stroke="#F7B500" stroke-width="1.539648"></path>
                                            <ellipse id="Oval" fill="#F7B500" cx="3.27599671" cy="117.592182" rx="3.27599671" ry="3.32808063"></ellipse>
                                            <ellipse id="Oval-Copy-12" fill="#F7B500" cx="64.4279352" cy="92.0768974" rx="3.27599671" ry="3.32808063"></ellipse>
                                            <ellipse id="Oval-Copy-13" fill="#F7B500" cx="126.671873" cy="76.5458545" rx="3.27599671" ry="3.32808063"></ellipse>
                                            <ellipse id="Oval-Copy-14" fill="#F7B500" cx="188.91581" cy="66.5616126" rx="3.27599671" ry="3.32808063"></ellipse>
                                            <ellipse id="Oval-Copy-15" fill="#F7B500" cx="248.97575" cy="64.3428922" rx="3.27599671" ry="3.32808063"></ellipse>
                                            <ellipse id="Oval-Copy-16" fill="#F7B500" cx="311.219687" cy="67.6709728" rx="3.27599671" ry="3.32808063"></ellipse>
                                            <ellipse id="Oval-Copy-17" fill="#F7B500" cx="373.463624" cy="63.2335319" rx="3.27599671" ry="3.32808063"></ellipse>
                                            <ellipse id="Oval-Copy-18" fill="#F7B500" cx="435.707562" cy="64.3428922" rx="3.27599671" ry="3.32808063"></ellipse>
                                            <ellipse id="Oval-Copy-19" fill="#F7B500" cx="496.8595" cy="48.8118492" rx="3.27599671" ry="3.32808063"></ellipse>
                                            <ellipse id="Oval-Copy-20" fill="#F7B500" cx="559.103438" cy="3.32808063" rx="3.27599671" ry="3.32808063"></ellipse>
                                            <ellipse id="Oval-Copy-21" fill="#F7B500" cx="620.255376" cy="12.2029623" rx="3.27599671" ry="3.32808063"></ellipse>
                                            <ellipse id="Oval-Copy-22" fill="#F7B500" cx="682.499314" cy="45.4837686" rx="3.27599671" ry="3.32808063"></ellipse>
                                        </g>
                                        <path d="M149.965292,188.413404 C151.178379,187.903456 152.430376,187.491529 153.709264,187.181576 L211.998,173.054645 C212.625615,172.902536 213.258968,172.775164 213.896592,172.672826 L273.911477,163.040468 C274.758764,162.904478 275.61392,162.823119 276.47165,162.796894 L335.422807,160.994423 C336.031061,160.975825 336.639845,160.984977 337.247265,161.021849 L397.053178,164.652231 C398.069311,164.713913 399.08867,164.697983 400.10238,164.60458 L457.033291,159.358962 C458.103165,159.260383 459.177978,159.225886 460.251971,159.255655 L518.323141,160.865276 C520.746938,160.932459 523.168714,160.672158 525.522871,160.091423 L577.656665,147.23081 C581.264802,146.340737 584.649801,144.713879 587.598877,142.452501 L642.964739,99.9974639 C644.49888,98.8210708 646.454762,98.3391636 648.359819,98.6681774 L705.391896,108.517932 C706.14105,108.647315 706.863802,108.899116 707.531175,109.263239 L768.767227,142.674029 L768.767227,214.271898 L88.451911,214.271898 L149.965292,188.413404 Z" id="Combined-Shape" fill="url(#linearGradient-3)"></path>
                                        <ellipse id="Oval" fill="#00F4CD" cx="89.5439099" cy="153.091709" rx="3.27599671" ry="3.32808063"></ellipse>
                                        <ellipse id="Oval-Copy-23" fill="#00F4CD" cx="150.695848" cy="113.986762" rx="3.27599671" ry="3.32808063"></ellipse>
                                        <ellipse id="Oval-Copy-24" fill="#00F4CD" cx="212.939786" cy="96.2369982" rx="3.27599671" ry="3.32808063"></ellipse>
                                        <ellipse id="Oval-Copy-25" fill="#00F4CD" cx="275.183723" cy="78.4872348" rx="3.27599671" ry="3.32808063"></ellipse>
                                        <ellipse id="Oval-Copy-26" fill="#00F4CD" cx="335.243663" cy="105.11188" rx="3.27599671" ry="3.32808063"></ellipse>
                                        <ellipse id="Oval-Copy-27" fill="#00F4CD" cx="398.579599" cy="82.9246757" rx="3.27599671" ry="3.32808063"></ellipse>
                                        <ellipse id="Oval-Copy-28" fill="#00F4CD" cx="459.731538" cy="56.3000306" rx="3.27599671" ry="3.32808063"></ellipse>
                                        <ellipse id="Oval-Copy-29" fill="#00F4CD" cx="520.883476" cy="78.4872348" rx="3.27599671" ry="3.32808063"></ellipse>
                                        <ellipse id="Oval-Copy-30" fill="#00F4CD" cx="582.035415" cy="86.5300963" rx="3.27599671" ry="3.32808063"></ellipse>
                                    </g>
                                </g>
                            </g>
                        </g>
                        <g id="Group-23" transform="translate(16.681614, 464.419048)">
                            <rect id="Rectangle-Copy-26" fill="#FFFFFF" x="0" y="0" width="872.454541" height="78.0111317" rx="10.692"></rect>
                            <g id="Group-15" transform="translate(48.154958, 28.103077)">
                                <text id="2017" font-family="Helvetica" font-size="13.68576" font-weight="normal" fill="#050505">
                                    <tspan x="109.269627" y="17.77953">2017</tspan>
                                </text>
                                <g id="Group-5" transform="translate(0.000000, 9.267722)">
                                    <line x1="7.30124266" y1="3.41545849" x2="62.3773302" y2="3.41545849" id="Line-7" stroke="#BE8BEA" stroke-width="1.71072" stroke-linecap="square"></line>
                                    <ellipse id="Oval-Copy-31" fill="#BE8BEA" cx="3.65062133" cy="3.86155102" rx="3.65062133" ry="3.86155102"></ellipse>
                                    <ellipse id="Oval-Copy-32" fill="#BE8BEA" cx="64.4943101" cy="3.86155102" rx="3.65062133" ry="3.86155102"></ellipse>
                                </g>
                            </g>
                            <g id="Group-21" transform="translate(247.856404, 28.323242)">
                                <text id="2018" font-family="Helvetica" font-size="13.68576" font-weight="normal" fill="#050505">
                                    <tspan x="110.573776" y="17.77953">2018</tspan>
                                </text>
                                <g id="Group-5-Copy" transform="translate(0.000000, 9.267722)">
                                    <line x1="7.30124266" y1="3.41545849" x2="62.3773302" y2="3.41545849" id="Line-7" stroke="#F7B500" stroke-width="1.71072" stroke-linecap="square"></line>
                                    <ellipse id="Oval-Copy-31" fill="#F7B500" cx="3.65062133" cy="3.86155102" rx="3.65062133" ry="3.86155102"></ellipse>
                                    <ellipse id="Oval-Copy-32" fill="#F7B500" cx="64.4943101" cy="3.86155102" rx="3.65062133" ry="3.86155102"></ellipse>
                                </g>
                            </g>
                            <g id="Group-22" transform="translate(436.227270, 29.767892)">
                                <text id="2019" font-family="Helvetica" font-size="13.68576" font-weight="normal" fill="#050505">
                                    <tspan x="110.573776" y="17.77953">2019</tspan>
                                </text>
                                <g id="Group-5-Copy-2" transform="translate(0.000000, 7.723102)">
                                    <line x1="7.30124266" y1="3.41545849" x2="62.3773302" y2="3.41545849" id="Line-7" stroke="#00F4CD" stroke-width="1.71072" stroke-linecap="square"></line>
                                    <ellipse id="Oval-Copy-31" fill="#00F4CD" cx="3.65062133" cy="3.86155102" rx="3.65062133" ry="3.86155102"></ellipse>
                                    <ellipse id="Oval-Copy-32" fill="#00F4CD" cx="64.4943101" cy="3.86155102" rx="3.65062133" ry="3.86155102"></ellipse>
                                </g>
                            </g>
                        </g>
                    </g>
                </g>
            </g>
        </g>
    </g>
</svg>