<svg height="26" viewBox="0 0 25 26" width="25" xmlns="http://www.w3.org/2000/svg"><path d="m20.969536 14.924336c-.5432-.5656-1.1984-.868-1.8928-.868-.6888 0-1.3496.2968-1.9152.8624l-1.7696 1.764c-.1456-.0784-.2912-.1512-.4312-.224-.2016-.1008-.392-.196-.5544-.2968-1.6576-1.0528-3.164-2.4248-4.6088-4.2-.7-.8848-1.1704-1.6296-1.512-2.3856.4592-.42.8848-.8568 1.2992-1.2768.1568-.1568.3136-.3192.4704-.476 1.176-1.176 1.176-2.6992 0-3.8752l-1.5288-1.5288c-.1736-.1736-.3528-.3528-.5208-.532-.336-.3472-.6888-.7056-1.0528-1.0416-.5432-.5376-1.1928-.8232-1.876-.8232s-1.344.2856-1.904.8232c-.0056.0056-.0056.0056-.0112.0112l-1.904 1.9208c-.7168.7168-1.1256 1.5904-1.2152 2.604-.1344 1.6352.3472 3.1584.7168 4.1552.9072 2.4472 2.2624 4.7152 4.284 7.1456 2.4528 2.9288 5.404 5.2416 8.7752 6.8712 1.288.6104 3.0072 1.3328 4.928 1.456.1176.0056.2408.0112.3528.0112 1.2936 0 2.38-.4648 3.2312-1.3888.0056-.0112.0168-.0168.0224-.028.2912-.3528.6272-.672.98-1.0136.2408-.2296.4872-.4704.728-.7224.5544-.5768.8456-1.2488.8456-1.9376 0-.6944-.2968-1.3608-.8624-1.9208zm2.0048 5.8968c-.0056 0-.0056.0056 0 0-.2184.2352-.4424.448-.6832.6832-.364.3472-.7336.7112-1.0808 1.12-.5656.6048-1.232.8904-2.1056.8904-.084 0-.1736 0-.2576-.0056-1.6632-.1064-3.2088-.756-4.368-1.3104-3.1696-1.5344-5.9528-3.7128-8.2656-6.4736-1.9096-2.3016-3.1864-4.4296-4.032-6.7144-.5208-1.3944-.7112-2.4808-.6272-3.5056.056-.6552.308-1.1984.7728-1.6632l1.9096-1.9096c.2744-.2576.5656-.3976.8512-.3976.3528 0 .6384.2128.8176.392.0056.0056.0112.0112.0168.0168.3416.3192.6664.6496 1.008 1.0024.1736.1792.3528.3584.532.5432l1.5288 1.5288c.5936.5936.5936 1.1424 0 1.736-.1624.1624-.3192.3248-.4816.4816-.4704.4816-.9184.9296-1.4056 1.3664-.0112.0112-.0224.0168-.028.028-.4816.4816-.392.952-.2912 1.2712l.0168.0504c.3976.9632.9576 1.8704 1.8088 2.9512l.0056.0056c1.5456 1.904 3.1752 3.388 4.9728 4.5248.2296.1456.4648.2632.6888.3752.2016.1008.392.196.5544.2968.0224.0112.0448.028.0672.0392.1904.0952.3696.14.5544.14.4648 0 .756-.2912.8512-.3864l1.9152-1.9152c.1904-.1904.4928-.42.8456-.42.3472 0 .6328.2184.8064.4088.0056.0056.0056.0056.0112.0112l3.0856 3.0856c.5768.5712.5768 1.1592.0056 1.7528z" transform="translate(0 .2)"/></svg>