<?xml version="1.0" encoding="UTF-8"?>
<svg width="27px" height="25px" viewBox="0 0 27 25" version="1.1" xmlns="http://www.w3.org/2000/svg" xmlns:xlink="http://www.w3.org/1999/xlink">
    <!-- Generator: Sketch 60 (88103) - https://sketch.com -->
    <title>Group 7</title>
    <desc>Created with Sketch.</desc>
    <g id="Page-1" stroke="none" stroke-width="1" fill="none" fill-rule="evenodd">
        <g id="Mobile" transform="translate(-269.000000, -1833.000000)">
            <g id="Group-7" transform="translate(269.000000, 1833.000000)">
                <rect id="Rectangle" fill="#6C6BD0" x="0" y="0" width="27" height="25" rx="5"></rect>
                <g id="expand" transform="translate(6.000000, 5.000000)" fill="#FFFFFF" fill-rule="nonzero">
                    <path d="M3.75,0.9375 L3.75,0 L0.46875,0 C0.209853516,0 0,0.209853516 0,0.46875 L0,3.75 L0.9375,3.75 L0.9375,1.5984375 L5.2921875,5.953125 L5.953125,5.2921875 L1.5984375,0.9375 L3.75,0.9375 Z" id="Path"></path>
                    <path d="M14.53125,0 L11.25,0 L11.25,0.9375 L13.4015625,0.9375 L9.046875,5.2921875 L9.7078125,5.953125 L14.0625,1.5984375 L14.0625,3.75 L15,3.75 L15,0.46875 C15,0.209853516 14.7901465,0 14.53125,0 Z" id="Path"></path>
                    <path d="M14.0625,13.4015625 L9.7078125,9.046875 L9.046875,9.7078125 L13.4015625,14.0625 L11.25,14.0625 L11.25,15 L14.53125,15 C14.7901465,15 15,14.7901465 15,14.53125 L15,11.25 L14.0625,11.25 L14.0625,13.4015625 Z" id="Path"></path>
                    <path d="M5.2921875,9.0421875 L0.9375,13.4015625 L0.9375,11.25 L0,11.25 L0,14.53125 C0,14.7901465 0.209853516,15 0.46875,15 L3.75,15 L3.75,14.0625 L1.5984375,14.0625 L5.953125,9.7078125 L5.2921875,9.0421875 Z" id="Path"></path>
                </g>
            </g>
        </g>
    </g>
</svg>