<svg xmlns="http://www.w3.org/2000/svg" width="832" height="210" viewBox="0 0 832 210"><g><g><path fill="#f4f7fa" d="M232.39 67.115h40.559l1.096 1.1-54.81 132.992-1.095 1.1h-55.905l-1.097-1.1-19.73-61.55-25.213 61.55-1.096 1.1H59.194l-1.097-1.1L0 68.214h59.194l1.096 1.1 36.174 98.92h1.096l25.212-69.244-13.154-29.677 1.096-1.099h58.098l1.096 1.1 27.404 98.92h1.096l33.982-100.02zM832 197.91v1.099c-16.443 5.495-32.885 7.694-50.424 8.793-36.174 0-46.04-25.28-46.04-41.767V95.692l-13.154-27.478 1.096-1.099h10.962l15.347-31.874 1.096-1.1h33.981l1.096 1.1v31.874h41.655l1.096 1.1V97.89l-1.096 1.1h-40.558v57.153c0 23.082 29.596 17.586 41.654 15.388l1.097 1.1zM636.88 68.214l61.386-1.099 1.096 1.1v134.091l-1.096 1.1h-49.328l-1.096-1.1V96.791zM668.67.07c15.346-1.099 29.596 10.991 31.789 27.478-1.097 14.289-10.962 25.28-24.116 27.478-15.347 1.1-29.597-8.793-30.693-24.18-2.193-14.289 7.673-28.577 23.02-30.776zM510.82 173.73c33.981 12.09 58.097 0 57-38.469 0-23.081-10.961-40.667-28.5-40.667h-3.288c-25.213 3.297-25.213 31.874-25.213 40.667zm44.943-112.11c38.366 0 63.578 28.578 63.578 72.542 0 40.667-30.693 73.64-81.117 73.64-17.539 0-33.982-4.396-48.232-13.189l-29.597 7.694-1.096-1.099V34.142L448.337 6.664l1.096-1.1h59.194l1.096 1.1v78.037h1.096c9.866-14.288 27.405-23.081 44.944-23.081zm-230.198 59.353h60.29v-2.198c0-16.487-14.25-29.676-30.693-29.676s-29.597 14.288-29.597 30.775zM436.29 135.26v13.19H326.665c3.288 18.685 20.828 31.874 40.56 30.775 16.444-1.1 32.888-6.595 47.14-15.388h1.096l14.25 20.883v1.1C411.077 201.207 386.959 210 361.746 210c-19.733 0-39.465-5.496-55.909-16.487-15.348-10.99-26.31-26.378-29.599-45.063-1.096-5.496-2.192-10.991-2.192-16.487 0-40.667 35.08-71.442 81.122-71.442 47.139 0 81.122 29.676 81.122 74.74z"/></g></g></svg>