<?xml version="1.0" encoding="utf-8"?>
<!-- Generator: Adobe Illustrator 17.1.0, SVG Export Plug-In . SVG Version: 6.00 Build 0)  -->
<!DOCTYPE svg PUBLIC "-//W3C//DTD SVG 1.1//EN" "http://www.w3.org/Graphics/SVG/1.1/DTD/svg11.dtd">
<svg version="1.1" id="Layer_1" xmlns="http://www.w3.org/2000/svg" xmlns:xlink="http://www.w3.org/1999/xlink" x="0px" y="0px"
	 viewBox="0 0 16 16" style="enable-background:new 0 0 16 16;" xml:space="preserve">
<style type="text/css">
	.st0{fill:#D71920;}
	.st1{fill:#FFFFFF;}
</style>
<g>
	<circle class="st0" cx="8" cy="8" r="8"/>
	<path class="st1" d="M4.6,4v2.9c0.4-0.5,1-0.8,1.6-0.8c0.3,0,0.6,0.1,0.8,0.2c0.3,0.1,0.4,0.3,0.6,0.5c0.1,0.2,0.2,0.4,0.3,0.6
		c0,0.2,0.1,0.6,0.1,1v3.1H6.5V8.7c0-0.5,0-0.9-0.1-1C6.4,7.5,6.3,7.4,6.2,7.3C6,7.2,5.9,7.1,5.7,7.1c-0.2,0-0.4,0.1-0.6,0.2
		C4.9,7.4,4.8,7.6,4.7,7.8C4.6,8,4.6,8.4,4.6,8.8l0,2.6H3.2V4H4.6z M9.9,4v2.9c0.4-0.5,1-0.8,1.6-0.8c0.3,0,0.6,0.1,0.8,0.2
		c0.3,0.1,0.4,0.3,0.6,0.5c0.1,0.2,0.2,0.4,0.3,0.6c0,0.2,0.1,0.6,0.1,1v3.1h-1.4V8.7c0-0.5,0-0.9-0.1-1c-0.1-0.1-0.1-0.3-0.3-0.4
		c-0.1-0.1-0.3-0.1-0.5-0.1c-0.2,0-0.4,0.1-0.6,0.2c-0.2,0.1-0.3,0.3-0.4,0.5C9.9,8,9.9,8.4,9.9,8.8v2.6H8.5V4H9.9L9.9,4z"/>
</g>
</svg>
