<?xml version="1.0" encoding="utf-8"?>
<!-- Generator: Adobe Illustrator 21.1.0, SVG Export Plug-In . SVG Version: 6.00 Build 0)  -->
<svg version="1.1" id="Layer_1" xmlns="http://www.w3.org/2000/svg" xmlns:xlink="http://www.w3.org/1999/xlink" x="0px" y="0px"
	 viewBox="0 0 19 19" style="enable-background:new 0 0 19 19;" xml:space="preserve">
<style type="text/css">
	.st0{fill:#231F20;}
</style>
<path class="st0" d="M9.5,0C14.7,0,19,4.1,19,9.4c0,0,0,0.1,0,0.1c0,5.2-4.1,9.5-9.4,9.5c0,0-0.1,0-0.1,0C4.3,19,0,14.9,0,9.6
	c0,0,0-0.1,0-0.1C0,4.3,4.1,0,9.4,0C9.4,0,9.5,0,9.5,0z M4.9,9.1c0.1-1.3,0.4-2.5,0.8-3.8C5,5.1,4.4,4.7,3.8,4.3
	c-1.2,1.3-1.9,3-1.9,4.8L4.9,9.1L4.9,9.1z M1.8,9.9c0.1,1.8,0.7,3.5,1.9,4.8c0.6-0.4,1.3-0.8,1.9-1c-0.5-1.2-0.8-2.5-0.8-3.8
	L1.8,9.9L1.8,9.9z M7.4,2.1C6.2,2.4,5.2,3,4.3,3.8c0.5,0.4,1.1,0.7,1.7,0.9C6.3,3.8,6.8,2.9,7.4,2.1z M4.3,15.2
	c0.9,0.8,1.9,1.4,3.1,1.7c-0.6-0.8-1.1-1.7-1.4-2.6C5.4,14.5,4.8,14.8,4.3,15.2z M9.1,6.3C8.2,6.2,7.2,6,6.4,5.6
	C5.9,6.7,5.7,7.9,5.6,9.1h3.5V6.3z M5.6,9.9c0.1,1.2,0.3,2.4,0.8,3.5c0.9-0.4,1.8-0.6,2.8-0.7V9.9H5.6z M9.1,1.8
	c-0.3,0-0.5,0-0.8,0.1c-0.7,1-1.3,2-1.8,3.1c0.8,0.3,1.7,0.5,2.5,0.5V1.8z M9.1,13.5c-0.9,0.1-1.7,0.2-2.5,0.5
	c0.4,1.1,1,2.2,1.7,3.1c0.3,0,0.5,0.1,0.8,0.1L9.1,13.5L9.1,13.5z M9.9,5.6c0.9-0.1,1.7-0.2,2.5-0.6c-0.5-1.1-1.1-2.1-1.8-3.1
	c-0.3,0-0.5-0.1-0.8-0.1V5.6L9.9,5.6z M9.9,9.1h3.5c-0.1-1.2-0.3-2.4-0.8-3.5C11.8,6,10.8,6.2,9.9,6.3L9.9,9.1L9.9,9.1z M9.9,9.9
	v2.8c1,0.1,1.9,0.3,2.8,0.7c0.4-1.1,0.7-2.3,0.8-3.5L9.9,9.9L9.9,9.9z M9.9,17.2c0.3,0,0.5,0,0.8-0.1c0.7-1,1.3-2,1.7-3.1
	c-0.8-0.3-1.7-0.5-2.5-0.5L9.9,17.2L9.9,17.2z M14.7,3.8c-0.9-0.8-1.9-1.4-3.1-1.7c0.6,0.8,1.1,1.7,1.4,2.6
	C13.6,4.5,14.2,4.2,14.7,3.8z M11.6,16.9c1.2-0.3,2.2-0.9,3.1-1.7c-0.5-0.4-1.1-0.7-1.7-0.9C12.7,15.2,12.2,16.1,11.6,16.9z
	 M17.2,9.1c-0.1-1.8-0.7-3.5-1.9-4.8c-0.6,0.4-1.3,0.8-1.9,1c0.5,1.2,0.7,2.5,0.8,3.8L17.2,9.1L17.2,9.1z M14.1,9.9
	c-0.1,1.3-0.4,2.6-0.8,3.8c0.7,0.3,1.3,0.6,1.9,1c1.2-1.3,1.9-3,1.9-4.8L14.1,9.9L14.1,9.9z"/>
<path class="st0" d="M1,9h16v1H1V9z M9,2h1v16H9V2z"/>
</svg>
