<?xml version="1.0" encoding="UTF-8"?>
<svg width="64px" height="64px" viewBox="0 0 64 64" version="1.1" xmlns="http://www.w3.org/2000/svg" xmlns:xlink="http://www.w3.org/1999/xlink">
    <!-- Generator: Sketch 51.3 (57544) - http://www.bohemiancoding.com/sketch -->
    <title>advantage3</title>
    <desc>Created with Sketch.</desc>
    <defs></defs>
    <g id="Page-1" stroke="none" stroke-width="1" fill="none" fill-rule="evenodd">
        <g id="настройка_счетчиков" transform="translate(-994.000000, -1247.000000)" fill="#FF614A" fill-rule="nonzero">
            <g id="advantage3" transform="translate(994.000000, 1247.000000)">
                <path d="M32,0 C14.3,0 0,14.3 0,32 C0,49.7 14.3,64 32,64 C49.7,64 64,49.7 64,32 C64,14.3 49.7,0 32,0 Z M32,60 C26.3,60 21,58.3 16.5,55.3 L27,44.8 L33.6,51.4 C34.4,52.2 35.6,52.2 36.4,51.4 L49,38.8 L49,44 C49,45.1 49.9,46 51,46 C52.1,46 53,45.1 53,44 L53,34 C53,33.9 53,33.7 53,33.6 C53,33.5 53,33.5 52.9,33.4 C52.9,33.3 52.9,33.3 52.8,33.2 C52.8,33.1 52.7,33.1 52.7,33 C52.7,32.9 52.6,32.9 52.6,32.8 C52.5,32.6 52.3,32.4 52,32.2 C51.9,32.2 51.9,32.1 51.8,32.1 C51.7,32.1 51.7,32 51.6,32 C51.5,32 51.5,32 51.4,31.9 C51.3,31.9 51.3,31.9 51.2,31.9 C51.1,31.9 50.9,31.9 50.8,31.9 L41,31.9 C39.9,31.9 39,32.8 39,33.9 C39,35 39.9,35.9 41,35.9 L46,35.9 L35,47.2 L28.4,40.6 C27.6,39.8 26.4,39.8 25.6,40.6 L13.6,52.6 C13.5,52.7 13.4,52.8 13.4,52.9 C8.9,48.9 5.7,43.5 4.6,37.3 L18,23.8 L24.6,30.4 C25.4,31.2 26.6,31.2 27.4,30.4 L40,17.8 L40,23 C40,24.1 40.9,25 42,25 C43.1,25 44,24.1 44,23 L44,13 C44,12.9 44,12.7 44,12.6 C44,12.5 44,12.5 43.9,12.4 C43.9,12.3 43.9,12.3 43.8,12.2 C43.8,12.1 43.7,12.1 43.7,12 C43.7,11.9 43.6,11.9 43.6,11.8 C43.5,11.6 43.3,11.4 43,11.2 C42.9,11.2 42.9,11.1 42.8,11.1 C42.7,11.1 42.7,11 42.6,11 C42.5,11 42.5,11 42.4,10.9 C42.3,10.9 42.3,10.9 42.2,10.9 C42.1,10.9 41.9,10.9 41.8,10.9 L32,10.9 C30.9,10.9 30,11.8 30,12.9 C30,14 30.9,14.9 32,14.9 L37,14.9 L26,26.2 L19.4,19.6 C18.6,18.8 17.4,18.8 16.6,19.6 L4,32.2 C4,32.1 4,32.1 4,32 C4,16.6 16.6,4 32,4 C47.4,4 60,16.6 60,32 C60,47.4 47.4,60 32,60 Z" id="Shape"></path>
            </g>
        </g>
    </g>
</svg>