<?xml version="1.0" encoding="UTF-8"?>
<svg width="64px" height="64px" viewBox="0 0 64 64" version="1.1" xmlns="http://www.w3.org/2000/svg" xmlns:xlink="http://www.w3.org/1999/xlink">
    <!-- Generator: Sketch 51.3 (57544) - http://www.bohemiancoding.com/sketch -->
    <title>mobile</title>
    <desc>Created with Sketch.</desc>
    <defs></defs>
    <g id="Page-1" stroke="none" stroke-width="1" fill="none" fill-rule="evenodd">
        <g id="настройка_счетчиков" transform="translate(-438.000000, -1414.000000)" fill="#FF614C" fill-rule="nonzero">
            <g id="mobile" transform="translate(438.000000, 1414.000000)">
                <path d="M56,0 L8,0 C3.6,0 0,3.6 0,8 L0,56 C0,60.4 3.6,64 8,64 L56,64 C60.4,64 64,60.4 64,56 L64,8 C64,3.6 60.4,0 56,0 Z M6.8,4 L57.2,4 C58.74,4 60,5.35 60,7 L60,16 L4,16 L4,7 C4,5.35 5.26,4 6.8,4 Z M60,18.6666667 L60,29.3333333 L4,29.3333333 L4,18.6666667 L60,18.6666667 Z M57.2,60 L6.8,60 C5.26,60 4,58.74 4,57.2 L4,32 L60,32 L60,57.2 C60,58.74 58.74,60 57.2,60 Z M18.6666667,25.3333333 L18.6666667,22.6666667 L45.3333333,22.6666667 L45.3333333,25.3333333 L18.6666667,25.3333333 Z M18.6666667,52 L45.3333333,52 L45.3333333,54.6666667 L18.6666667,54.6666667 L18.6666667,52 Z M21.3333333,12 L10.6666667,12 L10.6666667,9.33333333 L21.3333333,9.33333333 L21.3333333,12 Z M53.3333333,12 L48,12 L48,9.33333333 L53.3333333,9.33333333 L53.3333333,12 Z M45.3333333,12 L40,12 L40,9.33333333 L45.3333333,9.33333333 L45.3333333,12 Z M37.3333333,12 L32,12 L32,9.33333333 L37.3333333,9.33333333 L37.3333333,12 Z M22.6666667,36 L9.33333333,36 L9.33333333,48 L22.6666667,48 L22.6666667,36 Z M20,45.3333333 L12,45.3333333 L12,38.6666667 L20,38.6666667 L20,45.3333333 Z M38.6666667,36 L25.3333333,36 L25.3333333,48 L38.6666667,48 L38.6666667,36 Z M36,45.3333333 L28,45.3333333 L28,38.6666667 L36,38.6666667 L36,45.3333333 Z M41.3333333,48 L54.6666667,48 L54.6666667,36 L41.3333333,36 L41.3333333,48 Z M44,38.6666667 L52,38.6666667 L52,45.3333333 L44,45.3333333 L44,38.6666667 Z" id="Shape"></path>
            </g>
        </g>
    </g>
</svg>