<?xml version="1.0" encoding="UTF-8"?>
<svg width="64px" height="51px" viewBox="0 0 64 51" version="1.1" xmlns="http://www.w3.org/2000/svg" xmlns:xlink="http://www.w3.org/1999/xlink">
    <!-- Generator: Sketch 51.3 (57544) - http://www.bohemiancoding.com/sketch -->
    <title>implantation_stage1</title>
    <desc>Created with Sketch.</desc>
    <defs></defs>
    <g id="Page-1" stroke="none" stroke-width="1" fill="none" fill-rule="evenodd">
        <g id="настройка_счетчиков" transform="translate(-994.000000, -1416.000000)" fill="#FF614A" fill-rule="nonzero">
            <g id="implantation_stage1" transform="translate(994.000000, 1416.000000)">
                <path d="M61.8666667,0 L2.13333333,0 C0.96,0 0,0.95625 0,2.125 L0,40.375 C0,41.54375 0.96,42.5 2.13333333,42.5 L21.3333333,42.5 L21.3333333,48.875 C21.3333333,49.61875 21.76,50.25625 22.2933333,50.68125 C22.6133333,50.89375 23.04,51 23.4666667,51 C23.7866667,51 24.1066667,50.89375 24.4266667,50.7875 L41.0666667,42.5 L61.8666667,42.5 C63.04,42.5 64,41.54375 64,40.375 L64,2.125 C64,0.95625 63.04,0 61.8666667,0 Z M59.7333333,38.25 L40.5333333,38.25 C40.2133333,38.25 39.8933333,38.35625 39.5733333,38.4625 L25.6,45.475 L25.6,40.375 C25.6,39.20625 24.64,38.25 23.4666667,38.25 L4.26666667,38.25 L4.26666667,4.25 L59.7333333,4.25 L59.7333333,38.25 Z M10.6666667,14.875 C10.6666667,13.70625 11.6266667,12.75 12.8,12.75 L51.2,12.75 C52.3733333,12.75 53.3333333,13.70625 53.3333333,14.875 C53.3333333,16.04375 52.3733333,17 51.2,17 L12.8,17 C11.6266667,17 10.6666667,16.04375 10.6666667,14.875 Z M10.6666667,25.5 C10.6666667,24.33125 11.6266667,23.375 12.8,23.375 L51.2,23.375 C52.3733333,23.375 53.3333333,24.33125 53.3333333,25.5 C53.3333333,26.66875 52.3733333,27.625 51.2,27.625 L12.8,27.625 C11.6266667,27.625 10.6666667,26.66875 10.6666667,25.5 Z" id="Shape"></path>
            </g>
        </g>
    </g>
</svg>