<?xml version="1.0" encoding="utf-8"?>
<!-- Generator: Adobe Illustrator 17.1.0, SVG Export Plug-In . SVG Version: 6.00 Build 0)  -->
<!DOCTYPE svg PUBLIC "-//W3C//DTD SVG 1.1//EN" "http://www.w3.org/Graphics/SVG/1.1/DTD/svg11.dtd">
<svg version="1.1" id="Layer_1" xmlns="http://www.w3.org/2000/svg" xmlns:xlink="http://www.w3.org/1999/xlink" x="0px" y="0px"
	 viewBox="0 0 64 64" style="enable-background:new 0 0 64 64;" xml:space="preserve">
<style type="text/css">
	.st0{fill:#FF614C;}
</style>
<path class="st0" d="M18,41.2c-2.6,0-4.8,2.1-4.8,4.8s2.1,4.8,4.8,4.8s4.8-2.1,4.8-4.8S20.6,41.2,18,41.2z M18,48.7
	c-1.5,0-2.8-1.2-2.8-2.8s1.2-2.8,2.8-2.8s2.8,1.2,2.8,2.8S19.5,48.7,18,48.7z M30.6,42.8c-0.6-2.3-1.8-4.5-3.5-6.1l-0.5-0.5l-2,1.2
	c-0.7-0.5-1.4-0.9-2.2-1.3v-2.4l-0.7-0.2c-2.3-0.7-4.8-0.7-7.1,0l-0.7,0.2v2.4c-0.8,0.3-1.5,0.8-2.2,1.3l-2-1.2l-0.5,0.5
	c-1.7,1.7-3,3.8-3.5,6.1l-0.2,0.7l2.1,1.2c-0.1,0.4-0.1,0.8-0.1,1.3s0,0.8,0.1,1.3l-2.1,1.2l0.2,0.7c0.6,2.3,1.8,4.5,3.5,6.1
	l0.5,0.5l2-1.2c0.7,0.5,1.4,0.9,2.2,1.3v2.4l0.7,0.2c1.2,0.3,2.3,0.5,3.5,0.5s2.4-0.2,3.5-0.5l0.7-0.2v-2.4c0.8-0.3,1.5-0.8,2.2-1.3
	l2,1.2l0.5-0.5c1.7-1.7,3-3.8,3.5-6.1l0.2-0.7l-2.1-1.2c0.1-0.4,0.1-0.8,0.1-1.3s0-0.8-0.1-1.3l2.1-1.2L30.6,42.8z M26.7,44.4
	c0.1,0.6,0.2,1.1,0.2,1.6c0,0.5-0.1,1-0.2,1.6l-0.1,0.7l1.9,1.1c-0.5,1.5-1.2,2.8-2.3,3.9l-1.9-1.1l-0.5,0.5
	c-0.8,0.7-1.8,1.2-2.8,1.6l-0.7,0.2v2.2c-1.5,0.3-3.1,0.3-4.5,0v-2.2l-0.7-0.2c-1-0.4-2-0.9-2.8-1.6l-0.5-0.5l-1.9,1.1
	c-1-1.1-1.8-2.5-2.3-3.9l1.9-1.1l-0.1-0.7C9.2,47,9.2,46.5,9.2,46c0-0.5,0.1-1,0.2-1.6l0.1-0.7l-1.9-1.1c0.5-1.5,1.2-2.8,2.3-3.9
	l1.9,1.1l0.5-0.5c0.8-0.7,1.8-1.2,2.8-1.6l0.7-0.2v-2.2c1.5-0.3,3-0.3,4.5,0v2.2l0.7,0.2c1,0.4,2,0.9,2.8,1.6l0.5,0.5l1.9-1.1
	c1,1.1,1.8,2.5,2.3,3.9l-1.9,1.1L26.7,44.4z M45,41.2c-2.6,0-4.8,2.1-4.8,4.8s2.1,4.8,4.8,4.8s4.8-2.1,4.8-4.8S47.6,41.2,45,41.2z
	 M45,48.7c-1.5,0-2.8-1.2-2.8-2.8s1.2-2.8,2.8-2.8s2.8,1.2,2.8,2.8S46.5,48.7,45,48.7z M53.7,39.5l1.2-2l-0.5-0.5
	c-1.7-1.7-3.8-3-6.1-3.5l-0.7-0.2l-1.2,2.1c-0.9-0.1-1.7-0.1-2.5,0l-1.2-2.1l-0.7,0.2c-2.3,0.6-4.5,1.8-6.1,3.5l-0.5,0.5l1.2,2
	c-0.5,0.7-0.9,1.4-1.3,2.2h-2.4l-0.2,0.7C32.2,43.6,32,44.8,32,46c0,1.2,0.2,2.4,0.5,3.5l0.2,0.7h2.4c0.3,0.8,0.8,1.5,1.3,2.2
	l-1.2,2l0.5,0.5c1.7,1.7,3.8,3,6.1,3.5l0.7,0.2l1.2-2.1c0.9,0.1,1.7,0.1,2.5,0l1.2,2.1l0.7-0.2c2.3-0.6,4.5-1.8,6.1-3.5l0.5-0.5
	l-1.2-2c0.5-0.7,0.9-1.4,1.3-2.2h2.4l0.2-0.7c0.3-1.2,0.5-2.4,0.5-3.5c0-1.2-0.2-2.4-0.5-3.5l-0.2-0.7h-2.4
	C54.6,40.9,54.2,40.2,53.7,39.5z M56,46c0,0.8-0.1,1.5-0.2,2.3h-2.2l-0.2,0.7c-0.4,1-0.9,2-1.6,2.8l-0.5,0.5l1.1,1.9
	c-1.1,1-2.5,1.8-3.9,2.3l-1.1-1.9l-0.7,0.1c-1.1,0.2-2.1,0.2-3.2,0l-0.7-0.1l-1.1,1.9c-1.5-0.5-2.8-1.2-3.9-2.3l1.1-1.9l-0.5-0.5
	c-0.7-0.8-1.2-1.8-1.6-2.8l-0.2-0.7h-2.2C34.1,47.5,34,46.8,34,46c0-0.8,0.1-1.5,0.2-2.3h2.2l0.2-0.7c0.4-1,0.9-2,1.6-2.8l0.5-0.5
	l-1.1-1.9c1.1-1,2.5-1.8,3.9-2.3l1.1,1.9l0.7-0.1c1.1-0.2,2.1-0.2,3.2,0l0.7,0.1l1.1-1.9c1.5,0.5,2.8,1.2,3.9,2.3l-1.1,1.9l0.5,0.5
	c0.7,0.8,1.2,1.8,1.6,2.8l0.2,0.7h2.2C55.9,44.5,56,45.2,56,46z M48,28.1V0H36h-8H16v28.1C7,29,0,36.6,0,45.8v0.3C0,56,8,64,17.8,64
	h28.3C56,64,64,56,64,46.2v-0.3C64,36.6,57,29,48,28.1z M30,2h4v2h-4V2z M18,2h10v4h8V2h10v26H18V2z M60,46.2
	C60,53.8,53.8,60,46.2,60H17.8C10.2,60,4,53.8,4,46.2v-0.3C4,38.2,10.2,32,17.8,32h28.3C53.8,32,60,38.2,60,45.8V46.2z M34,26h10v-8
	H34V26z M36,20h6v4h-6V20z"/>
</svg>
