<?xml version="1.0" encoding="utf-8"?>
<!-- Generator: Adobe Illustrator 17.1.0, SVG Export Plug-In . SVG Version: 6.00 Build 0)  -->
<!DOCTYPE svg PUBLIC "-//W3C//DTD SVG 1.1//EN" "http://www.w3.org/Graphics/SVG/1.1/DTD/svg11.dtd">
<svg version="1.1" id="Layer_1" xmlns="http://www.w3.org/2000/svg" xmlns:xlink="http://www.w3.org/1999/xlink" x="0px" y="0px"
	 viewBox="0 0 64 64" style="enable-background:new 0 0 64 64;" xml:space="preserve">
<style type="text/css">
	.st0{fill:#FF614A;}
</style>
<path class="st0" d="M54,0H37H10C4.5,0,0,4.5,0,10v44c0,5.5,4.5,10,10,10h27h17c5.5,0,10-4.5,10-10V10C64,4.5,59.5,0,54,0z M10,4h27
	h17c3.3,0,6,2.7,6,6v6H4v-6C4,6.7,6.7,4,10,4z M54,60H37H10c-3.3,0-6-2.7-6-6V20h56v34C60,57.3,57.3,60,54,60z M8,10
	c0-1.1,0.9-2,2-2h4c1.1,0,2,0.9,2,2s-0.9,2-2,2h-4C8.9,12,8,11.1,8,10z M52.6,11.4C52.2,11,52,10.5,52,10c0-0.5,0.2-1,0.6-1.4
	c0.8-0.8,2.1-0.8,2.8,0C55.8,9,56,9.5,56,10c0,0.5-0.2,1-0.6,1.4C55,11.8,54.5,12,54,12C53.5,12,53,11.8,52.6,11.4z M46.6,11.4
	C46.2,11,46,10.5,46,10c0-0.5,0.2-1,0.6-1.4c0.7-0.8,2.1-0.8,2.8,0C49.8,9,50,9.5,50,10c0,0.5-0.2,1-0.6,1.4C49,11.8,48.5,12,48,12
	C47.5,12,47,11.8,46.6,11.4z M40.6,11.4C40.2,11,40,10.5,40,10c0-0.5,0.2-1,0.6-1.4c0.7-0.8,2.1-0.8,2.8,0C43.8,9,44,9.5,44,10
	c0,0.5-0.2,1-0.6,1.4C43,11.8,42.5,12,42,12C41.5,12,41,11.8,40.6,11.4z M23,28c0,0.6-0.4,1-1,1H10c-0.6,0-1-0.4-1-1s0.4-1,1-1h12
	C22.6,27,23,27.4,23,28z M23,36c0,0.6-0.4,1-1,1H10c-0.6,0-1-0.4-1-1s0.4-1,1-1h12C22.6,35,23,35.4,23,36z M23,44c0,0.6-0.4,1-1,1
	H10c-0.6,0-1-0.4-1-1s0.4-1,1-1h12C22.6,43,23,43.4,23,44z M23,52c0,0.6-0.4,1-1,1H10c-0.6,0-1-0.4-1-1s0.4-1,1-1h12
	C22.6,51,23,51.4,23,52z M39.2,49l1.8,4H30c-1.1,0-2-0.9-2-2V29c0-1.1,0.9-2,2-2h24c1.1,0,2,0.9,2,2v14.9l-4-1.8V31H32v18H39.2z
	 M56,47.2l-15.6-7.1c-0.4-0.2-0.8-0.1-1.1,0.2c-0.3,0.3-0.4,0.7-0.2,1.1L46.2,57c0.2,0.4,0.5,0.6,0.9,0.6c0,0,0,0,0,0
	c0.4,0,0.7-0.2,0.9-0.6l2.7-5.4L56,49c0.3-0.2,0.6-0.5,0.6-0.9C56.5,47.7,56.3,47.3,56,47.2z M49.5,50c-0.2,0.1-0.4,0.3-0.4,0.4
	l-1.9,3.8L42,43l11.2,5.1L49.5,50z"/>
</svg>
