<?xml version="1.0" encoding="utf-8"?>
<!-- Generator: Adobe Illustrator 17.1.0, SVG Export Plug-In . SVG Version: 6.00 Build 0)  -->
<!DOCTYPE svg PUBLIC "-//W3C//DTD SVG 1.1//EN" "http://www.w3.org/Graphics/SVG/1.1/DTD/svg11.dtd">
<svg version="1.1" id="Layer_1" xmlns="http://www.w3.org/2000/svg" xmlns:xlink="http://www.w3.org/1999/xlink" x="0px" y="0px"
	 viewBox="0 0 64 64" style="enable-background:new 0 0 64 64;" xml:space="preserve">
<style type="text/css">
	.st0{fill:#FF614C;}
</style>
<path class="st0" d="M60,60V28H48v32h-4V34H32v26h-4V32H16v28h-4V42H0v18v4h12h4h12h4h12h4h12h4v-4H60z M4,60V46h4v14H4z M20,60V36
	h4v24H20z M36,60V38h4v22H36z M52,60V32h4v28H52z M52,24c3.1,0,6.1-1.2,8.5-3.5c4.7-4.7,4.7-12.3,0-17C58.1,1.2,55.1,0,52,0
	s-6.1,1.2-8.5,3.5c-4.7,4.7-4.7,12.3,0,17C45.9,22.8,48.9,24,52,24z M46.3,6.3C47.9,4.8,49.9,4,52,4c2.1,0,4.1,0.8,5.7,2.3
	c3.1,3.1,3.1,8.2,0,11.3C56.1,19.2,54.1,20,52,20c-2.1,0-4.1-0.8-5.7-2.3C43.2,14.5,43.2,9.5,46.3,6.3z M48.8,18H51v-2.7h4.2v-1.5
	H51v-1.1h2c2.2,0,3.9-1.2,3.9-3.3c0-2.1-1.3-3.5-3.8-3.5h-4.3v5.1h-1.1v1.7h1.1v1.1h-1.1v1.5h1.1V18z M51,7.7h1.7
	c1.3,0,1.9,0.7,1.9,1.6c0,0.9-0.6,1.7-2,1.7H51V7.7z M6.6,26.8l-1.2-1.6l16-12c0.4-0.3,0.9-0.3,1.2,0L36,24.7l4.4-3.5l1.2,1.6l-5,4
	C36.4,26.9,36.2,27,36,27c-0.2,0-0.5-0.1-0.7-0.2L22,15.3L6.6,26.8z"/>
</svg>
