<?xml version="1.0" encoding="utf-8"?>
<!-- Generator: Adobe Illustrator 17.1.0, SVG Export Plug-In . SVG Version: 6.00 Build 0)  -->
<!DOCTYPE svg PUBLIC "-//W3C//DTD SVG 1.1//EN" "http://www.w3.org/Graphics/SVG/1.1/DTD/svg11.dtd">
<svg version="1.1" id="Layer_1" xmlns="http://www.w3.org/2000/svg" xmlns:xlink="http://www.w3.org/1999/xlink" x="0px" y="0px"
	 viewBox="0 0 64 64" style="enable-background:new 0 0 64 64;" xml:space="preserve">
<style type="text/css">
	.st0{fill:#FF614A;}
</style>
<path class="st0" d="M32,4c15.4,0,28,12.6,28,28S47.4,60,32,60S4,47.4,4,32S16.6,4,32,4 M32,0C14.3,0,0,14.3,0,32s14.3,32,32,32
	s32-14.3,32-32S49.7,0,32,0L32,0z M25.9,38.6h-2.3v-2.9h2.3v-2.2h-2.3v-3.4h2.3V20h8.5c4.9,0,7.6,2.7,7.6,7c0,4.2-3.3,6.6-7.8,6.6
	h-4v2.2h8.4v2.9h-8.4V44h-4.4V38.6z M33.6,30.1c2.6,0,3.9-1.5,3.9-3.4c0-1.9-1.3-3.3-3.9-3.3h-3.4v6.7H33.6z"/>
</svg>
