<?xml version="1.0" encoding="utf-8"?>
<!-- Generator: Adobe Illustrator 17.1.0, SVG Export Plug-In . SVG Version: 6.00 Build 0)  -->
<!DOCTYPE svg PUBLIC "-//W3C//DTD SVG 1.1//EN" "http://www.w3.org/Graphics/SVG/1.1/DTD/svg11.dtd">
<svg version="1.1" id="Layer_1" xmlns="http://www.w3.org/2000/svg" xmlns:xlink="http://www.w3.org/1999/xlink" x="0px" y="0px"
	 viewBox="0 0 80 80" style="enable-background:new 0 0 80 80;" xml:space="preserve">
<style type="text/css">
	.st0{fill:#FF614A;}
</style>
<path class="st0" d="M70.2,15.4L56.6,1.8C55.5,0.6,53.9,0,52.3,0H14c-3.3,0-6,2.7-6,6v68c0,3.3,2.7,6,6,6h52c3.3,0,6-2.7,6-6V19.7
	C72,18.1,71.4,16.5,70.2,15.4z M65.2,16H56V6.8L65.2,16z M66,76H14c-1.1,0-2-0.9-2-2V6c0-1.1,0.9-2,2-2h38v14c0,1.1,0.9,2,2,2h14v54
	C68,75.1,67.1,76,66,76z M54.6,43.1c-2,0-4.1,0.3-5.7,0.5c-0.5,0.1-1,0.1-1.4,0.2c-4.2-2.6-7-7.2-8.2-10.4c0.2-0.7,0.4-1.3,0.5-2
	c0.9-3.4,1.7-6.1,0.9-8.9c-0.5-1.7-1.6-2.5-2.5-2.5c-0.1,0-0.1,0-0.2,0c-1.3,0.2-2.4,0.9-2.9,2c-0.8,1.9-0.3,5.9,1.6,12.4l0.1,0.2
	c-1.3,3.9-4.1,9.7-7.1,14.5l-1.2,0.6c-5.5,2.7-8.3,5-8.4,7.1c-0.1,0.9,0.3,1.7,1.3,2.5c0.3,0.2,0.6,0.4,1,0.5
	c0.4,0.1,0.8,0.2,1.2,0.2c3,0,6.5-3.7,9.9-10.5c4.2-1.4,7.6-2.5,12.4-3.2c3.8,2.6,6.9,3.9,9.5,3.9c0.8,0,1.6-0.1,2.3-0.4
	c0.7-0.3,1.9-1.2,2.3-2.6c0.1-0.5,0.4-1.6-0.1-2.4C59,43.6,57.3,43.1,54.6,43.1z M22.3,58c0.2-1.1,1.1-3.5,5.8-6.6l0,0l0,0
	c0.2-0.2,0.3-0.3,0.4-0.5C26.3,54.4,24,57.2,22.3,58z M38.4,22.1c2,1.5,1.1,4.6,0.1,7.8c0,0.1-0.1,0.2-0.1,0.4
	C37.8,27.4,37.5,23.7,38.4,22.1z M34.1,47.5C35.2,45,37,40.5,38,36.9c1.2,2.4,2.9,5.1,5.5,7.6C40.1,45.2,37.5,46.2,34.1,47.5z
	 M56.5,48c-1.6,0-3.9-0.8-6.3-2.2c1.8-0.2,3.3-0.3,4.5-0.3c1.2,0,2.1,0.1,2.6,0.3c1.3,0.4,1.6,1,1.6,1.2C58.4,47.6,57.6,48,56.5,48z
	"/>
</svg>
