<?xml version="1.0" encoding="utf-8"?>
<!-- Generator: Adobe Illustrator 17.1.0, SVG Export Plug-In . SVG Version: 6.00 Build 0)  -->
<!DOCTYPE svg PUBLIC "-//W3C//DTD SVG 1.1//EN" "http://www.w3.org/Graphics/SVG/1.1/DTD/svg11.dtd">
<svg version="1.1" id="Layer_1" xmlns="http://www.w3.org/2000/svg" xmlns:xlink="http://www.w3.org/1999/xlink" x="0px" y="0px"
	 viewBox="0 0 48 48" style="enable-background:new 0 0 48 48;" xml:space="preserve">
<style type="text/css">
	.st0{fill:#FF614C;}
</style>
<path class="st0" d="M42,0H6C2.7,0,0,2.7,0,6v36c0,3.3,2.7,6,6,6h36c3.3,0,6-2.7,6-6V6C48,2.7,45.3,0,42,0z M6,4h36c1.1,0,2,0.9,2,2
	v6H4V6C4,4.9,4.9,4,6,4z M44,14v8H4v-8H44z M42,44H6c-1.1,0-2-0.9-2-2V24h40v18C44,43.1,43.1,44,42,44z M14,19v-2h20v2H14z M14,39
	h20v2H14V39z M16,9H8V7h8V9z M40,9h-4V7h4V9z M34,9h-4V7h4V9z M28,9h-4V7h4V9z M17,27H7v9h10V27z M15,34H9v-5h6V34z M29,27H19v9h10
	V27z M27,34h-6v-5h6V34z M31,36h10v-9H31V36z M33,29h6v5h-6V29z"/>
</svg>
