<?xml version="1.0" encoding="utf-8"?>
<!-- Generator: Adobe Illustrator 17.1.0, SVG Export Plug-In . SVG Version: 6.00 Build 0)  -->
<!DOCTYPE svg PUBLIC "-//W3C//DTD SVG 1.1//EN" "http://www.w3.org/Graphics/SVG/1.1/DTD/svg11.dtd">
<svg version="1.1" id="Layer_1" xmlns="http://www.w3.org/2000/svg" xmlns:xlink="http://www.w3.org/1999/xlink" x="0px" y="0px"
	 viewBox="0 0 96 96" style="enable-background:new 0 0 96 96;" xml:space="preserve">
<style type="text/css">
	.st0{fill:#FF614A;}
</style>
<path class="st0" d="M90,19H64v-4c0-2.2-1.8-4-4-4H36c-2.2,0-4,1.8-4,4v4H6c-3.3,0-6,2.7-6,6v54c0,3.3,2.7,6,6,6h84c3.3,0,6-2.7,6-6
	V25C96,21.7,93.3,19,90,19z M36,15h24v4H36V15z M6,23h28h28h28c1.1,0,2,0.9,2,2v16.9l-13.3,8c-3.4,2.1-7.3,3.1-11.3,3.1H55H41H28.6
	c-4,0-7.9-1.1-11.3-3.1L4,41.9V25C4,23.9,4.9,23,6,23z M43,57h10v3H43V57z M90,81H6c-1.1,0-2-0.9-2-2V46.5l11.3,6.8
	c4,2.4,8.7,3.7,13.4,3.7H39v5c0,1.1,0.9,2,2,2h14c1.1,0,2-0.9,2-2v-5h10.4c4.7,0,9.3-1.3,13.4-3.7L92,46.5V79C92,80.1,91.1,81,90,81
	z"/>
</svg>
