<?xml version="1.0" encoding="utf-8"?>
<!-- Generator: Adobe Illustrator 17.1.0, SVG Export Plug-In . SVG Version: 6.00 Build 0)  -->
<!DOCTYPE svg PUBLIC "-//W3C//DTD SVG 1.1//EN" "http://www.w3.org/Graphics/SVG/1.1/DTD/svg11.dtd">
<svg version="1.1" id="Layer_1" xmlns="http://www.w3.org/2000/svg" xmlns:xlink="http://www.w3.org/1999/xlink" x="0px" y="0px"
	 viewBox="0 0 64 64" style="enable-background:new 0 0 64 64;" xml:space="preserve">
<style type="text/css">
	.st0{fill:#FF614A;}
</style>
<path class="st0" d="M54,0H37H10C4.5,0,0,4.5,0,10v44c0,5.5,4.5,10,10,10h27h17c5.5,0,10-4.5,10-10V10C64,4.5,59.5,0,54,0z M10,4h27
	h17c3.3,0,6,2.7,6,6v6H4v-6C4,6.7,6.7,4,10,4z M54,60H37H10c-3.3,0-6-2.7-6-6V20h56v34C60,57.3,57.3,60,54,60z M8,10
	c0-1.1,0.9-2,2-2h4c1.1,0,2,0.9,2,2s-0.9,2-2,2h-4C8.9,12,8,11.1,8,10z M52.6,11.4C52.2,11,52,10.5,52,10c0-0.5,0.2-1,0.6-1.4
	c0.7-0.8,2.1-0.8,2.8,0C55.8,9,56,9.5,56,10c0,0.5-0.2,1-0.6,1.4C55,11.8,54.5,12,54,12S53,11.8,52.6,11.4z M46.6,11.4
	C46.2,11,46,10.5,46,10c0-0.5,0.2-1,0.6-1.4c0.8-0.8,2.1-0.8,2.8,0C49.8,9,50,9.5,50,10c0,0.5-0.2,1-0.6,1.4C49,11.8,48.5,12,48,12
	S47,11.8,46.6,11.4z M40.6,11.4C40.2,11,40,10.5,40,10c0-0.5,0.2-1,0.6-1.4c0.7-0.8,2.1-0.8,2.8,0C43.8,9,44,9.5,44,10
	s-0.2,1-0.6,1.4C43,11.8,42.5,12,42,12C41.5,12,41,11.8,40.6,11.4z M32.7,25.1L32,24.9l-0.7,0.3c-3.6,1.3-7.4,2-11.3,1.9l-2,0v2
	c0,16.9,9.1,23.7,13.1,25.8l0.9,0.5l0.9-0.5C36.9,52.7,46,45.9,46,29v-2l-2,0C40.1,27.1,36.3,26.5,32.7,25.1z M32,50.7
	c-3.4-2.2-9.4-7.6-10-19.7c3.4-0.1,6.7-0.8,10-1.9c3.2,1.1,6.5,1.7,10,1.9C41.4,43.1,35.4,48.5,32,50.7z M31.4,46.2
	c2.4-2,5.4-5.8,6.3-12.6c0.1-0.5,0.6-0.9,1.1-0.9c0.5,0.1,0.9,0.6,0.9,1.1c-1,7.5-4.4,11.7-7,13.9C32.5,47.9,32.2,48,32,48
	c-0.3,0-0.6-0.1-0.8-0.4C30.9,47.2,30.9,46.6,31.4,46.2z"/>
</svg>
