<?xml version="1.0" encoding="utf-8"?>
<!-- Generator: Adobe Illustrator 17.1.0, SVG Export Plug-In . SVG Version: 6.00 Build 0)  -->
<!DOCTYPE svg PUBLIC "-//W3C//DTD SVG 1.1//EN" "http://www.w3.org/Graphics/SVG/1.1/DTD/svg11.dtd">
<svg version="1.1" id="Layer_1" xmlns="http://www.w3.org/2000/svg" xmlns:xlink="http://www.w3.org/1999/xlink" x="0px" y="0px"
	 viewBox="0 0 64 64" style="enable-background:new 0 0 64 64;" xml:space="preserve">
<style type="text/css">
	.st0{fill:#FF614A;}
</style>
<path class="st0" d="M56,6h-3V3c0-1.7-1.3-3-3-3h-2c-1.7,0-3,1.3-3,3v3H19V3c0-1.7-1.3-3-3-3h-2c-1.7,0-3,1.3-3,3v3H8
	c-4.4,0-8,3.6-8,8v42c0,4.4,3.6,8,8,8h48c4.4,0,8-3.6,8-8V14C64,9.6,60.4,6,56,6z M47,3c0-0.6,0.4-1,1-1h2c0.6,0,1,0.4,1,1v10
	c0,0.6-0.4,1-1,1h-2c-0.6,0-1-0.4-1-1V3z M13,3c0-0.6,0.4-1,1-1h2c0.6,0,1,0.4,1,1v10c0,0.6-0.4,1-1,1h-2c-0.6,0-1-0.4-1-1V3z M8,10
	h3v3c0,1.7,1.3,3,3,3h2c1.7,0,3-1.3,3-3v-3h26v3c0,1.7,1.3,3,3,3h2c1.7,0,3-1.3,3-3v-3h3c2.2,0,4,1.8,4,4v7H4v-7C4,11.8,5.8,10,8,10
	z M56,60H8c-2.2,0-4-1.8-4-4V23h56v33C60,58.2,58.2,60,56,60z M28,32h-6v-2h6V32z M41,32h-6v-2h6V32z M54,32h-6v-2h6V32z M15,32H9
	v-2h6V32z M23,40h6v2h-6V40z M36,40h6v2h-6V40z M49,40h6v2h-6V40z M10,40h6v2h-6V40z M22,50h6v2h-6V50z M35,50h6v2h-6V50z M48,50h6
	v2h-6V50z M9,50h6v2H9V50z"/>
</svg>
