<svg xmlns="http://www.w3.org/2000/svg" width="1401" height="339"><g clip-path="url(#clip-FAC55A3A-B7BB-4368-9593-D432887F6886)" opacity=".16"><path d="M597.572 99.19c79.45 0 135.236 47.19 135.236 115.3 0 7.446-.437 21.44-.437 21.874l-1.319.868H548.398c3.5 27.064 30.734 50.654 68.922 50.654 30.753 0 63.25-13.551 79.49-24.44h1.744l23.705 34.065v1.736c-39.08 32.763-84.317 39.755-115.03 39.755-36.435 0-72.433-10.05-93.955-25.77-26.779-19.212-43.9-44.549-49.61-72.962-2.22-8.284-3.074-17.032-3.074-25.78 0-65.94 58.82-115.3 136.982-115.3zm51.383 96.108c0-20.1-13.176-50.692-51.378-50.692-24.163 0-50.051 17.486-50.924 50.692z"/></g><g clip-path="url(#clip-859620E6-8406-428B-B230-7AE3B77A964E)" opacity=".16"><path d="M934.816 100.258c64.477 0 106.574 45.27 106.574 117.962 0 66.732-50.367 120.871-135.84 120.871-31.173 0-59.064-10.033-81.066-21.743l-50.628 12.291-1.307-1.327.3-272.373L753.5 10.708l1.346-1.328h102.168l1.365 1.328v127.297h.852c15.34-24.137 45.758-37.747 75.585-37.747m-76.873 182.329c56.672 19.406 97.49-1.067 97.49-62.932 0-37.718-18.39-66.266-48.256-66.266-2.169 0-3.912 0-6.13.446-42.968 5.264-43.104 51.794-43.104 65.82v62.932"/></g><path d="M1123.514 0C1094.644 0 1071 19.607 1071 44.014 1071 67.98 1094.644 88 1123.514 88c28.9 0 52.486-20.02 52.486-43.986C1176 19.607 1152.414 0 1123.514 0M1070.317 110l-1.317 1.29 19.16 44.915v170.486l1.315 1.309h82.219l1.306-1.309V111.29l-1.306-1.29z" opacity=".16"/><g clip-path="url(#clip-41512F49-3C9F-438C-953D-FF063F5C92F0)" opacity=".16"><path d="M1395.103 279.894l-2.181-1.315c-20.568 3.5-69.974 12.265-69.974-24.944v-92.812h68.613l1.36-1.304v-48.132l-1.36-1.295h-69.048V57.545l-1.322-1.305h-56.385l-1.331 1.305-25.77 52.547h-21.282l-1.303 1.295 22.585 45.087v114.683c0 26.685 16.166 67.393 76.479 67.393 24.07 0 66.895-7.876 85.272-14.44l.869-2.184z"/></g><g clip-path="url(#clip-F1628254-E6DA-45A4-AF17-3B39EF31EEDB)" opacity=".16"><path d="M389.781 109.75l-1.344 1.29-55.028 160.546h-1.306L285.381 111.04l-1.324-1.291H186.55l-1.296 1.29L205.513 160l-42.759 111.586h-1.295L100.136 111.04l-1.306-1.291H1.344L0 111.04l97.245 215.506 1.267 1.3h93.144l1.316-1.3 41.926-100.575 32.981 100.575 1.315 1.3h93.126l1.306-1.3L454.99 111.04l-1.286-1.291z"/></g></svg>