<svg xmlns="http://www.w3.org/2000/svg" width="50" height="50"><path fill="#f0c08d" d="M34.898 28.457l-.005-.003-.004-.004zm2.972 3.02c.41.477.768.999 1.067 1.553a1.115 1.115 0 0 1-.674 1.74h-4.435a3.402 3.402 0 0 1-2.826-1.157c-.615-.633-1.182-1.304-1.772-1.956a4.211 4.211 0 0 0-.8-.716.922.922 0 0 0-1.476.363 4.746 4.746 0 0 0-.465 2.09 1.18 1.18 0 0 1-1.413 1.378 11.224 11.224 0 0 1-6.343-1.376 14.076 14.076 0 0 1-4.27-4.035 54.533 54.533 0 0 1-5.617-10.113c-.355-.796-.096-1.224.776-1.24a118.91 118.91 0 0 1 4.348 0 1.276 1.276 0 0 1 1.204.91 27.187 27.187 0 0 0 2.943 5.504c.293.475.67.893 1.111 1.235a.674.674 0 0 0 1.148-.34c.143-.37.229-.759.254-1.154a17.27 17.27 0 0 0-.071-4.048 1.678 1.678 0 0 0-1.422-1.543c-.424-.083-.36-.242-.157-.485a1.59 1.59 0 0 1 1.357-.696h5.01a1.202 1.202 0 0 1 1.073 1.316v5.621a1.65 1.65 0 0 0 .706 1.435.98.98 0 0 0 1-.496 17.437 17.437 0 0 0 2.826-4.378c.34-.691.63-1.41.915-2.128.138-.501.616-.83 1.133-.783h4.822a2.5 2.5 0 0 1 .435.026.846.846 0 0 1 .784 1.305 12.19 12.19 0 0 1-1.917 3.358c-.804 1.124-1.665 2.21-2.463 3.34a1.533 1.533 0 0 0 .232 2.447 42.412 42.412 0 0 1 2.977 3.022zM0 25c0 13.807 11.193 25 25 25s25-11.193 25-25S38.807 0 25 0 0 11.193 0 25z"/></svg>