<svg xmlns="http://www.w3.org/2000/svg" width="50" height="50"><path fill="#e4b07a" d="M21.972 28.065a.899.899 0 0 1 0-1.295.88.88 0 0 1 1.283 0l1.292 1.295 3.142-3.24a.89.89 0 0 1 1.292 0 .899.899 0 0 1 0 1.297l-3.783 3.795a.892.892 0 0 1-1.292 0zm15.774-7.273H33.97a.85.85 0 0 1-.944-.943.998.998 0 0 1 .944-.943h1.887V15.17H32.12v1.01a.976.976 0 0 1-1.954 0v-1.01H19.871v1.01a.981.981 0 0 1-1.963 0v-1.01h-3.756v3.736h16.044a.96.96 0 0 1 .943.943.91.91 0 0 1-.943.943H12.264v-6.47a1.087 1.087 0 0 1 1.076-1.078h4.568a.981.981 0 0 1 1.963 0h10.296a.981.981 0 0 1 1.963 0h4.54a1.087 1.087 0 0 1 1.076 1.079zm-1.627 2.117a.868.868 0 0 1 .673-.234.884.884 0 0 1 .944.976v12.064a1.087 1.087 0 0 1-1.076 1.077H13.34a1.087 1.087 0 0 1-1.076-1.077V23.618a.895.895 0 0 1 .944-.943.908.908 0 0 1 .943.968c.01 3.649.01 11.247.01 11.247H35.84s0-7.703.01-11.321a.868.868 0 0 1 .27-.66zM25 0C11.193 0 0 11.193 0 25s11.193 25 25 25 25-11.193 25-25S38.807 0 25 0z"/></svg>