<svg xmlns="http://www.w3.org/2000/svg" width="50" height="50"><path fill="#e4b07a" d="M25 0c13.807 0 25 11.193 25 25S38.807 50 25 50 0 38.807 0 25 11.193 0 25 0zm7.456 15.826a1.78 1.78 0 0 0-1.78 1.794 1.78 1.78 0 0 0 1.778 1.78 1.78 1.78 0 0 0 1.777-1.782 1.78 1.78 0 0 0-1.775-1.783zM25 29.56a4.55 4.55 0 1 1 4.55-4.55A4.55 4.55 0 0 1 25 29.55zm.005-11.996a7.448 7.448 0 0 0-7.45 7.446 7.448 7.448 0 0 0 7.45 7.445 7.448 7.448 0 0 0 7.45-7.445 7.457 7.457 0 0 0-7.45-7.455zm11.493 13.26a5.68 5.68 0 0 1-5.68 5.681H19.182a5.68 5.68 0 0 1-5.68-5.68V19.183a5.68 5.68 0 0 1 5.68-5.679h11.634a5.68 5.68 0 0 1 5.68 5.679zM19.18 10.608a8.582 8.582 0 0 0-8.573 8.573v11.63a8.582 8.582 0 0 0 8.573 8.573h11.63a8.582 8.582 0 0 0 8.573-8.573V19.18a8.584 8.584 0 0 0-8.573-8.573z"/></svg>