<svg xmlns="http://www.w3.org/2000/svg" width="50" height="50"><path fill="#f0c08d" d="M17.876 25.922a.472.472 0 0 1-.493-.463v-4.635a.472.472 0 0 1 .484-.457h3.468v-3.44a4.672 4.672 0 0 1 1.722-4.318 7.872 7.872 0 0 1 4.936-1.74h4.13a.472.472 0 0 1 .486.46v4.308a.472.472 0 0 1-.474.456h-2.861a1.267 1.267 0 0 0-1.522 1.337v2.942h4.374a.51.51 0 0 1 .363.154.435.435 0 0 1 .12.357l-.58 4.695a.474.474 0 0 1-.483.405H27.75v12.69a.472.472 0 0 1-.485.455h-5.6a.472.472 0 0 1-.487-.454V25.922zM0 25c0 13.807 11.193 25 25 25s25-11.193 25-25S38.807 0 25 0 0 11.193 0 25z"/></svg>