<svg xmlns="http://www.w3.org/2000/svg" width="53" height="41"><path fill="#e4af7a" d="M47 36.3c-.4 0-.7-.1-1-.4l-11.1-12c-.3-.3-.5-.9-.3-1.3.1-.5.5-.8 1-.9h.3c.4 0 .8.2 1 .5l11.1 12c.5.6.5 1.4-.1 1.9-.2.1-.6.2-.9.2zM5.698 36.4h-.3c-.5-.1-.9-.5-1-.9-.1-.5 0-1 .3-1.3l11.108-12c.3-.3.6-.5 1-.5h.3c.501.1.901.5 1.001.9.1.5 0 1-.3 1.3L6.7 35.9c-.3.3-.7.5-1 .5zM26.295 23.5c-.9 0-1.8-.3-2.6-.9L4.795 6.7c-.4-.3-.6-.8-.5-1.3.1-.5.4-.9.9-1 .2-.1.3-.1.5-.1.3 0 .6.1.9.3l19 15.9c.2.2.5.3.8.3.3 0 .6-.1.8-.3l19-15.9c.2-.2.6-.3.9-.3h.1c.4 0 .7.2.9.5.2.3.3.6.3 1s-.2.7-.5.9l-19 15.8c-.7.7-1.6 1-2.6 1z"/><path fill="#e4af7a" d="M49.6 2.7c.4 0 .4.1.4.2v34.6c0 .2-.2.4-.4.4H3.1c-.2 0-.4-.2-.4-.4V2.9c0-.1 0-.2.4-.2zM3.1 40.6h46.5c1.7 0 3.1-1.4 3.1-3.1V2.9c0-1.6-1.3-2.9-3.1-2.9H3.1C1.3 0 0 1.3 0 2.9v34.7c0 1.7 1.4 3.1 3.1 3.1z"/></svg>