<svg xmlns="http://www.w3.org/2000/svg" width="60" height="60"><path fill="#e4b07a" d="M40.499 43.832a9.241 9.241 0 0 0 1.313-12.196 11.562 11.562 0 0 0-6.622-3.647 175.635 175.635 0 0 0-3.169-.713c-1.46-.329-2.954-.657-4.46-1.03a7.742 7.742 0 0 1-4.063-2.096 4.001 4.001 0 0 1 .453-5.13 6.73 6.73 0 0 1 4.72-1.732h.283a9.294 9.294 0 0 1 6.044 1.812 10.53 10.53 0 0 1 1.517 1.483 5.76 5.76 0 0 0 1.89 1.62c.304.091.621.137.94.136a2.995 2.995 0 0 0 2.172-.85 2.68 2.68 0 0 0 .227-2.82 7.8 7.8 0 0 0-3.633-3.51 18.555 18.555 0 0 0-8.818-2.174 20.17 20.17 0 0 0-2.976.226 12.31 12.31 0 0 0-7.493 3.51 9.093 9.093 0 0 0-1.822 8.2 6.882 6.882 0 0 0 2.965 4.257 18.384 18.384 0 0 0 6.316 2.356l.52.136c1.166.305 2.389.611 3.475.883 1.041.26 2.128.532 3.203.815a4.897 4.897 0 0 1 3.43 2.616 4.408 4.408 0 0 1-.94 4.654 7.644 7.644 0 0 1-5.727 2.3h-.487a8.607 8.607 0 0 1-5.851-2.062 11.46 11.46 0 0 1-1.664-1.925 9.85 9.85 0 0 0-1.585-1.8 2.404 2.404 0 0 0-1.528-.499 2.549 2.549 0 0 0-2.546 1.755c-.351 1.62.475 3.534 2.218 5.096 2.547 2.276 6.316 3.465 11.194 3.545 4.595-.034 8.127-1.11 10.504-3.216zM35.82 53.866c-1.9.418-3.84.63-5.786.634a24.09 24.09 0 0 1-8.832-1.619A24.553 24.553 0 0 1 6.664 37.488a25.274 25.274 0 0 1-.532-13.322 13.863 13.863 0 0 1-2.468-7.72 12.773 12.773 0 0 1 3.75-9.056 12.782 12.782 0 0 1 9.067-3.733c1.374-.007 2.74.215 4.042.656 1.148.41 2.248.942 3.284 1.585l.373.215a27.41 27.41 0 0 1 5.809-.634 24.048 24.048 0 0 1 8.107 1.37 24.778 24.778 0 0 1 15.172 15.438 25.335 25.335 0 0 1 .612 13.526 15.285 15.285 0 0 1 2.366 6.112 12.803 12.803 0 0 1-3.11 10.083 12.812 12.812 0 0 1-9.628 4.325 12.19 12.19 0 0 1-3.227-.418 16.997 16.997 0 0 1-4.461-2.05zM43.535 60a16.405 16.405 0 0 0 16.143-13.2 16.7 16.7 0 0 0-1.834-11.423l-.136-.226.046-.26c.82-4.705.443-9.54-1.098-14.06A28.18 28.18 0 0 0 29.95 1.81a27.633 27.633 0 0 0-4.845.42l-.26.044-.239-.135a16.552 16.552 0 0 0-17.626.849 16.528 16.528 0 0 0-6.623 9.996 16.7 16.7 0 0 0 1.79 11.626l.135.238-.045.26a28.359 28.359 0 0 0 1.37 14.785A28.179 28.179 0 0 0 30.04 58.177a28.756 28.756 0 0 0 4.846-.407l.26-.046.238.136a16.255 16.255 0 0 0 8.15 2.14z"/></svg>