<svg xmlns="http://www.w3.org/2000/svg" width="40" height="64"><path fill="#e4af7a" d="M18.398 59.485c-1.027 0-1.798-.909-1.798-1.948 0-1.038.77-1.817 1.798-1.817h2.441c1.028 0 1.799.909 1.799 1.817 0 1.039-.771 1.948-1.799 1.948z"/><path fill="#e4af7a" d="M3.547 53.212h23.357c.979 0 1.712-.848 1.712-1.818 0-.849-.733-1.697-1.712-1.697H3.547V11.879H6.36c.978 0 1.712-.727 1.712-1.697 0-.97-.734-1.818-1.712-1.818H3.547V4c0-.242.245-.485.49-.485h31.916c.245 0 .49.243.49.485v4.364H13.086c-.979 0-1.712.848-1.712 1.818 0 .848.733 1.697 1.712 1.697h23.357v37.94H33.63c-.978 0-1.712.726-1.712 1.696s.734 1.818 1.712 1.818h2.813V60c0 .364-.245.606-.49.606H4.037c-.245 0-.49-.364-.49-.606zm.49 10.667h31.926c2.202 0 4.037-1.818 4.037-4V4c0-2.182-1.835-4-4.037-4H4.037C1.835 0 0 1.818 0 4v56c0 2.182 1.835 4 4.037 4z"/></svg>