<svg xmlns="http://www.w3.org/2000/svg" width="42" height="52"><path fill="#e4af7a" d="M20.617 29.4c-1.408 0-2.715-.3-4.022-.8-4.627-1.9-7.342-6.7-6.336-11.5 1.005-4.8 5.33-8.3 10.358-8.3.805 0 1.509.7 1.509 1.5s-.704 1.5-1.509 1.5c-3.62 0-6.738 2.5-7.442 5.9-.704 3.4 1.207 6.9 4.526 8.2.905.4 1.91.6 2.916.6 2.515 0 4.828-1.2 6.236-3.3 2.011-2.9 1.609-6.8-.905-9.2-.403-.4-.503-.9-.403-1.4.101-.5.503-.9 1.107-1.1h.402c.402 0 .805.2 1.106.4 3.52 3.5 4.124 8.9 1.308 13-2.012 2.8-5.33 4.5-8.85 4.5z"/><path fill="#e4af7a" d="M20.617 52c-1.307 0-3.017-1.6-4.123-3-1.71-2-4.224-5.1-6.638-8.5-2.514-3.3-4.727-6.8-6.738-10.5C1.106 26 0 22.7 0 20.1c0-2.7.503-5.3 1.61-7.8C4.826 4.8 12.37 0 20.616 0c2.716 0 5.431.5 8.046 1.6.503.2.804.7.905 1.2.1.5-.201 1-.603 1.4-.302.2-.604.3-.906.3-.2 0-.402 0-.603-.1-2.112-1-4.425-1.4-6.839-1.4-2.414 0-4.626.5-6.839 1.3C7.241 7 3.018 13.2 3.018 20.1c0 2.1.904 5 2.815 8.6 1.911 3.5 4.023 6.9 6.437 10.1 2.413 3.4 4.928 6.4 6.537 8.3.503.6 1.006 1.2 1.408 1.7.1.1.201.2.402.2s.302-.1.402-.2c.403-.5.906-1 1.408-1.7 1.61-1.9 4.023-4.9 6.538-8.3 2.413-3.2 4.525-6.6 6.436-10.1 1.911-3.6 2.816-6.4 2.816-8.6 0-4.6-1.81-8.9-5.129-12.1-.402-.4-.503-.9-.402-1.4.1-.6.503-1 1.005-1.1h.403c.402 0 .804.2 1.106.4 3.822 3.7 6.034 8.9 6.034 14.2 0 2.6-1.106 5.9-3.117 9.9-2.012 3.6-4.224 7.2-6.638 10.5-2.514 3.5-5.029 6.5-6.638 8.4l-.1.1c-1.61 2-3.018 3-4.124 3z"/></svg>