<?xml version="1.0" encoding="utf-8"?>
<!-- Generator: Adobe Illustrator 18.0.0, SVG Export Plug-In . SVG Version: 6.00 Build 0)  -->
<!DOCTYPE svg PUBLIC "-//W3C//DTD SVG 1.1//EN" "http://www.w3.org/Graphics/SVG/1.1/DTD/svg11.dtd">
<svg version="1.1" xmlns="http://www.w3.org/2000/svg" xmlns:xlink="http://www.w3.org/1999/xlink" x="0px" y="0px"
	 viewBox="0 0 15.4 15.8" style="enable-background:new 0 0 15.4 15.8;" xml:space="preserve">
<style type="text/css">
	.st0{fill:#FFFFFF;}
	.st1{fill:#0A6AB7;}
	.st2{fill:#ff614c;}
	.st3{fill:#00AEEF;}
	.st4{fill:#5F65B3;}
	.st5{opacity:0.62;}
	.st6{fill:none;stroke:#231F20;stroke-width:2;stroke-miterlimit:10;}
	.st7{fill:#FF614C;}
	.st8{fill:none;stroke:#A7A9AC;stroke-miterlimit:10;}
	.st9{fill:#F1F2F2;}
	.st10{fill:#FF6644;}
	.st11{fill:#FFCC00;}
	.st12{fill:none;stroke:#A7A9AC;stroke-width:2;stroke-miterlimit:10;}
	.st13{fill:url(#SVGID_1_);}
	.st14{fill:url(#SVGID_2_);}
	.st15{fill:url(#SVGID_3_);}
	.st16{opacity:0.62;fill:#231F20;}
	.st17{fill:url(#SVGID_4_);}
	.st18{fill:url(#SVGID_5_);}
	.st19{fill:none;stroke:#FFFFFF;stroke-width:4;stroke-linecap:round;stroke-miterlimit:10;}
	.st20{fill:none;stroke:#FFFFFF;stroke-width:2;stroke-miterlimit:10;}
	.st21{fill:none;stroke:#FFFFFF;stroke-width:4;stroke-miterlimit:10;}
	.st22{fill:none;stroke:#FF614C;stroke-width:4;stroke-linecap:round;stroke-miterlimit:10;}
	.st23{fill:none;stroke:#FF614C;stroke-width:4;stroke-miterlimit:10;}
	.st24{fill:none;stroke:#FF614C;stroke-width:2;stroke-miterlimit:10;}
	.st25{fill:none;stroke:#FF614C;stroke-width:2;stroke-linecap:round;stroke-miterlimit:10;}
	.st26{fill:none;stroke:#FF614C;stroke-width:4;stroke-linejoin:round;stroke-miterlimit:10;}
	.st27{fill:none;stroke:#FF614C;stroke-width:2;stroke-linejoin:round;stroke-miterlimit:10;}
	.st28{fill:#FFFFFF;stroke:#FF614C;stroke-width:4;stroke-linejoin:round;stroke-miterlimit:10;}
	.st29{fill:#FFFFFF;stroke:#FF614C;stroke-width:4;stroke-linecap:round;stroke-miterlimit:10;}
	.st30{fill:#E6E7E8;}
	.st31{fill:url(#SVGID_6_);}
	.st32{fill:url(#SVGID_7_);}
	.st33{fill:url(#SVGID_8_);}
	.st34{fill:url(#SVGID_9_);}
	.st35{fill:url(#SVGID_10_);}
	.st36{fill:url(#SVGID_11_);}
	.st37{fill:url(#SVGID_12_);}
	.st38{fill:url(#SVGID_13_);}
	.st39{fill:url(#SVGID_14_);}
	.st40{fill:url(#SVGID_15_);}
	.st41{fill:none;}
	.st42{fill:#3C4F9E;}
	.st43{display:none;}
	.st44{display:inline;}
	.st45{fill:#FFFFFF;stroke:#FF614C;stroke-width:2;stroke-linejoin:round;stroke-miterlimit:10;}
	.st46{fill:#FFFFFF;stroke:#FF614C;stroke-width:2;stroke-linecap:round;stroke-miterlimit:10;}
</style>
<g id="guides">
</g>
<g id="_x31_200">
	<g id="head">
		<g id="menu_2_">
			<g>
				<g>
					<path class="st2" d="M15.4,7.4C15,7,14.5,6.2,13.6,5.3c0.3-0.6,0-1.6-0.9-2.5c-0.9-0.9-1.9-1.2-2.5-0.9C9.2,1,8.3,0.4,7.7,0.1
						C7.6,0,7.5,0,7.4,0C7.2,0,6.9,0.1,6.8,0.4L4.1,5.8l-4,5.2c-0.2,0.3-0.2,0.6,0.1,0.9l3.5,3.5c0.1,0.1,0.3,0.2,0.5,0.2
						c0.1,0,0.3-0.1,0.4-0.2l3.1-2.5l2.7,2.7c0.1,0.1,0.3,0.2,0.5,0.2c0.2,0,0.3-0.1,0.5-0.2c0.3-0.3,0.3-0.7,0-0.9L8.7,12l1.1-0.9
						l5.3-2.7C15.5,8.2,15.6,7.8,15.4,7.4z M12.3,3.2c0.5,0.5,0.8,1.1,0.8,1.4c-0.4-0.4-0.8-0.8-1.2-1.2c-0.4-0.4-0.7-0.7-1.1-1
						C11.2,2.4,11.7,2.7,12.3,3.2z M4.2,14l-2.7-2.7L5,6.8l3.6,3.6L4.2,14z M9.2,9.9L9.2,9.9L5.4,6.2l2.3-4.6C8.5,2.2,9.6,3,11,4.4
						c1.3,1.3,2.2,2.4,2.8,3.2L9.2,9.9z"/>
				</g>
			</g>
		</g>
	</g>
</g>
<g id="_x33_20">
</g>
<g id="_x37_68">
</g>
<g id="icons">
</g>
</svg>
