<?xml version="1.0" encoding="utf-8"?>
<!-- Generator: Adobe Illustrator 18.0.0, SVG Export Plug-In . SVG Version: 6.00 Build 0)  -->
<!DOCTYPE svg PUBLIC "-//W3C//DTD SVG 1.1//EN" "http://www.w3.org/Graphics/SVG/1.1/DTD/svg11.dtd">
<svg version="1.1" xmlns="http://www.w3.org/2000/svg" xmlns:xlink="http://www.w3.org/1999/xlink" x="0px" y="0px"
	 viewBox="0 0 16 16" style="enable-background:new 0 0 16 16;" xml:space="preserve">
<style type="text/css">
	.st0{fill:#FFFFFF;}
	.st1{fill:#0A6AB7;}
	.st2{fill:#ff614c;}
	.st3{fill:#00AEEF;}
	.st4{fill:#5F65B3;}
	.st5{opacity:0.62;}
	.st6{fill:none;stroke:#231F20;stroke-width:2;stroke-miterlimit:10;}
	.st7{fill:#FF614C;}
	.st8{fill:none;stroke:#A7A9AC;stroke-miterlimit:10;}
	.st9{fill:#F1F2F2;}
	.st10{fill:#FF6644;}
	.st11{fill:#FFCC00;}
	.st12{fill:none;stroke:#A7A9AC;stroke-width:2;stroke-miterlimit:10;}
	.st13{fill:url(#SVGID_1_);}
	.st14{fill:url(#SVGID_2_);}
	.st15{fill:url(#SVGID_3_);}
	.st16{opacity:0.62;fill:#231F20;}
	.st17{fill:url(#SVGID_4_);}
	.st18{fill:url(#SVGID_5_);}
	.st19{fill:none;stroke:#FFFFFF;stroke-width:4;stroke-linecap:round;stroke-miterlimit:10;}
	.st20{fill:none;stroke:#FFFFFF;stroke-width:2;stroke-miterlimit:10;}
	.st21{fill:none;stroke:#FFFFFF;stroke-width:4;stroke-miterlimit:10;}
	.st22{fill:none;stroke:#FF614C;stroke-width:4;stroke-linecap:round;stroke-miterlimit:10;}
	.st23{fill:none;stroke:#FF614C;stroke-width:4;stroke-miterlimit:10;}
	.st24{fill:none;stroke:#FF614C;stroke-width:2;stroke-miterlimit:10;}
	.st25{fill:none;stroke:#FF614C;stroke-width:2;stroke-linecap:round;stroke-miterlimit:10;}
	.st26{fill:none;stroke:#FF614C;stroke-width:4;stroke-linejoin:round;stroke-miterlimit:10;}
	.st27{fill:none;stroke:#FF614C;stroke-width:2;stroke-linejoin:round;stroke-miterlimit:10;}
	.st28{fill:#FFFFFF;stroke:#FF614C;stroke-width:4;stroke-linejoin:round;stroke-miterlimit:10;}
	.st29{fill:#FFFFFF;stroke:#FF614C;stroke-width:4;stroke-linecap:round;stroke-miterlimit:10;}
	.st30{fill:#E6E7E8;}
	.st31{fill:url(#SVGID_6_);}
	.st32{fill:url(#SVGID_7_);}
	.st33{fill:url(#SVGID_8_);}
	.st34{fill:url(#SVGID_9_);}
	.st35{fill:url(#SVGID_10_);}
	.st36{fill:url(#SVGID_11_);}
	.st37{fill:url(#SVGID_12_);}
	.st38{fill:url(#SVGID_13_);}
	.st39{fill:url(#SVGID_14_);}
	.st40{fill:url(#SVGID_15_);}
	.st41{fill:none;}
	.st42{fill:#3C4F9E;}
	.st43{display:none;}
	.st44{display:inline;}
	.st45{fill:#FFFFFF;stroke:#FF614C;stroke-width:2;stroke-linejoin:round;stroke-miterlimit:10;}
	.st46{fill:#FFFFFF;stroke:#FF614C;stroke-width:2;stroke-linecap:round;stroke-miterlimit:10;}
</style>
<g id="guides">
</g>
<g id="_x31_200">
	<g id="head">
		<g id="menu_2_">
			<g>
				<path class="st2" d="M15.8,14.9l-4-4c0.9-1.1,1.5-2.6,1.5-4.2c0-3.7-3-6.7-6.7-6.7S0,3,0,6.7c0,3.7,3,6.7,6.7,6.7
					c1.6,0,3.1-0.6,4.2-1.5l4,4c0.1,0.1,0.3,0.2,0.5,0.2c0.2,0,0.3-0.1,0.5-0.2C16.1,15.5,16.1,15.1,15.8,14.9z M1.3,6.7
					c0-2.9,2.4-5.3,5.3-5.3S12,3.7,12,6.7S9.6,12,6.7,12S1.3,9.6,1.3,6.7z M10.4,4.7C10.3,4.7,10.3,4.7,10.4,4.7
					c-0.1,0-0.2,0-0.2-0.1C9.8,4.1,9.3,3.6,8.7,3.2C8.6,3.2,8.6,3.1,8.6,3c0-0.1,0.1-0.1,0.2-0.1c0.7,0.4,1.2,0.9,1.6,1.6
					C10.5,4.6,10.4,4.7,10.4,4.7z"/>
			</g>
		</g>
	</g>
</g>
<g id="_x33_20">
</g>
<g id="_x37_68">
</g>
<g id="icons">
</g>
</svg>
