<?xml version="1.0" encoding="utf-8"?>
<!-- Generator: Adobe Illustrator 18.0.0, SVG Export Plug-In . SVG Version: 6.00 Build 0)  -->
<!DOCTYPE svg PUBLIC "-//W3C//DTD SVG 1.1//EN" "http://www.w3.org/Graphics/SVG/1.1/DTD/svg11.dtd">
<svg version="1.1" xmlns="http://www.w3.org/2000/svg" xmlns:xlink="http://www.w3.org/1999/xlink" x="0px" y="0px"
	 viewBox="0 0 15.1 14.9" style="enable-background:new 0 0 15.1 14.9;" xml:space="preserve">
<style type="text/css">
	.st0{fill:#FFFFFF;}
	.st1{fill:#0A6AB7;}
	.st2{fill:#ff614c;}
	.st3{fill:#00AEEF;}
	.st4{fill:#5F65B3;}
	.st5{opacity:0.62;}
	.st6{fill:none;stroke:#231F20;stroke-width:2;stroke-miterlimit:10;}
	.st7{fill:#FF614C;}
	.st8{fill:none;stroke:#A7A9AC;stroke-miterlimit:10;}
	.st9{fill:#F1F2F2;}
	.st10{fill:#FF6644;}
	.st11{fill:#FFCC00;}
	.st12{fill:none;stroke:#A7A9AC;stroke-width:2;stroke-miterlimit:10;}
	.st13{fill:url(#SVGID_1_);}
	.st14{fill:url(#SVGID_2_);}
	.st15{fill:url(#SVGID_3_);}
	.st16{opacity:0.62;fill:#231F20;}
	.st17{fill:url(#SVGID_4_);}
	.st18{fill:url(#SVGID_5_);}
	.st19{fill:none;stroke:#FFFFFF;stroke-width:4;stroke-linecap:round;stroke-miterlimit:10;}
	.st20{fill:none;stroke:#FFFFFF;stroke-width:2;stroke-miterlimit:10;}
	.st21{fill:none;stroke:#FFFFFF;stroke-width:4;stroke-miterlimit:10;}
	.st22{fill:none;stroke:#FF614C;stroke-width:4;stroke-linecap:round;stroke-miterlimit:10;}
	.st23{fill:none;stroke:#FF614C;stroke-width:4;stroke-miterlimit:10;}
	.st24{fill:none;stroke:#FF614C;stroke-width:2;stroke-miterlimit:10;}
	.st25{fill:none;stroke:#FF614C;stroke-width:2;stroke-linecap:round;stroke-miterlimit:10;}
	.st26{fill:none;stroke:#FF614C;stroke-width:4;stroke-linejoin:round;stroke-miterlimit:10;}
	.st27{fill:none;stroke:#FF614C;stroke-width:2;stroke-linejoin:round;stroke-miterlimit:10;}
	.st28{fill:#FFFFFF;stroke:#FF614C;stroke-width:4;stroke-linejoin:round;stroke-miterlimit:10;}
	.st29{fill:#FFFFFF;stroke:#FF614C;stroke-width:4;stroke-linecap:round;stroke-miterlimit:10;}
	.st30{fill:#E6E7E8;}
	.st31{fill:url(#SVGID_6_);}
	.st32{fill:url(#SVGID_7_);}
	.st33{fill:url(#SVGID_8_);}
	.st34{fill:url(#SVGID_9_);}
	.st35{fill:url(#SVGID_10_);}
	.st36{fill:url(#SVGID_11_);}
	.st37{fill:url(#SVGID_12_);}
	.st38{fill:url(#SVGID_13_);}
	.st39{fill:url(#SVGID_14_);}
	.st40{fill:url(#SVGID_15_);}
	.st41{fill:none;}
	.st42{fill:#3C4F9E;}
	.st43{display:none;}
	.st44{display:inline;}
	.st45{fill:#FFFFFF;stroke:#FF614C;stroke-width:2;stroke-linejoin:round;stroke-miterlimit:10;}
	.st46{fill:#FFFFFF;stroke:#FF614C;stroke-width:2;stroke-linecap:round;stroke-miterlimit:10;}
</style>
<g id="guides">
</g>
<g id="_x31_200">
	<g id="head">
		<g id="menu_2_">
			<g>
				<g>
					<path class="st2" d="M14.9,12.1L7.7,4.9l2.2-2.2c0.3-0.3,0.3-0.7,0-0.9L8.4,0.2C8.2,0.1,8.1,0,7.9,0C7.8,0,7.7,0,7.6,0L4.7,1.2l0,0L0.2,5.7
						c-0.3,0.3-0.3,0.7,0,0.9l2.4,2.4c0.1,0.1,0.3,0.2,0.5,0.2c0.2,0,0.3-0.1,0.5-0.2l1.5-1.5l7.2,7.2c0.1,0.1,0.3,0.2,0.5,0.2
						c0.2,0,0.3-0.1,0.5-0.2l1.7-1.7C15.2,12.8,15.2,12.3,14.9,12.1z M3.1,7.7L1.6,6.2l3.9-3.9l2.3-0.9l0.8,0.8L3.1,7.7z M12.7,13.3
						L6,6.6l0.8-0.8l6.7,6.7L12.7,13.3z M5.6,2.8L5.8,3l-1,1L4.6,3.8L5.6,2.8z"/>
				</g>
			</g>
		</g>
	</g>
</g>
<g id="_x33_20">
</g>
<g id="_x37_68">
</g>
<g id="icons">
</g>
</svg>
