<svg xmlns="http://www.w3.org/2000/svg" width="25" height="26" viewBox="0 0 25 26">
  <metadata><?xpacket begin="﻿" id="W5M0MpCehiHzreSzNTczkc9d"?>
<x:xmpmeta xmlns:x="adobe:ns:meta/" x:xmptk="Adobe XMP Core 5.6-c138 79.159824, 2016/09/14-01:09:01        ">
   <rdf:RDF xmlns:rdf="http://www.w3.org/1999/02/22-rdf-syntax-ns#">
      <rdf:Description rdf:about=""/>
   </rdf:RDF>
</x:xmpmeta>
                                                                                                    
                                                                                                    
                                                                                                    
                                                                                                    
                                                                                                    
                                                                                                    
                                                                                                    
                                                                                                    
                                                                                                    
                                                                                                    
                                                                                                    
                                                                                                    
                                                                                                    
                                                                                                    
                                                                                                    
                                                                                                    
                                                                                                    
                                                                                                    
                                                                                                    
                                                                                                    
                           
<?xpacket end="w"?></metadata>
<defs>
    <style>
      .cls-1 {
        fill: #231f20;
        fill-rule: evenodd;
      }
    </style>
  </defs>
  <path class="cls-1" d="M20.953,15.72a1.937,1.937,0,0,0-2.929,0c-0.685.678-1.37,1.358-2.043,2.048a0.4,0.4,0,0,1-.564.1c-0.443-.242-0.915-0.437-1.341-0.7a21.245,21.245,0,0,1-5.121-4.661A12.148,12.148,0,0,1,7.12,9.568a0.422,0.422,0,0,1,.1-0.541c0.685-.662,1.352-1.34,2.026-2.02a1.944,1.944,0,0,0-.006-3C8.708,3.468,8.173,2.939,7.637,2.4,7.085,1.845,6.538,1.287,5.98.741A1.951,1.951,0,0,0,3.051.746C2.361,1.426,1.7,2.121,1,2.789A3.335,3.335,0,0,0-.05,5.039a9.53,9.53,0,0,0,.737,4.1,24.923,24.923,0,0,0,4.425,7.372,27.386,27.386,0,0,0,9.069,7.1A13.135,13.135,0,0,0,19.2,25.071a3.683,3.683,0,0,0,3.159-1.2c0.587-.656,1.249-1.255,1.87-1.882a1.958,1.958,0,0,0,.012-2.981Q22.6,17.357,20.953,15.72Z"/>
</svg>
