<?xml version="1.0" encoding="utf-8"?>
<!-- Generator: Adobe Illustrator 17.1.0, SVG Export Plug-In . SVG Version: 6.00 Build 0)  -->
<!DOCTYPE svg PUBLIC "-//W3C//DTD SVG 1.1//EN" "http://www.w3.org/Graphics/SVG/1.1/DTD/svg11.dtd">
<svg version="1.1" id="Layer_1" xmlns="http://www.w3.org/2000/svg" xmlns:xlink="http://www.w3.org/1999/xlink" x="0px" y="0px"
	 viewBox="0 0 12 20" style="enable-background:new 0 0 12 20;" xml:space="preserve">
<style type="text/css">
	.st0{fill:#1D1D1B;}
</style>
<path class="st0" d="M6,2c2.2,0,4,1.8,4,4c0,3.2-2.2,7.6-4,10.4C4.2,13.6,2,9.2,2,6C2,3.8,3.8,2,6,2 M6,0C2.7,0,0,2.7,0,6
	c0,6,6,14,6,14s6-8,6-14C12,2.7,9.3,0,6,0L6,0z M8,6c0-1.1-0.9-2-2-2S4,4.9,4,6s0.9,2,2,2S8,7.1,8,6z"/>
</svg>
