<?xml version="1.0" encoding="utf-8"?>
<!-- Generator: Adobe Illustrator 18.0.0, SVG Export Plug-In . SVG Version: 6.00 Build 0)  -->
<!DOCTYPE svg PUBLIC "-//W3C//DTD SVG 1.1//EN" "http://www.w3.org/Graphics/SVG/1.1/DTD/svg11.dtd">
<svg version="1.1" xmlns="http://www.w3.org/2000/svg" xmlns:xlink="http://www.w3.org/1999/xlink" x="0px" y="0px"
	 viewBox="0 0 16 16" style="enable-background:new 0 0 16 16;" xml:space="preserve">
<style type="text/css">
	.st0{fill:#FFFFFF;}
	.st1{fill:#0A6AB7;}
	.st2{fill:#ff614c;}
	.st3{fill:#00AEEF;}
	.st4{fill:#5F65B3;}
	.st5{opacity:0.62;}
	.st6{fill:none;stroke:#231F20;stroke-width:2;stroke-miterlimit:10;}
	.st7{fill:#FF614C;}
	.st8{fill:none;stroke:#A7A9AC;stroke-miterlimit:10;}
	.st9{fill:#F1F2F2;}
	.st10{fill:#FF6644;}
	.st11{fill:#FFCC00;}
	.st12{fill:none;stroke:#A7A9AC;stroke-width:2;stroke-miterlimit:10;}
	.st13{fill:url(#SVGID_1_);}
	.st14{fill:url(#SVGID_2_);}
	.st15{fill:url(#SVGID_3_);}
	.st16{opacity:0.62;fill:#231F20;}
	.st17{fill:url(#SVGID_4_);}
	.st18{fill:url(#SVGID_5_);}
	.st19{fill:none;stroke:#FFFFFF;stroke-width:4;stroke-linecap:round;stroke-miterlimit:10;}
	.st20{fill:none;stroke:#FFFFFF;stroke-width:2;stroke-miterlimit:10;}
	.st21{fill:none;stroke:#FFFFFF;stroke-width:4;stroke-miterlimit:10;}
	.st22{fill:none;stroke:#FF614C;stroke-width:4;stroke-linecap:round;stroke-miterlimit:10;}
	.st23{fill:none;stroke:#FF614C;stroke-width:4;stroke-miterlimit:10;}
	.st24{fill:none;stroke:#FF614C;stroke-width:2;stroke-miterlimit:10;}
	.st25{fill:none;stroke:#FF614C;stroke-width:2;stroke-linecap:round;stroke-miterlimit:10;}
	.st26{fill:none;stroke:#FF614C;stroke-width:4;stroke-linejoin:round;stroke-miterlimit:10;}
	.st27{fill:none;stroke:#FF614C;stroke-width:2;stroke-linejoin:round;stroke-miterlimit:10;}
	.st28{fill:#FFFFFF;stroke:#FF614C;stroke-width:4;stroke-linejoin:round;stroke-miterlimit:10;}
	.st29{fill:#FFFFFF;stroke:#FF614C;stroke-width:4;stroke-linecap:round;stroke-miterlimit:10;}
	.st30{fill:#E6E7E8;}
	.st31{fill:url(#SVGID_6_);}
	.st32{fill:url(#SVGID_7_);}
	.st33{fill:url(#SVGID_8_);}
	.st34{fill:url(#SVGID_9_);}
	.st35{fill:url(#SVGID_10_);}
	.st36{fill:url(#SVGID_11_);}
	.st37{fill:url(#SVGID_12_);}
	.st38{fill:url(#SVGID_13_);}
	.st39{fill:url(#SVGID_14_);}
	.st40{fill:url(#SVGID_15_);}
	.st41{fill:none;}
	.st42{fill:#3C4F9E;}
	.st43{display:none;}
	.st44{display:inline;}
	.st45{fill:#FFFFFF;stroke:#FF614C;stroke-width:2;stroke-linejoin:round;stroke-miterlimit:10;}
	.st46{fill:#FFFFFF;stroke:#FF614C;stroke-width:2;stroke-linecap:round;stroke-miterlimit:10;}
</style>
<g id="guides">
</g>
<g id="_x31_200">
	<g id="head">
		<g id="menu_2_">
			<g>
				<path class="st2" d="M16,8c0,4.4-3.6,8-8,8s-8-3.6-8-8c0-4.4,3.6-8,8-8c1.4,0,2.7,0.4,3.9,1l-1,1C10,1.6,9,1.3,8,1.3c-3.7,0-6.7,3-6.7,6.7
					s3,6.7,6.7,6.7s6.7-3,6.7-6.7c0-1-0.2-2-0.7-2.9l1-1C15.6,5.3,16,6.6,16,8z M3.3,8c0,2.6,2.1,4.7,4.7,4.7s4.7-2.1,4.7-4.7
					c0-0.8-0.2-1.6-0.6-2.2l-1,1c0.1,0.4,0.2,0.8,0.2,1.2c0,1.8-1.5,3.3-3.3,3.3S4.7,9.8,4.7,8S6.2,4.7,8,4.7c0.4,0,0.8,0.1,1.2,0.2
					l1-1C9.6,3.5,8.8,3.3,8,3.3C5.4,3.3,3.3,5.4,3.3,8z M15.7,2H14V0.3L11.3,3v1.2L7.8,7.8l0.5,0.5l3.6-3.6H13L15.7,2z M9.3,8
					c0-0.7-0.6-1.3-1.3-1.3S6.7,7.3,6.7,8S7.3,9.3,8,9.3S9.3,8.7,9.3,8z"/>
			</g>
		</g>
	</g>
</g>
<g id="_x33_20">
</g>
<g id="_x37_68">
</g>
<g id="icons">
</g>
</svg>
