<?xml version="1.0" encoding="utf-8"?>
<!-- Generator: Adobe Illustrator 18.0.0, SVG Export Plug-In . SVG Version: 6.00 Build 0)  -->
<!DOCTYPE svg PUBLIC "-//W3C//DTD SVG 1.1//EN" "http://www.w3.org/Graphics/SVG/1.1/DTD/svg11.dtd">
<svg version="1.1" xmlns="http://www.w3.org/2000/svg" xmlns:xlink="http://www.w3.org/1999/xlink" x="0px" y="0px"
	 viewBox="0 0 16 16" style="enable-background:new 0 0 16 16;" xml:space="preserve">
<style type="text/css">
	.st0{fill:#FFFFFF;}
	.st1{fill:#0A6AB7;}
	.st2{fill:#ff614c;}
	.st3{fill:#00AEEF;}
	.st4{fill:#5F65B3;}
	.st5{opacity:0.62;}
	.st6{fill:none;stroke:#231F20;stroke-width:2;stroke-miterlimit:10;}
	.st7{fill:#FF614C;}
	.st8{fill:none;stroke:#A7A9AC;stroke-miterlimit:10;}
	.st9{fill:#F1F2F2;}
	.st10{fill:#FF6644;}
	.st11{fill:#FFCC00;}
	.st12{fill:none;stroke:#A7A9AC;stroke-width:2;stroke-miterlimit:10;}
	.st13{fill:url(#SVGID_1_);}
	.st14{fill:url(#SVGID_2_);}
	.st15{fill:url(#SVGID_3_);}
	.st16{opacity:0.62;fill:#231F20;}
	.st17{fill:url(#SVGID_4_);}
	.st18{fill:url(#SVGID_5_);}
	.st19{fill:none;stroke:#FFFFFF;stroke-width:4;stroke-linecap:round;stroke-miterlimit:10;}
	.st20{fill:none;stroke:#FFFFFF;stroke-width:2;stroke-miterlimit:10;}
	.st21{fill:none;stroke:#FFFFFF;stroke-width:4;stroke-miterlimit:10;}
	.st22{fill:none;stroke:#FF614C;stroke-width:4;stroke-linecap:round;stroke-miterlimit:10;}
	.st23{fill:none;stroke:#FF614C;stroke-width:4;stroke-miterlimit:10;}
	.st24{fill:none;stroke:#FF614C;stroke-width:2;stroke-miterlimit:10;}
	.st25{fill:none;stroke:#FF614C;stroke-width:2;stroke-linecap:round;stroke-miterlimit:10;}
	.st26{fill:none;stroke:#FF614C;stroke-width:4;stroke-linejoin:round;stroke-miterlimit:10;}
	.st27{fill:none;stroke:#FF614C;stroke-width:2;stroke-linejoin:round;stroke-miterlimit:10;}
	.st28{fill:#FFFFFF;stroke:#FF614C;stroke-width:4;stroke-linejoin:round;stroke-miterlimit:10;}
	.st29{fill:#FFFFFF;stroke:#FF614C;stroke-width:4;stroke-linecap:round;stroke-miterlimit:10;}
	.st30{fill:#E6E7E8;}
	.st31{fill:url(#SVGID_6_);}
	.st32{fill:url(#SVGID_7_);}
	.st33{fill:url(#SVGID_8_);}
	.st34{fill:url(#SVGID_9_);}
	.st35{fill:url(#SVGID_10_);}
	.st36{fill:url(#SVGID_11_);}
	.st37{fill:url(#SVGID_12_);}
	.st38{fill:url(#SVGID_13_);}
	.st39{fill:url(#SVGID_14_);}
	.st40{fill:url(#SVGID_15_);}
	.st41{fill:none;}
	.st42{fill:#3C4F9E;}
	.st43{display:none;}
	.st44{display:inline;}
	.st45{fill:#FFFFFF;stroke:#FF614C;stroke-width:2;stroke-linejoin:round;stroke-miterlimit:10;}
	.st46{fill:#FFFFFF;stroke:#FF614C;stroke-width:2;stroke-linecap:round;stroke-miterlimit:10;}
</style>
<g id="guides">
</g>
<g id="_x31_200">
	<g id="head">
		<g id="menu_2_">
			<g>
				<path class="st2" d="M5.9,1.4l0.2,0.4l0.4,0.8l0.9-0.1c0.2,0,0.4,0,0.6,0c0.2,0,0.4,0,0.6,0l0.9,0.1l0.4-0.8l0.2-0.4
					c0.2,0.1,0.3,0.1,0.5,0.2c0.2,0.1,0.3,0.1,0.5,0.2L11,2.3l-0.2,0.8l0.7,0.5c0.3,0.2,0.6,0.5,0.8,0.8l0.5,0.7L13.7,5l0.4-0.1
					c0.1,0.2,0.2,0.3,0.2,0.5c0.1,0.2,0.1,0.3,0.2,0.5l-0.4,0.2l-0.8,0.4l0.1,0.9c0,0.4,0,0.8,0,1.2l-0.1,0.9l0.8,0.4l0.4,0.2
					c-0.1,0.2-0.1,0.3-0.2,0.5c-0.1,0.2-0.1,0.3-0.2,0.5L13.7,11l-0.8-0.2l-0.5,0.7c-0.2,0.3-0.5,0.6-0.8,0.8l-0.7,0.5l0.2,0.8
					l0.1,0.4c-0.2,0.1-0.3,0.2-0.5,0.2c-0.2,0.1-0.3,0.1-0.5,0.2l-0.2-0.4l-0.4-0.8l-0.9,0.1c-0.2,0-0.4,0-0.6,0c-0.2,0-0.4,0-0.6,0
					l-0.9-0.1l-0.4,0.8l-0.2,0.4c-0.2-0.1-0.3-0.1-0.5-0.2c-0.2-0.1-0.3-0.1-0.5-0.2L5,13.7l0.2-0.8l-0.7-0.5
					c-0.3-0.2-0.6-0.5-0.8-0.8l-0.5-0.7L2.3,11l-0.4,0.1c-0.1-0.2-0.2-0.3-0.2-0.5c-0.1-0.2-0.1-0.3-0.2-0.5l0.4-0.2l0.8-0.4
					L2.5,8.6c0-0.4,0-0.8,0-1.2l0.1-0.9L1.8,6.1L1.4,5.9c0.1-0.2,0.1-0.3,0.2-0.5C1.7,5.2,1.8,5,1.9,4.9L2.3,5l0.8,0.2l0.5-0.7
					C3.9,4.2,4.2,4,4.5,3.7l0.7-0.5L5,2.3L4.9,1.9C5,1.8,5.2,1.7,5.4,1.6C5.5,1.6,5.7,1.5,5.9,1.4 M6.2,0C6.1,0,6.1,0,6,0
					C5.6,0.1,5.2,0.2,4.9,0.4C4.5,0.6,4.1,0.7,3.8,1C3.5,1.1,3.4,1.4,3.5,1.7l0.3,0.9C3.3,3,3,3.3,2.7,3.7L1.7,3.5
					c-0.1,0-0.1,0-0.2,0C1.3,3.4,1.1,3.6,1,3.8C0.7,4.1,0.6,4.5,0.4,4.9l0,0C0.2,5.2,0.1,5.6,0,6c-0.1,0.3,0.1,0.6,0.3,0.8l0.8,0.5
					c-0.1,0.5-0.1,1,0,1.5L0.3,9.2C0.1,9.4-0.1,9.7,0,10c0.1,0.4,0.2,0.8,0.4,1.2c0.2,0.4,0.3,0.7,0.6,1.1c0.1,0.2,0.3,0.3,0.6,0.3
					c0.1,0,0.1,0,0.2,0l0.9-0.3c0.3,0.4,0.7,0.7,1,1.1l-0.3,0.9c-0.1,0.3,0,0.6,0.3,0.8c0.3,0.2,0.7,0.4,1.1,0.6l0,0
					C5.2,15.8,5.6,15.9,6,16c0.1,0,0.1,0,0.2,0c0.2,0,0.5-0.1,0.6-0.3l0.5-0.8c0.2,0,0.5,0,0.7,0c0.3,0,0.5,0,0.8,0l0.5,0.9
					C9.3,15.9,9.6,16,9.8,16c0.1,0,0.1,0,0.2,0c0.4-0.1,0.8-0.2,1.2-0.4c0.4-0.2,0.7-0.3,1.1-0.6c0.3-0.2,0.4-0.5,0.3-0.8l-0.3-0.9
					c0.4-0.3,0.7-0.7,1.1-1l0.9,0.3c0.1,0,0.1,0,0.2,0c0.2,0,0.5-0.1,0.6-0.3c0.2-0.3,0.4-0.7,0.6-1.1l0,0c0.2-0.4,0.3-0.8,0.4-1.2
					c0.1-0.3-0.1-0.6-0.3-0.8l-0.8-0.5c0.1-0.5,0.1-1,0-1.5l0.9-0.5C15.9,6.6,16.1,6.3,16,6c-0.1-0.4-0.2-0.8-0.4-1.2
					c-0.2-0.4-0.3-0.7-0.6-1.1c-0.1-0.2-0.3-0.3-0.6-0.3c-0.1,0-0.1,0-0.2,0l-0.9,0.3c-0.3-0.4-0.7-0.7-1-1.1l0.3-0.9
					c0.1-0.3,0-0.6-0.3-0.8c-0.3-0.2-0.7-0.4-1.1-0.6l0,0C10.8,0.2,10.4,0.1,10,0C9.9,0,9.9,0,9.8,0C9.6,0,9.3,0.1,9.2,0.3L8.7,1.2
					c-0.2,0-0.5,0-0.7,0c-0.3,0-0.5,0-0.8,0L6.8,0.3C6.7,0.1,6.4,0,6.2,0L6.2,0z M8,6.7c0.7,0,1.3,0.6,1.3,1.3
					c0,0.7-0.6,1.3-1.3,1.3S6.7,8.7,6.7,8C6.7,7.3,7.3,6.7,8,6.7 M8,5.3C6.5,5.3,5.3,6.5,5.3,8s1.2,2.7,2.7,2.7s2.7-1.2,2.7-2.7
					S9.5,5.3,8,5.3L8,5.3z M11.7,6.1c0.1,0,0.1-0.1,0.1-0.2c-0.4-0.7-0.9-1.2-1.6-1.6c-0.1,0-0.2,0-0.2,0.1c0,0.1,0,0.2,0.1,0.2
					c0.6,0.4,1.1,0.9,1.5,1.5C11.5,6.1,11.6,6.1,11.7,6.1C11.6,6.1,11.7,6.1,11.7,6.1z"/>
			</g>
		</g>
	</g>
</g>
<g id="_x33_20">
</g>
<g id="_x37_68">
</g>
<g id="icons">
</g>
</svg>
