<?xml version="1.0" encoding="utf-8"?>
<!-- Generator: Adobe Illustrator 17.1.0, SVG Export Plug-In . SVG Version: 6.00 Build 0)  -->
<!DOCTYPE svg PUBLIC "-//W3C//DTD SVG 1.1//EN" "http://www.w3.org/Graphics/SVG/1.1/DTD/svg11.dtd">
<svg version="1.1" id="Layer_1" xmlns="http://www.w3.org/2000/svg" xmlns:xlink="http://www.w3.org/1999/xlink" x="0px" y="0px"
	 viewBox="0 0 64 64" style="enable-background:new 0 0 64 64;" xml:space="preserve">
<style type="text/css">
	.st0{fill:#FF614A;}
</style>
<path class="st0" d="M60,32c0.4-0.3,0.7-0.6,1.1-0.9c3.9-3.9,3.9-10.2,0-14.1c-0.4-0.4-0.8-0.7-1.2-1.1c0.1-0.6,0.2-1.2,0.2-1.9
	c0-5.5-4.5-10-10-10c-0.6,0-1.3,0.1-1.9,0.2c-0.3-0.4-0.7-0.9-1.1-1.2C45.2,1,42.7,0,40,0s-5.2,1-7.1,2.9C32.6,3.3,32.3,3.6,32,4
	c-0.3-0.4-0.6-0.7-0.9-1.1C27.2-1,20.8-1,16.9,2.9c-0.4,0.4-0.8,0.8-1.1,1.3C15.3,4.1,14.6,4,14,4C8.5,4,4,8.5,4,14
	c0,0.6,0.1,1.3,0.2,1.9c-0.4,0.3-0.9,0.7-1.2,1.1C1,18.8,0,21.3,0,24s1,5.2,2.9,7.1C3.3,31.4,3.6,31.7,4,32
	c-0.4,0.3-0.7,0.6-1.1,0.9C1,34.8,0,37.3,0,40s1,5.2,2.9,7.1c0.4,0.4,0.8,0.7,1.2,1.1C4.1,48.7,4,49.4,4,50c0,5.5,4.5,10,10,10
	c0.6,0,1.3-0.1,1.9-0.2c0.3,0.4,0.7,0.9,1.1,1.2C18.8,63,21.3,64,24,64s5.2-1,7.1-2.9c0.3-0.3,0.6-0.7,0.9-1.1
	c0.3,0.4,0.6,0.7,0.9,1.1C34.8,63,37.3,64,40,64s5.2-1,7.1-2.9c0.4-0.4,0.7-0.8,1.1-1.2c0.6,0.1,1.2,0.2,1.9,0.2c5.5,0,10-4.5,10-10
	c0-0.6-0.1-1.3-0.2-1.9c0.4-0.3,0.9-0.7,1.2-1.1c3.9-3.9,3.9-10.2,0-14.1C60.7,32.6,60.4,32.3,60,32z M40,4c1.6,0,3.1,0.6,4.2,1.8
	c1.7,1.7,2.1,4.1,1.4,6.3c-0.2,0-0.4,0-0.6,0c-1.1,0-2,0.9-2,2s0.9,2,2,2c2.2,0,4,1.8,4,4c0,1.1,0.9,2,2,2s2-0.9,2-2
	c0-2.8-1.4-5.2-3.6-6.7c0.6-1.7,0.7-3.6,0.4-5.3c0.1,0,0.1,0,0.2,0c3.3,0,6,2.7,6,6c0,0.7-0.1,1.4-0.4,2.1c0,0,0,0.1,0,0.1
	c0,0.1,0,0.1,0,0.2c0,0.1,0,0.2,0,0.2c0,0,0,0.1,0,0.1c0,0.1,0,0.2,0,0.3c0,0,0,0.1,0,0.1c0,0.1,0,0.2,0.1,0.3c0,0,0,0.1,0,0.1
	c0,0.1,0.1,0.2,0.1,0.3c0,0,0,0,0,0.1c0.1,0.1,0.1,0.2,0.2,0.3c0,0,0,0,0,0c0.1,0.1,0.2,0.2,0.2,0.2c0,0,0,0,0,0
	c0.1,0.1,0.2,0.1,0.3,0.2c0,0,0,0,0,0c0.6,0.3,1.1,0.7,1.6,1.2c2.3,2.3,2.3,6.1,0,8.5C57.1,29.4,55.6,30,54,30h-4.5
	c-1.3-4-5.1-6.8-9.5-6.8h-6V10c0-1.6,0.6-3.1,1.8-4.2C36.9,4.6,38.4,4,40,4z M5.8,19.8c0.5-0.5,1-0.9,1.6-1.2c0,0,0,0,0,0
	c0.1-0.1,0.2-0.1,0.3-0.2c0,0,0,0,0,0c0.1-0.1,0.2-0.1,0.2-0.2c0,0,0,0,0-0.1c0.1-0.1,0.1-0.2,0.2-0.2c0,0,0,0,0-0.1
	c0-0.1,0.1-0.2,0.1-0.3c0,0,0-0.1,0-0.1c0-0.1,0-0.2,0.1-0.3c0,0,0-0.1,0-0.1c0-0.1,0-0.2,0-0.2c0-0.1,0-0.1,0-0.2
	c0-0.1,0-0.1,0-0.2c0-0.1,0-0.1,0-0.2c0,0,0-0.1,0-0.1C8.1,15.4,8,14.7,8,14c0-3.3,2.7-6,6-6c0.1,0,0.1,0,0.2,0
	c-0.4,1.8-0.2,3.6,0.4,5.3C12.4,14.8,11,17.2,11,20c0,1.1,0.9,2,2,2s2-0.9,2-2c0-2.2,1.8-4,4-4c1.1,0,2-0.9,2-2s-0.9-2-2-2
	c-0.2,0-0.4,0-0.6,0c-0.6-1.5-0.5-3.1,0.2-4.5c0,0,0-0.1,0.1-0.1c0.3-0.6,0.7-1.1,1.1-1.6c2.4-2.3,6.2-2.3,8.5,0
	C29.4,6.9,30,8.4,30,10v26.8h-6c-3.3,0-6-2.7-6-6c0-1.6,0.6-3.1,1.8-4.2c0.8-0.8,0.8-2,0-2.8c-0.8-0.8-2-0.8-2.8,0
	c-1.7,1.7-2.7,3.9-2.9,6.2h-4c-1.6,0-3.1-0.6-4.2-1.8C4.6,27.1,4,25.6,4,24S4.6,20.9,5.8,19.8z M24,60c-1.6,0-3.1-0.6-4.2-1.8
	c-1.7-1.7-2.1-4.1-1.4-6.3c0.2,0,0.4,0,0.6,0c1.1,0,2-0.9,2-2s-0.9-2-2-2c-2.2,0-4-1.8-4-4c0-1.1-0.9-2-2-2s-2,0.9-2,2
	c0,2.8,1.4,5.2,3.6,6.7c-0.6,1.7-0.7,3.6-0.4,5.3c-0.1,0-0.1,0-0.2,0c-3.3,0-6-2.7-6-6c0-0.7,0.1-1.4,0.4-2.1c0,0,0-0.1,0-0.1
	c0-0.1,0-0.1,0-0.2c0-0.1,0-0.1,0-0.2c0-0.1,0-0.1,0-0.2c0-0.1,0-0.2,0-0.2c0,0,0-0.1,0-0.1c0-0.1,0-0.2-0.1-0.2c0,0,0-0.1,0-0.1
	c0-0.1-0.1-0.2-0.1-0.2c0,0,0-0.1-0.1-0.1c0-0.1-0.1-0.1-0.2-0.2c0,0-0.1-0.1-0.1-0.1c-0.1-0.1-0.1-0.1-0.2-0.2c0,0-0.1-0.1-0.1-0.1
	c-0.1-0.1-0.2-0.1-0.2-0.1c0,0,0,0-0.1,0c-0.6-0.3-1.1-0.7-1.6-1.2C4.6,43.1,4,41.6,4,40s0.6-3.1,1.8-4.2S8.4,34,10,34h4.5
	c1.3,4,5.1,6.8,9.5,6.8h6V54c0,1.6-0.6,3.1-1.8,4.2C27.1,59.4,25.6,60,24,60z M58.2,44.2c-0.5,0.5-1,0.9-1.6,1.2c0,0,0,0,0,0
	c-0.1,0.1-0.2,0.1-0.3,0.2c0,0,0,0,0,0c-0.1,0.1-0.2,0.1-0.2,0.2c0,0,0,0,0,0c-0.1,0.1-0.1,0.2-0.2,0.3c0,0,0,0,0,0.1
	c0,0.1-0.1,0.2-0.1,0.3c0,0,0,0.1,0,0.1c0,0.1-0.1,0.2-0.1,0.3c0,0,0,0.1,0,0.1c0,0.1,0,0.2,0,0.3c0,0,0,0.1,0,0.1
	c0,0.1,0,0.1,0,0.2c0,0.1,0,0.1,0,0.2c0,0,0,0.1,0,0.1c0.3,0.7,0.4,1.4,0.4,2.1c0,3.3-2.7,6-6,6c-0.1,0-0.1,0-0.2,0
	c0.4-1.8,0.2-3.6-0.4-5.3c2.2-1.4,3.6-3.9,3.6-6.7c0-1.1-0.9-2-2-2s-2,0.9-2,2c0,2.2-1.8,4-4,4c-1.1,0-2,0.9-2,2s0.9,2,2,2
	c0.2,0,0.4,0,0.6,0c0.8,2.1,0.3,4.6-1.4,6.3C43.1,59.4,41.6,60,40,60s-3.1-0.6-4.2-1.8S34,55.6,34,54c0,0,0,0,0,0c0,0,0,0,0,0V27.2
	h6c3.3,0,6,2.7,6,6c0,1.6-0.6,3.1-1.8,4.2c-0.8,0.8-0.8,2,0,2.8c0.4,0.4,0.9,0.6,1.4,0.6c0.5,0,1-0.2,1.4-0.6
	c1.7-1.7,2.7-3.9,2.9-6.2h4c1.6,0,3.1,0.6,4.2,1.8C60.6,38.1,60.6,41.9,58.2,44.2z"/>
</svg>
