<?xml version="1.0" encoding="utf-8"?>
<!-- Generator: Adobe Illustrator 17.1.0, SVG Export Plug-In . SVG Version: 6.00 Build 0)  -->
<!DOCTYPE svg PUBLIC "-//W3C//DTD SVG 1.1//EN" "http://www.w3.org/Graphics/SVG/1.1/DTD/svg11.dtd">
<svg version="1.1" id="Layer_1" xmlns="http://www.w3.org/2000/svg" xmlns:xlink="http://www.w3.org/1999/xlink" x="0px" y="0px"
	 viewBox="0 0 64 64" style="enable-background:new 0 0 64 64;" xml:space="preserve">
<style type="text/css">
	.st0{fill:#FF614A;}
</style>
<path class="st0" d="M54,0H37H10C4.5,0,0,4.5,0,10v44c0,5.5,4.5,10,10,10h27h17c5.5,0,10-4.5,10-10V10C64,4.5,59.5,0,54,0z M11,44
	h16v5H11V44z M27,42H11v-5h16V42z M11,51h16v5H11V51z M27,35H11v-5h16V35z M4,26v-6h56v6H4z M10,4h27h17c3.3,0,6,2.7,6,6v6H4v-6
	C4,6.7,6.7,4,10,4z M54,60H37H10c-3.3,0-6-2.7-6-6V30h5v27c0,0.6,0.4,1,1,1h18c0.6,0,1-0.4,1-1V30h31v24C60,57.3,57.3,60,54,60z
	 M8,10c0-1.1,0.9-2,2-2h4c1.1,0,2,0.9,2,2s-0.9,2-2,2h-4C8.9,12,8,11.1,8,10z M52.6,11.4C52.2,11,52,10.5,52,10c0-0.5,0.2-1,0.6-1.4
	c0.7-0.8,2.1-0.8,2.8,0C55.8,9,56,9.5,56,10s-0.2,1-0.6,1.4C55,11.8,54.5,12,54,12S53,11.8,52.6,11.4z M46.6,11.4
	C46.2,11,46,10.5,46,10c0-0.5,0.2-1,0.6-1.4c0.7-0.8,2.1-0.8,2.8,0C49.8,9,50,9.5,50,10c0,0.5-0.2,1-0.6,1.4C49,11.8,48.5,12,48,12
	C47.5,12,47,11.8,46.6,11.4z M40.6,11.4C40.2,11,40,10.5,40,10c0-0.5,0.2-1,0.6-1.4c0.7-0.8,2.1-0.8,2.8,0C43.8,9,44,9.5,44,10
	c0,0.5-0.2,1-0.6,1.4C43,11.8,42.5,12,42,12S41,11.8,40.6,11.4z M15,23c0,0.6-0.4,1-1,1h-4c-0.6,0-1-0.4-1-1s0.4-1,1-1h4
	C14.6,22,15,22.4,15,23z M25,23c0,0.6-0.4,1-1,1h-4c-0.6,0-1-0.4-1-1s0.4-1,1-1h4C24.6,22,25,22.4,25,23z M35,23c0,0.6-0.4,1-1,1h-4
	c-0.6,0-1-0.4-1-1s0.4-1,1-1h4C34.6,22,35,22.4,35,23z M45,23c0,0.6-0.4,1-1,1h-4c-0.6,0-1-0.4-1-1s0.4-1,1-1h4
	C44.6,22,45,22.4,45,23z M55,23c0,0.6-0.4,1-1,1h-4c-0.6,0-1-0.4-1-1s0.4-1,1-1h4C54.6,22,55,22.4,55,23z M53.6,34.1l-14,6
	c0,0,0,0,0,0c0,0-0.1,0-0.1,0.1c0,0-0.1,0-0.1,0.1c0,0-0.1,0.1-0.1,0.1s-0.1,0.1-0.1,0.1c0,0,0,0.1-0.1,0.1c0,0,0,0.1-0.1,0.1
	c0,0,0,0,0,0l-6,14c-0.2,0.4-0.1,0.8,0.2,1.1c0.2,0.2,0.4,0.3,0.7,0.3c0.1,0,0.3,0,0.4-0.1l14-6c0,0,0,0,0,0c0,0,0.1,0,0.1-0.1
	c0,0,0.1,0,0.1-0.1c0,0,0.1-0.1,0.1-0.1s0.1-0.1,0.1-0.1c0,0,0-0.1,0.1-0.1c0,0,0-0.1,0.1-0.1c0,0,0,0,0,0l6-14
	c0.2-0.4,0.1-0.8-0.2-1.1C54.4,34,54,33.9,53.6,34.1z M35.9,53.1l4.4-10.3l5.9,5.9L35.9,53.1z M47.7,47.2l-5.9-5.9l10.3-4.4
	L47.7,47.2z"/>
</svg>
