<?xml version="1.0" encoding="utf-8"?>
<!-- Generator: Adobe Illustrator 17.1.0, SVG Export Plug-In . SVG Version: 6.00 Build 0)  -->
<!DOCTYPE svg PUBLIC "-//W3C//DTD SVG 1.1//EN" "http://www.w3.org/Graphics/SVG/1.1/DTD/svg11.dtd">
<svg version="1.1" id="Layer_1" xmlns="http://www.w3.org/2000/svg" xmlns:xlink="http://www.w3.org/1999/xlink" x="0px" y="0px"
	 viewBox="0 0 64 64" style="enable-background:new 0 0 64 64;" xml:space="preserve">
<style type="text/css">
	.st0{fill:#FF614A;}
</style>
<path class="st0" d="M63.4,22.6l-5-5c-0.8-0.8-2-0.8-2.8,0L50,23.2V2c0-1.1-0.9-2-2-2H2C0.9,0,0,0.9,0,2v60c0,1.1,0.9,2,2,2h46
	c1.1,0,2-0.9,2-2V38.8l13.4-13.4C64.2,24.6,64.2,23.4,63.4,22.6z M35.3,47.9l-2.2-2.2l16.3-16.3c0,0,0,0,0,0l4.3-4.3l2.2,2.2
	L35.3,47.9z M30.8,48l0.9-0.9l2.2,2.2L33,50.2l-3,0.9L30.8,48z M46,60H4V4h42v23.2L27.6,45.6c-0.2,0.2-0.4,0.5-0.5,0.9l-2,7
	c-0.2,0.7,0,1.4,0.5,2C26,55.8,26.5,56,27,56c0.2,0,0.4,0,0.5-0.1l7-2c0.3-0.1,0.6-0.3,0.9-0.5L46,42.8V60z M57.3,25.9l-2.2-2.2
	l1.9-1.9l2.2,2.2L57.3,25.9z M10,12c0-0.6,0.4-1,1-1h20c0.6,0,1,0.4,1,1s-0.4,1-1,1H11C10.4,13,10,12.6,10,12z M10,20
	c0-0.6,0.4-1,1-1h14c0.6,0,1,0.4,1,1s-0.4,1-1,1H11C10.4,21,10,20.6,10,20z M10,28c0-0.6,0.4-1,1-1h20c0.6,0,1,0.4,1,1s-0.4,1-1,1
	H11C10.4,29,10,28.6,10,28z M22,36c0,0.6-0.4,1-1,1H11c-0.6,0-1-0.4-1-1s0.4-1,1-1h10C21.6,35,22,35.4,22,36z M21.4,43.9
	c0.8,0.8,0.8,2,0,2.8l-6,6c-0.4,0.4-0.9,0.6-1.4,0.6s-1-0.2-1.4-0.6l-3-3c-0.8-0.8-0.8-2,0-2.8c0.8-0.8,2-0.8,2.8,0l1.6,1.6l4.6-4.6
	C19.4,43.1,20.6,43.1,21.4,43.9z"/>
</svg>
