<?xml version="1.0" encoding="utf-8"?>
<!-- Generator: Adobe Illustrator 17.1.0, SVG Export Plug-In . SVG Version: 6.00 Build 0)  -->
<!DOCTYPE svg PUBLIC "-//W3C//DTD SVG 1.1//EN" "http://www.w3.org/Graphics/SVG/1.1/DTD/svg11.dtd">
<svg version="1.1" id="Layer_1" xmlns="http://www.w3.org/2000/svg" xmlns:xlink="http://www.w3.org/1999/xlink" x="0px" y="0px"
	 viewBox="0 0 192 192" style="enable-background:new 0 0 192 192;" xml:space="preserve">
<style type="text/css">
	.st0{fill:#FF614A;}
</style>
<path class="st0" d="M50,182c0,1.1-0.9,2-2,2H34c-1.1,0-2-0.9-2-2s0.9-2,2-2h14C49.1,180,50,180.9,50,182z M54,186c-1.1,0-2,0.9-2,2
	v2c0,1.1,0.9,2,2,2s2-0.9,2-2v-2C56,186.9,55.1,186,54,186z M190,10h-4c-1.1,0-2,0.9-2,2s0.9,2,2,2h4c1.1,0,2-0.9,2-2
	S191.1,10,190,10z M170,14h4c1.1,0,2-0.9,2-2s-0.9-2-2-2h-4c-1.1,0-2,0.9-2,2S168.9,14,170,14z M180,8c1.1,0,2-0.9,2-2V2
	c0-1.1-0.9-2-2-2s-2,0.9-2,2v4C178,7.1,178.9,8,180,8z M180,24c1.1,0,2-0.9,2-2v-4c0-1.1-0.9-2-2-2s-2,0.9-2,2v4
	C178,23.1,178.9,24,180,24z M28,20H8c-1.1,0-2,0.9-2,2s0.9,2,2,2h20c1.1,0,2-0.9,2-2S29.1,20,28,20z M8,28l-6,0c-1.1,0-2,0.9-2,2
	s0.9,2,2,2l6,0c1.1,0,2-0.9,2-2S9.1,28,8,28z M46,58h6c1.1,0,2-0.9,2-2s-0.9-2-2-2h-6c-1.1,0-2,0.9-2,2S44.9,58,46,58z M68,56
	c0-1.1-0.9-2-2-2h-6c-1.1,0-2,0.9-2,2s0.9,2,2,2h6C67.1,58,68,57.1,68,56z M82,56c0-1.1-0.9-2-2-2h-6c-1.1,0-2,0.9-2,2s0.9,2,2,2h6
	C81.1,58,82,57.1,82,56z M149,58c0.5,0,1-0.2,1.4-0.6c0.4-0.4,0.6-0.9,0.6-1.4c0-0.5-0.2-1-0.6-1.4c-0.7-0.7-2.1-0.7-2.8,0
	c-0.4,0.4-0.6,0.9-0.6,1.4c0,0.5,0.2,1,0.6,1.4C148,57.8,148.5,58,149,58z M124,61c-0.6,0-1,0.4-1,1s0.4,1,1,1c9.4,0,17,7.6,17,17
	c0,0.6,0.4,1,1,1c0.6,0,1-0.4,1-1C143,69.5,134.5,61,124,61z M181.4,126.6c0.4,0.4,0.6,0.9,0.6,1.4c0,0.5-0.2,1-0.6,1.4l-8,8
	c-0.4,0.4-0.9,0.6-1.4,0.6c-0.5,0-1-0.2-1.4-0.6l-11.1-11.1c-1.6,1.1-3.5,1.7-5.5,1.7h-45.6l3.2,16H122c4.4,0,8,3.6,8,8v4H66v-4
	c0-4.4,3.6-8,8-8h10.4l3.2-16H42c-5.5,0-10-4.5-10-10V52c0-5.5,4.5-10,10-10h112c5.5,0,10,4.5,10,10v57.2L181.4,126.6z M168.7,129.9
	l5.2-5.2l-13.3-13.3c0,0,0,0,0,0l-5.3-5.3l-5.2,5.2L168.7,129.9z M148.7,109.9l5.2-5.2l-1.9-1.9l-5.2,5.2L148.7,109.9z M36,112
	h109.2l-2.6-2.6c-0.4-0.4-0.6-0.9-0.6-1.4s0.2-1,0.6-1.4l2.6-2.6l-4.3-4.3c-4.5,3.9-10.5,6.3-16.9,6.3c-14.3,0-26-11.7-26-26
	s11.7-26,26-26s26,11.7,26,26c0,6.4-2.4,12.4-6.3,16.9l4.3,4.3l2.6-2.6c0.8-0.8,2-0.8,2.8,0l6.6,6.6V52c0-3.3-2.7-6-6-6H42
	c-3.3,0-6,2.7-6,6V112z M146,80c0-12.1-9.9-22-22-22s-22,9.9-22,22s9.9,22,22,22S146,92.1,146,80z M122,148h-12c0,0,0,0,0,0H86
	c0,0,0,0,0,0H74c-2.2,0-4,1.8-4,4h56C126,149.8,124.2,148,122,148z M104.4,128H91.6l-3.2,16h19.1L104.4,128z M156.6,123.4l-7.4-7.4
	c-0.1,0-0.1,0-0.2,0H36v2c0,3.3,2.7,6,6,6h48h16h48C154.9,124,155.8,123.8,156.6,123.4z M177.2,128l-1.9-1.9l-5.2,5.2l1.9,1.9
	L177.2,128z M134,74h-20c-1.1,0-2,0.9-2,2s0.9,2,2,2h20c1.1,0,2-0.9,2-2S135.1,74,134,74z M128,82h-14c-1.1,0-2,0.9-2,2s0.9,2,2,2
	h14c1.1,0,2-0.9,2-2S129.1,82,128,82z M56,76v26c0,1.1-0.9,2-2,2h-8c-1.1,0-2-0.9-2-2V76c0-1.1,0.9-2,2-2h8C55.1,74,56,74.9,56,76z
	 M52,78h-4v22h4V78z M72,84v18c0,1.1-0.9,2-2,2h-8c-1.1,0-2-0.9-2-2V84c0-1.1,0.9-2,2-2h8C71.1,82,72,82.9,72,84z M68,86h-4v14h4V86
	z M88,70v32c0,1.1-0.9,2-2,2h-8c-1.1,0-2-0.9-2-2V70c0-1.1,0.9-2,2-2h8C87.1,68,88,68.9,88,70z M84,72h-4v28h4V72z"/>
</svg>
