<?xml version="1.0" encoding="utf-8"?>
<!-- Generator: Adobe Illustrator 17.1.0, SVG Export Plug-In . SVG Version: 6.00 Build 0)  -->
<!DOCTYPE svg PUBLIC "-//W3C//DTD SVG 1.1//EN" "http://www.w3.org/Graphics/SVG/1.1/DTD/svg11.dtd">
<svg version="1.1" id="Layer_1" xmlns="http://www.w3.org/2000/svg" xmlns:xlink="http://www.w3.org/1999/xlink" x="0px" y="0px"
	 viewBox="0 0 96 96" style="enable-background:new 0 0 96 96;" xml:space="preserve">
<style type="text/css">
	.st0{fill:#FF614A;}
</style>
<path class="st0" d="M8,10c0-1.1,0.9-2,2-2h4c1.1,0,2,0.9,2,2s-0.9,2-2,2h-4C8.9,12,8,11.1,8,10z M54,12c0.5,0,1-0.2,1.4-0.6
	C55.8,11,56,10.5,56,10s-0.2-1-0.6-1.4c-0.7-0.7-2.1-0.7-2.8,0C52.2,9,52,9.5,52,10c0,0.5,0.2,1,0.6,1.4C53,11.8,53.5,12,54,12z
	 M48,12c0.5,0,1-0.2,1.4-0.6C49.8,11,50,10.5,50,10s-0.2-1-0.6-1.4c-0.7-0.7-2.1-0.7-2.8,0C46.2,9,46,9.5,46,10s0.2,1,0.6,1.4
	C47,11.8,47.5,12,48,12z M42,12c0.5,0,1-0.2,1.4-0.6C43.8,11,44,10.5,44,10c0-0.5-0.2-1-0.6-1.4c-0.7-0.7-2.1-0.7-2.8,0
	C40.2,9,40,9.5,40,10s0.2,1,0.6,1.4C41,11.8,41.5,12,42,12z M22,27H10c-0.6,0-1,0.4-1,1s0.4,1,1,1h12c0.6,0,1-0.4,1-1S22.6,27,22,27
	z M22,35H10c-0.6,0-1,0.4-1,1s0.4,1,1,1h12c0.6,0,1-0.4,1-1S22.6,35,22,35z M22,43H10c-0.6,0-1,0.4-1,1s0.4,1,1,1h12
	c0.6,0,1-0.4,1-1S22.6,43,22,43z M22,51H10c-0.6,0-1,0.4-1,1s0.4,1,1,1h12c0.6,0,1-0.4,1-1S22.6,51,22,51z M75,58
	c0-9.4-7.6-17-17-17c-0.6,0-1,0.4-1,1s0.4,1,1,1c8.3,0,15,6.7,15,15c0,0.6,0.4,1,1,1S75,58.6,75,58z M95.4,95.4
	C95,95.8,94.5,96,94,96s-1-0.2-1.4-0.6L74.9,77.7C70.2,81.8,64.3,84,58,84c-6.9,0-13.5-2.7-18.4-7.6c-3.5-3.5-5.8-7.8-6.9-12.4H10
	C4.5,64,0,59.5,0,54V10C0,4.5,4.5,0,10,0h27h17c5.5,0,10,4.5,10,10v22.7c4.7,1.1,8.9,3.5,12.4,6.9c9.7,9.7,10.1,25.1,1.4,35.3
	l17.7,17.7C96.2,93.4,96.2,94.6,95.4,95.4z M4,10v6h56v-6c0-3.3-2.7-6-6-6H37H10C6.7,4,4,6.7,4,10z M32.1,60c-0.2-2.3-0.1-4.7,0.4-7
	H30c-0.6,0-1-0.4-1-1V28c0-0.6,0.4-1,1-1h24.3c0.6,0,1,0.4,1,1v4.1c0.9-0.1,1.8-0.1,2.8-0.1c0.7,0,1.3,0,2,0.1V20H4v34
	c0,3.3,2.7,6,6,6H32.1z M39.6,39.6c3.8-3.8,8.5-6.2,13.6-7.2V29H31v22h2C34.1,46.8,36.3,42.9,39.6,39.6z M58,80
	c5.9,0,11.4-2.3,15.6-6.4c8.6-8.6,8.6-22.5,0-31.1C69.4,38.3,63.9,36,58,36s-11.4,2.3-15.6,6.4c-8.6,8.6-8.6,22.5,0,31.1
	C46.6,77.7,52.1,80,58,80z"/>
</svg>
