<?xml version="1.0" encoding="utf-8"?>
<!-- Generator: Adobe Illustrator 17.1.0, SVG Export Plug-In . SVG Version: 6.00 Build 0)  -->
<!DOCTYPE svg PUBLIC "-//W3C//DTD SVG 1.1//EN" "http://www.w3.org/Graphics/SVG/1.1/DTD/svg11.dtd">
<svg version="1.1" id="Layer_1" xmlns="http://www.w3.org/2000/svg" xmlns:xlink="http://www.w3.org/1999/xlink" x="0px" y="0px"
	 viewBox="0 0 96 96" style="enable-background:new 0 0 96 96;" xml:space="preserve">
<style type="text/css">
	.st0{fill:#FF6148;}
</style>
<path class="st0" d="M95.4,92.6L73.1,70.2C79.9,62.8,84,52.9,84,42C84,18.8,65.2,0,42,0S0,18.8,0,42s18.8,42,42,42
	c10.9,0,20.8-4.1,28.2-10.9l22.3,22.3C93,95.8,93.5,96,94,96s1-0.2,1.4-0.6C96.2,94.6,96.2,93.4,95.4,92.6z M42,4c21,0,38,17,38,38
	c0,8.5-2.8,16.4-7.5,22.7c-5.1-2.3-12.2-2.4-18.7-2.4l-1.2-6.1c5.8-5.5,9.7-15,9.7-24.2c0-14-9.1-22-20.3-22s-20.3,8-20.3,22
	c0,9.2,3.9,18.7,9.7,24.2l-1.2,6.1c-6.5,0-13.5,0.1-18.7,2.4C6.8,58.4,4,50.5,4,42C4,21,21,4,42,4z M24.7,32c0-11.4,7-19,17.3-19
	s17.3,7.7,17.3,19c0,0.2,0,0.3,0,0.5c-2.8-0.9-4.3-4.6-5.6-8.5c-0.1-0.3-0.3-0.5-0.6-0.6c-0.3-0.1-0.6-0.1-0.9,0.1
	C49.9,25,46,26,42,26c-4,0-7.9-0.9-10.2-2.5c-0.3-0.2-0.6-0.2-0.9-0.1c-0.3,0.1-0.5,0.3-0.6,0.6c-1.3,4-2.8,7.7-5.6,8.6
	C24.7,32.4,24.7,32.2,24.7,32z M31.8,25.8C34.5,27.2,38.1,28,42,28c3.9,0,7.5-0.8,10.2-2.2c1.1,3.2,3,7.9,7,8.8
	c-1,12.3-8.9,23.3-17.2,23.3c-8.3,0-16.3-11-17.2-23.3C28.8,33.7,30.7,28.9,31.8,25.8z M34.9,58.9c2.2,1.3,4.6,2,7.1,2
	s4.9-0.7,7.1-2l1.4,6.8C48.8,67.4,45,69.1,42,70c-3-0.9-6.8-2.6-8.4-4.3L34.9,58.9z M42,80c-10.9,0-20.8-4.7-27.8-12.1
	c4.6-1.6,11.1-1.6,17-1.6h0.3c2.1,3.2,8.7,5.3,10.2,5.7l0.3,0.1l0.3-0.1c1.5-0.5,8.1-2.6,10.2-5.7h0.3c5.9,0,12.4,0,17,1.6
	C62.8,75.3,52.9,80,42,80z M36.9,38c0-1.4-1.1-2.5-2.5-2.5s-2.5,1.1-2.5,2.5s1.1,2.5,2.5,2.5S36.9,39.4,36.9,38z M33.8,38
	c0-0.3,0.2-0.5,0.5-0.5s0.5,0.2,0.5,0.5s-0.2,0.5-0.5,0.5S33.8,38.3,33.8,38z M49.6,40.5c1.4,0,2.5-1.1,2.5-2.5s-1.1-2.5-2.5-2.5
	s-2.5,1.1-2.5,2.5S48.2,40.5,49.6,40.5z M49.6,37.4c0.3,0,0.5,0.2,0.5,0.5s-0.2,0.5-0.5,0.5s-0.5-0.2-0.5-0.5S49.3,37.4,49.6,37.4z
	 M39.3,48c0-0.6,0.4-1,1-1h3.4c0.6,0,1,0.4,1,1s-0.4,1-1,1h-3.4C39.8,49,39.3,48.6,39.3,48z"/>
</svg>
