<?xml version="1.0" encoding="utf-8"?>
<!-- Generator: Adobe Illustrator 17.1.0, SVG Export Plug-In . SVG Version: 6.00 Build 0)  -->
<!DOCTYPE svg PUBLIC "-//W3C//DTD SVG 1.1//EN" "http://www.w3.org/Graphics/SVG/1.1/DTD/svg11.dtd">
<svg version="1.1" id="Layer_1" xmlns="http://www.w3.org/2000/svg" xmlns:xlink="http://www.w3.org/1999/xlink" x="0px" y="0px"
	 viewBox="0 0 96 96" style="enable-background:new 0 0 96 96;" xml:space="preserve">
<style type="text/css">
	.st0{fill:#FF614A;}
</style>
<path class="st0" d="M76,8h-7H57.8c-0.9-4.6-5-8-9.8-8s-8.9,3.4-9.8,8H27h-7C13.4,8,8,13.4,8,20v64c0,6.6,5.4,12,12,12h56
	c6.6,0,12-5.4,12-12V20C88,13.4,82.6,8,76,8z M48,4c2.6,0,4.8,1.7,5.7,4H42.3C43.2,5.7,45.4,4,48,4z M38,12h20h7v10H31V12H38z
	 M69,26v-7h5v64H22V19h5v7H69z M84,84c0,4.4-3.6,8-8,8H20c-4.4,0-8-3.6-8-8V20c0-4.4,3.6-8,8-8h7v5h-7v68h56V17h-7v-5h7
	c4.4,0,8,3.6,8,8V84z M27,56c0-0.6,0.4-1,1-1h40c0.6,0,1,0.4,1,1s-0.4,1-1,1H28C27.4,57,27,56.6,27,56z M27,62c0-0.6,0.4-1,1-1h32
	c0.6,0,1,0.4,1,1s-0.4,1-1,1H28C27.4,63,27,62.6,27,62z M69,68c0,0.6-0.4,1-1,1H28c-0.6,0-1-0.4-1-1s0.4-1,1-1h40
	C68.6,67,69,67.4,69,68z M51,74c0,0.6-0.4,1-1,1H28c-0.6,0-1-0.4-1-1s0.4-1,1-1h22C50.6,73,51,73.4,51,74z M31.8,49
	c1.3,0,2.5-0.5,3.4-1.4c1.6-1.6,1.8-4.2,0.6-6l3.3-3.3c0.8,0.5,1.7,0.8,2.6,0.8s1.8-0.3,2.6-0.8l3.3,3.3c-1.2,1.9-1,4.4,0.6,6
	c0.9,0.9,2.1,1.4,3.4,1.4s2.5-0.5,3.4-1.4c1.6-1.6,1.8-4.2,0.6-6l3.3-3.3c0.8,0.5,1.7,0.8,2.6,0.8c1.3,0,2.5-0.5,3.4-1.4
	c1.9-1.9,1.9-4.9,0-6.8c-0.9-0.9-2.1-1.4-3.4-1.4s-2.5,0.5-3.4,1.4c-1.6,1.6-1.8,4.2-0.6,6l-3.3,3.3c-0.8-0.5-1.7-0.8-2.6-0.8
	s-1.8,0.3-2.6,0.8l-3.3-3.3c1.2-1.9,1-4.4-0.6-6c-0.9-0.9-2.1-1.4-3.4-1.4s-2.5,0.5-3.4,1.4c-1.6,1.6-1.8,4.2-0.6,6l-3.3,3.3
	c-0.8-0.5-1.7-0.8-2.6-0.8c-1.3,0-2.5,0.5-3.4,1.4c-1.9,1.9-1.9,4.9,0,6.8C29.3,48.5,30.5,49,31.8,49z M59.8,32.2
	c0.5-0.5,1.2-0.8,2-0.8s1.5,0.3,2,0.8c1.1,1.1,1.1,2.9,0,4c-1.1,1.1-2.9,1.1-4,0C58.7,35.1,58.7,33.3,59.8,32.2z M53.8,42.2
	c1.1,1.1,1.1,2.9,0,4c-1.1,1.1-2.9,1.1-4,0c-1.1-1.1-1.1-2.9,0-4c0.5-0.5,1.2-0.8,2-0.8S53.3,41.7,53.8,42.2z M39.8,32.2
	c0.5-0.5,1.2-0.8,2-0.8s1.5,0.3,2,0.8c1.1,1.1,1.1,2.9,0,4c-1.1,1.1-2.9,1.1-4,0C38.7,35.1,38.7,33.3,39.8,32.2z M29.8,42.2
	c0.5-0.5,1.2-0.8,2-0.8s1.5,0.3,2,0.8c1.1,1.1,1.1,2.9,0,4c-1.1,1.1-2.9,1.1-4,0C28.7,45.1,28.7,43.3,29.8,42.2z"/>
</svg>
