<?xml version="1.0" encoding="utf-8"?>
<!-- Generator: Adobe Illustrator 17.1.0, SVG Export Plug-In . SVG Version: 6.00 Build 0)  -->
<!DOCTYPE svg PUBLIC "-//W3C//DTD SVG 1.1//EN" "http://www.w3.org/Graphics/SVG/1.1/DTD/svg11.dtd">
<svg version="1.1" id="Layer_1" xmlns="http://www.w3.org/2000/svg" xmlns:xlink="http://www.w3.org/1999/xlink" x="0px" y="0px"
	 viewBox="0 0 96 96" style="enable-background:new 0 0 96 96;" xml:space="preserve">
<style type="text/css">
	.st0{fill:#FF6148;}
</style>
<path class="st0" d="M95.4,92.6L73.1,70.2C79.9,62.8,84,52.9,84,42C84,18.8,65.2,0,42,0S0,18.8,0,42s18.8,42,42,42
	c10.9,0,20.8-4.1,28.2-10.9l22.3,22.3C93,95.8,93.5,96,94,96s1-0.2,1.4-0.6C96.2,94.6,96.2,93.4,95.4,92.6z M42,80C21,80,4,63,4,42
	S21,4,42,4s38,17,38,38S63,80,42,80z M44,15v24h24C68,25.7,57.3,15,44,15z M46,37V17.1c10.5,1,19,9.4,19.9,19.9H46z M61,59
	c4.3-4.3,7-10.3,7-17H44L61,59z M60.9,56.1L48.8,44h17.1C65.5,48.5,63.8,52.6,60.9,56.1z M40,19c-13.3,0-24,10.7-24,24
	s10.7,24,24,24c6.6,0,12.6-2.7,17-7L40,43V19z M54.1,59.9C50.1,63.2,45.2,65,40,65c-12.1,0-22-9.9-22-22c0-11.5,8.8-20.9,20-21.9V43
	c0,0.5,0.2,1,0.6,1.4L54.1,59.9z"/>
</svg>
