<?xml version="1.0" encoding="utf-8"?>
<!-- Generator: Adobe Illustrator 17.1.0, SVG Export Plug-In . SVG Version: 6.00 Build 0)  -->
<!DOCTYPE svg PUBLIC "-//W3C//DTD SVG 1.1//EN" "http://www.w3.org/Graphics/SVG/1.1/DTD/svg11.dtd">
<svg version="1.1" id="Layer_1" xmlns="http://www.w3.org/2000/svg" xmlns:xlink="http://www.w3.org/1999/xlink" x="0px" y="0px"
	 viewBox="0 0 96 96" style="enable-background:new 0 0 96 96;" xml:space="preserve">
<style type="text/css">
	.st0{fill:#FF6148;}
</style>
<path class="st0" d="M95.4,92.6L73.1,70.2C79.9,62.8,84,52.9,84,42C84,18.8,65.2,0,42,0S0,18.8,0,42s18.8,42,42,42
	c10.9,0,20.8-4.1,28.2-10.9l22.3,22.3C93,95.8,93.5,96,94,96s1-0.2,1.4-0.6C96.2,94.6,96.2,93.4,95.4,92.6z M42,4c21,0,38,17,38,38
	c0,3.8-0.6,7.5-1.6,11H67V24H57v29h-4V34H43v19h-4V30H29v23h-4V42H15v11H5.6C4.6,49.5,4,45.8,4,42C4,21,21,4,42,4z M63.4,53l1.6-1.6
	V53H63.4z M59,33.4l6-6v5.2l-6,6V33.4z M59,30.6V26h4.6L59,30.6z M59,41.4l6-6v5.2l-6,6V41.4z M59,49.4l6-6v5.2L60.6,53H59V49.4z
	 M45,41.4l5.4-5.4H51v4.6l-6,6V41.4z M45,38.6V36h2.6L45,38.6z M49.4,53l1.6-1.6V53H49.4z M45,49.4l6-6v5.2L46.6,53H45V49.4z
	 M31,33.4l1.4-1.4H37v0.6l-6,6V33.4z M35.4,53l1.6-1.6V53H35.4z M31,41.4l6-6v5.2l-6,6V41.4z M31,49.4l6-6v5.2L32.6,53H31V49.4z
	 M17,49.4l5.4-5.4H23v4.6L18.6,53H17V49.4z M17,46.6V44h2.6L17,46.6z M21.4,53l1.6-1.6V53H21.4z M42,80c-15.6,0-29.1-9.5-34.9-23
	h69.8C71.1,70.5,57.6,80,42,80z"/>
</svg>
