<?xml version="1.0" encoding="UTF-8"?>
<svg width="51px" height="51px" viewBox="0 0 51 51" version="1.1" xmlns="http://www.w3.org/2000/svg" xmlns:xlink="http://www.w3.org/1999/xlink">
    <!-- Generator: Sketch 51.3 (57544) - http://www.bohemiancoding.com/sketch -->
    <title>approach3</title>
    <desc>Created with Sketch.</desc>
    <defs></defs>
    <g id="Page-1" stroke="none" stroke-width="1" fill="none" fill-rule="evenodd">
        <g id="увеличение_конверсии-copy-2" transform="translate(-1122.000000, -697.000000)" fill="#FF614A" fill-rule="nonzero">
            <g id="approach3" transform="translate(1122.000000, 697.000000)">
                <path d="M43.03125,0 L29.484375,0 L7.96875,0 C3.5859375,0 0,3.5859375 0,7.96875 L0,43.03125 C0,47.4140625 3.5859375,51 7.96875,51 L29.484375,51 L43.03125,51 C47.4140625,51 51,47.4140625 51,43.03125 L51,7.96875 C51,3.5859375 47.4140625,0 43.03125,0 Z M7.96875,3.1875 L29.484375,3.1875 L43.03125,3.1875 C45.6609375,3.1875 47.8125,5.3390625 47.8125,7.96875 L47.8125,12.75 L3.1875,12.75 L3.1875,7.96875 C3.1875,5.3390625 5.3390625,3.1875 7.96875,3.1875 Z M43.03125,47.8125 L29.484375,47.8125 L7.96875,47.8125 C5.3390625,47.8125 3.1875,45.6609375 3.1875,43.03125 L3.1875,15.9375 L47.8125,15.9375 L47.8125,43.03125 C47.8125,45.6609375 45.6609375,47.8125 43.03125,47.8125 Z M6.375,7.96875 C6.375,7.0921875 7.0921875,6.375 7.96875,6.375 L11.15625,6.375 C12.0328125,6.375 12.75,7.0921875 12.75,7.96875 C12.75,8.8453125 12.0328125,9.5625 11.15625,9.5625 L7.96875,9.5625 C7.0921875,9.5625 6.375,8.8453125 6.375,7.96875 Z M41.915625,9.084375 C41.596875,8.765625 41.4375,8.3671875 41.4375,7.96875 C41.4375,7.5703125 41.596875,7.171875 41.915625,6.853125 C42.553125,6.215625 43.5890625,6.215625 44.146875,6.853125 C44.465625,7.171875 44.625,7.5703125 44.625,7.96875 C44.625,8.3671875 44.465625,8.765625 44.146875,9.084375 C43.828125,9.403125 43.4296875,9.5625 43.03125,9.5625 C42.6328125,9.5625 42.234375,9.403125 41.915625,9.084375 Z M37.134375,9.084375 C36.815625,8.765625 36.65625,8.3671875 36.65625,7.96875 C36.65625,7.5703125 36.815625,7.171875 37.134375,6.853125 C37.6921875,6.215625 38.8078125,6.215625 39.365625,6.853125 C39.684375,7.171875 39.84375,7.5703125 39.84375,7.96875 C39.84375,8.3671875 39.684375,8.765625 39.365625,9.084375 C39.046875,9.403125 38.6484375,9.5625 38.25,9.5625 C37.8515625,9.5625 37.453125,9.403125 37.134375,9.084375 Z M32.353125,9.084375 C32.034375,8.765625 31.875,8.3671875 31.875,7.96875 C31.875,7.5703125 32.034375,7.171875 32.353125,6.853125 C32.9109375,6.215625 34.0265625,6.215625 34.584375,6.853125 C34.903125,7.171875 35.0625,7.5703125 35.0625,7.96875 C35.0625,8.3671875 34.903125,8.765625 34.584375,9.084375 C34.265625,9.403125 33.8671875,9.5625 33.46875,9.5625 C33.0703125,9.5625 32.671875,9.403125 32.353125,9.084375 Z M18.328125,22.3125 C18.328125,22.790625 18.009375,23.109375 17.53125,23.109375 L7.96875,23.109375 C7.490625,23.109375 7.171875,22.790625 7.171875,22.3125 C7.171875,21.834375 7.490625,21.515625 7.96875,21.515625 L17.53125,21.515625 C18.009375,21.515625 18.328125,21.834375 18.328125,22.3125 Z M18.328125,28.6875 C18.328125,29.165625 18.009375,29.484375 17.53125,29.484375 L7.96875,29.484375 C7.490625,29.484375 7.171875,29.165625 7.171875,28.6875 C7.171875,28.209375 7.490625,27.890625 7.96875,27.890625 L17.53125,27.890625 C18.009375,27.890625 18.328125,28.209375 18.328125,28.6875 Z M18.328125,35.0625 C18.328125,35.540625 18.009375,35.859375 17.53125,35.859375 L7.96875,35.859375 C7.490625,35.859375 7.171875,35.540625 7.171875,35.0625 C7.171875,34.584375 7.490625,34.265625 7.96875,34.265625 L17.53125,34.265625 C18.009375,34.265625 18.328125,34.584375 18.328125,35.0625 Z M18.328125,41.4375 C18.328125,41.915625 18.009375,42.234375 17.53125,42.234375 L7.96875,42.234375 C7.490625,42.234375 7.171875,41.915625 7.171875,41.4375 C7.171875,40.959375 7.490625,40.640625 7.96875,40.640625 L17.53125,40.640625 C18.009375,40.640625 18.328125,40.959375 18.328125,41.4375 Z M31.2375,39.046875 L32.671875,42.234375 L23.90625,42.234375 C23.0296875,42.234375 22.3125,41.5171875 22.3125,40.640625 L22.3125,23.109375 C22.3125,22.2328125 23.0296875,21.515625 23.90625,21.515625 L43.03125,21.515625 C43.9078125,21.515625 44.625,22.2328125 44.625,23.109375 L44.625,34.9828125 L41.4375,33.5484375 L41.4375,24.703125 L25.5,24.703125 L25.5,39.046875 L31.2375,39.046875 Z M44.625,37.6125 L32.19375,31.9546875 C31.875,31.7953125 31.55625,31.875 31.3171875,32.1140625 C31.078125,32.353125 30.9984375,32.671875 31.1578125,32.990625 L36.815625,45.421875 C36.975,45.740625 37.2140625,45.9 37.5328125,45.9 C37.5328125,45.9 37.5328125,45.9 37.5328125,45.9 C37.8515625,45.9 38.090625,45.740625 38.25,45.421875 L40.4015625,41.11875 L44.625,39.046875 C44.8640625,38.8875 45.103125,38.6484375 45.103125,38.3296875 C45.0234375,38.0109375 44.8640625,37.6921875 44.625,37.6125 Z M39.4453125,39.84375 C39.2859375,39.9234375 39.1265625,40.0828125 39.1265625,40.1625 L37.6125,43.190625 L33.46875,34.265625 L42.39375,38.3296875 L39.4453125,39.84375 Z" id="Shape"></path>
            </g>
        </g>
    </g>
</svg>