<?xml version="1.0" encoding="UTF-8"?>
<svg width="64px" height="64px" viewBox="0 0 64 64" version="1.1" xmlns="http://www.w3.org/2000/svg" xmlns:xlink="http://www.w3.org/1999/xlink">
    <!-- Generator: Sketch 51.3 (57544) - http://www.bohemiancoding.com/sketch -->
    <title>Group</title>
    <desc>Created with Sketch.</desc>
    <defs></defs>
    <g id="Page-1" stroke="none" stroke-width="1" fill="none" fill-rule="evenodd">
        <g id="увеличение_конверсии-copy-2" transform="translate(-1122.000000, -589.000000)" fill="#FF614A">
            <g id="Group" transform="translate(1122.000000, 589.000000)">
                <g id="banner2" fill-rule="nonzero">
                    <path d="M59.36,34.56 L60.4,33.52 L61.44,34.56 C61.6,34.72 61.84,34.8 62,34.8 C62.24,34.8 62.4,34.72 62.56,34.56 C62.88,34.24 62.88,33.76 62.56,33.44 L59.36,30.24 C59.04,29.92 58.56,29.92 58.24,30.24 C57.92,30.56 57.92,31.04 58.24,31.36 L59.28,32.4 L58.24,33.44 C56.48,31.84 54.48,30.64 52.4,29.92 C52.88,29.2 53.2,28.24 53.2,27.28 C53.2,25.68 52.4,24.24 51.2,23.36 L51.2,8 C51.2,3.6 47.6,0 43.2,0 L29.6,0 L8,0 C3.6,0 0,3.6 0,8 L0,43.2 C0,47.6 3.6,51.2 8,51.2 L29.44,51.2 C30.24,54 31.68,56.64 33.92,58.88 C37.36,62.32 41.92,64 46.4,64 C50.88,64 55.44,62.32 58.88,58.88 C65.52,52.16 65.68,41.44 59.36,34.56 Z M44.4,28.8 C43.52,28.8 42.8,28.08 42.8,27.2 C42.8,26.32 43.52,25.6 44.4,25.6 L48.4,25.6 C48.48,25.6 48.56,25.6 48.72,25.6 C48.88,25.68 49.12,25.76 49.28,25.84 C49.68,26.16 50,26.64 50,27.12 C50,28 49.28,28.72 48.4,28.72 L44.4,28.72 L44.4,28.8 Z M8,3.2 L29.6,3.2 L43.2,3.2 C45.84,3.2 48,5.36 48,8 L48,13.6 L3.2,13.6 L3.2,8 C3.2,5.36 5.36,3.2 8,3.2 Z M8,48 C5.36,48 3.2,45.84 3.2,43.2 L3.2,15.2 L48,15.2 L48,22.4 L44.4,22.4 C41.76,22.4 39.6,24.56 39.6,27.2 C39.6,28.16 39.92,29.12 40.4,29.92 C38.08,30.8 35.84,32.16 33.92,34 C30.08,37.84 28.4,43.04 28.88,48.08 L8,48.08 L8,48 Z M56.56,56.56 C53.84,59.28 50.24,60.8 46.4,60.8 C42.56,60.8 38.96,59.28 36.24,56.56 C33.52,53.84 32,50.24 32,46.4 C32,42.56 33.52,38.96 36.24,36.24 C38.96,33.52 42.56,32 46.4,32 C50.24,32 53.84,33.52 56.56,36.24 C59.28,38.96 60.8,42.56 60.8,46.4 C60.8,50.24 59.28,53.84 56.56,56.56 Z M6.4,8 C6.4,7.12 7.12,6.4 8,6.4 L11.2,6.4 C12.08,6.4 12.8,7.12 12.8,8 C12.8,8.88 12.08,9.6 11.2,9.6 L8,9.6 C7.12,9.6 6.4,8.88 6.4,8 Z M42.08,9.12 C41.76,8.8 41.6,8.4 41.6,8 C41.6,7.6 41.76,7.2 42.08,6.88 C42.64,6.24 43.76,6.24 44.32,6.88 C44.64,7.2 44.8,7.6 44.8,8 C44.8,8.4 44.64,8.8 44.32,9.12 C44,9.44 43.6,9.6 43.2,9.6 C42.8,9.6 42.4,9.44 42.08,9.12 Z M37.28,9.12 C36.96,8.8 36.8,8.4 36.8,8 C36.8,7.6 36.96,7.2 37.28,6.88 C37.84,6.24 38.96,6.24 39.52,6.88 C39.84,7.2 40,7.6 40,8 C40,8.4 39.84,8.8 39.52,9.12 C39.2,9.44 38.8,9.6 38.4,9.6 C38,9.6 37.6,9.44 37.28,9.12 Z M32.48,9.12 C32.16,8.8 32,8.4 32,8 C32,7.6 32.16,7.2 32.48,6.88 C33.04,6.24 34.16,6.24 34.72,6.88 C35.04,7.2 35.2,7.6 35.2,8 C35.2,8.4 35.04,8.8 34.72,9.12 C34.4,9.44 34,9.6 33.6,9.6 C33.2,9.6 32.8,9.44 32.48,9.12 Z M7.2,22.4 C7.2,21.92 7.52,21.6 8,21.6 L30.4,21.6 C30.88,21.6 31.2,21.92 31.2,22.4 C31.2,22.88 30.88,23.2 30.4,23.2 L8,23.2 C7.52,23.2 7.2,22.88 7.2,22.4 Z M7.2,28.8 C7.2,28.32 7.52,28 8,28 L30.4,28 C30.88,28 31.2,28.32 31.2,28.8 C31.2,29.28 30.88,29.6 30.4,29.6 L8,29.6 C7.52,29.6 7.2,29.28 7.2,28.8 Z M23.2,35.2 C23.2,35.68 22.88,36 22.4,36 L8,36 C7.52,36 7.2,35.68 7.2,35.2 C7.2,34.72 7.52,34.4 8,34.4 L22.4,34.4 C22.88,34.4 23.2,34.72 23.2,35.2 Z M23.2,41.6 C23.2,42.08 22.88,42.4 22.4,42.4 L8,42.4 C7.52,42.4 7.2,42.08 7.2,41.6 C7.2,41.12 7.52,40.8 8,40.8 L22.4,40.8 C22.88,40.8 23.2,41.12 23.2,41.6 Z" id="Shape"></path>
                </g>
                <path d="M44.5704151,49.2278847 L51.8804085,41.9193465 L51.8780085,41.9201465 C52.3304829,41.4866597 53.0464593,41.4943311 53.4895416,41.9374134 C53.9326239,42.3804957 53.9402953,43.0964721 53.5068085,43.5489465 L45.4716085,51.5849465 C45.0491262,52.0072213 44.3803576,52.0328872 43.9279354,51.6620576 C43.8433478,51.6139829 43.7637412,51.5538791 43.6916085,51.4817465 L39.5140085,47.3057465 C39.0913454,46.8715009 39.0959418,46.1782611 39.5243258,45.7496583 C39.9527099,45.3210555 40.6459472,45.3161051 41.0804085,45.7385465 L44.5704151,49.2278847 Z" id="Combined-Shape"></path>
            </g>
        </g>
    </g>
</svg>