<?xml version="1.0" encoding="UTF-8"?>
<svg width="62px" height="70px" viewBox="0 0 62 70" version="1.1" xmlns="http://www.w3.org/2000/svg" xmlns:xlink="http://www.w3.org/1999/xlink">
    <!-- Generator: Sketch 51.3 (57544) - http://www.bohemiancoding.com/sketch -->
    <title>Group 6</title>
    <desc>Created with Sketch.</desc>
    <defs></defs>
    <g id="Page-1" stroke="none" stroke-width="1" fill="none" fill-rule="evenodd">
        <g id="увеличение_конверсии-copy-2" transform="translate(-538.000000, -697.000000)">
            <g id="Group-6" transform="translate(538.000000, 697.000000)">
                <g id="approach3-copy" fill="#FF614A" fill-rule="nonzero">
                    <path d="M42.9230769,0 L29.4102564,0 L7.94871795,0 C3.57692308,0 0,3.57954545 0,7.95454545 L0,42.9545455 C0,47.3295455 3.57692308,50.9090909 7.94871795,50.9090909 L29.4102564,50.9090909 L42.9230769,50.9090909 C47.2948718,50.9090909 50.8717949,47.3295455 50.8717949,42.9545455 L50.8717949,7.95454545 C50.8717949,3.57954545 47.2948718,0 42.9230769,0 Z M7.94871795,3.18181818 L29.4102564,3.18181818 L42.9230769,3.18181818 C45.5461538,3.18181818 47.6923077,5.32954545 47.6923077,7.95454545 L47.6923077,12.7272727 L3.17948718,12.7272727 L3.17948718,7.95454545 C3.17948718,5.32954545 5.32564103,3.18181818 7.94871795,3.18181818 Z M42.9230769,47.7272727 L29.4102564,47.7272727 L7.94871795,47.7272727 C5.32564103,47.7272727 3.17948718,45.5795455 3.17948718,42.9545455 L3.17948718,15.9090909 L47.6923077,15.9090909 L47.6923077,42.9545455 C47.6923077,45.5795455 45.5461538,47.7272727 42.9230769,47.7272727 Z M6.35897436,7.95454545 C6.35897436,7.07954545 7.07435897,6.36363636 7.94871795,6.36363636 L11.1282051,6.36363636 C12.0025641,6.36363636 12.7179487,7.07954545 12.7179487,7.95454545 C12.7179487,8.82954545 12.0025641,9.54545455 11.1282051,9.54545455 L7.94871795,9.54545455 C7.07435897,9.54545455 6.35897436,8.82954545 6.35897436,7.95454545 Z M41.8102564,9.06818182 C41.4923077,8.75 41.3333333,8.35227273 41.3333333,7.95454545 C41.3333333,7.55681818 41.4923077,7.15909091 41.8102564,6.84090909 C42.4461538,6.20454545 43.4794872,6.20454545 44.0358974,6.84090909 C44.3538462,7.15909091 44.5128205,7.55681818 44.5128205,7.95454545 C44.5128205,8.35227273 44.3538462,8.75 44.0358974,9.06818182 C43.7179487,9.38636364 43.3205128,9.54545455 42.9230769,9.54545455 C42.525641,9.54545455 42.1282051,9.38636364 41.8102564,9.06818182 Z M37.0410256,9.06818182 C36.7230769,8.75 36.5641026,8.35227273 36.5641026,7.95454545 C36.5641026,7.55681818 36.7230769,7.15909091 37.0410256,6.84090909 C37.5974359,6.20454545 38.7102564,6.20454545 39.2666667,6.84090909 C39.5846154,7.15909091 39.7435897,7.55681818 39.7435897,7.95454545 C39.7435897,8.35227273 39.5846154,8.75 39.2666667,9.06818182 C38.9487179,9.38636364 38.5512821,9.54545455 38.1538462,9.54545455 C37.7564103,9.54545455 37.3589744,9.38636364 37.0410256,9.06818182 Z M32.2717949,9.06818182 C31.9538462,8.75 31.7948718,8.35227273 31.7948718,7.95454545 C31.7948718,7.55681818 31.9538462,7.15909091 32.2717949,6.84090909 C32.8282051,6.20454545 33.9410256,6.20454545 34.4974359,6.84090909 C34.8153846,7.15909091 34.974359,7.55681818 34.974359,7.95454545 C34.974359,8.35227273 34.8153846,8.75 34.4974359,9.06818182 C34.1794872,9.38636364 33.7820513,9.54545455 33.3846154,9.54545455 C32.9871795,9.54545455 32.5897436,9.38636364 32.2717949,9.06818182 Z M18.2820513,22.2727273 C18.2820513,22.75 17.9641026,23.0681818 17.4871795,23.0681818 L7.94871795,23.0681818 C7.47179487,23.0681818 7.15384615,22.75 7.15384615,22.2727273 C7.15384615,21.7954545 7.47179487,21.4772727 7.94871795,21.4772727 L17.4871795,21.4772727 C17.9641026,21.4772727 18.2820513,21.7954545 18.2820513,22.2727273 Z M18.2820513,28.6363636 C18.2820513,29.1136364 17.9641026,29.4318182 17.4871795,29.4318182 L7.94871795,29.4318182 C7.47179487,29.4318182 7.15384615,29.1136364 7.15384615,28.6363636 C7.15384615,28.1590909 7.47179487,27.8409091 7.94871795,27.8409091 L17.4871795,27.8409091 C17.9641026,27.8409091 18.2820513,28.1590909 18.2820513,28.6363636 Z M18.2820513,35 C18.2820513,35.4772727 17.9641026,35.7954545 17.4871795,35.7954545 L7.94871795,35.7954545 C7.47179487,35.7954545 7.15384615,35.4772727 7.15384615,35 C7.15384615,34.5227273 7.47179487,34.2045455 7.94871795,34.2045455 L17.4871795,34.2045455 C17.9641026,34.2045455 18.2820513,34.5227273 18.2820513,35 Z M18.2820513,41.3636364 C18.2820513,41.8409091 17.9641026,42.1590909 17.4871795,42.1590909 L7.94871795,42.1590909 C7.47179487,42.1590909 7.15384615,41.8409091 7.15384615,41.3636364 C7.15384615,40.8863636 7.47179487,40.5681818 7.94871795,40.5681818 L17.4871795,40.5681818 C17.9641026,40.5681818 18.2820513,40.8863636 18.2820513,41.3636364 Z M31.1589744,38.9772727 L32.5897436,42.1590909 L23.8461538,42.1590909 C22.9717949,42.1590909 22.2564103,41.4431818 22.2564103,40.5681818 L22.2564103,23.0681818 C22.2564103,22.1931818 22.9717949,21.4772727 23.8461538,21.4772727 L42.9230769,21.4772727 C43.7974359,21.4772727 44.5128205,22.1931818 44.5128205,23.0681818 L44.5128205,34.9204545 L41.3333333,33.4886364 L41.3333333,24.6590909 L25.4358974,24.6590909 L25.4358974,38.9772727 L31.1589744,38.9772727 Z" id="Shape"></path>
                </g>
                <g id="Group-4" transform="translate(31.000000, 32.613636)">
                    <rect id="Rectangle-4" fill="#FFFFFF" x="1.58974359" y="0" width="29.4102564" height="36.5909091" rx="3.2"></rect>
                    <rect id="Rectangle-3" fill="#FF614A" fill-rule="nonzero" x="0.322916667" y="19.8863636" width="1.58974359" height="14.3181818"></rect>
                    <g id="task10" fill="#FF614A" fill-rule="nonzero">
                        <path d="M28.578125,0 L2.74479167,0 C1.41276042,0 0.322916667,1.09064276 0.322916667,2.42365057 L0.322916667,21.4089134 C0.322916667,21.8532493 0.686197917,22.2167969 1.13020833,22.2167969 C1.57421875,22.2167969 1.9375,21.8532493 1.9375,21.4089134 L1.9375,14.5419034 L29.3854167,14.5419034 L29.3854167,34.7389915 C29.3854167,35.1833274 29.0221354,35.546875 28.578125,35.546875 L21.3125,35.546875 L2.74479167,35.546875 C2.30078125,35.546875 1.9375,35.1833274 1.9375,34.7389915 L1.9375,29.4877486 C1.9375,29.0434126 1.57421875,28.6798651 1.13020833,28.6798651 C0.686197917,28.6798651 0.322916667,29.0434126 0.322916667,29.4877486 L0.322916667,34.7389915 C0.322916667,36.0719993 1.41276042,37.162642 2.74479167,37.162642 L21.3125,37.162642 L28.578125,37.162642 C29.9101562,37.162642 31,36.0719993 31,34.7389915 L31,2.42365057 C31,1.09064276 29.9101562,0 28.578125,0 Z M2.74479167,1.61576705 L28.578125,1.61576705 C29.0221354,1.61576705 29.3854167,1.97931463 29.3854167,2.42365057 L29.3854167,6.46306818 L1.9375,6.46306818 L1.9375,2.42365057 C1.9375,1.97931463 2.30078125,1.61576705 2.74479167,1.61576705 Z M1.9375,12.9261364 L1.9375,6.46306818 L29.3854167,6.46306818 L29.3854167,12.9261364 L1.9375,12.9261364 Z" id="Shape"></path>
                    </g>
                </g>
                <path d="M54.8461538,53.6931818 C54.8461538,53.9318182 54.6235897,54.0909091 54.2897436,54.0909091 L38.7102564,54.0909091 C38.3764103,54.0909091 38.1538462,53.9318182 38.1538462,53.6931818 C38.1538462,53.4545455 38.3764103,53.2954545 38.7102564,53.2954545 L54.2897436,53.2954545 C54.6235897,53.2954545 54.8461538,53.4545455 54.8461538,53.6931818 Z" id="Path" stroke="#FF614A" stroke-width="0.56" fill="#FF614A"></path>
                <path d="M40.5384615,56.875 C40.5384615,56.6363636 40.7552448,56.4772727 41.0804196,56.4772727 L51.9195804,56.4772727 C52.2447552,56.4772727 52.4615385,56.6363636 52.4615385,56.875 C52.4615385,57.1136364 52.2447552,57.2727273 51.9195804,57.2727273 L41.0804196,57.2727273 C40.7552448,57.2727273 40.5384615,57.1136364 40.5384615,56.875 Z" id="Path" stroke="#FF614A" stroke-width="0.56" fill="#FF614A"></path>
                <path d="M54.8461538,60.0568182 C54.8461538,60.2954545 54.6235897,60.4545455 54.2897436,60.4545455 L38.7102564,60.4545455 C38.3764103,60.4545455 38.1538462,60.2954545 38.1538462,60.0568182 C38.1538462,59.8181818 38.3764103,59.6590909 38.7102564,59.6590909 L54.2897436,59.6590909 C54.6235897,59.6590909 54.8461538,59.8181818 54.8461538,60.0568182 Z" id="Path" stroke="#FF614A" stroke-width="0.56" fill="#FF614A"></path>
                <g id="Group-5" transform="translate(39.743590, 36.590909)" stroke="#FF614A" stroke-width="0.5">
                    <path d="M13.0623932,0 L0.45042735,0 C0.18017094,0 0,0.178977273 0,0.447443182 L0,6.71164773 C0,6.98011364 0.18017094,7.15909091 0.45042735,7.15909091 L13.0623932,7.15909091 C13.3326496,7.15909091 13.5128205,6.98011364 13.5128205,6.71164773 L13.5128205,0.447443182 C13.5128205,0.178977273 13.3326496,0 13.0623932,0 Z" id="Path"></path>
                    <polygon id="Path" points="12.6119658 6.26420455 0.900854701 6.26420455 0.900854701 0.894886364 12.6119658 0.894886364"></polygon>
                    <polygon id="Path" points="7.65726496 3.57954545 6.30598291 4.47443182 6.30598291 2.68465909"></polygon>
                </g>
            </g>
        </g>
    </g>
</svg>