<?xml version="1.0" encoding="UTF-8"?>
<svg width="51px" height="51px" viewBox="0 0 51 51" version="1.1" xmlns="http://www.w3.org/2000/svg" xmlns:xlink="http://www.w3.org/1999/xlink">
    <!-- Generator: Sketch 51.3 (57544) - http://www.bohemiancoding.com/sketch -->
    <title>approach1</title>
    <desc>Created with Sketch.</desc>
    <defs></defs>
    <g id="Page-1" stroke="none" stroke-width="1" fill="none" fill-rule="evenodd">
        <g id="увеличение_конверсии-copy-2" transform="translate(-1122.000000, -481.000000)" fill="#FF614C" fill-rule="nonzero">
            <g id="approach1" transform="translate(1122.000000, 481.000000)">
                <path d="M44.146875,6.853125 C44.465625,7.171875 44.625,7.5703125 44.625,7.96875 C44.625,8.3671875 44.465625,8.765625 44.146875,9.084375 C43.828125,9.403125 43.4296875,9.5625 43.03125,9.5625 C42.6328125,9.5625 42.234375,9.403125 41.915625,9.084375 C41.596875,8.765625 41.4375,8.3671875 41.4375,7.96875 C41.4375,7.5703125 41.596875,7.171875 41.915625,6.853125 C42.4734375,6.215625 43.5890625,6.215625 44.146875,6.853125 Z M20.71875,31.875 C20.71875,29.2453125 22.8703125,27.09375 25.5,27.09375 C28.1296875,27.09375 30.28125,29.2453125 30.28125,31.875 C30.28125,34.5046875 28.1296875,36.65625 25.5,36.65625 C22.8703125,36.65625 20.71875,34.5046875 20.71875,31.875 Z M22.3125,31.875 C22.3125,33.628125 23.746875,35.0625 25.5,35.0625 C27.253125,35.0625 28.6875,33.628125 28.6875,31.875 C28.6875,30.121875 27.253125,28.6875 25.5,28.6875 C23.746875,28.6875 22.3125,30.121875 22.3125,31.875 Z M12.1921875,34.584375 L14.34375,33.309375 C14.2640625,32.83125 14.2640625,32.2734375 14.2640625,31.7953125 C14.2640625,31.3171875 14.2640625,30.8390625 14.34375,30.28125 L12.1921875,29.00625 L12.3515625,28.4484375 C12.9890625,26.0578125 14.2640625,23.8265625 16.0171875,22.0734375 L16.415625,21.675 L18.5671875,22.95 C19.3640625,22.3125 20.240625,21.834375 21.1171875,21.4359375 L21.1171875,18.965625 L21.675,18.80625 C24.065625,18.0890625 26.615625,18.0890625 29.0859375,18.80625 L29.64375,18.965625 L29.64375,21.515625 C30.6,21.9140625 31.396875,22.3921875 32.19375,23.0296875 L34.3453125,21.7546875 L34.74375,22.153125 C36.5765625,23.90625 37.8515625,26.1375 38.409375,28.528125 L38.56875,29.0859375 L36.65625,30.3609375 C36.7359375,30.8390625 36.7359375,31.396875 36.7359375,31.875 C36.7359375,32.353125 36.7359375,32.83125 36.65625,33.3890625 L38.8078125,34.6640625 L38.6484375,35.221875 C38.0109375,37.6125 36.7359375,39.84375 34.9828125,41.596875 L34.584375,41.9953125 L32.4328125,40.7203125 C31.6359375,41.3578125 30.759375,41.8359375 29.8828125,42.234375 L29.8828125,44.7046875 L29.325,44.8640625 C27.9703125,45.2625 26.775,45.421875 25.5,45.421875 C24.225,45.421875 23.0296875,45.2625 21.834375,44.94375 L21.2765625,44.784375 L21.2765625,42.234375 C20.3203125,41.8359375 19.5234375,41.3578125 18.7265625,40.7203125 L16.575,41.9953125 L16.1765625,41.596875 C14.34375,39.84375 13.06875,37.6125 12.5109375,35.221875 L12.1921875,34.584375 Z M14.1046875,35.38125 C14.6625,37.134375 15.5390625,38.728125 16.8140625,40.003125 L18.8859375,38.8078125 L19.284375,39.20625 C20.1609375,40.003125 21.196875,40.5609375 22.3125,40.959375 L22.8703125,41.11875 L22.8703125,43.509375 C24.6234375,43.9078125 26.45625,43.9078125 28.209375,43.509375 L28.209375,41.11875 L28.7671875,40.959375 C29.8828125,40.5609375 30.91875,40.003125 31.7953125,39.20625 L32.19375,38.8078125 L34.265625,40.003125 C35.540625,38.6484375 36.4171875,37.0546875 36.975,35.38125 L34.903125,34.1859375 L34.9828125,33.628125 C35.0625,32.990625 35.1421875,32.4328125 35.1421875,31.875 C35.1421875,31.3171875 35.0625,30.759375 34.9828125,30.121875 L34.903125,29.5640625 L36.975,28.36875 C36.4171875,26.615625 35.540625,25.021875 34.265625,23.746875 L32.19375,24.9421875 L31.7953125,24.54375 C30.91875,23.746875 29.8828125,23.1890625 28.7671875,22.790625 L28.209375,22.63125 L28.209375,20.240625 C26.45625,19.8421875 24.6234375,19.8421875 22.8703125,20.240625 L22.8703125,22.63125 L22.3125,22.790625 C21.196875,23.1890625 20.1609375,23.746875 19.284375,24.54375 L18.8859375,24.9421875 L16.734375,23.746875 C15.459375,25.1015625 14.5828125,26.6953125 14.025,28.36875 L16.096875,29.5640625 L16.0171875,30.121875 C15.9375,30.759375 15.8578125,31.3171875 15.8578125,31.875 C15.8578125,32.4328125 15.9375,32.990625 16.0171875,33.628125 L16.096875,34.1859375 L14.1046875,35.38125 Z M51,7.96875 L51,43.03125 C51,47.4140625 47.4140625,51 43.03125,51 L29.484375,51 L7.96875,51 C3.5859375,51 0,47.4140625 0,43.03125 L0,7.96875 C0,3.5859375 3.5859375,0 7.96875,0 L29.484375,0 L43.03125,0 C47.4140625,0 51,3.5859375 51,7.96875 Z M47.8125,15.9375 L3.1875,15.9375 L3.1875,43.03125 C3.1875,45.6609375 5.3390625,47.8125 7.96875,47.8125 L29.484375,47.8125 L43.03125,47.8125 C45.6609375,47.8125 47.8125,45.6609375 47.8125,43.03125 L47.8125,15.9375 Z M47.8125,7.96875 C47.8125,5.3390625 45.6609375,3.1875 43.03125,3.1875 L29.484375,3.1875 L7.96875,3.1875 C5.3390625,3.1875 3.1875,5.3390625 3.1875,7.96875 L3.1875,12.75 L47.8125,12.75 L47.8125,7.96875 Z M37.134375,6.853125 C36.815625,7.171875 36.65625,7.5703125 36.65625,7.96875 C36.65625,8.3671875 36.815625,8.765625 37.134375,9.084375 C37.453125,9.403125 37.8515625,9.5625 38.25,9.5625 C38.6484375,9.5625 39.046875,9.403125 39.365625,9.084375 C39.684375,8.765625 39.84375,8.3671875 39.84375,7.96875 C39.84375,7.5703125 39.684375,7.171875 39.365625,6.853125 C38.8078125,6.215625 37.6921875,6.215625 37.134375,6.853125 Z M32.353125,6.853125 C32.034375,7.171875 31.875,7.5703125 31.875,7.96875 C31.875,8.3671875 32.034375,8.765625 32.353125,9.084375 C32.671875,9.403125 33.0703125,9.5625 33.46875,9.5625 C33.8671875,9.5625 34.265625,9.403125 34.584375,9.084375 C34.903125,8.765625 35.0625,8.3671875 35.0625,7.96875 C35.0625,7.5703125 34.903125,7.171875 34.584375,6.853125 C34.0265625,6.215625 32.9109375,6.215625 32.353125,6.853125 Z M11.15625,6.375 L7.96875,6.375 C7.0921875,6.375 6.375,7.0921875 6.375,7.96875 C6.375,8.8453125 7.0921875,9.5625 7.96875,9.5625 L11.15625,9.5625 C12.0328125,9.5625 12.75,8.8453125 12.75,7.96875 C12.75,7.0921875 12.0328125,6.375 11.15625,6.375 Z" id="Shape"></path>
            </g>
        </g>
    </g>
</svg>