<?xml version="1.0" encoding="UTF-8"?>
<svg width="51px" height="51px" viewBox="0 0 51 51" version="1.1" xmlns="http://www.w3.org/2000/svg" xmlns:xlink="http://www.w3.org/1999/xlink">
    <!-- Generator: Sketch 51.3 (57544) - http://www.bohemiancoding.com/sketch -->
    <title>Group 3</title>
    <desc>Created with Sketch.</desc>
    <defs></defs>
    <g id="Page-1" stroke="none" stroke-width="1" fill="none" fill-rule="evenodd">
        <g id="увеличение_конверсии-copy-2" transform="translate(-538.000000, -589.000000)">
            <g id="Group-3" transform="translate(538.000000, 589.000000)">
                <g id="admin" transform="translate(7.171875, 19.921875)" fill="#FF614A" fill-rule="nonzero">
                    <path d="M8.71875,0.421875 C9.28125,0.984375 9.28125,1.828125 8.71875,2.390625 L4.5,6.609375 C4.21875,6.890625 3.8671875,7.03125 3.515625,7.03125 C3.1640625,7.03125 2.8125,6.890625 2.53125,6.609375 L0.421875,4.5 C-0.140625,3.9375 -0.140625,3.09375 0.421875,2.53125 C0.984375,1.96875 1.828125,1.96875 2.390625,2.53125 L3.515625,3.65625 L6.75,0.421875 C7.3125,-0.140625 8.15625,-0.140625 8.71875,0.421875 Z M8.71875,8.859375 C9.28125,9.421875 9.28125,10.265625 8.71875,10.828125 L4.5,15.046875 C4.21875,15.328125 3.8671875,15.46875 3.515625,15.46875 C3.1640625,15.46875 2.8125,15.328125 2.53125,15.046875 L0.421875,12.9375 C-0.140625,12.375 -0.140625,11.53125 0.421875,10.96875 C0.984375,10.40625 1.828125,10.40625 2.390625,10.96875 L3.515625,12.09375 L6.75,8.859375 C7.3125,8.296875 8.15625,8.296875 8.71875,8.859375 Z M8.71875,17.296875 C9.28125,17.859375 9.28125,18.703125 8.71875,19.265625 L4.5,23.484375 C4.21875,23.765625 3.8671875,23.90625 3.515625,23.90625 C3.1640625,23.90625 2.8125,23.765625 2.53125,23.484375 L0.421875,21.375 C-0.140625,20.8125 -0.140625,19.96875 0.421875,19.40625 C0.984375,18.84375 1.828125,18.84375 2.390625,19.40625 L3.515625,20.53125 L6.75,17.296875 C7.3125,16.734375 8.15625,16.734375 8.71875,17.296875 Z" id="Shape"></path>
                </g>
                <g id="Group-2">
                    <g id="assessment1" fill="#FF614A" fill-rule="nonzero">
                        <path d="M43.03125,0 L29.484375,0 L7.96875,0 C3.5859375,0 0,3.5859375 0,7.96875 L0,43.03125 C0,47.4140625 3.5859375,51 7.96875,51 L29.484375,51 L43.03125,51 C47.4140625,51 51,47.4140625 51,43.03125 L51,7.96875 C51,3.5859375 47.4140625,0 43.03125,0 Z M7.96875,3.1875 L29.484375,3.1875 L43.03125,3.1875 C45.6609375,3.1875 47.8125,5.3390625 47.8125,7.96875 L47.8125,12.75 L3.1875,12.75 L3.1875,7.96875 C3.1875,5.3390625 5.3390625,3.1875 7.96875,3.1875 Z M43.03125,47.8125 L29.484375,47.8125 L7.96875,47.8125 C5.3390625,47.8125 3.1875,45.6609375 3.1875,43.03125 L3.1875,15.9375 L47.8125,15.9375 L47.8125,43.03125 C47.8125,45.6609375 45.6609375,47.8125 43.03125,47.8125 Z M6.375,7.96875 C6.375,7.0921875 7.0921875,6.375 7.96875,6.375 L11.15625,6.375 C12.0328125,6.375 12.75,7.0921875 12.75,7.96875 C12.75,8.8453125 12.0328125,9.5625 11.15625,9.5625 L7.96875,9.5625 C7.0921875,9.5625 6.375,8.8453125 6.375,7.96875 Z M41.915625,9.084375 C41.596875,8.765625 41.4375,8.3671875 41.4375,7.96875 C41.4375,7.5703125 41.596875,7.171875 41.915625,6.853125 C42.4734375,6.2953125 43.5890625,6.2953125 44.146875,6.853125 C44.465625,7.171875 44.625,7.5703125 44.625,7.96875 C44.625,8.3671875 44.465625,8.765625 44.146875,9.084375 C43.828125,9.403125 43.4296875,9.5625 43.03125,9.5625 C42.6328125,9.5625 42.234375,9.403125 41.915625,9.084375 Z M37.134375,9.084375 C36.815625,8.765625 36.65625,8.3671875 36.65625,7.96875 C36.65625,7.5703125 36.815625,7.171875 37.134375,6.853125 C37.771875,6.215625 38.8078125,6.215625 39.365625,6.853125 C39.684375,7.171875 39.84375,7.5703125 39.84375,7.96875 C39.84375,8.3671875 39.684375,8.765625 39.365625,9.084375 C39.046875,9.403125 38.6484375,9.5625 38.25,9.5625 C37.8515625,9.5625 37.453125,9.403125 37.134375,9.084375 Z M32.353125,9.084375 C32.034375,8.765625 31.875,8.3671875 31.875,7.96875 C31.875,7.5703125 32.034375,7.171875 32.353125,6.853125 C32.990625,6.215625 34.0265625,6.215625 34.584375,6.853125 C34.903125,7.171875 35.0625,7.5703125 35.0625,7.96875 C35.0625,8.3671875 34.903125,8.765625 34.584375,9.084375 C34.265625,9.403125 33.8671875,9.5625 33.46875,9.5625 C33.0703125,9.5625 32.671875,9.403125 32.353125,9.084375 Z" id="Shape"></path>
                    </g>
                    <rect id="Rectangle-2" stroke="#FF614A" stroke-width="0.8" fill="#D8D8D8" x="19.525" y="23.509375" width="23.903125" height="1" rx="0.5"></rect>
                    <rect id="Rectangle-2-Copy" stroke="#FF614A" stroke-width="0.8" fill="#D8D8D8" x="19.525" y="31.478125" width="23.903125" height="1" rx="0.5"></rect>
                    <path d="M19.921875,39.446875 C19.702687,39.446875 19.525,39.624562 19.525,39.84375 C19.525,40.062938 19.702687,40.240625 19.921875,40.240625 L37.3313161,40.240625 L43.03125,40.240625 C43.250438,40.240625 43.428125,40.062938 43.428125,39.84375 C43.428125,39.624562 43.250438,39.446875 43.03125,39.446875 L19.921875,39.446875 Z" id="Rectangle-2-Copy-2" stroke="#FF614A" stroke-width="0.8" fill="#FF614A"></path>
                </g>
            </g>
        </g>
    </g>
</svg>