<?xml version="1.0" encoding="UTF-8"?>
<svg width="73px" height="73px" viewBox="0 0 73 73" version="1.1" xmlns="http://www.w3.org/2000/svg" xmlns:xlink="http://www.w3.org/1999/xlink">
    <!-- Generator: Sketch 51.3 (57544) - http://www.bohemiancoding.com/sketch -->
    <title>cms-2</title>
    <desc>Created with Sketch.</desc>
    <defs></defs>
    <g id="Page-1" stroke="none" stroke-width="1" fill="none" fill-rule="evenodd">
        <g id="увеличение_конверсии-copy-2" transform="translate(-538.000000, -482.000000)" fill="#FF614A" fill-rule="nonzero">
            <g id="cms-2" transform="translate(538.000000, 482.000000)">
                <path d="M6.08250171,7.60416667 C6.08250171,6.76770833 6.76678315,6.08333333 7.60312714,6.08333333 L10.644378,6.08333333 C11.480722,6.08333333 12.1650034,6.76770833 12.1650034,7.60416667 C12.1650034,8.440625 11.480722,9.125 10.644378,9.125 L7.60312714,9.125 C6.76678315,9.125 6.08250171,8.440625 6.08250171,7.60416667 Z M41.0568866,9.125 C41.4370429,9.125 41.8171993,8.97291667 42.1213244,8.66875 C42.4254494,8.36458333 42.577512,7.984375 42.577512,7.60416667 C42.577512,7.22395833 42.4254494,6.84375 42.1213244,6.53958333 C41.5891055,6.00729167 40.5246677,6.00729167 39.9924488,6.53958333 C39.6883237,6.84375 39.5362611,7.22395833 39.5362611,7.60416667 C39.5362611,7.984375 39.6883237,8.36458333 39.9924488,8.66875 C40.2965738,8.97291667 40.6767302,9.125 41.0568866,9.125 Z M36.4950103,9.125 C36.8751666,9.125 37.255323,8.97291667 37.5594481,8.66875 C37.8635732,8.36458333 38.0156357,7.984375 38.0156357,7.60416667 C38.0156357,7.22395833 37.8635732,6.84375 37.5594481,6.53958333 C37.0272292,6.00729167 35.9627914,6.00729167 35.4305725,6.53958333 C35.1264474,6.84375 34.9743848,7.22395833 34.9743848,7.60416667 C34.9743848,7.984375 35.1264474,8.36458333 35.4305725,8.66875 C35.7346976,8.97291667 36.1148539,9.125 36.4950103,9.125 Z M31.933134,9.125 C32.3132903,9.125 32.6934467,8.97291667 32.9975718,8.66875 C33.3016969,8.36458333 33.4537594,7.984375 33.4537594,7.60416667 C33.4537594,7.22395833 33.3016969,6.84375 32.9975718,6.53958333 C32.4653529,6.00729167 31.4009151,6.00729167 30.8686962,6.53958333 C30.5645711,6.84375 30.4125086,7.22395833 30.4125086,7.60416667 C30.4125086,7.984375 30.5645711,8.36458333 30.8686962,8.66875 C31.1728213,8.97291667 31.5529776,9.125 31.933134,9.125 Z M16.7268797,20.53125 L7.60312714,20.53125 C7.14693951,20.53125 6.84281443,20.8354167 6.84281443,21.2916667 C6.84281443,21.7479167 7.14693951,22.0520833 7.60312714,22.0520833 L16.7268797,22.0520833 C17.1830673,22.0520833 17.4871924,21.7479167 17.4871924,21.2916667 C17.4871924,20.8354167 17.1830673,20.53125 16.7268797,20.53125 Z M16.7268797,26.6145833 L7.60312714,26.6145833 C7.14693951,26.6145833 6.84281443,26.91875 6.84281443,27.375 C6.84281443,27.83125 7.14693951,28.1354167 7.60312714,28.1354167 L16.7268797,28.1354167 C17.1830673,28.1354167 17.4871924,27.83125 17.4871924,27.375 C17.4871924,26.91875 17.1830673,26.6145833 16.7268797,26.6145833 Z M16.7268797,32.6979167 L7.60312714,32.6979167 C7.14693951,32.6979167 6.84281443,33.0020833 6.84281443,33.4583333 C6.84281443,33.9145833 7.14693951,34.21875 7.60312714,34.21875 L16.7268797,34.21875 C17.1830673,34.21875 17.4871924,33.9145833 17.4871924,33.4583333 C17.4871924,33.0020833 17.1830673,32.6979167 16.7268797,32.6979167 Z M16.7268797,38.78125 L7.60312714,38.78125 C7.14693951,38.78125 6.84281443,39.0854167 6.84281443,39.5416667 C6.84281443,39.9979167 7.14693951,40.3020833 7.60312714,40.3020833 L16.7268797,40.3020833 C17.1830673,40.3020833 17.4871924,39.9979167 17.4871924,39.5416667 C17.4871924,39.0854167 17.1830673,38.78125 16.7268797,38.78125 Z M57.0234535,44.1041667 C57.0234535,36.95625 51.2450769,31.1770833 44.0981374,31.1770833 C43.6419498,31.1770833 43.3378247,31.48125 43.3378247,31.9375 C43.3378247,32.39375 43.6419498,32.6979167 44.0981374,32.6979167 C50.4087329,32.6979167 55.5028281,37.7927083 55.5028281,44.1041667 C55.5028281,44.5604167 55.8069532,44.8645833 56.2631408,44.8645833 C56.7193285,44.8645833 57.0234535,44.5604167 57.0234535,44.1041667 Z M72.5338329,72.54375 C72.2297078,72.8479167 71.8495515,73 71.4693951,73 C71.0892388,73 70.7090824,72.8479167 70.4049573,72.54375 L56.9474223,59.084375 C53.3739525,62.2020833 48.8881075,63.875 44.0981374,63.875 C38.8519797,63.875 33.8339158,61.821875 30.1083835,58.0958333 C27.447289,55.434375 25.6985697,52.1645833 24.8622257,48.6666667 L7.60312714,48.6666667 C3.42140721,48.6666667 0,45.2447917 0,41.0625 L0,7.60416667 C0,3.421875 3.42140721,0 7.60312714,0 L28.1315704,0 L41.0568866,0 C45.2386065,0 48.6600137,3.421875 48.6600137,7.60416667 L48.6600137,24.865625 C52.2334835,25.7020833 55.4267968,27.5270833 58.0878913,30.1125 C65.4629247,37.4885417 65.7670498,49.1989583 59.1523291,56.9552083 L72.6098642,70.4145833 C73.1420831,71.0229167 73.1420831,71.9354167 72.5338329,72.54375 Z M3.04125086,7.60416667 L3.04125086,12.1666667 L45.6187628,12.1666667 L45.6187628,7.60416667 C45.6187628,5.09479167 43.5659185,3.04166667 41.0568866,3.04166667 L28.1315704,3.04166667 L7.60312714,3.04166667 C5.09409518,3.04166667 3.04125086,5.09479167 3.04125086,7.60416667 Z M24.4060381,45.625 C24.2539756,43.8760417 24.3300068,42.0510417 24.7101632,40.3020833 L22.8093814,40.3020833 C22.3531938,40.3020833 22.0490687,39.9979167 22.0490687,39.5416667 L22.0490687,21.2916667 C22.0490687,20.8354167 22.3531938,20.53125 22.8093814,20.53125 L41.2849804,20.53125 C41.741168,20.53125 42.0452931,20.8354167 42.0452931,21.2916667 L42.0452931,24.409375 C42.7295745,24.3333333 43.413856,24.3333333 44.1741687,24.3333333 C44.7063876,24.3333333 45.1625752,24.3333333 45.6947941,24.409375 L45.6947941,15.2083333 L3.04125086,15.2083333 L3.04125086,41.0625 C3.04125086,43.571875 5.09409518,45.625 7.60312714,45.625 L24.4060381,45.625 Z M30.1083835,30.1125 C32.9975718,27.2229167 36.5710415,25.3979167 40.4486364,24.6375 L40.4486364,22.0520833 L23.5696941,22.0520833 L23.5696941,38.78125 L25.0903196,38.78125 C25.9266635,35.5875 27.5993515,32.621875 30.1083835,30.1125 Z M44.0981374,60.8333333 C48.5839824,60.8333333 52.7657024,59.084375 55.9590157,55.9666667 C62.4977051,49.4270833 62.4977051,38.8572917 55.9590157,32.3177083 C52.7657024,29.1239583 48.5839824,27.375 44.0981374,27.375 C39.6122924,27.375 35.4305725,29.1239583 32.2372591,32.2416667 C25.6985697,38.78125 25.6985697,49.3510417 32.2372591,55.890625 C35.4305725,59.084375 39.6122924,60.8333333 44.0981374,60.8333333 Z" id="Shape"></path>
            </g>
        </g>
    </g>
</svg>