<svg xmlns="http://www.w3.org/2000/svg" width="32" height="32" viewBox="0 0 32 32"><g><g><path fill="#16479e" d="M29.1 10.1L26 13.2l-2.1-2.1 1.6-1.6.5.5 2-2-4-4-2 2 .5.5-1.6 1.6L18.8 6l3.1-3.1c.6-.6 1.3-.9 2.1-.9s1.6.3 2.1.9L29 5.8c1.3 1.2 1.3 3.1.1 4.3zm-10 10l-.121-.121-.871-3.087.392-.392.5.5 2-2-.5-.5 1.6-1.6 2.1 2.1zm-.121-.121L20 23.6l-5-5-6.2 6.2-1.6-1.6 9-9 1.6 1.6.308 1.092L17 18zM8.6 26l-.6.6L5.4 24l.6-.6zm7.8-13l.6-.6 2.6 2.6-.6.6zm8.4-4.2l-5 5-1.6-1.6 5-5zM23.4 6l.6-.6L26.6 8l-.6.6zM10.1 29.1c-.6.6-1.3.9-2.1.9s-1.6-.3-2.1-.9L3 26.2c-1.2-1.2-1.2-3.1 0-4.3L17 7.8l2.1 2.1-1.6 1.6-.5-.5-2 2 .5.5-9 9L6 22l-2 2 4 4 2-2-.5-.5L15 20l2.1 2.1zM30.5 4.4l-2.9-2.9C26.6.5 25.3 0 24 0c-1.3 0-2.6.5-3.6 1.5L17 5 1.5 20.5c-2 2-2 5.1 0 7.1l2.9 2.9c1 1 2.3 1.5 3.6 1.5 1.3 0 2.6-.5 3.6-1.5l7-7L20 25l2-2-1.5-1.5 10-10c2-1.9 2-5.1 0-7.1z"/></g></g></svg>