<svg xmlns="http://www.w3.org/2000/svg" width="24" height="32" viewBox="0 0 24 32"><g><g><path fill="#16479e" d="M19.5 26c.8 0 1.5.7 1.5 1.5s-.7 1.5-1.5 1.5-1.5-.7-1.5-1.5.7-1.5 1.5-1.5zm0 1c-.3 0-.5.2-.5.5s.2.5.5.5.5-.2.5-.5-.2-.5-.5-.5zm-15-1c.8 0 1.5.7 1.5 1.5S5.3 29 4.5 29 3 28.3 3 27.5 3.7 26 4.5 26zm0 1c-.3 0-.5.2-.5.5s.2.5.5.5.5-.2.5-.5-.2-.5-.5-.5zm15-24c.8 0 1.5.7 1.5 1.5S20.3 6 19.5 6 18 5.3 18 4.5 18.7 3 19.5 3zm0 1c-.3 0-.5.2-.5.5s.2.5.5.5.5-.2.5-.5-.2-.5-.5-.5zm-15-1C5.3 3 6 3.7 6 4.5S5.3 6 4.5 6 3 5.3 3 4.5 3.7 3 4.5 3zm0 1c-.3 0-.5.2-.5.5s.2.5.5.5.5-.2.5-.5-.2-.5-.5-.5zM12 7c2.8 0 5 2.2 5 5 0 1.7-.8 3.1-2 4v6c0 1.7-1.3 3-3 3s-3-1.3-3-3v-6c-1.4-1.1-2.3-2.9-1.9-4.9.3-2 1.9-3.6 3.8-4 .4-.1.8-.1 1.1-.1zm0 2h-.7c-1.2.3-2.1 1.2-2.3 2.4-.2 1.2.3 2.3 1.2 3l.8.6v7c0 .6.4 1 1 1s1-.4 1-1v-7l.8-.6c.8-.6 1.2-1.5 1.2-2.4 0-1.7-1.3-3-3-3zm8-9c2.2 0 4 1.8 4 4v24c0 2.2-1.8 4-4 4H4c-2.2 0-4-1.8-4-4V4c0-2.2 1.8-4 4-4zm0 2H4c-1.1 0-2 .9-2 2v24c0 1.1.9 2 2 2h16c1.1 0 2-.9 2-2V4c0-1.1-.9-2-2-2z"/></g></g></svg>