<svg xmlns="http://www.w3.org/2000/svg" width="26" height="32" viewBox="0 0 26 32"><g><g><path fill="#16479e" d="M13 23c-.6 0-1 .4-1 1s.4 1 1 1 1-.4 1-1-.4-1-1-1zm7-16c-.6 0-1 .4-1 1s.4 1 1 1 1-.4 1-1-.4-1-1-1zM6 7c-.6 0-1 .4-1 1s.4 1 1 1 1-.4 1-1-.4-1-1-1zm8.3 5.5l-.3.3V17c0 .6-.4 1-1 1s-1-.4-1-1v-4.2l-.3-.3c-.5-.5-.8-1.1-.6-1.8.1-.8.8-1.5 1.6-1.6h.4c1.1 0 2 .9 2 2-.1.5-.3 1-.8 1.4zm-2-5.4c-1.6.3-2.9 1.6-3.2 3.2-.2 1.2.1 2.4.9 3.3V17c0 1.7 1.3 3 3 3s3-1.3 3-3v-3.4c.6-.7 1-1.7 1-2.6 0-2.4-2.2-4.4-4.7-3.9zm.7 19.5C7.8 21.4 4.6 14.3 4.1 7c2-1.3 5.4-3 8.9-3s6.9 1.8 8.9 3c-.5 7.3-3.7 14.4-8.9 19.6zM13 3C8.9 3 4.9 5.3 3 6.5c.4 8.1 4 15.9 10 21.5 5.9-5.6 9.6-13.4 10-21.5C21.1 5.3 17.1 3 13 3zm0 26.4C6.3 23.4 2.3 14.9 2 6c1.7-1.2 6.3-4 11-4s9.2 2.8 11 4c-.3 8.9-4.3 17.4-11 23.4zM13 0C6.2 0 0 5 0 5c0 8.7 3.7 19.5 13 27 9.3-7.5 13-18.3 13-27 0 0-6.2-5-13-5z"/></g></g></svg>