<svg xmlns="http://www.w3.org/2000/svg" width="32" height="32" viewBox="0 0 32 32"><g><g><path fill="#16479e" d="M20.7 13.5c-.4.5-.8 1.1-1.2 1.7-.4.6-.8 1.2-1.1 1.8h2.3zm2.2-2.7V17H24v1.8h-1.1v2.3h-2.2v-2.3h-4.5v-1.6c.2-.4.5-.9.8-1.5.3-.6.7-1.1 1.1-1.7.4-.6.8-1.2 1.3-1.7.4-.6.9-1.1 1.3-1.5zm-11.4 5.4c-.2 0-.5 0-.7.1-.2 0-.4.1-.6.2v.4c0 .4 0 .7.1 1 0 .3.1.6.3.8.1.2.3.4.5.6.2.1.4.2.7.2.2 0 .5-.1.6-.2.2-.1.3-.2.4-.4.1-.2.2-.3.3-.5.1-.2.1-.4.1-.6 0-.5-.1-.9-.4-1.2-.2-.2-.7-.4-1.3-.4zm.3-1.7c.6 0 1.2.1 1.7.3.5.2.8.4 1.1.7.3.3.5.6.6 1 .1.4.2.8.2 1.3 0 .4-.1.8-.2 1.2-.1.4-.4.8-.7 1.1-.3.3-.7.6-1.1.8-.5.2-1 .3-1.6.3-1.2 0-2.2-.4-2.8-1.2-.6-.8-1-1.9-1-3.3 0-1 .2-1.9.5-2.6.3-.8.7-1.4 1.3-1.9.6-.5 1.3-.9 2.1-1.2.8-.3 1.7-.4 2.7-.4 0 .3 0 .6.1.9.1.3 0 .6.1.9-.5 0-1 .1-1.4.1-.4.1-.8.2-1.2.4-.4.2-.7.4-.9.7-.3.3-.5.6-.6 1 .2-.1.4-.2.7-.2 0 .1.2.1.4.1zM5 15c.6 0 1 .4 1 1s-.4 1-1 1-1-.4-1-1 .4-1 1-1zm22 0c.6 0 1 .4 1 1s-.4 1-1 1-1-.4-1-1 .4-1 1-1zM16 4c.6 0 1 .4 1 1s-.4 1-1 1-1-.4-1-1 .4-1 1-1zm0 22c.6 0 1 .4 1 1s-.4 1-1 1-1-.4-1-1 .4-1 1-1zm0-26c8.8 0 16 7.2 16 16s-7.2 16-16 16S0 24.8 0 16 7.2 0 16 0zm0 2C8.3 2 2 8.3 2 16s6.3 14 14 14 14-6.3 14-14S23.7 2 16 2z"/></g></g></svg>