<svg xmlns="http://www.w3.org/2000/svg" width="32" height="28" viewBox="0 0 32 28"><g><g><path fill="#16479e" d="M13.5 4c-.798 0-1.496.7-1.496 1.5S12.702 7 13.499 7c.798 0 1.496-.7 1.496-1.5S14.297 4 13.499 4zm14 15.5C25.9 21.1 23.8 22 21.5 22c-2.3 0-4.4-.9-5.999-2.5-3.7-3.6-7.399-13.5-4.5-16.5.9-.9 2.3-1 3.4-1C18.902 2 24.9 4.9 27.5 7.5c1.6 1.6 2.5 3.7 2.5 6s-.9 4.4-2.5 6zM9.998 26C5.599 26 2 22.4 2 18c0-3.9 2.799-7.1 6.497-7.8.1.3.2.6.3 1C5.5 11.7 3 14.6 3 18c0 3.9 3.1 7 6.998 7 2.299 0 4.298-1.1 5.598-2.8.3.2.6.4.9.5-1.5 2-3.8 3.3-6.498 3.3zm0-6c.999 0 1.898-.8 1.998-1.8.7 1.1 1.4 2 2.099 2.7.2.2.5.4.7.6-1.1 1.5-2.799 2.5-4.797 2.5C6.7 24 4 21.3 4 18c0-3 2.199-5.5 4.997-5.9.5 1.4 1.1 2.8 1.7 4.1-.2-.1-.4-.2-.7-.2-1.1 0-2 .9-2 2s.9 2 2 2zM28.909 6.1c-2.9-3-9.503-6.1-14.504-6.1-1.901 0-3.602.5-4.802 1.6-1.5 1.5-1.8 3.9-1.5 6.6C3.5 9.1 0 13.1 0 18c0 5.5 4.501 10 10.003 10 3.501 0 6.502-1.8 8.303-4.5 1 .3 2.1.5 3.2.5 2.702 0 5.402-1 7.403-3.1a10.44 10.44 0 0 0 0-14.8z"/></g></g></svg>