<svg xmlns="http://www.w3.org/2000/svg" width="29" height="29" viewBox="0 0 29 29"><g><g><path fill="#16479e" d="M22.098 18.455l-3.643 3.643a.88.88 0 0 0 0 1.275.984.984 0 0 0 .638.273.984.984 0 0 0 .637-.273l3.643-3.643a.88.88 0 0 0 0-1.275c-.364-.364-1.002-.364-1.275 0zM8.636 8.636c2.091-2 4.819-3.181 7.728-3.181S22 6.545 24.09 8.636c1.545 1.546 2.545 3.546 3 5.637C26.18 13.455 25 13 23.545 13c-2.363 0-5.09 1.273-7.181 3.364-1.637 1.636-2.819 3.727-3.182 5.727-.364 2 0 3.818 1.09 5-2.09-.455-4-1.455-5.636-3a10.919 10.919 0 0 1 0-15.455zm-6.818 2.819C2 6.273 6.182 2 11.455 1.818l2.09 2.091a13.123 13.123 0 0 0-6.181 3.455C5.636 9.09 4.454 11.273 4 13.545zm21.455 13.363c-.091 0-.091.091-.182.091-.273.182-.455.364-.727.546l-.091.09c-.273.182-.455.273-.728.455-.09 0-.09.09-.181.09l-.546.274C19.91 26.727 19 27 18.091 27c-.727 0-1.727-.182-2.455-.91-.818-.817-1.09-2.09-.818-3.635.364-1.637 1.273-3.364 2.727-4.728 1.819-1.818 4-2.818 5.91-2.818.727 0 1.727.182 2.454.91.818.817 1.091 2.09.818 3.636-.09.454-.182.909-.363 1.272a9.088 9.088 0 0 1-1.546 2.546l-.09.09c-.183.273-.455.546-.728.819-.182.182-.455.363-.727.636zm-.728 2.637c.182-.091.455-.273.637-.364.09-.091.182-.091.363-.182.273-.182.455-.364.728-.545.09-.091.182-.091.272-.182.273-.273.637-.546.91-.818.272-.273.545-.546.818-.91 0-.09.09-.09.09-.181.546-.637 1-1.364 1.364-2 .182-.273.273-.546.364-.91 2-4.636 1.09-10.272-2.727-14a12.806 12.806 0 0 0-9-3.727h-.546L12.182 0h-.364A11.795 11.795 0 0 0 0 11.818v.364l3.636 3.636c-.09 3.455 1.091 6.91 3.728 9.546a12.806 12.806 0 0 0 9 3.727c1.909 0 3.727-.455 5.363-1.182.091-.09.273-.09.364-.182.182-.09.273-.182.454-.272z"/></g></g></svg>