<svg xmlns="http://www.w3.org/2000/svg" width="30" height="30" viewBox="0 0 30 30"><g><g><path fill="#16479e" d="M27.927 16.566c-.47 2.535-1.972 5.07-4.131 7.23-2.723 2.723-6.103 4.319-9.013 4.319-1.597 0-3.005-.47-3.944-1.502-1.314-1.315-1.784-3.286-1.314-5.728.47-2.535 1.971-5.07 4.13-7.23 2.724-2.722 6.104-4.318 9.014-4.318 1.596 0 3.005.47 3.944 1.502 1.314 1.22 1.784 3.286 1.314 5.727zm-25.73-8.82c-.47-.47-.375-1.317-.281-1.787.188-.846.751-1.786 1.503-2.633a4.723 4.723 0 0 1 2.63-1.504c.376 0 1.127-.094 1.691.376l4.79 4.795c-1.032.659-2.066 1.505-3.005 2.445-.94.94-1.785 1.975-2.443 3.009zm15.97-1.04c2.067-.375 3.852-.093 5.073.752h-.564c-3.475 0-7.327 1.785-10.333 4.885-2.442 2.442-4.04 5.355-4.697 8.267-.188.94-.188 1.785-.188 2.63-.94-1.315-1.221-3.1-.751-5.167.47-2.536 1.972-5.072 4.133-7.233 2.16-2.16 4.79-3.664 7.327-4.133zm9.864 2.725l-2.818-2.818c-1.785-1.691-4.415-2.349-7.421-1.785-1.222.282-2.349.657-3.476 1.221L9.056.882C7.457-.715 4.357-.245 2.01 2.01-.245 4.358-.715 7.458.882 9.055l5.167 5.167c-.564 1.127-1.033 2.348-1.221 3.476-.564 3.006 0 5.636 1.785 7.42l2.818 2.819c1.315 1.315 3.1 1.973 5.26 1.973 3.476 0 7.328-1.785 10.334-4.885 2.442-2.443 4.04-5.355 4.697-8.267.657-2.912 0-5.542-1.691-7.327z"/></g></g></svg>