<svg xmlns="http://www.w3.org/2000/svg" width="36" height="19" viewBox="0 0 36 19"><g><g><path fill="#16479e" d="M5.559 14.386H4.5v1.076h1.059zm0-10.857H4.5v1.075h1.059zm28.35 6.275c0 .6-.477 1.089-1.059 1.089l-27.026.544V7.573l27.026.544c.582 0 1.059.49 1.059 1.089zM3.706 12.858c.053.434.397.732.82.705l2.621-.054v2.224c0 .163-.106.271-.265.271H3.176c-.158 0-.264-.108-.264-.27V3.256c0-.163.106-.271.264-.271h3.706c.16 0 .265.108.265.27v2.252L4.5 5.454h-.106a.747.747 0 0 0-.688.786v6.618zM9 5.534l-.794-.027V2.713c0-.46-.344-.813-.794-.813H2.647c-.45 0-.794.352-.794.813v13.564c0 .46.344.814.794.814h4.765c.45 0 .794-.353.794-.814v-2.794L9 13.456v3.363c0 .597-.476 1.085-1.059 1.085H2.118c-.583 0-1.06-.488-1.06-1.085V2.171c0-.597.477-1.085 1.06-1.085H7.94C8.524 1.086 9 1.574 9 2.17zm27 5.323V8.143c0-1.194-.953-2.172-2.118-2.172L10.06 5.537V1.9c0-1.059-.82-1.9-1.853-1.9H1.853C.82 0 0 .841 0 1.9v15.2C0 18.159.82 19 1.853 19h6.353c1.032 0 1.853-.841 1.853-1.9v-3.637l23.823-.434c1.165 0 2.118-.978 2.118-2.172z"/></g></g></svg>