<svg xmlns="http://www.w3.org/2000/svg" width="24" height="32" viewBox="0 0 24 32"><g><g><path fill="#16479e" d="M5 28c-.6 0-1-.4-1-1s.4-1 1-1 1 .4 1 1-.4 1-1 1zm0-3c-1.1 0-2 .9-2 2s.9 2 2 2 2-.9 2-2-.9-2-2-2zM5 4c.6 0 1 .4 1 1s-.4 1-1 1-1-.4-1-1 .4-1 1-1zm0 3c1.1 0 2-.9 2-2s-.9-2-2-2-2 .9-2 2 .9 2 2 2zm15.1 10.7L10 16.5v-1.1l10.1-1.1c1-.1 1.9.7 1.9 1.7s-.9 1.8-1.9 1.7zM7.7 25.8c.2.4.3.8.3 1.2 0 1.7-1.3 3-3 3s-3-1.3-3-3c0-.4.1-.8.3-1.2L3.5 23H2v-3c.8.6 1.9 1 3 1s2.2-.4 3-1v3H6.5zM8 16c0 1.7-1.3 3-3 3s-3-1.3-3-3 1.3-3 3-3 3 1.3 3 3zM2.3 6.2C2.1 5.8 2 5.4 2 5c0-1.7 1.3-3 3-3s3 1.3 3 3c0 .4-.1.8-.3 1.2L6.5 9H8v3c-.8-.6-1.9-1-3-1s-2.2.4-3 1V9h1.5zm17.6 6.1L10 13.4V7h-.4c.2-.6.4-1.3.4-2 0-2.8-2.2-5-5-5S0 2.2 0 5c0 .7.2 1.4.4 2H0v18h.4c-.2.6-.4 1.3-.4 2 0 2.8 2.2 5 5 5s5-2.2 5-5c0-.7-.2-1.4-.4-2h.4v-6.4l9.9 1.1h.4c2 0 3.7-1.7 3.7-3.7 0-2.2-1.9-3.9-4.1-3.7z"/></g></g></svg>