<svg xmlns="http://www.w3.org/2000/svg" width="32" height="16" viewBox="0 0 32 16"><g><g><path fill="#16479e" d="M27 6c-.3 0-.5.2-.5.5s.2.5.5.5c.6 0 1 .4 1 1 0 .3.2.5.5.5s.5-.2.5-.5c0-1.1-.9-2-2-2zm.4 5h-.2L11.9 8.8c.1-.3.1-.5.1-.8 0-.3 0-.5-.1-.8L27.2 5h.2C28.8 5 30 6.3 30 8s-1.2 3-2.6 3zM8 10c-1.1 0-2-.9-2-2s.9-2 2-2 2 .9 2 2-.9 2-2 2zm0 4c-3.3 0-6-2.7-6-6s2.7-6 6-6c2.2 0 4.1 1.2 5.2 3l-2.2.3C10.2 4.5 9.2 4 8 4 5.8 4 4 5.8 4 8s1.8 4 4 4c1.2 0 2.2-.5 2.9-1.3l2.2.3c-1 1.8-2.9 3-5.1 3zM27.4 3H27L15.3 4.7C14 1.9 11.2 0 8 0 3.6 0 0 3.6 0 8s3.6 8 8 8c3.2 0 6-1.9 7.3-4.7L27 13h.4c2.5 0 4.6-2.2 4.6-5s-2.1-5-4.6-5z"/></g></g></svg>