<svg xmlns="http://www.w3.org/2000/svg" width="32" height="32" viewBox="0 0 32 32"><g><g><path fill="#16479e" d="M16 13h1v-1h-1zm0-9h1V3h-1zM3 21h1v-1H3zm0-9h1v-1H3zm13.7 17.7c-.2.3-.5.3-.7.3-.2 0-.5 0-.7-.3L9 23.4c.6-.3 1.1-.8 1.4-1.4l6.3 6.3c.3.2.3.5.3.7 0 .2 0 .5-.3.7zM2 10h5c1.1 0 2 .9 2 2v8c0 1.1-.9 2-2 2H2zm20 5.4c.6-.3 1.1-.8 1.4-1.4l6.3 6.3c.1.1.1.1.1.2-.3-.5-.9-.6-1.4-.3l-1.1.7zM15 2h5c1.1 0 2 .9 2 2v8c0 1.1-.9 2-2 2h-5zm16.1 16.9L24 11.8V4c0-2.2-1.8-4-4-4h-5c-1.1 0-2 .9-2 2v12c0 1.1.9 2 2 2h4.8l5.9 5.9-7.7 4.8-7-7V12c0-2.2-1.8-4-4-4H2c-1.1 0-2 .9-2 2v12c0 1.1.9 2 2 2h4.8l7.1 7.1c.6.6 1.4.9 2.1.9.7 0 1.5-.3 2.1-.9.7-.7 1-1.8.8-2.7l8.2-5c.5.4 1.2.7 1.9.7.8 0 1.5-.3 2.1-.9 1.2-1.2 1.2-3.1 0-4.3z"/></g></g></svg>