<svg xmlns="http://www.w3.org/2000/svg" width="30" height="30" viewBox="0 0 30 30"><g><g><path fill="#16479e" d="M27.144 8.25c-.189.188-.377.375-.66.469.189-.656.189-1.125.283-1.5.847-1.125.753-2.625-.282-3.657-.565-.468-1.224-.75-1.977-.75-1.412 0-1.976.563-2.164 1.126-.377.937-.66 1.78-.848 2.624-.094.282-.188.563-.188.844-.282-.562-.47-1.125-.47-1.781 0-1.031.376-1.969 1.13-2.625.564-.75 1.505-1.125 2.54-1.125 1.036 0 1.977.375 2.636 1.125.658.656 1.035 1.594 1.035 2.625S27.802 7.5 27.144 8.25zm-8.848 10.125c-6.4 6.375-11.105 6.469-11.294 6.469h-.376l-.282.281a.912.912 0 0 1-1.318 0c-.282-.281-.377-.656-.377-1.031 0-.094.095-.094.095-.094.752-.375 1.505-.563 2.258-.75 2.447-.656 5.177-1.406 9.977-6.188 4.894-4.875 5.553-7.593 6.212-10.03.282-.845.47-1.595.753-2.345h.564c.283 0 .47.094.66.282a.904.904 0 0 1 0 1.312l-.283.282v.375s-.094 4.968-6.589 11.437zM8.132 27c-.66.75-1.6 1.125-2.636 1.125-1.035 0-1.976-.375-2.635-1.125-1.412-1.5-1.412-3.844 0-5.25.753-.656 1.694-1.125 2.635-1.125.66 0 1.318.188 1.883.563-.283.093-.659.187-.941.28-.847.188-1.694.47-2.636.845-.564.28-1.035.843-1.13 1.5-.187.937.19 1.968.848 2.625.565.562 1.224.843 1.976.843.66 0 1.224-.187 1.695-.562.282 0 .753-.094 1.223-.188a.515.515 0 0 1-.282.469zm20.33-25.313C27.331.563 25.92 0 24.507 0c-1.412 0-2.823.563-3.953 1.688a5.56 5.56 0 0 0-.094 7.78c-.753 1.595-2.07 3.563-4.706 6.282-2.635 2.625-4.611 3.938-6.211 4.688-1.13-1.125-2.542-1.688-4.048-1.688-1.411 0-2.823.563-3.952 1.688-2.165 2.156-2.165 5.718 0 7.968C2.673 29.438 4.084 30 5.496 30s2.824-.563 3.953-1.688c.753-.75 1.224-1.593 1.412-2.53 2.259-.938 5.27-2.626 8.659-6.095 3.388-3.375 5.176-6.375 6.118-8.625 1.035-.187 1.976-.75 2.73-1.5a5.503 5.503 0 0 0 .093-7.874z"/></g></g></svg>