<svg xmlns="http://www.w3.org/2000/svg" width="25" height="33" viewBox="0 0 25 33"><g><g><path fill="#16479e" d="M4.167 28.875H3.125v1.031h1.042zm17.708 0h-1.042v1.031h1.042zm0-13.406h-1.042V16.5h1.042zm-17.708 0H3.125V16.5h1.042zm9.375 4.125h-2.084v6.187h2.084zm-1.037-1.032c2.294 0 4.172 1.857 4.172 4.125 0 2.27-1.878 4.125-4.172 4.125-2.294 0-4.172-1.856-4.172-4.125 0-2.268 1.878-4.125 4.172-4.125zm-.005 9.282c2.917 0 5.208-2.269 5.208-5.157 0-2.887-2.291-5.156-5.208-5.156-2.917 0-5.208 2.269-5.208 5.157 0 2.887 2.291 5.156 5.208 5.156zm10.427 3.093H2.083v-16.5h20.844zM9.375 9.282c0-1.753 1.352-3.094 3.12-3.094s3.12 1.341 3.12 3.094v3.094h-6.24zm-4.167.007c0-4.026 3.23-7.226 7.292-7.226 4.063 0 7.292 3.2 7.292 7.226v3.097h-2.084V9.288c0-2.89-2.291-5.161-5.208-5.161-2.917 0-5.208 2.271-5.208 5.161v3.097H5.208zm16.667 3.087V9.281C21.875 4.125 17.708 0 12.5 0S3.125 4.125 3.125 9.281v3.094H0V33h25V12.375z"/></g></g></svg>