<svg xmlns="http://www.w3.org/2000/svg" width="28" height="32" viewBox="0 0 28 32"><g><g><path fill="#16479e" d="M8 28H7v1h1zm17 0h-1v1h1zm0-25h-1v1h1zM8 3H7v1h1zm14 21.1H10V23h12zm1-2.1H9v3.1h14zm-1-3h-2v-2h2zm1-3h-4v4h4zm-6 3h-2v-2h2zm1-3h-4v4h4zm-6 3h-2v-2h2zm1-3H9v4h4zm9-2h-2v-2h2zm1-3h-4v4h4zm-6 3h-2v-2h2zm1-3h-4v4h4zm-6 3h-2v-2h2zm1-3H9v4h4zm9-2h-2V7h2zm1-3h-4v4h4zm-6 3h-2V7h2zm1-3h-4v4h4zm-6 3h-2V7h2zm1-3H9v4h4zm13 24H6V2h20zM2 21v-2h2v2zm0-8v-2h2v2zM4 0v9H0v6h4v2H0v6h4v9h24V0z"/></g></g></svg>