<svg xmlns="http://www.w3.org/2000/svg" width="34" height="25" viewBox="0 0 34 25"><g><g><path fill="#16479e" d="M20.045 13H19.03v2h1.015zm-2.284 1c0-.975.787-1.75 1.776-1.75.99 0 1.776.775 1.776 1.75s-.786 1.75-1.776 1.75-1.776-.775-1.776-1.75zm-1.015 0c0 1.525 1.244 2.75 2.791 2.75 1.548 0 2.791-1.225 2.791-2.75s-1.243-2.75-2.79-2.75c-1.548 0-2.792 1.225-2.792 2.75zm-3.806 1.75h-2.537v-3.5h2.537zm1.015-4.5H9.388v5.5h4.567zm-5.328-7h1.015v-1H8.627zm22.075 16.5h-1.015v1H30.7zm0-17.5h-1.015v1H30.7zm-21.06 17.5H8.627v1h1.015zM31.97 23H7.358v-3.25h18.015V8.25H7.358V2H31.97zm-8.627-12.75v7.5H2.03v-7.5zM34 25V0H5.328v8.25H0v11.5h5.328V25z"/></g></g></svg>