<svg xmlns="http://www.w3.org/2000/svg" width="42" height="23" viewBox="0 0 42 23"><g><g><path fill="#16479e" d="M14.422 18.649h1.264v-1.244h-1.264zM38.166 6.123a.629.629 0 0 1-.632.622.629.629 0 0 1-.632-.622c0-.342.285-.622.632-.622.348 0 .632.28.632.622zm1.338.093a1.879 1.879 0 0 0-1.88-1.865c-1.035 0-1.882.84-1.882 1.865 0 1.026.847 1.865 1.881 1.865 1.035 0 1.881-.84 1.881-1.865zm1.066-.932c.533 1.616-.407 3.357-2.038 3.885-1.63.528-3.386-.373-3.919-2.02h-2.132l-.407-.404-.408.404-.25.248-.659-.652-.345.341V5.595h4.139a3.116 3.116 0 0 1 3.072-2.487c1.38 0 2.571.87 2.947 2.176zM16.93 2.486v11.811h-3.762V2.487zm10.964 6.835h-9.716V2.486h8.776a.92.92 0 0 1 .94.932zM11.91 2.486v6.835H2.508V3.418a.92.92 0 0 1 .94-.931zm15.984 9.32v7.766a.92.92 0 0 1-.94.932H3.448a.92.92 0 0 1-.94-.932v-7.766h9.402v3.727h6.268v-3.727zm13.68-3.725a4.318 4.318 0 0 0-2.07-5.781c-2.163-1.026-4.797-.124-5.831 2.051h-3.26V3.108C30.412 1.398 29 0 27.276 0H3.135C1.411 0 0 1.399 0 3.108v16.784C0 21.602 1.41 23 3.135 23h24.142c1.724 0 3.135-1.399 3.135-3.108V8.143l.157.125.878.87.752-.746h1.63a4.405 4.405 0 0 0 3.794 2.176c1.693 0 3.23-.964 3.95-2.487z"/></g></g></svg>