<svg xmlns="http://www.w3.org/2000/svg" width="32" height="24" viewBox="0 0 32 24"><g><g><path fill="#16479e" d="M24 12.6c-1.2.2-2.1.3-3 .3-.9 0-1.8-.1-3-.3v-1.3c1.2-.2 2.1-.3 3-.3.9 0 1.8.1 3 .3zm.1-2.2c-1.1-.2-2.1-.3-3.1-.3s-1.9.1-3.1.3c-.5.1-.9.5-.9 1v1.3c0 .5.4.9.9 1 1.2.2 2.2.3 3.1.3 1 0 1.9-.1 3.1-.3.5-.1.9-.5.9-1v-1.3c0-.5-.4-1-.9-1zM30 14h-2.3c.2-.6.3-1.3.3-2s-.1-1.4-.3-2H30zm-9 3c-2.8 0-5-2.2-5-5s2.2-5 5-5 5 2.2 5 5-2.2 5-5 5zm-11-3v-4h4.3c-.2.6-.3 1.3-.3 2s.1 1.4.3 2zm-2 9H7V1h1zM5 13H2v-2h3zm27-5h-5.3c-1.3-1.8-3.4-3-5.7-3-2.3 0-4.5 1.2-5.7 3H9V0H6v9H0v6h6v9h3v-8h6.3c1.3 1.8 3.4 3 5.7 3 2.3 0 4.5-1.2 5.7-3H32z"/></g></g></svg>